<svg xmlns="http://www.w3.org/2000/svg" viewBox="0 0 597.44 474"><defs><style>.cls-1{fill:#fff;opacity:0.85;}.cls-2{fill:#668bbe;}.cls-3,.cls-9{fill:#d9e3ec;}.cls-4{fill:#efd32b;}.cls-5{fill:#df6864;}.cls-6{opacity:0.25;}.cls-7{fill:#6e7382;}.cls-8,.cls-9{opacity:0.4;}</style></defs><title>Adaptive1_BG_noshadow-rotate</title><g id="Layer_2" data-name="Layer 2"><g id="Layer_1-2" data-name="Layer 1"><polygon class="cls-1" points="206.12 0 201.91 0 112.08 0 109.61 0 107.14 0 80.06 0 56.49 0 29.4 0 26.93 0 24.46 0 0 0 0 474 597.44 474 597.44 0 206.12 0"/><path class="cls-2" d="M158.37,199.35c-23.64,0-42.87-23.69-42.87-52.81s19.23-52.81,42.87-52.81,42.87,23.69,42.87,52.81S182,199.35,158.37,199.35Z"/><path class="cls-3" d="M158.37,96.65c22.33,0,40.5,22.38,40.5,49.89s-18.17,49.89-40.5,49.89-40.49-22.38-40.49-49.89S136,96.65,158.37,96.65m0-5.84c-25,0-45.24,25-45.24,55.73s20.26,55.73,45.24,55.73,45.24-25,45.24-55.73-20.25-55.73-45.24-55.73Z"/><path class="cls-4" d="M159.72,124.31l4.95,12.34a1.57,1.57,0,0,0,1.13,1l11.06,2c1.23.22,1.73,2.09.83,3.16l-8,9.61a2.13,2.13,0,0,0-.43,1.64l1.89,13.57c.21,1.52-1.08,2.67-2.19,2l-9.89-6.41a1.27,1.27,0,0,0-1.4,0l-9.89,6.41c-1.11.71-2.4-.44-2.19-2l1.89-13.57a2.09,2.09,0,0,0-.43-1.64l-8-9.61c-.9-1.07-.4-2.94.83-3.16l11.06-2a1.56,1.56,0,0,0,1.13-1l5-12.34A1.4,1.4,0,0,1,159.72,124.31Z"/><path class="cls-5" d="M316.66,318.35c-23.64,0-42.87-23.69-42.87-52.81s19.23-52.81,42.87-52.81,42.87,23.69,42.87,52.81S340.3,318.35,316.66,318.35Z"/><path class="cls-3" d="M316.66,215.65c22.33,0,40.49,22.38,40.49,49.89S339,315.43,316.66,315.43s-40.5-22.38-40.5-49.89,18.17-49.89,40.5-49.89m0-5.84c-25,0-45.24,24.95-45.24,55.73s20.25,55.73,45.24,55.73,45.24-24.95,45.24-55.73-20.26-55.73-45.24-55.73Z"/><path class="cls-4" d="M301.28,238.16l3.12,7.8a1,1,0,0,0,.72.64l7,1.25a1.26,1.26,0,0,1,.53,2l-5.06,6.07a1.35,1.35,0,0,0-.28,1l1.2,8.58c.13.95-.68,1.68-1.38,1.23l-6.25-4a.8.8,0,0,0-.89,0l-6.25,4c-.7.45-1.51-.28-1.38-1.23l1.19-8.58a1.31,1.31,0,0,0-.27-1l-5.06-6.07a1.26,1.26,0,0,1,.53-2l7-1.25a1,1,0,0,0,.72-.64l3.12-7.8A.88.88,0,0,1,301.28,238.16Z"/><g class="cls-6"><path d="M319.14,272.82l3.12,7.81a1,1,0,0,0,.72.64l7,1.25a1.25,1.25,0,0,1,.52,2l-5.05,6.07a1.35,1.35,0,0,0-.28,1l1.2,8.57c.13,1-.68,1.69-1.38,1.24l-6.25-4.05a.8.8,0,0,0-.89,0l-6.25,4.05c-.7.45-1.51-.28-1.38-1.24l1.19-8.57a1.34,1.34,0,0,0-.27-1l-5.06-6.07a1.26,1.26,0,0,1,.53-2l7-1.25a1,1,0,0,0,.71-.64l3.13-7.81A.89.89,0,0,1,319.14,272.82Z"/></g><g class="cls-6"><path d="M334.29,238.16l3.12,7.8a1,1,0,0,0,.72.64l7,1.25a1.26,1.26,0,0,1,.53,2l-5.06,6.07a1.31,1.31,0,0,0-.27,1l1.19,8.58c.13.95-.68,1.68-1.38,1.23l-6.25-4a.8.8,0,0,0-.89,0l-6.25,4c-.7.45-1.51-.28-1.38-1.23l1.2-8.58a1.35,1.35,0,0,0-.28-1l-5.06-6.07a1.26,1.26,0,0,1,.53-2l7-1.25a1,1,0,0,0,.72-.64l3.12-7.8A.88.88,0,0,1,334.29,238.16Z"/></g><path class="cls-7" d="M471.29,159.36c-23.64,0-42.87-23.69-42.87-52.81s19.23-52.81,42.87-52.81,42.87,23.69,42.87,52.81S494.93,159.36,471.29,159.36Z"/><path class="cls-3" d="M471.29,56.66c22.33,0,40.49,22.38,40.49,49.89s-18.16,49.88-40.49,49.88-40.5-22.38-40.5-49.88S449,56.66,471.29,56.66m0-5.85c-25,0-45.24,25-45.24,55.74s20.25,55.73,45.24,55.73,45.24-24.95,45.24-55.73-20.26-55.74-45.24-55.74Z"/><path class="cls-4" d="M455.91,79.16,459,87a1,1,0,0,0,.72.64l7,1.25a1.25,1.25,0,0,1,.52,2l-5.05,6.07a1.35,1.35,0,0,0-.28,1l1.2,8.57c.13,1-.68,1.69-1.38,1.24l-6.25-4a.8.8,0,0,0-.89,0l-6.25,4c-.7.45-1.51-.28-1.38-1.24L448.17,98a1.34,1.34,0,0,0-.27-1l-5.06-6.07a1.26,1.26,0,0,1,.53-2l7-1.25a1,1,0,0,0,.71-.64l3.13-7.81A.89.89,0,0,1,455.91,79.16Z"/><g class="cls-6"><path d="M473.76,113.83l3.13,7.8a1,1,0,0,0,.72.64l7,1.26a1.25,1.25,0,0,1,.52,2l-5.06,6.08a1.36,1.36,0,0,0-.27,1l1.2,8.58c.13,1-.69,1.69-1.38,1.24l-6.26-4a.78.78,0,0,0-.88,0l-6.25,4c-.7.45-1.52-.28-1.38-1.24l1.19-8.58a1.36,1.36,0,0,0-.27-1l-5.06-6.08a1.25,1.25,0,0,1,.53-2l7-1.26a1,1,0,0,0,.71-.64l3.13-7.8A.88.88,0,0,1,473.76,113.83Z"/></g><path class="cls-4" d="M488.92,79.16,492,87a1,1,0,0,0,.72.64l7,1.25a1.26,1.26,0,0,1,.53,2l-5.06,6.07a1.35,1.35,0,0,0-.28,1l1.2,8.57c.13,1-.68,1.69-1.38,1.24l-6.25-4a.8.8,0,0,0-.89,0l-6.25,4c-.7.45-1.51-.28-1.38-1.24L481.18,98a1.34,1.34,0,0,0-.27-1l-5.06-6.07a1.26,1.26,0,0,1,.53-2l7-1.25a1,1,0,0,0,.72-.64l3.12-7.81A.89.89,0,0,1,488.92,79.16Z"/><g class="cls-8"><polygon class="cls-3" points="134.69 104.58 85.98 33.58 89.08 30.35 137.79 101.35 134.69 104.58"/></g><g class="cls-8"><polygon class="cls-3" points="280.58 236.17 191.29 177.17 193.21 172.76 282.5 231.76 280.58 236.17"/></g><g class="cls-8"><polygon class="cls-3" points="353.04 241.37 350.65 237.33 446.75 150.95 449.14 154.99 353.04 241.37"/></g><polygon class="cls-9" points="183.34 104 206.12 0 201.91 0 179.42 102.7 183.34 104"/><path class="cls-2" d="M68.27,35.93c18.4,0,34-15.19,38.87-35.93H80.05l1,7.14c.21,1.51-1.08,2.67-2.18,2L69,2.69a1.24,1.24,0,0,0-1.4,0l-9.89,6.4c-1.11.72-2.4-.44-2.18-1.95l1-7.14H29.4C34.31,20.74,49.87,35.93,68.27,35.93Z"/><path class="cls-3" d="M68.27,35.93c-18.4,0-34-15.19-38.87-35.93H26.93c5,22.37,21.63,38.86,41.34,38.86S104.63,22.37,109.61,0h-2.47C102.23,20.74,86.67,35.93,68.27,35.93Z"/><path class="cls-3" d="M68.27,41.78C89.35,41.78,107.05,24,112.08,0h-2.47c-5,22.37-21.62,38.86-41.34,38.86S31.92,22.37,26.93,0H24.46C29.49,24,47.2,41.78,68.27,41.78Z"/><path class="cls-4" d="M55.5,7.14c-.22,1.51,1.07,2.67,2.18,2l9.89-6.4a1.24,1.24,0,0,1,1.4,0l9.9,6.4c1.1.72,2.39-.44,2.18-1.95L80.05,0H56.49Z"/></g></g></svg>