<svg xmlns="http://www.w3.org/2000/svg" viewBox="0 0 597.44 196"><defs><style>.cls-1,.cls-8{fill:#fff;}.cls-2{fill:#3cf;}.cls-3{fill:#d6b92b;}.cls-4,.cls-5{fill:#efd32b;}.cls-5{font-size:17.9px;font-family:Lato-Black, Lato;}.cls-6{fill:#ccc;}.cls-7{fill:#18eadf;}.cls-8{opacity:0.5;}.cls-9{fill:#6698fe;}.cls-10{fill:#b8b3ab;}.cls-11{fill:#f3f2ec;}.cls-12{fill:#fe699a;}.cls-13{fill:#3d515e;}.cls-14{fill:#d5e5e4;}.cls-15{fill:#92f7db;}.cls-16{fill:#63cead;}.cls-17{fill:#3c5a95;}.cls-18{fill:#fefefe;}.cls-19{fill:#6a767a;}.cls-20{fill:#2d3f63;}.cls-21{fill:#213047;}.cls-22{fill:#a0afbc;}.cls-23{fill:#8b99a5;}.cls-24{fill:#333c42;}.cls-25{fill:#202528;}</style></defs><title>Adaptive3lesson1_noshadow-rotate</title><g id="Layer_2" data-name="Layer 2"><g id="Layer_1-2" data-name="Layer 1"><rect class="cls-1" width="597.44" height="196" rx="9.01" ry="9.01"/><rect class="cls-2" x="15.42" y="15.5" width="185.81" height="161" rx="10.74" ry="10.74"/><ellipse class="cls-3" cx="232.95" cy="121.06" rx="14.88" ry="18.33"/><ellipse class="cls-4" cx="234.17" cy="119.68" rx="14.88" ry="18.33"/><ellipse class="cls-3" cx="234.17" cy="119.68" rx="11.47" ry="14.13"/><text class="cls-5" transform="matrix(0.8, -0.18, 0.14, 0.99, 228.61, 127.58)">M</text><path class="cls-6" d="M268.8,113.29a3.4,3.4,0,0,1,1.42.28,3.15,3.15,0,0,1,1.08.79,3.36,3.36,0,0,1,.68,1.2,4.68,4.68,0,0,1,.24,1.53,4.78,4.78,0,0,1-.17,1.34,5.43,5.43,0,0,1-.44,1.16,7.07,7.07,0,0,1-.67,1.07c-.25.35-.51.7-.8,1l-2.08,2.63a6,6,0,0,1,.8-.23,3.23,3.23,0,0,1,.73-.09h2a.73.73,0,0,1,.57.25.93.93,0,0,1,.22.65v1.62h-7.49v-.9a1.86,1.86,0,0,1,.09-.55,1.34,1.34,0,0,1,.31-.54l3.07-3.81a11.39,11.39,0,0,0,.68-.93,5.46,5.46,0,0,0,.49-.87,4.69,4.69,0,0,0,.28-.85,4.45,4.45,0,0,0,.1-.91,2,2,0,0,0-.31-1.2,1.06,1.06,0,0,0-.92-.42,1.2,1.2,0,0,0-.85.34,1.48,1.48,0,0,0-.29.36,2,2,0,0,0-.19.45,1.36,1.36,0,0,1-.3.58.65.65,0,0,1-.48.18h-.16l-.17,0-1.2-.27a5.94,5.94,0,0,1,.45-1.71,4,4,0,0,1,.83-1.21,3,3,0,0,1,1.12-.72A3.87,3.87,0,0,1,268.8,113.29Z"/><path class="cls-6" d="M281.06,120a13,13,0,0,1-.3,3,6.85,6.85,0,0,1-.83,2.09,3.52,3.52,0,0,1-1.26,1.23,3.21,3.21,0,0,1-3.14,0,3.55,3.55,0,0,1-1.24-1.23,6.85,6.85,0,0,1-.83-2.09,15.46,15.46,0,0,1,0-6,6.79,6.79,0,0,1,.83-2.08,3.39,3.39,0,0,1,1.24-1.23,3.28,3.28,0,0,1,3.14,0,3.36,3.36,0,0,1,1.26,1.23,6.79,6.79,0,0,1,.83,2.08A13,13,0,0,1,281.06,120Zm-2.34,0a14.76,14.76,0,0,0-.14-2.22,5,5,0,0,0-.37-1.37,1.53,1.53,0,0,0-.52-.68,1.06,1.06,0,0,0-1.18,0,1.59,1.59,0,0,0-.51.68,5.45,5.45,0,0,0-.36,1.37,19.11,19.11,0,0,0,0,4.45,5.57,5.57,0,0,0,.36,1.37,1.53,1.53,0,0,0,.51.68,1,1,0,0,0,1.18,0,1.47,1.47,0,0,0,.52-.68,5.12,5.12,0,0,0,.37-1.37A14.71,14.71,0,0,0,278.72,120Z"/><path class="cls-6" d="M259.2,116.66l-2.31,2.84-2.3-2.84a.44.44,0,0,0-.71,0,.74.74,0,0,0,0,.87l2.31,2.84-2.31,2.84a.74.74,0,0,0,0,.87.43.43,0,0,0,.71,0l2.3-2.83,2.31,2.83a.43.43,0,0,0,.71,0,.74.74,0,0,0,0-.87l-2.31-2.84,2.31-2.84a.74.74,0,0,0,0-.87A.44.44,0,0,0,259.2,116.66Z"/><path class="cls-4" d="M236.86,34.69l4.4,11a1.39,1.39,0,0,0,1,.9l9.84,1.76a1.76,1.76,0,0,1,.74,2.81l-7.12,8.55a1.9,1.9,0,0,0-.38,1.46L247,73.24c.18,1.34-1,2.37-1.94,1.73l-8.81-5.7a1.12,1.12,0,0,0-1.24,0l-8.8,5.7c-1,.64-2.13-.39-1.94-1.73L226,61.16a1.91,1.91,0,0,0-.39-1.46l-7.12-8.55c-.79-.95-.35-2.61.74-2.81l9.84-1.76a1.38,1.38,0,0,0,1-.9l4.4-11A1.24,1.24,0,0,1,236.86,34.69Z"/><rect class="cls-7" x="472.3" y="32.97" width="100.25" height="43.01" rx="9.01" ry="9.01"/><path class="cls-8" d="M535.11,53.65l-15.51-11a1,1,0,0,0-1.59.82V65.5a1,1,0,0,0,1.59.82l15.51-11A1,1,0,0,0,535.11,53.65Z"/><path class="cls-1" d="M533.42,53.78l-13-9.25a.85.85,0,0,0-1.34.69V63.73a.85.85,0,0,0,1.34.69l13-9.26A.84.84,0,0,0,533.42,53.78Z"/><rect class="cls-9" x="20.17" y="21.39" width="176.09" height="146.33"/><polygon class="cls-10" points="157.66 159.23 60.4 157.45 62.15 49.33 156.05 49.53 157.66 159.23"/><polygon class="cls-11" points="159.63 159.3 62.37 157.52 64.12 49.4 158.02 49.6 159.63 159.3"/><ellipse class="cls-12" cx="126.96" cy="78.68" rx="1.03" ry="1.36" transform="translate(-1.17 1.91) rotate(-0.86)"/><ellipse class="cls-12" cx="133.95" cy="94.25" rx="1.03" ry="1.36" transform="translate(-1.4 2.02) rotate(-0.86)"/><ellipse class="cls-12" cx="133.82" cy="108.53" rx="1.03" ry="1.36" transform="translate(-1.61 2.02) rotate(-0.86)"/><ellipse class="cls-12" cx="109.12" cy="73.54" rx="1.03" ry="1.36" transform="translate(-1.09 1.65) rotate(-0.86)"/><ellipse class="cls-12" cx="90.9" cy="81.2" rx="1.03" ry="1.36" transform="translate(-1.21 1.37) rotate(-0.86)"/><ellipse class="cls-12" cx="84.9" cy="97.76" rx="1.03" ry="1.36" transform="translate(-1.46 1.29) rotate(-0.86)"/><ellipse class="cls-13" cx="65.3" cy="63.1" rx="1.03" ry="1.36" transform="translate(-0.94 0.99) rotate(-0.86)"/><ellipse class="cls-13" cx="65.06" cy="78.12" rx="1.03" ry="1.36" transform="translate(-1.17 0.99) rotate(-0.86)"/><ellipse class="cls-13" cx="64.61" cy="93.22" rx="1.03" ry="1.36" transform="translate(-1.39 0.98) rotate(-0.86)"/><ellipse class="cls-13" cx="64.45" cy="108.21" rx="1.03" ry="1.36" transform="translate(-1.62 0.98) rotate(-0.86)"/><ellipse class="cls-13" cx="64.3" cy="123.35" rx="1.03" ry="1.36" transform="translate(-1.84 0.98) rotate(-0.86)"/><ellipse class="cls-13" cx="64.24" cy="138.28" rx="1.03" ry="1.36" transform="translate(-2.07 0.98) rotate(-0.86)"/><ellipse class="cls-13" cx="64.12" cy="153.58" rx="1.03" ry="1.36" transform="translate(-2.3 0.98) rotate(-0.86)"/><path class="cls-14" d="M64.56,64.09l-5.72.16a.88.88,0,0,1-.9-.92v-.06a1,1,0,0,1,.94-1l5.73-.16a.87.87,0,0,1,.89.92v.06A1,1,0,0,1,64.56,64.09Z"/><path class="cls-14" d="M64.4,79.15l-5.73.16a.86.86,0,0,1-.89-.91v-.06a1,1,0,0,1,.94-1l5.72-.17a.88.88,0,0,1,.9.92v.06A1,1,0,0,1,64.4,79.15Z"/><path class="cls-14" d="M64.23,94.21l-5.72.17a.89.89,0,0,1-.9-.92V93.4a1,1,0,0,1,.94-1l5.73-.17a.89.89,0,0,1,.9.92v.06A1,1,0,0,1,64.23,94.21Z"/><path class="cls-14" d="M64.07,109.27l-5.72.17a.88.88,0,0,1-.9-.92v-.06a1,1,0,0,1,.94-1l5.72-.16a.87.87,0,0,1,.9.91v.06A1,1,0,0,1,64.07,109.27Z"/><path class="cls-14" d="M63.91,124.34l-5.73.16a.87.87,0,0,1-.89-.92v-.06a1,1,0,0,1,.94-1l5.72-.16a.88.88,0,0,1,.9.92v.06A1,1,0,0,1,63.91,124.34Z"/><path class="cls-14" d="M63.74,139.4l-5.72.16a.87.87,0,0,1-.9-.91v-.06a1,1,0,0,1,.94-1l5.73-.17a.89.89,0,0,1,.9.92v.06A1,1,0,0,1,63.74,139.4Z"/><path class="cls-14" d="M63.58,154.46l-5.72.17a.88.88,0,0,1-.9-.92v-.06a1,1,0,0,1,.94-1l5.72-.17a.88.88,0,0,1,.9.92v.06A1,1,0,0,1,63.58,154.46Z"/><polygon class="cls-14" points="158.52 70.69 63.75 70.68 63.78 70.19 158.54 70.21 158.52 70.69"/><polygon class="cls-14" points="158.16 85.88 63.4 85.86 63.42 85.37 158.19 85.39 158.16 85.88"/><polygon class="cls-14" points="157.8 101.06 63.04 101.04 63.06 100.56 157.83 100.57 157.8 101.06"/><polygon class="cls-14" points="157.45 116.24 62.68 116.23 62.7 115.74 157.47 115.76 157.45 116.24"/><polygon class="cls-14" points="157.09 131.43 62.32 131.41 62.34 130.92 157.11 130.94 157.09 131.43"/><polygon class="cls-14" points="156.73 146.61 61.96 146.59 61.99 146.1 156.75 146.12 156.73 146.61"/><path class="cls-15" d="M109.52,101.86l20.58,12c-8.06,15.5-24,22.83-35.28,16.23-7.45-4.36-11.45-13.94-10.43-25Z"/><path class="cls-16" d="M108.51,132.57a19.19,19.19,0,0,1-13.92-2C87,126.11,82.91,116.36,84,105.1l0-.41.38,0,25.27-3.29.12.07,21,12.26-.22.43C125.27,124.14,116.89,130.77,108.51,132.57Zm-23.71-27c-.87,10.69,3,19.91,10.24,24.13,11,6.44,26.4-.55,34.45-15.59l-20.07-11.73Z"/><ellipse class="cls-17" cx="109.36" cy="101.97" rx="1.03" ry="1.36" transform="translate(-1.52 1.65) rotate(-0.86)"/><rect class="cls-17" x="20.17" y="21.39" width="176.09" height="12.39"/><rect class="cls-18" x="20.17" y="156.62" width="176.09" height="11.5"/><circle class="cls-19" cx="31.3" cy="34.12" r="6.33"/><rect class="cls-20" x="69.09" y="25.45" width="82.33" height="4.67" rx="2.33" ry="2.33"/><path class="cls-20" d="M53.12,33.78H167.39a0,0,0,0,1,0,0V48.59a1.06,1.06,0,0,1-1.06,1.06H54.18a1.06,1.06,0,0,1-1.06-1.06V33.78a0,0,0,0,1,0,0Z"/><rect class="cls-21" x="63.98" y="37.45" width="92.55" height="9.03" rx="4.52" ry="4.52"/><rect class="cls-22" x="23.3" y="157.45" width="32.33" height="9.67" rx="1" ry="1"/><rect class="cls-23" x="28.87" y="159.12" width="21.18" height="6.33" rx="3.17" ry="3.17"/><rect class="cls-24" x="160.8" y="157.45" width="32.33" height="9.67" rx="1" ry="1"/><rect class="cls-25" x="166.37" y="159.12" width="21.18" height="6.33" rx="3.17" ry="3.17"/></g></g></svg>