<svg xmlns="http://www.w3.org/2000/svg" viewBox="0 0 597.44 196"><defs><style>.cls-1,.cls-8{fill:#fff;}.cls-2{fill:#3cf;}.cls-3{fill:#d6b92b;}.cls-4,.cls-5{fill:#efd32b;}.cls-5{font-size:17.9px;font-family:Lato-Black, Lato;}.cls-6{fill:#ccc;}.cls-7{fill:#18eadf;}.cls-15,.cls-16,.cls-17,.cls-18,.cls-8{opacity:0.5;}.cls-9{fill:#4b5081;}.cls-10{fill:#fefefe;}.cls-11{fill:#3b3f69;}.cls-12{fill:#6a767a;}.cls-13{fill:#282c44;}.cls-14{fill:#fb6a9c;}.cls-15{fill:#00a3c9;}.cls-16{fill:#7fdefd;}.cls-17{fill:#39ccfc;}.cls-18{fill:#32bdeb;}.cls-19{fill:#a0afbc;}.cls-20{fill:#8b99a5;}.cls-21{fill:#333c42;}.cls-22{fill:#202528;}</style></defs><title>Adaptive6lesson4_noshadow-rotate</title><g id="Layer_2" data-name="Layer 2"><g id="Layer_1-2" data-name="Layer 1"><rect class="cls-1" width="597.44" height="196" rx="9.01" ry="9.01"/><rect class="cls-2" x="15.42" y="15.5" width="185.81" height="161" rx="10.74" ry="10.74"/><ellipse class="cls-3" cx="232.95" cy="121.06" rx="14.88" ry="18.33"/><ellipse class="cls-4" cx="234.17" cy="119.68" rx="14.88" ry="18.33"/><ellipse class="cls-3" cx="234.17" cy="119.68" rx="11.47" ry="14.13"/><text class="cls-5" transform="matrix(0.8, -0.18, 0.14, 0.99, 228.61, 127.58)">M</text><path class="cls-6" d="M271.69,114.58a1.64,1.64,0,0,1-.07.52,1,1,0,0,1-.23.41.92.92,0,0,1-.41.27,1.65,1.65,0,0,1-.62.1h-2.54l-.3,2.17c.2,0,.39-.08.58-.1a4.89,4.89,0,0,1,.54,0,3.32,3.32,0,0,1,1.48.32,3,3,0,0,1,1.08.86,3.68,3.68,0,0,1,.67,1.27,5.74,5.74,0,0,1,.22,1.58,5.86,5.86,0,0,1-.3,1.92,4.77,4.77,0,0,1-.85,1.5,3.72,3.72,0,0,1-1.29,1,3.86,3.86,0,0,1-1.64.35,3.64,3.64,0,0,1-1-.14,4.28,4.28,0,0,1-.88-.36,4.57,4.57,0,0,1-.77-.53,5.52,5.52,0,0,1-.63-.65l.7-1.15a.75.75,0,0,1,.26-.27.5.5,0,0,1,.31-.1.65.65,0,0,1,.41.15l.43.33a3.71,3.71,0,0,0,.53.32,1.91,1.91,0,0,0,.76.14,1.5,1.5,0,0,0,.78-.19,1.46,1.46,0,0,0,.52-.5,2.3,2.3,0,0,0,.29-.75,4.39,4.39,0,0,0,.09-.91,2.08,2.08,0,0,0-.44-1.45,1.53,1.53,0,0,0-1.24-.5,3.23,3.23,0,0,0-1.4.33l-1.4-.47.9-6.56h5.45Z"/><path class="cls-6" d="M281.06,120a13,13,0,0,1-.3,3,6.85,6.85,0,0,1-.83,2.09,3.52,3.52,0,0,1-1.26,1.23,3.21,3.21,0,0,1-3.14,0,3.55,3.55,0,0,1-1.24-1.23,6.85,6.85,0,0,1-.83-2.09,15.46,15.46,0,0,1,0-6,6.79,6.79,0,0,1,.83-2.08,3.39,3.39,0,0,1,1.24-1.23,3.28,3.28,0,0,1,3.14,0,3.36,3.36,0,0,1,1.26,1.23,6.79,6.79,0,0,1,.83,2.08A13,13,0,0,1,281.06,120Zm-2.34,0a14.85,14.85,0,0,0-.14-2.22,5,5,0,0,0-.37-1.37,1.53,1.53,0,0,0-.52-.68,1.06,1.06,0,0,0-1.18,0,1.59,1.59,0,0,0-.51.68,5.45,5.45,0,0,0-.36,1.37,19.19,19.19,0,0,0,0,4.46,5.47,5.47,0,0,0,.36,1.36,1.53,1.53,0,0,0,.51.68,1,1,0,0,0,1.18,0,1.47,1.47,0,0,0,.52-.68,5,5,0,0,0,.37-1.36A15,15,0,0,0,278.72,120Z"/><path class="cls-6" d="M259.2,116.66l-2.31,2.84-2.3-2.84a.44.44,0,0,0-.71,0,.74.74,0,0,0,0,.87l2.31,2.84-2.31,2.84a.74.74,0,0,0,0,.87.43.43,0,0,0,.71,0l2.3-2.83,2.31,2.83a.43.43,0,0,0,.71,0,.74.74,0,0,0,0-.87l-2.31-2.84,2.31-2.84a.74.74,0,0,0,0-.87A.44.44,0,0,0,259.2,116.66Z"/><path class="cls-4" d="M236.86,34.69l4.4,11a1.39,1.39,0,0,0,1,.9l9.84,1.76a1.76,1.76,0,0,1,.74,2.81l-7.12,8.55a1.9,1.9,0,0,0-.38,1.46L247,73.24c.18,1.34-1,2.37-1.94,1.73l-8.81-5.7a1.12,1.12,0,0,0-1.24,0l-8.8,5.7c-1,.64-2.13-.39-1.94-1.73L226,61.16a1.91,1.91,0,0,0-.39-1.46l-7.12-8.55c-.79-.95-.35-2.61.74-2.81l9.84-1.76a1.38,1.38,0,0,0,1-.9l4.4-11A1.24,1.24,0,0,1,236.86,34.69Z"/><path class="cls-4" d="M279.41,34.69l4.4,11a1.39,1.39,0,0,0,1,.9l9.84,1.76c1.1.2,1.53,1.86.74,2.81l-7.12,8.55a1.91,1.91,0,0,0-.39,1.46l1.69,12.08c.18,1.34-1,2.37-1.95,1.73l-8.8-5.7a1.12,1.12,0,0,0-1.24,0l-8.8,5.7c-1,.64-2.13-.39-2-1.73l1.68-12.08a1.86,1.86,0,0,0-.38-1.46L261,51.15c-.79-.95-.36-2.61.74-2.81l9.84-1.76a1.39,1.39,0,0,0,1-.9l4.4-11A1.24,1.24,0,0,1,279.41,34.69Z"/><path class="cls-4" d="M322,34.69l4.4,11a1.38,1.38,0,0,0,1,.9l9.84,1.76c1.09.2,1.53,1.86.74,2.81l-7.12,8.55a1.91,1.91,0,0,0-.39,1.46l1.68,12.08c.19,1.34-1,2.37-1.94,1.73l-8.8-5.7a1.14,1.14,0,0,0-1.25,0l-8.8,5.7c-1,.64-2.13-.39-1.94-1.73l1.68-12.08a1.9,1.9,0,0,0-.38-1.46l-7.12-8.55a1.76,1.76,0,0,1,.74-2.81l9.84-1.76a1.39,1.39,0,0,0,1-.9l4.4-11A1.24,1.24,0,0,1,322,34.69Z"/><rect class="cls-7" x="472.3" y="32.97" width="100.25" height="43.01" rx="9.01" ry="9.01"/><path class="cls-8" d="M535.11,53.65l-15.51-11a1,1,0,0,0-1.59.82V65.5a1,1,0,0,0,1.59.82l15.51-11A1,1,0,0,0,535.11,53.65Z"/><path class="cls-1" d="M533.42,53.78l-13-9.25a.85.85,0,0,0-1.34.69V63.73a.85.85,0,0,0,1.34.69l13-9.26A.84.84,0,0,0,533.42,53.78Z"/><rect class="cls-9" x="20.17" y="21.39" width="176.09" height="146.33"/><polygon class="cls-10" points="174.02 147.53 29.55 147.53 41.91 108.03 186.38 108.03 174.02 147.53"/><rect class="cls-11" x="20.17" y="21.39" width="176.09" height="12.39"/><rect class="cls-10" x="20.17" y="156.62" width="176.09" height="11.5"/><circle class="cls-12" cx="31.3" cy="34.12" r="6.33"/><rect class="cls-13" x="67.05" y="25.45" width="82.33" height="4.67" rx="2.33" ry="2.33"/><rect class="cls-11" x="68.38" y="40.53" width="82.33" height="12.5" rx="6.25" ry="6.25"/><path class="cls-14" d="M77.3,140.28h-.07a.44.44,0,0,1-.49-.42L76,92.7a.51.51,0,0,1,.49-.48.45.45,0,0,1,.5.42l.75,47.17A.49.49,0,0,1,77.3,140.28Z"/><polygon class="cls-15" points="133.66 117.97 91.61 118 91 70.09 132.91 69.87 133.66 117.97"/><polygon class="cls-16" points="119.71 139.73 77.67 139.75 91.5 118.02 133.54 118 119.71 139.73"/><polygon class="cls-17" points="77.67 139.75 77.08 91.63 90.92 70 91.51 118.13 77.67 139.75"/><polygon class="cls-16" points="119.1 91.81 77.06 91.84 90.88 70.11 132.93 70.08 119.1 91.81"/><polygon class="cls-18" points="119.71 139.73 119.12 91.6 132.96 69.98 133.55 118.1 119.71 139.73"/><path class="cls-14" d="M119.4,140.28a.42.42,0,0,1-.29,0,.37.37,0,0,1-.14-.56l14.56-22a.51.51,0,0,1,.64-.18.37.37,0,0,1,.14.56l-14.56,22A.49.49,0,0,1,119.4,140.28Z"/><polygon class="cls-14" points="65.2 116.55 60.37 128.02 69.55 127.73 65.2 116.55"/><polygon class="cls-14" points="140.72 121.65 135.89 133.12 145.07 132.83 140.72 121.65"/><ellipse class="cls-14" cx="53.58" cy="122.62" rx="5.86" ry="4.65" transform="translate(-73.18 165.5) rotate(-85.09)"/><rect class="cls-14" x="76.74" y="139.35" width="43" height="1.04" rx="0.52" ry="0.52"/><rect class="cls-19" x="23.3" y="157.45" width="32.33" height="9.67" rx="1" ry="1"/><rect class="cls-20" x="28.87" y="159.12" width="21.18" height="6.33" rx="3.17" ry="3.17"/><rect class="cls-21" x="160.8" y="157.45" width="32.33" height="9.67" rx="1" ry="1"/><rect class="cls-22" x="166.37" y="159.12" width="21.18" height="6.33" rx="3.17" ry="3.17"/></g></g></svg>