<svg xmlns="http://www.w3.org/2000/svg" viewBox="0 0 597.44 196"><defs><style>.cls-1,.cls-8{fill:#fff;}.cls-2{fill:#3cf;}.cls-3{fill:#d6b92b;}.cls-4,.cls-5{fill:#efd32b;}.cls-5{font-size:17.9px;font-family:Lato-Black, Lato;}.cls-6{fill:#ccc;}.cls-7{fill:#18eadf;}.cls-8{opacity:0.5;}.cls-9{fill:#dde9e9;}.cls-10{fill:#828a8a;}.cls-11{fill:#fefefe;}.cls-12{fill:#6a767a;}.cls-13{fill:#5e6363;}.cls-14{fill:#424747;}.cls-15{fill:#c5d3d3;}.cls-16{fill:#a0afbc;}.cls-17{fill:#8b99a5;}.cls-18{fill:#333c42;}.cls-19{fill:#202528;}.cls-20{fill:#baa2de;}.cls-21{fill:#9a62d4;}.cls-22{fill:#83b4f2;stroke:#2b80ff;stroke-miterlimit:10;stroke-width:0.6px;}.cls-23{fill:#2b80ff;}</style></defs><title>Adaptive4lesson2_noshadow-rotate</title><g id="Layer_2" data-name="Layer 2"><g id="Layer_1-2" data-name="Layer 1"><rect class="cls-1" width="597.44" height="196" rx="9.01" ry="9.01"/><rect class="cls-2" x="15.42" y="15.5" width="185.81" height="161" rx="10.74" ry="10.74"/><ellipse class="cls-3" cx="232.95" cy="121.06" rx="14.88" ry="18.33"/><ellipse class="cls-4" cx="234.17" cy="119.68" rx="14.88" ry="18.33"/><ellipse class="cls-3" cx="234.17" cy="119.68" rx="11.47" ry="14.13"/><text class="cls-5" transform="matrix(0.8, -0.18, 0.14, 0.99, 228.61, 127.58)">M</text><path class="cls-6" d="M269,113.29a3.48,3.48,0,0,1,1.41.27,3.13,3.13,0,0,1,1,.74,3.41,3.41,0,0,1,.64,1.09,4,4,0,0,1,.22,1.3,5.79,5.79,0,0,1-.1,1.09,2.64,2.64,0,0,1-.31.82,2.17,2.17,0,0,1-.49.59,3.07,3.07,0,0,1-.68.41,2.9,2.9,0,0,1,1.77,3,5,5,0,0,1-.31,1.81,3.66,3.66,0,0,1-.82,1.29,3.3,3.3,0,0,1-1.2.77,4,4,0,0,1-1.41.26,4.26,4.26,0,0,1-1.35-.2,3.08,3.08,0,0,1-1.06-.63,4.11,4.11,0,0,1-.8-1.1,7.55,7.55,0,0,1-.61-1.58l1-.51a1.72,1.72,0,0,1,.26-.1l.25,0a.82.82,0,0,1,.42.11.65.65,0,0,1,.28.33,3.24,3.24,0,0,0,.7,1.08,1.24,1.24,0,0,0,.87.34,1.29,1.29,0,0,0,.66-.16,1.52,1.52,0,0,0,.47-.4,2.1,2.1,0,0,0,.28-.56,2.35,2.35,0,0,0,.09-.64,4.4,4.4,0,0,0-.05-.76,1.07,1.07,0,0,0-.26-.58,1.41,1.41,0,0,0-.66-.38,4.91,4.91,0,0,0-1.23-.13v-1.92a3.85,3.85,0,0,0,1.07-.13,1.46,1.46,0,0,0,.63-.35,1,1,0,0,0,.3-.53,3,3,0,0,0,.07-.7,2,2,0,0,0-.3-1.19,1.07,1.07,0,0,0-.93-.42,1.14,1.14,0,0,0-.46.09,1.09,1.09,0,0,0-.38.25,1.28,1.28,0,0,0-.29.36,2,2,0,0,0-.2.45,1.25,1.25,0,0,1-.29.58.66.66,0,0,1-.49.18h-.15l-.18,0-1.19-.27a5.63,5.63,0,0,1,.44-1.71,4.18,4.18,0,0,1,.83-1.21,3.07,3.07,0,0,1,1.13-.72A3.81,3.81,0,0,1,269,113.29Z"/><path class="cls-6" d="M281.06,120a13,13,0,0,1-.3,3,6.85,6.85,0,0,1-.83,2.09,3.52,3.52,0,0,1-1.26,1.23,3.21,3.21,0,0,1-3.14,0,3.55,3.55,0,0,1-1.24-1.23,6.85,6.85,0,0,1-.83-2.09,15.46,15.46,0,0,1,0-6,6.79,6.79,0,0,1,.83-2.08,3.39,3.39,0,0,1,1.24-1.23,3.28,3.28,0,0,1,3.14,0,3.36,3.36,0,0,1,1.26,1.23,6.79,6.79,0,0,1,.83,2.08A13,13,0,0,1,281.06,120Zm-2.34,0a14.76,14.76,0,0,0-.14-2.22,5,5,0,0,0-.37-1.37,1.53,1.53,0,0,0-.52-.68,1.06,1.06,0,0,0-1.18,0,1.59,1.59,0,0,0-.51.68,5.45,5.45,0,0,0-.36,1.37,19.11,19.11,0,0,0,0,4.45,5.57,5.57,0,0,0,.36,1.37,1.53,1.53,0,0,0,.51.68,1,1,0,0,0,1.18,0,1.47,1.47,0,0,0,.52-.68,5.12,5.12,0,0,0,.37-1.37A14.71,14.71,0,0,0,278.72,120Z"/><path class="cls-6" d="M259.2,116.66l-2.31,2.84-2.3-2.84a.44.44,0,0,0-.71,0,.74.74,0,0,0,0,.87l2.31,2.84-2.31,2.84a.74.74,0,0,0,0,.87.43.43,0,0,0,.71,0l2.3-2.83,2.31,2.83a.43.43,0,0,0,.71,0,.74.74,0,0,0,0-.87l-2.31-2.84,2.31-2.84a.74.74,0,0,0,0-.87A.44.44,0,0,0,259.2,116.66Z"/><path class="cls-4" d="M236.86,34.69l4.4,11a1.39,1.39,0,0,0,1,.9l9.84,1.76a1.76,1.76,0,0,1,.74,2.81l-7.12,8.55a1.9,1.9,0,0,0-.38,1.46L247,73.24c.18,1.34-1,2.37-1.94,1.73l-8.81-5.7a1.12,1.12,0,0,0-1.24,0l-8.8,5.7c-1,.64-2.13-.39-1.94-1.73L226,61.16a1.91,1.91,0,0,0-.39-1.46l-7.12-8.55c-.79-.95-.35-2.61.74-2.81l9.84-1.76a1.38,1.38,0,0,0,1-.9l4.4-11A1.24,1.24,0,0,1,236.86,34.69Z"/><path class="cls-4" d="M279.41,34.69l4.4,11a1.39,1.39,0,0,0,1,.9l9.84,1.76c1.1.2,1.53,1.86.74,2.81l-7.12,8.55a1.91,1.91,0,0,0-.39,1.46l1.69,12.08c.18,1.34-1,2.37-1.95,1.73l-8.8-5.7a1.12,1.12,0,0,0-1.24,0l-8.8,5.7c-1,.64-2.13-.39-2-1.73l1.68-12.08a1.86,1.86,0,0,0-.38-1.46L261,51.15c-.79-.95-.36-2.61.74-2.81l9.84-1.76a1.39,1.39,0,0,0,1-.9l4.4-11A1.24,1.24,0,0,1,279.41,34.69Z"/><rect class="cls-7" x="472.3" y="32.97" width="100.25" height="43.01" rx="9.01" ry="9.01"/><path class="cls-8" d="M535.11,53.65l-15.51-11a1,1,0,0,0-1.59.82V65.5a1,1,0,0,0,1.59.82l15.51-11A1,1,0,0,0,535.11,53.65Z"/><path class="cls-1" d="M533.42,53.78l-13-9.25a.85.85,0,0,0-1.34.69V63.73a.85.85,0,0,0,1.34.69l13-9.26A.84.84,0,0,0,533.42,53.78Z"/><rect class="cls-9" x="20.17" y="21.39" width="176.09" height="146.33"/><rect class="cls-10" x="20.17" y="21.39" width="176.09" height="12.39"/><rect class="cls-11" x="20.17" y="156.62" width="176.09" height="11.5"/><circle class="cls-12" cx="31.3" cy="34.12" r="6.33"/><rect class="cls-13" x="69.09" y="25.45" width="82.33" height="4.67" rx="2.33" ry="2.33"/><path class="cls-13" d="M59.42,33.78H161.08a0,0,0,0,1,0,0V48.65a1,1,0,0,1-1,1H60.42a1,1,0,0,1-1-1V33.78a0,0,0,0,1,0,0Z"/><rect class="cls-14" x="69.09" y="37.45" width="82.33" height="9.03" rx="4.52" ry="4.52"/><rect class="cls-15" x="81.22" y="112.48" width="58.07" height="17.25" rx="8.62" ry="8.62"/><rect class="cls-15" x="60.54" y="137.48" width="99.43" height="7.75" rx="3.66" ry="3.66"/><rect class="cls-16" x="23.3" y="157.45" width="32.33" height="9.67" rx="1" ry="1"/><rect class="cls-17" x="28.87" y="159.12" width="21.18" height="6.33" rx="3.17" ry="3.17"/><rect class="cls-18" x="160.8" y="157.45" width="32.33" height="9.67" rx="1" ry="1"/><rect class="cls-19" x="166.37" y="159.12" width="21.18" height="6.33" rx="3.17" ry="3.17"/><ellipse class="cls-20" cx="109.06" cy="84.73" rx="10.09" ry="12.3" transform="translate(-14.1 22.24) rotate(-10.94)"/><path class="cls-21" d="M111.63,97.37a8.52,8.52,0,0,1-1.75.18c-5.9,0-11.09-5.66-11.55-12.71A13.16,13.16,0,0,1,101.54,75a9.22,9.22,0,0,1,6.71-3c5.9,0,11.09,5.66,11.55,12.71h0a13.18,13.18,0,0,1-3.21,9.9A9.43,9.43,0,0,1,111.63,97.37Zm-4.88-24.11a8.22,8.22,0,0,0-4.34,2.5,12,12,0,0,0-2.89,9c.42,6.43,5.07,11.63,10.35,11.6a8,8,0,0,0,5.85-2.66,12,12,0,0,0,2.89-9c-.42-6.43-5.07-11.63-10.35-11.6A8.41,8.41,0,0,0,106.75,73.26Z"/><path class="cls-22" d="M63.16,62.43l7.18,3.41c-.93,3.39-3.54,5.63-6.58,5.65a6,6,0,0,1-1.68-.21Z"/><path class="cls-22" d="M152.37,63.15,154.7,72a6.3,6.3,0,0,1-1.73.26c-3,0-5.84-2.11-7.25-5.4Z"/><path class="cls-22" d="M164.72,110.79l-7.19-3.34A8.69,8.69,0,0,1,159.3,104a6.77,6.77,0,0,1,2.93-2Z"/><path class="cls-23" d="M57,111.21l.93-8.89a7.65,7.65,0,0,1,3.34,1.82,9.86,9.86,0,0,1,2.37,3.39Z"/><path class="cls-10" d="M165.21,111.47,109.79,85.19l-53.3,26.63,6.26-50,.46.22,46.52,22.07,43-21.51.14.56ZM110.85,84.66,164,109.85,152.28,64ZM63.41,63.19l-5.89,47,51.15-25.55Z"/><ellipse class="cls-10" cx="109.05" cy="84.46" rx="1.49" ry="1.81" transform="translate(-14.05 22.23) rotate(-10.94)"/><ellipse class="cls-18" cx="152.39" cy="63.07" rx="1.15" ry="1.4" transform="translate(-9.2 30.07) rotate(-10.94)"/><ellipse class="cls-18" cx="56.45" cy="111.51" rx="1.15" ry="1.4" transform="translate(-20.14 12.74) rotate(-10.94)"/><ellipse class="cls-18" cx="63.09" cy="61.75" rx="1.15" ry="1.4" transform="translate(-10.57 13.1) rotate(-10.94)"/></g></g></svg>