<svg xmlns="http://www.w3.org/2000/svg" viewBox="0 0 582.59 492.37"><defs><style>.cls-1{fill:#a86756;}.cls-2,.cls-5{fill:#554f6e;}.cls-3{fill:#5573c9;}.cls-4{fill:#664242;}.cls-5{opacity:0.5;}</style></defs><title>Adaptive1Character</title><g id="Layer_2" data-name="Layer 2"><g id="Layer_1-2" data-name="Layer 1"><rect class="cls-1" x="22.05" y="31.63" width="20" height="67.59" rx="10" ry="10" transform="translate(-40.63 70.51) rotate(-67.91)"/><ellipse class="cls-2" cx="388.59" cy="70.37" rx="32" ry="25"/><path class="cls-3" d="M73.59,100.27,264.35,259.21c31.86,24.23,55.53,55,68.68,89.12l55.39,144H582.59V314c0-19.37-13.17-37.08-34-45.75C436.42,221.57,123.21,90.47,115.75,87.37"/><ellipse class="cls-1" cx="414.54" cy="144.03" rx="83" ry="73.19" transform="translate(123.08 472.12) rotate(-67.54)"/><rect class="cls-1" x="402.69" y="148.86" width="57.51" height="117.42" rx="28.75" ry="28.75" transform="translate(39.55 -67.47) rotate(9.37)"/><path class="cls-4" d="M388.37,173.41C386.91,180.2,373,200.32,363.19,198s-13.2-26.54-11.46-33.27c1.29-5,5,1.18,18.32,4.35S389.46,168.38,388.37,173.41Z"/><ellipse class="cls-2" cx="355.34" cy="126.37" rx="12.7" ry="6.13" transform="translate(67.14 369.64) rotate(-59.74)"/><ellipse class="cls-2" cx="391.2" cy="141.79" rx="12.71" ry="6.12" transform="matrix(0.59, -0.8, 0.8, 0.59, 44.85, 372.41)"/><path class="cls-2" d="M481.15,180.81l-41.81-17.29L444,138.4a121.2,121.2,0,0,0,1.54-31.31c-.73-9.79,2.07-16.24,15.19-10.78L508,116Z"/><ellipse class="cls-1" cx="467.36" cy="176.45" rx="24.83" ry="26.92"/><ellipse class="cls-2" cx="409.28" cy="37" rx="37" ry="33.58"/><ellipse class="cls-2" cx="510.59" cy="97.33" rx="37" ry="33.58"/><ellipse class="cls-2" cx="490.1" cy="67.73" rx="37" ry="33.58"/><ellipse class="cls-2" cx="453.67" cy="33.58" rx="37" ry="33.58"/><ellipse class="cls-2" cx="417.81" cy="61.47" rx="51.23" ry="28.46"/><ellipse class="cls-2" cx="434.89" cy="81.96" rx="36.43" ry="28.46"/><ellipse class="cls-2" cx="469.04" cy="67.16" rx="36.43" ry="28.46"/><ellipse class="cls-2" cx="490.67" cy="109.28" rx="36.43" ry="28.46"/><polygon class="cls-5" points="534.59 351.37 519.96 490.37 498.09 490.37 534.59 351.37"/><path class="cls-1" d="M116.15,87.75,73.59,100.37l-28.1-.44a19.57,19.57,0,0,1-16-30.43l8.08-12.13Z"/></g></g></svg>