<svg xmlns="http://www.w3.org/2000/svg" viewBox="0 0 597.44 196"><defs><style>.cls-1,.cls-8{fill:#fff;}.cls-2{fill:#3cf;}.cls-3{fill:#d6b92b;}.cls-4,.cls-5{fill:#efd32b;}.cls-5{font-size:17.9px;font-family:Lato-Black, Lato;}.cls-6{fill:#ccc;}.cls-7{fill:#18eadf;}.cls-8{opacity:0.5;}.cls-9{fill:#765495;}.cls-10{fill:#453158;}.cls-11{fill:#fefefe;}.cls-12{fill:#6a767a;}.cls-13{fill:#32263e;}.cls-14{fill:#a0afbc;}.cls-15{fill:#8b99a5;}.cls-16{fill:#333c42;}.cls-17{fill:#202528;}.cls-18{fill:#f4f4f4;}.cls-19{fill:#b9c7d0;}.cls-20{fill:#74828c;}.cls-21{fill:#b6d3f7;}.cls-22{fill:#a1c2e2;}.cls-23{fill:#d6e3ea;}.cls-24{fill:#36f6c9;}</style></defs><title>Adaptive5lesson3_noshadow-rotate</title><g id="Layer_2" data-name="Layer 2"><g id="Layer_1-2" data-name="Layer 1"><rect class="cls-1" width="597.44" height="196" rx="9.01" ry="9.01"/><rect class="cls-2" x="15.42" y="15.5" width="185.81" height="161" rx="10.74" ry="10.74"/><ellipse class="cls-3" cx="232.95" cy="121.06" rx="14.88" ry="18.33"/><ellipse class="cls-4" cx="234.17" cy="119.68" rx="14.88" ry="18.33"/><ellipse class="cls-3" cx="234.17" cy="119.68" rx="11.47" ry="14.13"/><text class="cls-5" transform="matrix(0.8, -0.18, 0.14, 0.99, 228.61, 127.58)">M</text><path class="cls-6" d="M269.43,118.24a3.09,3.09,0,0,1,1.14.23,3,3,0,0,1,1,.72,4,4,0,0,1,.72,1.23,5.11,5.11,0,0,1,.27,1.75,5.29,5.29,0,0,1-.28,1.74,4.35,4.35,0,0,1-.78,1.44,3.79,3.79,0,0,1-1.23,1,3.43,3.43,0,0,1-1.58.36,3.58,3.58,0,0,1-1.6-.35,3.41,3.41,0,0,1-1.2-1,4.4,4.4,0,0,1-.76-1.48,6.71,6.71,0,0,1-.26-1.9,6.56,6.56,0,0,1,.31-1.95,9.65,9.65,0,0,1,.91-2l2.39-4a1.26,1.26,0,0,1,.49-.45,1.35,1.35,0,0,1,.73-.19h2l-3.15,4.65-.15.2-.13.2a2.45,2.45,0,0,1,.54-.18A2.77,2.77,0,0,1,269.43,118.24Zm-2.37,4.13a3.35,3.35,0,0,0,.1.87,1.94,1.94,0,0,0,.29.67,1.27,1.27,0,0,0,.5.42,1.54,1.54,0,0,0,.7.15,1.34,1.34,0,0,0,.66-.16,1.82,1.82,0,0,0,.52-.44,2.24,2.24,0,0,0,.35-.67,2.77,2.77,0,0,0,.13-.83,3,3,0,0,0-.13-.9,1.84,1.84,0,0,0-.34-.67,1.38,1.38,0,0,0-.52-.41,1.58,1.58,0,0,0-.69-.15,1.33,1.33,0,0,0-.63.15,1.46,1.46,0,0,0-.5.43,2.32,2.32,0,0,0-.32.67A2.86,2.86,0,0,0,267.06,122.37Z"/><path class="cls-6" d="M281.06,120a13,13,0,0,1-.3,3,6.85,6.85,0,0,1-.83,2.09,3.52,3.52,0,0,1-1.26,1.23,3.21,3.21,0,0,1-3.14,0,3.55,3.55,0,0,1-1.24-1.23,6.85,6.85,0,0,1-.83-2.09,15.46,15.46,0,0,1,0-6,6.79,6.79,0,0,1,.83-2.08,3.39,3.39,0,0,1,1.24-1.23,3.28,3.28,0,0,1,3.14,0,3.36,3.36,0,0,1,1.26,1.23,6.79,6.79,0,0,1,.83,2.08A13,13,0,0,1,281.06,120Zm-2.34,0a14.85,14.85,0,0,0-.14-2.22,5,5,0,0,0-.37-1.37,1.53,1.53,0,0,0-.52-.68,1.06,1.06,0,0,0-1.18,0,1.59,1.59,0,0,0-.51.68,5.45,5.45,0,0,0-.36,1.37,19.19,19.19,0,0,0,0,4.46,5.47,5.47,0,0,0,.36,1.36,1.53,1.53,0,0,0,.51.68,1,1,0,0,0,1.18,0,1.47,1.47,0,0,0,.52-.68,5,5,0,0,0,.37-1.36A15,15,0,0,0,278.72,120Z"/><path class="cls-6" d="M259.2,116.66l-2.31,2.84-2.3-2.84a.44.44,0,0,0-.71,0,.74.74,0,0,0,0,.87l2.31,2.84-2.31,2.84a.74.74,0,0,0,0,.87.43.43,0,0,0,.71,0l2.3-2.83,2.31,2.83a.43.43,0,0,0,.71,0,.74.74,0,0,0,0-.87l-2.31-2.84,2.31-2.84a.74.74,0,0,0,0-.87A.44.44,0,0,0,259.2,116.66Z"/><path class="cls-4" d="M236.86,34.69l4.4,11a1.39,1.39,0,0,0,1,.9l9.84,1.76a1.76,1.76,0,0,1,.74,2.81l-7.12,8.55a1.9,1.9,0,0,0-.38,1.46L247,73.24c.18,1.34-1,2.37-1.94,1.73l-8.81-5.7a1.12,1.12,0,0,0-1.24,0l-8.8,5.7c-1,.64-2.13-.39-1.94-1.73L226,61.16a1.91,1.91,0,0,0-.39-1.46l-7.12-8.55c-.79-.95-.35-2.61.74-2.81l9.84-1.76a1.38,1.38,0,0,0,1-.9l4.4-11A1.24,1.24,0,0,1,236.86,34.69Z"/><path class="cls-4" d="M279.41,34.69l4.4,11a1.39,1.39,0,0,0,1,.9l9.84,1.76c1.1.2,1.53,1.86.74,2.81l-7.12,8.55a1.91,1.91,0,0,0-.39,1.46l1.69,12.08c.18,1.34-1,2.37-1.95,1.73l-8.8-5.7a1.12,1.12,0,0,0-1.24,0l-8.8,5.7c-1,.64-2.13-.39-2-1.73l1.68-12.08a1.86,1.86,0,0,0-.38-1.46L261,51.15c-.79-.95-.36-2.61.74-2.81l9.84-1.76a1.39,1.39,0,0,0,1-.9l4.4-11A1.24,1.24,0,0,1,279.41,34.69Z"/><path class="cls-4" d="M322,34.69l4.4,11a1.38,1.38,0,0,0,1,.9l9.84,1.76c1.09.2,1.53,1.86.74,2.81l-7.12,8.55a1.91,1.91,0,0,0-.39,1.46l1.68,12.08c.19,1.34-1,2.37-1.94,1.73l-8.8-5.7a1.14,1.14,0,0,0-1.25,0l-8.8,5.7c-1,.64-2.13-.39-1.94-1.73l1.68-12.08a1.9,1.9,0,0,0-.38-1.46l-7.12-8.55a1.76,1.76,0,0,1,.74-2.81l9.84-1.76a1.39,1.39,0,0,0,1-.9l4.4-11A1.24,1.24,0,0,1,322,34.69Z"/><rect class="cls-7" x="472.3" y="32.97" width="100.25" height="43.01" rx="9.01" ry="9.01"/><path class="cls-8" d="M535.11,53.65l-15.51-11a1,1,0,0,0-1.59.82V65.5a1,1,0,0,0,1.59.82l15.51-11A1,1,0,0,0,535.11,53.65Z"/><path class="cls-1" d="M533.42,53.78l-13-9.25a.85.85,0,0,0-1.34.69V63.73a.85.85,0,0,0,1.34.69l13-9.26A.84.84,0,0,0,533.42,53.78Z"/><rect class="cls-9" x="20.17" y="21.39" width="176.09" height="146.33"/><rect class="cls-10" x="20.17" y="21.39" width="176.09" height="12.39"/><rect class="cls-11" x="20.17" y="156.62" width="176.09" height="11.5"/><circle class="cls-12" cx="31.3" cy="34.12" r="6.33"/><rect class="cls-13" x="67.05" y="25.45" width="82.33" height="4.67" rx="2.33" ry="2.33"/><rect class="cls-14" x="23.3" y="157.45" width="32.33" height="9.67" rx="1" ry="1"/><rect class="cls-15" x="28.87" y="159.12" width="21.18" height="6.33" rx="3.17" ry="3.17"/><rect class="cls-16" x="160.8" y="157.45" width="32.33" height="9.67" rx="1" ry="1"/><rect class="cls-17" x="166.37" y="159.12" width="21.18" height="6.33" rx="3.17" ry="3.17"/><polygon class="cls-18" points="147.31 130.07 72.35 129.38 72.43 48.84 147.07 48.76 147.31 130.07"/><polygon class="cls-19" points="111.44 127.19 111.13 127.21 110.08 51.29 110.39 51.27 111.44 127.19"/><polygon class="cls-20" points="144.72 69.44 74.92 68.8 75.14 67.83 144.73 68.36 144.72 69.44"/><path class="cls-19" d="M145,127.59h-.33l-70.09-.65v-.28l.07-75.33,70.12-.07Zm-69.8-1.26,69.18.64-.22-75.1-68.9.07Z"/><polygon class="cls-19" points="74.81 85.02 74.82 84.72 144.62 85.11 144.6 85.42 74.81 85.02"/><polygon class="cls-21" points="144.79 127.36 74.89 126.72 74.77 115.11 144.38 115.05 144.79 127.36"/><polygon class="cls-19" points="74.73 102.3 74.74 101.99 144.53 102.38 144.52 102.69 74.73 102.3"/><polygon class="cls-19" points="74.86 115.21 74.87 114.91 144.67 115.3 144.65 115.61 74.86 115.21"/><path class="cls-22" d="M83.15,120.89h0a3,3,0,0,1,2.7-3.16l50.81.41a3,3,0,0,1,2.65,3.2h0a3,3,0,0,1-2.69,3.16l-50.81-.4A3,3,0,0,1,83.15,120.89Z"/><path class="cls-23" d="M78.86,59.51h0a3.2,3.2,0,0,1,2.92-3.42l21.55.17a3.21,3.21,0,0,1,2.88,3.47h0a3.21,3.21,0,0,1-2.92,3.42L81.74,63A3.22,3.22,0,0,1,78.86,59.51Z"/><path class="cls-23" d="M114.33,60.08h0a3.2,3.2,0,0,1,2.92-3.42l21.55.17a3.21,3.21,0,0,1,2.87,3.47h0a3.2,3.2,0,0,1-2.92,3.42l-21.55-.17A3.21,3.21,0,0,1,114.33,60.08Z"/><path class="cls-24" d="M150.41,107.36a10.72,10.72,0,0,0,1.35,1.86c.1.16,0,.33-.14.45s-.31.09-.44-.06l-1.9-2.18a.62.62,0,0,1,0-1,12.53,12.53,0,0,0,1.52-2,.59.59,0,0,1,.76-.29c.39.22,0,.48-.12.66-.35.52-.75,1-1.23,1.66,1.5,0,5.19-.06,5.73-.12a1.29,1.29,0,0,0,1.24-1.5c-.05-2.37-.19-10.89-.24-12.79,0-.41-.09-.49-.61-.41-1.23.17-5.44.19-6.43.2.49.58.89,1.11,1.34,1.58.26.26.29.51,0,.74s-.38,0-.54-.21c-.6-.7-1.24-1.37-1.86-2a.62.62,0,0,1,.07-.87c.55-.63,1-1.32,1.52-2,.18-.23.48-.55.81-.29s0,.6-.21.83A9.85,9.85,0,0,0,150,91.13l5.69-.14a1.16,1.16,0,0,0,1.24-1.15c0-1.08-.28-15.06-.31-15.45-.1-1.38-.43-1.71-1.78-1.68-1.72,0-3.45.05-5.17.08-.23,0-.46.08-.45-.26s.13-.48.44-.49l5.24-.14c2.29-.06,2.39,1.23,2.44,2.7.06,1.63.27,14.13.3,15.74s.27,13.32.27,15.17a1.84,1.84,0,0,1-1.76,1.77Z"/><path class="cls-24" d="M69.52,108.85l-5.88.11a2,2,0,0,1-1.79-2.18c0-2.09-.66-30.18-.62-31.34s1-1.88,2.36-1.9l5.1-.08c.36,0,.7.09.67.45s-.35.37-.7.37c-1.74,0-3.49,0-5.24.14-1.14.06-1.53.48-1.51,1.57.05,2.31.22,15.3.5,16a1.07,1.07,0,0,0,1,.77c1.86,0,5.67-.18,5.76-.23-.39-.46-.76-.93-1.18-1.35-.25-.25-.36-.5-.1-.75s.51,0,.66.22c.59.64,1.12,1.33,1.72,2a.51.51,0,0,1,0,.76,11.26,11.26,0,0,1-1.78,2.23c-.15.12-.22.46-.51.2a.44.44,0,0,1-.07-.65c.31-.36,1.24-1.35,1.48-1.63-2.49-.21-4.87.26-7.13-.13,0,1.73.27,12.77.3,13.56a1.26,1.26,0,0,0,1.48,1.23c1.68-.06,5.26-.13,5.47-.17-.47-.57-.91-1.07-1.32-1.59-.14-.18-.37-.36-.06-.61s.49,0,.61.16c.57.67,1.15,1.32,1.76,2a.77.77,0,0,1,0,1c-.51.79-1.3,1.34-1.79,2.13-.07.11-.18.29-.35.16s-.33-.35-.18-.63S69.48,109.22,69.52,108.85Z"/></g></g></svg>