<svg xmlns="http://www.w3.org/2000/svg" xmlns:xlink="http://www.w3.org/1999/xlink" viewBox="0 0 1017.79 677"><defs><style>.cls-1,.cls-2,.cls-3,.cls-41,.cls-6,.cls-7,.cls-8{opacity:0.5;}.cls-1{fill:url(#linear-gradient);}.cls-2{fill:#18eadf;}.cls-3{fill:url(#linear-gradient-2);}.cls-4{fill:#e7dc48;}.cls-4,.cls-5{opacity:0.25;}.cls-5{fill:#fe6462;}.cls-6{fill:#23d160;}.cls-7,.cls-9{fill:#fff;}.cls-10{fill:#4f6e7f;}.cls-11{fill:#33546a;}.cls-12{fill:#b26e60;}.cls-13{fill:#7f473c;}.cls-14{fill:#fc8b52;}.cls-15{fill:#e09489;}.cls-16{fill:#664437;}.cls-17{fill:#554f6e;}.cls-18{fill:#95b894;}.cls-19{fill:#80a68b;}.cls-20{fill:#fed6a2;}.cls-21{fill:#fcc78e;}.cls-22{fill:#fdc23e;}.cls-23{fill:#fee0b1;}.cls-24{fill:#e4b17c;}.cls-25{fill:#664336;}.cls-26{fill:#fe9656;}.cls-27{fill:#4e8cc9;}.cls-28{fill:#3a77aa;}.cls-29{fill:#ef89a6;}.cls-30{fill:#f5a0b4;}.cls-31{fill:#d16983;}.cls-32{fill:#d0aa30;}.cls-33{fill:#69a1dd;}.cls-34{fill:#fe6473;}.cls-35{fill:#9da2cb;}.cls-36{fill:#8db8e0;}.cls-37{fill:#fd6573;}.cls-38{fill:#fcdfac;}.cls-39{fill:#f7cc8f;}.cls-40{fill:#e2927d;}.cls-41{fill:url(#linear-gradient-3);}</style><linearGradient id="linear-gradient" x1="636.59" y1="675" x2="636.59" y2="361" gradientUnits="userSpaceOnUse"><stop offset="0" stop-color="#18eadf" stop-opacity="0.25"/><stop offset="1" stop-color="#18eadf" stop-opacity="0.5"/></linearGradient><linearGradient id="linear-gradient-2" x1="619.59" y1="674" x2="619.59" y2="243" gradientUnits="userSpaceOnUse"><stop offset="0" stop-color="#fe6462" stop-opacity="0.25"/><stop offset="1" stop-color="#fe6462" stop-opacity="0.5"/></linearGradient><linearGradient id="linear-gradient-3" x1="598.38" y1="677" x2="598.38" y2="397" gradientTransform="translate(1196.77 1073.99) rotate(180)" gradientUnits="userSpaceOnUse"><stop offset="0" stop-color="#23d160" stop-opacity="0.25"/><stop offset="1" stop-color="#23d160" stop-opacity="0.5"/></linearGradient></defs><title>Paths 2</title><g id="Layer_2" data-name="Layer 2"><g id="Layer_1-2" data-name="Layer 1"><rect class="cls-1" x="628.04" y="361" width="17.1" height="314" rx="8.55" ry="8.55"/><rect class="cls-2" x="774.94" y="212.55" width="17.1" height="314" rx="8.55" ry="8.55" transform="translate(413.94 1153.03) rotate(-90)"/><rect class="cls-3" x="611.04" y="243" width="17.1" height="431" rx="8.55" ry="8.55"/><rect class="cls-4" x="574.04" y="314" width="17.1" height="360" rx="8.55" ry="8.55"/><rect class="cls-4" x="375.99" y="115.95" width="17.1" height="414.1" rx="8.55" ry="8.55" transform="translate(707.54 -61.54) rotate(90)"/><rect class="cls-4" x="176.99" y="75.5" width="17.1" height="255.55" rx="8.55" ry="8.55" transform="translate(371.08 406.55) rotate(-180)"/><rect class="cls-2" x="911.41" y="332.21" width="17.1" height="51.62" rx="8.55" ry="8.55" transform="translate(16.29 755.37) rotate(-45)"/><rect class="cls-2" x="911.41" y="356.21" width="17.1" height="51.62" rx="8.55" ry="8.55" transform="translate(539.58 -538.62) rotate(45)"/><rect class="cls-5" x="599.41" y="239.21" width="17.1" height="51.62" rx="8.55" ry="8.55" transform="translate(850.46 882.32) rotate(-135)"/><rect class="cls-5" x="623.41" y="239.21" width="17.1" height="51.62" rx="8.55" ry="8.55" transform="translate(-2.3 524.49) rotate(-45)"/><rect class="cls-4" x="165.27" y="70.55" width="17.1" height="51.62" rx="8.55" ry="8.55" transform="translate(228.6 287.4) rotate(-135)"/><rect class="cls-4" x="189.27" y="70.55" width="17.1" height="51.62" rx="8.55" ry="8.55" transform="translate(-10.19 168.1) rotate(-45)"/><rect class="cls-6" x="90.41" y="368.21" width="17.1" height="51.62" rx="8.55" ry="8.55" transform="translate(-109.67 742.61) rotate(-135)"/><circle class="cls-7" cx="982.58" cy="364.22" r="29.21"/><g class="cls-8"><path class="cls-9" d="M983,398.68a34.83,34.83,0,1,1,34.83-34.83A34.87,34.87,0,0,1,983,398.68Zm0-67.42a32.58,32.58,0,1,0,32.58,32.58A32.62,32.62,0,0,0,983,331.26Z"/></g><path class="cls-10" d="M969.1,374a2.36,2.36,0,0,1,1.4-1.06c1.43-.51,2.88-1,4.32-1.46.54-.18,1.05-.2,1.4.37a6.65,6.65,0,0,0,.7,1.75,8.34,8.34,0,0,0,1.54,2.67,6.36,6.36,0,0,0,6.71,2.21,6.66,6.66,0,0,0,5-4.91h0c.17,0,.19-.11.22-.23a3.82,3.82,0,0,0,.6-1.5,1,1,0,0,1,1.2-.42c1.58.51,3.15,1,4.71,1.58a2.44,2.44,0,0,1,1.41,1.21c-.37,0-.58.25-.79.48-1.07,1.22-2.1,2.49-3.22,3.68a5.79,5.79,0,0,0-1.58,4.76c.11,1.24,0,2.49,0,3.73H974.47c0-1.77,0-3.55,0-5.32a3.39,3.39,0,0,0-.88-2.32C972.08,377.46,970.6,375.7,969.1,374Z"/><path class="cls-11" d="M992.7,386.83c0-1.24.09-2.5,0-3.73a5.79,5.79,0,0,1,1.58-4.76c1.12-1.18,2.15-2.45,3.22-3.68.21-.24.42-.5.79-.48.77,1,.63,2.16.8,3.27.32,2.18.56,4.38.81,6.58a2.67,2.67,0,0,1-1.81,2.81Z"/><path class="cls-11" d="M969.1,374c1.49,1.74,3,3.5,4.49,5.22a3.39,3.39,0,0,1,.88,2.32c0,1.77,0,3.55,0,5.32h-5.36a2.86,2.86,0,0,1-1.74-3.35c.37-2.56.64-5.14,1-7.71A2.69,2.69,0,0,1,969.1,374Z"/><path class="cls-12" d="M988.41,367.52l.19.21c0,.32,0,.64,0,1,0,2.34.06,2.41,2.33,3.11a3.82,3.82,0,0,1-.6,1.5l-.22.23h0c-.39,0-.67.22-1,.36a12.7,12.7,0,0,1-8.94.83,23.93,23.93,0,0,0-3.29-1.16,6.65,6.65,0,0,1-.7-1.75l1.61-.44a13.06,13.06,0,0,0,7.3-1.34A21.47,21.47,0,0,0,988.41,367.52Z"/><path class="cls-13" d="M978.59,367.32c.62-.09,1.06.52,1.68.42,2.26,1.28,4.52,1,6.8,0,.42-.17.82-.59,1.34-.26a21.47,21.47,0,0,1-3.27,2.51,13.06,13.06,0,0,1-7.3,1.34c.83-.73.74-1.71.72-2.67C978.55,368.25,978.58,367.78,978.59,367.32Z"/><path class="cls-14" d="M976.93,373.57a23.93,23.93,0,0,1,3.29,1.16,12.7,12.7,0,0,0,8.94-.83c.32-.14.6-.4,1-.36a6.66,6.66,0,0,1-5,4.91,6.36,6.36,0,0,1-6.71-2.21A8.34,8.34,0,0,1,976.93,373.57Z"/><path class="cls-14" d="M990.13,373.54l.22-.23C990.32,373.43,990.31,373.56,990.13,373.54Z"/><ellipse class="cls-12" cx="984.2" cy="355.59" rx="9.69" ry="14.47"/><path class="cls-15" d="M987.36,363.68c0,1.34-1.37,4.21-3.11,4.21S981,365,981,363.68s1.42,0,3.16,0S987.36,362.34,987.36,363.68Z"/><ellipse class="cls-16" cx="980.09" cy="359.29" rx="0.84" ry="1.21"/><ellipse class="cls-16" cx="988.19" cy="359.29" rx="0.84" ry="1.21"/><path class="cls-17" d="M996.68,349.4a3.73,3.73,0,0,0-.82-2.24,5,5,0,0,0,.12-1.06c0-3.3-3.26-6-7.28-6a8.57,8.57,0,0,0-3.09.57,10,10,0,0,0-10.93,0,4.18,4.18,0,0,0-1.94-.47c-2,0-3.63,1.33-3.63,3a2.53,2.53,0,0,0,.35,1.26,4.79,4.79,0,0,0-1.37,3.29c0,2.32,1.79,4.29,4.29,5.05v6.73h4v-5.67a18.94,18.94,0,0,0,8.32,1.75,20,20,0,0,0,7.27-1.28v5.2h4v-8.05A3.66,3.66,0,0,0,996.68,349.4Z"/><ellipse class="cls-12" cx="975.03" cy="360.03" rx="2.74" ry="3.05"/><ellipse class="cls-12" cx="993.25" cy="360.03" rx="2.74" ry="3.05"/><circle class="cls-7" cx="34.46" cy="402.55" r="29.21"/><g class="cls-8"><path class="cls-9" d="M34.83,437a34.83,34.83,0,1,1,34.83-34.83A34.87,34.87,0,0,1,34.83,437Zm0-67.42a32.59,32.59,0,1,0,32.58,32.59A32.62,32.62,0,0,0,34.83,369.59Z"/></g><path class="cls-18" d="M21.69,411A2,2,0,0,1,23,410c1.31-.45,2.64-.85,3.94-1.33a1,1,0,0,1,1.26.31,6.11,6.11,0,0,0,1,2.26l.2.2h0a1,1,0,0,0,0,.37,23.91,23.91,0,0,0,5.12,6.13.66.66,0,0,0,1,0,22.26,22.26,0,0,0,4-4.35,4.61,4.61,0,0,0,1.2-2.13h0l.2-.2a6.13,6.13,0,0,0,1-2.26,1,1,0,0,1,1.08-.37c1.46.5,2.93,1,4.39,1.49a1.62,1.62,0,0,1,1.07.87A44.28,44.28,0,0,1,45,415.15a4.51,4.51,0,0,0-1.38,3.42c.1,1.46,0,2.94,0,4.41H26.51c0-1.47-.07-2.94,0-4.41a4.58,4.58,0,0,0-1.38-3.42A38.45,38.45,0,0,1,21.69,411Z"/><path class="cls-19" d="M21.69,411a38.45,38.45,0,0,0,3.47,4.16,4.58,4.58,0,0,1,1.38,3.42c-.1,1.46,0,2.94,0,4.41h-5c-1.53-.8-1.71-2.09-1.46-3.65.36-2.24.59-4.49.87-6.74A2.21,2.21,0,0,1,21.69,411Z"/><path class="cls-19" d="M43.62,423c0-1.47.07-2.94,0-4.41A4.51,4.51,0,0,1,45,415.15,44.28,44.28,0,0,0,48.45,411a3.4,3.4,0,0,1,.88,2.45c.3,2.12.52,4.24.82,6.36A2.83,2.83,0,0,1,48.61,423Z"/><path class="cls-20" d="M39.39,404.9l.33.19c0,.41,0,.82,0,1.23,0,1.95.21,2.21,2.15,2.67a6.13,6.13,0,0,1-1,2.26l-.2.2h0A12.32,12.32,0,0,1,35.21,413a11.81,11.81,0,0,1-5.82-1.52h0l-.2-.2a6.11,6.11,0,0,1-1-2.26l1.53-.44c.67,0,1.33.15,2,.13a9.6,9.6,0,0,0,5.11-1.55c.82-.56,1.79-1,2.15-2h0A.39.39,0,0,0,39.39,404.9Z"/><path class="cls-21" d="M30.39,404.71l1.51.57a7.29,7.29,0,0,0,6.4.07l.71-.26c-.37,1-1.33,1.48-2.15,2a9.6,9.6,0,0,1-5.11,1.55c-.65,0-1.31-.14-2-.13a2.52,2.52,0,0,0,.62-2.25C30.37,405.77,30.39,405.24,30.39,404.71Z"/><path class="cls-22" d="M29.39,411.44A11.81,11.81,0,0,0,35.21,413a12.32,12.32,0,0,0,5.54-1.52,4.61,4.61,0,0,1-1.2,2.13,22.26,22.26,0,0,1-4,4.35.66.66,0,0,1-1,0,23.91,23.91,0,0,1-5.12-6.13A1,1,0,0,1,29.39,411.44Z"/><path class="cls-22" d="M29.2,411.25l.2.2Z"/><path class="cls-22" d="M40.73,411.44l.2-.2Z"/><path class="cls-21" d="M39.39,404.9a.39.39,0,0,1-.39.19A.4.4,0,0,1,39.39,404.9Z"/><path class="cls-23" d="M47.46,392.41c0,7.89-5.24,14.28-11.71,14.28S24,400.3,24,392.41s5-9,11.48-9S47.46,384.52,47.46,392.41Z"/><path class="cls-24" d="M40.58,401.14c0,1.36-2.09,4.29-4.76,4.29s-4.91-2.93-4.91-4.29,2.16,0,4.83,0S40.58,399.78,40.58,401.14Z"/><ellipse class="cls-25" cx="30.78" cy="396.67" rx="1.01" ry="1.23"/><ellipse class="cls-25" cx="40.58" cy="396.67" rx="1.01" ry="1.23"/><path class="cls-26" d="M43.49,381.3c-.86-.49-1.84-.63-2.71-1.06h-12a4.53,4.53,0,0,0-2.41,1.94,2,2,0,0,1-1,1A5,5,0,0,0,22.59,388c.23,2.47.55,4.94.83,7.41,1.58-.52,1.58-.52,1.6-2.09a3.81,3.81,0,0,1,1.26-2.94,1.35,1.35,0,0,0,.5-1.77c-.1-.22-.19-.59.06-.74s.44.19.59.38a8.61,8.61,0,0,0,5.18,3.29c.27.06.55.22.77-.11a1,1,0,0,1-.37-.31,1,1,0,0,0,.37.31c0-.27,0-.53,0-.8s.15-.47.41-.23A15.53,15.53,0,0,0,38.69,393c1.68.2,1.68.2,1.68-1.65a1.56,1.56,0,0,1,.17-.82c.35.73.72,1.45,1,2.2.19.44.41.5.8.28.92-.52,1.87-1,2.77-1.51.63-.38.9-.18,1,.5a4.94,4.94,0,0,1,.26,1.68c-.12.87.12,1.42,1,1.53a1.87,1.87,0,0,1,.51.24c.11-1.07.19-2.15.34-3.21C49,387.44,47.18,383.4,43.49,381.3Z"/><rect class="cls-26" x="23.56" y="388.18" width="2.77" height="10.56"/><rect class="cls-26" x="44.69" y="390.46" width="2.77" height="8.28"/><ellipse class="cls-23" cx="24.25" cy="397.42" rx="2.79" ry="3.12"/><ellipse class="cls-23" cx="46.61" cy="397.42" rx="2.79" ry="3.12"/><circle class="cls-7" cx="185.17" cy="35.21" r="29.21"/><g class="cls-8"><path class="cls-9" d="M185.54,69.66a34.83,34.83,0,1,1,34.83-34.83A34.87,34.87,0,0,1,185.54,69.66Zm0-67.42a32.59,32.59,0,1,0,32.58,32.59A32.62,32.62,0,0,0,185.54,2.25Z"/></g><path class="cls-27" d="M173.58,47.05a1.8,1.8,0,0,1,1.18-1c1.16-.45,2.34-.85,3.49-1.33a.84.84,0,0,1,1.12.31,6.55,6.55,0,0,0,.86,2.26l.17.2h0a1.15,1.15,0,0,0,0,.37A23.47,23.47,0,0,0,185,54c.3.3.55.29.88,0a21.5,21.5,0,0,0,3.53-4.35,4.8,4.8,0,0,0,1.06-2.13h0l.17-.2a6.57,6.57,0,0,0,.86-2.26c.26-.31.54-.53,1-.37,1.29.5,2.59,1,3.88,1.49a1.48,1.48,0,0,1,.95.87,43.52,43.52,0,0,1-3.07,4.17A4.83,4.83,0,0,0,193,54.64c.08,1.46,0,2.94,0,4.41H177.85c0-1.47-.06-2.94,0-4.41a4.91,4.91,0,0,0-1.22-3.42A37.78,37.78,0,0,1,173.58,47.05Z"/><path class="cls-28" d="M173.58,47.05a37.78,37.78,0,0,0,3.07,4.16,4.91,4.91,0,0,1,1.22,3.42c-.08,1.46,0,2.94,0,4.41h-4.42c-1.35-.8-1.52-2.09-1.29-3.65.32-2.24.52-4.49.77-6.74A2.33,2.33,0,0,1,173.58,47.05Z"/><path class="cls-28" d="M193,59c0-1.47.06-2.94,0-4.41a4.83,4.83,0,0,1,1.22-3.42,43.52,43.52,0,0,0,3.07-4.17,3.68,3.68,0,0,1,.78,2.45c.26,2.12.46,4.24.73,6.36A3,3,0,0,1,197.39,59Z"/><path class="cls-29" d="M181.28,40.78l1.34.57a5.78,5.78,0,0,0,5.66.07l.63-.26c-.33,1-1.18,1.48-1.9,2a7.81,7.81,0,0,1-4.52,1.55c-.57,0-1.16-.14-1.75-.13a2.75,2.75,0,0,0,.55-2.25C181.26,41.85,181.27,41.32,181.28,40.78Z"/><polygon class="cls-30" points="188.89 41.17 188.89 41.17 188.89 41.17 188.89 41.17"/><path class="cls-30" d="M191.46,45.06c-1.71-.46-1.9-.72-1.9-2.67,0-.41,0-.82,0-1.23l-.29-.19a.33.33,0,0,1-.34.19c-.33,1-1.18,1.48-1.9,2a7.81,7.81,0,0,1-4.52,1.55c-.57,0-1.16-.14-1.75-.13l-1.35.44a6.55,6.55,0,0,0,.86,2.26l.17.19h0a1.14,1.14,0,0,0,0,.37A23.46,23.46,0,0,0,185,54c.3.3.55.29.88,0a21.5,21.5,0,0,0,3.53-4.35,4.8,4.8,0,0,0,1.06-2.13h0l.17-.19A6.57,6.57,0,0,0,191.46,45.06Z"/><path class="cls-22" d="M179.54,47.32l.2.2Z"/><path class="cls-22" d="M191.08,47.52l.2-.2Z"/><path class="cls-21" d="M189.74,41a.39.39,0,0,1-.39.19A.4.4,0,0,1,189.74,41Z"/><path class="cls-30" d="M196.64,34.18c0,5.47-4.85,8.64-10.82,8.64S175,39.65,175,34.18s3.86-10.08,10.82-9.9C191.8,24.42,196.64,28.71,196.64,34.18Z"/><path class="cls-31" d="M191.36,38.9c0,.94-2.29,3-5.12,3s-5.12-2.05-5.12-3,2.29-.35,5.12-.35S191.36,38,191.36,38.9Z"/><ellipse class="cls-27" cx="182.18" cy="35.19" rx="1.08" ry="1.48"/><ellipse class="cls-27" cx="190.29" cy="35.24" rx="1.08" ry="1.48"/><ellipse class="cls-32" cx="186.24" cy="24.27" rx="10.74" ry="7.46"/><ellipse class="cls-32" cx="187.18" cy="15.51" rx="6.22" ry="6.1"/><ellipse class="cls-32" cx="179.37" cy="23.99" rx="8.37" ry="11.55" transform="translate(125.15 196.65) rotate(-80.19)"/><path class="cls-32" d="M176.41,34.65c1.66-.08,1.41-3.76,4.74-6.32,2.29-1.76,6-2.76,8.84-1.58,4.67,1.92,5,8.75,6.66,8.53,1.22-.16,2.42-3.87,1.39-7-1.83-5.51-9.94-6.5-11.21-6.63-5.16-.54-12.83,1-14.05,5.53C171.88,30.51,174.6,34.74,176.41,34.65Z"/><circle class="cls-30" cx="196.64" cy="35.29" r="3.9"/><circle class="cls-30" cx="174.86" cy="35.22" r="3.9"/><circle class="cls-7" cx="619.06" cy="204.23" r="29.21"/><g class="cls-8"><path class="cls-9" d="M619.44,238.68a34.83,34.83,0,1,1,34.83-34.83A34.87,34.87,0,0,1,619.44,238.68Zm0-67.42A32.58,32.58,0,1,0,652,203.85,32.62,32.62,0,0,0,619.44,171.27Z"/></g><path class="cls-33" d="M627.91,224.64H610.14l.06-5.14,17.51,0h.18Z"/><path class="cls-34" d="M610.2,219.5l-.06,5.14H606.7a3.14,3.14,0,0,1-1.21-3.58c.37-1.9.54-3.83.79-5.75a2,2,0,0,1,.56-1.28l3.3,5.27Z"/><path class="cls-34" d="M631.37,214.11c.41.2.34.68.57,1,.28,2.13.53,4.25.84,6.38.25,1.71-.09,2.43-1.62,3.17H628.1l-.09-5.17Z"/><path class="cls-35" d="M628,219.47l.09,5.17h-.19q0-2.58,0-5.16Z"/><path class="cls-36" d="M628,219.47l-.13,0h-.18c-.32-.31-.72-.17-1.09-.17H610.14l-3.3-5.27c0-.21,0-.54.12-.62,1.08-.75,2-1.8,3.5-1.74.92,1.48,1.82,3,2.75,4.44a2.26,2.26,0,0,0,2.08,1.1q3.76,0,7.52,0a2.44,2.44,0,0,0,2.28-1.26c.87-1.44,1.77-2.85,2.66-4.28,1.33-.1,3.54,1.4,3.61,2.45Z"/><path class="cls-37" d="M627.76,211.67c-.89,1.43-1.79,2.84-2.66,4.28a2.44,2.44,0,0,1-2.28,1.26q-3.76,0-7.52,0a2.26,2.26,0,0,1-2.08-1.1c-.93-1.47-1.84-3-2.75-4.44l.32-.21c.66-.11,1.26-.9,2-.19,1.63,3.75,5.15,5.4,8.73,4a5.54,5.54,0,0,0,3.76-4.17C626.24,210.74,627,211.3,627.76,211.67Z"/><path class="cls-38" d="M623.32,207.25h.17c0,.54,0,1.07,0,1.61,0,1.45.3,1.83,1.76,2.23a5.53,5.53,0,0,1-3.76,4.17c-3.58,1.4-7.1-.25-8.73-4l1.35-.58a8.5,8.5,0,0,0,6.59-1.14,4.37,4.37,0,0,0,2.21-2.1h0A.39.39,0,0,0,623.32,207.25Z"/><path class="cls-35" d="M610.14,219.29h16.48c.36,0,.77-.14,1.09.17l-17.51,0Z"/><path class="cls-39" d="M622.94,207.44a4.37,4.37,0,0,1-2.21,2.1,8.5,8.5,0,0,1-6.59,1.14c.86-1,.47-2.27.57-3.43.51-.09.87.36,1.35.37a7,7,0,0,0,6.17.06Z"/><path class="cls-21" d="M623.32,207.25a.39.39,0,0,1-.38.19A.4.4,0,0,1,623.32,207.25Z"/><path class="cls-38" d="M631,195c0,7.89-5.24,14.28-11.71,14.28s-11.71-6.39-11.71-14.28,5-9,11.48-9S631,187.08,631,195Z"/><path class="cls-25" d="M612.17,183.51a13.12,13.12,0,0,1,4.55-1.68l.63-.12c1.41-.05,1.9-.05,2.88-.07a4.26,4.26,0,0,1,1.2.16c.77.21,1.54.41,2.29.68a13.76,13.76,0,0,1,9,12.38,55.59,55.59,0,0,0,3.17,17.38.75.75,0,0,1-.3.9,25.78,25.78,0,0,1-3.7,2c-.23-.31-.16-.78-.57-1-.07-1-2.28-2.54-3.61-2.45-.79-.37-1.53-.92-2.48-.58-1.47-.41-1.76-.78-1.76-2.23,0-.54,0-1.07,0-1.61,1-.72.51-3,1.6-3.58,1.33-.68,2.78-.45,3.15-1.53a2.48,2.48,0,0,1,1.71-1.32,2.07,2.07,0,0,0,1.74-1.87,2.42,2.42,0,0,0-1.49-2.31c-.72-.25-.81-.7-.76-1.38a3.45,3.45,0,0,0-1.67-3.38,4.48,4.48,0,0,0-2.13-.65c-1.88-.11-3.84.34-5.63-.65l-1-1.49a6.49,6.49,0,0,0-2.93-4.79A7,7,0,0,0,612.17,183.51Z"/><path class="cls-25" d="M612.17,183.51a7,7,0,0,1,4,.78,6.64,6.64,0,0,1,3,5.55,5.61,5.61,0,0,1-4.32,1.38c-.69-.06-1.4,0-2.1,0a4,4,0,0,0-3.3,1.6,4.48,4.48,0,0,0-.77,2.88c0,.42,0,.74-.56.9a2,2,0,0,0-1.56,1.93,2.08,2.08,0,0,0,1.4,2.24c.5.2,3.09-.46,3.15.12.21,2.07,1.22,2.82,3.21,3.58.93.36-.38,2.18.45,2.79-.1,1.16.29,2.39-.57,3.43l-1.35.58c-.74-.7-1.34.08-2,.19-4.08-5.33-5.51-11.47-5.23-18C605.76,188.91,608.27,185.69,612.17,183.51Z"/><ellipse class="cls-38" cx="607.79" cy="199.61" rx="2.79" ry="3.12"/><ellipse class="cls-38" cx="629.73" cy="199.61" rx="2.79" ry="3.12"/><path class="cls-38" d="M619.24,209.25c5.37,0,9.89-4.41,11.27-10.42H608C609.35,204.84,613.87,209.25,619.24,209.25Z"/><path class="cls-40" d="M624.07,203.71c0,1.36-2.09,4.29-4.76,4.29s-4.91-2.93-4.91-4.29,2.16,0,4.83,0S624.07,202.34,624.07,203.71Z"/><ellipse class="cls-25" cx="614.27" cy="199.23" rx="1.01" ry="1.23" transform="translate(39.04 492.71) rotate(-45)"/><ellipse class="cls-25" cx="624.07" cy="199.23" rx="1.23" ry="1.01" transform="translate(41.91 499.64) rotate(-45)"/><path class="cls-25" d="M628.91,192.45c0,3.94-4.44,4-9.91,4s-9.91-.1-9.91-4,4.44-7.14,9.91-7.14S628.91,188.51,628.91,192.45Z"/><rect class="cls-6" x="333.94" y="140.55" width="17.1" height="530" rx="8.09" ry="8.09" transform="translate(-63.06 748.03) rotate(-90)"/><rect class="cls-6" x="90.41" y="392.21" width="17.1" height="51.62" rx="8.55" ry="8.55" transform="translate(464.53 643.63) rotate(135)"/><rect class="cls-41" x="589.83" y="397" width="17.1" height="280" rx="8.55" ry="8.55" transform="translate(1196.77 1073.99) rotate(-180)"/></g></g></svg>