<svg width="1920" height="795" viewBox="0 0 1920 795" fill="none" xmlns="http://www.w3.org/2000/svg">
<path opacity="0.05" d="M678.649 333.56L209.42 206.345L121.525 530.989L590.754 658.204L678.649 333.56Z" fill="#2096FF"/>
<path opacity="0.05" d="M1861.7 370.471L1392.48 243.256L1304.58 567.9L1773.81 695.115L1861.7 370.471Z" fill="#2096FF"/>
<path opacity="0.05" d="M2014.12 381.215L1669.13 287.681L1557.25 700.895L1902.25 794.43L2014.12 381.215Z" fill="#29B473"/>
<path opacity="0.05" d="M832.38 634.887L880.243 301.969L547.555 254.073L499.692 586.991L832.38 634.887Z" fill="#2096FF"/>
<path opacity="0.05" d="M902.415 740.707L941.846 466.435L457.607 396.721L418.175 670.993L902.415 740.707Z" fill="#2096FF"/>
<path opacity="0.05" d="M1112.03 270.669L979.025 70.5107L779.006 203.605L912.008 403.763L1112.03 270.669Z" fill="#2096FF"/>
<path opacity="0.05" d="M624.546 464.111L474.993 239.046L250.083 388.702L399.636 613.768L624.546 464.111Z" fill="#23D160"/>
<path opacity="0.05" d="M1943 352.841L1793.45 127.775L1568.54 277.431L1718.09 502.497L1943 352.841Z" fill="#23D160"/>
<path opacity="0.05" d="M1204.94 525.292L1014.02 237.987L726.918 429.029L917.828 716.334L1204.94 525.292Z" fill="#23D160"/>
<path opacity="0.05" d="M1474.53 427.278L1269.45 118.649L961.037 323.87L1166.12 632.499L1474.53 427.278Z" fill="#FE8684"/>
<path opacity="0.05" d="M621.6 563.087L480.779 351.162L216.891 526.754L357.712 738.679L621.6 563.087Z" fill="#FE8684"/>
<path opacity="0.05" d="M431.674 729.608L467.89 477.701L154.217 432.542L118 684.45L431.674 729.608Z" fill="#F2BE2A"/>
<path opacity="0.05" d="M1404.27 741.546L1440.49 489.639L1126.81 444.48L1090.6 696.388L1404.27 741.546Z" fill="#F2BE2A"/>
<path opacity="0.05" d="M1713.16 730.719L1680.06 426.161L1365.03 460.442L1398.12 765L1713.16 730.719Z" fill="#FE8684"/>
<path opacity="0.05" d="M611.19 240.56L560.426 164.165L484.083 214.964L534.847 291.359L611.19 240.56Z" fill="#FE8684"/>
<path opacity="0.05" d="M329.9 90.6133L287.511 26.8208L223.763 69.2393L266.152 133.032L329.9 90.6133Z" fill="#FE8684"/>
<path opacity="0.05" d="M1716.64 308.904L1626.06 172.598L1489.85 263.234L1580.43 399.539L1716.64 308.904Z" fill="#FE8684"/>
<path opacity="0.05" d="M1139.42 63.7981L1097.03 0.00561523L1033.28 42.4241L1075.67 106.217L1139.42 63.7981Z" fill="#F2BE2A"/>
<path opacity="0.05" d="M1500.37 343.85L1396.66 187.774L1240.69 291.556L1344.41 447.633L1500.37 343.85Z" fill="#F2BE2A"/>
<path opacity="0.05" d="M269.748 201.589L213.983 117.667L130.12 173.47L185.884 257.392L269.748 201.589Z" fill="#18EADF"/>
<path opacity="0.05" d="M59.541 153.467L25.4126 102.106L-25.9126 136.258L8.21584 187.619L59.541 153.467Z" fill="#33CCFF"/>
<path opacity="0.05" d="M1671.45 123.361L1637.33 72L1586 106.152L1620.13 157.513L1671.45 123.361Z" fill="#E7DC48"/>
<path d="M1187.36 317.412H1184.14C1183.71 317.412 1183.35 317.053 1183.35 316.623C1183.35 316.192 1183.71 315.834 1184.14 315.834H1187.36C1187.79 315.834 1188.15 316.192 1188.15 316.623C1188.15 317.053 1187.79 317.412 1187.36 317.412ZM1172.81 317.412H1169.59C1169.16 317.412 1168.8 317.053 1168.8 316.623C1168.8 316.192 1169.16 315.834 1169.59 315.834H1172.81C1173.24 315.834 1173.6 316.192 1173.6 316.623C1173.6 317.053 1173.24 317.412 1172.81 317.412ZM1158.26 317.412H1155.03C1154.6 317.412 1154.25 317.053 1154.25 316.623C1154.25 316.192 1154.6 315.834 1155.03 315.834H1158.26C1158.69 315.834 1159.05 316.192 1159.05 316.623C1159.05 317.053 1158.69 317.412 1158.26 317.412ZM1143.71 317.412H1140.48C1140.05 317.412 1139.69 317.053 1139.69 316.623C1139.69 316.192 1140.05 315.834 1140.48 315.834H1143.71C1144.14 315.834 1144.5 316.192 1144.5 316.623C1144.5 317.053 1144.14 317.412 1143.71 317.412ZM1129.16 317.412H1125.93C1125.5 317.412 1125.14 317.053 1125.14 316.623C1125.14 316.192 1125.5 315.834 1125.93 315.834H1129.16C1129.59 315.834 1129.95 316.192 1129.95 316.623C1129.95 317.053 1129.59 317.412 1129.16 317.412ZM1114.61 317.412H1111.38C1110.95 317.412 1110.59 317.053 1110.59 316.623C1110.59 316.192 1110.95 315.834 1111.38 315.834H1114.61C1115.04 315.834 1115.39 316.192 1115.39 316.623C1115.47 317.053 1115.04 317.412 1114.61 317.412ZM1100.05 317.412H1096.83C1096.4 317.412 1096.04 317.053 1096.04 316.623C1096.04 316.192 1096.4 315.834 1096.83 315.834H1100.05C1100.48 315.834 1100.84 316.192 1100.84 316.623C1100.91 317.053 1100.56 317.412 1100.05 317.412ZM1085.5 317.412H1082.28C1081.85 317.412 1081.49 317.053 1081.49 316.623C1081.49 316.192 1081.85 315.834 1082.28 315.834H1085.5C1085.93 315.834 1086.29 316.192 1086.29 316.623C1086.36 317.053 1086 317.412 1085.5 317.412ZM1198.69 317.412C1198.26 317.412 1197.9 317.053 1197.9 316.623C1197.9 316.192 1198.26 315.834 1198.69 315.762C1199.76 315.69 1200.77 315.618 1201.84 315.403C1202.27 315.331 1202.7 315.618 1202.77 316.049C1202.85 316.479 1202.56 316.91 1202.13 316.981C1200.91 317.196 1199.83 317.34 1198.69 317.412ZM1070.95 317.268H1070.88C1069.8 317.196 1068.66 316.981 1067.58 316.766C1067.15 316.694 1066.86 316.264 1066.94 315.834C1067.01 315.403 1067.44 315.116 1067.87 315.188C1068.87 315.403 1069.95 315.547 1070.95 315.69C1071.38 315.762 1071.74 316.12 1071.67 316.551C1071.74 316.981 1071.38 317.268 1070.95 317.268ZM1212.38 313.036C1212.09 313.036 1211.88 312.893 1211.66 312.677C1211.45 312.319 1211.52 311.817 1211.88 311.53C1212.74 310.956 1213.6 310.382 1214.46 309.665C1214.82 309.378 1215.32 309.449 1215.6 309.808C1215.89 310.167 1215.82 310.669 1215.46 310.956C1214.6 311.673 1213.67 312.319 1212.74 312.893C1212.67 313.036 1212.52 313.036 1212.38 313.036ZM1057.55 312.247C1057.4 312.247 1057.19 312.175 1057.04 312.104C1056.11 311.458 1055.25 310.741 1054.46 310.023C1054.11 309.736 1054.11 309.234 1054.39 308.876C1054.68 308.517 1055.18 308.517 1055.54 308.804C1056.33 309.521 1057.12 310.167 1057.98 310.741C1058.33 311.028 1058.41 311.53 1058.19 311.888C1057.98 312.104 1057.76 312.247 1057.55 312.247ZM514.197 309.378H512.548C512.118 309.378 511.76 309.019 511.76 308.589C511.76 308.158 512.118 307.8 512.548 307.8H514.197C514.699 307.8 515.201 307.8 515.774 307.728C516.204 307.728 516.634 308.015 516.634 308.517C516.634 308.947 516.347 309.378 515.846 309.378C515.344 309.306 514.77 309.378 514.197 309.378ZM501.294 309.378H498.069C497.638 309.378 497.28 309.019 497.28 308.589C497.28 308.158 497.638 307.8 498.069 307.8H501.294C501.724 307.8 502.083 308.158 502.083 308.589C502.083 308.947 501.724 309.378 501.294 309.378ZM486.743 309.378H483.517C483.087 309.378 482.729 309.019 482.729 308.589C482.729 308.158 483.087 307.8 483.517 307.8H486.743C487.173 307.8 487.531 308.158 487.531 308.589C487.531 308.947 487.173 309.378 486.743 309.378ZM472.191 309.378H468.966C468.536 309.378 468.177 309.019 468.177 308.589C468.177 308.158 468.536 307.8 468.966 307.8H472.191C472.621 307.8 472.98 308.158 472.98 308.589C472.98 308.947 472.621 309.378 472.191 309.378ZM457.64 309.378H454.414C453.984 309.378 453.626 309.019 453.626 308.589C453.626 308.158 453.984 307.8 454.414 307.8H457.64C458.07 307.8 458.428 308.158 458.428 308.589C458.428 308.947 458.07 309.378 457.64 309.378ZM443.088 309.378H439.863C439.433 309.378 439.074 309.019 439.074 308.589C439.074 308.158 439.433 307.8 439.863 307.8H443.088C443.519 307.8 443.877 308.158 443.877 308.589C443.877 308.947 443.519 309.378 443.088 309.378ZM428.537 309.378H425.311C424.881 309.378 424.523 309.019 424.523 308.589C424.523 308.158 424.881 307.8 425.311 307.8H428.537C428.967 307.8 429.326 308.158 429.326 308.589C429.326 308.947 428.967 309.378 428.537 309.378ZM413.986 309.378H410.76C410.33 309.378 409.971 309.019 409.971 308.589C409.971 308.158 410.33 307.8 410.76 307.8H413.986C414.416 307.8 414.774 308.158 414.774 308.589C414.774 308.947 414.416 309.378 413.986 309.378ZM399.434 309.378H396.208C395.778 309.378 395.42 309.019 395.42 308.589C395.42 308.158 395.778 307.8 396.208 307.8H399.434C399.864 307.8 400.223 308.158 400.223 308.589C400.223 308.947 399.864 309.378 399.434 309.378ZM384.883 309.378H381.657C381.227 309.378 380.869 309.019 380.869 308.589C380.869 308.158 381.227 307.8 381.657 307.8H384.883C385.313 307.8 385.671 308.158 385.671 308.589C385.671 308.947 385.313 309.378 384.883 309.378ZM370.331 309.378H367.106C366.675 309.378 366.317 309.019 366.317 308.589C366.317 308.158 366.675 307.8 367.106 307.8H370.331C370.761 307.8 371.12 308.158 371.12 308.589C371.12 308.947 370.761 309.378 370.331 309.378ZM355.78 309.378H352.554C352.124 309.378 351.766 309.019 351.766 308.589C351.766 308.158 352.124 307.8 352.554 307.8H355.78C356.21 307.8 356.568 308.158 356.568 308.589C356.568 308.947 356.21 309.378 355.78 309.378ZM341.228 309.378H338.003C337.573 309.378 337.214 309.019 337.214 308.589C337.214 308.158 337.573 307.8 338.003 307.8H341.228C341.658 307.8 342.017 308.158 342.017 308.589C342.017 308.947 341.658 309.378 341.228 309.378ZM326.677 309.378H323.451C323.021 309.378 322.663 309.019 322.663 308.589C322.663 308.158 323.021 307.8 323.451 307.8H326.677C327.107 307.8 327.465 308.158 327.465 308.589C327.465 308.947 327.107 309.378 326.677 309.378ZM312.126 309.378H308.9C308.47 309.378 308.111 309.019 308.111 308.589C308.111 308.158 308.47 307.8 308.9 307.8H312.126C312.556 307.8 312.914 308.158 312.914 308.589C312.986 308.947 312.556 309.378 312.126 309.378ZM526.67 306.437C526.383 306.437 526.096 306.293 525.953 306.006C525.738 305.576 525.881 305.146 526.311 304.93C527.243 304.428 528.175 303.926 529.035 303.352C529.394 303.137 529.895 303.209 530.182 303.567C530.397 303.926 530.325 304.428 529.967 304.715C529.035 305.289 528.103 305.863 527.1 306.365C526.956 306.365 526.813 306.437 526.67 306.437ZM1222.13 302.492C1221.98 302.492 1221.84 302.492 1221.77 302.42C1221.34 302.205 1221.2 301.702 1221.41 301.344C1221.91 300.411 1222.34 299.479 1222.7 298.475C1222.84 298.044 1223.35 297.829 1223.78 298.044C1224.21 298.188 1224.42 298.69 1224.21 299.12C1223.78 300.124 1223.35 301.2 1222.84 302.133C1222.7 302.348 1222.41 302.492 1222.13 302.492ZM1048.3 301.2C1048.01 301.2 1047.73 301.057 1047.58 300.698C1047.15 299.694 1046.72 298.69 1046.36 297.614C1046.22 297.183 1046.44 296.753 1046.87 296.61C1047.3 296.466 1047.73 296.681 1047.87 297.112C1048.23 298.116 1048.59 299.12 1049.02 300.053C1049.23 300.483 1049.02 300.913 1048.66 301.129C1048.51 301.129 1048.44 301.2 1048.3 301.2ZM537.494 296.896C537.35 296.896 537.207 296.825 537.063 296.753C536.705 296.538 536.562 296.036 536.848 295.605C537.422 294.745 537.995 293.812 538.425 292.879C538.641 292.449 539.142 292.306 539.501 292.521C539.931 292.736 540.074 293.238 539.859 293.597C539.357 294.601 538.784 295.534 538.139 296.466C537.995 296.825 537.78 296.896 537.494 296.896ZM1225.35 288.432C1224.92 288.432 1224.57 288.073 1224.57 287.643V284.415C1224.57 283.985 1224.92 283.626 1225.35 283.626C1225.78 283.626 1226.14 283.985 1226.14 284.415V287.643C1226.21 288.073 1225.78 288.432 1225.35 288.432ZM1045.72 286.997C1045.29 286.997 1044.93 286.639 1044.93 286.208V282.981C1044.93 282.55 1045.29 282.191 1045.72 282.191C1046.15 282.191 1046.51 282.55 1046.51 282.981V286.208C1046.58 286.639 1046.15 286.997 1045.72 286.997ZM542.153 283.339C542.153 283.339 542.081 283.339 542.153 283.339C541.651 283.339 541.293 282.909 541.364 282.478C541.436 281.833 541.436 281.187 541.436 280.542V279.25C541.436 278.82 541.794 278.461 542.225 278.461C542.655 278.461 543.013 278.82 543.013 279.25V280.542C543.013 281.259 543.013 281.905 542.941 282.55C542.941 282.981 542.583 283.339 542.153 283.339ZM1225.35 273.871C1224.92 273.871 1224.57 273.512 1224.57 273.082V269.854C1224.57 269.423 1224.92 269.065 1225.35 269.065C1225.78 269.065 1226.14 269.423 1226.14 269.854V273.082C1226.21 273.512 1225.78 273.871 1225.35 273.871ZM1045.72 272.436C1045.29 272.436 1044.93 272.077 1044.93 271.647V268.419C1044.93 267.989 1045.29 267.63 1045.72 267.63C1046.15 267.63 1046.51 267.989 1046.51 268.419V271.647C1046.58 272.077 1046.15 272.436 1045.72 272.436ZM542.225 268.778C541.794 268.778 541.436 268.419 541.436 267.989V264.689C541.436 264.259 541.794 263.9 542.225 263.9C542.655 263.9 543.013 264.259 543.013 264.689V267.917C543.013 268.419 542.655 268.778 542.225 268.778ZM1225.35 259.309C1224.92 259.309 1224.57 258.95 1224.57 258.52V255.292C1224.57 254.862 1224.92 254.503 1225.35 254.503C1225.78 254.503 1226.14 254.862 1226.14 255.292V258.52C1226.21 258.95 1225.78 259.309 1225.35 259.309ZM1045.72 257.875C1045.29 257.875 1044.93 257.516 1044.93 257.085V253.858C1044.93 253.427 1045.29 253.068 1045.72 253.068C1046.15 253.068 1046.51 253.427 1046.51 253.858V257.085C1046.58 257.516 1046.15 257.875 1045.72 257.875ZM542.583 254.216C542.511 254.216 542.511 254.216 542.44 254.216C542.01 254.144 541.723 253.714 541.795 253.284C541.938 252.208 542.225 251.132 542.511 250.056C542.655 249.625 543.085 249.338 543.515 249.482C543.945 249.625 544.16 250.056 544.088 250.486C543.802 251.49 543.587 252.495 543.372 253.571C543.3 253.929 542.941 254.216 542.583 254.216ZM1225.35 244.748C1224.92 244.748 1224.57 244.389 1224.57 243.959V240.731C1224.57 240.3 1224.92 239.942 1225.35 239.942C1225.78 239.942 1226.14 240.3 1226.14 240.731V243.959C1226.21 244.389 1225.78 244.748 1225.35 244.748ZM1045.72 243.313C1045.29 243.313 1044.93 242.954 1044.93 242.524V239.296C1044.93 238.866 1045.29 238.507 1045.72 238.507C1046.15 238.507 1046.51 238.866 1046.51 239.296V242.524C1046.58 242.954 1046.15 243.313 1045.72 243.313ZM548.461 241.089C548.246 241.089 548.103 241.018 547.959 240.874C547.601 240.587 547.529 240.085 547.816 239.726C548.533 238.866 549.249 238.005 550.038 237.288C550.325 237.001 550.898 237.001 551.185 237.288C551.472 237.574 551.472 238.148 551.185 238.435C550.468 239.153 549.751 239.942 549.106 240.731C548.963 240.946 548.676 241.089 548.461 241.089ZM560.073 232.625C559.715 232.625 559.428 232.41 559.285 232.123C559.142 231.693 559.357 231.262 559.715 231.047C560.719 230.617 561.794 230.33 562.869 230.043C563.299 229.899 563.729 230.186 563.873 230.617C564.016 231.047 563.729 231.477 563.299 231.621C562.296 231.908 561.292 232.195 560.288 232.553C560.288 232.553 560.217 232.625 560.073 232.625ZM694.047 230.688H690.821C690.391 230.688 690.033 230.33 690.033 229.899C690.033 229.469 690.391 229.11 690.821 229.11H694.047C694.477 229.11 694.835 229.469 694.835 229.899C694.835 230.33 694.477 230.688 694.047 230.688ZM679.496 230.688H676.27C675.84 230.688 675.481 230.33 675.481 229.899C675.481 229.469 675.84 229.11 676.27 229.11H679.496C679.926 229.11 680.284 229.469 680.284 229.899C680.284 230.33 679.926 230.688 679.496 230.688ZM664.944 230.688H661.718C661.288 230.688 660.93 230.33 660.93 229.899C660.93 229.469 661.288 229.11 661.718 229.11H664.944C665.374 229.11 665.733 229.469 665.733 229.899C665.733 230.33 665.374 230.688 664.944 230.688ZM650.393 230.688H647.167C646.737 230.688 646.378 230.33 646.378 229.899C646.378 229.469 646.737 229.11 647.167 229.11H650.393C650.823 229.11 651.181 229.469 651.181 229.899C651.181 230.33 650.823 230.688 650.393 230.688ZM635.841 230.688H632.616C632.185 230.688 631.827 230.33 631.827 229.899C631.827 229.469 632.185 229.11 632.616 229.11H635.841C636.271 229.11 636.63 229.469 636.63 229.899C636.63 230.33 636.271 230.688 635.841 230.688ZM621.29 230.688H618.064C617.634 230.688 617.276 230.33 617.276 229.899C617.276 229.469 617.634 229.11 618.064 229.11H621.29C621.72 229.11 622.078 229.469 622.078 229.899C622.078 230.33 621.72 230.688 621.29 230.688ZM606.738 230.688H603.513C603.083 230.688 602.724 230.33 602.724 229.899C602.724 229.469 603.083 229.11 603.513 229.11H606.738C607.168 229.11 607.527 229.469 607.527 229.899C607.527 230.33 607.168 230.688 606.738 230.688ZM592.187 230.688H588.961C588.531 230.688 588.173 230.33 588.173 229.899C588.173 229.469 588.531 229.11 588.961 229.11H592.187C592.617 229.11 592.975 229.469 592.975 229.899C592.975 230.33 592.617 230.688 592.187 230.688ZM577.635 230.688H574.41C573.98 230.688 573.621 230.33 573.621 229.899C573.621 229.469 573.98 229.11 574.41 229.11H577.635C578.066 229.11 578.424 229.469 578.424 229.899C578.424 230.33 578.066 230.688 577.635 230.688ZM705.301 230.688C704.871 230.688 704.513 230.33 704.513 229.899C704.513 229.469 704.871 229.11 705.301 229.038C706.376 229.038 707.38 228.895 708.455 228.752C708.885 228.68 709.315 228.967 709.387 229.397C709.459 229.827 709.172 230.258 708.742 230.33C707.595 230.545 706.448 230.688 705.301 230.688C705.373 230.688 705.373 230.688 705.301 230.688ZM1225.35 230.186C1224.92 230.186 1224.57 229.827 1224.57 229.397V226.169C1224.57 225.739 1224.92 225.38 1225.35 225.38C1225.78 225.38 1226.14 225.739 1226.14 226.169V229.397C1226.21 229.827 1225.78 230.186 1225.35 230.186ZM1045.72 228.752C1045.29 228.752 1044.93 228.393 1044.93 227.962V224.735C1044.93 224.304 1045.29 223.946 1045.72 223.946C1046.15 223.946 1046.51 224.304 1046.51 224.735V227.962C1046.58 228.393 1046.15 228.752 1045.72 228.752ZM719.136 226.528C718.849 226.528 718.634 226.384 718.419 226.169C718.204 225.811 718.275 225.308 718.706 225.021C719.566 224.448 720.426 223.874 721.286 223.228C721.645 222.941 722.146 223.013 722.433 223.372C722.72 223.73 722.648 224.232 722.29 224.519C721.43 225.237 720.498 225.811 719.566 226.456C719.422 226.528 719.279 226.528 719.136 226.528ZM729.028 216.127C728.884 216.127 728.741 216.127 728.669 216.055C728.311 215.84 728.168 215.338 728.383 214.979C728.884 214.047 729.315 213.114 729.745 212.11C729.888 211.679 730.39 211.464 730.82 211.679C731.25 211.823 731.465 212.325 731.25 212.755C730.82 213.76 730.39 214.764 729.816 215.768C729.53 215.983 729.315 216.127 729.028 216.127ZM1225.35 215.625C1224.92 215.625 1224.57 215.266 1224.57 214.836V211.608C1224.57 211.177 1224.92 210.819 1225.35 210.819C1225.78 210.819 1226.14 211.177 1226.14 211.608V214.836C1226.21 215.266 1225.78 215.625 1225.35 215.625ZM1045.72 214.19C1045.29 214.19 1044.93 213.831 1044.93 213.401V210.173C1044.93 209.743 1045.29 209.384 1045.72 209.384C1046.15 209.384 1046.51 209.743 1046.51 210.173V213.401C1046.58 213.831 1046.15 214.19 1045.72 214.19ZM732.397 202.139C731.967 202.139 731.608 201.781 731.608 201.35V198.122C731.608 197.692 731.967 197.333 732.397 197.333C732.827 197.333 733.185 197.692 733.185 198.122V201.35C733.185 201.781 732.827 202.139 732.397 202.139ZM1225.35 201.063C1224.92 201.063 1224.57 200.705 1224.57 200.274V197.046C1224.57 196.616 1224.92 196.257 1225.35 196.257C1225.78 196.257 1226.14 196.616 1226.14 197.046V200.274C1226.21 200.705 1225.78 201.063 1225.35 201.063ZM1045.72 199.629C1045.29 199.629 1044.93 199.27 1044.93 198.84V195.612C1044.93 195.181 1045.29 194.823 1045.72 194.823C1046.15 194.823 1046.51 195.181 1046.51 195.612V198.84C1046.58 199.27 1046.15 199.629 1045.72 199.629ZM732.397 187.578C731.967 187.578 731.608 187.219 731.608 186.789V183.561C731.608 183.13 731.967 182.772 732.397 182.772C732.827 182.772 733.185 183.13 733.185 183.561V186.789C733.185 187.219 732.827 187.578 732.397 187.578ZM1227.43 186.789C1227.36 186.789 1227.22 186.789 1227.15 186.717C1226.72 186.573 1226.5 186.071 1226.72 185.641C1227.15 184.637 1227.65 183.632 1228.15 182.628C1228.36 182.27 1228.87 182.126 1229.22 182.341C1229.58 182.556 1229.73 183.059 1229.51 183.417C1229.01 184.35 1228.58 185.282 1228.15 186.286C1228.08 186.645 1227.79 186.789 1227.43 186.789ZM1045.72 185.067C1045.29 185.067 1044.93 184.708 1044.93 184.278V182.341C1044.93 181.911 1044.93 181.552 1044.93 181.122C1044.93 180.691 1045.29 180.333 1045.72 180.261C1046.22 180.189 1046.51 180.62 1046.58 181.05C1046.58 181.48 1046.58 181.911 1046.58 182.341V184.278C1046.58 184.708 1046.15 185.067 1045.72 185.067ZM1236.11 175.312C1235.89 175.312 1235.6 175.24 1235.46 175.025C1235.17 174.666 1235.25 174.164 1235.6 173.877C1236.46 173.231 1237.4 172.586 1238.33 172.012C1238.69 171.797 1239.19 171.868 1239.48 172.299C1239.69 172.658 1239.62 173.16 1239.19 173.447C1238.33 174.02 1237.47 174.594 1236.61 175.24C1236.46 175.24 1236.32 175.312 1236.11 175.312ZM732.397 173.016C731.967 173.016 731.608 172.658 731.608 172.227V168.999C731.608 168.569 731.967 168.21 732.397 168.21C732.827 168.21 733.185 168.569 733.185 168.999V172.227C733.185 172.658 732.827 173.016 732.397 173.016ZM1042.99 170.936C1042.71 170.936 1042.42 170.792 1042.28 170.506C1041.85 169.573 1041.27 168.641 1040.77 167.78C1040.56 167.421 1040.63 166.919 1040.99 166.632C1041.35 166.417 1041.85 166.489 1042.13 166.847C1042.71 167.78 1043.28 168.784 1043.78 169.717C1044 170.147 1043.78 170.577 1043.42 170.792C1043.21 170.936 1043.07 170.936 1042.99 170.936ZM1249.37 169.645C1248.94 169.645 1248.65 169.358 1248.58 168.927C1248.51 168.497 1248.79 168.067 1249.3 167.995C1250.37 167.852 1251.52 167.708 1252.59 167.708C1253.02 167.708 1253.38 168.067 1253.45 168.497C1253.45 168.927 1253.09 169.286 1252.66 169.358C1251.59 169.358 1250.59 169.501 1249.51 169.645C1249.44 169.645 1249.37 169.645 1249.37 169.645ZM1585.63 169.358H1583.91C1583.48 169.358 1583.12 168.999 1583.12 168.569C1583.12 168.138 1583.48 167.78 1583.91 167.78H1585.63C1586.06 167.78 1586.42 168.138 1586.42 168.569C1586.49 168.999 1586.13 169.358 1585.63 169.358ZM1572.65 169.358H1569.43C1569 169.358 1568.64 168.999 1568.64 168.569C1568.64 168.138 1569 167.78 1569.43 167.78H1572.65C1573.08 167.78 1573.44 168.138 1573.44 168.569C1573.44 168.999 1573.08 169.358 1572.65 169.358ZM1558.1 169.358H1554.88C1554.45 169.358 1554.09 168.999 1554.09 168.569C1554.09 168.138 1554.45 167.78 1554.88 167.78H1558.1C1558.53 167.78 1558.89 168.138 1558.89 168.569C1558.89 168.999 1558.53 169.358 1558.1 169.358ZM1543.55 169.358H1540.32C1539.89 169.358 1539.54 168.999 1539.54 168.569C1539.54 168.138 1539.89 167.78 1540.32 167.78H1543.55C1543.98 167.78 1544.34 168.138 1544.34 168.569C1544.34 168.999 1543.98 169.358 1543.55 169.358ZM1529 169.358H1525.77C1525.34 169.358 1524.98 168.999 1524.98 168.569C1524.98 168.138 1525.34 167.78 1525.77 167.78H1529C1529.43 167.78 1529.79 168.138 1529.79 168.569C1529.79 168.999 1529.43 169.358 1529 169.358ZM1514.45 169.358H1511.22C1510.79 169.358 1510.43 168.999 1510.43 168.569C1510.43 168.138 1510.79 167.78 1511.22 167.78H1514.45C1514.88 167.78 1515.24 168.138 1515.24 168.569C1515.24 168.999 1514.88 169.358 1514.45 169.358ZM1499.9 169.358H1496.67C1496.24 169.358 1495.88 168.999 1495.88 168.569C1495.88 168.138 1496.24 167.78 1496.67 167.78H1499.9C1500.33 167.78 1500.68 168.138 1500.68 168.569C1500.68 168.999 1500.33 169.358 1499.9 169.358ZM1485.34 169.358H1482.12C1481.69 169.358 1481.33 168.999 1481.33 168.569C1481.33 168.138 1481.69 167.78 1482.12 167.78H1485.34C1485.77 167.78 1486.13 168.138 1486.13 168.569C1486.13 168.999 1485.77 169.358 1485.34 169.358ZM1470.79 169.358H1467.57C1467.14 169.358 1466.78 168.999 1466.78 168.569C1466.78 168.138 1467.14 167.78 1467.57 167.78H1470.79C1471.22 167.78 1471.58 168.138 1471.58 168.569C1471.58 168.999 1471.22 169.358 1470.79 169.358ZM1456.24 169.358H1453.02C1452.59 169.358 1452.23 168.999 1452.23 168.569C1452.23 168.138 1452.59 167.78 1453.02 167.78H1456.24C1456.67 167.78 1457.03 168.138 1457.03 168.569C1457.03 168.999 1456.67 169.358 1456.24 169.358ZM1441.69 169.358H1438.46C1438.03 169.358 1437.68 168.999 1437.68 168.569C1437.68 168.138 1438.03 167.78 1438.46 167.78H1441.69C1442.12 167.78 1442.48 168.138 1442.48 168.569C1442.48 168.999 1442.12 169.358 1441.69 169.358ZM1427.14 169.358H1423.91C1423.48 169.358 1423.12 168.999 1423.12 168.569C1423.12 168.138 1423.48 167.78 1423.91 167.78H1427.14C1427.57 167.78 1427.93 168.138 1427.93 168.569C1427.93 168.999 1427.57 169.358 1427.14 169.358ZM1412.59 169.358H1409.36C1408.93 169.358 1408.57 168.999 1408.57 168.569C1408.57 168.138 1408.93 167.78 1409.36 167.78H1412.59C1413.02 167.78 1413.38 168.138 1413.38 168.569C1413.38 168.999 1413.02 169.358 1412.59 169.358ZM1398.04 169.358H1394.81C1394.38 169.358 1394.02 168.999 1394.02 168.569C1394.02 168.138 1394.38 167.78 1394.81 167.78H1398.04C1398.47 167.78 1398.82 168.138 1398.82 168.569C1398.82 168.999 1398.47 169.358 1398.04 169.358ZM1383.48 169.358H1380.26C1379.83 169.358 1379.47 168.999 1379.47 168.569C1379.47 168.138 1379.83 167.78 1380.26 167.78H1383.48C1383.91 167.78 1384.27 168.138 1384.27 168.569C1384.27 168.999 1383.91 169.358 1383.48 169.358ZM1368.93 169.358H1365.71C1365.28 169.358 1364.92 168.999 1364.92 168.569C1364.92 168.138 1365.28 167.78 1365.71 167.78H1368.93C1369.36 167.78 1369.72 168.138 1369.72 168.569C1369.72 168.999 1369.36 169.358 1368.93 169.358ZM1354.38 169.358H1351.16C1350.73 169.358 1350.37 168.999 1350.37 168.569C1350.37 168.138 1350.73 167.78 1351.16 167.78H1354.38C1354.81 167.78 1355.17 168.138 1355.17 168.569C1355.17 168.999 1354.81 169.358 1354.38 169.358ZM1339.83 169.358H1336.6C1336.17 169.358 1335.82 168.999 1335.82 168.569C1335.82 168.138 1336.17 167.78 1336.6 167.78H1339.83C1340.26 167.78 1340.62 168.138 1340.62 168.569C1340.62 168.999 1340.26 169.358 1339.83 169.358ZM1325.28 169.358H1322.05C1321.62 169.358 1321.26 168.999 1321.26 168.569C1321.26 168.138 1321.62 167.78 1322.05 167.78H1325.28C1325.71 167.78 1326.07 168.138 1326.07 168.569C1326.14 168.999 1325.71 169.358 1325.28 169.358ZM1310.73 169.358H1307.5C1307.07 169.358 1306.71 168.999 1306.71 168.569C1306.71 168.138 1307.07 167.78 1307.5 167.78H1310.73C1311.16 167.78 1311.52 168.138 1311.52 168.569C1311.59 168.999 1311.23 169.358 1310.73 169.358ZM1296.18 169.358H1292.95C1292.52 169.358 1292.16 168.999 1292.16 168.569C1292.16 168.138 1292.52 167.78 1292.95 167.78H1296.18C1296.61 167.78 1296.96 168.138 1296.96 168.569C1297.04 168.999 1296.68 169.358 1296.18 169.358ZM1281.62 169.358H1278.4C1277.97 169.358 1277.61 168.999 1277.61 168.569C1277.61 168.138 1277.97 167.78 1278.4 167.78H1281.62C1282.05 167.78 1282.41 168.138 1282.41 168.569C1282.48 168.999 1282.13 169.358 1281.62 169.358ZM1267.07 169.358H1263.85C1263.42 169.358 1263.06 168.999 1263.06 168.569C1263.06 168.138 1263.42 167.78 1263.85 167.78H1267.07C1267.5 167.78 1267.86 168.138 1267.86 168.569C1267.93 168.999 1267.57 169.358 1267.07 169.358ZM1033.6 160.033C1033.46 160.033 1033.32 159.961 1033.17 159.889C1032.31 159.315 1031.38 158.742 1030.52 158.239C1030.09 158.024 1029.95 157.522 1030.16 157.164C1030.38 156.733 1030.88 156.59 1031.24 156.805C1032.24 157.307 1033.17 157.881 1034.11 158.526C1034.46 158.813 1034.54 159.315 1034.32 159.674C1034.11 159.889 1033.82 160.033 1033.6 160.033ZM732.397 158.455C731.967 158.455 731.608 158.096 731.608 157.666V154.438C731.608 154.007 731.967 153.649 732.397 153.649C732.827 153.649 733.185 154.007 733.185 154.438V157.666C733.185 158.096 732.827 158.455 732.397 158.455ZM1020.06 155.227C1020.06 155.227 1019.98 155.227 1020.06 155.227C1019.27 155.155 1018.48 155.155 1017.76 155.155H1016.83C1016.4 155.155 1016.04 154.796 1016.04 154.366C1016.04 153.936 1016.4 153.577 1016.83 153.577H1017.76C1018.55 153.577 1019.34 153.577 1020.13 153.649C1020.56 153.72 1020.92 154.079 1020.85 154.509C1020.85 154.868 1020.49 155.227 1020.06 155.227ZM1005.51 155.083H1002.28C1001.85 155.083 1001.49 154.725 1001.49 154.294C1001.49 153.864 1001.85 153.505 1002.28 153.505H1005.51C1005.94 153.505 1006.29 153.864 1006.29 154.294C1006.29 154.725 1005.94 155.083 1005.51 155.083ZM990.954 155.083H987.728C987.298 155.083 986.939 154.725 986.939 154.294C986.939 153.864 987.298 153.505 987.728 153.505H990.954C991.384 153.505 991.742 153.864 991.742 154.294C991.742 154.725 991.384 155.083 990.954 155.083ZM976.402 155.083H973.177C972.746 155.083 972.388 154.725 972.388 154.294C972.388 153.864 972.746 153.505 973.177 153.505H976.402C976.832 153.505 977.191 153.864 977.191 154.294C977.191 154.725 976.832 155.083 976.402 155.083ZM961.851 155.083H958.625C958.195 155.083 957.837 154.725 957.837 154.294C957.837 153.864 958.195 153.505 958.625 153.505H961.851C962.281 153.505 962.639 153.864 962.639 154.294C962.639 154.725 962.281 155.083 961.851 155.083ZM947.299 155.083H944.074C943.644 155.083 943.285 154.725 943.285 154.294C943.285 153.864 943.644 153.505 944.074 153.505H947.299C947.729 153.505 948.088 153.864 948.088 154.294C948.088 154.725 947.729 155.083 947.299 155.083ZM932.748 155.083H929.522C929.092 155.083 928.734 154.725 928.734 154.294C928.734 153.864 929.092 153.505 929.522 153.505H932.748C933.178 153.505 933.536 153.864 933.536 154.294C933.536 154.725 933.178 155.083 932.748 155.083ZM918.196 155.083C917.05 155.012 915.903 154.94 914.827 154.725C914.397 154.653 914.111 154.223 914.182 153.792C914.254 153.362 914.684 153.075 915.114 153.147C916.118 153.29 917.193 153.433 918.268 153.433C918.698 153.433 919.057 153.864 919.057 154.294C918.985 154.725 918.627 155.083 918.196 155.083ZM904.505 150.779C904.362 150.779 904.218 150.708 904.075 150.636C903.143 150.062 902.211 149.417 901.351 148.699C900.993 148.412 900.921 147.91 901.208 147.551C901.495 147.193 901.996 147.121 902.355 147.408C903.143 148.054 904.003 148.699 904.935 149.201C905.294 149.417 905.437 149.919 905.222 150.349C905.007 150.636 904.72 150.779 904.505 150.779ZM732.397 143.893C731.967 143.893 731.608 143.535 731.608 143.104V139.876C731.608 139.446 731.967 139.087 732.397 139.087C732.827 139.087 733.185 139.446 733.185 139.876V143.104C733.185 143.535 732.827 143.893 732.397 143.893ZM894.685 140.235C894.398 140.235 894.111 140.091 893.968 139.804C893.466 138.8 892.964 137.796 892.606 136.792C892.463 136.361 892.678 135.931 893.036 135.716C893.466 135.572 893.896 135.788 894.111 136.146C894.47 137.15 894.9 138.083 895.402 139.015C895.617 139.374 895.473 139.876 895.043 140.091C894.971 140.235 894.828 140.235 894.685 140.235ZM732.397 129.332C731.967 129.332 731.608 128.973 731.608 128.543V126.319C731.608 125.96 731.608 125.602 731.608 125.315C731.608 124.884 731.967 124.526 732.397 124.526C732.827 124.526 733.185 124.884 733.185 125.386C733.185 125.745 733.185 126.032 733.185 126.391V128.614C733.185 128.973 732.827 129.332 732.397 129.332ZM891.387 126.247C890.957 126.247 890.599 125.889 890.599 125.458C890.599 124.382 890.456 123.378 890.312 122.302C890.241 121.872 890.527 121.441 891.029 121.369C891.459 121.298 891.889 121.585 891.961 122.087C892.104 123.163 892.248 124.31 892.248 125.386C892.248 125.817 891.889 126.176 891.387 126.247C891.459 126.247 891.459 126.247 891.387 126.247ZM735.049 115.201C734.906 115.201 734.834 115.201 734.691 115.129C734.261 114.914 734.117 114.483 734.332 114.053C734.834 113.049 735.336 112.044 735.909 111.112C736.124 110.753 736.626 110.61 737.056 110.825C737.415 111.04 737.558 111.542 737.343 111.973C736.769 112.833 736.268 113.766 735.838 114.698C735.623 114.985 735.336 115.201 735.049 115.201ZM887.302 112.403C887.015 112.403 886.8 112.26 886.585 112.044C886.011 111.184 885.438 110.323 884.793 109.462C884.506 109.103 884.578 108.601 884.936 108.314C885.294 108.027 885.796 108.099 886.083 108.458C886.8 109.319 887.373 110.251 888.018 111.184C888.233 111.542 888.162 112.044 887.732 112.331C887.588 112.403 887.445 112.403 887.302 112.403ZM744.296 104.154C744.009 104.154 743.794 104.01 743.651 103.795C743.364 103.437 743.508 102.935 743.866 102.648C744.798 102.002 745.73 101.428 746.662 100.926C747.02 100.711 747.522 100.854 747.737 101.285C747.952 101.643 747.808 102.145 747.378 102.361C746.447 102.863 745.586 103.437 744.726 104.01C744.654 104.082 744.511 104.154 744.296 104.154ZM876.836 102.504C876.693 102.504 876.549 102.504 876.478 102.432C875.546 101.93 874.614 101.5 873.61 101.069C873.18 100.926 872.965 100.424 873.18 99.9935C873.324 99.5631 873.825 99.3479 874.255 99.5631C875.259 99.9935 876.263 100.424 877.266 100.998C877.624 101.213 877.768 101.715 877.553 102.074C877.409 102.361 877.123 102.504 876.836 102.504ZM757.844 99.2045C757.414 99.2045 757.055 98.9175 757.055 98.4872C756.984 98.0568 757.342 97.6264 757.772 97.6264C758.632 97.5547 759.493 97.4829 760.424 97.4829H761.07C761.5 97.4829 761.858 97.8416 761.858 98.272C761.858 98.7023 761.5 99.061 761.07 99.061H760.424C759.636 99.061 758.776 99.1327 757.916 99.2045H757.844ZM862.93 99.061H859.704C859.274 99.061 858.915 98.7023 858.915 98.272C858.915 97.8416 859.274 97.4829 859.704 97.4829H862.93C863.36 97.4829 863.718 97.8416 863.718 98.272C863.718 98.7023 863.36 99.061 862.93 99.061ZM848.378 99.061H845.153C844.722 99.061 844.364 98.7023 844.364 98.272C844.364 97.8416 844.722 97.4829 845.153 97.4829H848.378C848.808 97.4829 849.167 97.8416 849.167 98.272C849.167 98.7023 848.808 99.061 848.378 99.061ZM833.827 99.061H830.601C830.171 99.061 829.813 98.7023 829.813 98.272C829.813 97.8416 830.171 97.4829 830.601 97.4829H833.827C834.257 97.4829 834.615 97.8416 834.615 98.272C834.615 98.7023 834.257 99.061 833.827 99.061ZM819.275 99.061H816.05C815.62 99.061 815.261 98.7023 815.261 98.272C815.261 97.8416 815.62 97.4829 816.05 97.4829H819.275C819.705 97.4829 820.064 97.8416 820.064 98.272C820.064 98.7023 819.705 99.061 819.275 99.061ZM804.724 99.061H801.498C801.068 99.061 800.71 98.7023 800.71 98.272C800.71 97.8416 801.068 97.4829 801.498 97.4829H804.724C805.154 97.4829 805.512 97.8416 805.512 98.272C805.512 98.7023 805.154 99.061 804.724 99.061ZM790.172 99.061H786.947C786.517 99.061 786.158 98.7023 786.158 98.272C786.158 97.8416 786.517 97.4829 786.947 97.4829H790.172C790.603 97.4829 790.961 97.8416 790.961 98.272C790.961 98.7023 790.603 99.061 790.172 99.061ZM775.621 99.061H772.395C771.965 99.061 771.607 98.7023 771.607 98.272C771.607 97.8416 771.965 97.4829 772.395 97.4829H775.621C776.051 97.4829 776.41 97.8416 776.41 98.272C776.41 98.7023 776.051 99.061 775.621 99.061Z" fill="#F7D1A0"/>
<path d="M1552.37 182.557L1544.05 155.084C1541.18 145.543 1532.37 139.016 1522.4 139.016H1470.79C1462.33 139.016 1454.59 143.75 1450.72 151.282L1436.1 179.544L1402.98 182.772V194.895L1438.18 198.912C1444.06 199.557 1449.93 197.19 1453.66 192.599L1460.54 184.063L1462.91 214.119H1533.16L1534.37 199.055H1540.11C1548.71 198.983 1554.88 190.734 1552.37 182.557Z" fill="#554F6E"/>
<path d="M1402.98 182.772L1394.52 178.54L1386.85 182.772V190.949C1386.85 192.814 1388.36 194.392 1390.22 194.464L1403.05 194.894V182.772H1402.98Z" fill="#EA9E7D"/>
<path d="M1372.3 176.531H1393.3C1394.09 176.531 1394.74 177.105 1394.88 177.894L1416.74 139.016H1344.78L1370.65 184.996V178.181C1370.65 177.249 1371.37 176.531 1372.3 176.531Z" fill="#C5E0F0"/>
<path d="M1392.16 182.7C1392.59 182.844 1392.88 183.202 1392.88 183.704C1392.88 184.278 1392.37 184.78 1391.8 184.78C1391.51 184.78 1391.3 184.709 1391.15 184.565L1388.86 188.582H1372.66L1370.65 184.995V189.586C1370.65 190.447 1371.37 191.236 1372.3 191.236H1393.31C1394.17 191.236 1394.95 190.519 1394.95 189.586V178.181C1394.95 178.109 1394.88 178.038 1394.88 177.894L1392.16 182.7Z" fill="#FFD581"/>
<path d="M1388.86 188.582L1391.15 184.565C1390.94 184.35 1390.72 184.063 1390.72 183.776C1390.72 183.202 1391.23 182.7 1391.8 182.7C1391.94 182.7 1392.02 182.7 1392.16 182.772L1394.88 177.966C1394.74 177.177 1394.09 176.603 1393.31 176.603H1372.3C1371.44 176.603 1370.65 177.32 1370.65 178.253V185.067L1372.66 188.654H1388.86V188.582Z" fill="#CCBE81"/>
<path d="M1391.8 184.78C1392.37 184.78 1392.88 184.278 1392.88 183.704C1392.88 183.274 1392.59 182.844 1392.16 182.7L1391.15 184.493C1391.3 184.709 1391.51 184.78 1391.8 184.78Z" fill="white"/>
<path d="M1390.72 183.704C1390.72 184.063 1390.87 184.35 1391.15 184.493L1392.16 182.7C1392.01 182.628 1391.94 182.628 1391.8 182.628C1391.15 182.628 1390.72 183.131 1390.72 183.704Z" fill="#E1EFF7"/>
<path d="M1313.38 227.747C1315.32 233.486 1313.38 235.136 1311.23 235.853C1309.08 236.57 1307.5 236.14 1305.57 230.401C1303.63 224.663 1303.77 219.355 1305.92 218.638C1308.08 217.848 1311.44 221.937 1313.38 227.747Z" fill="#F7A1B5"/>
<path d="M1302.99 230.617L1303.27 230.76C1304.13 231.119 1305.14 230.76 1305.49 229.899L1307 226.313C1307.36 225.452 1307 224.448 1306.14 224.089L1305.85 223.946C1304.99 223.587 1303.99 223.946 1303.63 224.806L1302.13 228.393C1301.77 229.254 1302.13 230.258 1302.99 230.617Z" fill="#F7A1B5"/>
<path d="M1235.68 354.856H1250.94V344.168H1242.7L1234.17 348.974C1231.3 350.552 1232.45 354.856 1235.68 354.856Z" fill="#71C0A1"/>
<path d="M1278.54 354.856H1293.81V344.168H1285.49L1276.96 348.974C1274.17 350.552 1275.32 354.856 1278.54 354.856Z" fill="#71C0A1"/>
<path d="M1304.06 224.806L1310.01 221.507L1296.1 151.353C1294.6 143.821 1289.44 138.513 1283.49 138.513L1273.81 138.155L1262.92 147.91L1262.34 148.556L1262.27 138.585H1252.52C1245.64 138.585 1239.91 145.686 1239.55 154.725L1239.26 161.324L1238.33 182.341L1222.85 204.434L1225.78 212.038L1248.44 192.814L1248.94 196.4L1244.56 218.637L1236.61 259.237C1236.61 259.237 1239.69 261.891 1245.43 264.33C1249.22 265.908 1254.17 267.415 1260.05 267.917C1264.13 268.275 1268.65 268.132 1273.6 267.271C1278.18 266.482 1283.13 265.048 1288.36 262.68C1292.74 260.744 1297.39 258.161 1302.2 254.862L1286.86 203.43L1284.78 196.4L1287.93 175.742L1304.06 224.806Z" fill="#5573C9"/>
<path d="M1271.23 97.7698H1266C1260.19 97.7698 1255.17 101.069 1252.67 105.875C1243.85 121.8 1246 123.737 1233.24 131.771C1222.42 138.657 1220.55 155.944 1231.88 161.252L1232.24 154.653C1232.67 147.623 1238.19 149.632 1244.85 150.923C1248.36 151.568 1251.95 150.349 1254.31 147.623L1262.2 138.513V128.758V127.395V122.589C1259.26 122.589 1256.89 120.222 1256.89 117.281C1256.89 116.276 1257.18 115.416 1257.61 114.627C1258.54 113.049 1260.26 111.973 1262.2 111.973L1268.58 103.723H1270.51C1276.54 103.723 1282.13 106.808 1285.28 111.973C1285.35 104.082 1279.04 97.7698 1271.23 97.7698Z" fill="#D1AB33"/>
<path d="M1216.68 209.599V213.042L1225.35 216.414L1226.29 211.536L1222.77 204.291L1220.26 205.008C1218.11 205.582 1216.68 207.447 1216.68 209.599Z" fill="#F7A1B5"/>
<path d="M1242.7 344.168H1251.02L1259.33 257.229C1251.52 256.655 1245.07 255.005 1240.05 253.14L1242.7 344.168Z" fill="#F7A1B5"/>
<path d="M1285.5 344.167H1293.81L1296.46 251.275C1289.58 253.929 1283.13 255.579 1277.11 256.44L1285.5 344.167Z" fill="#F7A1B5"/>
<path d="M1285.35 119.074V111.829C1282.2 106.737 1276.61 103.58 1270.59 103.58H1268.65L1262.27 111.829C1260.34 111.829 1258.61 112.905 1257.68 114.484C1257.25 115.273 1256.97 116.205 1256.97 117.138C1256.97 120.079 1259.33 122.446 1262.27 122.446V127.252V128.615V138.37V148.484L1262.99 147.839L1273.81 138.442V128.686H1275.68C1280.98 128.758 1285.35 124.454 1285.35 119.074Z" fill="#F7A1B5"/>
<path d="M1282.56 120.15C1282.48 121.011 1280.48 123.737 1278.4 123.522C1276.32 123.378 1274.74 120.365 1274.81 119.505C1274.89 118.859 1275.89 119.576 1278.69 119.792C1281.48 120.078 1282.63 119.505 1282.56 120.15Z" fill="#D16984"/>
<path d="M1275.95 112.569C1275.97 111.658 1275.63 110.913 1275.19 110.904C1274.76 110.896 1274.39 111.627 1274.37 112.538C1274.36 113.449 1274.69 114.195 1275.13 114.203C1275.56 114.212 1275.93 113.48 1275.95 112.569Z" fill="#427C6A"/>
<path d="M1281.73 114.338C1282.17 114.315 1282.48 113.558 1282.43 112.648C1282.38 111.738 1281.99 111.02 1281.56 111.043C1281.12 111.066 1280.81 111.822 1280.86 112.732C1280.91 113.642 1281.3 114.361 1281.73 114.338Z" fill="#427C6A"/>
<path d="M1215.75 207.591H1154.6C1149.3 207.591 1145 211.895 1145 217.203V275.162C1145 280.47 1149.3 284.774 1154.6 284.774H1188.87V341.872C1181.77 342.303 1176.11 348.185 1176.11 355.358H1203.2C1203.2 348.185 1197.54 342.303 1190.44 341.872V284.774H1215.68C1220.98 284.774 1225.28 280.47 1225.28 275.162V217.203C1225.35 211.895 1221.05 207.591 1215.75 207.591Z" fill="#989EBD"/>
<path d="M1181.84 131.627C1181.7 130.767 1181.13 128.399 1179.12 127.18C1177.18 126.104 1174.82 126.606 1173.53 126.965C1171.81 127.395 1171.23 127.969 1169.23 128.184C1167.79 128.328 1167.36 128.113 1166.5 128.184C1165.14 128.328 1163.28 129.045 1161.13 131.986C1160.27 131.986 1158.69 132.058 1157.33 133.062C1156.9 133.421 1155.97 134.21 1154.96 137.151C1154.46 138.585 1153.67 140.881 1153.67 143.822C1153.67 150.134 1157.4 154.797 1158.48 156.088L1177.11 151.64V156.088H1181.56C1184.5 156.088 1186.86 158.455 1186.86 161.396C1186.86 164.337 1184.5 166.704 1181.56 166.704V171.582C1188.08 169.932 1194.96 163.62 1194.96 156.59V154.151C1196.25 149.775 1195.68 147.05 1194.82 145.328C1193.89 143.463 1192.95 143.248 1191.52 140.522C1189.87 137.366 1190.37 136.146 1189.08 134.497C1188.08 133.206 1186.14 131.843 1181.84 131.627Z" fill="#554F6E"/>
<path d="M1129.66 355.358H1145V344.598H1136.61L1128.08 349.404C1125.21 351.054 1126.36 355.358 1129.66 355.358Z" fill="#554F6E"/>
<path d="M1164.78 355.358H1180.12V344.598H1171.81L1163.28 349.404C1160.41 351.054 1161.56 355.358 1164.78 355.358Z" fill="#554F6E"/>
<path d="M1189.66 246.756H1163.71H1154.53H1142.28H1140.48V246.9C1133.96 247.832 1129.09 253.714 1129.66 260.457L1136.61 344.67H1144.93L1152.24 269.854H1165.57L1171.74 344.67H1180.05L1187.36 269.854H1195.46C1203.28 269.854 1209.73 263.828 1210.3 256.01L1210.73 246.685H1189.66V246.756Z" fill="#716188"/>
<path d="M1181.41 182.772V173.016V171.654V166.776C1184.35 166.776 1186.72 164.409 1186.72 161.468C1186.72 158.527 1184.35 156.16 1181.41 156.16H1176.97V151.712L1158.33 156.16V163.404C1158.33 168.713 1162.63 173.088 1168.01 173.088H1169.87V182.844H1164.57C1164.57 186.43 1169.51 189.371 1175.68 189.371C1181.84 189.371 1186.79 186.43 1186.79 182.844L1181.41 182.772Z" fill="#7A5656"/>
<path d="M1221.41 223.946L1219.12 203.431C1217.76 191.595 1207.79 182.7 1195.96 182.7H1186.79C1186.79 186.287 1181.84 189.228 1175.68 189.228C1169.51 189.228 1164.57 186.287 1164.57 182.7H1154.89C1144.5 182.7 1135.61 189.515 1132.6 199.199H1150.52L1157.97 232.195H1179.12V237.288H1159.12H1147.44H1127.01H1179.05H1209.44H1210.8V237.216C1217.33 236.571 1222.2 230.617 1221.41 223.946Z" fill="#E66E93"/>
<path d="M1157.97 232.267L1150.52 199.198H1132.6H1093.89L1102.42 237.36H1127.01H1147.44H1159.12H1179.12V232.267H1157.97Z" fill="#E5E7EF"/>
<path d="M1122.78 218.279C1122.78 220.287 1124.43 222.009 1126.5 222.009C1128.58 222.009 1130.23 220.359 1130.23 218.279C1130.23 216.27 1128.58 214.549 1126.5 214.549C1124.43 214.549 1122.78 216.27 1122.78 218.279Z" fill="white"/>
<g opacity="0.25">
<g opacity="0.25">
<path opacity="0.25" d="M1182.63 228.178L1182.42 227.389L1204.71 215.625C1205.78 215.051 1207.15 215.625 1207.51 216.772C1208.08 218.566 1207.08 220.503 1205.28 221.005L1182.63 228.178Z" fill="#554F6E"/>
</g>
</g>
<path d="M1159.62 229.684C1159.62 225.954 1164.71 222.941 1171.02 222.941C1177.33 222.941 1182.42 225.954 1182.42 229.684C1182.42 233.414 1176.32 232.051 1170.09 232.051C1163.85 232.051 1159.62 233.414 1159.62 229.684Z" fill="#7A5656"/>
<path d="M1168.3 165.484C1168.44 165.843 1167.08 167.565 1165.07 168.138C1163.06 168.784 1160.98 168.138 1160.91 167.78C1160.84 167.493 1161.92 167.493 1164.64 166.632C1167.29 165.843 1168.22 165.269 1168.3 165.484Z" fill="#4C3030"/>
<path d="M1159.77 162.328C1160.2 162.328 1160.55 161.59 1160.55 160.679C1160.55 159.767 1160.2 159.029 1159.77 159.029C1159.33 159.029 1158.98 159.767 1158.98 160.679C1158.98 161.59 1159.33 162.328 1159.77 162.328Z" fill="#22202B"/>
<path d="M1167.51 160.679C1167.94 160.679 1168.3 159.94 1168.3 159.029C1168.3 158.118 1167.94 157.379 1167.51 157.379C1167.07 157.379 1166.72 158.118 1166.72 159.029C1166.72 159.94 1167.07 160.679 1167.51 160.679Z" fill="#22202B"/>
<path d="M868.808 207.591H815.548C810.531 207.591 806.445 211.68 806.445 216.701V275.807C806.445 280.829 810.531 284.917 815.548 284.917H841.354V342.016C834.257 342.446 828.595 348.328 828.595 355.501H855.69C855.69 348.328 850.027 342.446 842.931 342.016V284.917H868.736C873.754 284.917 877.84 280.829 877.84 275.807V216.629C877.84 211.608 873.826 207.591 868.808 207.591Z" fill="#989EBD"/>
<path d="M895.115 355.358H879.775V344.598H888.09L896.62 349.404C899.487 351.054 898.341 355.358 895.115 355.358Z" fill="#FFD581"/>
<path d="M867.517 355.358H852.177V344.598H860.492L869.023 349.404C871.961 351.054 870.815 355.358 867.517 355.358Z" fill="#FFD581"/>
<path d="M878.126 246.756H876.908H867.302H864.435H839.705H829.669C828.092 250.271 826.802 253.858 825.798 257.588C823.863 265.12 829.598 272.436 837.339 272.436H842.93L852.177 344.67H860.493L863.36 272.436H870.528L879.775 344.67H888.09L891.387 260.672C891.746 253.069 885.653 246.756 878.126 246.756Z" fill="#5573C9"/>
<path d="M861.496 158.527C861.496 162.328 858.414 165.413 854.615 165.413H847.876C846.73 165.413 845.654 165.771 844.722 166.345C843.361 167.278 842.357 168.712 842.285 170.434C842.142 173.518 844.579 176.029 847.59 176.029V192.025L859.131 203.072V182.27H860.994C863.431 182.27 865.654 181.337 867.374 179.903C869.381 178.109 870.671 175.527 870.671 172.658V165.413L861.496 158.527Z" fill="#EDAE9F"/>
<path d="M884.363 237.36H872.678H852.679V232.267H873.825L881.28 199.27H884.864C881.137 194.894 875.689 192.169 869.524 192.169H867.231H858.987V203.215L847.446 192.169V203.502C847.446 204.937 847.16 206.372 846.658 207.663C845.009 211.823 840.923 214.836 836.121 214.836V207.663V192.169H833.54C824.293 192.169 815.978 197.979 812.752 206.658L805.154 227.317C803.362 232.195 806.946 237.431 812.179 237.431H827.662H852.679H891.387H884.363V237.36Z" fill="#71C0A1"/>
<path d="M884.936 199.198H881.28L873.897 232.267H852.679V237.36H872.75H884.363H891.459H929.379L937.981 199.198H884.936Z" fill="#7170C4"/>
<path d="M859.059 182.342V192.097H867.303V179.903C865.582 181.409 863.36 182.27 860.923 182.27H859.059V182.342Z" fill="#554F6E"/>
<path d="M847.518 176.101C844.507 176.101 841.998 173.59 842.213 170.506C842.285 168.784 843.288 167.278 844.65 166.417C845.582 165.843 846.657 165.485 847.804 165.485H854.542C858.342 165.485 861.424 162.4 861.424 158.598L870.599 165.485C870.599 157.666 864.291 151.354 856.478 151.354H851.173C842.858 151.354 836.12 158.096 836.12 166.417V214.764C840.923 214.764 844.937 211.823 846.657 207.591C847.159 206.3 847.446 204.937 847.446 203.431V176.101H847.518Z" fill="#554F6E"/>
<path d="M926.369 175.886C925.723 175.24 925.723 174.236 926.369 173.59L928.734 171.223C929.379 170.578 930.383 170.578 931.028 171.223C931.673 171.869 931.673 172.873 931.028 173.519L928.662 175.886C928.017 176.531 927.014 176.531 926.369 175.886Z" fill="#F7A1B5"/>
<path d="M931.034 169.266L920.269 185.619L924.16 188.184L934.925 171.83L931.034 169.266Z" fill="#89B3EA"/>
<path d="M919.63 190.734L924.074 188.152L920.203 185.57L919.63 190.734Z" fill="#FFD581"/>
<path d="M933.608 165.377L931.044 169.27L934.935 171.835L937.499 167.941L933.608 165.377Z" fill="#554F6E"/>
<path d="M941.637 186.143C940.06 189.299 935.042 187.076 930.311 184.637C925.508 182.198 925.293 178.468 926.942 175.383C928.519 172.227 931.028 171.51 936.117 173.375C942.067 175.455 943.214 182.987 941.637 186.143Z" fill="#F7A1B5"/>
<path d="M975.829 123.521L980.058 122.302C982.854 121.513 985.864 123.091 986.653 125.96C987.442 128.758 985.864 131.771 982.997 132.56L984.359 137.222C990.094 133.851 993.104 126.821 991.169 120.078C988.875 112.116 980.56 107.525 972.532 109.821L958.769 113.838C957.263 112.618 955.256 112.188 953.249 112.762C950.023 113.694 948.16 117.066 949.092 120.365C950.024 123.593 953.393 125.458 956.69 124.526L974.61 119.361L975.829 123.521Z" fill="#554F6E"/>
<path d="M984.359 137.222L982.997 132.56C985.793 131.771 987.442 128.758 986.653 125.961C985.865 123.163 982.854 121.513 980.058 122.302L975.829 123.522L974.61 119.29L956.69 124.454L959.916 135.644C961.421 140.737 966.725 143.678 971.886 142.244L973.679 141.742L974.969 146.261L981.42 147.767L986.151 143.248L984.789 138.514L984.359 137.222Z" fill="#F7A1B5"/>
<path d="M1026.87 162.902C1023.93 148.412 1009.23 139.59 995.111 143.678L992.889 144.324L988.158 150.564L984.072 148.915L981.348 147.767L979.699 150.134L977.621 153.075L970.309 151.067L970.381 150.995L969.736 151.21C958.768 154.438 951.098 164.265 950.453 175.67L950.31 177.679L940.203 176.459L937.694 187.721L949.521 191.595L947.371 229.828L955.543 232.769L964.646 200.633L972.245 226.098L1036.47 209.815L1026.87 162.902Z" fill="#FFD581"/>
<path d="M974.969 146.26L970.381 151.066L970.31 151.138L977.621 153.075L979.7 150.134L981.42 147.767L974.969 146.26Z" fill="#7170C4"/>
<path d="M986.151 143.248L981.42 147.767L984.073 148.843L988.159 150.564L992.89 144.324L986.151 143.248Z" fill="#7170C4"/>
<path d="M972.245 226.098L954.11 276.166C952.676 281.403 953.035 286.998 955.114 292.019L976.188 341.872C976.905 343.522 978.553 344.598 980.346 344.598C983.141 344.598 985.22 342.088 984.79 339.29L974.754 282.766L995.614 242.811L1010.09 238.579L1019.84 340.438C1020.06 342.733 1021.99 344.527 1024.29 344.527H1024.43C1026.72 344.527 1028.66 342.733 1028.87 340.438L1037.4 248.191C1038.48 236.355 1038.34 221.364 1036.4 209.6L972.245 226.098Z" fill="#B3A19B"/>
<path d="M969.521 350.05H984.789V339.29H976.474L967.944 344.096C965.149 345.674 966.296 350.05 969.521 350.05Z" fill="#554F6E"/>
<path d="M1013.32 352.13H1028.59V341.442H1020.27L1011.74 346.248C1008.87 347.826 1010.02 352.13 1013.32 352.13Z" fill="#554F6E"/>
<g opacity="0.25">
<g opacity="0.25">
<path opacity="0.25" d="M974.252 177.607L994.395 155.658C995.47 154.438 997.405 154.366 998.552 155.514" fill="#554F6E"/>
</g>
</g>
<g opacity="0.25">
<g opacity="0.25">
<path opacity="0.25" d="M982.926 209.312C982.926 209.312 982.854 209.312 982.926 209.312C980.058 209.312 977.406 208.38 975.112 206.73L953.536 191.666L973.249 197.692C973.535 197.764 973.822 197.907 974.109 197.979C979.127 199.844 984.718 198.84 988.732 195.325L1014.97 172.442L994.682 202.928C992.746 205.798 989.951 207.949 986.581 208.81C985.363 209.169 984.144 209.312 982.926 209.312Z" fill="#554F6E"/>
</g>
</g>
<path d="M970.023 134.855C970.31 135.644 969.378 138.944 967.371 139.518C965.364 140.163 962.783 137.939 962.568 137.079C962.425 136.433 963.572 136.792 966.296 135.931C969.019 135.07 969.808 134.281 970.023 134.855Z" fill="#D16984"/>
<path d="M960.828 132.079C961.236 131.925 961.304 131.109 960.982 130.257C960.659 129.405 960.067 128.839 959.66 128.994C959.253 129.148 959.184 129.964 959.507 130.816C959.83 131.668 960.421 132.234 960.828 132.079Z" fill="#7170C4"/>
<path d="M967.029 129.852C967.424 129.668 967.433 128.849 967.049 128.023C966.666 127.197 966.034 126.676 965.639 126.859C965.244 127.043 965.235 127.862 965.619 128.688C966.003 129.514 966.634 130.035 967.029 129.852Z" fill="#7170C4"/>
<path d="M935.472 234.849C935.472 232.123 940.131 229.899 945.938 229.899C951.744 229.899 956.403 232.123 956.403 234.849C956.403 237.575 952.031 237.216 946.224 237.216C940.49 237.216 935.472 237.575 935.472 234.849Z" fill="#F7A1B5"/>
<path d="M909.021 218.279C909.021 220.287 907.372 222.009 905.293 222.009C903.286 222.009 901.566 220.359 901.566 218.279C901.566 216.27 903.215 214.549 905.293 214.549C907.372 214.549 909.021 216.27 909.021 218.279Z" fill="white"/>
<g opacity="0.25">
<g opacity="0.25">
<path opacity="0.25" d="M848.02 228.249L823.361 223.085C821.641 222.726 820.565 220.933 821.067 219.211L821.139 218.924C821.354 218.279 821.999 217.92 822.644 218.135L848.02 228.249Z" fill="#554F6E"/>
</g>
</g>
<path d="M675.912 186.287H444.307C442.157 186.287 440.437 184.565 440.437 182.413V56.9548C440.437 54.8029 442.157 53.0813 444.307 53.0813H675.912C678.062 53.0813 679.783 54.8029 679.783 56.9548V182.413C679.783 184.565 677.991 186.287 675.912 186.287Z" fill="#71C0A1"/>
<path d="M661.073 102.576V100.926H650.321V69.7947H648.672V100.998H614.551V69.7947H612.903V100.998H578.782V69.7947H577.133V100.998H543.013V69.7947H541.364V100.998H507.244V69.7947H505.595V100.998H471.474V69.7947H469.826V100.998H459.073V102.648H469.826V136.792H459.073V138.442H469.826V169.645H471.474V138.442H505.595V169.645H507.244V138.442H541.364V169.645H543.013V138.442H577.133V169.645H578.782V138.442H612.903V169.645H614.551V138.442H648.672V169.645H650.321V138.442H661.073V136.792H650.321V102.576H661.073ZM471.474 136.792V102.576H505.595V136.72H471.474V136.792ZM507.244 136.792V102.576H541.364V136.72H507.244V136.792ZM543.013 136.792V102.576H577.133V136.72H543.013V136.792ZM578.782 136.792V102.576H612.903V136.72H578.782V136.792ZM648.744 136.792H614.623V102.576H648.744V136.792Z" fill="#5DB794"/>
<path d="M601.864 116.349C601.577 116.062 601.004 116.062 600.717 116.349L572.116 144.969L538.21 111.184C537.924 110.897 537.35 110.897 537.064 111.184L522.871 125.387L478.213 80.698H485.237C485.668 80.698 486.026 80.3393 486.026 79.9089C486.026 79.4785 485.668 79.1199 485.237 79.1199H476.277C476.206 79.1199 476.062 79.1199 475.991 79.1199C475.704 79.2633 475.489 79.5503 475.489 79.8372V89.234C475.489 89.6644 475.847 90.0231 476.277 90.0231C476.707 90.0231 477.066 89.6644 477.066 89.234V81.7739L522.297 127.037C522.584 127.323 523.157 127.323 523.444 127.037L537.637 112.834L571.471 146.691C571.758 146.978 572.331 146.978 572.618 146.691L601.219 118.07L642.651 159.531C642.938 159.818 643.511 159.818 643.798 159.531C644.085 159.244 644.085 158.67 643.798 158.383L601.864 116.349Z" fill="#FFD581"/>
<path d="M452.479 81.5586L450.687 85.0734C450.185 86.0059 449.11 86.2928 448.178 85.8624C447.246 85.3603 446.959 84.2843 447.389 83.3518L449.181 79.837C449.683 78.9045 450.758 78.6176 451.69 79.048C452.622 79.5501 452.981 80.6978 452.479 81.5586Z" fill="#F7A1B5"/>
<path d="M356.568 196.76C355.493 199.127 354.561 201.566 353.773 204.076L356.784 204.578L360.009 211.321L351.121 218.279L350.977 218.064C350.762 220.646 350.691 223.229 350.762 225.811L352.268 272.365H370.833H389.614H408.179L409.685 225.811C410.043 215.769 407.964 205.798 403.807 196.688H356.568V196.76Z" fill="#93C5E3"/>
<path d="M414.273 349.476L405.742 344.67H397.427V355.358H412.696C415.921 355.358 417.068 351.054 414.273 349.476Z" fill="#E66E93"/>
<path d="M371.407 349.476L362.877 344.67H354.562V355.358H369.83C373.127 355.358 374.202 351.054 371.407 349.476Z" fill="#E66E93"/>
<path d="M463.231 77.8286L455.705 80.6261L460.436 83.8541L464.808 82.2042L463.231 77.8286Z" fill="white"/>
<path d="M444.88 84.5714L446.457 88.947L448.751 88.0863L449.468 82.8499L444.88 84.5714Z" fill="white"/>
<path d="M468.392 78.4025L463.231 77.8286L464.808 82.2042L468.392 78.4025Z" fill="#FFD581"/>
<path d="M383.378 98.272H378.145C369.83 98.272 363.092 105.015 363.092 113.336C363.092 116.922 364.31 120.15 366.389 122.732C359.221 124.024 353.845 130.192 353.845 137.724C353.845 138.298 353.845 138.8 353.916 139.374C355.135 139.159 356.354 139.015 357.644 139.015C357.644 139.015 363.092 139.015 369.615 139.015H374.346V129.26V127.897V123.45V123.019C371.407 123.019 369.041 120.652 369.041 117.711C369.041 114.77 371.407 112.403 374.346 112.403L380.725 105.947V112.403H397.427C397.427 104.584 391.119 98.272 383.378 98.272Z" fill="#554F6E"/>
<path d="M444.872 84.5559L440.496 86.157L442.096 90.536L446.472 88.9349L444.872 84.5559Z" fill="#554F6E"/>
<path d="M448.967 89.3774L430.329 117.496L392.266 139.016C392.266 139.016 391.693 139.016 390.617 139.016V145.615C390.617 147.265 389.327 148.556 387.678 148.556H379.722H372.554C370.905 148.556 369.615 147.265 369.615 145.615V139.016C363.092 139.016 357.644 139.016 357.644 139.016C356.353 139.016 355.135 139.159 353.916 139.374C347.465 140.379 341.659 143.893 337.859 149.345L318.72 176.603C315.853 180.692 316.642 186.215 320.441 189.371L346.318 210.819L350.691 203.574L335.351 181.768L350.26 164.982L356.568 196.759H403.735L412.48 152.573L436.996 131.842C439.863 129.404 442.157 126.391 443.59 122.876L455.776 94.3987L448.967 89.3774Z" fill="#7170C4"/>
<path d="M354.561 344.67H362.876L370.761 272.436H352.195L354.561 344.67Z" fill="#F7A1B5"/>
<path d="M397.427 344.67H405.742L408.107 272.436H389.542L397.427 344.67Z" fill="#F7A1B5"/>
<path d="M390.617 145.615V139.015C390.187 139.015 389.685 139.015 389.04 139.015C388.108 139.015 387.033 139.015 385.886 139.015V129.26H387.75C393.054 129.26 397.427 124.956 397.427 119.576V112.331H380.725V105.875L374.345 112.331C371.407 112.331 369.041 114.698 369.041 117.639C369.041 120.58 371.407 122.948 374.345 122.948V123.378V127.825V129.188V138.944H369.614V145.543C369.614 147.193 370.905 148.484 372.553 148.484H379.722H387.678C389.327 148.556 390.617 147.193 390.617 145.615Z" fill="#F7A1B5"/>
<path d="M395.133 123.091C395.133 123.593 393.198 125.028 391.119 124.813C389.04 124.669 387.32 122.948 387.391 122.446C387.463 122.087 388.467 122.948 391.262 123.235C394.058 123.45 395.133 122.733 395.133 123.091Z" fill="#D16984"/>
<path d="M387.155 116.129C387.173 115.218 386.835 114.472 386.399 114.464C385.964 114.455 385.597 115.187 385.579 116.098C385.561 117.009 385.899 117.754 386.335 117.763C386.77 117.771 387.138 117.04 387.155 116.129Z" fill="#554F6E"/>
<path d="M394.724 118.355C395.159 118.331 395.472 117.575 395.423 116.665C395.375 115.755 394.983 115.036 394.548 115.06C394.113 115.083 393.8 115.839 393.848 116.749C393.897 117.659 394.289 118.378 394.724 118.355Z" fill="#554F6E"/>
<path d="M360.152 206.156C357.213 203.646 353.486 202.857 350.619 203.502L346.246 210.747C346.676 213.043 347.966 215.697 350.117 217.633C354.346 221.363 358.647 220.79 361.371 217.633C364.167 214.405 364.382 209.886 360.152 206.156Z" fill="#F7A1B5"/>
<path opacity="0.78" d="M460.292 86.3646C461.726 79.6218 456.995 79.1914 454.199 79.1914C451.404 79.1914 447.39 79.1914 448.25 86.4363C448.393 87.3688 448.752 88.5165 448.967 89.3773L455.776 94.4702C457.712 93.0356 459.504 89.8794 460.292 86.3646Z" fill="#F7A1B5"/>
<path opacity="0.78" d="M460.292 86.3646C461.726 79.6218 456.995 79.1914 454.199 79.1914C451.404 79.1914 447.39 79.1914 448.25 86.4363C448.393 87.3688 448.752 88.5165 448.967 89.3773L455.776 94.4702C457.712 93.0356 459.504 89.8794 460.292 86.3646Z" fill="#F7A1B5"/>
<path opacity="0.78" d="M460.292 86.3646C461.726 79.6218 456.995 79.1914 454.199 79.1914C451.404 79.1914 447.39 79.1914 448.25 86.4363C448.393 87.3688 448.752 88.5165 448.967 89.3773L455.776 94.4702C457.712 93.0356 459.504 89.8794 460.292 86.3646Z" fill="#F7A1B5"/>
<path opacity="0.78" d="M460.292 86.3646C461.726 79.6218 456.995 79.1914 454.199 79.1914C451.404 79.1914 447.39 79.1914 448.25 86.4363C448.393 87.3688 448.752 88.5165 448.967 89.3773L455.776 94.4702C457.712 93.0356 459.504 89.8794 460.292 86.3646Z" fill="#F7A1B5"/>
<path opacity="0.78" d="M460.292 86.3646C461.726 79.6218 456.995 79.1914 454.199 79.1914C451.404 79.1914 447.39 79.1914 448.25 86.4363C448.393 87.3688 448.752 88.5165 448.967 89.3773L455.776 94.4702C457.712 93.0356 459.504 89.8794 460.292 86.3646Z" fill="#F7A1B5"/>
<path opacity="0.78" d="M460.292 86.3646C461.726 79.6218 456.995 79.1914 454.199 79.1914C451.404 79.1914 447.39 79.1914 448.25 86.4363C448.393 87.3688 448.752 88.5165 448.967 89.3773L455.776 94.4702C457.712 93.0356 459.504 89.8794 460.292 86.3646Z" fill="#F7A1B5"/>
<path d="M1515.31 113.479C1515.31 104.082 1507.71 96.4069 1498.25 96.4069L1478.53 94.6853C1477.39 94.6136 1476.38 95.4744 1476.38 96.6938V107.382H1497.53V112.403H1502.33C1505.63 112.403 1508.5 114.985 1508.64 118.285C1508.71 121.728 1505.99 124.526 1502.62 124.526V129.977C1509.86 128.112 1515.31 121.441 1515.31 113.479Z" fill="#554F6E"/>
<path d="M1502.33 112.403H1497.53V107.382H1476.38V120.58C1476.38 126.606 1481.26 131.484 1487.28 131.484H1489.43V138.513C1489.43 140.737 1491.22 142.53 1493.44 142.53H1498.53C1500.76 142.53 1502.55 140.737 1502.55 138.513V131.484V129.906V124.454C1505.99 124.454 1508.78 121.513 1508.57 117.998C1508.35 114.842 1505.56 112.403 1502.33 112.403Z" fill="#EA9E7D"/>
<path d="M1488.14 121.943C1488.07 122.948 1485.49 125.96 1482.83 125.745C1480.18 125.53 1478.18 122.087 1478.25 121.154C1478.32 120.437 1479.61 121.298 1483.19 121.585C1486.78 121.8 1488.14 121.154 1488.14 121.943Z" fill="#C17256"/>
<path d="M1479.53 113.198C1479.55 112.168 1479.15 111.325 1478.64 111.315C1478.12 111.305 1477.69 112.131 1477.67 113.161C1477.65 114.191 1478.05 115.034 1478.57 115.044C1479.08 115.054 1479.51 114.227 1479.53 113.198Z" fill="#554F6E"/>
<path d="M1488.12 114.984C1488.63 114.956 1489 114.1 1488.95 113.071C1488.89 112.043 1488.43 111.231 1487.92 111.259C1487.4 111.286 1487.03 112.142 1487.09 113.171C1487.14 114.199 1487.6 115.011 1488.12 114.984Z" fill="#554F6E"/>
<path d="M1462.98 214.046L1464.48 344.669H1472.8L1490.43 230.76H1505.84L1515.38 344.669H1523.77L1533.3 214.046H1462.98Z" fill="#C1C0C3"/>
<path d="M1457.46 355.358H1472.73V344.67H1464.41L1455.88 349.476C1453.09 351.054 1454.23 355.358 1457.46 355.358Z" fill="#E66E93"/>
<path d="M1508.43 355.358H1523.69V344.67H1515.38L1506.85 349.476C1504.05 351.054 1505.2 355.358 1508.43 355.358Z" fill="#E66E93"/>
<path d="M1316.53 237.359H751.178V246.756H1316.53V237.359Z" fill="#BCC0D4"/>
<path d="M768.166 246.757H766.518V355.43H768.166V246.757Z" fill="#BCC0D4"/>
<path d="M1301.19 246.756H1299.54V355.43H1301.19V246.756Z" fill="#BCC0D4"/>
<path d="M685.517 220.287L692.757 349.978H699.208L706.52 236.068H718.491L725.874 349.978H732.254L740.067 220.287H685.517Z" fill="#554F6E"/>
<path d="M684.442 360.738H699.352V350.05H691.18L682.865 354.856C680.141 356.362 681.217 360.738 684.442 360.738Z" fill="#7170C4"/>
<path d="M717.99 360.738H732.971V350.05H724.8L716.484 354.856C713.689 356.362 714.764 360.738 717.99 360.738Z" fill="#7170C4"/>
<path d="M727.953 121.011C727.953 112.69 721.358 105.948 713.258 105.948H708.097C700.499 105.948 694.334 112.26 694.334 120.007L705.588 114.125V120.007H716.914C719.781 120.007 722.147 122.374 722.147 125.315C722.147 128.256 719.781 130.623 716.914 130.623V135.429C723.222 133.851 727.953 127.969 727.953 121.011Z" fill="#554F6E"/>
<path d="M716.914 120.007H705.588V114.125L694.334 120.007V127.252C694.334 132.56 698.563 136.936 703.724 136.936H705.588V146.691H716.842V136.936V135.573V130.767C719.709 130.767 722.075 128.4 722.075 125.459C722.147 122.446 719.781 120.007 716.914 120.007Z" fill="#A86756"/>
<path d="M631.326 183.489L629.82 180.62C629.319 179.688 629.677 178.54 630.609 178.038C631.541 177.536 632.688 177.894 633.19 178.827L634.695 181.696C635.197 182.628 634.838 183.776 633.906 184.278C632.974 184.78 631.828 184.422 631.326 183.489Z" fill="#A86756"/>
<path d="M633.189 192.24L622.939 188.654C620.287 187.721 618.853 184.78 619.785 182.126L620 181.481C620.932 178.827 623.871 177.392 626.523 178.325L636.773 181.911C639.426 182.844 640.859 185.785 639.927 188.439L639.712 189.084C638.78 191.738 635.842 193.173 633.189 192.24Z" fill="#A86756"/>
<path d="M764.654 234.06L748.382 161.611C746.232 151.927 739.35 145.256 731.465 145.256H696.126C686.664 145.256 677.776 151.425 672.543 161.611L662.651 180.907H634.193V192.527L664.729 198.696C667.382 199.198 670.034 198.122 671.898 195.755L683.08 181.696L685.445 220.359H739.995L740.927 198.194L757.701 236.212L764.654 234.06Z" fill="#E56858"/>
<path d="M776.697 235.423C776.697 237.503 772.468 237.36 767.163 237.36C761.859 237.36 757.629 237.503 757.629 235.423C757.629 233.343 761.859 231.693 767.163 231.693C772.468 231.693 776.697 233.414 776.697 235.423Z" fill="#A86756"/>
<path d="M1416.74 79.8374H1344.78V139.016H1416.74V79.8374Z" fill="#9ECBE6"/>
<path d="M1077.47 107.096H1062.78V121.801H1077.47V107.096Z" fill="#93C5E3"/>
<path d="M1137.47 107.095H1077.4V121.8H1137.47V107.095Z" fill="#E5E7EF"/>
<path d="M1077.47 129.404H1062.78V144.109H1077.47V129.404Z" fill="#93C5E3"/>
<path d="M1137.47 129.404H1077.4V144.109H1137.47V129.404Z" fill="#E5E7EF"/>
<path d="M1077.47 151.713H1062.78V166.418H1077.47V151.713Z" fill="#93C5E3"/>
<path d="M1137.47 151.712H1077.4V166.417H1137.47V151.712Z" fill="#E5E7EF"/>
<path d="M1073.32 114.412C1073.32 116.205 1071.88 117.64 1070.09 117.64C1068.3 117.64 1066.87 116.205 1066.87 114.412C1066.87 112.618 1068.3 111.184 1070.09 111.184C1071.88 111.184 1073.32 112.618 1073.32 114.412Z" fill="#7170C4"/>
<path d="M1070.09 133.564L1066.51 139.877H1073.75L1070.09 133.564Z" fill="#E66E93"/>
<path d="M1072.81 156.303H1067.44V161.683H1072.81V156.303Z" fill="#FFD581"/>
<path d="M1133.31 111.112H1081.63V112.762H1133.31V111.112Z" fill="#CBCFDF"/>
<path d="M1107.08 116.062H1081.63V117.711H1107.08V116.062Z" fill="#CBCFDF"/>
<path d="M1133.31 133.421H1081.63V135.07H1133.31V133.421Z" fill="#CBCFDF"/>
<path d="M1107.08 138.37H1081.63V140.02H1107.08V138.37Z" fill="#CBCFDF"/>
<path d="M1133.31 155.729H1081.63V157.379H1133.31V155.729Z" fill="#CBCFDF"/>
<path d="M1107.08 160.678H1081.63V162.328H1107.08V160.678Z" fill="#CBCFDF"/>
<path d="M375.78 73.3817H374.131C373.486 73.3817 372.912 72.8795 372.912 72.1622V70.5124C372.912 69.8668 372.41 69.293 371.694 69.293C371.048 69.293 370.475 69.7951 370.475 70.5124V72.1622C370.475 72.8078 369.973 73.3817 369.256 73.3817H367.608C366.963 73.3817 366.389 73.8838 366.389 74.6011C366.389 75.2467 366.891 75.8205 367.608 75.8205H369.256C369.902 75.8205 370.475 76.3227 370.475 77.04V78.6898C370.475 79.3354 370.977 79.9092 371.694 79.9092C372.339 79.9092 372.912 79.4071 372.912 78.6898V77.04C372.912 76.3944 373.414 75.8205 374.131 75.8205H375.78C376.425 75.8205 376.998 75.3184 376.998 74.6011C376.998 73.8838 376.425 73.3817 375.78 73.3817Z" fill="#5573C9"/>
<path d="M416.638 109.749H414.631C413.843 109.749 413.126 109.104 413.126 108.243V106.234C413.126 105.445 412.481 104.728 411.621 104.728C410.832 104.728 410.115 105.374 410.115 106.234V108.243C410.115 109.032 409.47 109.749 408.61 109.749H406.603C405.814 109.749 405.098 110.395 405.098 111.256C405.098 112.045 405.743 112.762 406.603 112.762H408.61C409.399 112.762 410.115 113.408 410.115 114.268V116.277C410.115 117.066 410.761 117.783 411.621 117.783C412.409 117.783 413.126 117.138 413.126 116.277V114.268C413.126 113.479 413.771 112.762 414.631 112.762H416.638C417.427 112.762 418.144 112.116 418.144 111.256C418.144 110.395 417.427 109.749 416.638 109.749Z" fill="#FFD581"/>
<path d="M361.299 86.0062H358.002C356.64 86.0062 355.565 84.9303 355.565 83.5674V80.2677C355.565 78.9048 354.489 77.8289 353.127 77.8289C351.766 77.8289 350.69 78.9048 350.69 80.2677V83.5674C350.69 84.9303 349.615 86.0062 348.253 86.0062H344.956C343.594 86.0062 342.519 87.0822 342.519 88.4451C342.519 89.808 343.594 90.884 344.956 90.884H348.253C349.615 90.884 350.69 91.96 350.69 93.3229V96.6225C350.69 97.9854 351.766 99.0614 353.127 99.0614C354.489 99.0614 355.565 97.9854 355.565 96.6225V93.3229C355.565 91.96 356.64 90.884 358.002 90.884H361.299C362.661 90.884 363.736 89.808 363.736 88.4451C363.736 87.0822 362.661 86.0062 361.299 86.0062Z" fill="#E56858"/>
<path d="M793.542 176.388C781.858 176.388 772.396 166.919 772.396 155.227C772.396 143.535 781.858 134.066 793.542 134.066C805.226 134.066 814.688 143.535 814.688 155.227C814.688 166.919 805.226 176.388 793.542 176.388Z" fill="#9ECBE6"/>
<path d="M797.054 163.906C799.778 163.906 802 163.906 802.573 163.906C804.724 163.906 806.516 162.113 806.516 159.961C806.516 157.809 804.724 156.016 802.573 156.016H802.502C802.502 155.729 802.573 155.442 802.573 155.227C802.573 150.421 798.703 146.547 793.9 146.547C789.957 146.547 786.66 149.201 785.585 152.859C782.789 153.146 780.639 155.514 780.639 158.383C780.639 161.467 783.148 163.906 786.158 163.906C786.517 163.906 788.094 163.906 790.029 163.906H797.054Z" fill="#E9F0F3"/>
<path d="M1195.46 135.644C1188.72 135.644 1183.28 130.193 1183.28 123.45C1183.28 116.707 1188.72 111.256 1195.46 111.256C1202.2 111.256 1207.65 116.707 1207.65 123.45C1207.65 130.193 1202.2 135.644 1195.46 135.644Z" fill="#FCF3EB"/>
<path d="M1200.84 122.159C1199.98 122.159 1199.62 121.154 1200.19 120.58L1200.7 120.078L1198.83 118.213L1198.33 118.715C1197.76 119.289 1196.75 118.859 1196.75 118.07V117.353H1194.1V118.07C1194.1 118.931 1193.1 119.289 1192.52 118.715L1192.02 118.213L1190.16 120.078L1190.66 120.58C1191.23 121.154 1190.8 122.159 1190.01 122.159H1189.3V124.813H1190.01C1190.87 124.813 1191.23 125.817 1190.66 126.391L1190.16 126.893L1192.02 128.758L1192.52 128.256C1193.1 127.682 1194.1 128.112 1194.1 128.901V129.619H1196.75V128.901C1196.75 128.041 1197.76 127.682 1198.33 128.256L1198.83 128.758L1200.7 126.893L1200.19 126.391C1199.62 125.817 1200.05 124.813 1200.84 124.813H1201.56V122.159H1200.84ZM1195.46 125.315C1194.46 125.315 1193.6 124.454 1193.6 123.45C1193.6 122.445 1194.46 121.585 1195.46 121.585C1196.47 121.585 1197.33 122.445 1197.33 123.45C1197.33 124.454 1196.47 125.315 1195.46 125.315Z" fill="#71C0A1"/>
<path d="M861.353 125.028C861.353 119.935 857.196 115.774 852.106 115.774C847.017 115.774 842.859 119.935 842.859 125.028C842.859 128.471 844.795 131.484 847.519 133.062H856.694C859.49 131.484 861.353 128.471 861.353 125.028Z" fill="#FFD581"/>
<path d="M856.694 133.062H847.519H847.375V140.594H856.766V133.062H856.694Z" fill="#554F6E"/>
<path d="M856.694 124.024H847.375V125.96H856.694V124.024Z" fill="white"/>
<path d="M636.988 303.854C628.745 303.854 622.079 297.183 622.079 288.934C622.079 280.685 628.745 274.014 636.988 274.014C645.232 274.014 651.898 280.685 651.898 288.934C651.898 297.183 645.232 303.854 636.988 303.854Z" fill="white"/>
<path d="M636.988 288.504C635.698 288.504 634.623 287.428 634.623 286.137V284.774C634.623 283.483 635.698 282.407 636.988 282.407C638.278 282.407 639.354 283.483 639.354 284.774V286.137C639.354 287.428 638.278 288.504 636.988 288.504Z" fill="#FE6462"/>
<path d="M643.153 295.462H630.824V293.382C630.824 291.66 632.258 290.226 633.978 290.226H640.071C641.792 290.226 643.225 291.66 643.225 293.382V295.462H643.153Z" fill="#FE6462"/>
<path d="M449.755 207.304C437.641 207.304 427.82 217.131 427.82 229.254C427.82 240.946 436.924 250.486 448.465 251.132C448.895 251.132 449.325 251.204 449.755 251.204C450.185 251.204 450.615 251.132 451.045 251.132C462.586 250.486 471.69 240.946 471.69 229.254C471.69 217.131 461.869 207.304 449.755 207.304Z" fill="#E9F0F3"/>
<path d="M458.214 225.237H441.297V238.651H458.214V225.237Z" fill="#2096FF"/>
<path d="M455.633 225.237H453.698V220.359C453.698 218.207 451.977 216.486 449.827 216.486C447.676 216.486 445.956 218.207 445.956 220.359V225.237H444.021V220.359C444.021 217.131 446.673 214.477 449.898 214.477C453.124 214.477 455.776 217.131 455.776 220.359V225.237H455.633Z" fill="#444B56"/>
<path d="M451.691 230.688C451.691 229.612 450.831 228.751 449.756 228.751C448.68 228.751 447.82 229.612 447.82 230.688C447.82 231.406 448.179 231.979 448.752 232.338V235.207H450.688V232.338C451.333 231.979 451.691 231.334 451.691 230.688Z" fill="white"/>
<path d="M1424.13 316.623C1412.44 316.623 1402.98 307.154 1402.98 295.462C1402.98 283.77 1412.44 274.301 1424.13 274.301C1435.81 274.301 1445.27 283.77 1445.27 295.462C1445.27 307.154 1435.81 316.623 1424.13 316.623Z" fill="white"/>
<path d="M1422.69 290.656L1420.62 288.074H1414.59V290.656V302.85H1433.66V290.656H1422.69Z" fill="#E56858"/>
<path d="M1388.86 178.827H1372.66V188.582H1388.86V178.827Z" fill="#93C5E3"/>
<path d="M1361.33 105.373C1365.57 105.373 1369 101.937 1369 97.6982C1369 93.4593 1365.57 90.0229 1361.33 90.0229C1357.1 90.0229 1353.66 93.4593 1353.66 97.6982C1353.66 101.937 1357.1 105.373 1361.33 105.373Z" fill="#E56858"/>
<path d="M1407.78 111.399H1353.66V128.901H1407.78V111.399Z" fill="#7170C4"/>
<path d="M1407.86 91.0989H1373.74V92.677H1407.86V91.0989Z" fill="white"/>
<path d="M1407.86 96.9092H1373.74V98.4873H1407.86V96.9092Z" fill="white"/>
<path d="M1398.32 102.647H1373.74V104.226H1398.32V102.647Z" fill="white"/>
<path d="M1524.12 181.911V153.505H1482.48V188.582V198.983V207.591H1524.12V198.983H1498.1V188.582L1524.12 181.911Z" fill="#EB813C"/>
<path d="M868.951 172.801C869.237 173.519 868.019 176.675 865.725 177.321C863.431 178.038 860.707 176.173 860.492 175.384C860.349 174.81 861.639 175.025 864.721 174.093C867.804 173.16 868.807 172.299 868.951 172.801Z" fill="#C17E72"/>
<path d="M862.359 170.668C862.692 170.387 862.485 169.594 861.898 168.898C861.31 168.202 860.564 167.866 860.231 168.147C859.899 168.429 860.105 169.221 860.693 169.917C861.281 170.613 862.027 170.949 862.359 170.668Z" fill="#554F6E"/>
<path d="M867.517 168.497C867.952 168.497 868.305 167.759 868.305 166.847C868.305 165.936 867.952 165.198 867.517 165.198C867.082 165.198 866.729 165.936 866.729 166.847C866.729 167.759 867.082 168.497 867.517 168.497Z" fill="#554F6E"/>
<path d="M703.294 129.834C703.294 130.193 701.43 131.412 699.351 131.34C697.273 131.268 695.48 129.977 695.48 129.619C695.48 129.332 696.556 129.619 699.351 129.69C702.219 129.762 703.294 129.547 703.294 129.834Z" fill="#664242"/>
<path d="M697.388 122.746C697.518 121.844 697.273 121.063 696.842 121.001C696.411 120.939 695.957 121.62 695.827 122.522C695.697 123.423 695.942 124.205 696.373 124.267C696.804 124.329 697.258 123.648 697.388 122.746Z" fill="#554F6E"/>
<path d="M703.848 123.628C703.912 122.719 703.611 121.958 703.177 121.927C702.743 121.897 702.339 122.609 702.275 123.518C702.211 124.427 702.512 125.188 702.946 125.219C703.381 125.249 703.784 124.537 703.848 123.628Z" fill="#554F6E"/>
<path d="M873.826 225.954C874.542 228.321 875.259 230.258 870.743 231.621C866.227 232.984 861.998 232.195 861.281 229.828C860.564 227.461 863.575 224.376 868.091 222.942C872.535 221.579 873.109 223.587 873.826 225.954Z" fill="#EDAE9F"/>
<path d="M862.356 229.613C861.639 229.326 861.281 228.465 861.568 227.747L863.575 222.798C863.862 222.081 864.722 221.722 865.438 222.009C866.155 222.296 866.514 223.157 866.227 223.874L864.22 228.823C863.933 229.612 863.073 229.971 862.356 229.613Z" fill="#EDAE9F"/>
<path d="M1489.29 186C1483.55 186 1481.98 189.873 1481.98 194.105C1481.98 198.338 1483.48 201.422 1489.29 201.422C1492.37 201.422 1496.38 200.418 1498.25 198.84V188.51C1496.38 187.004 1492.37 186 1489.29 186Z" fill="#EA9E7D"/>
<path d="M1496.96 190.232C1496.17 190.949 1494.95 190.806 1494.23 190.017L1490.15 185.211C1489.43 184.422 1489.57 183.202 1490.36 182.485C1491.15 181.767 1492.37 181.911 1493.09 182.7L1497.17 187.506C1497.89 188.367 1497.82 189.586 1496.96 190.232Z" fill="#EA9E7D"/>
</svg>
