<svg xmlns="http://www.w3.org/2000/svg" xmlns:xlink="http://www.w3.org/1999/xlink" viewBox="0 0 1209.04 376.6"><defs><style>.cls-1{fill:#ebeded;}.cls-2{fill:#e3e8e8;}.cls-3{fill:#f5f7f7;}.cls-4{opacity:0.05;}.cls-5{fill:#cbced1;}.cls-6,.cls-8{fill:#fff;}.cls-12,.cls-7,.cls-8{opacity:0.25;}.cls-9{opacity:0.12;}.cls-10{fill:#fefefd;}.cls-11{fill:url(#linear-gradient);}.cls-12{fill:#2096ff;}</style><linearGradient id="linear-gradient" x1="-207.99" y1="-2270.81" x2="-157.99" y2="-2270.81" gradientTransform="translate(2871.31 30.95) rotate(-90)" gradientUnits="userSpaceOnUse"><stop offset="0" stop-color="#fff" stop-opacity="0.25"/><stop offset="1" stop-color="#fff" stop-opacity="0"/></linearGradient></defs><title>tablet</title><g id="Layer_2" data-name="Layer 2"><g id="Layer_1-2" data-name="Layer 1"><rect class="cls-1" x="215.21" y="241.94" width="758" height="36" rx="18" ry="18"/><rect class="cls-2" x="297.21" y="208.94" width="594" height="24" rx="9.77" ry="9.77"/><polygon class="cls-3" points="959.71 242.94 228.71 242.94 307.71 211.94 885.71 211.94 959.71 242.94"/><g class="cls-4"><path d="M1061.72,376.6H138.36c-8,0-10.13-17.22-2.66-21.77l70.81-43.11a5.15,5.15,0,0,1,2.66-.78H995.4a5.14,5.14,0,0,1,2.81.88l66.32,43.11C1071.85,359.69,1069.66,376.6,1061.72,376.6Z"/></g><polygon class="cls-3" points="946.71 242.94 241.71 242.94 317.9 211.94 875.35 211.94 946.71 242.94"/><ellipse class="cls-5" cx="594.21" cy="238.94" rx="27.5" ry="2"/><rect class="cls-5" x="547.5" y="251.44" width="101" height="17" rx="8.5" ry="8.5"/><circle class="cls-5" cx="244" cy="259.94" r="8.5"/><polygon class="cls-6" points="928 234.94 263 234.94 311 213.94 879 213.94 928 234.94"/><g class="cls-7"><path class="cls-6" d="M367.44,176.33l-9.94,1.17-1.17-9.93a4,4,0,1,0-7.94.94l1.17,9.93-9.93,1.17a4,4,0,1,0,.93,7.95l9.94-1.18,1.17,9.94a4,4,0,0,0,7.94-.94l-1.17-9.93,9.93-1.17a4,4,0,0,0-.93-7.95Z"/></g><path class="cls-8" d="M832.74,192.82,793,189.16a2.46,2.46,0,0,0-2.67,2.22l-1.45,15.8L778.6,194.8a2.46,2.46,0,1,0-3.78,3.14l13.74,16.52a2.45,2.45,0,0,0,1.38.82,2.36,2.36,0,0,0,.66.16,2.46,2.46,0,0,0,2.67-2.22L795,194.28l37.28,3.43a2.46,2.46,0,1,0,.45-4.89Z"/><g class="cls-9"><rect class="cls-10" x="403.18" y="157.1" width="4.9" height="24.52" rx="2.45" ry="2.45" transform="translate(321.69 -262.12) rotate(56.33)"/><circle class="cls-10" cx="400.21" cy="161.51" r="2.76"/><circle class="cls-10" cx="410.79" cy="177.38" r="2.76"/></g><g class="cls-4"><polygon class="cls-6" points="311.61 97.14 212 157.94 186.74 80.2 264.35 35.39 311.61 97.14"/></g><g class="cls-4"><polygon class="cls-6" points="1181.04 163.63 1069.18 140.41 1125 88.94 1209.04 91.1 1181.04 163.63"/></g><g class="cls-4"><rect class="cls-6" x="924.67" y="37.19" width="160.99" height="118.72" transform="translate(550.34 998.11) rotate(-68.72)"/></g><g class="cls-4"><polygon class="cls-6" points="116 128.94 0 66.94 139 56.94 189 108.94 116 128.94"/></g><polygon class="cls-11" points="1003 188.94 931 238.94 259 238.94 198 188.94 1003 188.94"/><ellipse class="cls-12" cx="594.37" cy="218.07" rx="59.5" ry="2.5"/></g></g></svg>