<svg width="227" height="227" viewBox="0 0 227 227" fill="none" xmlns="http://www.w3.org/2000/svg">
<mask id="mask0" style="mask-type:alpha" maskUnits="userSpaceOnUse" x="0" y="0" width="227" height="227">
<circle cx="113.376" cy="113.208" r="113.208" fill="white"/>
</mask>
<g mask="url(#mask0)">
<circle cx="113.376" cy="113.208" r="113.208" fill="white"/>
<path d="M151.011 146.718C148.249 146.695 146.213 138.732 144.089 139.337C141.751 139.999 142.735 149.971 141.058 150.195C139.94 150.341 139.179 146 137.166 145.854C135.231 145.708 134.818 149.601 132.402 150.633C127.448 152.764 121.89 139.494 112.888 139.102C103.941 138.709 98.6067 151.328 92.1429 148.905C88.8662 147.671 88.0834 143.611 84.7844 143.689C81.6307 143.768 80.5348 147.526 78.7231 147.167C74.7531 146.37 76.2404 127.178 72.7737 126.943C70.7383 126.808 69.8325 130.689 68.155 130.7C66.0191 130.723 63.1562 124.43 61.2327 109.568C58.5375 88.8389 57.1956 78.4746 61.8142 72.2268C64.8672 68.0878 69.6536 65.5752 108.996 63.8366C141.125 62.412 148.562 63.7917 151.928 65.9565C152.7 66.4501 153.192 66.9324 153.292 67.0222C174.753 85.0813 158.705 146.763 151.011 146.718Z" fill="#EDCC24"/>
<path d="M191 225.999H34V199.37C34 175.635 53.1903 156.387 76.8538 156.387H148.135C171.799 156.387 190.989 175.635 190.989 199.37V225.999H191Z" fill="#9397DE"/>
<path d="M77.0672 118.462C81.4276 118.462 84.9625 113.702 84.9625 107.829C84.9625 101.956 81.4276 97.1953 77.0672 97.1953C72.7067 97.1953 69.1719 101.956 69.1719 107.829C69.1719 113.702 72.7067 118.462 77.0672 118.462Z" fill="#F3B1AB"/>
<path d="M128.798 187.962H127.277C110.111 187.962 96.1875 173.997 96.1875 156.779V92.518C96.1875 83.4884 103.49 76.1638 112.493 76.1638C121.495 76.1638 128.798 83.4884 128.798 92.518V187.962Z" fill="#F3B2AB"/>
<path d="M112.494 151.541C93.2929 151.541 77.7148 135.927 77.7148 116.657V88.2892C77.7148 69.0299 93.2818 53.4048 112.494 53.4048C131.696 53.4048 147.274 69.0187 147.274 88.2892V116.657C147.274 135.916 131.707 151.541 112.494 151.541Z" fill="#F5C0BB"/>
<path d="M97.084 105.877C99.3136 105.877 101.121 103.542 101.121 100.661C101.121 97.7808 99.3136 95.4456 97.084 95.4456C94.8544 95.4456 93.0469 97.7808 93.0469 100.661C93.0469 103.542 94.8544 105.877 97.084 105.877Z" fill="#4F68FC"/>
<path d="M127.389 105.877C129.618 105.877 131.426 103.542 131.426 100.661C131.426 97.7808 129.618 95.4456 127.389 95.4456C125.159 95.4456 123.352 97.7808 123.352 100.661C123.352 103.542 125.159 105.877 127.389 105.877Z" fill="#4F68FC"/>
<path d="M131.104 122.108C131.104 123.914 123.444 132.82 114.005 132.82C104.567 132.82 96.9062 123.914 96.9062 122.108C96.9062 120.302 104.567 126.258 114.005 126.258C123.444 126.258 131.104 120.302 131.104 122.108Z" fill="white"/>
<path d="M90.945 63.2532C98.0015 67.6053 106.266 55.9173 112.909 60.7518C119.943 65.8667 114.754 83.6679 122.403 85.5411C132.826 88.0985 128.531 98.8891 131.092 101.996C133.295 104.666 130.88 119.349 135.856 119.797C145.384 120.661 139.334 137.868 142.354 141.076C142.913 141.67 143.461 141.939 143.987 141.962C146.805 142.074 149.41 136.084 150.585 133.269C159.252 112.495 163.591 102.108 164.004 98.104C164.586 92.4058 166.442 71.3405 152.754 52.5074C144.758 41.5149 134.839 35.9289 130.679 33.8314C127.134 32.0479 121.922 29.4904 114.664 28.6155C108.603 27.8864 93.6401 26.0917 86.9302 35.8953C80.8466 44.7454 84.168 59.0693 90.945 63.2532Z" fill="#EDCC24"/>
<path d="M101.915 66.4276C99.5781 71.0377 87.6569 70.0618 84.7716 75.502C81.1036 82.4228 84.5032 96.5448 80.8799 100.246C78.0394 103.152 68.0864 110.667 66.1629 111.104C62.014 112.058 49.4665 79.9663 59.5872 58.329C63.3336 50.3314 73.2418 38.363 85.1407 40.5391C97.5875 42.8273 105.516 59.3385 101.915 66.4276Z" fill="#EDCC24"/>
</g>
</svg>
