<svg width="227" height="227" viewBox="0 0 227 227" fill="none" xmlns="http://www.w3.org/2000/svg">
<mask id="mask0" style="mask-type:alpha" maskUnits="userSpaceOnUse" x="0" y="0" width="227" height="227">
<circle cx="113.751" cy="113.208" r="113.208" fill="white"/>
</mask>
<g mask="url(#mask0)">
<circle cx="113.747" cy="113.208" r="113.208" fill="white"/>
<path d="M191.998 230.839H38.6289V204.902C38.6289 181.779 57.373 163.035 80.4964 163.035H150.131C173.254 163.035 191.998 181.779 191.998 204.902V230.839Z" fill="#382D57"/>
<path d="M77.3982 114.133C82.0602 114.133 85.8394 109.056 85.8394 102.794C85.8394 96.531 82.0602 91.4541 77.3982 91.4541C72.7363 91.4541 68.957 96.531 68.957 102.794C68.957 109.056 72.7363 114.133 77.3982 114.133Z" fill="#F3B1AB"/>
<path d="M154.09 114.323C158.752 114.323 162.531 109.246 162.531 102.984C162.531 96.7212 158.752 91.6443 154.09 91.6443C149.428 91.6443 145.648 96.7212 145.648 102.984C145.648 109.246 149.428 114.323 154.09 114.323Z" fill="#F3B1AB"/>
<path d="M115.268 181.99C105.642 181.99 97.8359 174.184 97.8359 164.558V94.8494C97.8359 85.2235 105.642 77.417 115.268 77.417C124.894 77.417 132.701 85.2235 132.701 94.8494V164.558C132.701 174.184 124.894 181.99 115.268 181.99Z" fill="#F3B1AB"/>
<path d="M115.268 152.954C111.386 152.118 101.221 149.368 92.3884 140.186C83.3232 130.762 81.0701 120.173 80.4354 116.28C79.6526 103.174 78.8804 90.0577 78.0977 76.9516C78.1082 56.4198 94.7473 39.7808 115.268 39.7808C135.8 39.7808 152.439 56.4198 152.439 76.9516V115.783C151.519 120.067 148.42 131.682 137.81 141.382C129.073 149.379 119.658 152.013 115.268 152.954Z" fill="#F5C0BB"/>
<path d="M101.595 98.9651C103.415 98.6262 104.538 96.4519 104.102 94.1086C103.665 91.7653 101.836 90.1405 100.015 90.4794C98.1947 90.8183 97.0724 92.9926 97.5085 95.3359C97.9447 97.6791 99.7742 99.304 101.595 98.9651Z" fill="#382D57"/>
<path d="M135.635 95.5297C136.21 93.2165 135.219 90.9791 133.422 90.5324C131.625 90.0857 129.702 91.5989 129.127 93.9121C128.552 96.2253 129.543 98.4627 131.34 98.9094C133.138 99.3561 135.061 97.8429 135.635 95.5297Z" fill="#382D57"/>
<path d="M134.233 121.812C134.233 124.669 126.046 133.406 115.954 133.406C105.863 133.406 97.6758 124.679 97.6758 121.812C97.6758 118.956 105.863 123.05 115.954 123.05C126.046 123.05 134.233 118.956 134.233 121.812Z" fill="white"/>
<path d="M127.052 146.692C127.052 148.173 122.08 152.69 115.956 152.69C109.831 152.69 104.859 148.173 104.859 146.692C104.859 145.211 109.831 147.337 115.956 147.337C122.08 147.337 127.052 145.211 127.052 146.692Z" fill="#9397DE"/>
<path d="M95.6692 45.3766C97.7531 44.4351 90.2745 46.3074 84.0229 63.4543C80.9024 72.0118 88.5397 82.1666 85.3557 86.8103C83.1978 89.9731 79.1888 98.446 80.1197 102C80.2572 102.529 81.0505 105.121 80.511 105.502C80.4899 105.512 80.4687 105.523 80.437 105.523C79.6436 105.565 72.7997 82.7801 80.437 63.687C85.2182 51.7339 91.5756 47.2171 95.6692 45.3766Z" fill="#9397DE"/>
<path d="M135.047 45.3766C132.964 44.4351 140.442 46.3074 146.694 63.4543C149.814 72.0118 142.177 82.1666 145.361 86.8103C147.519 89.9731 151.528 98.446 150.597 102C150.459 102.529 149.666 105.121 150.206 105.502C150.227 105.512 150.248 105.523 150.28 105.523C151.073 105.565 157.917 82.7801 150.28 63.687C145.498 51.7339 139.152 47.2171 135.047 45.3766Z" fill="#9397DE"/>
<path d="M97.3352 153.519L84.2383 166.615L101.935 184.312L115.032 171.215L97.3352 153.519Z" fill="#382D57"/>
<path d="M145.948 166.614L132.852 153.517L115.155 171.214L128.252 184.311L145.948 166.614Z" fill="#382D57"/>
<path d="M138.729 170.82H91.0117V211.143H138.729V170.82Z" fill="#382D57"/>
</g>
</svg>
