<svg width="228" height="227" viewBox="0 0 228 227" fill="none" xmlns="http://www.w3.org/2000/svg">
<mask id="mask0" style="mask-type:alpha" maskUnits="userSpaceOnUse" x="0" y="0" width="228" height="227">
<circle cx="114.122" cy="113.208" r="113.208" fill="white"/>
</mask>
<g mask="url(#mask0)">
<circle cx="114.122" cy="113.208" r="113.208" fill="white"/>
<path d="M69.8425 74.9323C65.2689 81.0377 67.2603 82.5477 62.7086 97.1657C60.1263 105.449 59.0103 108.622 58.8243 113.053C58.5288 120.067 61.0126 130.089 66.7351 131.971C69.2736 132.814 72.0746 132.157 74.3614 134.51C75.5978 135.79 76.1668 137.42 77.1844 137.333C78.4208 137.234 78.8037 134.75 79.7228 134.794C80.631 134.838 81.0468 137.278 81.4188 138.186C84.3402 145.418 114.616 131.435 138.458 139.598C141.631 140.681 147.583 143.154 152.299 140.44C156.391 138.088 158.481 132.442 157.387 131.402C156.293 130.374 151.993 133.787 151.456 133.098C150.997 132.496 154.071 129.608 157.387 125.756C161.829 120.603 164.028 117.999 165.013 115.023C165.659 113.075 166.184 109.902 158.798 91.87C155.964 84.9549 154.553 81.4973 153.437 79.7247C147.003 69.549 137.254 64.9754 133.676 63.3451C112.045 53.5195 90.4785 62.984 82.5677 66.4525C76.9218 68.9363 73.0156 70.7088 69.8425 74.9323Z" fill="#7F3C3F"/>
<path d="M191.001 234.44H37.3906V208.464C37.3906 185.312 56.1665 166.536 79.3191 166.536H149.061C172.214 166.536 190.99 185.312 190.99 208.464V234.44H191.001Z" fill="#2AB473"/>
<path d="M79.5256 126.259C83.7919 126.259 87.2504 121.615 87.2504 115.887C87.2504 110.158 83.7919 105.514 79.5256 105.514C75.2593 105.514 71.8008 110.158 71.8008 115.887C71.8008 121.615 75.2593 126.259 79.5256 126.259Z" fill="#F3B1AB"/>
<path d="M145.561 129.082C149.827 129.082 153.286 124.438 153.286 118.71C153.286 112.981 149.827 108.337 145.561 108.337C141.294 108.337 137.836 112.981 137.836 118.71C137.836 124.438 141.294 129.082 145.561 129.082Z" fill="#F3B1AB"/>
<path d="M114.191 188.583C105.383 188.583 98.2383 181.438 98.2383 172.63V79.5276H130.144V172.63C130.144 181.449 123.01 188.583 114.191 188.583Z" fill="#F3B1AB"/>
<path d="M114.188 153.712C100.008 153.712 86.9763 143.821 84.7989 129.848L80.8927 104.693C77.5993 83.4229 92.2064 62.7979 114.188 62.7979C136.17 62.7979 150.788 83.4119 147.484 104.693L143.577 129.848C141.411 143.821 128.38 153.712 114.188 153.712Z" fill="#F5C0BB"/>
<path d="M99.409 116.303C101.149 116.303 102.56 114.485 102.56 112.243C102.56 110.001 101.149 108.184 99.409 108.184C97.6687 108.184 96.2578 110.001 96.2578 112.243C96.2578 114.485 97.6687 116.303 99.409 116.303Z" fill="#382D57"/>
<path d="M129.835 116.303C131.575 116.303 132.986 114.485 132.986 112.243C132.986 110.001 131.575 108.184 129.835 108.184C128.094 108.184 126.684 110.001 126.684 112.243C126.684 114.485 128.094 116.303 129.835 116.303Z" fill="#382D57"/>
<path d="M125.786 137.059C125.786 138.821 120.764 145.32 114.571 145.32C108.378 145.32 103.355 138.821 103.355 137.059C103.355 135.297 108.378 138.919 114.571 138.919C120.764 138.919 125.786 135.286 125.786 137.059Z" fill="white"/>
<path d="M134.651 190.596H97.1318C91.8032 190.596 87.4375 186.231 87.4375 180.902V166.525H144.334V180.902C144.345 186.242 139.979 190.596 134.651 190.596Z" fill="#F3B1AB"/>
<path d="M84.6701 91.7385C85.2063 91.7276 85.3704 88.6092 85.9503 88.5873C86.4974 88.5764 87.0226 91.3774 87.0663 91.8042C87.9636 100.382 91.6728 107.265 92.57 107.057C93.7626 106.783 90.688 93.4782 92.1433 93.0843C93.5329 92.7123 96.9467 104.486 99.7696 104.092C102.855 103.665 100.853 89.2657 108.238 85.458C108.37 85.3924 111.499 83.8168 112.9 85.0313C116.106 87.8105 106.16 101.553 109.092 104.092C110.514 105.328 114.574 103.534 117.134 101.126C122.364 96.2246 122.277 87.9418 122.638 87.9965C123.053 88.0512 119.815 97.9534 124.334 104.092C127.288 108.096 132.956 105.328 133.656 104.376C134.148 103.698 129.695 106.072 128.152 101.553C125.887 94.9225 130.91 82.7335 133.656 83.018C135.844 83.2478 135.987 95.2617 134.925 102.461C134.652 104.321 135.866 108.72 138.733 110.503C147.059 115.701 169.895 91.0054 167.006 91.2352C154.828 92.1871 158.275 88.4013 158.855 87.1102C163.22 77.2846 159.971 60.9596 153.132 52.9066C147.399 46.1556 136.391 43.1028 128.141 44.8644C124.662 45.6085 123.032 46.9324 118.819 46.9871C112.024 47.0637 108.676 43.6171 103.993 41.8992C100.809 40.7285 97.1874 40.4221 93.511 40.8379C82.1317 42.129 72.6781 50.2915 69.0673 61.1785C66.8352 67.9404 64.8657 77.4815 66.31 88.0621C66.6711 90.7428 68.7609 89.2329 69.7019 91.454C71.19 94.9882 71.7699 94.5615 74.3631 99.9229C75.7745 102.833 77.2954 106.4 79.8667 111.357C82.0003 115.46 82.4927 115.996 82.7663 116.018C82.7772 116.018 82.7991 116.018 82.8319 116.018C84.0136 115.909 88.6201 113.414 89.4626 109.661C90.4911 105.098 84.8561 103.446 83.2477 95.2617C82.438 91.1148 83.0617 87.3837 83.3352 87.3619C83.6635 87.3509 84.0355 91.7385 84.6701 91.7385Z" fill="#7F3C3F"/>
<path d="M102.812 123.984H96.0389C90.6118 123.984 86.1914 119.563 86.1914 114.136V109.442C86.1914 106.597 88.5001 104.289 91.3449 104.289H107.506C110.351 104.289 112.659 106.597 112.659 109.442V114.136C112.659 119.563 108.25 123.984 102.812 123.984ZM91.3449 106.477C89.7146 106.477 88.3797 107.812 88.3797 109.442V114.136C88.3797 118.36 91.8154 121.795 96.0389 121.795H102.812C107.035 121.795 110.471 118.36 110.471 114.136V109.442C110.471 107.812 109.136 106.477 107.506 106.477H91.3449Z" fill="#382D57"/>
<path d="M132.671 123.984H125.898C120.471 123.984 116.051 119.563 116.051 114.136V109.442C116.051 106.597 118.359 104.289 121.204 104.289H137.365C140.21 104.289 142.519 106.597 142.519 109.442V114.136C142.519 119.563 138.109 123.984 132.671 123.984ZM121.204 106.477C119.574 106.477 118.239 107.812 118.239 109.442V114.136C118.239 118.36 121.675 121.795 125.898 121.795H132.671C136.895 121.795 140.33 118.36 140.33 114.136V109.442C140.33 107.812 138.995 106.477 137.365 106.477H121.204Z" fill="#382D57"/>
<path d="M117.179 109.103H111.992V111.291H117.179V109.103Z" fill="#382D57"/>
</g>
</svg>
