<svg width="227" height="227" viewBox="0 0 227 227" fill="none" xmlns="http://www.w3.org/2000/svg">
<mask id="mask0" style="mask-type:alpha" maskUnits="userSpaceOnUse" x="0" y="0" width="227" height="227">
<circle cx="113.497" cy="113.208" r="113.208" fill="white"/>
</mask>
<g mask="url(#mask0)">
<circle cx="113.497" cy="113.208" r="113.208" fill="white"/>
<path d="M73.1734 97.895C66.0675 105.538 57.97 114.255 59.8498 123.478C62.1014 134.499 77.3667 140.303 75.3114 146.934C74.1753 150.59 69.0007 150.497 68.381 153.864C67.3069 159.659 81.4051 166.785 83.3055 167.725C98.2817 175.151 126.902 182.453 145.679 167.725C153.094 161.91 158.785 152.801 156.875 150.136C155.305 147.946 149.087 150.745 147.817 148.535C146.412 146.118 153.642 142.307 155.284 134.674C156.606 128.519 152.919 126.257 151.018 116.548C148.922 105.796 152.423 103.338 151.018 95.7571C149.035 85.0259 139.316 75.3895 129.69 71.7643C105.811 62.7889 80.4962 90.0248 73.1734 97.895Z" fill="#7F3C3F"/>
<path d="M185 226.07H40V201.551C40 179.696 57.7235 161.972 79.5783 161.972H145.411C167.266 161.972 184.99 179.696 184.99 201.551V226.07H185Z" fill="#E2E5F2"/>
<path d="M112.492 191.057C104.178 191.057 97.4336 184.312 97.4336 175.998V88.114H127.551V175.998C127.551 184.312 120.817 191.057 112.492 191.057Z" fill="#F3B1AB"/>
<path d="M79.7762 127.052C83.8034 127.052 87.068 122.668 87.068 117.261C87.068 111.853 83.8034 107.469 79.7762 107.469C75.749 107.469 72.4844 111.853 72.4844 117.261C72.4844 122.668 75.749 127.052 79.7762 127.052Z" fill="#F3B1AB"/>
<path d="M146.132 124.656C150.159 124.656 153.424 120.272 153.424 114.865C153.424 109.457 150.159 105.073 146.132 105.073C142.105 105.073 138.84 109.457 138.84 114.865C138.84 120.272 142.105 124.656 146.132 124.656Z" fill="#F3B1AB"/>
<path d="M113.578 157.511H111.43C93.1178 157.511 78.2656 142.669 78.2656 124.346V100.312C78.2656 81.9999 93.1075 67.1477 111.43 67.1477H113.578C131.891 67.1477 146.743 81.9896 146.743 100.312V124.346C146.732 142.669 131.891 157.511 113.578 157.511Z" fill="#F5C0BB"/>
<path d="M102.824 115.835C102.824 118.345 101.151 120.369 99.0957 120.369C97.0301 120.369 95.3672 118.335 95.3672 115.835C95.3672 113.336 97.0404 111.301 99.0957 111.301C101.151 111.291 102.824 113.325 102.824 115.835Z" fill="#5EA88C"/>
<path d="M126.479 120.37C128.538 120.37 130.207 118.34 130.207 115.836C130.207 113.332 128.538 111.302 126.479 111.302C124.419 111.302 122.75 113.332 122.75 115.836C122.75 118.34 124.419 120.37 126.479 120.37Z" fill="#5EA88C"/>
<path d="M127.277 133.714C127.277 135.625 121.163 142.968 113.623 142.968C106.083 142.968 99.9688 135.635 99.9688 133.714C99.9688 131.793 106.083 136.038 113.623 136.038C121.163 136.038 127.277 131.803 127.277 133.714Z" fill="white"/>
<path d="M129.002 62.1796C132.679 69.4508 130.779 78.7463 124.685 83.5077C116.164 90.1489 104.896 83.673 97.5522 90.4381C91.7476 95.7778 96.3748 102.037 90.1467 106.963C84.6934 111.281 74.365 111.849 68.5605 108.027C58.1804 101.2 64.6253 82.289 65.6995 78.705C69.5107 66.1148 79.6325 59.2877 83.299 56.7159C89.3411 52.4813 96.4264 50.7048 104.947 50.4569C112.787 50.2297 124.437 53.163 129.002 62.1796Z" fill="#7F3C3F"/>
<path d="M115.823 81.3698C119.686 87.8766 123.828 90.4174 127.019 91.5019C132.142 93.2474 135.612 91.5019 138.215 94.1666C141.489 97.513 138.029 102.336 140.88 105.889C144.35 110.227 155.608 110.702 161.134 104.288C166.918 97.575 163.695 86.472 161.671 86.1621C160.091 85.9246 158.82 92.1732 156.868 92.0286C154.513 91.8531 155.433 81.8552 152.603 73.9023C146.684 57.2943 123.146 45.7059 115.286 51.5208C108.201 56.7676 114.057 75.9887 115.823 81.3698Z" fill="#7F3C3F"/>
<path d="M121.224 82.9915C119.985 83.8797 124.798 87.381 123.951 92.4936C123.031 98.0606 116.049 101.572 115.647 101.768C110.41 104.32 105.246 103.659 105.215 104.309C105.184 104.888 109.295 105.838 113.653 105.28C120.243 104.444 124.333 100.529 124.849 100.033C128.123 96.8212 131.232 91.0166 128.382 86.7304C126.46 83.8591 122.236 82.2685 121.224 82.9915Z" fill="#7F3C3F"/>
<path d="M103.479 124.067H92.2111C87.9455 124.067 84.4648 120.597 84.4648 116.321V111.642C84.4648 109.804 85.9625 108.306 87.8009 108.306H107.879C109.718 108.306 111.215 109.804 111.215 111.642V116.321C111.215 120.597 107.745 124.067 103.479 124.067ZM87.8009 110.382C87.0986 110.382 86.5305 110.95 86.5305 111.653V116.331C86.5305 119.461 89.0816 122.012 92.2111 122.012H103.479C106.609 122.012 109.16 119.461 109.16 116.331V111.653C109.16 110.95 108.592 110.382 107.89 110.382H87.8009Z" fill="#382D57"/>
<path d="M133.057 124.067H121.789C117.524 124.067 114.043 120.597 114.043 116.321V111.642C114.043 109.804 115.541 108.306 117.379 108.306H137.457C139.296 108.306 140.793 109.804 140.793 111.642V116.321C140.804 120.597 137.333 124.067 133.057 124.067ZM117.389 110.382C116.687 110.382 116.119 110.95 116.119 111.653V116.331C116.119 119.461 118.67 122.012 121.8 122.012H133.057C136.187 122.012 138.738 119.461 138.738 116.331V111.653C138.738 110.95 138.17 110.382 137.468 110.382H117.389Z" fill="#382D57"/>
<path d="M114.986 112.562H109.688V114.627H114.986V112.562Z" fill="#382D57"/>
</g>
</svg>
