<svg width="245" height="245" viewBox="0 0 245 245" fill="none" xmlns="http://www.w3.org/2000/svg">
<mask id="mask0" style="mask-type:alpha" maskUnits="userSpaceOnUse" x="0" y="0" width="245" height="245">
<circle cx="122.113" cy="122.066" r="122.066" fill="white"/>
</mask>
<g mask="url(#mask0)">
<circle cx="122.113" cy="122.066" r="122.066" fill="white"/>
<path d="M165.1 214.258H78.3516V90.7245C78.3516 69.8961 95.2335 53.002 116.074 53.002H120.313C145.051 53.002 165.1 73.0508 165.1 97.7891V214.258Z" fill="#7F3C3F"/>
<path d="M207 250.531H36V221.615C36 195.841 56.9015 174.94 82.6751 174.94H160.313C186.086 174.94 206.988 195.841 206.988 221.615V250.531H207Z" fill="#382D57"/>
<path d="M121.489 160.981C118.407 160.616 113.036 159.605 107.396 156.365C107.323 156.329 107.262 156.292 107.189 156.243C100.32 152.236 95.6423 145.695 94.0223 138.35C91.9882 129.13 89.9541 119.897 87.92 110.677C87.25 107.79 83.7786 91.322 95.2525 75.9992C104.412 63.7579 117.506 59.7384 121.489 58.6665C145.241 58.6665 157.628 87.1564 151.684 111.834C150.868 120.068 150.04 128.302 149.224 136.536C148.408 144.709 143.475 152.139 135.777 156.256C135.716 156.292 135.643 156.329 135.582 156.353C130.04 159.288 124.887 160.47 121.489 160.981Z" fill="#F7A1B5"/>
<path d="M139.256 209.228H137.6C118.903 209.228 103.738 194.063 103.738 175.366V105.585C103.738 95.7799 111.692 87.8262 121.497 87.8262C131.302 87.8262 139.256 95.7799 139.256 105.585V209.228Z" fill="#F7A1B5"/>
<path d="M104.71 114.002C107.138 114.002 109.107 111.466 109.107 108.338C109.107 105.21 107.138 102.674 104.71 102.674C102.281 102.674 100.312 105.21 100.312 108.338C100.312 111.466 102.281 114.002 104.71 114.002Z" fill="#4F68FC"/>
<path d="M137.714 114.002C140.142 114.002 142.111 111.466 142.111 108.338C142.111 105.21 140.142 102.674 137.714 102.674C135.285 102.674 133.316 105.21 133.316 108.338C133.316 111.466 135.285 114.002 137.714 114.002Z" fill="#4F68FC"/>
<path d="M139.169 137.716C139.169 139.678 131.995 146.913 123.127 146.913C114.26 146.913 107.086 139.678 107.086 137.716C107.086 135.755 114.26 141.005 123.127 141.005C131.995 141.005 139.169 135.755 139.169 137.716Z" fill="white"/>
<path d="M85.2556 127.863C90.0049 127.863 93.8549 122.693 93.8549 116.316C93.8549 109.939 90.0049 104.769 85.2556 104.769C80.5063 104.769 76.6562 109.939 76.6562 116.316C76.6562 122.693 80.5063 127.863 85.2556 127.863Z" fill="#F7A1B5"/>
<path d="M155.509 127.863C160.259 127.863 164.109 122.693 164.109 116.316C164.109 109.939 160.259 104.769 155.509 104.769C150.76 104.769 146.91 109.939 146.91 116.316C146.91 122.693 150.76 127.863 155.509 127.863Z" fill="#F7A1B5"/>
<path d="M97.3659 229.13C95.5388 230.458 92.7008 232.09 90.1307 231.237C85.9529 229.849 85.8433 223.04 82.1161 222.285C80.9467 222.053 79.0466 222.321 76.1477 225.366C74.5399 219.763 72.4083 211.383 70.8005 201.067C67.6702 180.981 73.2853 165.792 70.496 137.668C62.7858 60.079 104.918 45.158 106.806 46.6684C108.085 47.6915 107.829 61.3701 101.142 72.3446C101.142 72.3567 89.9846 103.794 86.5253 111.261C78.194 129.239 88.0114 137.266 95.3196 207.668C96.294 217.035 96.9761 224.623 97.3659 229.13Z" fill="#7F3C3F"/>
<path d="M104.748 67.3143C111.958 72.0525 117.013 68.3253 124.711 72.0281C127.525 73.3801 130.716 77.4606 136.965 85.5483C147.318 98.9345 150.022 104.647 155.503 104.769C159.06 104.854 161.691 102.796 162.263 102.321C170.692 95.4144 168.926 73.7821 158.487 59.8843C147.318 44.9877 126.709 41.3458 112.774 45.7429C111.081 46.2788 98.2312 50.0182 97.683 57.0585C97.2689 62.2595 103.761 66.6566 104.748 67.3143Z" fill="#7F3C3F"/>
<path d="M181.747 230.458C178.934 232.017 175.17 233.43 171.711 232.176C167.996 230.836 167.167 227.364 164.171 226.987C162.283 226.755 159.518 227.742 155.681 233.113C150.967 210.044 151.053 191.615 151.905 179.362C153.866 151.444 160.992 138.996 160.395 112.881C159.957 93.7702 155.62 78.4229 152.295 68.9101C149.494 66.5958 146.692 64.2816 143.891 61.9673C149.481 64.9758 156.388 69.4704 163.221 76.1087C163.257 76.1452 163.294 76.1818 163.33 76.2183C169.14 81.87 172.539 89.5558 173.063 97.6435L181.747 230.458Z" fill="#7F3C3F"/>
</g>
</svg>
