<svg width="245" height="245" viewBox="0 0 245 245" fill="none" xmlns="http://www.w3.org/2000/svg">
<mask id="mask0" style="mask-type:alpha" maskUnits="userSpaceOnUse" x="0" y="0" width="245" height="245">
<circle cx="122.784" cy="122.066" r="122.066" fill="white"/>
</mask>
<g mask="url(#mask0)">
<circle cx="122.784" cy="122.066" r="122.066" fill="white"/>
<path d="M161.611 194.12C131.418 194.836 101.225 195.552 71.0312 196.28C77.6096 154.889 84.1759 113.509 90.7542 72.1166L150.83 71.8062C156.251 81.7393 161.969 94.7645 165.623 110.631C174.051 147.26 166.709 178.205 161.611 194.12Z" fill="#7F3C3F"/>
<path d="M206.609 245.23H39V216.887C39 191.624 59.487 171.137 84.7496 171.137H160.848C186.11 171.137 206.597 191.624 206.597 216.887V245.23H206.609Z" fill="#382D57"/>
<path d="M134.845 204.757H131.991C115.169 204.757 101.535 191.123 101.535 174.301V101.737C101.535 92.9141 108.687 85.7627 117.509 85.7627H118.87C127.693 85.7627 134.845 92.9141 134.845 101.737V204.757Z" fill="#F7A1B5"/>
<path d="M131.096 165.646L122.428 165.336C109.474 164.87 96.4609 156.047 92.6644 143.022L84.6773 115.61C76.4395 87.3271 90.9332 55.2713 120.518 56.9547C149.768 58.6261 164.978 91.8042 157.958 118.917L153.409 137.04C150.138 149.648 143.978 166.112 131.096 165.646Z" fill="#F7A1B5"/>
<path d="M110.836 118.259C113.193 117.924 114.785 115.408 114.391 112.64C113.998 109.872 111.769 107.9 109.412 108.235C107.055 108.57 105.463 111.085 105.857 113.853C106.25 116.621 108.48 118.594 110.836 118.259Z" fill="#382D57"/>
<path d="M144.167 113.466C144.448 110.684 142.757 108.235 140.388 107.996C138.02 107.756 135.873 109.817 135.591 112.599C135.31 115.38 137.002 117.829 139.37 118.068C141.738 118.308 143.886 116.247 144.167 113.466Z" fill="#382D57"/>
<path d="M136.814 137.757C136.85 139.679 133.244 145.636 128.671 145.708C124.087 145.78 120.267 139.954 120.231 138.019C120.195 136.097 123.98 139.989 128.552 139.918C133.125 139.846 136.778 135.823 136.814 137.757Z" fill="white"/>
<path d="M84.9757 130.772C89.6308 130.772 93.4045 125.705 93.4045 119.454C93.4045 113.203 89.6308 108.136 84.9757 108.136C80.3206 108.136 76.5469 113.203 76.5469 119.454C76.5469 125.705 80.3206 130.772 84.9757 130.772Z" fill="#F7A1B5"/>
<path d="M98.447 85.9778C95.6772 94.2992 93.6715 98.4539 89.1705 115.252C87.3319 122.105 90.3883 129.268 93.17 134.82C99.1753 146.782 101.862 154.925 107.079 167.245C120.952 200.03 111.604 235.751 109.538 235.87C108.476 235.942 106.971 223.716 105.539 223.859C104.369 223.979 104.715 231.751 103.688 231.87C102.972 231.954 98.9723 228.993 96.9069 219.084C95.4265 212.004 97.7068 203.993 97.7904 196.758C97.9336 184.067 90.7823 174.874 83.6667 173.943C76.6228 173.024 67.7881 177.155 64.7914 175.638C61.1262 173.776 74.3664 163.688 75.6558 137.9C75.9184 132.659 75.7154 128.504 75.3215 125.006C74.1156 114.524 72.9218 112.434 72.4084 106.465C71.2861 93.4276 76.7899 83.0408 78.7479 79.3517C80.3119 76.4148 88.7646 60.4645 97.074 61.9449C99.9871 62.4583 102.22 65.2759 103.545 67.9502C107.771 76.5103 102.267 74.5523 98.447 85.9778Z" fill="#7F3C3F"/>
<path d="M104.607 73.812C106.207 75.0179 110.111 72.069 117.549 71.8063C125.011 71.5437 125.381 74.3732 139.731 83.5183C141.033 84.3421 142.585 85.6793 144.232 87.2671C146.883 89.834 154.977 94.9199 155.419 117.962C155.885 142.58 139.469 195.17 143.815 220.003C145.438 229.292 150.321 235.392 151.443 235.559C152.399 235.715 153.903 224.671 157.294 224.468C160.075 224.301 162.176 231.536 163.144 231.25C163.848 231.047 163.693 226.952 160.063 210.297C162.953 217.102 164.803 220.397 165.615 220.158C166.379 219.932 155.885 203.42 160.063 185.655C160.995 181.691 162.32 179.089 163.144 177.334C170.892 160.87 173.709 136.646 172.074 117.866C170.987 105.343 168.576 77.6086 147.969 60.4883C143.838 57.0499 130.813 47.6302 118.17 50.5552C84.8964 58.2557 102.112 71.9138 104.607 73.812Z" fill="#7F3C3F"/>
</g>
</svg>
