<svg width="246" height="245" viewBox="0 0 246 245" fill="none" xmlns="http://www.w3.org/2000/svg">
<mask id="mask0" style="mask-type:alpha" maskUnits="userSpaceOnUse" x="0" y="0" width="246" height="245">
<circle cx="122.949" cy="122.066" r="122.066" fill="white"/>
</mask>
<g mask="url(#mask0)">
<circle cx="122.949" cy="122.066" r="122.066" fill="white"/>
<path d="M89.7244 89.4126C85.0836 123.769 89.2567 154.864 88.3334 179.003C87.7698 193.741 114.907 188.837 129.178 189.22C145.306 189.652 149.839 199.306 158.881 190.612C178.152 172.084 168.595 118.876 164.913 110.302C157.79 93.7057 149.648 74.7106 131.96 70.8493C111.058 66.2804 90.288 85.2155 89.7244 89.4126Z" fill="#7F3C3F"/>
<path d="M192.46 247.981H52V215.531C52 192.351 70.7912 173.547 93.9834 173.547H150.489C173.669 173.547 192.472 192.339 192.472 215.531V247.981H192.46Z" fill="#9397DE"/>
<path d="M122.234 198.502C114.295 198.502 107.855 192.063 107.855 184.124V88.3453C107.855 88.0455 108.095 87.8057 108.395 87.8057H136.06C136.36 87.8057 136.6 88.0455 136.6 88.3453V184.136C136.6 192.075 130.172 198.502 122.234 198.502Z" fill="#F7A1B5"/>
<path d="M122.532 167.407C104.916 167.407 89.3269 153.856 87.5521 135.521L85.7893 117.269C83.6068 94.6888 99.9396 74.3027 122.532 74.3027C145.125 74.3027 161.47 94.6888 159.275 117.269L157.512 135.521C155.738 153.856 140.148 167.407 122.532 167.407Z" fill="#F7A1B5"/>
<path d="M107.005 130.308C109.357 129.881 110.819 127.079 110.269 124.048C109.718 121.018 107.366 118.908 105.013 119.335C102.661 119.762 101.2 122.565 101.75 125.595C102.3 128.625 104.653 130.735 107.005 130.308Z" fill="#5EA88C"/>
<path d="M142.803 125.348C143.183 122.291 141.567 119.575 139.195 119.28C136.822 118.985 134.591 121.224 134.211 124.28C133.831 127.336 135.447 130.053 137.82 130.348C140.192 130.643 142.424 128.404 142.803 125.348Z" fill="#5EA88C"/>
<path d="M134.9 143.771C132.729 146.05 129.671 155.224 123.22 155.224C116.768 155.224 113.542 145.75 111.54 143.771C110.161 142.416 116.768 148.208 123.22 148.208C129.671 148.208 136.231 142.356 134.9 143.771Z" fill="white"/>
<path d="M80.2775 134.898C77.9631 147.297 70.2283 177.624 77.9511 200.817C82.5679 214.691 81.5126 222.714 82.2921 222.81C85.7697 223.229 84.0909 218.984 87.8683 212.293C89.703 209.019 94.7036 215.195 96.5384 213.216C99.5843 209.93 102.726 195.732 92.8209 170.645C86.7651 155.332 88.6598 154.528 87.7004 143.711C87.5445 141.925 88.8276 125.004 89.1035 117.27L83.6832 117.737C84.0669 123.973 81.5366 128.158 80.2775 134.898Z" fill="#7F3C3F"/>
<path d="M172.347 121.443C170.141 90.9835 169.901 87.4219 166.123 85.2394C164.049 84.0402 165.2 78.2722 159.624 75.9577C157.573 75.1063 153.448 66.0525 146.817 63.894C142.835 62.5989 141.96 64.7094 136.144 63.4263C130.448 62.1791 129.057 61.1358 125.315 61.0159C120.806 60.872 120.183 61.6515 113.395 65.4769C106.536 69.3502 102.89 65.8486 97.9978 69.3862C81.8329 81.0662 82.1327 101.992 82.2885 104.738C82.5644 109.535 83.104 109.595 83.6796 117.737C83.6916 117.905 85.5263 117.821 85.5383 117.965L89.016 120.987C89.0879 119.032 89.7475 114.092 89.7115 111.705C89.4836 97.3152 91.5702 113.912 98.5255 98.7902C102.279 90.6357 100.384 89.3166 107.339 89.3166C110.194 89.3166 116.693 93.0701 124.512 93.142C140.917 93.2859 155.151 81.5339 153.292 101.5C153.208 102.424 154.18 105.374 156.074 108.923C158.305 113.096 161.602 115.279 161.65 116.346C162.43 135.533 150.138 181.402 149.587 185.047C148.723 190.743 150.51 212.904 161.65 219.86C162.31 220.267 163.041 212.437 167.682 215.686C171.831 218.588 171.424 197.147 171.855 197.123C173.067 197.027 172.407 178.728 172.323 161.375C172.227 136.624 173.378 135.641 172.347 121.443Z" fill="#7F3C3F"/>
</g>
</svg>
