<svg width="245" height="245" viewBox="0 0 245 245" fill="none" xmlns="http://www.w3.org/2000/svg">
<mask id="mask0" style="mask-type:alpha" maskUnits="userSpaceOnUse" x="0" y="0" width="245" height="245">
<circle cx="122.156" cy="122.066" r="122.066" fill="white"/>
</mask>
<g mask="url(#mask0)">
<circle cx="122.156" cy="122.066" r="122.066" fill="white"/>
<path d="M127.441 56.9286C135.107 52.6994 147.553 59.7615 154.468 65.7628C172.324 81.2429 179.413 112.19 175.251 138.008C173.197 150.749 169.048 158.187 173.693 166.592C177.359 173.211 182.555 173.331 193.967 186.865C196.222 189.536 199.699 193.886 201.767 200.371C202.022 201.19 205.137 211.152 202.291 212.844C198.881 214.858 189.093 203.741 188.261 204.533C187.254 205.486 203.11 220.671 200.21 225.317C198.129 228.66 187.16 225.249 182.018 223.759C137.041 210.696 123.776 224.404 110.82 212.844C89.9023 194.168 122.098 156.254 120.178 83.955C119.99 76.9332 119.251 61.4397 127.441 56.9286Z" fill="#EDCC24"/>
<path d="M143.556 121.628C143.556 155.475 125.579 195.081 103.278 197.243C94.9675 198.049 85.5022 193.725 80.1453 187.375C73.3652 179.319 76.4397 171.895 72.3448 152.038C68.2768 132.302 64.1013 134.181 62.987 121.628C61.2684 102.174 70.5055 86.5463 76.4934 75.631C84.4147 61.2384 92.4971 46.5102 103.278 46.0134C121.363 45.1676 143.556 84.4653 143.556 121.628Z" fill="#EDCC24"/>
<path d="M197.259 212.67C197.259 189.255 180.141 169.855 157.746 166.27L121.926 249.001H197.259V212.67Z" fill="#EE5E60"/>
<path d="M40 212.67V249.001H115.991L80.1301 166.176C57.4269 169.506 40 189.054 40 212.67Z" fill="#EE5E60"/>
<path d="M150.264 165.679H87.0013C84.6652 165.679 82.3828 165.854 80.1406 166.189L115.988 249H121.922L157.742 166.283C155.312 165.881 152.815 165.679 150.264 165.679Z" fill="#E2E5F2"/>
<path d="M118.633 193.618C109.745 193.618 102.535 186.408 102.535 177.52V70.2741C102.535 69.9384 102.804 69.6699 103.139 69.6699H134.113C134.449 69.6699 134.717 69.9384 134.717 70.2741V177.52C134.717 186.408 127.521 193.618 118.633 193.618Z" fill="#F7A1B5"/>
<path d="M118.969 158.791C99.2465 158.791 81.7928 145.03 79.8058 126.394L77.8322 107.853C75.3887 84.9083 93.6748 64.2056 118.969 64.2056C144.264 64.2056 162.563 84.9083 160.106 107.853L158.133 126.394C156.146 145.03 138.692 158.791 118.969 158.791Z" fill="#F7A1B5"/>
<path d="M101.585 117.255C104.218 116.777 105.854 113.64 105.238 110.247C104.623 106.855 101.988 104.492 99.3547 104.97C96.721 105.448 95.0851 108.586 95.7009 111.978C96.3168 115.371 98.951 117.733 101.585 117.255Z" fill="#5EA88C"/>
<path d="M141.659 111.705C142.084 108.283 140.275 105.242 137.619 104.912C134.963 104.582 132.464 107.088 132.039 110.51C131.614 113.932 133.423 116.973 136.079 117.303C138.736 117.633 141.234 115.127 141.659 111.705Z" fill="#5EA88C"/>
<path d="M132.813 132.329C130.383 134.88 126.959 142.465 119.736 142.465C112.513 142.465 108.901 134.544 106.659 132.329C105.115 130.811 112.513 134.611 119.736 134.611C126.959 134.611 134.303 130.758 132.813 132.329Z" fill="white"/>
<path d="M114.971 70.4351C112.245 71.187 106.794 66.2328 105.103 68.3541C98.8595 76.1546 101.759 91.5138 88.9914 117.211C87.0447 121.118 77.4317 140.478 69.2419 139.042C62.4215 137.833 57.5076 122.34 59.884 109.424C61.4817 100.751 64.9859 100.711 73.9141 83.955C82.2382 68.3273 81.54 63.937 88.9914 56.405C90.8442 54.5388 101.491 43.7713 108.741 47.0472C112.728 48.8463 114.031 54.1226 114.46 55.8814C115.776 61.2518 117.763 69.6699 114.971 70.4351Z" fill="#EDCC24"/>
<path d="M119.075 69.9251C122.23 72.0598 125.17 69.0121 130.044 69.4015C139.872 70.1936 150.398 84.3445 149.793 96.9515C149.297 107.276 145.39 109.961 145.631 119.306C145.94 130.771 157.178 145.607 164.857 144.251C171.678 143.043 173.423 123.387 171.033 110.471C169.435 101.798 165.931 101.758 157.003 85.0024C148.679 69.3746 149.377 64.9844 141.926 57.4524C140.073 55.5862 129.426 44.8186 122.176 48.0945C118.189 49.8936 116.886 55.17 116.457 56.9288C115.504 60.8357 115.436 67.4682 119.075 69.9251Z" fill="#EDCC24"/>
</g>
</svg>
