<svg width="60" height="60" viewBox="0 0 60 60" fill="none" xmlns="http://www.w3.org/2000/svg">
<rect x="18.9102" y="34.3149" width="24.7156" height="24.7156" transform="rotate(-60 18.9102 34.3149)" fill="#F2BE2A" fill-opacity="0.5"/>
<rect x="18.9102" y="14.5044" width="14.3364" height="14.3364" transform="rotate(-60 18.9102 14.5044)" fill="#33CCFF" fill-opacity="0.5"/>
<rect width="8.03981" height="8.03981" transform="matrix(-0.5 0.866025 0.866025 0.5 21.9297 20.6904)" fill="#18EADF" fill-opacity="0.8"/>
<path d="M47.0927 48.5066H45.2616V33.6012C45.2616 32.9359 44.7183 32.3927 44.053 32.3927H16.0123C15.347 32.3927 14.8038 32.9359 14.8038 33.6012V48.5066H12.9727V33.6012C12.9727 31.9227 14.3399 30.5615 16.0123 30.5615H44.053C45.7316 30.5615 47.0927 31.9288 47.0927 33.6012V48.5066Z" fill="#2096FF"/>
<path d="M30.9483 23.9326H29.1172V30.9397H30.9483V23.9326Z" fill="#2096FF"/>
<path d="M30.0337 13.8311C32.3165 13.8311 34.1659 15.6867 34.1659 17.9634C34.1659 20.2401 32.3104 22.0956 30.0337 22.0956C27.757 22.0956 25.9014 20.2401 25.9014 17.9634C25.9014 15.6867 27.7509 13.8311 30.0337 13.8311ZM30.0337 12C26.7377 12 24.0703 14.6734 24.0703 17.9634C24.0703 21.2594 26.7438 23.9268 30.0337 23.9268C33.3236 23.9268 35.9971 21.2533 35.9971 17.9634C35.9971 14.6734 33.3236 12 30.0337 12Z" fill="#2096FF"/>
<path d="M13.9634 49.9044C16.2462 49.9044 18.0956 51.7599 18.0956 54.0366C18.0956 56.3133 16.2401 58.1689 13.9634 58.1689C11.6867 58.1689 9.83113 56.3133 9.83113 54.0366C9.83113 51.7599 11.6867 49.9044 13.9634 49.9044ZM13.9634 48.0732C10.6673 48.0732 8 50.7467 8 54.0366C8 57.3266 10.6734 60 13.9634 60C17.2533 60 19.9268 57.3266 19.9268 54.0366C19.9268 50.7467 17.2594 48.0732 13.9634 48.0732Z" fill="#2096FF"/>
<path d="M45.979 59.8843C49.2725 59.8843 51.9424 57.2144 51.9424 53.9209C51.9424 50.6274 49.2725 47.9575 45.979 47.9575C42.6855 47.9575 40.0156 50.6274 40.0156 53.9209C40.0156 57.2144 42.6855 59.8843 45.979 59.8843Z" fill="#2096FF"/>
</svg>
