<svg width="36" height="36" viewBox="0 0 36 36" fill="none" xmlns="http://www.w3.org/2000/svg">
<path d="M1.97459 1.97363C1.92059 2.03063 1.87784 2.09813 1.84859 2.17163C1.78484 2.31713 1.78484 2.48213 1.84859 2.62763C1.87634 2.70188 1.91909 2.76938 1.97459 2.82563C2.21084 3.05738 2.59034 3.05738 2.82659 2.82563C3.05834 2.58938 3.05834 2.20988 2.82659 1.97363C2.58584 1.75163 2.21534 1.75163 1.97459 1.97363Z" fill="#33CCFF"/>
<path d="M3.97337 1.84758C3.89912 1.87533 3.83162 1.91808 3.77537 1.97358C3.54362 2.20983 3.54362 2.58933 3.77537 2.82558C4.00863 3.06108 4.38888 3.06258 4.62363 2.82933C4.73838 2.71608 4.80213 2.56083 4.80138 2.39958C4.79913 2.24058 4.73688 2.08833 4.62738 1.97358C4.45338 1.80558 4.19687 1.75608 3.97337 1.84758Z" fill="#33CCFF"/>
<path d="M5.77025 1.84769C5.69675 1.87694 5.62925 1.91969 5.57225 1.97369C5.3405 2.20994 5.3405 2.58944 5.57225 2.82569C5.63075 2.87894 5.6975 2.92094 5.77025 2.95169C5.84225 2.98244 5.9195 2.99894 5.99825 2.99969C6.326 3.00269 6.59525 2.73944 6.59825 2.41169C6.59825 2.40794 6.59825 2.40344 6.59825 2.39969C6.596 2.24069 6.53375 2.08844 6.42425 1.97369C6.24875 1.80869 5.9945 1.75994 5.77025 1.84769Z" fill="#33CCFF"/>
<path d="M7.95078 10.2002H16.0508C16.1333 10.2002 16.2008 10.2677 16.2008 10.3502V11.2502C16.2008 11.3327 16.1333 11.4002 16.0508 11.4002H7.95078C7.86828 11.4002 7.80078 11.3327 7.80078 11.2502V10.3502C7.80078 10.2677 7.86828 10.2002 7.95078 10.2002Z" fill="#33CCFF"/>
<path d="M7.95078 13.7988H16.0508C16.1333 13.7988 16.2008 13.8663 16.2008 13.9488V14.8488C16.2008 14.9313 16.1333 14.9988 16.0508 14.9988H7.95078C7.86828 14.9988 7.80078 14.9313 7.80078 14.8488V13.9488C7.80078 13.8663 7.86828 13.7988 7.95078 13.7988Z" fill="#33CCFF"/>
<path d="M7.95078 17.3999H19.0508C19.1333 17.3999 19.2008 17.4674 19.2008 17.5499V18.4499C19.2008 18.5324 19.1333 18.5999 19.0508 18.5999H7.95078C7.86828 18.5999 7.80078 18.5324 7.80078 18.4499V17.5499C7.80078 17.4674 7.86828 17.3999 7.95078 17.3999Z" fill="#33CCFF"/>
<path d="M7.95078 21H15.4508C15.5333 21 15.6008 21.0675 15.6008 21.15V22.05C15.6008 22.1325 15.5333 22.2 15.4508 22.2H7.95078C7.86828 22.2 7.80078 22.1325 7.80078 22.05V21.15C7.80078 21.0675 7.86828 21 7.95078 21Z" fill="#33CCFF"/>
<path d="M7.95078 24.5986H12.4508C12.5333 24.5986 12.6008 24.6661 12.6008 24.7486V25.6486C12.6008 25.7311 12.5333 25.7986 12.4508 25.7986H7.95078C7.86828 25.7986 7.80078 25.7311 7.80078 25.6486V24.7486C7.80078 24.6661 7.86828 24.5986 7.95078 24.5986Z" fill="#33CCFF"/>
<path d="M7.95078 28.2002H11.2508C11.3333 28.2002 11.4008 28.2677 11.4008 28.3502V29.2502C11.4008 29.3327 11.3333 29.4002 11.2508 29.4002H7.95078C7.86828 29.4002 7.80078 29.3327 7.80078 29.2502V28.3502C7.80078 28.2677 7.86828 28.2002 7.95078 28.2002Z" fill="#33CCFF"/>
<path d="M33.7028 7.2C33.093 7.1985 32.508 7.44075 32.0783 7.8735L30 9.95175V1.8C30 0.80625 29.1938 0 28.2 0H1.8C0.80625 0 0 0.80625 0 1.8V34.2C0 35.1938 0.80625 36 1.8 36H28.2C29.1938 36 30 35.1938 30 34.2V16.4482L35.3265 11.1217C36.2235 10.2255 36.2243 8.77125 35.328 7.8735C34.8975 7.44225 34.3125 7.2 33.7028 7.2ZM1.2 1.8C1.2 1.4685 1.4685 1.2 1.8 1.2H28.2C28.5315 1.2 28.8 1.4685 28.8 1.8V3.6H1.2V1.8ZM28.8 34.2C28.8 34.5315 28.5315 34.8 28.2 34.8H1.8C1.4685 34.8 1.2 34.5315 1.2 34.2V4.8H28.8V11.1518L25.2 14.7518V12.9518L18.8483 6.6H4.8V33H25.2V21.2483L28.8 17.6483V34.2ZM14.4757 25.476L12.8513 30.3488L17.724 28.7243L19.4482 27L24 22.4482V31.8H6V7.8H18V13.8H24V15.9518L16.2 23.7518L14.4757 25.476ZM16.2 25.4483L17.7518 27L17.076 27.6758L14.7487 28.4513L15.5243 26.124L16.2 25.4483ZM19.2 8.64825L23.1518 12.6H19.2V8.64825ZM18.6 26.1518L17.0483 24.6L31.2 10.4482L32.7518 12L18.6 26.1518ZM34.4783 10.2735L33.6 11.1518L32.0483 9.6L32.9265 8.72175C33.3457 8.28375 34.0402 8.2695 34.4783 8.68875C34.9163 9.108 34.9305 9.8025 34.5112 10.2405C34.5008 10.251 34.4895 10.2622 34.4783 10.2735Z" fill="#33CCFF"/>
</svg>
