<svg width="36" height="36" viewBox="0 0 36 36" fill="none" xmlns="http://www.w3.org/2000/svg">
<path d="M35.9503 7.16427C35.8368 6.83105 35.5493 6.59574 35.2005 6.54995L32.5467 6.20404C32.9568 5.4446 32.8413 4.4738 32.2007 3.83341C31.8216 3.4544 31.3185 3.24586 30.7829 3.24586C30.7822 3.24586 30.7815 3.24586 30.7815 3.24586C30.4672 3.24586 30.1649 3.31843 29.8915 3.4544L29.5455 0.799854C29.4997 0.450424 29.2644 0.16299 28.931 0.0495657C28.5977 -0.0638582 28.2355 0.0206814 27.9868 0.269368L24.2041 4.0511C23.9962 4.25893 23.9004 4.55552 23.9469 4.84507L24.5593 8.65287L24.3845 8.82829C21.7497 6.79723 18.5378 5.69681 15.1554 5.69681C11.9773 5.69681 8.93455 6.66972 6.35685 8.51056C6.11938 8.68035 6.06441 9.00935 6.23424 9.24676C6.40407 9.48418 6.73315 9.53913 6.97062 9.36934C9.36792 7.65742 12.1986 6.75214 15.1554 6.75214C18.3321 6.75214 21.2663 7.80888 23.6263 9.58774L21.4834 11.7372C19.6871 10.486 17.5055 9.75118 15.1554 9.75118C9.03532 9.75118 4.0568 14.7284 4.0568 20.847C4.0568 26.9655 9.03532 31.9428 15.1554 31.9428C21.2755 31.9428 26.254 26.9655 26.254 20.847C26.254 18.5243 25.5359 16.3664 24.3105 14.5826L26.4569 12.4297C28.213 14.7806 29.2545 17.6944 29.2545 20.847C29.2545 28.619 22.9301 34.9426 15.1554 34.9426C7.38074 34.9426 1.0563 28.6211 1.0563 20.8491C1.0563 17.3731 2.33247 14.0352 4.64943 11.4483C4.84392 11.2313 4.8256 10.8974 4.60856 10.703C4.39152 10.5085 4.05751 10.5268 3.86302 10.7438C1.372 13.5238 0 17.1125 0 20.8491C0 24.8964 1.57635 28.7007 4.43873 31.5624C7.30111 34.424 11.1071 36 15.1547 36C19.2023 36 23.0083 34.424 25.8707 31.5624C28.733 28.7007 30.3094 24.8957 30.3094 20.8491C30.3094 17.4887 29.2214 14.2959 27.2138 11.6709L27.3476 11.5364L31.1522 12.1479C31.2008 12.1556 31.2487 12.1591 31.2973 12.1591C31.5383 12.1591 31.7737 12.0633 31.947 11.8907L32.7588 11.0792C32.9653 10.8727 32.9653 10.5388 32.7588 10.3324C32.5524 10.1267 32.2183 10.1267 32.0119 10.3324L31.2501 11.094L28.2813 10.617L31.7363 7.16286L34.7848 7.5602L34.3267 8.01812C34.121 8.22454 34.121 8.55847 34.3267 8.76489C34.5332 8.9706 34.8672 8.9706 35.0737 8.76489L35.7304 8.1083C35.9799 7.85961 36.0637 7.4982 35.9503 7.16427ZM28.5343 1.2148L28.9325 4.26245L25.4774 7.7166L25.0004 4.74855L28.5343 1.2148ZM25.1977 20.8491C25.1977 26.385 20.6927 30.8889 15.1554 30.8889C9.61808 30.8889 5.1124 26.385 5.1124 20.8491C5.1124 15.3132 9.61737 10.8093 15.1547 10.8093C17.2137 10.8093 19.1298 11.4321 20.7251 12.4994L18.5336 14.6982C17.5308 14.1451 16.3794 13.8288 15.1547 13.8288C11.2825 13.8288 8.13263 16.9786 8.13263 20.8491C8.13263 24.7196 11.2825 27.8694 15.1547 27.8694C19.0269 27.8694 22.1768 24.7196 22.1768 20.8491C22.1768 19.6578 21.8773 18.5355 21.3516 17.5514L23.5509 15.3456C24.5917 16.9272 25.1977 18.818 25.1977 20.8491ZM14.1731 21.9066C14.5522 22.2856 15.056 22.4941 15.5916 22.4941H15.593C16.1293 22.4941 16.6331 22.2849 17.0122 21.9044L17.7606 21.1542C17.6091 22.4575 16.4985 23.4719 15.1554 23.4719C13.7087 23.4719 12.5319 22.2954 12.5319 20.8491C12.5319 19.4507 13.6319 18.3045 15.0123 18.2298L14.1717 19.0724C13.3916 19.8544 13.3923 21.126 14.1731 21.9066ZM11.4756 20.8491C11.4756 22.8774 13.1266 24.528 15.1554 24.528C17.1842 24.528 18.8352 22.8781 18.8352 20.8491C18.8352 20.6082 18.8112 20.3736 18.7668 20.1453L20.5666 18.3397C20.9224 19.1027 21.1219 19.953 21.1219 20.8491C21.1219 24.1377 18.4455 26.8134 15.1554 26.8134C11.8653 26.8134 9.18964 24.1377 9.18964 20.8491C9.18964 17.5598 11.866 14.8841 15.1554 14.8841C16.0863 14.8841 16.9671 15.099 17.7528 15.4808L15.9756 17.2632C15.7121 17.2026 15.4373 17.1695 15.1554 17.1695C13.1259 17.1702 11.4756 18.8202 11.4756 20.8491ZM16.2646 21.1591C16.0849 21.3387 15.8467 21.4381 15.5923 21.4381H15.5916C15.3379 21.4381 15.099 21.3394 14.92 21.1598C14.5508 20.7899 14.5501 20.1883 14.9193 19.8184L30.1107 4.58088C30.2904 4.40124 30.5285 4.3019 30.7822 4.3019H30.7829C31.0366 4.3019 31.2748 4.40053 31.4545 4.58018C31.8244 4.95004 31.8251 5.55168 31.4552 5.92154L16.2646 21.1591Z" fill="#2096FF"/>
</svg>
