<svg width="240" height="240" viewBox="0 0 240 240" fill="none" xmlns="http://www.w3.org/2000/svg">
<path d="M216.233 47.7001H35.504C27.4126 47.7001 20.8555 54.2572 20.8555 62.3486V186.72V236.692L50.3412 201.369H216.224C224.315 201.369 230.873 194.811 230.873 186.72V62.3486C230.881 54.2572 224.324 47.7001 216.233 47.7001Z" fill="#FFD365"/>
<path opacity="0.8" d="M123.495 146.519L115.434 138.458L107.373 146.519L115.434 154.58L123.495 146.519Z" fill="#18EADF"/>
<path opacity="0.8" d="M118.332 127.869L106.531 116.069L94.7308 127.869L106.531 139.67L118.332 127.869Z" fill="#2096FF"/>
<path opacity="0.8" d="M126.63 146.729L122.902 143.001L119.175 146.729L122.902 150.456L126.63 146.729Z" fill="#33CCFF"/>
<path d="M214.99 131.906H209.71L196.758 138.42L190.647 131.906H180.961C177.927 131.906 175.064 133.277 173.161 135.643C170.693 140.846 171.267 146.983 174.67 151.629L181.407 160.851H205.518V163.483V163.603V165.463H184.253H174.61H174.558L204.644 185.031C204.644 185.031 208.467 171.489 209.753 167.1L215.633 170.186C220.133 171.917 224.975 168.591 224.975 163.774V141.9C224.993 136.38 220.518 131.906 214.99 131.906Z" fill="#F3F3F3"/>
<path d="M65.5614 177.043C64.67 177.043 63.9414 177.771 63.9414 178.663V201.369H71.7586V188.074L67.0271 177.977C66.7614 177.403 66.1871 177.043 65.5614 177.043Z" fill="#FF83AB"/>
<path d="M108.214 186.446L97.7314 182.649C97.14 182.434 96.48 182.58 96.0343 183.026C95.4 183.66 95.4 184.68 96.0343 185.314L97.9372 187.217L112.097 201.377L117.626 195.849L108.626 186.857L108.214 186.446Z" fill="#FF83AB"/>
<path d="M71.75 188.074V201.369H112.087L97.9271 187.209L71.75 188.074Z" fill="#8678E4"/>
<path d="M204.657 185.04L174.571 165.471L159.382 155.597C158.491 155.014 157.548 154.56 156.58 154.191C151.685 152.357 146.08 153.283 142.025 156.831L134.568 163.371L108.211 186.446L108.622 186.857L117.605 195.84L112.077 201.369H184.145H193.771C201.64 201.369 207.28 193.774 205.008 186.249L204.657 185.04ZM130.565 186.129L147.417 173.494L162.674 185.074L130.565 186.129Z" fill="#8678E4"/>
<path d="M205.534 160.86H181.423L166.029 135.883L166.011 135.849H117.617L134.571 163.371L142.037 156.84C146.091 153.291 151.697 152.366 156.591 154.2C157.56 154.56 158.494 155.023 159.394 155.606L174.583 165.48H174.634H184.277H205.543V160.86H205.534Z" fill="#3C3E87"/>
<path d="M197.264 160.86L199.784 153.266L194.067 151.26C192.996 150.883 191.813 151.046 190.887 151.697L188.084 153.669C187.15 154.329 186.602 155.391 186.602 156.531V157.354C186.602 159.291 188.17 160.851 190.099 160.851H197.264V160.86Z" fill="#FF83AB"/>
<path d="M201.19 117.686C202.425 117.154 203.17 115.826 202.913 114.446C202.656 113.057 201.473 112.089 200.119 112.037H200.102C199.896 112.029 199.682 112.046 199.468 112.08C198.448 112.269 197.65 112.963 197.282 113.854L196.853 111.54L193.03 109.294L192.979 109.303L183.422 111.069L185.71 123.429C186.07 125.383 188.153 126.489 189.97 125.691L193.39 124.089L194.505 130.123L194.865 132.086L196.15 139.054L203.848 132.086L201.19 117.686Z" fill="#FF83AB"/>
<path d="M194.863 132.094L194.503 130.131L189.617 132.094L196.157 139.063L194.863 132.094Z" fill="#8678E4"/>
<path d="M210.008 132.094L203.356 129.429L203.853 132.094L196.156 139.063L210.008 132.094Z" fill="#8678E4"/>
<path d="M186.26 120.189C186.114 120.986 186.585 123.086 188.017 123.077C189.448 123.069 191.3 120.952 191.445 120.154C191.591 119.357 189.971 120.197 188.54 120.206C187.108 120.214 186.405 119.4 186.26 120.189Z" fill="white"/>
<path d="M190.842 115.209C191.273 115.209 191.622 114.629 191.622 113.914C191.622 113.199 191.273 112.62 190.842 112.62C190.412 112.62 190.062 113.199 190.062 113.914C190.062 114.629 190.412 115.209 190.842 115.209Z" fill="#3C3E87"/>
<path d="M185.823 116.357C186.254 116.357 186.603 115.778 186.603 115.063C186.603 114.348 186.254 113.769 185.823 113.769C185.392 113.769 185.043 114.348 185.043 115.063C185.043 115.778 185.392 116.357 185.823 116.357Z" fill="#3C3E87"/>
<path d="M196.854 111.54L197.283 113.854C197.651 112.963 198.448 112.269 199.468 112.08C199.683 112.037 199.897 112.029 200.103 112.037L199.383 108.12L193.031 109.294L196.854 111.54Z" fill="#6C609A"/>
<path d="M183.421 111.069L192.978 109.303L193.03 109.294L199.381 108.12C198.276 102.137 194.178 101.957 189.173 103.011C184.167 104.066 180.164 103.457 180.164 103.457C178.561 107.734 183.421 111.069 183.421 111.069Z" fill="#3C3E87"/>
<path d="M7.44857 23.5801H110.16C114.274 23.5801 117.609 26.9144 117.609 31.0287V94.2944V119.717L102.609 101.743H7.44857C3.33429 101.743 0 98.4087 0 94.2944V31.0287C0 26.9144 3.33429 23.5801 7.44857 23.5801Z" fill="#83D2C1"/>
<path d="M43.9289 101.752V97.6887H63.506L68.8889 71.6573H71.2889L71.1517 71.2373C69.9089 67.303 66.2489 64.6201 62.1174 64.6201H52.2346V70.2258L43.9374 64.6201H35.6232C31.5003 64.6201 27.8574 67.2858 26.5974 71.203L19.106 94.6373C17.9832 98.1601 20.606 101.752 24.3003 101.752H35.0574H29.1689H43.9289Z" fill="#8678E4"/>
<path d="M49.5264 44.1172C49.5264 44.1172 48.8322 46.9543 46.6036 48.5572C46.1064 48.24 45.5236 48.0515 44.8893 48.0515C44.5807 48.0515 44.2979 48.1115 44.015 48.1886C42.6693 48.5743 41.6836 49.7915 41.6836 51.2572C41.6836 52.7229 42.6693 53.9486 44.015 54.3258V58.7572L44.0236 64.7229L53.255 70.9629V64.7229V59.3229L57.0522 60.3172C59.0664 60.78 60.9865 59.2543 60.9865 57.1886V49.5772C60.9865 49.5858 54.0607 49.5943 49.5264 44.1172Z" fill="#FF83AB"/>
<path d="M50.084 38.083C47.1611 38.083 44.2125 39.2145 42.1125 41.3145C41.2125 40.123 40.2182 38.9916 39.0954 38.0145C36.5068 35.7516 32.984 34.303 30.164 37.063C29.4268 37.783 28.9468 38.7345 28.244 39.4973C27.2154 40.6116 25.7154 41.263 24.1982 41.2545C22.7582 41.2459 21.3954 40.6802 19.9725 40.4488C16.364 39.8573 12.4725 41.6916 10.6297 44.8545C9.54967 46.7145 9.16396 49.0888 10.0811 51.0345C11.4697 54.0088 15.4125 55.0288 18.5754 54.1716C21.7468 53.3145 24.3097 51.0602 26.7611 48.8745C29.2125 46.6888 31.7925 44.443 34.9725 43.6202C36.7297 43.1573 38.5982 43.2002 40.3554 43.6802C39.5925 45.1116 39.1382 46.783 39.1382 48.703C39.1382 55.4488 44.0154 58.7659 44.0154 58.7659V54.3345C42.6697 53.9488 41.684 52.7316 41.684 51.2659C41.684 49.8002 42.6697 48.5745 44.0154 48.1973C44.2982 48.1202 44.5811 48.0602 44.8897 48.0602C45.524 48.0602 46.1068 48.2488 46.604 48.5659C48.8411 46.963 49.5268 44.1259 49.5268 44.1259C54.0611 49.603 60.9868 49.5945 60.9868 49.5945C63.1297 40.4059 55.5011 38.083 50.084 38.083Z" fill="#3C3E87"/>
<path d="M59.9247 55.5773C60.079 56.4001 59.5904 58.5944 58.099 58.5858C56.6076 58.5773 54.6876 56.3744 54.5333 55.543C54.379 54.7201 56.0676 55.5858 57.5504 55.5944C59.0419 55.603 59.779 54.7458 59.9247 55.5773Z" fill="white"/>
<path d="M53.4151 52.3972C53.8601 52.3972 54.2208 51.7947 54.2208 51.0515C54.2208 50.3083 53.8601 49.7058 53.4151 49.7058C52.9701 49.7058 52.6094 50.3083 52.6094 51.0515C52.6094 51.7947 52.9701 52.3972 53.4151 52.3972Z" fill="#3C3E87"/>
<path d="M59.2276 52.7058C59.6726 52.7058 60.0333 52.1033 60.0333 51.3601C60.0333 50.6169 59.6726 50.0144 59.2276 50.0144C58.7826 50.0144 58.4219 50.6169 58.4219 51.3601C58.4219 52.1033 58.7826 52.7058 59.2276 52.7058Z" fill="#3C3E87"/>
<path d="M68.8897 71.6487L63.5068 97.6887H43.9297V101.752H62.6668H71.1611H105.293L111.515 71.6487H68.8897Z" fill="#3C3E87"/>
<path d="M43.9266 97.6886H51.9323C52.978 97.6886 53.8266 96.84 53.8266 95.7943V94.26C53.8266 92.82 53.0638 91.5 51.8295 90.7714L49.8409 89.6057C48.4266 88.7743 46.7038 88.6457 45.1866 89.2629L41.8438 90.6086L43.9266 97.6886Z" fill="#FF83AB"/>
<g opacity="0.15">
<path opacity="0.15" d="M34.7088 90.8145L31.6917 90.5573C31.4088 90.5316 31.2203 90.2573 31.306 89.9831L35.1631 77.3916C35.2317 77.1602 35.4803 77.0231 35.7203 77.1002C35.9174 77.1602 36.046 77.3488 36.0374 77.5545L35.1974 90.4116C35.1803 90.6516 34.9574 90.8316 34.7088 90.8145Z" fill="#3C3E87"/>
</g>
<path d="M90.2662 86.7001C90.2662 88.4573 88.8434 89.8801 87.0862 89.8801C85.3291 89.8801 83.9062 88.4573 83.9062 86.7001C83.9062 84.943 85.3291 83.5201 87.0862 83.5201C88.8434 83.5201 90.2662 84.943 90.2662 86.7001Z" fill="#FFD365"/>
<path d="M144.289 114.797H143.492C143.492 89.1171 164.389 68.22 190.069 68.22C205.532 68.22 219.949 75.8657 228.641 88.68L227.981 89.1257C219.435 76.5343 205.266 69.0085 190.061 69.0085C164.826 69.0085 144.289 89.5457 144.289 114.797Z" fill="#3C3E87"/>
<path d="M143.906 119.22C150.651 119.22 156.12 113.751 156.12 107.006C156.12 100.26 150.651 94.7914 143.906 94.7914C137.16 94.7914 131.691 100.26 131.691 107.006C131.691 113.751 137.16 119.22 143.906 119.22Z" fill="#73A7F6"/>
<path d="M189.355 78.2134C194.125 73.4435 194.125 65.7099 189.355 60.9399C184.586 56.17 176.852 56.17 172.082 60.9399C167.312 65.7099 167.312 73.4435 172.082 78.2134C176.852 82.9833 184.586 82.9833 189.355 78.2134Z" fill="#73A7F6"/>
<path d="M227.785 101.04C234.53 101.04 239.999 95.5715 239.999 88.8257C239.999 82.08 234.53 76.6115 227.785 76.6115C221.039 76.6115 215.57 82.08 215.57 88.8257C215.57 95.5715 221.039 101.04 227.785 101.04Z" fill="#73A7F6"/>
<path d="M143.906 99.9515C140.014 99.9515 136.852 103.114 136.852 107.006C136.852 110.897 140.014 114.06 143.906 114.06C147.797 114.06 150.96 110.897 150.96 107.006C150.96 103.114 147.797 99.9515 143.906 99.9515ZM140.974 107.006C140.974 106.329 141.06 105.703 141.206 105.129H143.512V108.874H141.206C141.06 108.309 140.974 107.692 140.974 107.006ZM146.374 104.34H144.3V101.194C144.917 101.769 145.826 102.814 146.374 104.34ZM143.512 101.194V104.34H141.437C141.986 102.814 142.903 101.769 143.512 101.194ZM143.512 109.68V112.826C142.903 112.252 141.986 111.206 141.437 109.68H143.512ZM144.3 112.826V109.68H146.374C145.826 111.206 144.917 112.252 144.3 112.826ZM144.3 108.883V105.137H146.606C146.743 105.712 146.837 106.329 146.837 107.014C146.837 107.692 146.752 108.317 146.606 108.892H144.3V108.883ZM147.429 105.137H149.88C150.069 105.729 150.172 106.363 150.172 107.014C150.172 107.666 150.069 108.3 149.88 108.892H147.429C147.549 108.317 147.634 107.692 147.634 107.014C147.634 106.337 147.557 105.712 147.429 105.137ZM149.563 104.34H147.223C146.709 102.729 145.817 101.572 145.114 100.869C147.086 101.254 148.723 102.574 149.563 104.34ZM142.697 100.869C141.994 101.572 141.103 102.729 140.589 104.34H138.249C139.089 102.574 140.726 101.254 142.697 100.869ZM137.932 105.137H140.383C140.263 105.712 140.177 106.337 140.177 107.014C140.177 107.692 140.254 108.309 140.383 108.892H137.932C137.743 108.3 137.649 107.666 137.649 107.014C137.649 106.363 137.743 105.729 137.932 105.137ZM138.249 109.68H140.589C141.103 111.292 141.994 112.449 142.697 113.152C140.726 112.766 139.089 111.446 138.249 109.68ZM145.114 113.152C145.817 112.449 146.709 111.292 147.223 109.68H149.563C148.723 111.446 147.086 112.766 145.114 113.152Z" fill="#F3F3F3"/>
<path d="M185.395 66.5402L182.695 65.8802V64.0116C182.695 62.6659 181.597 61.5687 180.243 61.5687H179.986L177.612 66.883H174.32V75.163H177.466H178.263H184.855C186.097 75.163 187.117 74.1516 187.117 72.9087V68.743C187.117 67.6887 186.415 66.7887 185.395 66.5402ZM175.126 74.3659V67.6716H177.475V74.3659H175.126ZM186.329 72.9002C186.329 73.7059 185.669 74.3659 184.863 74.3659H178.272V67.363L180.5 62.383C181.297 62.503 181.906 63.1887 181.906 64.0202V66.5144L185.215 67.3202C185.875 67.483 186.329 68.0659 186.329 68.743V72.9002Z" fill="#F3F3F3"/>
<path d="M184.708 68.5116H183.688V69.3087H184.708V68.5116Z" fill="#F3F3F3"/>
<path d="M184.708 70.5002H183.688V71.2974H184.708V70.5002Z" fill="#F3F3F3"/>
<path d="M184.708 72.4801H183.688V73.2772H184.708V72.4801Z" fill="#F3F3F3"/>
<path d="M233.173 83.4345C231.733 81.9945 229.821 81.2059 227.79 81.2059C225.759 81.2059 223.839 81.9945 222.407 83.4345C219.93 85.9116 219.459 89.6916 221.241 92.6916L220.496 96.1202L223.924 95.3745C225.133 96.0945 226.479 96.4459 227.807 96.4459C229.77 96.4459 231.707 95.6831 233.181 94.2088C236.147 91.2431 236.147 86.4088 233.173 83.4345ZM232.616 93.6517C230.361 95.9059 226.899 96.3002 224.199 94.6202L224.061 94.5345L221.533 95.0831L222.081 92.5545L221.996 92.4174C220.316 89.7088 220.71 86.2545 222.964 84.0002C224.25 82.7145 225.964 82.0031 227.79 82.0031C229.616 82.0031 231.33 82.7145 232.616 84.0002C235.273 86.6574 235.273 90.9859 232.616 93.6517Z" fill="#F3F3F3"/>
<path d="M79.8 114.857H0V135.96H79.8V114.857Z" fill="#FF83AB"/>
<path d="M8.61719 119.649V131.169H26.8915V119.649H8.61719ZM16.9915 125.409L9.40576 130.063V120.763L16.9915 125.409ZM10.4258 120.446H25.0915L17.7629 124.946L10.4258 120.446ZM17.7543 125.88L25.0829 130.38H10.4258L17.7543 125.88ZM18.5172 125.409L26.1029 120.754V130.054L18.5172 125.409Z" fill="#8678E4"/>
<path d="M70.798 120.84H31.918V121.637H70.798V120.84Z" fill="#F3F3F3"/>
<path d="M70.798 125.014H31.918V125.811H70.798V125.014Z" fill="#F3F3F3"/>
<path d="M62.0551 129.189H31.918V129.986H62.0551V129.189Z" fill="#F3F3F3"/>
<path d="M137.883 31.7573L137.086 31.7402C137.215 24.4973 134.506 17.6316 129.457 12.403C124.409 7.17446 117.637 4.22589 110.395 4.09731L110.412 3.30017C117.869 3.42874 124.837 6.46303 130.032 11.8459C135.226 17.2287 138.012 24.3002 137.883 31.7573Z" fill="#3C3E87"/>
<path d="M130.049 31.6201L129.252 31.603C129.346 26.443 127.418 21.5573 123.826 17.8373C120.235 14.1173 115.418 12.0173 110.258 11.923L110.275 11.1259C115.641 11.2201 120.664 13.4059 124.401 17.2801C128.138 21.163 130.144 26.2544 130.049 31.6201Z" fill="#3C3E87"/>
<path d="M122.228 31.4831L121.431 31.4659C121.482 28.3973 120.334 25.4831 118.199 23.2716C116.065 21.0602 113.194 19.8088 110.125 19.7573L110.142 18.9602C113.425 19.0202 116.494 20.3573 118.774 22.7231C121.062 25.0888 122.288 28.2002 122.228 31.4831Z" fill="#3C3E87"/>
<path d="M109.925 35.7431C109.899 35.7431 109.873 35.7431 109.847 35.7431C108.647 35.7259 107.533 35.2374 106.702 34.3802C105.87 33.5231 105.425 32.3917 105.45 31.1917C105.467 30.0002 105.956 28.8774 106.813 28.0459C107.67 27.2145 108.785 26.7688 110.002 26.7945C112.47 26.8374 114.442 28.8774 114.399 31.3459C114.356 33.7888 112.359 35.7431 109.925 35.7431ZM109.925 27.5831C108.965 27.5831 108.065 27.9517 107.37 28.6117C106.659 29.2974 106.265 30.2145 106.247 31.1917C106.23 32.1774 106.599 33.1031 107.276 33.8145C107.962 34.5259 108.879 34.9202 109.856 34.9374C111.896 34.9717 113.567 33.3517 113.602 31.3202C113.636 29.2888 112.016 27.6088 109.985 27.5745C109.967 27.5831 109.942 27.5831 109.925 27.5831Z" fill="#3C3E87"/>
</svg>
