<svg width="60" height="60" viewBox="0 0 60 60" fill="none" xmlns="http://www.w3.org/2000/svg">
<rect x="12.3594" y="5" width="24.7156" height="24.7156" transform="rotate(30 12.3594 5)" fill="#F2BE2A" fill-opacity="0.5"/>
<rect x="32.168" y="5" width="14.3364" height="14.3364" transform="rotate(30 32.168 5)" fill="#33CCFF" fill-opacity="0.5"/>
<rect width="8.03981" height="8.03981" transform="matrix(-0.866025 -0.5 -0.5 0.866025 25.9844 8.02002)" fill="#18EADF" fill-opacity="0.8"/>
<path d="M30 60C16.7627 60 6 49.2316 6 36C6 22.7684 16.7684 12 30 12C43.2316 12 54 22.7684 54 36C54 49.2316 43.2373 60 30 60ZM30 15.3842C18.6328 15.3842 9.38983 24.6328 9.38983 35.9943C9.38983 47.3559 18.6384 56.6102 30 56.6102C41.3616 56.6102 50.6102 47.3616 50.6102 36C50.6102 24.6384 41.3672 15.3842 30 15.3842Z" fill="#2096FF"/>
<path d="M28.0348 40.5311C27.0969 40.5311 26.3398 39.7741 26.3398 38.8362V23.5255C26.3398 22.5876 27.0969 21.8306 28.0348 21.8306C28.9726 21.8306 29.7297 22.5876 29.7297 23.5255V38.8362C29.7297 39.7741 28.9726 40.5311 28.0348 40.5311Z" fill="#2096FF"/>
<path d="M43.3455 40.5309H28.0348C27.0969 40.5309 26.3398 39.7739 26.3398 38.836C26.3398 37.8982 27.0969 37.1411 28.0348 37.1411H43.3455C44.2833 37.1411 45.0404 37.8982 45.0404 38.836C45.0404 39.7739 44.2777 40.5309 43.3455 40.5309Z" fill="#2096FF"/>
</svg>
