<svg width="60" height="60" viewBox="0 0 60 60" fill="none" xmlns="http://www.w3.org/2000/svg">
<rect x="25.9727" y="6.50732" width="32.5467" height="32.5467" transform="rotate(30 25.9727 6.50732)" fill="#18EADF" fill-opacity="0.2"/>
<rect x="24.168" y="1" width="14.3364" height="14.3364" transform="rotate(30 24.168 1)" fill="#EE5E60" fill-opacity="0.5"/>
<rect width="8.03981" height="8.03981" transform="matrix(-0.866025 -0.5 -0.5 0.866025 15.9844 5.02002)" fill="#F2BE2A" fill-opacity="0.5"/>
<path d="M43.9464 17.8202C36.1802 10.0599 23.5907 10.0599 15.8246 17.8202C8.05847 25.5864 8.05847 38.1759 15.8246 45.942L29.8826 60L43.9406 45.942C51.7125 38.1759 51.7125 25.5864 43.9464 17.8202ZM29.8884 41.3566C24.4498 41.3566 20.0385 36.9454 20.0385 31.5068C20.0385 26.0681 24.4498 21.6569 29.8884 21.6569C35.327 21.6569 39.7383 26.0681 39.7383 31.5068C39.7383 36.9454 35.327 41.3566 29.8884 41.3566Z" fill="#2096FF"/>
</svg>
