<svg xmlns="http://www.w3.org/2000/svg" viewBox="0 0 62.93 55.98"><defs><style>.cls-1{opacity:0.75;}.cls-14,.cls-2{fill:#fff;}.cls-10,.cls-11,.cls-12,.cls-2,.cls-5,.cls-7,.cls-8,.cls-9{isolation:isolate;}.cls-3{fill:#e7dc48;}.cls-4,.cls-5,.cls-7,.cls-8,.cls-9{opacity:0.8;}.cls-12,.cls-5{fill:#fe6462;}.cls-10,.cls-11,.cls-12,.cls-6{opacity:0.5;}.cls-10,.cls-7{fill:#18eadf;}.cls-11,.cls-8{fill:#3cf;}.cls-9{fill:#2096ff;}.cls-13{fill:#5ebd88;}.cls-15{fill:#29b473;}</style></defs><title>MTIC_SimpleLogo_agBlue</title><g id="Layer_2" data-name="Layer 2"><g id="Layer_1-2" data-name="Layer 1"><g class="cls-1"><path class="cls-2" d="M17.68,11.76,7.25,15.66l3.9,10.43,10.43-3.9Z"/><path class="cls-2" d="M24.45,20.42l1.58,17,17.06-1.58-1.59-17Z"/><path class="cls-2" d="M25.08,11.47l-8.66,3.89L20.33,24,29,20.09Z"/><path class="cls-2" d="M41,14.33,29.32,18.68l4.36,11.63L45.35,26Z"/><path class="cls-2" d="M32.86,5.73l-2.11,6.5,6.49,2.1,2.11-6.49Z"/><path class="cls-2" d="M29,0,23.58.69l.72,5.16,5.42-.69Z"/><path class="cls-2" d="M34.64,1.43l-1,3.24,3.24,1,1-3.24Z"/><path class="cls-2" d="M35.42,10l-1.8,7.48,7.51,1.8,1.8-7.48Z"/><path class="cls-2" d="M49.41,11.73l-6.13,9.83,9.87,6.11,6.13-9.83Z"/><path class="cls-2" d="M43.16,1.43l-2.38,1,1,2.37,2.38-1Z"/><path class="cls-2" d="M17.43,7.17l-1,11.36,11.41,1,1-11.37Z"/><path class="cls-2" d="M19.15,1.43,16.42,2.7l1.27,2.72,2.73-1.26Z"/></g><polygon class="cls-3" points="31.5 55.98 55.69 36.55 7.31 36.55 31.5 55.98"/><g class="cls-4"><path class="cls-5" d="M17.68,11.76,7.25,15.66l3.9,10.43,10.43-3.9Z"/></g><g class="cls-4"><g class="cls-4"><path class="cls-5" d="M24.45,20.42l1.58,17,17.06-1.58-1.59-17Z"/></g></g><g class="cls-6"><g class="cls-4"><path class="cls-7" d="M25.08,11.47l-8.66,3.89L20.33,24,29,20.09Z"/></g></g><g class="cls-4"><path class="cls-8" d="M41,14.33,29.32,18.68l4.36,11.63L45.35,26Z"/></g><g class="cls-4"><path class="cls-9" d="M32.86,5.73l-2.11,6.5,6.49,2.1,2.11-6.49Z"/></g><g class="cls-6"><g class="cls-6"><path class="cls-10" d="M29,0,23.58.69l.72,5.16,5.42-.69Z"/></g></g><g class="cls-6"><path class="cls-11" d="M34.64,1.43l-1,3.24,3.24,1,1-3.24Z"/></g><g class="cls-6"><path class="cls-12" d="M35.42,10l-1.8,7.48,7.51,1.8,1.8-7.48Z"/></g><g class="cls-6"><path class="cls-12" d="M19.15,1.43,16.42,2.7l1.27,2.72,2.73-1.26Z"/></g><g class="cls-6"><path class="cls-10" d="M17.43,7.17l-1,11.36,11.41,1,1-11.37Z"/></g><g class="cls-4"><path class="cls-9" d="M49.41,11.73l-6.13,9.83,9.87,6.11,6.13-9.83Z"/></g><g class="cls-6"><path class="cls-12" d="M43.16,1.43l-2.38,1,1,2.37,2.38-1Z"/></g><g class="cls-6"><g class="cls-4"><path class="cls-5" d="M17.68,11.76,7.25,15.66l3.9,10.43,10.43-3.9Z"/></g><g class="cls-4"><g class="cls-4"><path class="cls-5" d="M24.45,20.42l1.58,17,17.06-1.58-1.59-17Z"/></g></g><g class="cls-6"><g class="cls-4"><path class="cls-7" d="M25.08,11.47l-8.66,3.89L20.33,24,29,20.09Z"/></g></g><g class="cls-4"><path class="cls-8" d="M41,14.33,29.32,18.68l4.36,11.63L45.35,26Z"/></g><g class="cls-4"><path class="cls-9" d="M32.86,5.73l-2.11,6.5,6.49,2.1,2.11-6.49Z"/></g><g class="cls-6"><g class="cls-6"><path class="cls-10" d="M29,0,23.58.69l.72,5.16,5.42-.69Z"/></g></g><g class="cls-6"><path class="cls-11" d="M34.64,1.43l-1,3.24,3.24,1,1-3.24Z"/></g><g class="cls-6"><path class="cls-12" d="M35.42,10l-1.8,7.48,7.51,1.8,1.8-7.48Z"/></g><g class="cls-6"><path class="cls-12" d="M19.15,1.43,16.42,2.7l1.27,2.72,2.73-1.26Z"/></g><g class="cls-6"><path class="cls-10" d="M17.43,7.17l-1,11.36,11.41,1,1-11.37Z"/></g><g class="cls-4"><path class="cls-9" d="M49.41,11.73l-6.13,9.83,9.87,6.11,6.13-9.83Z"/></g><g class="cls-6"><path class="cls-12" d="M43.16,1.43l-2.38,1,1,2.37,2.38-1Z"/></g></g><path class="cls-13" d="M62.77,23a.78.78,0,0,0-.62-1.25H.78A.78.78,0,0,0,.16,23L8.48,34,.16,45.09a.78.78,0,0,0,.62,1.25H62.15a.78.78,0,0,0,.62-1.25L54.45,34Z"/><path class="cls-14" d="M15.48,33.08V19.71H24l6.88,13.15a.71.71,0,0,0,1.26,0l7.35-13.17H48L47.45,35,48,48.37H38.46V37.8a.36.36,0,0,0-.69-.13l-4.31,10.7h-4L24.66,37.5a.36.36,0,0,0-.69.14V48.37H15Z"/><path class="cls-15" d="M48.69,49.09H37.74V39.65L34,49.09H29l-4.31-9.75v9.75H14.24l.53-16V19h9.64l7.08,13.54L39,19h9.65l-.53,16Zm-9.52-1.44h8L46.73,35v0l.48-14.55H39.88L32.74,33.23a1.43,1.43,0,0,1-1.27.73,1.4,1.4,0,0,1-1.25-.77L23.54,20.42H16.2V33.11l-.48,14.54h7.54v-10a1.07,1.07,0,0,1,.85-1,1.08,1.08,0,0,1,1.21.62l4.61,10.44h3L37.1,37.4a1.07,1.07,0,0,1,1.2-.66,1.06,1.06,0,0,1,.87,1.06Z"/></g></g></svg>