<svg width="60" height="60" viewBox="0 0 60 60" fill="none" xmlns="http://www.w3.org/2000/svg">
<rect x="18.3594" y="17" width="24.7156" height="24.7156" transform="rotate(30 18.3594 17)" fill="#33CCFF" fill-opacity="0.6"/>
<rect x="32.168" y="17" width="14.3364" height="14.3364" transform="rotate(30 32.168 17)" fill="#FE6462" fill-opacity="0.5"/>
<rect width="8.03981" height="8.03981" transform="matrix(-0.866025 -0.5 -0.5 0.866025 53.9844 32.02)" fill="#18EADF" fill-opacity="0.8"/>
<path d="M32.7019 27.6743H27.398C26.4565 27.6743 25.6875 26.9053 25.6875 25.9638V22.7105C25.6875 21.769 26.4565 21 27.398 21H32.7019C33.6434 21 34.4124 21.769 34.4124 22.7105V25.9638C34.4124 26.9004 33.6434 27.6743 32.7019 27.6743Z" fill="#2096FF"/>
<path d="M32.7097 42.8711H27.4058C26.4643 42.8711 25.6953 42.1021 25.6953 41.1606V37.9073C25.6953 36.9658 26.4643 36.1968 27.4058 36.1968H32.7097C33.6512 36.1968 34.4202 36.9658 34.4202 37.9073V41.1606C34.4202 42.1021 33.6512 42.8711 32.7097 42.8711Z" fill="#2096FF"/>
<path d="M19.655 42.8716H14.3511C13.4096 42.8716 12.6406 42.1026 12.6406 41.1611V37.9077C12.6406 36.9662 13.4096 36.1973 14.3511 36.1973H19.655C20.5965 36.1973 21.3655 36.9662 21.3655 37.9077V41.1611C21.3655 42.1026 20.5965 42.8716 19.655 42.8716Z" fill="#2096FF"/>
<path d="M45.7605 42.8711H40.4566C39.5151 42.8711 38.7461 42.1021 38.7461 41.1606V37.9073C38.7461 36.9658 39.5151 36.1968 40.4566 36.1968H45.7605C46.702 36.1968 47.471 36.9658 47.471 37.9073V41.1606C47.471 42.1021 46.702 42.8711 45.7605 42.8711Z" fill="#2096FF"/>
<path d="M13.0144 52.9173C13.1376 52.9173 13.2461 53.0257 13.2461 53.1489V56.4023C13.2461 56.5255 13.1376 56.634 13.0144 56.634H7.71047C7.58724 56.634 7.4788 56.5255 7.4788 56.4023V53.1489C7.4788 53.0257 7.58724 52.9173 7.71047 52.9173H13.0144ZM13.0144 51.4385H7.71047C6.76897 51.4385 6 52.2075 6 53.1489V56.4023C6 57.3438 6.76897 58.1128 7.71047 58.1128H13.0144C13.9559 58.1128 14.7249 57.3438 14.7249 56.4023V53.1489C14.7249 52.2124 13.9559 51.4385 13.0144 51.4385Z" fill="#2096FF"/>
<path d="M26.1082 52.9173C26.2314 52.9173 26.3398 53.0257 26.3398 53.1489V56.4023C26.3398 56.5255 26.2314 56.634 26.1082 56.634H20.8042C20.681 56.634 20.5725 56.5255 20.5725 56.4023V53.1489C20.5725 53.0257 20.681 52.9173 20.8042 52.9173H26.1082ZM26.1082 51.4385H20.8042C19.8627 51.4385 19.0938 52.2075 19.0938 53.1489V56.4023C19.0938 57.3438 19.8627 58.1128 20.8042 58.1128H26.1082C27.0497 58.1128 27.8186 57.3438 27.8186 56.4023V53.1489C27.8186 52.2124 27.0497 51.4385 26.1082 51.4385Z" fill="#2096FF"/>
<path d="M43.8205 46.7115H42.3417V32.7024C42.3417 32.1651 41.903 31.7264 41.3657 31.7264H18.7204C18.1831 31.7264 17.7444 32.1651 17.7444 32.7024V46.7115H16.2656V32.7024C16.2656 31.3468 17.3698 30.2476 18.7204 30.2476H41.3657C42.7213 30.2476 43.8205 31.3517 43.8205 32.7024V46.7115Z" fill="#2096FF"/>
<path d="M24.1979 51.6843H22.7191V47.6177C22.7191 47.5536 22.66 47.4944 22.5959 47.4944H11.2387C11.1747 47.4944 11.1155 47.5536 11.1155 47.6177V51.6843H9.63672V47.6177C9.63672 46.7353 10.3564 46.0156 11.2387 46.0156H22.5959C23.4782 46.0156 24.1979 46.7353 24.1979 47.6177V51.6843Z" fill="#2096FF"/>
<path d="M39.2058 52.6311C39.3291 52.6311 39.4375 52.7396 39.4375 52.8628V56.1162C39.4375 56.2394 39.3291 56.3478 39.2058 56.3478H33.9019C33.7786 56.3478 33.6702 56.2394 33.6702 56.1162V52.8628C33.6702 52.7396 33.7786 52.6311 33.9019 52.6311H39.2058ZM39.2058 51.1523H33.9019C32.9604 51.1523 32.1914 51.9213 32.1914 52.8628V56.1162C32.1914 57.0577 32.9604 57.8266 33.9019 57.8266H39.2058C40.1473 57.8266 40.9163 57.0577 40.9163 56.1162V52.8628C40.9163 51.9262 40.1424 51.1523 39.2058 51.1523Z" fill="#2096FF"/>
<path d="M52.2918 52.6311C52.415 52.6311 52.5234 52.7396 52.5234 52.8628V56.1162C52.5234 56.2394 52.415 56.3478 52.2918 56.3478H46.9878C46.8646 56.3478 46.7561 56.2394 46.7561 56.1162V52.8628C46.7561 52.7396 46.8646 52.6311 46.9878 52.6311H52.2918ZM52.2918 51.1523H46.9878C46.0463 51.1523 45.2773 51.9213 45.2773 52.8628V56.1162C45.2773 57.0577 46.0463 57.8266 46.9878 57.8266H52.2918C53.2333 57.8266 54.0022 57.0577 54.0022 56.1162V52.8628C54.0072 51.9262 53.2333 51.1523 52.2918 51.1523Z" fill="#2096FF"/>
<path d="M50.3932 51.3992H48.9144V47.3325C48.9144 47.2684 48.8553 47.2093 48.7912 47.2093H37.4341C37.37 47.2093 37.3108 47.2684 37.3108 47.3325V51.3992H35.832V47.3325C35.832 46.4501 36.5517 45.7305 37.4341 45.7305H48.7912C49.6736 45.7305 50.3932 46.4501 50.3932 47.3325V51.3992Z" fill="#2096FF"/>
<path d="M30.7913 25.4512H29.3125V40.3328H30.7913V25.4512Z" fill="#2096FF"/>
</svg>
