<svg width="1920" height="799" viewBox="0 0 1920 799" fill="none" xmlns="http://www.w3.org/2000/svg">
<path opacity="0.05" d="M629.382 335.415L137.629 207.49L45.5152 533.945L537.269 661.87L629.382 335.415Z" fill="#2096FF"/>
<path opacity="0.05" d="M1869.23 372.531L1377.47 244.606L1285.36 571.062L1777.11 698.987L1869.23 372.531Z" fill="#2096FF"/>
<path opacity="0.05" d="M2028.96 383.336L1667.4 289.28L1550.16 704.8L1911.72 798.856L2028.96 383.336Z" fill="#29B473"/>
<path opacity="0.05" d="M790.492 638.423L840.652 303.647L491.994 255.484L441.834 590.26L790.492 638.423Z" fill="#2096FF"/>
<path opacity="0.05" d="M863.89 744.834L905.215 469.031L397.731 398.928L356.406 674.73L863.89 744.834Z" fill="#2096FF"/>
<path opacity="0.05" d="M1083.56 272.173L944.176 70.8979L734.555 204.735L873.941 406.009L1083.56 272.173Z" fill="#2096FF"/>
<path opacity="0.05" d="M572.681 466.694L415.949 240.373L180.243 390.864L336.975 617.186L572.681 466.694Z" fill="#23D160"/>
<path opacity="0.05" d="M1954.43 354.803L1797.7 128.482L1561.99 278.973L1718.72 505.295L1954.43 354.803Z" fill="#23D160"/>
<path opacity="0.05" d="M1180.93 528.217L980.855 239.309L679.967 431.417L880.041 720.325L1180.93 528.217Z" fill="#23D160"/>
<path opacity="0.05" d="M1463.47 429.656L1248.55 119.306L925.326 325.672L1140.25 636.023L1463.47 429.656Z" fill="#FE8684"/>
<path opacity="0.05" d="M569.593 566.222L422.012 353.115L145.457 529.687L293.038 742.794L569.593 566.222Z" fill="#FE8684"/>
<path opacity="0.05" d="M370.553 733.673L408.508 480.36L79.7772 434.95L41.8225 688.263L370.553 733.673Z" fill="#F2BE2A"/>
<path opacity="0.05" d="M1389.83 745.677L1427.79 492.365L1099.06 446.954L1061.1 700.267L1389.83 745.677Z" fill="#F2BE2A"/>
<path opacity="0.05" d="M1713.55 734.789L1678.86 428.533L1348.7 463.005L1383.39 769.262L1713.55 734.789Z" fill="#FE8684"/>
<path opacity="0.05" d="M558.685 241.897L505.484 165.075L425.477 216.157L478.677 292.979L558.685 241.897Z" fill="#FE8684"/>
<path opacity="0.05" d="M263.893 91.1127L219.469 26.9644L152.66 69.6195L197.084 133.768L263.893 91.1127Z" fill="#FE8684"/>
<path opacity="0.05" d="M1717.2 310.621L1622.28 173.555L1479.53 264.696L1574.45 401.762L1717.2 310.621Z" fill="#FE8684"/>
<path opacity="0.05" d="M1112.27 64.1484L1067.85 0L1001.04 42.6552L1045.46 106.804L1112.27 64.1484Z" fill="#F2BE2A"/>
<path opacity="0.05" d="M1490.55 345.763L1381.86 188.815L1218.41 293.177L1327.1 450.124L1490.55 345.763Z" fill="#F2BE2A"/>
<path opacity="0.05" d="M200.852 202.707L142.41 118.317L54.5206 174.432L112.962 258.822L200.852 202.707Z" fill="#18EADF"/>
<path opacity="0.05" d="M1669.84 124.043L1634.08 72.396L1580.29 106.739L1616.06 158.386L1669.84 124.043Z" fill="#E7DC48"/>
<path d="M126.836 619.12V583.86H107V619.12C107 623.982 110.942 627.918 115.798 627.918H135.634C130.778 627.924 126.836 623.982 126.836 619.12Z" fill="#2747B2"/>
<path d="M126.836 387.003C126.836 382.141 130.778 378.206 135.634 378.206H115.798C110.942 378.206 107 382.141 107 387.003V405.062H126.836V387.003Z" fill="#2747B2"/>
<path d="M126.836 405.062H107V583.86H126.836V405.062Z" fill="#566CD3"/>
<path d="M255.902 378.206H236.066H135.642C130.78 378.206 126.844 382.148 126.844 387.003V405.062H244.87H264.706V387.003C264.706 382.141 260.764 378.206 255.902 378.206Z" fill="#566CD3"/>
<path d="M244.862 583.86H126.836V619.12C126.836 623.982 130.778 627.918 135.634 627.918H236.058H255.894C260.756 627.918 264.692 623.976 264.692 619.12V583.86H244.862Z" fill="#566CD3"/>
<path d="M244.862 405.062H126.836V583.86H244.862H264.704V405.062H244.862Z" fill="#779AF8"/>
<path d="M205.774 608.268C207.086 602.75 203.678 597.214 198.16 595.901C192.643 594.589 187.106 597.998 185.794 603.515C184.482 609.033 187.891 614.569 193.408 615.881C198.925 617.194 204.462 613.785 205.774 608.268Z" fill="white"/>
<path d="M209.319 390.426H182.23V392.384H209.319V390.426Z" fill="white"/>
<path d="M172.27 481.69H114.496V568.623H172.27V481.69Z" fill="white"/>
<path d="M182.628 488.911H156.391V525.109H182.628V488.911Z" fill="#566CD3"/>
<path d="M177.892 494.104H161.129V505.48H177.892V494.104Z" fill="#B7B9F0"/>
<path d="M177.888 508.909H161.125V510.373H177.888V508.909Z" fill="#E5E9FF"/>
<path d="M177.888 513.59H161.125V515.054H177.888V513.59Z" fill="#E5E9FF"/>
<path d="M177.888 518.27H161.125V519.734H177.888V518.27Z" fill="#E5E9FF"/>
<path d="M164.979 534.652H121.797V562.203H164.979V534.652Z" fill="#8CDEF1"/>
<path d="M148.353 490.744H121.797V492.208H148.353V490.744Z" fill="#779AF8"/>
<path d="M148.353 496.469H121.797V497.933H148.353V496.469Z" fill="#779AF8"/>
<path d="M148.353 502.195H121.797V503.659H148.353V502.195Z" fill="#779AF8"/>
<path d="M141.132 507.914H121.797V509.378H141.132V507.914Z" fill="#779AF8"/>
<path d="M172.27 476.064H114.496V481.684H172.27V476.064Z" fill="#2747B2"/>
<path d="M130.168 480.138C130.863 480.138 131.426 479.575 131.426 478.881C131.426 478.186 130.863 477.623 130.168 477.623C129.473 477.623 128.91 478.186 128.91 478.881C128.91 479.575 129.473 480.138 130.168 480.138Z" fill="#779AF8"/>
<path d="M125.211 480.138C125.905 480.138 126.469 479.575 126.469 478.881C126.469 478.186 125.905 477.623 125.211 477.623C124.516 477.623 123.953 478.186 123.953 478.881C123.953 479.575 124.516 480.138 125.211 480.138Z" fill="#779AF8"/>
<path d="M120.258 480.138C120.952 480.138 121.515 479.575 121.515 478.881C121.515 478.186 120.952 477.623 120.258 477.623C119.563 477.623 119 478.186 119 478.881C119 479.575 119.563 480.138 120.258 480.138Z" fill="#779AF8"/>
<path d="M252.834 497.727H214.82V525.109H252.834V497.727Z" fill="white"/>
<path d="M252.834 492.108H214.82V497.727H252.834V492.108Z" fill="#2747B2"/>
<path d="M230.137 496.175C230.831 496.175 231.394 495.612 231.394 494.917C231.394 494.222 230.831 493.659 230.137 493.659C229.442 493.659 228.879 494.222 228.879 494.917C228.879 495.612 229.442 496.175 230.137 496.175Z" fill="#779AF8"/>
<path d="M225.18 496.175C225.874 496.175 226.437 495.612 226.437 494.917C226.437 494.222 225.874 493.659 225.18 493.659C224.485 493.659 223.922 494.222 223.922 494.917C223.922 495.612 224.485 496.175 225.18 496.175Z" fill="#779AF8"/>
<path d="M220.23 496.175C220.925 496.175 221.488 495.612 221.488 494.917C221.488 494.222 220.925 493.659 220.23 493.659C219.536 493.659 218.973 494.222 218.973 494.917C218.973 495.612 219.536 496.175 220.23 496.175Z" fill="#779AF8"/>
<path d="M237.331 520.015H230.322C229.015 520.015 227.957 518.958 227.957 517.65C227.957 516.342 229.015 515.285 230.322 515.285H237.331C238.638 515.285 239.696 516.342 239.696 517.65C239.696 518.958 238.638 520.015 237.331 520.015Z" fill="#F7B75C"/>
<path d="M247.78 503.184H219.879V504.648H247.78V503.184Z" fill="#779AF8"/>
<path d="M247.78 508.371H219.879V509.835H247.78V508.371Z" fill="#779AF8"/>
<path d="M195.621 421.225V426.844V472.034H256.737V426.844V421.225H195.621Z" fill="#566CD3"/>
<path d="M295.717 627.924H309.295V618.413H301.899L294.34 622.668C291.818 624.082 292.826 627.924 295.717 627.924Z" fill="#2747B2"/>
<path d="M333.757 627.924H347.335V618.413H339.939L332.38 622.668C329.865 624.082 330.866 627.924 333.757 627.924Z" fill="#2747B2"/>
<path d="M321.341 405.062H324.107L329.738 412.365C332.347 412.365 334.462 414.479 334.462 417.089C334.462 419.698 332.347 421.813 329.738 421.813V427.326V435.992H343.116C350.337 435.992 357.133 439.196 361.77 444.646C362.364 442.375 362.433 439.953 361.82 437.619C360.631 433.101 357.558 429.823 353.791 428.189C352.083 427.445 350.825 425.949 350.513 424.116C350.387 423.39 350.2 422.664 349.956 421.945C348.642 418.128 345.838 415.249 342.428 413.71C340.901 413.022 339.769 411.67 339.374 410.043C337.96 404.205 332.704 399.862 326.428 399.862H321.754C314.852 399.862 309.258 405.456 309.258 412.358C311.617 407.872 316.266 405.062 321.341 405.062Z" fill="#3C3E87"/>
<path d="M355.731 494.461L375.329 476.753C378.633 473.768 379.171 468.775 376.581 465.152L363.071 446.261C362.671 445.697 362.214 445.178 361.769 444.652C357.133 439.202 350.343 435.999 343.116 435.999H329.738L327.811 437.494L319.495 443.952V435.999H307.812C298.971 435.999 290.811 440.76 286.456 448.457L279.103 461.46L261.483 442.731L254.23 449.552L274.992 477.679C277.952 481.69 283.834 481.99 287.188 478.305L299.265 465.026L303.676 487.228L299.966 498.09L284.485 543.444C284.485 543.444 290.498 545.746 299.596 547.849C304.533 548.994 310.371 550.076 316.673 550.702C321.772 551.209 327.166 551.422 332.604 551.121C338.323 550.802 344.086 549.907 349.624 548.212C353.466 547.035 357.202 545.484 360.724 543.444L350.512 505.605L348.842 499.404L348.616 494.424L345.995 495.068L344.299 489.862L345.557 487.234L351.038 459.633L363.202 471.509L348.848 487.228L355.731 494.461Z" fill="#F7B75C"/>
<path d="M301.896 618.413H309.293L316.67 550.708C310.369 550.076 304.531 548.994 299.594 547.855L301.896 618.413Z" fill="#F798B3"/>
<path d="M339.941 618.413H347.338L349.622 548.218C344.084 549.914 338.321 550.808 332.602 551.127L339.941 618.413Z" fill="#F798B3"/>
<path d="M334.466 417.095C334.466 414.486 332.351 412.371 329.742 412.371L324.11 405.068H321.345C316.27 405.068 311.621 407.884 309.262 412.371V418.778C309.262 423.509 313.097 427.338 317.822 427.338H319.505V436.005V443.964L327.821 437.507L329.748 436.011V427.345V421.832C332.351 421.819 334.466 419.704 334.466 417.095Z" fill="#F798B3"/>
<path d="M348.844 499.404L355.74 494.461L348.857 487.233H345.565C344.201 487.233 342.968 488.022 342.393 489.261L340.935 492.402C340.221 493.941 340.553 495.756 341.761 496.945L343.976 499.129C345.252 500.393 347.255 500.543 348.719 499.498L348.844 499.404Z" fill="#F798B3"/>
<path d="M252.82 434.178V447.781L254.241 449.552L261.493 442.731L259.184 436.718C258.596 435.185 257.119 434.171 255.48 434.171H252.82V434.178Z" fill="#F798B3"/>
<path d="M310.466 418.966C310.385 419.942 311.205 422.432 312.932 422.251C314.665 422.07 316.649 419.285 316.73 418.309C316.811 417.333 314.953 418.534 313.226 418.709C311.499 418.885 310.548 417.983 310.466 418.966Z" fill="white"/>
<path d="M318.207 414.93C318.728 414.93 319.151 414.227 319.151 413.36C319.151 412.492 318.728 411.789 318.207 411.789C317.685 411.789 317.262 412.492 317.262 413.36C317.262 414.227 317.685 414.93 318.207 414.93Z" fill="#5EA88C"/>
<path d="M311.418 415.287C311.939 415.287 312.362 414.584 312.362 413.716C312.362 412.849 311.939 412.146 311.418 412.146C310.896 412.146 310.473 412.849 310.473 413.716C310.473 414.584 310.896 415.287 311.418 415.287Z" fill="#5EA88C"/>
<path d="M252.833 422.933H191.711V468.124H252.833V422.933Z" fill="white"/>
<path d="M252.833 417.314H191.711V422.933H252.833V417.314Z" fill="#2747B2"/>
<path d="M227.034 429.028H197.762V449.558H227.034V429.028Z" fill="#B7B9F0"/>
<path d="M246.938 454.007H197.762V455.472H246.938V454.007Z" fill="#E5E9FF"/>
<path d="M246.938 460.177H197.762V461.641H246.938V460.177Z" fill="#E5E9FF"/>
<path d="M208.934 421.382C209.628 421.382 210.191 420.819 210.191 420.124C210.191 419.429 209.628 418.866 208.934 418.866C208.239 418.866 207.676 419.429 207.676 420.124C207.676 420.819 208.239 421.382 208.934 421.382Z" fill="#779AF8"/>
<path d="M203.973 421.382C204.667 421.382 205.23 420.819 205.23 420.124C205.23 419.429 204.667 418.866 203.973 418.866C203.278 418.866 202.715 419.429 202.715 420.124C202.715 420.819 203.278 421.382 203.973 421.382Z" fill="#779AF8"/>
<path d="M199.023 421.382C199.718 421.382 200.281 420.819 200.281 420.124C200.281 419.429 199.718 418.866 199.023 418.866C198.329 418.866 197.766 419.429 197.766 420.124C197.766 420.819 198.329 421.382 199.023 421.382Z" fill="#779AF8"/>
<path d="M248.985 436.949L252.827 438.908L253.99 437.888C255.455 436.599 254.547 434.184 252.595 434.184H249.648C248.841 434.184 248.184 434.841 248.184 435.648C248.184 436.198 248.49 436.699 248.985 436.949Z" fill="#F798B3"/>
<path d="M339.151 486.646H309.266V488.11H339.151V486.646Z" fill="#F5A12A"/>
<path d="M422.951 627.923H436.53V618.412H429.133L421.574 622.667C419.053 624.081 420.06 627.923 422.951 627.923Z" fill="#F798B3"/>
<path d="M401.345 469.099C399.261 459.425 404.311 449.626 413.403 445.715L421.631 442.174L418.202 434.214L418.102 434.377C413.76 436.248 408.722 434.239 406.852 429.897L405.093 425.811L407.446 414.691C410.687 418.07 415.699 419.065 419.986 417.169L421.694 416.412C424.091 415.38 426.875 416.487 427.908 418.884C428.94 421.28 427.832 424.065 425.436 425.097L427.613 430.166L431.042 438.125L432.131 437.656C432.3 431.83 432.319 425.46 432.319 418.502H432.313C432.313 416.738 431.969 414.948 431.224 413.227C428.314 406.463 420.468 403.334 413.697 406.25L409.405 408.096C404.674 410.13 401.846 414.748 401.852 419.591C401.852 432.713 395.488 447.211 388.887 461.878C383.299 474.293 390.683 485.656 404.643 484.254C404.568 484.01 404.486 483.766 404.436 483.51L401.345 469.099Z" fill="#3C3E87"/>
<path d="M425.436 425.097C427.833 424.065 428.941 421.287 427.908 418.884C426.876 416.487 424.097 415.38 421.695 416.412L419.986 417.169C415.7 419.065 410.694 418.07 407.447 414.691L405.094 425.811L406.852 429.897C408.723 434.239 413.76 436.242 418.103 434.377L418.203 434.214L421.632 442.174L431.037 438.125L427.608 430.166L425.436 425.097Z" fill="#F798B3"/>
<path d="M421.637 442.174L431.042 438.125L421.637 442.174Z" fill="#F798B3"/>
<path d="M409.008 429.509C409.271 430.447 410.672 432.631 411.849 432.118C413.025 431.605 413.532 428.589 413.269 427.656C413.006 426.718 412.074 428.213 410.898 428.726C409.721 429.24 408.745 428.576 409.008 429.509Z" fill="white"/>
<path d="M414.139 423.554C414.629 423.375 414.786 422.57 414.489 421.755C414.192 420.94 413.554 420.424 413.064 420.602C412.573 420.781 412.416 421.586 412.713 422.402C413.01 423.217 413.648 423.732 414.139 423.554Z" fill="#3C3E87"/>
<path d="M407.881 426.215C408.371 426.036 408.528 425.231 408.231 424.416C407.934 423.601 407.296 423.085 406.806 423.263C406.315 423.442 406.159 424.248 406.456 425.063C406.753 425.878 407.391 426.394 407.881 426.215Z" fill="#3C3E87"/>
<path d="M444.289 432.425L432.137 437.656L431.048 438.125L421.644 442.174L413.415 445.715C404.323 449.626 399.274 459.425 401.357 469.099L404.461 483.504C404.517 483.76 404.599 484.004 404.667 484.248C406.545 490.65 414.003 493.697 419.854 490.224L424.034 487.746L425.417 489.605L444.289 484.611V432.425Z" fill="#EE5E60"/>
<path d="M425.414 489.616C425.414 489.616 421.785 502.294 421.785 516.949C421.785 542.353 429.131 618.412 429.131 618.412H436.527L444.13 512.781H444.287V484.623L425.414 489.616Z" fill="#779AF8"/>
<path d="M444.29 484.624L425.418 489.617L444.29 484.624Z" fill="#779AF8"/>
<path d="M760.137 627.924H452.876C448.139 627.924 444.297 624.082 444.297 619.345V402.997H768.716V619.338C768.716 624.082 764.874 627.924 760.137 627.924Z" fill="#E5E9FF"/>
<path d="M760.137 383.336H452.876C448.139 383.336 444.297 387.178 444.297 391.915V402.997H768.716V391.915C768.716 387.172 764.874 383.336 760.137 383.336Z" fill="#566CD3"/>
<path d="M461.103 397.127C463.289 396.658 464.681 394.505 464.212 392.319C463.742 390.133 461.59 388.741 459.404 389.211C457.217 389.68 455.826 391.833 456.295 394.019C456.764 396.205 458.917 397.597 461.103 397.127Z" fill="#2747B2"/>
<path d="M478.956 393.167C478.956 395.401 477.142 397.215 474.908 397.215C472.674 397.215 470.859 395.401 470.859 393.167C470.859 390.933 472.674 389.118 474.908 389.118C477.142 389.118 478.956 390.927 478.956 393.167Z" fill="#2747B2"/>
<path d="M490.388 397.127C492.574 396.658 493.966 394.505 493.497 392.319C493.027 390.133 490.875 388.741 488.689 389.211C486.503 389.68 485.111 391.833 485.58 394.019C486.05 396.205 488.202 397.597 490.388 397.127Z" fill="#2747B2"/>
<path d="M531.468 462.931C535.389 445.943 524.796 428.992 507.807 425.071C490.819 421.15 473.868 431.743 469.947 448.731C466.026 465.72 476.619 482.67 493.608 486.591C510.596 490.512 527.547 479.919 531.468 462.931Z" fill="#B7B9F0"/>
<path d="M557.589 413.553H556.613V617.367H557.589V413.553Z" fill="#CDD5FF"/>
<path d="M474.473 548.286C474.473 549.762 473.278 550.958 471.801 550.958C470.324 550.958 469.129 549.762 469.129 548.286C469.129 546.809 470.324 545.614 471.801 545.614C473.271 545.614 474.473 546.809 474.473 548.286Z" fill="#566CD3"/>
<path d="M532.266 547.547H482.82V549.012H532.266V547.547Z" fill="#B7B9F0"/>
<path d="M474.443 566.569C474.677 565.112 473.686 563.741 472.229 563.506C470.772 563.272 469.401 564.263 469.167 565.719C468.932 567.176 469.923 568.548 471.38 568.782C472.837 569.016 474.208 568.025 474.443 566.569Z" fill="#566CD3"/>
<path d="M532.27 565.413H482.824V566.877H532.27V565.413Z" fill="#B7B9F0"/>
<path d="M474.473 584.003C474.473 585.48 473.278 586.675 471.801 586.675C470.324 586.675 469.129 585.48 469.129 584.003C469.129 582.527 470.324 581.332 471.801 581.332C473.271 581.332 474.473 582.533 474.473 584.003Z" fill="#566CD3"/>
<path d="M532.266 583.271H482.82V584.736H532.266V583.271Z" fill="#B7B9F0"/>
<path d="M532.266 504.86H469.129V506.819H532.266V504.86Z" fill="#2747B2"/>
<path d="M743.683 435.929H582.137V459.256H743.683V435.929Z" fill="white"/>
<path d="M743.683 429.891H582.137V435.929H743.683V429.891Z" fill="#566CD3"/>
<path d="M743.683 478.761H582.137V599.008H743.683V478.761Z" fill="white"/>
<path d="M743.683 472.723H582.137V478.761H743.683V472.723Z" fill="#566CD3"/>
<path d="M613.783 514.835H599.059C596.306 514.835 594.078 512.601 594.078 509.848V495.13C594.078 492.377 596.312 490.149 599.059 490.149H613.783C616.536 490.149 618.77 492.383 618.77 495.13V509.854C618.763 512.601 616.536 514.835 613.783 514.835Z" fill="#779AF8"/>
<path d="M722.703 492.515H630.363V493.979H722.703V492.515Z" fill="#E5E9FF"/>
<path d="M722.703 501.757H630.363V503.221H722.703V501.757Z" fill="#E5E9FF"/>
<path d="M695.753 510.993H630.363V512.457H695.753V510.993Z" fill="#E5E9FF"/>
<path d="M613.783 550.827H599.059C596.306 550.827 594.078 548.593 594.078 545.846V531.122C594.078 528.369 596.312 526.135 599.059 526.135H613.783C616.536 526.135 618.77 528.369 618.77 531.122V545.846C618.763 548.593 616.536 550.827 613.783 550.827Z" fill="#B7B9F0"/>
<path d="M722.703 528.507H630.363V529.971H722.703V528.507Z" fill="#E5E9FF"/>
<path d="M722.703 537.749H630.363V539.213H722.703V537.749Z" fill="#E5E9FF"/>
<path d="M695.753 546.985H630.363V548.449H695.753V546.985Z" fill="#E5E9FF"/>
<path d="M613.783 586.819H599.059C596.306 586.819 594.078 584.585 594.078 581.838V567.115C594.078 564.361 596.312 562.127 599.059 562.127H613.783C616.536 562.127 618.77 564.361 618.77 567.115V581.838C618.763 584.585 616.536 586.819 613.783 586.819Z" fill="#2747B2"/>
<path d="M722.703 564.499H630.363V565.963H722.703V564.499Z" fill="#E5E9FF"/>
<path d="M722.703 573.741H630.363V575.205H722.703V573.741Z" fill="#E5E9FF"/>
<path d="M695.753 582.977H630.363V584.441H695.753V582.977Z" fill="#E5E9FF"/>
<path d="M749.838 508.865H734.914C733.75 507.163 731.798 506.049 729.583 506.049C726.016 506.049 723.125 508.94 723.125 512.506C723.125 516.073 726.016 518.964 729.583 518.964H749.099V523.613H753.748C756.827 523.613 759.324 526.11 759.324 529.189C759.324 532.267 756.827 534.764 753.748 534.764V539.832C760.544 538.086 765.569 531.942 765.569 524.608C765.569 515.91 758.523 508.865 749.838 508.865Z" fill="#7F3C3F"/>
<path d="M753.752 523.607H749.103V518.958H729.586V531.166C729.586 536.741 734.11 541.265 739.685 541.265H741.669V547.923H753.752V541.265V539.826V534.758C756.83 534.758 759.327 532.261 759.327 529.183C759.327 526.104 756.83 523.607 753.752 523.607Z" fill="#F798B3"/>
<path d="M610.773 614.326V627.923H620.297V620.515L616.042 612.943C614.615 610.422 610.773 611.429 610.773 614.326Z" fill="#F798B3"/>
<path d="M717.134 606.379L620.289 620.515V627.923H718.417H741.469H755.223H765.985C772.912 627.923 778.669 622.573 779.17 615.665L779.564 606.379H717.134Z" fill="#566CD3"/>
<path d="M661.155 519.515L658.245 512.044C657.607 510.404 656.286 509.134 654.622 508.558L650.411 507.107C648.815 506.556 647.044 507 645.899 508.233L644.21 510.048C642.72 511.643 642.683 514.109 644.116 515.754L653.977 527.08L661.155 519.515Z" fill="#F798B3"/>
<path d="M816.492 578.259L798.008 560.507C789.566 552.397 778.309 547.867 766.608 547.867H724.39L688.21 541.309L661.159 519.515L653.988 527.08L675.776 551.721C678.16 554.418 681.145 556.533 684.48 557.885L713.821 569.793L717.125 606.379H779.561L782.358 575.374L803.095 588.99L798.696 617.367L808.964 619.72L819.139 588.953C820.396 585.173 819.364 581.012 816.492 578.259Z" fill="#8CDEF1"/>
<path d="M798.702 617.367L789.059 622.342C788.077 622.849 787.457 623.862 787.457 624.97C787.457 626.603 788.777 627.923 790.411 627.923H802.944C804.796 627.923 806.448 626.759 807.074 625.014L808.97 619.714L798.702 617.367Z" fill="#F798B3"/>
<path d="M733.06 534.407C732.979 535.383 733.799 537.874 735.526 537.692C737.259 537.511 739.242 534.726 739.324 533.75C739.405 532.774 737.547 533.976 735.82 534.151C734.093 534.332 733.142 533.425 733.06 534.407Z" fill="white"/>
<path d="M739.808 528.613C740.434 528.613 740.941 527.77 740.941 526.73C740.941 525.689 740.434 524.846 739.808 524.846C739.183 524.846 738.676 525.689 738.676 526.73C738.676 527.77 739.183 528.613 739.808 528.613Z" fill="#566CD3"/>
<path d="M732.261 528.363C732.887 528.363 733.394 527.52 733.394 526.48C733.394 525.439 732.887 524.596 732.261 524.596C731.636 524.596 731.129 525.439 731.129 526.48C731.129 527.52 731.636 528.363 732.261 528.363Z" fill="#566CD3"/>
<path d="M439.629 465.595L443.146 458.237C443.853 456.76 445.317 455.79 446.95 455.728L448.583 455.659C450.385 455.584 451.937 456.923 452.125 458.719L452.6 463.305C452.719 464.45 452.256 465.577 451.361 466.303L444.297 472.072L439.629 465.595Z" fill="#F798B3"/>
<path d="M901.322 371.21C871.749 371.21 847.777 362.206 847.777 351.105V607.819C847.777 596.719 871.749 587.714 901.322 587.714C930.894 587.714 954.866 596.719 954.866 607.819V351.105C954.866 362.212 930.888 371.21 901.322 371.21Z" fill="#E5E9FF"/>
<path d="M901.322 627.924C930.893 627.924 954.866 618.923 954.866 607.819C954.866 596.716 930.893 587.714 901.322 587.714C871.75 587.714 847.777 596.716 847.777 607.819C847.777 618.923 871.75 627.924 901.322 627.924Z" fill="#B7B9F0"/>
<path d="M901.322 371.21C930.893 371.21 954.866 362.209 954.866 351.105C954.866 340.001 930.893 331 901.322 331C871.75 331 847.777 340.001 847.777 351.105C847.777 362.209 871.75 371.21 901.322 371.21Z" fill="#B7B9F0"/>
<path d="M896.197 418.547V409.88H894.514C892.518 409.88 890.703 409.167 889.245 408.022V413.147C886.873 413.904 885.121 416 884.871 418.553H892.749H896.197V418.547Z" fill="#111F54"/>
<path d="M893.07 389.995L893.17 389.725L893.27 389.995C894.384 392.954 897.219 394.913 900.379 394.913H906.173C908.645 394.913 910.897 396.69 911.148 399.155C911.429 401.984 909.214 404.368 906.442 404.368V418.547H917.73C919.188 418.547 920.603 418.735 921.967 419.066C921.917 415.894 919.532 413.309 916.46 412.896V395.751C916.46 388.386 910.491 382.411 903.119 382.411H898.445C891.543 382.411 885.949 388.005 885.949 394.907C889.122 394.913 891.956 392.954 893.07 389.995Z" fill="#111F54"/>
<path d="M935.352 432.958C933.944 425.999 928.625 420.681 921.973 419.066C920.609 418.735 919.189 418.547 917.737 418.547H909.897C909.897 421.094 907.832 423.159 905.285 423.159C903.596 423.159 902.138 422.239 901.33 420.887C900.523 422.239 899.065 423.159 897.376 423.159C894.829 423.159 892.764 421.094 892.764 418.547H884.886H883.228C875.181 418.547 867.747 422.852 863.749 429.835L855.02 445.078L836.467 424.541L829.621 429.109L847.248 459.72C850.765 465.827 859.225 466.691 863.905 461.422L876.026 447.781L880.393 469.77H922.261L924.633 457.824L941.083 502.108L948.886 499.824L935.352 432.958Z" fill="#779AF8"/>
<path d="M906.168 394.913H900.374C897.214 394.913 894.379 392.954 893.266 389.995L893.166 389.726L893.065 389.995C891.952 392.954 889.117 394.913 885.957 394.913V401.32C885.957 404.049 887.259 406.452 889.248 408.022C890.706 409.167 892.521 409.881 894.517 409.881H896.2V418.547H906.444V404.368C909.216 404.368 911.431 401.984 911.149 399.155C910.893 396.69 908.64 394.913 906.168 394.913Z" fill="#F798B3"/>
<path d="M901.98 418.547H900.659H896.198H892.75C892.75 421.094 894.815 423.159 897.362 423.159C899.051 423.159 900.509 422.239 901.316 420.887C902.117 422.239 903.581 423.159 905.271 423.159C907.818 423.159 909.883 421.094 909.883 418.547H906.435H901.98Z" fill="#E5E9FF"/>
<path d="M916.457 393.43H902.127H886.697C885.683 393.43 884.863 394.249 884.863 395.263V400.069C884.863 401.082 885.683 401.902 886.697 401.902H902.127C903.141 401.902 903.961 401.082 903.961 400.069V396.277H916.457V393.43Z" fill="#566CD3"/>
<path d="M901.323 397.171H887.52V398.148H901.323V397.171Z" fill="#8CDEF1"/>
<path d="M872.416 610.473H885.994V600.961H878.598L871.039 605.216C868.518 606.631 869.525 610.473 872.416 610.473Z" fill="#111F54"/>
<path d="M910.459 610.473H924.037V600.961H916.641L909.082 605.216C906.561 606.631 907.568 610.473 910.459 610.473Z" fill="#111F54"/>
<path d="M836.455 424.547L834.691 420.787C834.027 419.373 832.757 418.334 831.237 417.971L826.087 416.726C824.472 416.338 822.783 416.964 821.819 418.315C820.53 420.117 820.918 422.614 822.689 423.941L829.61 429.122L836.455 424.547Z" fill="#F798B3"/>
<path d="M948.885 499.836L951.601 504.51C952.164 505.48 952.283 506.638 951.939 507.701L950.593 511.806C950.068 513.414 948.56 514.503 946.87 514.503C945.018 514.503 943.416 513.202 943.034 511.393L941.082 502.12L948.885 499.836Z" fill="#F798B3"/>
<path d="M969.508 477.641C956.705 477.641 946.293 467.229 946.293 454.426C946.293 441.624 956.705 431.211 969.508 431.211C982.31 431.211 992.723 441.624 992.723 454.426C992.723 467.229 982.304 477.641 969.508 477.641ZM969.508 432.194C957.25 432.194 947.275 442.168 947.275 454.432C947.275 466.697 957.25 476.671 969.508 476.671C981.766 476.671 991.746 466.697 991.746 454.432C991.746 442.168 981.766 432.194 969.508 432.194Z" fill="#B7B9F0"/>
<path d="M969.509 474.224C980.444 474.224 989.308 465.361 989.308 454.426C989.308 443.492 980.444 434.628 969.509 434.628C958.575 434.628 949.711 443.492 949.711 454.426C949.711 465.361 958.575 474.224 969.509 474.224Z" fill="#B7B9F0"/>
<path d="M970.484 445.81V444.171H973.131V442.212H965.879V444.171H968.526V445.81C968.851 445.779 969.17 445.71 969.502 445.71C969.84 445.717 970.159 445.779 970.484 445.81Z" fill="#111F54"/>
<path d="M977.164 449.39L979.167 447.387L977.784 446.004L975.781 448.007C976.288 448.42 976.751 448.883 977.164 449.39Z" fill="#111F54"/>
<path d="M975.779 450.773C975.372 450.253 974.915 449.796 974.396 449.39C973.038 448.332 971.355 447.669 969.502 447.669C965.097 447.669 961.512 451.254 961.512 455.66C961.512 460.065 965.097 463.65 969.502 463.65C973.908 463.65 977.493 460.065 977.493 455.66C977.499 453.807 976.842 452.124 975.779 450.773ZM969.509 457.743C968.357 457.743 967.425 456.811 967.425 455.66C967.425 454.683 968.113 453.901 969.021 453.676V450.479H969.997V453.676C970.028 453.682 970.059 453.689 970.091 453.695C970.76 453.895 971.273 454.408 971.473 455.078C971.53 455.265 971.592 455.453 971.592 455.66C971.592 456.811 970.66 457.743 969.509 457.743Z" fill="#F7B75C"/>
<path d="M977.162 449.39C976.749 448.883 976.286 448.426 975.779 448.007C974.303 446.793 972.488 446.011 970.485 445.817C970.16 445.786 969.841 445.717 969.509 445.717C969.178 445.717 968.859 445.786 968.533 445.817C963.515 446.318 959.566 450.516 959.566 455.666C959.566 461.154 964.028 465.615 969.516 465.615C975.003 465.615 979.465 461.154 979.465 455.666C979.452 453.269 978.576 451.104 977.162 449.39ZM961.519 455.66C961.519 451.255 965.104 447.669 969.509 447.669C971.362 447.669 973.045 448.326 974.403 449.39C974.922 449.797 975.379 450.253 975.786 450.773C976.843 452.131 977.506 453.814 977.506 455.666C977.506 460.071 973.921 463.657 969.516 463.657C965.104 463.65 961.519 460.065 961.519 455.66Z" fill="#2747B2"/>
<path d="M969.996 453.676V450.479H969.02V453.676C969.182 453.638 969.332 453.576 969.508 453.576C969.683 453.576 969.833 453.638 969.996 453.676Z" fill="white"/>
<path d="M971.474 455.077C971.274 454.408 970.761 453.895 970.091 453.695C970.06 453.688 970.029 453.682 969.998 453.676C969.835 453.638 969.685 453.576 969.509 453.576C969.334 453.576 969.184 453.632 969.021 453.676C968.114 453.901 967.426 454.683 967.426 455.659C967.426 456.811 968.358 457.743 969.509 457.743C970.661 457.743 971.593 456.811 971.593 455.659C971.593 455.453 971.531 455.265 971.474 455.077Z" fill="#566CD3"/>
<path d="M842.816 519.159C830.014 519.159 819.602 508.746 819.602 495.944C819.602 483.141 830.014 472.729 842.816 472.729C855.619 472.729 866.031 483.141 866.031 495.944C866.031 508.74 855.613 519.159 842.816 519.159ZM842.816 473.705C830.558 473.705 820.578 483.679 820.578 495.944C820.578 508.202 830.552 518.176 842.816 518.176C855.075 518.176 865.055 508.202 865.055 495.944C865.049 483.679 855.075 473.705 842.816 473.705Z" fill="#B7B9F0"/>
<path d="M842.814 515.742C853.748 515.742 862.612 506.878 862.612 495.944C862.612 485.01 853.748 476.146 842.814 476.146C831.88 476.146 823.016 485.01 823.016 495.944C823.016 506.878 831.88 515.742 842.814 515.742Z" fill="#B7B9F0"/>
<path d="M833.652 492.847L832.27 491.464C838.083 485.651 847.544 485.651 853.357 491.464L851.974 492.847C846.918 487.797 838.702 487.797 833.652 492.847Z" fill="#111F54"/>
<path d="M849.208 495.612C847.5 493.904 845.228 492.965 842.813 492.965C840.391 492.965 838.126 493.904 836.418 495.612L835.035 494.229C837.106 492.152 839.872 491.013 842.813 491.013C845.754 491.013 848.513 492.158 850.591 494.229L849.208 495.612Z" fill="#566CD3"/>
<path d="M846.442 498.378C844.509 496.445 841.117 496.445 839.184 498.378L837.801 496.995C840.473 494.317 845.153 494.317 847.825 496.995L846.442 498.378Z" fill="#779AF8"/>
<path d="M842.812 503.804C844.028 503.804 845.015 502.817 845.015 501.601C845.015 500.385 844.028 499.398 842.812 499.398C841.596 499.398 840.609 500.385 840.609 501.601C840.609 502.817 841.596 503.804 842.812 503.804Z" fill="#E5E9FF"/>
<path d="M825.598 412.064C812.795 412.064 802.383 401.652 802.383 388.849C802.383 376.047 812.795 365.634 825.598 365.634C838.4 365.634 848.812 376.047 848.812 388.849C848.812 401.645 838.394 412.064 825.598 412.064ZM825.598 366.61C813.339 366.61 803.359 376.585 803.359 388.843C803.359 401.101 813.333 411.081 825.598 411.081C837.856 411.081 847.836 401.107 847.836 388.843C847.83 376.585 837.856 366.61 825.598 366.61Z" fill="#8CDEF1"/>
<path d="M845.206 391.745C846.819 380.93 839.359 370.855 828.544 369.242C817.729 367.629 807.654 375.089 806.041 385.904C804.429 396.719 811.888 406.794 822.704 408.407C833.519 410.02 843.593 402.56 845.206 391.745Z" fill="#8CDEF1"/>
<path d="M828.349 390.219C830.939 386.934 830.758 382.185 827.729 379.156C824.463 375.89 819.169 375.89 815.903 379.156C812.637 382.423 812.637 387.716 815.903 390.983C818.931 394.011 823.687 394.193 826.966 391.602L830.157 394.793L831.54 393.411L828.349 390.219Z" fill="#2747B2"/>
<path d="M832.385 392.566L831.54 393.411L830.157 394.794L829.312 395.632L834.669 400.988L837.735 397.922L832.385 392.566Z" fill="#111F54"/>
<path d="M821.818 391.458C825.347 391.458 828.207 388.598 828.207 385.069C828.207 381.541 825.347 378.681 821.818 378.681C818.29 378.681 815.43 381.541 815.43 385.069C815.43 388.598 818.29 391.458 821.818 391.458Z" fill="#779AF8"/>
<path d="M809.416 359.834C810.011 361.63 809.835 363.595 808.922 365.259C810.718 364.665 812.689 364.84 814.347 365.753C813.753 363.958 813.928 361.993 814.841 360.328C813.039 360.923 811.074 360.741 809.416 359.834Z" fill="#F7B75C"/>
<path d="M799.246 381.534C799.246 381.534 799.99 372.173 808.075 367.43L806.598 365.872C806.592 365.872 798.257 371.36 799.246 381.534Z" fill="#F7B75C"/>
<path d="M825.598 385.07C825.598 385.07 823.908 386.915 821.819 386.915C819.729 386.915 818.039 385.07 818.039 385.07C818.039 385.07 819.729 383.224 821.819 383.224C823.908 383.224 825.598 385.07 825.598 385.07Z" fill="white"/>
<path d="M823.069 385.07C823.069 385.764 822.506 386.321 821.818 386.321C821.13 386.321 820.566 385.758 820.566 385.07C820.566 384.375 821.13 383.818 821.818 383.818C822.506 383.818 823.069 384.375 823.069 385.07Z" fill="#111F54"/>
<path d="M818.701 360.103C818.225 360.91 817.437 361.486 816.523 361.686C817.331 362.162 817.906 362.95 818.107 363.864C818.582 363.057 819.371 362.481 820.284 362.281C819.477 361.805 818.901 361.017 818.701 360.103Z" fill="#F7B75C"/>
<path d="M878.596 600.961H885.992L892.112 544.814C885.46 544.338 880.411 543.387 876.688 542.379L878.596 600.961Z" fill="#F798B3"/>
<path d="M916.639 600.961H924.035L925.944 542.379C922.221 543.387 917.171 544.338 910.52 544.814L916.639 600.961Z" fill="#F798B3"/>
<path d="M934.42 531.435C933.569 512.538 929.733 495.136 926.585 483.673C924.22 475.05 922.249 469.775 922.249 469.775H880.381C880.381 469.775 878.41 475.044 876.045 483.673C872.897 495.136 869.061 512.544 868.21 531.435C868.098 533.92 868.035 536.423 868.035 538.944C868.035 538.944 870.576 540.728 876.689 542.38C880.412 543.387 885.462 544.338 892.113 544.814C894.904 545.014 897.945 545.139 901.318 545.139C904.685 545.139 907.732 545.014 910.523 544.814C917.174 544.338 922.224 543.387 925.947 542.38C932.06 540.728 934.601 538.944 934.601 538.944C934.601 536.423 934.532 533.92 934.42 531.435Z" fill="#566CD3"/>
<path d="M901.323 430.435C902.055 430.435 902.649 429.841 902.649 429.109C902.649 428.376 902.055 427.782 901.323 427.782C900.59 427.782 899.996 428.376 899.996 429.109C899.996 429.841 900.59 430.435 901.323 430.435Z" fill="#E5E9FF"/>
<path d="M901.323 439.296C902.055 439.296 902.649 438.702 902.649 437.97C902.649 437.237 902.055 436.643 901.323 436.643C900.59 436.643 899.996 437.237 899.996 437.97C899.996 438.702 900.59 439.296 901.323 439.296Z" fill="#E5E9FF"/>
<path d="M1147.65 402.997H1056.39V475.745H1147.65V402.997Z" fill="#E5E9FF"/>
<path d="M1076.85 409.398H1063.35V449.17H1076.85V409.398Z" fill="#2747B2"/>
<path d="M1142.11 410.612H1122.32V412.077H1142.11V410.612Z" fill="#B7B9F0"/>
<path d="M1142.11 416.168H1122.32V417.633H1142.11V416.168Z" fill="#B7B9F0"/>
<path d="M1142.11 421.731H1122.32V423.196H1142.11V421.731Z" fill="#B7B9F0"/>
<path d="M1142.12 427.294H1132.22V428.759H1142.12V427.294Z" fill="#B7B9F0"/>
<path d="M1203.68 371.329H1164.85V434.653H1203.68V371.329Z" fill="#8CDEF1"/>
<path d="M1195.68 411.344H1172.84C1171.05 411.344 1169.6 409.892 1169.6 408.103C1169.6 406.313 1171.05 404.861 1172.84 404.861H1195.68C1197.47 404.861 1198.92 406.313 1198.92 408.103C1198.92 409.892 1197.47 411.344 1195.68 411.344Z" fill="white"/>
<path d="M1173.7 401.895C1174.42 401.895 1175 401.315 1175 400.6C1175 399.885 1174.42 399.305 1173.7 399.305C1172.99 399.305 1172.41 399.885 1172.41 400.6C1172.41 401.315 1172.99 401.895 1173.7 401.895Z" fill="white"/>
<path d="M1196.11 399.868H1177.8V401.332H1196.11V399.868Z" fill="#4DCCE9"/>
<path d="M1175 408.103C1175 408.817 1174.41 409.399 1173.7 409.399C1172.99 409.399 1172.41 408.817 1172.41 408.103C1172.41 407.39 1172.99 406.808 1173.7 406.808C1174.41 406.808 1175 407.39 1175 408.103Z" fill="#8CDEF1"/>
<path d="M1196.11 407.371H1177.8V408.835H1196.11V407.371Z" fill="#566CD3"/>
<path d="M1175.63 415.605C1175.63 416.319 1175.04 416.901 1174.33 416.901C1173.62 416.901 1173.04 416.319 1173.04 415.605C1173.04 414.892 1173.62 414.31 1174.33 414.31C1175.04 414.31 1175.63 414.892 1175.63 415.605Z" fill="#4DCCE9"/>
<path d="M1196.11 414.873H1177.8V416.337H1196.11V414.873Z" fill="#4DCCE9"/>
<path d="M1175 423.108C1175 423.822 1174.41 424.404 1173.7 424.404C1172.99 424.404 1172.41 423.822 1172.41 423.108C1172.41 422.395 1172.99 421.813 1173.7 421.813C1174.41 421.813 1175 422.395 1175 423.108Z" fill="white"/>
<path d="M1196.11 422.376H1177.8V423.84H1196.11V422.376Z" fill="#4DCCE9"/>
<path d="M1196.12 378.074H1172.41V393.192H1196.12V378.074Z" fill="#111F54"/>
<path d="M1192.85 465.095H1164.85V493.097H1192.85V465.095Z" fill="#E5E9FF"/>
<path d="M1187.83 481.233C1189.01 476.267 1185.94 471.284 1180.97 470.104C1176.01 468.924 1171.02 471.993 1169.84 476.959C1168.66 481.925 1171.73 486.907 1176.7 488.087C1181.66 489.268 1186.65 486.199 1187.83 481.233Z" fill="#779AF8"/>
<path d="M1182.31 480.595H1179.58V484.549H1182.31V480.595Z" fill="#111F54"/>
<path d="M1178.11 480.595H1175.39V484.549H1178.11V480.595Z" fill="#111F54"/>
<path d="M1178.85 476.215C1178.58 476.215 1178.34 476.158 1178.11 476.064V480.595V484.549H1179.58V480.595V476.064C1179.35 476.165 1179.11 476.215 1178.85 476.215Z" fill="white"/>
<path d="M1178.85 472.41C1177.8 472.41 1176.95 473.261 1176.95 474.312C1176.95 475.101 1177.43 475.783 1178.12 476.071C1178.34 476.165 1178.59 476.221 1178.85 476.221C1179.11 476.221 1179.35 476.165 1179.58 476.071C1180.27 475.783 1180.75 475.107 1180.75 474.312C1180.75 473.261 1179.9 472.41 1178.85 472.41Z" fill="#F7B75C"/>
<path d="M1073.12 627.924H1086.7V618.413H1079.3L1071.74 622.668C1069.22 624.082 1070.23 627.924 1073.12 627.924Z" fill="#F798B3"/>
<path d="M1130.92 627.924H1117.34V618.413H1124.74L1132.3 622.668C1134.81 624.082 1133.81 627.924 1130.92 627.924Z" fill="#F798B3"/>
<path d="M1122.95 487.227H1081.08C1077.36 495.305 1075.58 504.141 1075.87 513.032L1079.3 618.406H1086.69L1098.2 512.776H1105.83L1117.34 618.406H1124.74L1128.17 513.032C1128.46 504.147 1126.68 495.312 1122.95 487.227Z" fill="#111F54"/>
<path d="M1169.26 423.909L1153.85 447.593L1138.12 438.789C1134.85 436.962 1131.17 435.998 1127.42 435.998H1117.17C1117.01 437.863 1116.53 439.634 1115.75 441.242C1114.52 443.82 1114.52 446.761 1115.75 449.339C1116.71 451.323 1117.24 453.55 1117.24 455.897C1117.24 465.302 1108.72 472.71 1098.98 470.827C1093.04 469.676 1088.26 464.895 1087.1 458.963C1086.41 455.44 1086.95 452.086 1088.34 449.233C1089.58 446.698 1089.51 443.789 1088.29 441.248C1087.51 439.634 1087.03 437.863 1086.88 435.992H1085.93C1077.06 435.992 1069.31 441.93 1066.98 450.484L1063.72 462.542C1061.92 469.187 1066.92 475.733 1073.81 475.733H1078.8L1081.09 487.221H1122.96L1128.97 456.961L1153.77 463.862C1157.21 464.82 1160.84 463.162 1162.37 459.939L1176.02 427.326L1169.26 423.909Z" fill="#554F6E"/>
<path d="M1115.76 441.248C1116.53 439.64 1117.01 437.863 1117.17 436.004C1117.21 435.573 1117.25 435.135 1117.25 434.69C1117.25 432.338 1116.71 430.11 1115.76 428.126C1114.54 425.586 1114.47 422.676 1115.71 420.142C1117.1 417.289 1117.63 413.928 1116.94 410.412C1115.79 404.48 1111 399.699 1105.06 398.548C1095.32 396.664 1086.8 404.073 1086.8 413.478C1086.8 415.831 1087.33 418.052 1088.29 420.036C1089.53 422.614 1089.53 425.555 1088.29 428.133C1087.34 430.116 1086.8 432.344 1086.8 434.69C1086.8 435.135 1086.83 435.573 1086.87 436.004C1087.03 437.869 1087.52 439.646 1088.29 441.261C1089.51 443.801 1089.58 446.711 1088.34 449.245C1086.94 452.098 1086.41 455.459 1087.1 458.975C1088.25 464.907 1093.04 469.688 1098.97 470.839C1108.72 472.723 1117.24 465.314 1117.24 455.909C1117.24 453.556 1116.71 451.335 1115.75 449.351C1114.52 446.767 1114.52 443.826 1115.76 441.248Z" fill="#7F3C3F"/>
<path d="M1169.27 423.909V419.516C1169.27 417.52 1170.02 415.605 1171.38 414.147L1174.41 410.9C1174.85 410.424 1175.59 410.374 1176.09 410.775C1176.52 411.119 1176.67 411.713 1176.46 412.22L1174.77 416.287L1178.63 418.571C1179.45 419.059 1180.04 419.86 1180.27 420.793C1180.55 422.007 1180.18 423.289 1179.28 424.159L1176.01 427.319L1169.27 423.909Z" fill="#F798B3"/>
<path d="M1081.66 364.302H1025.12V386.378H1081.66V364.302Z" fill="#E5E9FF"/>
<path d="M1044.94 368.807H1031.88V381.866H1044.94V368.807Z" fill="#B7B9F0"/>
<path d="M1074.9 369.364H1049.23V370.828H1074.9V369.364Z" fill="white"/>
<path d="M1074.9 374.608H1049.23V376.072H1074.9V374.608Z" fill="white"/>
<path d="M1066.59 379.845H1049.23V381.309H1066.59V379.845Z" fill="white"/>
<path d="M1039.18 403.254H1015.84V476.002H1039.18V403.254Z" fill="#E5E9FF"/>
<path d="M1030.45 412.978C1030.45 411.363 1029.14 410.043 1027.52 410.043C1025.9 410.043 1024.58 411.357 1024.58 412.978C1024.58 414.592 1025.9 415.912 1027.52 415.912C1029.14 415.912 1030.45 414.598 1030.45 412.978Z" fill="#B7B9F0"/>
<path d="M1027.52 427.808C1025.9 427.808 1024.58 429.122 1024.58 430.742C1024.58 432.357 1025.9 433.677 1027.52 433.677C1029.14 433.677 1030.45 432.363 1030.45 430.742C1030.45 429.128 1029.13 427.808 1027.52 427.808Z" fill="#779AF8"/>
<path d="M1024.58 448.507C1024.58 450.121 1025.9 451.442 1027.52 451.442C1029.14 451.442 1030.45 450.128 1030.45 448.507C1030.45 446.886 1029.14 445.572 1027.52 445.572C1025.9 445.572 1024.58 446.893 1024.58 448.507Z" fill="#566CD3"/>
<path d="M1024.58 466.272C1024.58 467.886 1025.9 469.206 1027.52 469.206C1029.14 469.206 1030.45 467.892 1030.45 466.272C1030.45 464.657 1029.14 463.337 1027.52 463.337C1025.9 463.337 1024.58 464.657 1024.58 466.272Z" fill="#2747B2"/>
<path d="M1031.91 430.742C1031.91 428.565 1030.33 426.769 1028.25 426.418V417.308C1030.33 416.957 1031.91 415.155 1031.91 412.984C1031.91 410.556 1029.94 408.585 1027.52 408.585C1025.09 408.585 1023.12 410.556 1023.12 412.984C1023.12 415.161 1024.71 416.957 1026.78 417.308V426.418C1024.71 426.769 1023.12 428.571 1023.12 430.742C1023.12 432.92 1024.71 434.716 1026.78 435.066V444.177C1024.71 444.527 1023.12 446.329 1023.12 448.501C1023.12 450.678 1024.71 452.474 1026.78 452.824V461.935C1024.71 462.286 1023.12 464.088 1023.12 466.259C1023.12 468.687 1025.09 470.658 1027.52 470.658C1029.94 470.658 1031.91 468.687 1031.91 466.259C1031.91 464.081 1030.33 462.286 1028.25 461.935V452.831C1030.33 452.48 1031.91 450.678 1031.91 448.507C1031.91 446.329 1030.33 444.533 1028.25 444.183V435.072C1030.33 434.716 1031.91 432.92 1031.91 430.742ZM1027.52 469.206C1025.9 469.206 1024.58 467.892 1024.58 466.272C1024.58 464.657 1025.9 463.337 1027.52 463.337C1029.14 463.337 1030.45 464.651 1030.45 466.272C1030.45 467.886 1029.13 469.206 1027.52 469.206ZM1027.52 451.442C1025.9 451.442 1024.58 450.128 1024.58 448.507C1024.58 446.886 1025.9 445.572 1027.52 445.572C1029.14 445.572 1030.45 446.886 1030.45 448.507C1030.45 450.128 1029.13 451.442 1027.52 451.442ZM1030.45 412.978C1030.45 414.592 1029.14 415.912 1027.52 415.912C1025.9 415.912 1024.58 414.598 1024.58 412.978C1024.58 411.363 1025.9 410.043 1027.52 410.043C1029.14 410.043 1030.45 411.363 1030.45 412.978ZM1027.52 427.808C1029.13 427.808 1030.45 429.122 1030.45 430.742C1030.45 432.357 1029.14 433.677 1027.52 433.677C1025.9 433.677 1024.58 432.363 1024.58 430.742C1024.58 429.128 1025.9 427.808 1027.52 427.808Z" fill="white"/>
<path d="M1062.53 491.689H1015.84V519.515H1062.53V491.689Z" fill="#E5E9FF"/>
<path d="M1022.84 513.778C1022.84 504.748 1030.16 497.427 1039.19 497.427C1048.22 497.427 1055.54 504.748 1055.54 513.778H1022.84Z" fill="#779AF8"/>
<path d="M1043.02 511.08L1047.8 506.294L1046.42 504.911L1041.57 509.76C1042.14 510.098 1042.63 510.542 1043.02 511.08Z" fill="#2747B2"/>
<path d="M1043.02 511.081C1042.64 510.542 1042.14 510.098 1041.57 509.76C1040.87 509.341 1040.06 509.084 1039.18 509.084C1036.59 509.084 1034.49 511.187 1034.49 513.777H1043.87C1043.88 512.77 1043.56 511.844 1043.02 511.081Z" fill="#566CD3"/>
<path d="M1053.98 497.427C1053.98 498.76 1055.06 499.842 1056.39 499.842C1057.72 499.842 1058.81 498.76 1058.81 497.427C1058.81 496.094 1057.72 495.012 1056.39 495.012C1055.06 495.012 1053.98 496.094 1053.98 497.427Z" fill="#F7B75C"/>
<path d="M1486.56 488.053H1247.64C1242.47 488.053 1238.27 483.861 1238.27 478.686V350.348C1238.27 345.173 1242.47 340.98 1247.64 340.98H1486.56C1491.73 340.98 1495.93 345.173 1495.93 350.348V478.686C1495.93 483.861 1491.73 488.053 1486.56 488.053Z" fill="#E5E9FF"/>
<path d="M1482.12 369.683V368.706H1476.4V354.352H1475.42V368.706H1446.18V354.352H1445.21V368.706H1415.97V354.352H1414.99V368.706H1385.75V354.352H1384.77V368.706H1355.53V354.352H1354.56V368.706H1325.32V354.352H1324.34V368.706H1295.1V354.352H1294.12V368.706H1264.88V354.352H1263.91V368.706H1252.07V369.683H1263.91V398.923H1252.07V399.899H1263.91V429.14H1252.07V430.116H1263.91V459.357H1252.07V460.333H1263.91V475.645H1264.88V460.333H1294.12V475.645H1295.1V460.333H1324.34V475.645H1325.32V460.333H1354.56V475.645H1355.53V460.333H1384.77V475.645H1385.75V460.333H1414.99V475.645H1415.97V460.333H1445.21V475.645H1446.18V460.333H1475.42V475.645H1476.4V460.333H1482.12V459.357H1476.4V430.116H1482.12V429.14H1476.4V399.899H1482.12V398.923H1476.4V369.683H1482.12ZM1445.21 369.683V398.923H1415.97V369.683H1445.21ZM1325.32 399.899H1354.56V429.14H1325.32V399.899ZM1324.34 429.14H1295.1V399.899H1324.34V429.14ZM1355.53 399.899H1384.77V429.14H1355.53V399.899ZM1385.75 399.899H1414.99V429.14H1385.75V399.899ZM1415.97 399.899H1445.21V429.14H1415.97V399.899ZM1414.99 369.683V398.923H1385.75V369.683H1414.99ZM1384.77 369.683V398.923H1355.53V369.683H1384.77ZM1354.56 369.683V398.923H1325.32V369.683H1354.56ZM1324.34 369.683V398.923H1295.1V369.683H1324.34ZM1264.89 369.683H1294.13V398.923H1264.89V369.683ZM1264.89 399.899H1294.13V429.14H1264.89V399.899ZM1264.89 459.357V430.116H1294.13V459.357H1264.89ZM1295.1 459.357V430.116H1324.34V459.357H1295.1ZM1325.32 459.357V430.116H1354.56V459.357H1325.32ZM1355.53 459.357V430.116H1384.77V459.357H1355.53ZM1385.75 459.357V430.116H1414.99V459.357H1385.75ZM1415.97 459.357V430.116H1445.21V459.357H1415.97ZM1475.42 459.357H1446.18V430.116H1475.42V459.357ZM1475.42 429.14H1446.18V399.899H1475.42V429.14ZM1475.42 398.923H1446.18V369.683H1475.42V398.923Z" fill="#CDD5FF"/>
<path d="M1381.52 358.375H1360.29V379.607H1381.52V358.375Z" fill="#8CDEF1"/>
<path d="M1364.73 502.576L1373.19 618.412H1380.59L1389.05 517.369H1402.78L1411.24 618.412H1418.63L1427.09 502.576H1364.73Z" fill="#2747B2"/>
<path d="M1367.01 627.924H1380.59V618.413H1373.19L1365.63 622.668C1363.12 624.082 1364.12 627.924 1367.01 627.924Z" fill="#F798B3"/>
<path d="M1405.06 627.924H1418.63V618.413H1411.24L1403.68 622.668C1401.16 624.082 1402.17 627.924 1405.06 627.924Z" fill="#F798B3"/>
<path d="M1390.8 427.789V435.998H1401.04V427.789C1399.44 428.364 1397.72 428.69 1395.92 428.69C1394.12 428.69 1392.4 428.364 1390.8 427.789Z" fill="#F798B3"/>
<path d="M1395.92 398.248C1387.51 398.248 1380.69 405.062 1380.69 413.472C1380.69 420.079 1384.91 425.686 1390.79 427.795C1392.39 428.37 1394.11 428.696 1395.91 428.696C1397.71 428.696 1399.43 428.364 1401.03 427.795C1406.91 425.692 1411.13 420.079 1411.13 413.472C1411.14 405.062 1404.33 398.248 1395.92 398.248Z" fill="#111F54"/>
<path d="M1442.07 474.925L1436.91 454.213C1434.24 443.513 1424.63 436.004 1413.6 436.004H1374.73L1348.66 423.101L1359.74 389.205L1350.94 383.336L1331.88 420.705C1329.47 425.417 1330.53 431.155 1334.45 434.703L1361.28 458.975L1364.73 502.576H1427.1L1428.3 487.352L1432.46 487.321C1438.92 487.271 1443.63 481.195 1442.07 474.925Z" fill="#F7B75C"/>
<path d="M1359.75 389.199L1363.48 385.702C1365.07 384.212 1365.86 382.054 1365.6 379.888L1365.07 375.333C1364.87 373.631 1363.75 372.173 1362.17 371.535L1360.03 370.665C1357.79 369.758 1355.25 370.909 1354.46 373.193L1350.95 383.33L1359.75 389.199Z" fill="#F798B3"/>
<path d="M1539.89 466.008L1535.63 451.904C1532.96 443.05 1525.15 436.818 1516.06 436.073C1516.44 439.684 1517.96 442.111 1521.82 441.999C1521.82 441.999 1519.33 445.722 1515.75 448.012C1510.23 451.541 1503.12 446.711 1504.1 440.228L1504.65 436.599L1504.75 435.992H1504.65H1498.51H1494.28H1486.88H1482.42L1454.01 423.74L1437.98 395.056L1429.89 400.269L1439.71 426.574C1441.34 430.936 1444.19 434.734 1447.92 437.525L1472.6 455.997L1478.8 487.215H1520.67L1522.32 478.873L1527.71 479.793C1535.63 481.157 1542.21 473.705 1539.89 466.008Z" fill="#779AF8"/>
<path d="M1489.06 423.115L1486.88 436.005H1494.28L1495.93 426.419L1494.27 426.15C1492.13 425.799 1490.34 424.66 1489.06 423.115Z" fill="#F7B75C"/>
<path d="M1516.07 436.074C1515.45 430.085 1517.99 420.85 1518.33 414.505C1518.33 414.398 1518.34 414.292 1518.35 414.185C1518.36 413.848 1518.37 413.522 1518.37 413.203L1518.36 413.216C1518.2 406.933 1513.6 401.452 1507.16 400.407L1502.55 399.662C1495.74 398.561 1489.32 403.185 1488.22 409.999L1504.05 405.162L1508.45 413.272C1510.83 413.66 1512.09 415.647 1512 418C1511.99 418.188 1512.03 418.306 1512 418.5C1511.58 421.078 1509 422 1506.93 422.608L1506 427L1504.5 436.074V436.5L1504.11 440.235C1503.13 446.711 1510.24 451.548 1515.76 448.019C1519.33 445.729 1521.83 442.006 1521.83 442.006C1517.96 442.118 1516.44 439.684 1516.07 436.074Z" fill="#F7B75C"/>
<path d="M1508.43 413.271L1504.04 405.162L1488.21 409.999L1487.18 416.325C1486.78 418.853 1487.54 421.281 1489.05 423.114C1490.33 424.666 1492.13 425.798 1494.27 426.143L1495.92 426.412L1494.27 435.998H1498.5H1504.65L1506.04 428.045L1506.23 426.837L1506.92 422.601C1509.5 423.02 1511.92 421.268 1512.34 418.69C1512.37 418.496 1512.37 418.308 1512.37 418.114C1512.47 415.768 1510.82 413.659 1508.43 413.271Z" fill="#F798B3"/>
<path d="M1489.55 418.083C1489.35 419.047 1489.87 421.612 1491.61 421.637C1493.34 421.662 1495.65 419.134 1495.85 418.171C1496.04 417.207 1494.06 418.183 1492.32 418.158C1490.57 418.139 1489.74 417.126 1489.55 418.083Z" fill="white"/>
<path d="M1498.11 412.696C1498.22 411.835 1497.88 411.087 1497.36 411.025C1496.84 410.963 1496.34 411.611 1496.24 412.473C1496.13 413.334 1496.47 414.082 1496.99 414.144C1497.51 414.206 1498.01 413.558 1498.11 412.696Z" fill="#3C3E87"/>
<path d="M1491.55 412.776C1491.66 411.915 1491.32 411.166 1490.8 411.104C1490.28 411.043 1489.78 411.691 1489.68 412.552C1489.58 413.414 1489.91 414.162 1490.43 414.224C1490.95 414.285 1491.45 413.637 1491.55 412.776Z" fill="#3C3E87"/>
<path d="M1437.98 395.069L1437.01 387.56C1436.83 386.227 1436.13 385.019 1435.06 384.212L1430.03 380.402C1429.47 379.976 1428.68 379.989 1428.13 380.433C1427.48 380.965 1427.37 381.922 1427.89 382.579L1431.48 387.134L1426.92 389.738C1425.72 390.42 1424.99 391.684 1424.99 393.06C1424.99 394.355 1425.49 395.601 1426.37 396.546L1429.88 400.287L1437.98 395.069Z" fill="#F798B3"/>
<path d="M1455.18 627.924H1468.76V618.413H1461.36L1453.8 622.668C1451.28 624.082 1452.29 627.924 1455.18 627.924Z" fill="#111F54"/>
<path d="M1508.86 627.924H1522.44V618.413H1515.04L1507.49 622.668C1504.97 624.082 1505.97 627.924 1508.86 627.924Z" fill="#111F54"/>
<path d="M1498.83 445.628H1477.6V466.86H1498.83V445.628Z" fill="#2747B2"/>
<path d="M1506.97 466.722L1503.52 462.492C1502.73 461.528 1501.55 460.971 1500.31 460.978L1496.36 461.003C1495.36 461.009 1494.48 461.685 1494.22 462.655L1493.01 467.185C1492.54 468.968 1493.59 470.802 1495.37 471.283L1505.52 474.037L1506.97 466.722Z" fill="#F798B3"/>
<path d="M1300.95 434.04H1279.72V455.271H1300.95V434.04Z" fill="#B7B9F0"/>
<path d="M1319.93 389.662H1298.7V410.893H1319.93V389.662Z" fill="#566CD3"/>
<path d="M1272.4 404.38H1251.17V425.611H1272.4V404.38Z" fill="#111F54"/>
<path d="M1461.37 618.413H1468.76L1481.44 569.111H1467.22C1463.9 596.011 1461.37 618.413 1461.37 618.413Z" fill="#F798B3"/>
<path d="M1509.68 569.111L1515.06 618.413H1522.45L1524.06 569.111H1509.68Z" fill="#F798B3"/>
<path d="M1520.67 487.227H1478.8C1475.58 503.678 1470.91 539.182 1467.22 569.105H1481.44H1509.68H1524.06L1525.89 513.032C1526.17 504.147 1524.38 495.312 1520.67 487.227Z" fill="#B7B9F0"/>
<path d="M1778.1 462.054H1717.56C1712.51 462.054 1708.42 466.146 1708.42 471.196V550.677C1708.42 555.726 1712.51 559.819 1717.56 559.819H1746.85V613.363L1737 619.633C1736.11 618.713 1734.87 618.137 1733.49 618.137C1730.79 618.137 1728.6 620.327 1728.6 623.024C1728.6 625.721 1730.79 627.911 1733.49 627.911C1736.19 627.911 1738.38 625.721 1738.38 623.024C1738.38 622.411 1738.25 621.829 1738.04 621.285L1747.83 615.059L1757.62 621.285C1757.41 621.829 1757.29 622.411 1757.29 623.024C1757.29 625.721 1759.48 627.911 1762.17 627.911C1764.87 627.911 1767.06 625.721 1767.06 623.024C1767.06 620.321 1764.87 618.137 1762.17 618.137C1760.79 618.137 1759.55 618.713 1758.66 619.633L1748.81 613.363V559.819H1778.1C1783.15 559.819 1787.24 555.726 1787.24 550.677V471.202C1787.25 466.152 1783.15 462.054 1778.1 462.054Z" fill="#B7B9F0"/>
<path d="M1602.53 516.299C1602.53 513.007 1605.21 510.335 1608.5 510.335H1590.94C1587.65 510.335 1584.98 513.007 1584.98 516.299C1584.98 519.59 1587.65 522.262 1590.94 522.262H1608.5C1605.21 522.262 1602.53 519.59 1602.53 516.299Z" fill="#779AF8"/>
<path d="M1608.49 510.336C1605.2 510.336 1602.53 513.008 1602.53 516.299C1602.53 519.591 1605.2 522.262 1608.49 522.262H1624.73V510.336H1608.49Z" fill="#B7B9F0"/>
<path d="M1608.5 520.304C1606.29 520.304 1604.49 518.508 1604.49 516.299C1604.49 514.09 1606.29 512.294 1608.5 512.294H1624.73V520.31H1608.5V520.304Z" fill="#E5E9FF"/>
<path d="M1617.24 502.926H1580.74V510.335H1617.24V502.926Z" fill="#2747B2"/>
<path d="M1613.29 505.654H1584.69V507.613H1613.29V505.654Z" fill="#111F54"/>
<path d="M1609.42 492.978H1592.22C1594.97 492.978 1597.2 495.205 1597.2 497.952C1597.2 500.699 1594.97 502.927 1592.22 502.927H1609.42C1612.16 502.927 1614.39 500.699 1614.39 497.952C1614.39 495.205 1612.16 492.978 1609.42 492.978Z" fill="#566CD3"/>
<path d="M1597.2 497.953C1597.2 495.206 1594.97 492.978 1592.22 492.978H1580.73V502.927H1592.22C1594.97 502.927 1597.2 500.7 1597.2 497.953Z" fill="#779AF8"/>
<path d="M1580.74 500.969V494.93H1592.23C1593.89 494.93 1595.24 496.282 1595.24 497.946C1595.24 499.611 1593.89 500.962 1592.23 500.962H1580.74V500.969Z" fill="#E5E9FF"/>
<path d="M1699.36 627.924H1712.96V618.4H1705.55L1697.98 622.655C1695.46 624.076 1696.47 627.924 1699.36 627.924Z" fill="#F798B3"/>
<path d="M1730.58 627.924H1744.18V618.4H1736.77L1729.2 622.655C1726.67 624.076 1727.68 627.924 1730.58 627.924Z" fill="#F798B3"/>
<path d="M1708.98 531.342L1708.99 531.467C1703.19 532.28 1698.87 537.487 1699.37 543.5L1705.55 618.4H1712.96L1719.71 548.975H1731.05L1736.77 618.4H1744.18L1750.93 548.975H1757.85C1764.77 548.975 1770.53 543.625 1771.03 536.717L1771.42 531.342H1708.98Z" fill="#2747B2"/>
<path d="M1797.01 507.939L1783.72 482.397C1779.41 474.112 1770.85 468.918 1761.51 468.918H1749.37L1745.37 473.18L1740.2 468.918L1735.07 473.18L1731.19 468.918H1723.06C1711.66 468.918 1701.69 476.628 1698.82 487.659L1692.69 511.306L1668.49 515.129L1669.54 523.232H1708.29L1708.98 531.336H1771.42L1772.1 523.232H1787.72C1795.58 523.239 1800.64 514.904 1797.01 507.939ZM1772.98 512.87L1773.69 504.448L1778.21 509.278L1772.98 512.87Z" fill="#779AF8"/>
<path d="M1741.39 441.311V445.253H1745.33C1747.95 445.253 1750.06 447.374 1750.06 449.984C1750.06 452.599 1747.94 454.714 1745.33 454.714V459.013C1751.09 457.536 1755.36 452.318 1755.36 446.091C1755.36 438.714 1749.38 432.738 1742.01 432.738H1737.33C1730.42 432.738 1724.82 438.339 1724.82 445.247L1741.39 441.311Z" fill="#111F54"/>
<path d="M1745.33 445.259H1741.39V441.317L1724.82 445.259V451.673C1724.82 456.41 1728.66 460.245 1733.4 460.245H1735.08V465.114L1740.2 468.918L1745.33 465.114V460.245V459.025V454.726C1747.95 454.726 1750.06 452.605 1750.06 449.996C1750.06 447.374 1747.95 445.259 1745.33 445.259Z" fill="#F798B3"/>
<path d="M1731.2 468.919L1735.07 473.18L1740.21 468.919L1735.07 465.114L1731.2 468.919Z" fill="white"/>
<path d="M1745.33 465.114L1740.2 468.918L1745.37 473.18L1749.37 468.918L1745.33 465.114Z" fill="white"/>
<path d="M1737.44 445.609C1735.78 445.609 1734.41 446.842 1734.17 448.444H1732.18C1731.94 446.842 1730.57 445.609 1728.91 445.609C1727.08 445.609 1725.59 447.099 1725.59 448.932C1725.59 450.765 1727.08 452.255 1728.91 452.255C1730.57 452.255 1731.94 451.022 1732.18 449.42H1734.17C1734.41 451.016 1735.78 452.255 1737.44 452.255C1739.28 452.255 1740.77 450.765 1740.77 448.932C1740.76 447.099 1739.27 445.609 1737.44 445.609ZM1728.91 451.279C1727.61 451.279 1726.56 450.227 1726.56 448.932C1726.56 447.637 1727.61 446.586 1728.91 446.586C1730.2 446.586 1731.26 447.637 1731.26 448.932C1731.26 450.227 1730.2 451.279 1728.91 451.279ZM1737.44 451.279C1736.15 451.279 1735.1 450.227 1735.1 448.932C1735.1 447.637 1736.15 446.586 1737.44 446.586C1738.74 446.586 1739.79 447.637 1739.79 448.932C1739.78 450.227 1738.73 451.279 1737.44 451.279Z" fill="white"/>
<path d="M1709.72 487.377H1708.25V518.47H1709.72V487.377Z" fill="#618AF7"/>
<path d="M1729.8 454.332C1729.6 455.296 1730.12 457.861 1731.86 457.886C1733.59 457.911 1735.9 455.383 1736.1 454.42C1736.29 453.456 1734.31 454.432 1732.57 454.407C1730.83 454.388 1730 453.375 1729.8 454.332Z" fill="white"/>
<path d="M1744.53 523.239C1744.53 518.765 1748.16 515.135 1752.63 515.135C1757.11 515.135 1760.74 518.765 1760.74 523.239H1744.53Z" fill="white"/>
<path d="M1754.71 513.433L1754.5 513.608C1753.43 514.491 1753.14 516.018 1753.83 517.219L1757.28 523.239H1769.69V515.135L1766.43 512.92C1764.89 511.869 1763.07 511.312 1761.2 511.312H1760.62C1758.46 511.312 1756.37 512.063 1754.71 513.433Z" fill="#F798B3"/>
<path d="M1668.31 512.501V502.927H1651.49V512.501C1651.49 515.041 1649.43 517.093 1646.9 517.093C1644.36 517.093 1642.3 519.152 1642.3 521.686V522.256H1651.5H1668.32H1677.51V521.686C1677.51 519.146 1675.45 517.093 1672.92 517.093C1670.37 517.1 1668.31 515.041 1668.31 512.501Z" fill="#111F54"/>
<path d="M1693.94 502.927H1625.87C1624.27 502.927 1622.96 501.625 1622.96 500.024V455.196C1622.96 453.594 1624.27 452.292 1625.87 452.292H1693.94C1695.54 452.292 1696.85 453.594 1696.85 455.196V500.024C1696.85 501.625 1695.54 502.927 1693.94 502.927Z" fill="#E5E9FF"/>
<path d="M1659.9 483.335C1663.07 483.335 1665.63 480.769 1665.63 477.603C1665.63 474.438 1663.07 471.872 1659.9 471.872C1656.73 471.872 1654.17 474.438 1654.17 477.603C1654.17 480.769 1656.73 483.335 1659.9 483.335Z" fill="#F7B75C"/>
<path d="M1640.41 426.506H1617.17C1615.22 426.506 1613.64 428.089 1613.64 430.041V445.491V452.292L1620.44 445.491H1640.41C1642.36 445.491 1643.95 443.908 1643.95 441.955V430.048C1643.95 428.089 1642.36 426.506 1640.41 426.506Z" fill="#8CDEF1"/>
<path d="M1669.23 400.719H1629.09C1627.13 400.719 1625.55 402.302 1625.55 404.255V416.162C1625.55 418.115 1627.13 419.698 1629.09 419.698H1665.97L1672.77 426.5V419.698V404.248C1672.78 402.302 1671.19 400.719 1669.23 400.719Z" fill="#8CDEF1"/>
<path d="M1633.42 431.374C1630.86 428.827 1626.72 428.827 1624.17 431.374C1621.62 433.921 1621.62 438.069 1624.17 440.622C1625.44 441.899 1627.12 442.531 1628.79 442.531C1630.47 442.531 1632.14 441.893 1633.42 440.622C1635.96 438.069 1635.96 433.921 1633.42 431.374ZM1625.55 432.757C1626.45 431.862 1627.62 431.418 1628.79 431.418C1629.66 431.418 1630.51 431.662 1631.26 432.144L1624.94 438.47C1623.8 436.693 1624.01 434.302 1625.55 432.757ZM1632.03 439.233C1630.48 440.785 1628.1 440.985 1626.32 439.846L1632.65 433.52C1633.79 435.297 1633.59 437.688 1632.03 439.233Z" fill="#2747B2"/>
<path d="M1667.42 404.736H1630.91V406.201H1667.42V404.736Z" fill="#4DCCE9"/>
<path d="M1667.42 409.479H1630.91V410.944H1667.42V409.479Z" fill="#4DCCE9"/>
<path d="M1656.76 414.223H1630.91V415.687H1656.76V414.223Z" fill="#4DCCE9"/>
<path d="M1583.74 522.262V627.924H1585.7V531.342H1810.13V627.924H1812.09V522.262H1583.74Z" fill="#566CD3"/>
</svg>
