<svg width="1920" height="474" viewBox="0 0 1920 474" fill="none" xmlns="http://www.w3.org/2000/svg">
<path d="M535 474.727C535 459.281 547.52 446.76 562.966 446.76H1395.03C1410.48 446.76 1423 459.281 1423 474.727" fill="#D1D6EB"/>
<path d="M1336.65 225.753H1035.22V474.589H1336.65V225.753Z" fill="#9397DE"/>
<path d="M1177.59 368.002L1169.55 371.763C1169.09 371.976 1168.8 372.431 1168.8 372.93C1168.8 373.642 1169.38 374.22 1170.09 374.22H1188.17V368.002H1177.59Z" fill="#382D57"/>
<path d="M1153.97 364.146L1150.95 372.495C1150.78 372.964 1150.89 373.493 1151.25 373.844C1151.75 374.348 1152.57 374.348 1153.07 373.844L1165.85 361.062L1161.46 356.663L1153.97 364.146Z" fill="#382D57"/>
<path d="M1140.61 311.644L1177.59 367.997H1188.17L1150.87 302.391H1134.54H1128.95H1114.28L1102.12 325.889C1099.35 331.232 1101.49 337.806 1106.86 340.505L1153.97 364.142L1161.46 356.658L1116.79 329.843L1124.85 311.644H1140.61Z" fill="#E2E5F2"/>
<path d="M1076.26 260.481L1052.06 241.763V239.281C1052.06 237.532 1050.9 235.994 1049.22 235.515C1047.32 234.976 1045.28 235.54 1043.94 236.983L1041.39 239.711L1046.13 246.715L1070.13 269.086C1072.76 271.538 1076.22 272.897 1079.81 272.897H1088.04L1083.69 260.481H1076.26Z" fill="#B26246"/>
<path d="M1146.47 273.757C1145.3 266.121 1138.73 260.481 1131 260.481H1092.82V260.486H1083.68L1088.04 272.902H1099.18L1114.28 302.396C1114.3 302.49 1150.87 302.396 1150.87 302.396L1146.47 273.757Z" fill="#BAC7F4"/>
<path d="M1050.65 242.672C1050.02 242.455 1049.68 241.763 1049.89 241.135L1051.54 236.306C1051.76 235.673 1052.45 235.337 1053.08 235.549C1053.71 235.767 1054.05 236.459 1053.84 237.087L1052.19 241.916C1051.97 242.548 1051.28 242.885 1050.65 242.672Z" fill="#B26246"/>
<path d="M1115.33 237.784C1114.13 235.752 1108.1 234.561 1105.77 237.784C1103.04 241.57 1106.29 244.827 1106.29 244.827V241.916H1112.84L1115.68 244.362V247.259C1115.68 247.56 1115.93 247.808 1116.23 247.808C1116.5 247.808 1116.72 247.625 1116.77 247.368C1116.97 246.142 1118.04 245.213 1119.33 245.213C1119.55 245.213 1119.76 245.247 1119.97 245.302C1120.21 245.361 1120.43 245.46 1120.65 245.583C1121.08 243.705 1121.35 241.08 1120.03 239.449C1118.43 237.457 1115.33 237.784 1115.33 237.784Z" fill="#382D57"/>
<path d="M1120.65 245.588C1120.44 245.465 1120.21 245.371 1119.97 245.306C1119.76 245.252 1119.55 245.217 1119.33 245.217C1118.04 245.217 1116.98 246.152 1116.77 247.373C1116.72 247.63 1116.5 247.812 1116.23 247.812C1115.93 247.812 1115.69 247.565 1115.69 247.264V244.367L1112.84 241.921H1106.29V252.513C1106.29 254.184 1107.85 255.424 1109.47 255.044L1112.55 254.238V260.857C1113.03 261.237 1113.91 261.825 1115.13 262.058C1117.64 262.532 1119.59 261.143 1119.97 260.857C1119.97 257.352 1119.97 253.848 1119.97 250.343C1119.97 250.333 1119.98 250.323 1119.99 250.318C1121.1 250.027 1121.92 249.019 1121.92 247.817C1121.93 246.863 1121.41 246.038 1120.65 245.588Z" fill="#B26246"/>
<path d="M1107.49 247.956H1105.42C1104.6 247.956 1103.94 247.294 1103.94 246.478V244.743C1103.94 243.928 1104.6 243.265 1105.42 243.265H1107.49C1108.31 243.265 1108.97 243.928 1108.97 244.743V246.478C1108.97 247.294 1108.31 247.956 1107.49 247.956ZM1105.42 243.745C1104.87 243.745 1104.42 244.195 1104.42 244.743V246.478C1104.42 247.027 1104.87 247.477 1105.42 247.477H1107.49C1108.04 247.477 1108.49 247.027 1108.49 246.478V244.743C1108.49 244.195 1108.04 243.745 1107.49 243.745H1105.42Z" fill="#382D57"/>
<path d="M1112.97 248.089H1110.89C1110.08 248.089 1109.41 247.427 1109.41 246.611V244.876C1109.41 244.061 1110.08 243.399 1110.89 243.399H1112.97C1113.78 243.399 1114.45 244.061 1114.45 244.876V246.611C1114.45 247.427 1113.78 248.089 1112.97 248.089ZM1110.89 243.883C1110.34 243.883 1109.89 244.333 1109.89 244.881V246.616C1109.89 247.165 1110.34 247.615 1110.89 247.615H1112.97C1113.52 247.615 1113.97 247.165 1113.97 246.616V244.881C1113.97 244.333 1113.52 243.883 1112.97 243.883H1110.89Z" fill="#382D57"/>
<path d="M1107.18 246.75C1107.51 246.75 1107.78 246.323 1107.78 245.796C1107.78 245.269 1107.51 244.842 1107.18 244.842C1106.85 244.842 1106.59 245.269 1106.59 245.796C1106.59 246.323 1106.85 246.75 1107.18 246.75Z" fill="#382D57"/>
<path d="M1112.32 245.77C1112.35 245.243 1112.1 244.804 1111.77 244.789C1111.44 244.773 1111.15 245.187 1111.13 245.713C1111.1 246.24 1111.35 246.679 1111.68 246.694C1112.01 246.71 1112.3 246.296 1112.32 245.77Z" fill="#382D57"/>
<path d="M1111.44 250.146C1111.36 250.936 1110.2 252.938 1108.6 252.775C1107 252.612 1106.62 250.314 1106.7 249.523C1106.78 248.732 1107.3 249.755 1108.89 249.918C1110.49 250.076 1111.52 249.355 1111.44 250.146Z" fill="white"/>
<path d="M1117.14 246.196L1114.03 245.391L1114.21 244.946L1117.32 245.756L1117.14 246.196Z" fill="#382D57"/>
<path d="M1109.61 244.659H1108.78V245.139H1109.61V244.659Z" fill="#382D57"/>
<path d="M1172.83 396.799L980.703 157.987V396.799V474.593H1235.06L1172.83 396.799Z" fill="#E2E5F2"/>
<path d="M980.703 157.987H767.312V474.593H980.703V157.987Z" fill="#BAC7F4"/>
<path d="M801.119 353.164H609.758V474.594H801.119V353.164Z" fill="white"/>
<path d="M801.119 327.55H609.758V353.164H801.119V327.55Z" fill="#EE5E60"/>
<path d="M573.41 474.589H609.76V353.164L573.41 474.589Z" fill="#382D57"/>
<path d="M634.037 336.422V335.79C638.58 335.79 642.282 332.092 642.282 327.545C642.282 322.998 638.585 319.3 634.037 319.3C629.495 319.3 625.793 322.998 625.793 327.545H625.16C625.16 322.652 629.139 318.668 634.037 318.668C638.931 318.668 642.915 322.647 642.915 327.545C642.915 332.443 638.931 336.422 634.037 336.422Z" fill="#382D57"/>
<path d="M669.741 336.422V335.79C674.283 335.79 677.985 332.092 677.985 327.545C677.985 322.998 674.288 319.3 669.741 319.3C665.198 319.3 661.496 322.998 661.496 327.545H660.863C660.863 322.652 664.842 318.668 669.741 318.668C674.634 318.668 678.618 322.647 678.618 327.545C678.613 332.443 674.634 336.422 669.741 336.422Z" fill="#382D57"/>
<path d="M705.436 336.422V335.79C709.978 335.79 713.68 332.092 713.68 327.545C713.68 322.998 709.983 319.3 705.436 319.3C700.893 319.3 697.191 322.998 697.191 327.545H696.559C696.559 322.652 700.538 318.668 705.436 318.668C710.334 318.668 714.313 322.647 714.313 327.545C714.313 332.443 710.329 336.422 705.436 336.422Z" fill="#382D57"/>
<path d="M741.139 336.422V335.79C745.681 335.79 749.384 332.092 749.384 327.545C749.384 322.998 745.686 319.3 741.139 319.3C736.597 319.3 732.894 322.998 732.894 327.545H732.262C732.262 322.652 736.241 318.668 741.139 318.668C746.032 318.668 750.016 322.647 750.016 327.545C750.011 332.443 746.032 336.422 741.139 336.422Z" fill="#382D57"/>
<path d="M776.838 336.422V335.79C781.381 335.79 785.083 332.092 785.083 327.545C785.083 322.998 781.386 319.3 776.838 319.3C772.296 319.3 768.594 322.998 768.594 327.545H767.961C767.961 322.652 771.94 318.668 776.838 318.668C781.732 318.668 785.715 322.647 785.715 327.545C785.711 332.443 781.732 336.422 776.838 336.422Z" fill="#382D57"/>
<path d="M785.948 377.843V377.21H778.598V366.563H777.965V377.21H749.46V366.563H748.827V377.21H720.322V366.563H719.689V377.21H691.184V366.563H690.551V377.21H662.046V366.563H661.414V377.21H632.908V366.563H632.276V377.21H624.926V377.843H632.276V401.445H624.926V402.078H632.276V425.679H624.926V426.312H632.276V449.914H624.926V450.547H632.276V461.194H632.908V450.547H661.414V461.194H662.046V450.547H690.551V461.194H691.184V450.547H719.689V461.194H720.322V450.547H748.827V461.194H749.46V450.547H777.965V461.194H778.598V450.547H785.948V449.914H778.598V426.312H785.948V425.679H778.598V402.078H785.948V401.445H778.598V377.843H785.948ZM748.832 377.843V401.445H720.327V377.843H748.832ZM691.189 402.078H719.694V425.679H691.189V402.078ZM690.556 425.675H662.051V402.073H690.556V425.675ZM720.327 402.078H748.832V425.679H720.327V402.078ZM719.694 377.843V401.445H691.189V377.843H719.694ZM690.556 377.843V401.445H662.051V377.843H690.556ZM632.913 377.843H661.419V401.445H632.913V377.843ZM632.913 402.078H661.419V425.679H632.913V402.078ZM632.913 449.909V426.307H661.419V449.909H632.913ZM662.051 449.909V426.307H690.556V449.909H662.051ZM691.189 449.909V426.307H719.694V449.909H691.189ZM720.327 449.909V426.307H748.832V449.909H720.327ZM777.97 449.909H749.465V426.307H777.97V449.909ZM777.97 425.675H749.465V402.073H777.97V425.675ZM777.97 401.445H749.465V377.843H777.97V401.445Z" fill="#382D57"/>
<path d="M692.223 376.691L694.615 382.43L711.302 375.48C711.959 375.209 712.271 374.452 711.994 373.795C711.801 373.335 711.361 373.024 710.862 373.004L701.995 372.623L695.846 375.184L692.223 376.691Z" fill="#F183A2"/>
<path d="M660.316 383.75H678.392C679.104 383.75 679.682 383.171 679.682 382.46C679.682 381.96 679.391 381.506 678.941 381.293L670.899 377.532H660.316V383.75Z" fill="#F183A2"/>
<path d="M692.223 376.691L695.841 375.184L692.223 376.691Z" fill="#9397DE"/>
<path d="M689.462 322.874C688.528 319.157 685.186 316.552 681.351 316.552H680.53H658.767H653.824L655.821 320.872C654.798 323.062 656.394 327.545 658.812 327.545H660.319V377.527H670.902L673.373 327.545H678.39L692.225 376.691L695.843 375.184L701.992 372.623L689.462 322.874Z" fill="#9397DE"/>
<path d="M620.141 326.636V327.55H629.141C629.557 327.55 629.947 327.337 630.17 326.987L631.489 324.93L625.163 322.054L621.619 324.085C620.704 324.604 620.141 325.578 620.141 326.636Z" fill="#F183A2"/>
<path d="M698.204 299.732L689.732 286.109C687.453 282.447 683.445 280.218 679.13 280.218H667.366H660.673H656.249C651.761 280.218 647.619 282.625 645.4 286.525L625.164 322.044L631.491 324.92L652.868 295.056L653.827 316.547H680.538L682.476 293.988L690.182 304.428C691.912 306.775 694.655 308.159 697.571 308.159H716.062V301.304L698.204 299.732Z" fill="#BAC7F4"/>
<path d="M717.834 300.142L716.055 301.313V308.169H721.106C722.554 308.169 723.731 306.993 723.731 305.544V302.579L720.325 300.182C719.584 299.658 718.595 299.643 717.834 300.142Z" fill="#F183A2"/>
<path d="M673.218 273.733L676.47 275.201C678.2 275.922 680.153 274.85 680.469 273.001L682.461 261.287L673.351 259.74L669.768 261.914L669.397 264.104C669.036 263.264 668.27 262.621 667.301 262.458C667.099 262.424 666.896 262.414 666.698 262.424H666.684C666.219 262.448 665.774 262.592 665.389 262.824C664.716 263.229 664.217 263.911 664.079 264.742C663.856 266.047 664.583 267.292 665.754 267.782L663.461 281.122C663.58 281.315 664.884 283.371 667.395 283.529C669.219 283.643 670.979 282.714 671.963 281.122C672.383 278.661 672.803 276.199 673.218 273.733Z" fill="#F183A2"/>
<path d="M666.698 262.428C666.896 262.419 667.099 262.428 667.301 262.463C668.27 262.626 669.031 263.274 669.397 264.109L669.768 261.914L671.735 260.718C672.778 260.086 674.014 259.848 675.215 260.056L682.461 261.287C682.461 261.287 685.723 256.838 681.443 253.907C680.948 253.571 680.241 253.719 679.97 254.253C679.643 254.881 678.932 255.504 677.36 255.182C674.503 254.594 670.326 253.986 668.473 255.914C668.473 255.914 663.342 255.212 665.388 262.829C665.774 262.597 666.214 262.453 666.683 262.428H666.698Z" fill="#382D57"/>
<path d="M675.687 266.432C676.014 266.432 676.28 266.007 676.28 265.483C676.28 264.959 676.014 264.534 675.687 264.534C675.359 264.534 675.094 264.959 675.094 265.483C675.094 266.007 675.359 266.432 675.687 266.432Z" fill="#382D57"/>
<path d="M681.285 266.175C681.343 265.654 681.126 265.202 680.801 265.166C680.475 265.129 680.164 265.522 680.106 266.043C680.047 266.564 680.264 267.016 680.589 267.052C680.915 267.088 681.226 266.696 681.285 266.175Z" fill="#382D57"/>
<path d="M680.159 270.97C680.05 271.751 678.973 273.723 677.648 273.54C676.323 273.357 675.251 271.093 675.355 270.307C675.463 269.526 676.709 270.525 678.034 270.708C679.363 270.891 680.268 270.189 680.159 270.97Z" fill="white"/>
<path d="M716.975 302.263C716.585 301.803 716.639 301.106 717.099 300.711L719.526 298.64C719.986 298.249 720.682 298.303 721.078 298.763C721.468 299.223 721.414 299.92 720.954 300.315L718.527 302.386C718.063 302.777 717.366 302.722 716.975 302.263Z" fill="#F183A2"/>
<path d="M752.099 280.223H722.961V304.452H752.099V280.223Z" fill="#382D57"/>
<path d="M733.312 285.17H727.41V291.072H733.312V285.17Z" fill="white"/>
<path d="M747.645 286.01H737.211V286.643H747.645V286.01Z" fill="white"/>
<path d="M747.645 290.405H737.211V291.037H747.645V290.405Z" fill="white"/>
<path d="M747.651 294.799H727.41V295.432H747.651V294.799Z" fill="white"/>
<path d="M741.537 299.188H727.41V299.821H741.537V299.188Z" fill="white"/>
<path d="M690.553 426.307H632.91V449.909H690.553V426.307Z" fill="#F183A2"/>
<path d="M650.192 434.883L651.59 433.484L651.146 433.039L649.747 434.438C648.659 433.45 647.241 432.827 645.679 432.753V431.047H646.944V430.415H643.781V431.047H645.046V432.753C641.591 432.921 638.828 435.773 638.828 439.272C638.828 442.876 641.759 445.807 645.363 445.807C648.966 445.807 651.897 442.876 651.897 439.272C651.892 437.582 651.244 436.045 650.192 434.883ZM645.358 445.169C642.1 445.169 639.456 442.52 639.456 439.267C639.456 436.01 642.105 433.366 645.358 433.366C646.87 433.366 648.249 433.944 649.297 434.883L645.135 439.045L645.58 439.49L649.742 435.328C650.681 436.376 651.259 437.75 651.259 439.267C651.259 442.525 648.615 445.169 645.358 445.169Z" fill="white"/>
<path d="M686.996 432.698H658.535V433.331H686.996V432.698Z" fill="#382D57"/>
<path d="M686.996 437.794H658.535V438.427H686.996V437.794Z" fill="#382D57"/>
<path d="M681.307 442.885H658.535V443.518H681.307V442.885Z" fill="white"/>
<path d="M801.437 327.55H800.805V474.593H801.437V327.55Z" fill="#382D57"/>
<path d="M981.019 157.987H980.387V474.593H981.019V157.987Z" fill="#382D57"/>
<path d="M814.084 365.412H833.41V373.523L837.305 376.157L839.001 375.831L850.962 373.543L849.805 369.836C850.196 369.855 850.572 369.855 850.937 369.85C854.892 369.776 857.531 368.284 859.137 366.88C860.581 365.624 861.204 364.448 861.204 364.448L860.996 363.983L856.617 354.236C854.847 350.302 850.937 347.766 846.622 347.766H838.956V351.251C838.956 352.388 838.037 353.307 836.9 353.307H836.109H828.003C826.866 353.307 825.947 352.388 825.947 351.251V347.766H825.437C821.137 347.766 817.232 350.282 815.458 354.202L812.008 361.957L816.362 365.407H821.498H814.084V365.412Z" fill="#9397DE"/>
<path d="M853.747 382.435H837.313H833.418V383.493V389.646H832.246H824.501H822.87L812.129 417.904C812.129 417.904 815.376 419.867 820.833 421.686C823.656 422.625 827.066 423.529 830.926 424.103C835.751 424.819 841.272 425.012 847.213 424.127C849.996 423.712 852.868 423.06 855.804 422.106C858.794 421.137 861.849 419.867 864.938 418.221L853.747 382.435Z" fill="#9397DE"/>
<path d="M855.802 422.101C852.866 423.05 849.994 423.707 847.211 424.122L857.877 468.37H866.562L855.802 422.101Z" fill="#F183A2"/>
<path d="M815.477 468.37H824.161L830.923 424.098C827.063 423.524 823.652 422.625 820.83 421.681L815.477 468.37Z" fill="#F183A2"/>
<path d="M810.672 361.724H808.29C807.158 361.724 806.238 362.644 806.238 363.776V365.422V365.862C806.238 366.835 807.029 367.626 808.003 367.626H814.967L816.356 365.417L813.099 362.619C812.427 362.041 811.562 361.724 810.672 361.724Z" fill="#F183A2"/>
<path d="M825.484 341.884L828.538 341.083V347.825H825.069V351.745C825.069 353.02 826.102 354.058 827.382 354.058H836.501H837.391C838.666 354.058 839.704 353.025 839.704 351.745V347.825H835.967L835.977 347.82V340.629V337.065C837.06 336.758 837.856 335.775 837.856 334.593C837.856 333.412 837.06 332.433 835.977 332.122C835.75 332.058 835.518 332.013 835.275 332.013C834.771 332.013 834.302 332.171 833.901 332.419C833.896 332.419 833.896 332.419 833.891 332.419C832.097 331.128 831.539 328.845 831.539 328.845C827.891 333.249 822.32 333.244 822.32 333.244V339.363C822.325 341.029 823.867 342.255 825.484 341.884Z" fill="#F183A2"/>
<path d="M823.836 334.909C824.161 334.872 824.378 334.42 824.32 333.9C824.261 333.379 823.95 332.986 823.625 333.022C823.299 333.059 823.082 333.511 823.141 334.032C823.199 334.553 823.51 334.945 823.836 334.909Z" fill="#4184E5"/>
<path d="M828.296 334.233C828.624 334.233 828.889 333.808 828.889 333.284C828.889 332.759 828.624 332.334 828.296 332.334C827.969 332.334 827.703 332.759 827.703 333.284C827.703 333.808 827.969 334.233 828.296 334.233Z" fill="#4184E5"/>
<path d="M823.201 337.964C823.077 338.651 823.483 340.465 824.713 340.456C825.949 340.446 827.546 338.617 827.669 337.935C827.793 337.253 826.399 337.969 825.163 337.974C823.932 337.984 823.329 337.277 823.201 337.964Z" fill="white"/>
<path d="M857.341 355.793L860.643 363.351C866.203 358.388 864.617 351.518 858.166 350.845C857.272 350.751 856.387 350.499 855.646 349.985C851.642 347.207 854.385 343.184 850.767 340.782C849.472 339.922 847.95 339.492 846.477 338.992C842.611 337.678 841.697 335.829 840.521 332.152C839.932 330.308 838.618 326.7 835.973 325.385C835.973 325.385 835.973 325.39 835.968 325.39C834.51 324.485 832.795 324.006 831.09 324.006C826.73 324.006 820.596 325.874 822.316 333.254C822.316 333.254 827.887 333.264 831.535 328.855C831.535 328.855 832.093 331.138 833.887 332.428C833.892 332.428 833.892 332.428 833.897 332.428C834.298 332.176 834.762 332.023 835.271 332.023C835.518 332.023 835.751 332.068 835.973 332.132C837.056 332.438 837.851 333.422 837.851 334.603C837.851 335.785 837.056 336.763 835.973 337.075V340.638V347.83L835.963 347.835H839.7H848.325C853.036 348.809 855.354 351.364 857.341 355.793Z" fill="#EDCC24"/>
<path d="M807.434 472.137C806.9 472.389 806.589 472.977 806.722 473.58C806.856 474.188 807.434 474.588 808.052 474.588H824.16V468.37H815.476L807.434 472.137Z" fill="#382D57"/>
<path d="M857.878 468.37L849.9 472.102C849.47 472.305 849.144 472.705 849.099 473.18C849.03 473.946 849.633 474.584 850.384 474.584H866.562V468.365H857.878V468.37Z" fill="#382D57"/>
<path d="M808.947 365.412L807.558 367.621L808.947 365.412H798.829H775.133V389.646H822.861H824.497H832.242H833.408V383.493V382.435L830.937 381.145L830.606 380.809L831.417 377.22L833.408 374.254V365.412H814.082H808.947Z" fill="#382D57"/>
<path d="M835.715 376.691C835.231 376.973 834.603 376.805 834.321 376.316L833.125 374.245C832.843 373.76 833.011 373.132 833.501 372.851C833.985 372.569 834.613 372.737 834.894 373.226L836.091 375.297C836.367 375.787 836.199 376.414 835.715 376.691Z" fill="#F183A2"/>
<path d="M857.805 382.435C860.687 382.435 862.768 379.677 861.982 376.904L859.135 366.88C857.523 368.284 854.884 369.776 850.935 369.85L852.165 373.31L850.959 373.543L838.998 375.831L837.302 376.157L835.637 375.03C834.267 374.106 832.493 374.027 831.05 374.833L830.699 375.025C829.977 375.431 829.527 376.192 829.527 377.017V381.08C829.527 381.827 830.13 382.43 830.877 382.43H833.403H837.297H853.732H857.805V382.435Z" fill="#F183A2"/>
<path d="M829.531 372.119H801.07V372.752H829.531V372.119Z" fill="white"/>
<path d="M829.531 377.21H801.07V377.843H829.531V377.21Z" fill="white"/>
<path d="M823.842 382.306H801.07V382.939H823.842V382.306Z" fill="#EB5168"/>
<path d="M789.782 385.223H786.011V384.007C786.011 383.611 785.754 383.369 785.517 383.27C785.279 383.171 784.924 383.166 784.647 383.443L783.787 384.303L781.122 381.639L781.983 380.779C782.259 380.502 782.254 380.146 782.156 379.909C782.057 379.672 781.81 379.415 781.419 379.415H780.203V375.643H781.419C781.814 375.643 782.057 375.386 782.156 375.149C782.254 374.912 782.259 374.556 781.983 374.279L781.122 373.419L783.787 370.755L784.647 371.615C784.924 371.892 785.279 371.887 785.517 371.788C785.754 371.689 786.011 371.442 786.011 371.052V369.836H789.782V371.052C789.782 371.447 790.039 371.689 790.277 371.788C790.514 371.887 790.87 371.892 791.146 371.615L792.007 370.755L794.671 373.419L793.811 374.279C793.534 374.556 793.539 374.912 793.638 375.149C793.737 375.386 793.984 375.643 794.379 375.643H795.595V379.415H794.379C793.984 379.415 793.741 379.672 793.643 379.909C793.544 380.146 793.539 380.502 793.816 380.779L794.676 381.639L792.011 384.303L791.151 383.443C790.875 383.166 790.519 383.171 790.281 383.27C790.044 383.369 789.787 383.616 789.787 384.007V385.223H789.782ZM786.644 384.59H789.15V384.007C789.15 383.418 789.486 382.909 790.034 382.682C790.578 382.455 791.176 382.573 791.596 382.993L792.007 383.404L793.776 381.634L793.366 381.224C792.951 380.809 792.832 380.211 793.054 379.662C793.282 379.118 793.786 378.777 794.379 378.777H794.962V376.271H794.379C793.791 376.271 793.282 375.93 793.054 375.386C792.827 374.843 792.946 374.245 793.366 373.824L793.776 373.414L792.007 371.645L791.596 372.055C791.181 372.475 790.583 372.589 790.034 372.366C789.491 372.139 789.15 371.635 789.15 371.042V370.458H786.644V371.042C786.644 371.63 786.303 372.139 785.759 372.366C785.215 372.589 784.617 372.475 784.197 372.055L783.787 371.645L782.017 373.414L782.427 373.824C782.843 374.24 782.961 374.838 782.739 375.386C782.511 375.93 782.007 376.271 781.414 376.271H780.831V378.777H781.414C782.002 378.777 782.511 379.118 782.739 379.662C782.966 380.206 782.848 380.804 782.427 381.224L782.017 381.634L783.787 383.404L784.197 382.993C784.612 382.578 785.21 382.459 785.759 382.682C786.303 382.909 786.644 383.413 786.644 384.007V384.59ZM787.894 380.052C786.5 380.052 785.368 378.92 785.368 377.527C785.368 376.133 786.5 375.001 787.894 375.001C789.288 375.001 790.42 376.133 790.42 377.527C790.42 378.92 789.288 380.052 787.894 380.052ZM787.894 375.638C786.851 375.638 786.001 376.489 786.001 377.532C786.001 378.574 786.851 379.425 787.894 379.425C788.937 379.425 789.787 378.574 789.787 377.532C789.787 376.489 788.942 375.638 787.894 375.638Z" fill="#BAC7F4"/>
<path d="M889.979 198.33C886.148 191.707 880.632 186.191 874.009 182.36L852.191 220.148H895.831C895.831 212.195 893.691 204.751 889.979 198.33Z" fill="#9397DE"/>
<path d="M836.488 229.84L858.306 267.628C864.929 263.798 870.445 258.281 874.276 251.658C877.993 245.237 880.128 237.793 880.128 229.84H836.488Z" fill="#382D57"/>
<path d="M858.306 192.053C851.885 188.336 844.441 186.2 836.488 186.2V229.84L858.306 192.053Z" fill="white"/>
<path d="M836.488 229.84V186.2C828.54 186.2 821.091 188.336 814.67 192.053C808.047 195.883 802.531 201.4 798.7 208.023C794.988 214.444 792.848 221.888 792.848 229.84C792.848 237.789 794.983 245.237 798.7 251.658C802.531 258.281 808.047 263.798 814.67 267.628C821.091 271.34 828.535 273.481 836.488 273.481C844.436 273.481 851.885 271.345 858.305 267.628L836.488 229.84Z" fill="#EE5E60"/>
<path d="M914.998 151.052C914.568 146.154 911.642 141.953 907.075 140.766C906.16 140.529 906.922 140.658 905.938 140.658H897.155H889.216C889.216 140.658 881.051 141.463 877.299 143.02L864.962 146.965C859.13 149.391 860.983 157.928 867.3 157.933H879.642V150.756L884.338 152.916L887.135 154.685L890.862 157.928H900.728L899.72 173.414L882.677 185.345L886.814 191.855L905.592 181.243C907.915 179.928 909.63 177.758 910.362 175.188L911.874 157.923H915.606L914.998 151.052Z" fill="#382D57"/>
<path d="M885.233 138.142L888.025 136.491L889.216 140.658C889.33 140.826 890.694 142.753 893.176 142.758C895.672 142.763 897.046 140.821 897.155 140.658C896.863 139.634 896.566 138.611 896.275 137.583L896.047 136.782C895.78 135.848 895.528 134.968 895.301 134.178L895.232 133.945L894.693 132.052C894.594 131.711 894.51 131.419 894.441 131.177L894.342 130.836L894.263 130.554C894.248 130.5 894.238 130.465 894.233 130.451L894.224 130.426C895.202 129.818 895.711 128.622 895.375 127.46C895.118 126.566 894.431 125.913 893.606 125.661C893.359 125.582 893.097 125.552 892.83 125.552C892.587 125.552 892.345 125.572 892.103 125.641C891.599 125.785 891.179 126.066 890.857 126.432C888.722 125.666 887.526 123.565 887.526 123.565C882.366 125.043 879.672 130.51 879.672 130.51L881.397 136.55C881.866 138.191 883.74 138.967 885.233 138.142Z" fill="#F183A2"/>
<path d="M873.672 188.361V191.766C873.672 193.046 874.29 194.252 875.328 195.004L877.142 196.313C878.664 197.411 880.745 197.302 882.139 196.047L886.81 191.86L882.673 185.35L875.946 185.894C874.66 186.003 873.672 187.075 873.672 188.361Z" fill="#F183A2"/>
<path d="M879.637 150.756V157.928H890.857V155.956C890.857 154.478 890.165 153.089 888.989 152.199L886.725 150.484C885.415 149.495 883.69 149.243 882.153 149.817L879.637 150.756Z" fill="#F183A2"/>
<path d="M885.596 130.357C885.928 130.307 886.132 129.835 886.051 129.303C885.971 128.772 885.636 128.381 885.304 128.432C884.972 128.482 884.768 128.954 884.849 129.486C884.93 130.017 885.264 130.407 885.596 130.357Z" fill="#382D57"/>
<path d="M881.131 132.011C881.455 131.925 881.605 131.433 881.466 130.914C881.326 130.394 880.951 130.044 880.626 130.13C880.302 130.217 880.152 130.709 880.291 131.228C880.43 131.748 880.806 132.098 881.131 132.011Z" fill="#382D57"/>
<path d="M881.606 134.78C881.833 135.556 883.232 137.39 884.547 137C885.862 136.609 886.603 134.148 886.376 133.372C886.148 132.596 885.036 133.797 883.722 134.187C882.402 134.578 881.379 133.999 881.606 134.78Z" fill="white"/>
<path d="M907.993 130.836C900.446 131.049 898.617 122.226 892.834 119.68V119.69C890.679 118.479 888.059 118.237 885.716 118.904C881.416 120.135 875.885 123.709 879.666 130.51C879.666 130.51 882.36 125.043 887.52 123.565C887.52 123.565 888.716 125.661 890.852 126.432C891.173 126.066 891.598 125.785 892.097 125.641C892.339 125.572 892.582 125.552 892.824 125.552C893.091 125.552 893.353 125.582 893.6 125.661C894.425 125.913 895.117 126.566 895.369 127.46C895.701 128.622 895.196 129.818 894.218 130.426L894.223 130.446L894.257 130.569L894.331 130.826C894.331 130.831 894.331 130.836 894.336 130.841L894.519 131.479L894.687 132.072L895.226 133.95C895.246 134.029 895.271 134.103 895.295 134.182L896.042 136.787C896.116 137.049 896.195 137.316 896.269 137.588L897.149 140.662L906.876 140.746C907.983 140.855 910.633 142.17 912.234 144.103C914.676 139.951 913.485 130.683 907.993 130.836Z" fill="#EE5E60"/>
<path d="M880.277 152.51C879.842 151.759 880.104 150.79 880.855 150.355L884.874 148.037C885.625 147.602 886.594 147.864 887.029 148.615C887.464 149.367 887.202 150.335 886.45 150.77L882.432 153.089C881.681 153.524 880.712 153.262 880.277 152.51Z" fill="#F183A2"/>
<path d="M874.67 184.041C875.075 183.274 876.034 182.978 876.805 183.383L880.908 185.553C881.674 185.958 881.97 186.917 881.565 187.688C881.16 188.454 880.201 188.751 879.43 188.346L875.327 186.176C874.561 185.766 874.265 184.807 874.67 184.041Z" fill="#F183A2"/>
<path d="M917.662 201.924H910.891V208.695H917.662V201.924Z" fill="white"/>
<path d="M955.376 203.303H924.598V203.935H955.376V203.303Z" fill="#382D57"/>
<path d="M944.838 206.688H924.598V207.321H944.838V206.688Z" fill="#382D57"/>
<path d="M917.662 218.279H910.891V225.051H917.662V218.279Z" fill="#9397DE"/>
<path d="M955.376 219.653H924.598V220.286H955.376V219.653Z" fill="#382D57"/>
<path d="M944.838 223.039H924.598V223.672H944.838V223.039Z" fill="#382D57"/>
<path d="M917.662 234.635H910.891V241.407H917.662V234.635Z" fill="#382D57"/>
<path d="M955.376 236.009H924.598V236.642H955.376V236.009Z" fill="#382D57"/>
<path d="M944.838 239.395H924.598V240.028H944.838V239.395Z" fill="#382D57"/>
<path d="M917.662 250.991H910.891V257.762H917.662V250.991Z" fill="#EE5E60"/>
<path d="M955.376 252.365H924.598V252.998H955.376V252.365Z" fill="#382D57"/>
<path d="M944.838 255.751H924.598V256.383H944.838V255.751Z" fill="#382D57"/>
<path d="M896.255 327.352H890.418V348.626H896.255V327.352Z" fill="white"/>
<path d="M909.541 303.997H903.703V348.621H909.541V303.997Z" fill="white"/>
<path d="M922.834 314.896H916.996V348.626H922.834V314.896Z" fill="white"/>
<path d="M936.119 307.423H930.281V348.621H936.119V307.423Z" fill="white"/>
<path d="M949.404 331.524H943.566V348.626H949.404V331.524Z" fill="white"/>
<path d="M894.837 321.396C894.837 322.227 894.165 322.899 893.335 322.899C892.504 322.899 891.832 322.227 891.832 321.396C891.832 320.566 892.504 319.894 893.335 319.894C894.165 319.894 894.837 320.566 894.837 321.396Z" fill="#EE5E60"/>
<path d="M908.126 297.854C908.126 298.684 907.454 299.356 906.624 299.356C905.793 299.356 905.121 298.684 905.121 297.854C905.121 297.023 905.793 296.351 906.624 296.351C907.454 296.351 908.126 297.023 908.126 297.854Z" fill="#EE5E60"/>
<path d="M921.415 308.841C921.415 309.672 920.743 310.344 919.913 310.344C919.082 310.344 918.41 309.672 918.41 308.841C918.41 308.011 919.082 307.339 919.913 307.339C920.743 307.339 921.415 308.011 921.415 308.841Z" fill="#EE5E60"/>
<path d="M934.701 301.556C934.701 302.386 934.028 303.058 933.198 303.058C932.368 303.058 931.695 302.386 931.695 301.556C931.695 300.725 932.368 300.053 933.198 300.053C934.028 300.053 934.701 300.725 934.701 301.556Z" fill="#EE5E60"/>
<path d="M947.993 325.523C947.993 326.354 947.321 327.026 946.491 327.026C945.66 327.026 944.988 326.354 944.988 325.523C944.988 324.693 945.66 324.021 946.491 324.021C947.321 324.026 947.993 324.698 947.993 325.523Z" fill="#EE5E60"/>
<path d="M879.822 348.626V282.882L875.195 287.513L875.714 288.032L879.09 284.661V348.626H875.457V349.358H879.09V352.991H879.822V349.358H959.485L956.109 352.734L956.633 353.253L961.259 348.626H879.822Z" fill="#382D57"/>
<path d="M855.013 292.021H792.848V292.654H855.013V292.021Z" fill="#382D57"/>
<path d="M855.013 298.995H792.848V299.628H855.013V298.995Z" fill="#382D57"/>
<path d="M855.013 305.97H792.848V306.602H855.013V305.97Z" fill="#382D57"/>
<path d="M843.22 312.944H792.848V313.577H843.22V312.944Z" fill="#382D57"/>
<path d="M903.04 404.875H883.709C881.726 404.875 880.125 403.269 880.125 401.292V381.96C880.125 379.978 881.731 378.377 883.709 378.377H903.04C905.022 378.377 906.623 379.983 906.623 381.96V401.292C906.623 403.269 905.017 404.875 903.04 404.875Z" fill="#382D57"/>
<path d="M903.04 444.843H883.709C881.726 444.843 880.125 443.236 880.125 441.259V421.933C880.125 419.951 881.731 418.349 883.709 418.349H903.04C905.022 418.349 906.623 419.956 906.623 421.933V441.259C906.623 443.236 905.017 444.843 903.04 444.843Z" fill="#EE5E60"/>
<path d="M893.691 430.805V428.986H893.058V430.805C892.134 430.958 891.422 431.759 891.422 432.723C891.422 433.8 892.297 434.675 893.374 434.675C894.452 434.675 895.327 433.8 895.327 432.723C895.327 431.759 894.62 430.958 893.691 430.805ZM893.374 434.048C892.648 434.048 892.055 433.454 892.055 432.728C892.055 432.001 892.648 431.408 893.374 431.408C894.101 431.408 894.694 432.001 894.694 432.728C894.694 433.454 894.101 434.048 893.374 434.048Z" fill="white"/>
<path d="M893.375 424.681C888.936 424.681 885.328 428.289 885.328 432.728C885.328 434.878 886.163 436.9 887.686 438.417L887.908 438.64L889.485 437.063L889.04 436.618L887.913 437.745C886.722 436.45 886.05 434.804 885.976 433.049H887.557V432.417H885.976C886.055 430.612 886.776 428.976 887.918 427.726L889.035 428.843L889.48 428.398L888.363 427.281C889.609 426.134 891.245 425.413 893.054 425.338V426.92H893.686V425.338C895.491 425.418 897.127 426.139 898.377 427.281L897.26 428.398L897.705 428.843L898.822 427.726C899.969 428.971 900.69 430.612 900.769 432.417H899.188V433.049H900.769C900.695 434.804 900.023 436.455 898.832 437.745L897.705 436.618L897.26 437.063L898.837 438.64L899.059 438.417C900.582 436.9 901.417 434.878 901.417 432.728C901.422 428.289 897.814 424.681 893.375 424.681Z" fill="white"/>
<path d="M893.375 383.582C888.936 383.582 885.328 387.19 885.328 391.628C885.328 396.067 888.936 399.675 893.375 399.675C897.814 399.675 901.422 396.067 901.422 391.628C901.422 387.19 897.814 383.582 893.375 383.582ZM889.826 391.623C889.826 390.778 889.94 390.007 890.123 389.305H893.059V393.947H890.123C889.94 393.245 889.826 392.474 889.826 391.623ZM896.444 388.673H893.691V384.55C894.408 385.173 895.733 386.547 896.444 388.673ZM893.059 384.55V388.673H890.31C891.022 386.547 892.342 385.173 893.059 384.55ZM893.059 394.579V398.702C892.342 398.079 891.017 396.705 890.306 394.579H893.059ZM893.691 398.702V394.579H896.444C895.733 396.7 894.408 398.079 893.691 398.702ZM893.691 393.947V389.305H896.632C896.81 390.007 896.929 390.778 896.929 391.623C896.929 392.469 896.815 393.24 896.632 393.942H893.691V393.947ZM897.285 389.305H900.414C900.656 390.037 900.789 390.813 900.789 391.623C900.789 392.434 900.656 393.215 900.414 393.942H897.285C897.448 393.235 897.557 392.464 897.557 391.623C897.557 390.783 897.453 390.012 897.285 389.305ZM900.171 388.673H897.117C896.454 386.508 895.189 385.05 894.354 384.283C896.968 384.629 899.153 386.34 900.171 388.673ZM892.401 384.283C891.566 385.05 890.301 386.508 889.638 388.673H886.584C887.597 386.34 889.787 384.629 892.401 384.283ZM886.341 389.305H889.47C889.307 390.012 889.198 390.783 889.198 391.623C889.198 392.464 889.302 393.235 889.47 393.942H886.341C886.099 393.21 885.966 392.434 885.966 391.623C885.966 390.813 886.099 390.037 886.341 389.305ZM886.579 394.579H889.633C890.296 396.744 891.561 398.202 892.396 398.969C889.787 398.623 887.597 396.912 886.579 394.579ZM894.354 398.969C895.189 398.202 896.454 396.744 897.117 394.579H900.171C899.153 396.912 896.968 398.623 894.354 398.969Z" fill="white"/>
<path d="M939.832 386.216H911.371V386.849H939.832V386.216Z" fill="#382D57"/>
<path d="M939.832 391.307H911.371V391.94H939.832V391.307Z" fill="#382D57"/>
<path d="M934.143 396.403H911.371V397.036H934.143V396.403Z" fill="#382D57"/>
<path d="M939.832 426.184H911.371V426.816H939.832V426.184Z" fill="#382D57"/>
<path d="M939.832 431.28H911.371V431.912H939.832V431.28Z" fill="#382D57"/>
<path d="M934.143 436.371H911.371V437.004H934.143V436.371Z" fill="#382D57"/>
<path d="M1070.76 474.589H1086.18C1089.83 471.183 1092.24 465.42 1092.24 458.88C1092.24 455.722 1091.67 452.746 1090.68 450.132H1066.25C1065.26 452.751 1064.7 455.722 1064.7 458.88C1064.7 465.42 1067.1 471.183 1070.76 474.589Z" fill="#EE5E60"/>
<path d="M1078.76 401.465V409.957C1079.7 409.215 1082.54 406.709 1082.54 403.733C1082.54 400.175 1078.47 397.288 1078.47 397.288C1078.47 397.288 1074.4 400.175 1074.4 403.733C1074.4 406.709 1077.24 409.21 1078.17 409.957V401.465H1078.76Z" fill="#9397DE"/>
<path d="M1071.77 414.445C1070.4 414.118 1069 413.901 1067.6 413.807L1067.64 413.219C1069.07 413.318 1070.51 413.535 1071.91 413.871C1072.95 414.118 1073.76 414.385 1074.48 414.711C1074.98 414.939 1075.45 415.191 1075.87 415.463C1075.3 414.341 1073.46 411.138 1070.6 410.53C1067.12 409.783 1063.45 413.164 1063.45 413.164C1063.45 413.164 1065.42 417.746 1068.9 418.493C1071.8 419.111 1074.84 416.871 1075.77 416.11C1075.31 415.799 1074.8 415.512 1074.23 415.26C1073.55 414.939 1072.77 414.687 1071.77 414.445Z" fill="#9397DE"/>
<path d="M1071.77 427.034C1070.4 426.708 1069 426.49 1067.6 426.396L1067.64 425.808C1069.07 425.907 1070.51 426.124 1071.91 426.461C1072.95 426.708 1073.76 426.975 1074.48 427.301C1074.98 427.528 1075.45 427.78 1075.87 428.052C1075.3 426.93 1073.46 423.727 1070.6 423.119C1067.12 422.373 1063.45 425.754 1063.45 425.754C1063.45 425.754 1065.42 430.336 1068.9 431.082C1071.8 431.7 1074.84 429.461 1075.77 428.7C1075.31 428.388 1074.8 428.102 1074.23 427.849C1073.56 427.528 1072.77 427.276 1071.77 427.034Z" fill="#9397DE"/>
<path d="M1071.77 439.623C1070.4 439.297 1069 439.084 1067.6 438.986L1067.64 438.397C1069.08 438.496 1070.51 438.714 1071.91 439.05C1072.95 439.297 1073.76 439.564 1074.48 439.89C1074.98 440.117 1075.45 440.369 1075.87 440.641C1075.3 439.519 1073.46 436.316 1070.6 435.708C1067.12 434.962 1063.45 438.343 1063.45 438.343C1063.45 438.343 1065.42 442.925 1068.9 443.671C1071.8 444.289 1074.84 442.05 1075.77 441.289C1075.31 440.977 1074.79 440.691 1074.23 440.439C1073.56 440.117 1072.77 439.86 1071.77 439.623Z" fill="#9397DE"/>
<path d="M1085.03 413.871C1086.43 413.535 1087.87 413.318 1089.3 413.219L1089.34 413.807C1087.94 413.906 1086.53 414.118 1085.17 414.444C1084.17 414.682 1083.38 414.939 1082.7 415.245C1082.14 415.502 1081.63 415.784 1081.17 416.095C1082.1 416.862 1085.13 419.101 1088.03 418.478C1091.52 417.731 1093.49 413.149 1093.49 413.149C1093.49 413.149 1089.82 409.774 1086.33 410.515C1083.47 411.128 1081.63 414.326 1081.06 415.448C1081.49 415.176 1081.95 414.924 1082.46 414.697C1083.17 414.385 1083.99 414.118 1085.03 413.871Z" fill="#9397DE"/>
<path d="M1085.03 426.461C1086.43 426.124 1087.87 425.907 1089.3 425.808L1089.34 426.396C1087.94 426.495 1086.53 426.708 1085.17 427.034C1084.16 427.271 1083.38 427.528 1082.7 427.84C1082.14 428.097 1081.63 428.378 1081.17 428.69C1082.1 429.456 1085.13 431.695 1088.03 431.072C1091.52 430.326 1093.49 425.744 1093.49 425.744C1093.49 425.744 1089.82 422.368 1086.33 423.109C1083.47 423.722 1081.63 426.92 1081.06 428.042C1081.49 427.77 1081.95 427.518 1082.46 427.291C1083.17 426.975 1083.99 426.708 1085.03 426.461Z" fill="#9397DE"/>
<path d="M1085.03 439.05C1086.43 438.714 1087.87 438.496 1089.3 438.397L1089.34 438.986C1087.94 439.084 1086.53 439.297 1085.17 439.623C1084.16 439.86 1083.38 440.117 1082.7 440.429C1082.14 440.686 1081.63 440.968 1081.17 441.279C1082.1 442.045 1085.13 444.284 1088.03 443.661C1091.52 442.915 1093.49 438.333 1093.49 438.333C1093.49 438.333 1089.82 434.957 1086.33 435.699C1083.47 436.311 1081.63 439.509 1081.06 440.632C1081.49 440.36 1081.95 440.113 1082.46 439.88C1083.17 439.564 1083.99 439.297 1085.03 439.05Z" fill="#9397DE"/>
<path d="M1081.17 428.69C1081.63 428.378 1082.15 428.092 1082.71 427.84C1083.39 427.533 1084.17 427.276 1085.17 427.034C1086.54 426.708 1087.94 426.49 1089.35 426.396L1089.31 425.808C1087.87 425.907 1086.44 426.124 1085.04 426.461C1084 426.708 1083.18 426.975 1082.47 427.301C1081.96 427.528 1081.5 427.78 1081.07 428.052C1080.14 428.645 1079.39 429.342 1078.77 430.187V418.681C1079.38 417.638 1080.16 416.797 1081.18 416.105C1081.64 415.794 1082.15 415.507 1082.71 415.255C1083.4 414.944 1084.18 414.692 1085.18 414.454C1086.54 414.128 1087.95 413.911 1089.35 413.817L1089.31 413.229C1087.88 413.327 1086.44 413.55 1085.04 413.881C1084 414.128 1083.19 414.395 1082.47 414.721C1081.97 414.949 1081.5 415.201 1081.08 415.473C1080.15 416.066 1079.39 416.763 1078.78 417.608V409.956V401.465H1078.19V409.956V417.598C1077.57 416.758 1076.81 416.056 1075.89 415.463C1075.46 415.191 1075 414.939 1074.49 414.711C1073.78 414.385 1072.96 414.118 1071.92 413.871C1070.52 413.535 1069.09 413.318 1067.65 413.219L1067.61 413.807C1069.02 413.901 1070.42 414.118 1071.79 414.445C1072.79 414.682 1073.57 414.939 1074.25 415.245C1074.81 415.502 1075.32 415.784 1075.79 416.095C1076.81 416.787 1077.59 417.628 1078.19 418.671V430.177C1077.57 429.337 1076.82 428.635 1075.89 428.042C1075.47 427.77 1075 427.523 1074.5 427.291C1073.79 426.965 1072.97 426.698 1071.93 426.451C1070.52 426.115 1069.09 425.897 1067.66 425.798L1067.62 426.386C1069.02 426.485 1070.43 426.698 1071.79 427.024C1072.8 427.261 1073.58 427.518 1074.26 427.83C1074.82 428.087 1075.33 428.368 1075.79 428.68C1076.81 429.372 1077.59 430.212 1078.2 431.25V442.757C1077.58 441.917 1076.82 441.215 1075.9 440.622C1075.47 440.35 1075.01 440.103 1074.5 439.87C1073.79 439.544 1072.97 439.277 1071.93 439.03C1070.53 438.694 1069.1 438.476 1067.66 438.378L1067.62 438.966C1069.03 439.065 1070.43 439.277 1071.8 439.603C1072.8 439.841 1073.58 440.098 1074.26 440.409C1074.82 440.666 1075.33 440.948 1075.8 441.259C1076.82 441.951 1077.6 442.792 1078.2 443.83V450.112H1078.79V443.83C1079.4 442.787 1080.18 441.946 1081.2 441.259C1081.66 440.948 1082.17 440.661 1082.73 440.409C1083.41 440.103 1084.2 439.846 1085.19 439.603C1086.56 439.277 1087.97 439.065 1089.37 438.966L1089.33 438.378C1087.89 438.476 1086.46 438.694 1085.06 439.03C1084.02 439.277 1083.21 439.544 1082.49 439.87C1081.99 440.098 1081.52 440.35 1081.1 440.622C1080.17 441.215 1079.41 441.912 1078.8 442.757V431.25C1079.37 430.222 1080.15 429.382 1081.17 428.69Z" fill="#382D57"/>
<path d="M1126.93 474.588H1142.35C1146.01 471.183 1148.41 465.42 1148.41 458.88C1148.41 455.722 1147.85 452.746 1146.85 450.131H1122.42C1121.43 452.751 1120.87 455.722 1120.87 458.88C1120.87 465.42 1123.28 471.183 1126.93 474.588Z" fill="#382D57"/>
<path d="M1130.27 439.534C1130.13 438.728 1130.21 437.957 1130.45 437.265C1130.86 436.094 1130.59 434.804 1129.86 433.8C1129.15 432.827 1128.73 431.626 1128.73 430.326C1128.73 429.5 1128.9 428.714 1129.21 427.998C1129.76 426.708 1129.47 425.244 1128.6 424.137C1127.58 422.832 1126.97 421.191 1126.97 419.407C1126.97 418.399 1127.16 417.435 1127.52 416.555C1128.03 415.28 1127.92 413.812 1127.08 412.719C1126.61 412.116 1126.22 411.459 1125.9 410.757C1124.74 410.327 1123.47 410.169 1122.2 410.357C1117.59 411.019 1114.7 415.492 1115.84 419.872C1116.28 421.577 1117.25 422.991 1118.54 423.994C1119.41 424.671 1119.8 425.788 1119.66 426.885C1119.56 427.642 1119.6 428.428 1119.8 429.214C1120.16 430.602 1120.96 431.754 1122.02 432.56C1122.91 433.242 1123.44 434.324 1123.26 435.437C1123.17 436.054 1123.2 436.697 1123.36 437.339C1123.62 438.348 1124.19 439.198 1124.94 439.811C1125.71 440.444 1126.18 441.393 1126.09 442.381C1126.04 442.969 1126.14 443.582 1126.41 444.18C1127.01 445.49 1128.39 446.33 1129.82 446.241C1129.97 446.232 1130.11 446.217 1130.24 446.192L1122.87 417.697L1123.45 417.548L1130.82 446.044C1132.18 445.569 1133.1 444.329 1133.19 442.94C1131.7 442.426 1130.55 441.111 1130.27 439.534Z" fill="#9397DE"/>
<path d="M1147.09 410.357C1145.82 410.174 1144.55 410.327 1143.39 410.762C1143.07 411.459 1142.69 412.111 1142.23 412.71C1141.38 413.812 1141.27 415.295 1141.78 416.585C1142.13 417.46 1142.32 418.414 1142.32 419.412C1142.32 421.196 1141.71 422.842 1140.69 424.142C1139.82 425.244 1139.53 426.712 1140.08 428.003C1140.39 428.714 1140.56 429.5 1140.56 430.331C1140.56 431.631 1140.14 432.832 1139.43 433.805C1138.7 434.804 1138.42 436.094 1138.83 437.26C1139 437.72 1139.09 438.219 1139.09 438.738C1139.09 440.686 1137.83 442.337 1136.09 442.935C1136.19 444.324 1137.1 445.569 1138.47 446.044L1145.83 417.549L1146.41 417.697L1139.05 446.192C1139.18 446.217 1139.32 446.232 1139.46 446.242C1140.9 446.331 1142.28 445.495 1142.88 444.18C1143.15 443.582 1143.24 442.969 1143.19 442.381C1143.11 441.388 1143.58 440.439 1144.35 439.811C1145.1 439.198 1145.66 438.348 1145.93 437.34C1146.09 436.697 1146.12 436.054 1146.02 435.437C1145.85 434.324 1146.37 433.242 1147.27 432.56C1148.32 431.754 1149.13 430.602 1149.48 429.214C1149.69 428.428 1149.73 427.642 1149.63 426.886C1149.48 425.793 1149.87 424.671 1150.74 423.994C1152.03 422.991 1153.01 421.577 1153.45 419.872C1154.58 415.492 1151.69 411.019 1147.09 410.357Z" fill="#9397DE"/>
<path d="M1145.83 417.544L1138.46 446.039L1137.41 450.136H1138.02L1139.04 446.192L1146.4 417.697L1145.83 417.544Z" fill="#382D57"/>
<path d="M1123.46 417.543L1122.88 417.697L1130.24 446.192L1131.27 450.136H1131.88L1130.82 446.039L1123.46 417.543Z" fill="#382D57"/>
<path d="M1143.38 410.762C1144.03 409.289 1144.33 407.618 1144.14 405.864C1143.68 401.46 1140.13 397.891 1135.72 397.407C1129.96 396.769 1125.08 401.267 1125.08 406.902C1125.08 408.276 1125.37 409.581 1125.9 410.762C1126.21 411.464 1126.6 412.121 1127.07 412.724C1127.91 413.812 1128.02 415.285 1127.51 416.56C1127.15 417.44 1126.96 418.404 1126.96 419.412C1126.96 421.196 1127.57 422.842 1128.6 424.142C1129.47 425.244 1129.76 426.712 1129.2 428.003C1128.89 428.714 1128.72 429.5 1128.72 430.331C1128.72 431.631 1129.14 432.832 1129.85 433.805C1130.58 434.809 1130.86 436.099 1130.45 437.27C1130.2 437.962 1130.12 438.738 1130.27 439.539C1130.54 441.116 1131.7 442.431 1133.19 442.94C1133.38 442.999 1133.56 443.053 1133.75 443.088C1133.94 443.128 1134.14 443.152 1134.34 443.162V406.477H1134.93V443.162C1135.33 443.137 1135.71 443.058 1136.07 442.935C1137.82 442.337 1139.07 440.681 1139.07 438.738C1139.07 438.219 1138.98 437.725 1138.82 437.26C1138.4 436.094 1138.68 434.804 1139.42 433.805C1140.13 432.832 1140.55 431.631 1140.55 430.331C1140.55 429.505 1140.38 428.719 1140.07 428.003C1139.52 426.712 1139.81 425.249 1140.67 424.142C1141.69 422.837 1142.31 421.196 1142.31 419.412C1142.31 418.413 1142.11 417.46 1141.77 416.585C1141.25 415.295 1141.36 413.812 1142.21 412.709C1142.68 412.111 1143.07 411.454 1143.38 410.762Z" fill="#BAC7F4"/>
<path d="M1134.94 443.162V406.477H1134.35V443.162C1134.55 443.172 1134.75 443.172 1134.94 443.162Z" fill="#382D57"/>
<path d="M1025.58 236.325H994.246V258.267H1025.58V236.325Z" fill="#EE5E60"/>
<path d="M1012.88 246.982H1006.95V247.615H1012.88V246.982Z" fill="#382D57"/>
<path d="M1025.58 316.542H994.246V338.483H1025.58V316.542Z" fill="#BAC7F4"/>
<path d="M1012.88 327.194H1006.95V327.827H1012.88V327.194Z" fill="#382D57"/>
<path d="M1025.58 356.648H994.246V378.589H1025.58V356.648Z" fill="white"/>
<path d="M1012.88 367.305H1006.95V367.938H1012.88V367.305Z" fill="#382D57"/>
<path d="M1069.02 276.436H1037.68V298.377H1069.02V276.436Z" fill="white"/>
<path d="M1056.32 287.088H1050.39V287.721H1056.32V287.088Z" fill="#382D57"/>
<path d="M1069.02 316.542H1037.68V338.483H1069.02V316.542Z" fill="#9397DE"/>
<path d="M1056.32 327.194H1050.39V327.827H1056.32V327.194Z" fill="#382D57"/>
<path d="M1069.02 356.648H1037.68V378.589H1069.02V356.648Z" fill="#F183A2"/>
<path d="M1056.32 367.305H1050.39V367.938H1056.32V367.305Z" fill="#382D57"/>
<path d="M1112.46 356.648H1081.12V378.589H1112.46V356.648Z" fill="#EE5E60"/>
<path d="M1099.76 367.305H1093.82V367.938H1099.76V367.305Z" fill="#382D57"/>
<path d="M1037.68 276.436H994.246V298.377H1037.68V276.436Z" fill="#382D57"/>
<path d="M1021.15 270.638H1011.04V276.431H1021.15V270.638Z" fill="#9397DE"/>
<path d="M1034.01 270.638H1031.27V276.436H1034.01H1041.39V270.638H1034.01Z" fill="#9397DE"/>
<path d="M1011.03 270.638H1000.91V276.431H1011.03V270.638Z" fill="#BAC7F4"/>
<path d="M1021.15 270.638V276.436H1023.89H1031.27V270.638H1023.89H1021.15Z" fill="#BAC7F4"/>
<path d="M1054.25 270.638H1044.13H1041.39V276.436H1044.13H1054.25H1064.37V270.638H1054.25Z" fill="#BAC7F4"/>
<path d="M983.633 363.168L987.078 366.618L983.727 369.969L977.988 364.235L976.669 361.052L972.843 359.085L969.002 355.244L966.101 358.289L965.098 360.103L975.102 380.744H1007.74L1007.18 365.081L983.633 363.168Z" fill="#EE5E60"/>
<path d="M972.276 351.814L975.266 357.993L982.438 356.658L1015.41 356.544L1009.66 345.23C1007.55 341.068 1003.28 338.449 998.611 338.449H983.708V338.454L977.1 338.449H964.219C964.085 338.449 963.952 338.464 963.823 338.464C963.359 339.551 962.761 340.589 962.039 341.573L967.733 347.267L972.276 351.814Z" fill="#EE5E60"/>
<path d="M952.233 347.721C952.228 347.736 952.223 347.746 952.218 347.761L946.316 370.77C946.771 369.529 947.498 368.392 948.457 367.458L962.183 354.078L964.684 349.377L958.688 344.924C956.726 346.367 954.521 347.306 952.233 347.721Z" fill="#EE5E60"/>
<path d="M963.644 353.178C963.032 353.178 962.527 352.674 962.527 352.061V348.171C962.527 347.558 963.032 347.054 963.644 347.054C964.257 347.054 964.761 347.558 964.761 348.171V352.061C964.761 352.674 964.257 353.178 963.644 353.178Z" fill="#DD965B"/>
<path d="M943.929 472.137C943.474 472.349 943.188 472.804 943.188 473.303C943.188 474.015 943.766 474.593 944.478 474.593H962.553V468.375H951.971L943.929 472.137Z" fill="#9397DE"/>
<path d="M1002.3 468.37L994.257 472.132C993.802 472.344 993.516 472.799 993.516 473.298C993.516 474.01 994.094 474.588 994.806 474.588H1012.88V468.37H1002.3Z" fill="#9397DE"/>
<path d="M938.327 321.218C932.203 327.342 932.203 337.267 938.327 343.391C942.109 347.173 947.338 348.611 952.227 347.721C954.515 347.306 956.725 346.367 958.682 344.929C959.315 344.464 959.928 343.965 960.501 343.391C961.074 342.818 961.574 342.205 962.038 341.573C962.76 340.594 963.358 339.551 963.822 338.464C966.264 332.75 965.162 325.879 960.501 321.218C954.377 315.099 944.452 315.099 938.327 321.218ZM958.198 340.016C958.03 340.203 957.871 340.396 957.688 340.579C956.868 341.4 955.954 342.067 954.98 342.591C950.546 344.993 944.887 344.326 941.14 340.579C936.573 336.012 936.573 328.603 941.14 324.031C945.707 319.463 953.116 319.463 957.688 324.031C962.078 328.42 962.241 335.424 958.198 340.016Z" fill="#9397DE"/>
<path d="M977.565 357.098L970.388 349.926L969.004 355.244L972.844 359.085L977.565 357.098Z" fill="#382D57"/>
<path d="M969.563 349.061L962.04 341.573C961.575 342.205 961.076 342.818 960.503 343.391C959.929 343.965 959.316 344.464 958.684 344.929L964.106 350.47L969.563 349.061Z" fill="#382D57"/>
<path d="M977.988 364.235L983.727 369.969L987.078 366.618L983.633 363.168L977.988 364.235Z" fill="#382D57"/>
<path d="M1007.74 380.744H994.241H989.496H975.098L950.819 409.808C948.856 412.161 947.888 415.186 948.12 418.24L951.965 468.375H962.553L961.431 418.221L982.364 390.279H995.126L1002.3 468.375H1012.89L1007.74 380.744Z" fill="#382D57"/>
<path d="M972.789 331.954L976.14 331.074V338.459C976.684 338.864 977.781 339.561 979.319 339.763C981.899 340.105 983.817 338.8 984.291 338.464V338.459V326.457C985.477 326.121 986.347 325.044 986.347 323.749C986.347 322.884 985.952 322.123 985.344 321.604C985.042 321.347 984.686 321.154 984.291 321.04C984.044 320.971 983.792 320.922 983.52 320.922C982.477 320.922 981.577 321.49 981.088 322.33L976.788 317.664C976.788 317.664 974.821 320.126 976.788 322.488H969.324V329.196C969.319 331.02 971.015 332.364 972.789 331.954Z" fill="#DD965B"/>
<path d="M1015.64 356.999L1015.41 356.544L982.438 356.658L978.291 355.926C976.857 355.674 975.399 356.183 974.44 357.276L972.844 359.085L973.852 362.812C974.173 363.998 975.35 364.735 976.556 364.507L977.994 364.235L983.639 363.173L1007.18 365.085L1010.06 365.318C1014.53 365.679 1017.67 360.998 1015.64 356.999Z" fill="#DD965B"/>
<path d="M962.725 351.137L962.182 354.083L948.455 367.463C947.496 368.402 946.77 369.534 946.315 370.775C946.127 371.284 945.989 371.808 945.895 372.341C945.381 375.332 947.101 378.337 950.057 379.019C952.543 379.593 955.01 378.431 956.186 376.291L965.098 360.108L966.096 358.294L968.998 355.249L971.163 352.981C971.78 352.333 971.766 351.31 971.133 350.682L968.538 348.087C968.049 347.598 967.307 347.459 966.67 347.736L964.757 348.572C963.704 349.031 962.938 349.995 962.725 351.137Z" fill="#DD965B"/>
<path d="M970.601 323.949C970.939 323.827 971.056 323.29 970.861 322.751C970.666 322.212 970.234 321.875 969.895 321.997C969.556 322.12 969.439 322.656 969.634 323.195C969.829 323.734 970.262 324.072 970.601 323.949Z" fill="#382D57"/>
<path d="M975.621 323.25C975.848 322.724 975.764 322.181 975.433 322.039C975.103 321.896 974.65 322.207 974.423 322.733C974.196 323.259 974.28 323.802 974.611 323.945C974.942 324.087 975.394 323.777 975.621 323.25Z" fill="#382D57"/>
<path d="M973.96 327.782C973.851 328.642 972.892 330.847 971.77 330.703C970.648 330.56 969.783 328.128 969.892 327.268C970.001 326.408 971.039 327.446 972.166 327.584C973.288 327.733 974.069 326.922 973.96 327.782Z" fill="white"/>
<path d="M976.784 322.488C974.816 320.126 976.784 317.664 976.784 317.664L981.084 322.33C981.573 321.49 982.473 320.921 983.516 320.921C983.783 320.921 984.04 320.971 984.287 321.04C984.682 321.154 985.033 321.347 985.34 321.604C985.933 320.739 986.526 319.409 986.343 317.664C986.007 314.377 983.56 314.713 983.56 314.713C982.132 312.113 975.627 309.642 970.951 313.675C966.27 317.704 969.32 322.493 969.32 322.493H976.784V322.488Z" fill="#382D57"/>
<path d="M978.605 358.146L975.793 355.689C975.318 355.274 975.269 354.543 975.684 354.068C976.099 353.594 976.831 353.544 977.305 353.959L980.118 356.416C980.592 356.831 980.642 357.563 980.227 358.037C979.811 358.512 979.08 358.561 978.605 358.146Z" fill="#DD965B"/>
<path d="M1086.08 225.555L1085.59 225.951L1105.15 250.279H1055.36L981.109 157.987H980.704L980.457 158.185L1234.81 474.361L1235.3 473.966L1215.73 449.637H1265.53L1285.42 474.361L1285.92 473.966L1086.08 225.555ZM1055.87 250.912H1105.67L1125.14 275.122H1075.34L1055.87 250.912ZM1075.85 275.754H1125.65L1145.13 299.964H1095.33L1075.85 275.754ZM1095.84 300.592H1145.64L1165.11 324.802H1115.31L1095.84 300.592ZM1115.82 325.434H1165.61L1185.09 349.644H1135.29L1115.82 325.434ZM1135.8 350.277H1185.6L1205.07 374.487H1155.27L1135.8 350.277ZM1155.78 375.115H1205.58L1225.06 399.324H1175.26L1155.78 375.115ZM1175.77 399.957H1225.57L1245.04 424.167H1195.24L1175.77 399.957ZM1215.23 449.005L1195.75 424.795H1245.55L1265.02 449.005H1215.23Z" fill="#382D57"/>
<path d="M1123.62 267.628L1097.09 277.39L1069.02 276.431L1066.13 274.598C1064.49 273.56 1062.4 273.555 1060.76 274.588L1060.24 274.914C1058.75 275.858 1057.84 277.504 1057.84 279.274C1057.84 281.394 1059.27 283.243 1061.33 283.767L1069.02 285.714L1098.04 288.63C1099.65 288.793 1101.28 288.581 1102.8 288.007L1136.08 275.438L1123.62 267.628Z" fill="#B26246"/>
<path d="M1068.03 278.982C1067.36 279.091 1066.72 278.631 1066.61 277.954L1066.09 274.741C1065.98 274.064 1066.44 273.426 1067.11 273.312C1067.79 273.204 1068.43 273.663 1068.54 274.341L1069.06 277.553C1069.17 278.231 1068.71 278.873 1068.03 278.982Z" fill="#B26246"/>
<path d="M1195.05 95.6681C1194.48 95.6681 1194.03 95.2085 1194.03 94.6499V92.2576C1194.03 91.6941 1194.49 91.2394 1195.05 91.2394C1195.61 91.2394 1196.06 91.6991 1196.06 92.2576V94.6499C1196.07 95.2085 1195.61 95.6681 1195.05 95.6681Z" fill="#96422F"/>
<path d="M1172.11 66.4363C1171.55 65.8827 1170.65 65.8827 1170.09 66.4363C1169.54 66.9899 1169.54 67.8944 1170.09 68.448L1193.57 91.9264L1195.58 89.9146L1172.11 66.4363Z" fill="#EE5E60"/>
<path d="M1142.58 134.657H1138.13H1130.42L1128.6 137.959L1126.38 142.491L1126.03 142.768L1122.72 219.535H1131.4L1137.33 144.78H1145.15L1164.09 219.535H1172.78L1156.48 134.657H1142.58Z" fill="#EE5E60"/>
<path d="M1165.92 101.11C1163.89 99.6915 1161.48 98.9304 1159 98.9304L1148.91 98.9254L1148.92 98.9304H1144.73V103.24L1138.13 98.9304H1131.17L1131.18 98.9254H1125.91C1122.21 98.9254 1118.71 100.621 1116.42 103.522L1110.55 110.941L1117.13 115.889L1122.01 109.992L1126.38 134.647H1130.42H1138.12H1142.58H1156.48L1161.23 107.818L1169.75 113.971L1174.87 107.348L1165.92 101.11Z" fill="#E2E5F2"/>
<path d="M1126.38 134.657L1113.65 120.11L1117.14 115.894L1110.56 110.946L1105.65 117.15C1104.04 119.191 1104.23 122.122 1106.1 123.936L1120.48 137.899L1126.03 142.768L1126.38 142.486L1129.37 140.104C1130.49 139.219 1131.02 137.786 1130.75 136.387L1130.42 134.652H1126.38V134.657Z" fill="#96422F"/>
<path d="M1201.85 93.691C1201.29 92.9793 1200.38 92.6333 1199.49 92.7914L1198.61 92.9447L1195.19 93.5477L1194.03 93.7553V96.7605L1178.17 109.656L1174.88 107.358L1169.75 113.981L1175.24 117.945C1177.22 119.374 1179.93 119.196 1181.7 117.515L1199.2 100.937L1201.06 99.4098L1203.26 97.5909C1203.82 97.1312 1203.91 96.3107 1203.46 95.7423L1201.85 93.691Z" fill="#96422F"/>
<path d="M1142.12 79.6979C1142.12 79.6979 1141.55 82.0408 1139.71 83.3654C1139.3 83.1035 1138.82 82.9502 1138.3 82.9502C1138.04 82.9502 1137.81 82.9947 1137.58 83.0639C1136.47 83.3803 1135.65 84.3886 1135.65 85.5946C1135.65 86.8056 1136.47 87.814 1137.58 88.1254V91.7781V99.1528L1137.58 99.1577L1145.2 104.13V99.1528V92.2427L1148.33 93.0632C1149.99 93.4488 1151.57 92.1883 1151.57 90.4831V84.2107C1151.57 84.2107 1145.86 84.2156 1142.12 79.6979Z" fill="#96422F"/>
<path d="M1193.57 91.9313L1195.19 93.5525L1198.61 92.9495L1195.58 89.9196L1193.57 91.9313Z" fill="#382D57"/>
<path d="M1205.53 99.8695L1203.26 97.5908L1201.05 99.4098L1203.52 101.881C1204.08 102.435 1204.98 102.435 1205.53 101.881C1206.09 101.323 1206.09 100.423 1205.53 99.8695Z" fill="#382D57"/>
<path d="M1180.81 223.301L1172.77 219.54H1164.09V225.758H1180.26C1180.98 225.758 1181.55 225.18 1181.55 224.468C1181.55 223.969 1181.27 223.514 1180.81 223.301Z" fill="#382D57"/>
<path d="M1139.44 223.301L1131.4 219.54H1122.71V225.758H1138.89C1139.6 225.758 1140.18 225.18 1140.18 224.468C1140.18 223.969 1139.89 223.514 1139.44 223.301Z" fill="#382D57"/>
<path d="M1136 77.3896C1134.52 78.8675 1133.55 80.9187 1133.55 83.4791C1133.55 89.0398 1137.57 91.7781 1137.57 91.7781V88.1253C1136.46 87.809 1135.65 86.8007 1135.65 85.5946C1135.65 84.3836 1136.46 83.3753 1137.57 83.0639C1137.8 82.9997 1138.04 82.9502 1138.29 82.9502C1138.82 82.9502 1139.3 83.1084 1139.71 83.3654C1141.55 82.0408 1142.12 79.6979 1142.12 79.6979C1145.85 84.2156 1151.57 84.2057 1151.57 84.2057C1153.33 76.6383 1147.04 74.7205 1142.58 74.7205C1140.76 74.7205 1138.94 75.2543 1137.4 76.2527" fill="#382D57"/>
<path d="M1135.95 79.3419C1138.33 79.3419 1140.27 77.4078 1140.27 75.0219C1140.27 72.636 1138.33 70.7019 1135.95 70.7019C1133.56 70.7019 1131.63 72.636 1131.63 75.0219C1131.63 77.4078 1133.56 79.3419 1135.95 79.3419Z" fill="#382D57"/>
<path d="M1151.05 84.7156C1151.11 84.1921 1150.9 83.7376 1150.57 83.7004C1150.24 83.6632 1149.92 84.0573 1149.87 84.5808C1149.81 85.1043 1150.02 85.5589 1150.35 85.5961C1150.68 85.6333 1150.99 85.2391 1151.05 84.7156Z" fill="#382D57"/>
<path d="M1146.23 84.092C1146.27 83.5663 1146.03 83.1225 1145.7 83.1008C1145.37 83.0791 1145.07 83.4876 1145.04 84.0133C1145 84.539 1145.24 84.9828 1145.57 85.0046C1145.9 85.0263 1146.2 84.6177 1146.23 84.092Z" fill="#382D57"/>
<path d="M1145.99 88.1402C1145.98 88.936 1146.92 91.0564 1148.52 91.0713C1150.12 91.091 1150.76 88.847 1150.77 88.0512C1150.78 87.2554 1150.15 88.2143 1148.55 88.1945C1146.95 88.1797 1146 87.3444 1145.99 88.1402Z" fill="white"/>
<path d="M1129.35 131.914L1126.91 134.35C1126.38 134.884 1126.38 135.754 1126.91 136.288C1127.45 136.822 1128.32 136.822 1128.85 136.288L1131.29 133.851C1131.82 133.317 1131.82 132.447 1131.29 131.914C1130.76 131.38 1129.88 131.38 1129.35 131.914Z" fill="#96422F"/>
<path d="M1357.7 210.924H1195.59V321.915H1357.7V210.924Z" fill="white"/>
<path d="M1276.96 136.431L1276.33 0V136.431L1195.59 203.184V210.924H1357.7V203.184L1276.96 136.431ZM1276.64 136.985L1355.95 202.556H1197.33L1276.64 136.985Z" fill="#382D57"/>
<path d="M1229.37 258.059C1220.17 258.059 1212.71 250.6 1212.71 241.402C1212.71 232.203 1220.17 224.745 1229.37 224.745C1238.57 224.745 1246.03 232.203 1246.03 241.402C1246.02 250.605 1238.57 258.059 1229.37 258.059Z" fill="#F183A2"/>
<path d="M1309.7 224.749H1260.36V230.794H1309.7V224.749Z" fill="#9397DE"/>
<path d="M1343.85 241.407H1260.36V241.852H1343.85V241.407Z" fill="#382D57"/>
<path d="M1343.85 249.508H1260.36V249.953H1343.85V249.508Z" fill="#382D57"/>
<path d="M1343.85 257.614H1260.36V258.059H1343.85V257.614Z" fill="#382D57"/>
<path d="M1201.15 208.596C1202 208.596 1202.69 207.906 1202.69 207.054C1202.69 206.203 1202 205.512 1201.15 205.512C1200.3 205.512 1199.61 206.203 1199.61 207.054C1199.61 207.906 1200.3 208.596 1201.15 208.596Z" fill="#EE5E60"/>
<path d="M1207.49 208.596C1208.34 208.596 1209.03 207.906 1209.03 207.054C1209.03 206.203 1208.34 205.512 1207.49 205.512C1206.64 205.512 1205.95 206.203 1205.95 207.054C1205.95 207.906 1206.64 208.596 1207.49 208.596Z" fill="#E2E5F2"/>
<path d="M1213.82 208.596C1214.68 208.596 1215.37 207.906 1215.37 207.054C1215.37 206.203 1214.68 205.512 1213.82 205.512C1212.97 205.512 1212.28 206.203 1212.28 207.054C1212.28 207.906 1212.97 208.596 1213.82 208.596Z" fill="#BAC7F4"/>
<path d="M1312.84 278.156H1247.9V301.21H1312.84V278.156Z" fill="#BAC7F4"/>
<path d="M1306.9 284.276H1275.58V284.908H1306.9V284.276Z" fill="#382D57"/>
<path d="M1306.9 289.367H1275.58V290H1306.9V289.367Z" fill="#382D57"/>
<path d="M1300.64 294.458H1275.58V295.091H1300.64V294.458Z" fill="#EB5168"/>
<path d="M1262.66 281.636C1258.23 281.636 1254.62 285.244 1254.62 289.683C1254.62 294.122 1258.23 297.73 1262.66 297.73C1267.1 297.73 1270.71 294.122 1270.71 289.683C1270.71 285.244 1267.1 281.636 1262.66 281.636ZM1262.66 292.861C1263.11 292.861 1263.48 293.227 1263.48 293.677C1263.48 294.127 1263.11 294.497 1262.66 294.497C1262.21 294.497 1261.84 294.132 1261.84 293.677C1261.84 293.232 1262.21 292.861 1262.66 292.861ZM1262.66 286.505C1262.21 286.505 1261.84 286.139 1261.84 285.684C1261.84 285.235 1262.21 284.864 1262.66 284.864C1263.11 284.864 1263.48 285.23 1263.48 285.684C1263.48 286.134 1263.11 286.505 1262.66 286.505ZM1258.67 288.863C1259.12 288.863 1259.48 289.228 1259.48 289.683C1259.48 290.133 1259.12 290.504 1258.67 290.504C1258.22 290.504 1257.84 290.138 1257.84 289.683C1257.84 289.233 1258.21 288.863 1258.67 288.863ZM1258.35 283.668V288.269C1257.7 288.413 1257.21 288.991 1257.21 289.683C1257.21 290.484 1257.86 291.131 1258.67 291.131C1259.47 291.131 1260.11 290.479 1260.11 289.683C1260.11 288.991 1259.63 288.413 1258.98 288.269V283.257C1259.98 282.684 1261.13 282.338 1262.35 282.284V284.271C1261.7 284.414 1261.21 284.992 1261.21 285.684C1261.21 286.376 1261.7 286.955 1262.35 287.098V292.268C1261.8 292.392 1261.37 292.822 1261.25 293.366H1256.24C1255.62 292.278 1255.25 291.023 1255.25 289.683C1255.25 287.207 1256.48 285.012 1258.35 283.668ZM1266.66 290.499C1266.21 290.499 1265.84 290.133 1265.84 289.678C1265.84 289.228 1266.2 288.858 1266.66 288.858C1267.11 288.858 1267.47 289.223 1267.47 289.678C1267.48 290.133 1267.11 290.499 1266.66 290.499ZM1266.97 295.699V291.097C1267.62 290.953 1268.11 290.375 1268.11 289.683C1268.11 288.882 1267.45 288.235 1266.66 288.235C1265.86 288.235 1265.2 288.887 1265.2 289.683C1265.2 290.375 1265.69 290.953 1266.34 291.097V296.109C1265.25 296.732 1264 297.097 1262.66 297.097C1260.18 297.097 1257.99 295.872 1256.64 293.998H1261.25C1261.39 294.646 1261.97 295.13 1262.66 295.13C1263.46 295.13 1264.11 294.478 1264.11 293.682C1264.11 292.99 1263.62 292.412 1262.98 292.268V287.098C1263.62 286.955 1264.11 286.376 1264.11 285.684C1264.11 284.992 1263.62 284.414 1262.98 284.271V282.284C1266.91 282.452 1270.07 285.699 1270.07 289.683C1270.07 292.159 1268.85 294.354 1266.97 295.699Z" fill="white"/>
<path d="M1342.67 323.66L1341.98 325.499C1342.63 325.019 1343.5 324.861 1344.31 325.163C1344.48 325.227 1344.64 325.306 1344.79 325.4L1345.94 322.286L1340.89 320.408L1342.67 323.66Z" fill="#6C609A"/>
<path d="M1340.89 320.417L1345.94 322.296C1347.71 317.541 1344.86 315.658 1340.82 314.269C1336.78 312.88 1334.18 310.734 1334.18 310.734C1331.2 313.112 1333.25 317.58 1333.25 317.58L1340.85 320.403L1340.89 320.417Z" fill="#EE5E60"/>
<path d="M1308.5 467.945L1300.46 471.707C1300.01 471.919 1299.72 472.374 1299.72 472.873C1299.72 473.585 1300.3 474.163 1301.01 474.163H1319.08V467.945H1308.5Z" fill="white"/>
<path d="M1366.03 410.569V421.152L1369.79 429.194C1370 429.649 1370.46 429.935 1370.96 429.935C1371.67 429.935 1372.25 429.357 1372.25 428.645V410.569H1366.03Z" fill="white"/>
<path d="M1346.49 411.884L1344.93 380.314H1312.29L1308.5 467.94H1319.08L1325.66 390.274H1332.3L1334.24 416.743C1334.55 421.013 1338.35 424.177 1342.61 423.712L1366.02 421.152V410.569L1346.49 411.884Z" fill="#EE5E60"/>
<path d="M1368.44 344.489C1365.96 340.47 1361.58 338.024 1356.86 338.024H1341.58H1334.56H1323.98L1297.21 330.778L1292.78 305.169H1283.93L1287.31 334.43C1287.56 336.64 1289.03 338.523 1291.11 339.309L1312.72 347.465L1312.3 380.324H1326.52H1331.58H1344.94L1359.24 349.338L1387.24 390.373L1393.98 385.974L1368.44 344.489Z" fill="#382D57"/>
<path d="M1344.79 325.415L1344.78 325.41C1344.64 325.316 1344.48 325.232 1344.31 325.172C1343.5 324.871 1342.63 325.024 1341.98 325.509L1342.66 323.67L1340.88 320.422L1340.84 320.408L1333.24 317.585L1329.6 327.412C1329.02 328.964 1330.04 330.644 1331.68 330.857L1334.81 331.168L1332.27 338.014C1332.64 338.548 1333.22 339.151 1334.05 339.526C1335.89 340.347 1338.27 339.739 1340.13 338.014C1341.14 335.315 1342.14 332.616 1343.14 329.922C1344.25 330.066 1345.35 329.433 1345.76 328.336C1346.17 327.234 1345.74 326.028 1344.79 325.415Z" fill="#F183A2"/>
<path d="M1291.41 298.432V301.21H1283.93V305.164H1292.78L1294.5 302.065C1294.75 301.62 1294.81 301.091 1294.69 300.597L1294.06 298.14C1293.93 297.621 1293.46 297.255 1292.92 297.255H1292.59C1291.94 297.255 1291.41 297.784 1291.41 298.432Z" fill="#F183A2"/>
<path d="M1393.98 385.959L1387.23 390.358L1390.09 396.191C1390.27 396.542 1390.67 396.71 1391.04 396.586L1395.62 395.069C1396.65 394.728 1397.35 393.769 1397.35 392.681V390.393C1397.35 389.009 1396.65 387.714 1395.49 386.953L1393.98 385.959Z" fill="#F183A2"/>
<path d="M1334.19 321.108C1334.33 320.606 1334.19 320.127 1333.88 320.038C1333.56 319.948 1333.19 320.282 1333.05 320.784C1332.91 321.285 1333.05 321.765 1333.36 321.854C1333.68 321.943 1334.05 321.609 1334.19 321.108Z" fill="#22AA9D"/>
<path d="M1338.54 322.93C1338.73 322.447 1338.65 321.955 1338.35 321.831C1338.04 321.707 1337.64 321.998 1337.44 322.481C1337.24 322.963 1337.33 323.455 1337.63 323.579C1337.93 323.703 1338.34 323.412 1338.54 322.93Z" fill="#22AA9D"/>
<path d="M1334.69 326.556C1334.38 327.278 1332.98 328.944 1332.04 328.533C1331.11 328.123 1330.98 325.79 1331.3 325.069C1331.62 324.347 1332.25 325.518 1333.18 325.929C1334.12 326.339 1335.01 325.835 1334.69 326.556Z" fill="white"/>
<path d="M1386.6 395.84C1385.99 395.612 1385.66 394.92 1385.89 394.302L1387.18 390.773C1387.4 390.155 1388.1 389.834 1388.71 390.057C1389.33 390.284 1389.65 390.976 1389.43 391.594L1388.14 395.123C1387.92 395.741 1387.23 396.062 1386.6 395.84Z" fill="#F183A2"/>
<g opacity="0.25">
<rect x="31.5" y="317.462" width="155" height="155" transform="rotate(30 31.5 317.462)" fill="#E7DC48" fill-opacity="0.5"/>
<rect x="129.09" y="387.462" width="66.1814" height="66.1814" transform="rotate(30 129.09 387.462)" fill="white" fill-opacity="0.5"/>
<rect x="214" y="452.86" width="92.4874" height="92.4874" transform="rotate(-45 214 452.86)" fill="white" fill-opacity="0.5"/>
<rect x="286.195" y="423.86" width="126.152" height="126.152" transform="rotate(-45 286.195 423.86)" fill="#29B473" fill-opacity="0.5"/>
<rect x="1318" y="445.665" width="126.152" height="126.152" transform="rotate(-45 1318 445.665)" fill="#E7DC48" fill-opacity="0.5"/>
<rect x="609" y="391.762" width="155.709" height="155.709" transform="rotate(-15 609 391.762)" fill="#33CCFF" fill-opacity="0.5"/>
<rect x="1189.34" y="370.987" width="170.948" height="170.948" transform="rotate(-15 1189.34 370.987)" fill="#FE6462" fill-opacity="0.5"/>
<rect x="1743.54" y="346.006" width="212.527" height="212.527" transform="rotate(-15 1743.54 346.006)" fill="white" fill-opacity="0.5"/>
<rect x="1689.19" y="342.472" width="136.359" height="136.359" transform="rotate(30 1689.19 342.472)" fill="#18EADF" fill-opacity="0.5"/>
<rect x="1598.43" y="373.626" width="84.0751" height="84.0751" transform="rotate(15 1598.43 373.626)" fill="white" fill-opacity="0.5"/>
<rect x="1028.99" y="389.066" width="109.321" height="109.321" transform="rotate(34.7977 1028.99 389.066)" fill="#18EADF"/>
<rect x="974.578" y="384.979" width="43.9156" height="43.9156" transform="rotate(34.7977 974.578 384.979)" fill="white" fill-opacity="0.5"/>
<rect x="1088.67" y="368.354" width="22.3228" height="22.3228" transform="rotate(15 1088.67 368.354)" fill="white" fill-opacity="0.5"/>
<rect x="405" y="397.656" width="97.3428" height="97.3428" transform="rotate(-15 405 397.656)" fill="#18EADF"/>
<rect x="430.973" y="326.579" width="35.3339" height="35.3339" transform="rotate(-15 430.973 326.579)" fill="white" fill-opacity="0.5"/>
<rect width="14.7056" height="14.7056" transform="matrix(-0.707107 -0.707107 -0.707107 0.707107 240.035 341.099)" fill="#FE6462"/>
<rect width="18.0089" height="18.0089" transform="matrix(-0.5 -0.866025 -0.866025 0.5 253.914 376.628)" fill="white" fill-opacity="0.5"/>
<rect x="-0.828125" y="327.966" width="35.3339" height="35.3339" transform="rotate(30 -0.828125 327.966)" fill="white" fill-opacity="0.5"/>
</g>
</svg>
