<svg width="36" height="33" viewBox="0 0 36 33" fill="none" xmlns="http://www.w3.org/2000/svg">
<path d="M21.765 20.9398C21.6666 20.9103 21.5625 20.904 21.4613 20.9187C21.4493 20.918 21.4374 20.918 21.4254 20.9173C22.3381 20.0258 22.9062 18.7826 22.9062 17.4087V10.4063C22.9062 10.0181 22.5912 9.70312 22.2031 9.70312H16.995C14.842 9.70312 13.0905 11.4546 13.0905 13.6076V17.4094C13.0905 18.7833 13.6586 20.0265 14.5713 20.918C14.5593 20.9187 14.5474 20.9187 14.5354 20.9194C14.4342 20.9047 14.3308 20.911 14.2317 20.9405C10.5965 21.2668 7.73828 24.3296 7.73828 28.0478V31.5001C7.73828 31.8883 8.05328 32.2033 8.44141 32.2033H27.5539C27.942 32.2033 28.257 31.8883 28.257 31.5001V28.0478C28.2584 24.3296 25.4002 21.2661 21.765 20.9398ZM14.4975 14.592V13.6069C14.4975 12.2295 15.6183 11.1087 16.9957 11.1087H21.5006V12.9903C21.5006 13.9409 20.7272 14.7143 19.7766 14.7143H14.4975V14.592ZM14.4975 17.4094V16.122H19.7766C20.4136 16.122 21.0063 15.93 21.5006 15.6024V17.4094C21.5006 19.3402 19.9298 20.911 17.9991 20.911C16.0683 20.911 14.4975 19.3402 14.4975 17.4094ZM19.8666 22.3173L17.9991 24.1841L16.1315 22.3166L19.8666 22.3173ZM26.8522 30.797H9.14595V28.7734H14.8835C15.2716 28.7734 15.5866 28.4584 15.5866 28.0703C15.5866 27.6821 15.2716 27.3671 14.8835 27.3671H9.18743C9.49821 24.7536 11.5739 22.6752 14.186 22.3602L17.5019 25.6761C17.639 25.8132 17.819 25.8821 17.9991 25.8821C18.1791 25.8821 18.3591 25.8132 18.4962 25.6761L21.8121 22.3602C24.6471 22.7026 26.8522 25.1213 26.8522 28.0478V30.797Z" fill="#33CCFF"/>
<path d="M18.4971 27.5742C18.3663 27.4434 18.1849 27.3682 18 27.3682C17.8151 27.3682 17.6337 27.4434 17.5029 27.5742C17.3721 27.705 17.2969 27.8864 17.2969 28.0713C17.2969 28.2562 17.3721 28.4376 17.5029 28.5684C17.6337 28.6992 17.8151 28.7744 18 28.7744C18.1849 28.7744 18.3663 28.6992 18.4971 28.5684C18.6279 28.4376 18.7031 28.2562 18.7031 28.0713C18.7031 27.8864 18.6279 27.705 18.4971 27.5742Z" fill="#33CCFF"/>
<path d="M18.0078 0C16.5348 0 15.3359 1.19884 15.3359 2.67189C15.3359 3.90167 16.1713 4.93949 17.3047 5.24886V6.9659C17.3047 7.35403 17.6197 7.66903 18.0078 7.66903C18.396 7.66903 18.711 7.35403 18.711 6.9659V5.24886C19.8444 4.93949 20.6797 3.90167 20.6797 2.67189C20.6797 1.19884 19.4809 0 18.0078 0ZM18.0078 3.93753C17.3096 3.93753 16.7422 3.3701 16.7422 2.67189C16.7422 1.97368 17.3096 1.40626 18.0078 1.40626C18.7053 1.40626 19.2735 1.97439 19.2735 2.67189C19.2735 3.3694 18.7053 3.93753 18.0078 3.93753Z" fill="#33CCFF"/>
<path d="M32.125 5.48424C31.6202 4.9794 30.9494 4.70166 30.2357 4.70166C29.522 4.70166 28.8512 4.9794 28.3464 5.48424C27.4766 6.35401 27.3339 7.67871 27.9161 8.69895L26.7018 9.91326C26.4275 10.1875 26.4275 10.6333 26.7018 10.9075C26.8389 11.0446 27.0189 11.1135 27.1989 11.1135C27.3789 11.1135 27.5589 11.0446 27.696 10.9075L28.9096 9.69388C29.309 9.9231 29.7625 10.0454 30.2357 10.0454C30.9494 10.0454 31.6202 9.76771 32.125 9.26286C32.6298 8.75801 32.9076 8.08723 32.9076 7.37355C32.9076 6.65988 32.6298 5.98909 32.125 5.48424ZM31.1308 8.26864C30.6372 8.76223 29.8342 8.76223 29.3413 8.26864C28.8477 7.77504 28.8477 6.97206 29.3413 6.47847C29.5881 6.23167 29.9122 6.10862 30.2364 6.10862C30.5605 6.10862 30.8847 6.23167 31.1315 6.47847C31.3705 6.71753 31.502 7.03535 31.502 7.37355C31.502 7.71176 31.3698 8.02957 31.1308 8.26864Z" fill="#33CCFF"/>
<path d="M33.3292 16.9326C32.0994 16.9326 31.0616 17.7679 30.7522 18.9014H29.0352C28.647 18.9014 28.332 19.2164 28.332 19.6045C28.332 19.9926 28.647 20.3076 29.0352 20.3076H30.7522C31.0616 21.4411 32.0994 22.2764 33.3292 22.2764C34.8022 22.2764 36.0011 21.0776 36.0011 19.6045C36.0011 18.1315 34.8022 16.9326 33.3292 16.9326ZM33.3292 20.8701C32.6317 20.8701 32.0635 20.302 32.0635 19.6045C32.0635 18.907 32.6317 18.3389 33.3292 18.3389C34.0267 18.3389 34.5948 18.907 34.5948 19.6045C34.5948 20.302 34.0267 20.8701 33.3292 20.8701Z" fill="#33CCFF"/>
<path d="M26.8643 19.1084C26.7335 18.9776 26.5521 18.9023 26.3672 18.9023C26.1823 18.9023 26.0009 18.9776 25.8701 19.1084C25.7393 19.2391 25.6641 19.4206 25.6641 19.6055C25.6641 19.7911 25.7393 19.9718 25.8701 20.1026C26.0009 20.2341 26.1823 20.3086 26.3672 20.3086C26.5521 20.3086 26.7335 20.2341 26.8643 20.1026C26.9951 19.9718 27.0703 19.7904 27.0703 19.6055C27.0703 19.4206 26.9951 19.2398 26.8643 19.1084Z" fill="#33CCFF"/>
<path d="M6.96661 18.8848H5.24886C4.93949 17.7513 3.90167 16.916 2.67189 16.916C1.19884 16.916 0 18.1149 0 19.5879C0 21.061 1.19884 22.2598 2.67189 22.2598C3.90167 22.2598 4.93949 21.4245 5.24886 20.291H6.9659C7.35403 20.291 7.66903 19.976 7.66903 19.5879C7.66903 19.1998 7.35474 18.8848 6.96661 18.8848ZM2.67189 20.8535C1.97439 20.8535 1.40626 20.2854 1.40626 19.5879C1.40626 18.8904 1.97439 18.3223 2.67189 18.3223C3.3694 18.3223 3.93753 18.8904 3.93753 19.5879C3.93753 20.2854 3.3694 20.8535 2.67189 20.8535Z" fill="#33CCFF"/>
<path d="M9.25502 9.84539L8.04142 8.63178C8.27064 8.23241 8.39298 7.77889 8.39298 7.30568C8.39298 6.592 8.11525 5.92122 7.6104 5.41637C7.10555 4.91153 6.43477 4.63379 5.72109 4.63379C5.00742 4.63379 4.33663 4.91153 3.83178 5.41637C2.79045 6.45841 2.79045 8.15295 3.83178 9.19499C4.33663 9.69984 5.00742 9.97757 5.72109 9.97757C6.19359 9.97757 6.64782 9.85523 7.04719 9.62601L8.2608 10.8396C8.39791 10.9767 8.57791 11.0456 8.75791 11.0456C8.93791 11.0456 9.11791 10.9767 9.25502 10.8396C9.52994 10.5654 9.52994 10.1203 9.25502 9.84539ZM6.61618 8.20076C6.61618 8.20076 6.61618 8.20147 6.61618 8.20076C6.12258 8.69506 5.3196 8.69506 4.82601 8.20147C4.33241 7.70787 4.33241 6.9049 4.82601 6.4113C5.07281 6.1645 5.39695 6.04145 5.72109 6.04145C6.04523 6.04145 6.36938 6.1645 6.61618 6.4113C6.85524 6.65036 6.98672 6.96818 6.98672 7.30638C6.98672 7.64389 6.85524 7.9617 6.61618 8.20076Z" fill="#33CCFF"/>
</svg>
