<svg width="60" height="60" viewBox="0 0 60 60" fill="none" xmlns="http://www.w3.org/2000/svg">
<rect x="32.6523" y="11" width="11.304" height="11.304" transform="rotate(30 32.6523 11)" fill="#FE6462" fill-opacity="0.5"/>
<rect x="40.168" y="13" width="21.1006" height="21.1006" transform="rotate(30 40.168 13)" fill="#33CCFF" fill-opacity="0.5"/>
<rect width="8.03981" height="8.03981" transform="matrix(-0.866025 -0.5 -0.5 0.866025 38.9844 10.02)" fill="#18EADF" fill-opacity="0.8"/>
<path d="M29.6764 36.5169C32.0283 36.5169 33.9349 34.6103 33.9349 32.2584C33.9349 29.9066 32.0283 28 29.6764 28C27.3245 28 25.418 29.9066 25.418 32.2584C25.418 34.6103 27.3245 36.5169 29.6764 36.5169Z" fill="#2096FF"/>
<path d="M36.8511 43.9955C37.9758 43.9955 38.8169 42.9477 38.5574 41.8566C37.5961 37.8481 33.9865 34.8682 29.68 34.8682C25.3735 34.8682 21.7639 37.8481 20.8026 41.8566C20.5383 42.9477 21.3842 43.9955 22.5089 43.9955H36.8511Z" fill="#2096FF"/>
<path d="M22.505 36.1853C23.9596 36.1853 25.1389 35.006 25.1389 33.5514C25.1389 32.0967 23.9596 30.9175 22.505 30.9175C21.0503 30.9175 19.8711 32.0967 19.8711 33.5514C19.8711 35.006 21.0503 36.1853 22.505 36.1853Z" fill="#2096FF"/>
<path d="M26.9414 40.814C27.6384 40.814 28.1574 40.1651 27.994 39.4922C27.398 37.0122 25.1679 35.1665 22.5003 35.1665C19.8376 35.1665 17.6026 37.0122 17.0066 39.4922C16.8432 40.1699 17.3671 40.814 18.0592 40.814H26.9414Z" fill="#2096FF"/>
<path d="M37.4933 36.1853C38.9479 36.1853 40.1272 35.006 40.1272 33.5514C40.1272 32.0967 38.9479 30.9175 37.4933 30.9175C36.0386 30.9175 34.8594 32.0967 34.8594 33.5514C34.8594 35.006 36.0386 36.1853 37.4933 36.1853Z" fill="#2096FF"/>
<path d="M41.9297 40.814C42.6266 40.814 43.1457 40.1651 42.9823 39.4922C42.3863 37.0122 40.1561 35.1665 37.4886 35.1665C34.8211 35.1665 32.5909 37.0122 31.9949 39.4922C31.8315 40.1699 32.3554 40.814 33.0475 40.814H41.9297Z" fill="#2096FF"/>
<path d="M27.215 19.7124V17C18.8361 18.1593 12.185 24.8015 11.0078 33.1758H13.7247C14.8571 26.283 20.3176 20.8314 27.215 19.7124Z" fill="#2096FF"/>
<path d="M45.9512 33.1758H48.6681C47.4909 24.8015 40.8443 18.1593 32.4609 17V19.7124C39.3583 20.8314 44.8188 26.283 45.9512 33.1758Z" fill="#2096FF"/>
<path d="M13.7124 38.4175H11C12.1503 46.8232 18.8104 53.4967 27.2116 54.6605V51.9481C20.2964 50.8246 14.8224 45.3417 13.7124 38.4175Z" fill="#2096FF"/>
<path d="M32.4609 51.9481V54.6605C40.8622 53.4967 47.5268 46.8232 48.6726 38.4175H45.9602C44.8547 45.3417 39.3807 50.8246 32.4609 51.9481Z" fill="#2096FF"/>
<path d="M16.7814 36.5942H6.59617C6.2687 36.5942 6 36.3255 6 35.998C6 35.6706 6.2687 35.4019 6.59617 35.4019H16.7814C17.1089 35.4019 17.3776 35.6706 17.3776 35.998C17.3776 36.3255 17.1089 36.5942 16.7814 36.5942Z" fill="#2096FF"/>
<path d="M53.3986 36.5942H43.2133C42.8859 36.5942 42.6172 36.3255 42.6172 35.998C42.6172 35.6706 42.8859 35.4019 43.2133 35.4019H53.3986C53.7261 35.4019 53.9948 35.6706 53.9948 35.998C53.9948 36.3255 53.7303 36.5942 53.3986 36.5942Z" fill="#2096FF"/>
<path d="M29.3984 22.7814V12.5962C29.3984 12.2687 29.6671 12 29.9946 12C30.3221 12 30.5908 12.2687 30.5908 12.5962V22.7814C30.5908 23.1089 30.3221 23.3776 29.9946 23.3776C29.6671 23.3776 29.3984 23.1089 29.3984 22.7814Z" fill="#2096FF"/>
<path d="M29.3984 59.3998V49.2187C29.3984 48.8913 29.6671 48.6226 29.9946 48.6226C30.3221 48.6226 30.5908 48.8913 30.5908 49.2187V59.404C30.5908 59.7315 30.3221 60.0001 29.9946 60.0001C29.6671 59.996 29.3984 59.7273 29.3984 59.3998Z" fill="#2096FF"/>
</svg>
