<svg width="241" height="240" viewBox="0 0 241 240" fill="none" xmlns="http://www.w3.org/2000/svg">
<path opacity="0.8" d="M94.075 90.2507L84.8867 81.0624L75.6984 90.2507L84.8867 99.439L94.075 90.2507Z" fill="#18EADF"/>
<path opacity="0.8" d="M115.325 93.2783L100.961 78.9141L86.5967 93.2783L100.961 107.643L115.325 93.2783Z" fill="#2096FF"/>
<path opacity="0.8" d="M74.2783 103.574L68.375 97.6703L62.4717 103.574L68.375 109.477L74.2783 103.574Z" fill="#33CCFF"/>
<path d="M222.243 122.84V87.0461C222.243 85.8804 221.3 84.9375 220.134 84.9375H102.234C101.068 84.9375 100.125 85.8804 100.125 87.0461V133.066C100.125 134.232 101.068 135.175 102.234 135.175H222.234H240.003L222.243 122.84Z" fill="#83D2C1"/>
<path d="M211.524 95.6947H170.715V96.2176H211.524V95.6947Z" fill="#3C3E87"/>
<path d="M211.524 102.192H170.715V102.715H211.524V102.192Z" fill="#3C3E87"/>
<path d="M211.524 108.689H170.715V109.212H211.524V108.689Z" fill="#3C3E87"/>
<path d="M212.67 118.495H107.961V119.018H212.67V118.495Z" fill="#3C3E87"/>
<path d="M212.67 124.992H107.961V125.515H212.67V124.992Z" fill="#3C3E87"/>
<path d="M164.116 116.755L158.81 121.075C158.51 121.315 158.381 121.709 158.476 122.086C158.613 122.618 159.153 122.943 159.684 122.806L173.193 119.412L172.027 114.766L164.116 116.755Z" fill="#8678E4"/>
<path d="M184.038 116.755L178.732 121.075C178.432 121.315 178.303 121.709 178.398 122.086C178.535 122.618 179.075 122.943 179.606 122.806L193.115 119.412L191.949 114.766L184.038 116.755Z" fill="#8678E4"/>
<path d="M209.712 76.1089L208.82 74.2832H168.766C164.652 74.2832 161.403 77.7804 161.712 81.8861L164.129 116.746L172.04 114.758L172.846 84.929H177.629L184.04 116.746L191.952 114.758L187.7 84.929H204.218C208.752 84.9375 211.718 80.1804 209.712 76.1089Z" fill="#3C3E87"/>
<path d="M219.322 82.0061L208.557 52.0403C207.905 48.8517 205.094 46.5631 201.845 46.5631H194.834L190.625 51.1403L189.597 46.5631H183.425C181.205 46.5631 179.122 47.6431 177.837 49.4517L171.511 58.366L160.745 49.1003L156.168 53.4888L168.074 65.2317C170.465 67.5889 174.339 67.4346 176.542 64.906L183.434 56.9689L187.574 74.2918H208.831L213.237 82.4946L219.322 82.0061Z" fill="#FFD365"/>
<path d="M219.321 82.0061L221.961 83.7633C222.141 83.8833 222.244 84.0804 222.244 84.2947C222.244 84.6461 221.961 84.9375 221.601 84.9375H213.835L213.227 82.4947L219.321 82.0061Z" fill="#FF83AB"/>
<path d="M160.735 49.1003L160.529 47.9774C160.358 47.026 159.646 46.2631 158.712 46.0231L156.243 45.3889C155.232 45.1317 154.161 45.5346 153.578 46.4089L152.901 47.4117C152.241 48.3889 152.369 49.7003 153.209 50.5317L156.158 53.4803L160.735 49.1003Z" fill="#FF83AB"/>
<path d="M191.101 30.3459C189.653 28.7088 184.578 27.9802 181.861 31.6316C179.144 35.2831 182.11 38.2402 182.11 38.2402L187.476 37.0402C185.676 35.6602 186.696 33.5688 186.696 33.5688L190.544 36.2345C190.758 35.5488 191.316 34.9917 192.07 34.8288C192.267 34.7859 192.456 34.7774 192.644 34.7945C192.944 34.8117 193.236 34.8888 193.493 35.0259C193.784 34.3059 193.99 33.2602 193.578 32.0259C192.807 29.7116 191.101 30.3459 191.101 30.3459Z" fill="#3C3E87"/>
<path d="M192.644 34.7859C192.455 34.7773 192.267 34.7773 192.069 34.8202C191.324 34.9916 190.767 35.5402 190.544 36.2259L186.695 33.5602C186.695 33.5602 185.675 35.6516 187.475 37.0316L182.109 38.2316L183.189 43.0574C183.481 44.3688 184.921 45.0631 186.129 44.4802L188.401 43.3059L190.501 51.9545L195.472 46.5545L193.527 38.6688C194.324 38.2316 194.778 37.3145 194.572 36.3888C194.435 35.763 194.024 35.283 193.501 35.0088C193.235 34.8802 192.952 34.803 192.644 34.7859Z" fill="#FF83AB"/>
<path d="M183.748 41.0001C183.645 41.583 183.988 43.1173 185.034 43.1087C186.079 43.1001 187.434 41.5573 187.536 40.9744C187.639 40.3916 186.465 41.0001 185.419 41.0087C184.374 41.0173 183.859 40.4173 183.748 41.0001Z" fill="white"/>
<path d="M187.097 38.1974C187.409 38.1974 187.663 37.7752 187.663 37.2545C187.663 36.7338 187.409 36.3116 187.097 36.3116C186.785 36.3116 186.531 36.7338 186.531 37.2545C186.531 37.7752 186.785 38.1974 187.097 38.1974Z" fill="#3C3E87"/>
<path d="M183.429 39.0375C183.741 39.0375 183.995 38.6153 183.995 38.0946C183.995 37.5739 183.741 37.1517 183.429 37.1517C183.117 37.1517 182.863 37.5739 182.863 38.0946C182.863 38.6153 183.117 39.0375 183.429 39.0375Z" fill="#3C3E87"/>
<path d="M132.735 146.446C132.229 146.952 132.229 147.775 132.735 148.28C132.855 148.4 133 148.495 133.146 148.555C133.309 148.623 133.489 148.658 133.669 148.658C133.995 148.649 134.32 148.529 134.56 148.28C135.066 147.775 135.066 146.952 134.56 146.446C134.063 145.94 133.24 145.94 132.735 146.446Z" fill="#FE8490"/>
<path d="M147.935 142.323C147.223 142.323 146.641 142.906 146.641 143.618C146.641 144.14 146.949 144.586 147.395 144.792C147.549 144.869 147.729 144.912 147.909 144.912C147.918 144.912 147.926 144.912 147.935 144.912C148.646 144.912 149.229 144.329 149.229 143.618C149.229 142.906 148.646 142.323 147.935 142.323Z" fill="#FE8490"/>
<path d="M150.185 148.212C148.471 148.032 147.442 148.675 146.911 149.172C147.313 147.998 147.631 146.798 147.828 145.58C147.871 145.332 147.888 145.118 147.905 144.912C147.716 144.912 147.545 144.869 147.391 144.792C147.382 144.998 147.356 145.229 147.313 145.495C147.219 146.095 147.082 146.695 146.928 147.286C146.705 146.6 146.139 145.658 144.648 145.152C144.648 145.152 144.588 146.918 146.748 147.955C146.379 149.24 145.899 150.483 145.308 151.683C145.016 150.852 144.125 148.983 142.102 149C142.102 149 142.813 151.135 145.153 151.983C144.459 153.346 143.636 154.64 142.693 155.84C142.531 155 141.905 152.875 139.625 152.618C139.625 152.618 140.036 154.658 142.522 156.055C141.631 157.169 140.636 158.198 139.556 159.123C139.368 158.232 138.656 155.849 136.573 155.583C136.573 155.583 136.925 157.718 139.368 159.295C138.125 160.34 136.771 161.258 135.339 161.995C134.782 161.043 134.311 160.04 133.951 159.003C134.516 158.72 135.665 157.906 135.691 155.918C135.691 155.918 134.191 156.355 133.753 158.378C133.265 156.775 133.008 155.112 132.999 153.44C133.616 153.38 135.005 153.029 135.725 151.16C135.725 151.16 134.131 151.04 133.008 152.84C133.051 151.435 133.265 150.029 133.659 148.675C133.479 148.675 133.308 148.64 133.136 148.572C132.956 149.206 132.811 149.84 132.708 150.492C132.442 149.832 131.851 149.009 130.496 148.546C130.496 148.546 130.436 150.312 132.588 151.349C132.433 152.678 132.433 154.015 132.579 155.343C132.271 154.743 131.671 154.075 130.496 153.672C130.496 153.672 130.436 155.532 132.759 156.552C133.119 158.549 133.822 160.478 134.859 162.243C134.173 162.578 133.479 162.878 132.759 163.135L132.931 163.632C136.076 162.526 138.931 160.632 141.313 158.215C143.825 159.646 146.362 158.446 146.362 158.446C144.708 157.383 142.393 157.803 141.511 158.026C142.556 156.938 143.499 155.755 144.322 154.486C147.348 155.318 149.156 154.109 149.156 154.109C147.125 153.149 145.342 153.775 144.536 154.169C145.402 152.789 146.122 151.323 146.696 149.798C149.105 150.14 150.185 148.212 150.185 148.212Z" fill="#3C3E87"/>
<path d="M137.769 160.281H19.8686C18.7029 160.281 17.7601 161.224 17.7601 162.389V198.184L0 210.509H17.7601H137.76C138.926 210.509 139.869 209.567 139.869 208.401V162.381C139.869 161.223 138.926 160.281 137.769 160.281Z" fill="#8678E4"/>
<path d="M44.1903 116.703C44.3446 116.618 44.5075 116.549 44.6875 116.506C45.0561 116.42 45.4332 116.455 45.7675 116.583C46.0161 116.309 46.2046 116 46.3589 115.7C46.8818 114.646 46.9075 113.592 46.9075 113.592L54.3647 115.306C54.4247 109.623 49.6332 109.255 46.4446 109.966C45.3732 110.206 44.3532 110.712 43.4961 111.415C43.4875 111.423 43.4789 111.423 43.4703 111.432C40.0418 113.969 40.9589 116.892 38.9275 118.152C38.4475 118.452 37.8818 118.598 37.3675 118.838C36.0732 119.429 35.0532 120.578 34.6332 121.932C34.3932 122.703 34.3246 123.543 33.9046 124.229C33.296 125.215 32.1046 125.643 31.1617 126.32C28.9332 127.923 29.3532 132.715 30.5789 135.123L32.9446 132.346C34.1875 129.646 34.4703 128.36 37.4446 128.36L46.4789 127.006L45.5703 122.926L44.9875 120.32C44.1475 120.269 43.4018 119.678 43.2132 118.82C43.0332 117.955 43.4532 117.106 44.1903 116.703Z" fill="#3C3E87"/>
<path d="M74.4229 128.258L69.7343 138.818L63.8029 130.041C62.5086 128.121 60.3486 126.972 58.0343 126.972H54.4257C54.4257 128.438 52.3428 129.629 49.78 129.629C48.88 129.629 48.04 129.483 47.3199 129.226C46.0085 128.755 45.1257 127.923 45.1257 126.972H38.7399C36.0228 126.972 33.5542 128.558 32.4142 131.026L31.4799 133.066L20.1484 157.666H26.9713L37.9428 137.035L43.4199 152.069H63.0743L62.5429 142.101L66.22 146.935C67 147.963 68.2172 148.563 69.5114 148.563C71.2172 148.563 72.7429 147.518 73.36 145.932L79.3258 130.581L74.4229 128.258Z" fill="#73A7F6"/>
<path d="M55.3609 119.781L54.3666 115.306L46.9094 113.592C46.9094 113.592 46.8837 114.655 46.3608 115.701C46.2066 116.009 46.018 116.309 45.7694 116.583C45.4351 116.463 45.0665 116.429 44.6894 116.506C44.5094 116.549 44.3465 116.618 44.1923 116.703C43.4551 117.106 43.0265 117.955 43.2237 118.812C43.4123 119.678 44.158 120.261 44.998 120.312L45.5808 122.918L46.4894 126.998H44.458C44.458 128.043 45.418 128.952 46.8494 129.466C47.6294 129.749 48.5466 129.912 49.5408 129.912C52.3523 129.912 54.6237 128.609 54.6237 127.006H52.198L51.0923 122.052L53.458 122.138C54.7009 122.146 55.6266 120.998 55.3609 119.781Z" fill="#FF83AB"/>
<path d="M54.5246 118.932C54.6275 119.515 54.276 121.049 53.2303 121.032C52.1846 121.015 50.8474 119.463 50.7446 118.881C50.6417 118.298 51.816 118.915 52.8617 118.932C53.9075 118.949 54.4217 118.349 54.5246 118.932Z" fill="white"/>
<path d="M49.8868 116.761C50.1613 116.709 50.314 116.298 50.2279 115.842C50.1418 115.386 49.8495 115.059 49.575 115.11C49.3006 115.162 49.1479 115.574 49.234 116.03C49.3201 116.486 49.6124 116.813 49.8868 116.761Z" fill="#3C3E87"/>
<path d="M53.797 117.103C54.0714 117.051 54.2241 116.639 54.138 116.184C54.0519 115.728 53.7596 115.4 53.4852 115.452C53.2108 115.504 53.0581 115.915 53.1442 116.371C53.2303 116.827 53.5226 117.155 53.797 117.103Z" fill="#3C3E87"/>
<path d="M113.555 153.586L116.452 147.389C116.615 147.038 116.966 146.815 117.352 146.815C117.9 146.815 118.346 147.261 118.346 147.809V160.281H113.555V153.586Z" fill="#3C3E87"/>
<path d="M43.4178 152.078L42.8435 153.329C41.3521 156.578 43.7264 160.281 47.3007 160.281H113.558V153.586L66.6207 152.078H43.4178Z" fill="#FFD365"/>
<path d="M20.1425 157.675L18.334 158.583C18.0511 158.729 17.8711 159.012 17.8711 159.329V159.441C17.8711 159.903 18.2482 160.281 18.7111 160.281H25.6711L26.974 157.675H20.1425Z" fill="#FF83AB"/>
<path d="M74.4297 128.258V126.218C74.4297 125.48 74.8668 124.812 75.5354 124.503L77.3268 123.706C77.9526 123.423 78.6897 123.509 79.2383 123.929L80.4126 124.829C81.1068 125.369 81.3383 126.312 80.9611 127.109L79.324 130.572L74.4297 128.258Z" fill="#FF83AB"/>
<path d="M47.512 194.052H35.2891V194.575H47.512V194.052Z" fill="#83D2C1"/>
<path d="M52.3609 197.918H30.418V198.441H52.3609V197.918Z" fill="#F3F3F3"/>
<path d="M52.3609 201.775H30.418V202.298H52.3609V201.775Z" fill="#F3F3F3"/>
<path d="M84.9338 194.052H72.7109V194.575H84.9338V194.052Z" fill="#83D2C1"/>
<path d="M89.7867 197.918H67.8438V198.441H89.7867V197.918Z" fill="#F3F3F3"/>
<path d="M89.7867 201.775H67.8438V202.298H89.7867V201.775Z" fill="#F3F3F3"/>
<path d="M122.352 194.052H110.129V194.575H122.352V194.052Z" fill="#83D2C1"/>
<path d="M127.209 197.918H105.266V198.441H127.209V197.918Z" fill="#F3F3F3"/>
<path d="M127.209 201.775H105.266V202.298H127.209V201.775Z" fill="#F3F3F3"/>
<path d="M117.355 71.789H81.6633C80.4975 71.789 79.5547 70.8461 79.5547 69.6804V54.5689C79.5547 53.4032 80.4975 52.4603 81.6633 52.4603H117.355C118.521 52.4603 119.463 53.4032 119.463 54.5689V69.6889C119.455 70.8461 118.512 71.789 117.355 71.789Z" fill="#FF83AB"/>
<path d="M119.456 55.4519C121.108 55.4519 122.448 54.1126 122.448 52.4604C122.448 50.8083 121.108 49.469 119.456 49.469C117.804 49.469 116.465 50.8083 116.465 52.4604C116.465 54.1126 117.804 55.4519 119.456 55.4519Z" fill="#8678E4"/>
<path d="M119.725 53.8919H119.202V51.2947H118.816V50.7719H119.725V53.8919Z" fill="#3C3E87"/>
<path d="M120.278 53.6261H118.641V54.149H120.278V53.6261Z" fill="#3C3E87"/>
<path d="M193.277 147.998L190.877 145.598L188.477 147.998L188.846 148.366L190.603 146.609C190.414 167.018 173.76 183.569 153.309 183.569V184.092C174.06 184.092 190.954 167.301 191.134 146.592L192.909 148.366L193.277 147.998Z" fill="#73A7F6"/>
<path d="M220.129 210.509H174.195C173.029 210.509 172.086 209.566 172.086 208.401V197.009C172.086 195.844 173.029 194.901 174.195 194.901H220.129C221.295 194.901 222.238 195.844 222.238 197.009V208.401C222.238 209.566 221.295 210.509 220.129 210.509Z" fill="#FFD365"/>
<path d="M197.585 202.803C196.719 202.803 196.008 202.101 196.008 201.226V200.198C196.008 199.332 196.711 198.621 197.585 198.621C198.451 198.621 199.162 199.323 199.162 200.198V201.226C199.154 202.101 198.451 202.803 197.585 202.803ZM197.585 199.152C197.011 199.152 196.539 199.623 196.539 200.198V201.226C196.539 201.801 197.011 202.272 197.585 202.272C198.159 202.272 198.631 201.801 198.631 201.226V200.198C198.631 199.623 198.159 199.152 197.585 199.152Z" fill="#3C3E87"/>
<path d="M201.664 206.789H193.504V205.443C193.504 204.552 194.232 203.832 195.115 203.832H200.052C200.944 203.832 201.664 204.561 201.664 205.443V206.789ZM194.027 206.266H201.141V205.443C201.141 204.843 200.652 204.355 200.052 204.355H195.115C194.515 204.355 194.027 204.843 194.027 205.443V206.266Z" fill="#3C3E87"/>
<path d="M177.535 199.186V206.301H186.698V199.186H177.535ZM185.772 199.718L182.121 203.155L178.469 199.718H185.772ZM178.058 200.061L180.809 202.649L178.058 205.401V200.061ZM178.435 205.778L181.195 203.018L182.112 203.883L183.029 203.018L185.789 205.778H178.435ZM186.167 205.401L183.415 202.649L186.167 200.061V205.401Z" fill="#83D2C1"/>
<path d="M213.46 206.729H211.832V206.138C211.832 205.786 211.6 205.564 211.386 205.478C211.172 205.392 210.854 205.384 210.606 205.632L210.186 206.052L209.029 204.895L209.449 204.475C209.697 204.226 209.697 203.909 209.603 203.695C209.517 203.481 209.294 203.249 208.943 203.249H208.352V201.621H208.943C209.294 201.621 209.517 201.389 209.603 201.175C209.689 200.961 209.697 200.643 209.449 200.395L209.029 199.975L210.186 198.818L210.606 199.238C210.854 199.486 211.172 199.486 211.386 199.392C211.6 199.306 211.832 199.083 211.832 198.732V198.141H213.46V198.732C213.46 199.083 213.692 199.306 213.906 199.392C214.12 199.478 214.437 199.486 214.686 199.238L215.106 198.818L216.263 199.975L215.843 200.395C215.594 200.643 215.594 200.961 215.689 201.175C215.774 201.389 215.997 201.621 216.349 201.621H216.94V203.249H216.349C215.997 203.249 215.774 203.481 215.689 203.695C215.603 203.909 215.594 204.226 215.843 204.475L216.263 204.895L215.106 206.052L214.686 205.632C214.437 205.384 214.12 205.384 213.906 205.478C213.692 205.564 213.46 205.786 213.46 206.138V206.729ZM212.183 206.369H213.109V206.129C213.109 205.684 213.366 205.306 213.769 205.135C214.18 204.964 214.626 205.058 214.934 205.366L215.106 205.538L215.757 204.886L215.586 204.715C215.277 204.406 215.183 203.952 215.354 203.549C215.526 203.138 215.903 202.889 216.349 202.889H216.589V201.963H216.349C215.903 201.963 215.526 201.706 215.354 201.303C215.183 200.892 215.277 200.446 215.586 200.138L215.757 199.966L215.106 199.315L214.934 199.486C214.626 199.795 214.172 199.889 213.769 199.718C213.357 199.546 213.109 199.169 213.109 198.723V198.483H212.183V198.723C212.183 199.169 211.926 199.546 211.523 199.718C211.112 199.889 210.666 199.795 210.357 199.486L210.186 199.315L209.534 199.966L209.706 200.138C210.014 200.446 210.109 200.901 209.937 201.303C209.766 201.715 209.389 201.963 208.943 201.963H208.703V202.889H208.943C209.389 202.889 209.766 203.146 209.937 203.549C210.109 203.961 210.014 204.406 209.706 204.715L209.534 204.886L210.186 205.538L210.357 205.366C210.666 205.058 211.12 204.964 211.523 205.135C211.934 205.306 212.183 205.684 212.183 206.129V206.369Z" fill="#FE8490"/>
<path d="M212.642 204.115C211.707 204.115 210.953 203.361 210.953 202.426C210.953 201.492 211.707 200.738 212.642 200.738C213.576 200.738 214.33 201.492 214.33 202.426C214.33 203.361 213.576 204.115 212.642 204.115ZM212.642 201.098C211.905 201.098 211.305 201.698 211.305 202.435C211.305 203.172 211.905 203.772 212.642 203.772C213.379 203.772 213.979 203.172 213.979 202.435C213.979 201.698 213.379 201.098 212.642 201.098Z" fill="#FE8490"/>
<path d="M86.7893 67.9146H85.375V57.4917H86.7893V67.9146Z" fill="white"/>
<path d="M95.9942 57.4917V58.6403H90.9885V62.2831H95.2657V63.4317H90.9885V67.9146H89.5742V57.4917H95.9942Z" fill="white"/>
<path d="M104.233 57.4917V58.6403H99.2268V62.1031H103.281V63.2089H99.2268V66.766H104.233V67.9146H97.8125V57.4917H104.233Z" fill="white"/>
<path d="M107.268 57.5431C107.328 57.5774 107.397 57.6374 107.474 57.7317L113.509 65.5832C113.491 65.4546 113.483 65.3346 113.483 65.2146C113.474 65.0946 113.474 64.9832 113.474 64.8717V57.4917H114.709V67.9146H113.997C113.886 67.9146 113.791 67.8974 113.714 67.8546C113.637 67.8117 113.568 67.7517 113.491 67.6574L107.466 59.8146C107.474 59.9346 107.483 60.0546 107.491 60.1746C107.5 60.2946 107.5 60.3974 107.5 60.4917V67.9146H106.266V57.4917H106.994C107.114 57.4917 107.208 57.5088 107.268 57.5431Z" fill="white"/>
<path d="M59.7963 181.512H64.3049V182.695H58.3906V172.272H59.8049V181.512H59.7963Z" fill="white"/>
<path d="M67.5354 182.695H66.1211V172.272H67.5354V182.695Z" fill="white"/>
<path d="M75.6644 173.901C75.6215 173.969 75.5787 174.029 75.5273 174.064C75.4758 174.098 75.4158 174.115 75.3387 174.115C75.253 174.115 75.1587 174.072 75.0558 173.995C74.9444 173.909 74.8073 173.824 74.6444 173.721C74.4815 173.618 74.2758 173.532 74.0444 173.447C73.813 173.361 73.5215 173.327 73.1872 173.327C72.8701 173.327 72.5958 173.369 72.3472 173.455C72.1072 173.541 71.9015 173.652 71.7387 173.798C71.5758 173.944 71.4558 174.115 71.3701 174.312C71.2844 174.509 71.2501 174.724 71.2501 174.947C71.2501 175.238 71.3187 175.478 71.4644 175.667C71.6101 175.855 71.7987 176.018 72.0301 176.155C72.2615 176.292 72.5358 176.412 72.8272 176.507C73.1272 176.609 73.4272 176.712 73.7444 176.815C74.053 176.918 74.3615 177.038 74.6615 177.175C74.9615 177.312 75.2273 177.475 75.4587 177.681C75.6901 177.887 75.8873 178.135 76.0244 178.427C76.1701 178.727 76.2387 179.087 76.2387 179.515C76.2387 179.969 76.1615 180.398 76.0073 180.801C75.853 181.204 75.6215 181.547 75.3301 181.847C75.0301 182.138 74.6615 182.378 74.233 182.541C73.7958 182.712 73.3072 182.798 72.7501 182.798C72.073 182.798 71.4644 182.678 70.9072 182.429C70.3501 182.181 69.8787 181.855 69.4844 181.435L69.8872 180.767C69.9301 180.715 69.9729 180.672 70.0329 180.629C70.0929 180.595 70.1529 180.578 70.2215 180.578C70.3244 180.578 70.4358 180.629 70.573 180.741C70.7015 180.852 70.8644 180.972 71.0615 181.101C71.2587 181.229 71.4987 181.349 71.773 181.461C72.0472 181.572 72.3901 181.624 72.793 181.624C73.1272 181.624 73.4272 181.581 73.6844 181.487C73.9501 181.392 74.1644 181.264 74.353 181.101C74.533 180.938 74.6701 180.732 74.773 180.501C74.8673 180.269 74.9187 180.012 74.9187 179.721C74.9187 179.404 74.8501 179.147 74.7044 178.949C74.5587 178.752 74.3701 178.581 74.1387 178.444C73.9072 178.307 73.6415 178.195 73.3415 178.101C73.0415 178.007 72.7415 177.912 72.4244 177.809C72.1158 177.707 71.8072 177.595 71.5072 177.467C71.2072 177.338 70.9415 177.167 70.7101 176.961C70.4787 176.755 70.2901 176.489 70.1444 176.181C69.9987 175.872 69.9301 175.478 69.9301 175.024C69.9301 174.655 69.9987 174.295 70.1444 173.952C70.2901 173.609 70.4958 173.301 70.7701 173.035C71.0444 172.769 71.3787 172.555 71.7815 172.392C72.1844 172.229 72.6387 172.152 73.1615 172.152C73.7444 172.152 74.2758 172.247 74.7558 172.427C75.2358 172.607 75.6558 172.881 76.0158 173.224L75.6644 173.901Z" fill="white"/>
<path d="M84.4591 172.272V173.421H79.4534V176.884H83.5076V177.989H79.4534V181.547H84.4591V182.695H78.0391V172.272H84.4591Z" fill="white"/>
<path d="M88.0346 178.349V182.695H86.6289V172.272H89.5775C90.2375 172.272 90.8032 172.341 91.2832 172.469C91.7632 172.606 92.1575 172.795 92.4746 173.044C92.7832 173.292 93.0146 173.601 93.1689 173.952C93.3232 174.304 93.3918 174.707 93.3918 175.152C93.3918 175.521 93.3318 175.864 93.2204 176.181C93.1004 176.498 92.9375 176.789 92.7146 177.047C92.4918 177.304 92.2261 177.518 91.9089 177.698C91.5918 177.878 91.2318 178.015 90.8289 178.109C91.0003 178.212 91.1546 178.358 91.2918 178.555L94.3346 182.695H93.0832C92.8261 182.695 92.6375 182.592 92.5175 182.395L89.8089 178.675C89.7232 178.555 89.6375 178.478 89.5432 178.427C89.4489 178.375 89.3032 178.349 89.1061 178.349H88.0346ZM88.0346 177.321H89.5089C89.9203 177.321 90.2803 177.269 90.5975 177.175C90.9061 177.072 91.1718 176.935 91.3861 176.755C91.6004 176.575 91.7546 176.352 91.8661 176.104C91.9689 175.855 92.0289 175.572 92.0289 175.264C92.0289 174.647 91.8232 174.175 91.4118 173.858C91.0003 173.541 90.3918 173.387 89.5861 173.387H88.0432V177.321H88.0346Z" fill="white"/>
<path d="M116.262 100.683C116.219 100.752 116.176 100.812 116.125 100.846C116.073 100.88 116.013 100.898 115.936 100.898C115.851 100.898 115.756 100.855 115.653 100.778C115.542 100.692 115.405 100.606 115.242 100.503C115.079 100.4 114.873 100.315 114.642 100.229C114.411 100.143 114.119 100.109 113.785 100.109C113.468 100.109 113.193 100.152 112.945 100.238C112.705 100.323 112.499 100.435 112.336 100.58C112.173 100.726 112.053 100.898 111.968 101.095C111.882 101.292 111.848 101.506 111.848 101.729C111.848 102.02 111.916 102.26 112.062 102.449C112.208 102.638 112.396 102.8 112.628 102.938C112.859 103.075 113.133 103.195 113.425 103.289C113.725 103.392 114.025 103.495 114.342 103.598C114.651 103.7 114.959 103.82 115.259 103.958C115.559 104.095 115.825 104.258 116.056 104.463C116.288 104.669 116.485 104.918 116.622 105.209C116.768 105.509 116.836 105.869 116.836 106.298C116.836 106.752 116.759 107.18 116.605 107.583C116.451 107.986 116.219 108.329 115.928 108.629C115.628 108.92 115.259 109.16 114.831 109.323C114.393 109.495 113.905 109.58 113.348 109.58C112.671 109.58 112.062 109.46 111.505 109.212C110.948 108.963 110.476 108.638 110.082 108.218L110.485 107.549C110.528 107.498 110.571 107.455 110.631 107.412C110.691 107.378 110.751 107.36 110.819 107.36C110.922 107.36 111.033 107.412 111.171 107.523C111.299 107.635 111.462 107.755 111.659 107.883C111.856 108.012 112.096 108.132 112.371 108.243C112.645 108.355 112.988 108.406 113.391 108.406C113.725 108.406 114.025 108.363 114.282 108.269C114.548 108.175 114.762 108.046 114.951 107.883C115.131 107.72 115.268 107.515 115.371 107.283C115.465 107.052 115.516 106.795 115.516 106.503C115.516 106.186 115.448 105.929 115.302 105.732C115.156 105.535 114.968 105.363 114.736 105.226C114.505 105.089 114.239 104.978 113.939 104.883C113.639 104.789 113.339 104.695 113.022 104.592C112.713 104.489 112.405 104.378 112.105 104.249C111.805 104.12 111.539 103.949 111.308 103.743C111.076 103.538 110.888 103.272 110.742 102.963C110.596 102.655 110.528 102.26 110.528 101.806C110.528 101.438 110.596 101.078 110.742 100.735C110.888 100.392 111.093 100.083 111.368 99.8176C111.642 99.5518 111.976 99.3375 112.379 99.1747C112.782 99.0118 113.236 98.9347 113.759 98.9347C114.342 98.9347 114.873 99.029 115.353 99.209C115.833 99.389 116.253 99.6633 116.613 100.006L116.262 100.683Z" fill="white"/>
<path d="M125.974 107.318C126.051 107.318 126.12 107.352 126.188 107.412L126.737 108.012C126.308 108.509 125.794 108.895 125.185 109.169C124.577 109.443 123.84 109.58 122.982 109.58C122.228 109.58 121.551 109.452 120.942 109.195C120.334 108.938 119.811 108.569 119.382 108.106C118.954 107.635 118.62 107.078 118.38 106.426C118.14 105.775 118.02 105.055 118.02 104.266C118.02 103.478 118.148 102.758 118.405 102.106C118.662 101.455 119.014 100.889 119.477 100.418C119.94 99.9461 120.488 99.5861 121.131 99.3204C121.774 99.0633 122.485 98.9347 123.257 98.9347C124.02 98.9347 124.68 99.0547 125.237 99.2947C125.794 99.5347 126.282 99.8518 126.72 100.263L126.265 100.915C126.231 100.966 126.197 101 126.145 101.035C126.102 101.069 126.042 101.078 125.957 101.078C125.897 101.078 125.828 101.052 125.76 101.009C125.691 100.966 125.605 100.906 125.511 100.838C125.417 100.769 125.297 100.7 125.168 100.623C125.04 100.546 124.885 100.469 124.705 100.409C124.525 100.349 124.32 100.28 124.08 100.238C123.84 100.195 123.565 100.169 123.257 100.169C122.7 100.169 122.185 100.263 121.722 100.46C121.26 100.649 120.857 100.923 120.522 101.275C120.188 101.626 119.931 102.063 119.742 102.569C119.554 103.075 119.46 103.649 119.46 104.275C119.46 104.926 119.554 105.5 119.742 106.015C119.931 106.52 120.18 106.958 120.505 107.309C120.831 107.66 121.208 107.926 121.654 108.115C122.091 108.295 122.571 108.389 123.077 108.389C123.385 108.389 123.668 108.372 123.917 108.338C124.165 108.303 124.397 108.243 124.602 108.166C124.817 108.089 125.005 107.995 125.194 107.875C125.374 107.755 125.562 107.618 125.742 107.446C125.811 107.352 125.897 107.318 125.974 107.318Z" fill="white"/>
<path d="M130.14 105.123V109.469H128.734V99.0461H131.683C132.343 99.0461 132.909 99.1147 133.389 99.2433C133.869 99.3804 134.263 99.569 134.58 99.8176C134.889 100.066 135.12 100.375 135.274 100.726C135.429 101.086 135.497 101.48 135.497 101.926C135.497 102.295 135.437 102.638 135.326 102.955C135.206 103.272 135.043 103.563 134.82 103.82C134.597 104.078 134.332 104.292 134.014 104.472C133.697 104.652 133.337 104.789 132.934 104.883C133.106 104.986 133.26 105.132 133.397 105.329L136.44 109.469H135.189C134.932 109.469 134.743 109.366 134.623 109.169L131.914 105.449C131.829 105.329 131.743 105.252 131.649 105.2C131.554 105.149 131.409 105.123 131.212 105.123H130.14ZM130.14 104.095H131.614C132.026 104.095 132.386 104.043 132.703 103.949C133.012 103.846 133.277 103.709 133.492 103.529C133.706 103.349 133.86 103.126 133.972 102.878C134.074 102.629 134.134 102.346 134.134 102.038C134.134 101.42 133.929 100.949 133.517 100.632C133.106 100.315 132.497 100.16 131.692 100.16H130.149V104.095H130.14Z" fill="white"/>
<path d="M139.625 109.469H138.211V99.0461H139.625V109.469Z" fill="white"/>
<path d="M143.964 105.569V109.469H142.559V99.0461H145.636C146.296 99.0461 146.87 99.1233 147.359 99.2776C147.847 99.4319 148.25 99.6461 148.567 99.929C148.884 100.212 149.124 100.546 149.287 100.949C149.441 101.343 149.527 101.789 149.527 102.278C149.527 102.766 149.441 103.203 149.27 103.606C149.099 104.009 148.85 104.352 148.524 104.643C148.199 104.935 147.787 105.158 147.307 105.32C146.819 105.483 146.27 105.56 145.644 105.56H143.964V105.569ZM143.964 104.455H145.636C146.039 104.455 146.39 104.403 146.699 104.292C147.007 104.189 147.264 104.035 147.47 103.846C147.676 103.658 147.839 103.426 147.941 103.16C148.044 102.895 148.104 102.603 148.104 102.278C148.104 101.618 147.899 101.095 147.487 100.718C147.076 100.34 146.459 100.16 145.627 100.16H143.956V104.455H143.964Z" fill="white"/>
<path d="M158.398 99.0547V100.238H155.03V109.469H153.615V100.238H150.238V99.0547H158.398Z" fill="white"/>
<path d="M195.561 184.264C195.561 185.044 195.441 185.755 195.192 186.398C194.944 187.041 194.592 187.589 194.147 188.044C193.692 188.498 193.152 188.849 192.527 189.098C191.892 189.347 191.198 189.475 190.435 189.475H186.535V179.052H190.435C191.198 179.052 191.901 179.181 192.527 179.429C193.161 179.678 193.701 180.029 194.147 180.492C194.601 180.947 194.944 181.495 195.192 182.138C195.441 182.772 195.561 183.484 195.561 184.264ZM194.112 184.264C194.112 183.621 194.027 183.055 193.847 182.549C193.675 182.044 193.427 181.615 193.101 181.272C192.784 180.921 192.389 180.655 191.935 180.475C191.481 180.295 190.975 180.201 190.418 180.201H187.941V188.327H190.418C190.975 188.327 191.481 188.232 191.935 188.052C192.389 187.872 192.775 187.607 193.101 187.255C193.418 186.912 193.667 186.484 193.847 185.978C194.027 185.472 194.112 184.898 194.112 184.264Z" fill="#73A7F6"/>
<path d="M199.035 185.575V189.475H197.629V179.052H200.706C201.366 179.052 201.94 179.129 202.429 179.284C202.917 179.438 203.32 179.652 203.638 179.935C203.955 180.218 204.195 180.552 204.358 180.955C204.512 181.349 204.598 181.795 204.598 182.284C204.598 182.772 204.512 183.209 204.34 183.612C204.169 184.015 203.92 184.358 203.595 184.649C203.269 184.941 202.858 185.164 202.377 185.327C201.889 185.489 201.34 185.567 200.715 185.567H199.035V185.575ZM199.035 184.452H200.706C201.109 184.452 201.46 184.401 201.769 184.289C202.077 184.187 202.335 184.032 202.54 183.844C202.746 183.655 202.909 183.424 203.012 183.158C203.115 182.892 203.175 182.601 203.175 182.275C203.175 181.615 202.969 181.092 202.557 180.715C202.146 180.338 201.529 180.158 200.697 180.158H199.026V184.452H199.035Z" fill="#73A7F6"/>
<path d="M213.939 189.467H212.85C212.722 189.467 212.619 189.432 212.542 189.372C212.464 189.312 212.404 189.227 212.37 189.132L211.393 186.612H206.722L205.744 189.132C205.71 189.218 205.65 189.295 205.573 189.364C205.487 189.432 205.393 189.467 205.264 189.467H204.176L208.342 179.044H209.773L213.939 189.467ZM207.107 185.601H210.999L209.362 181.358C209.259 181.092 209.147 180.767 209.053 180.372C209.002 180.569 208.95 180.758 208.899 180.921C208.847 181.084 208.796 181.238 208.753 181.358L207.107 185.601Z" fill="#73A7F6"/>
<path d="M213.055 179.052H214.178C214.306 179.052 214.409 179.087 214.486 179.147C214.563 179.207 214.623 179.292 214.658 179.387L217.606 186.741C217.675 186.904 217.735 187.084 217.795 187.281C217.855 187.478 217.906 187.675 217.958 187.881C218 187.675 218.052 187.469 218.103 187.281C218.155 187.084 218.215 186.904 218.283 186.741L221.215 179.387C221.249 179.301 221.309 179.224 221.386 179.155C221.472 179.087 221.566 179.052 221.695 179.052H222.826L218.575 189.467H217.306L213.055 179.052Z" fill="#73A7F6"/>
</svg>
