<svg width="240" height="240" viewBox="0 0 240 240" fill="none" xmlns="http://www.w3.org/2000/svg">
<path d="M0.925781 154.834C0.925781 154.834 6.60007 166.723 15.2315 171.909C23.8544 177.094 27.4201 170.76 27.4201 170.76L0.925781 154.834Z" fill="#8678E4"/>
<path d="M0.949219 154.783C0.949219 154.783 14.1149 154.226 22.7378 159.411C31.3606 164.597 27.4349 170.717 27.4349 170.717L0.949219 154.783Z" fill="#8678E4"/>
<path d="M0.339653 154.094L0.00390625 154.652L31.1865 173.406L31.5222 172.847L0.339653 154.094Z" fill="#3C3E87"/>
<path d="M128.766 211.869C128.766 211.5 129.057 211.209 129.417 211.209C129.777 211.209 130.068 211.5 130.068 211.86C130.068 212.229 129.786 212.511 129.417 212.511C129.057 212.52 128.766 212.229 128.766 211.869ZM123.486 212.297C123.126 212.263 122.86 211.954 122.886 211.594C122.911 211.234 123.228 210.969 123.588 210.994C123.948 211.029 124.214 211.337 124.188 211.697C124.154 212.04 123.88 212.297 123.537 212.297C123.52 212.297 123.503 212.297 123.486 212.297ZM134.654 211.689C134.628 211.329 134.894 211.02 135.254 210.986C135.614 210.96 135.923 211.226 135.948 211.586C135.983 211.946 135.717 212.254 135.357 212.289C135.34 212.289 135.314 212.289 135.306 212.289C134.963 212.289 134.68 212.031 134.654 211.689ZM117.597 211.603C117.237 211.551 116.988 211.209 117.048 210.857C117.108 210.497 117.443 210.257 117.794 210.317C118.146 210.369 118.386 210.703 118.334 211.063C118.283 211.38 118 211.62 117.691 211.62C117.657 211.62 117.623 211.611 117.597 211.603ZM140.508 211.054C140.448 210.694 140.688 210.36 141.048 210.309C141.408 210.257 141.734 210.497 141.794 210.857C141.854 211.209 141.614 211.543 141.254 211.603C141.22 211.611 141.186 211.611 141.16 211.611C140.834 211.594 140.56 211.371 140.508 211.054ZM111.768 210.454C111.417 210.369 111.203 210.017 111.288 209.666C111.366 209.323 111.717 209.109 112.068 209.186C112.42 209.271 112.634 209.623 112.548 209.974C112.48 210.274 112.214 210.471 111.914 210.471C111.863 210.48 111.811 210.471 111.768 210.454ZM146.286 209.957C146.2 209.606 146.414 209.254 146.766 209.169C147.117 209.083 147.468 209.297 147.554 209.649C147.64 210 147.417 210.351 147.074 210.437C147.023 210.454 146.971 210.454 146.92 210.454C146.628 210.454 146.363 210.257 146.286 209.957ZM106.043 208.86C105.708 208.74 105.52 208.38 105.623 208.037C105.734 207.694 106.094 207.506 106.446 207.617C106.788 207.729 106.977 208.097 106.866 208.44C106.771 208.714 106.523 208.886 106.24 208.886C106.18 208.886 106.111 208.877 106.043 208.86ZM151.968 208.406C151.857 208.063 152.046 207.694 152.388 207.583C152.723 207.471 153.091 207.651 153.211 208.003C153.323 208.346 153.134 208.714 152.791 208.826C152.791 208.826 152.791 208.826 152.783 208.826C152.714 208.843 152.654 208.86 152.577 208.86C152.311 208.86 152.054 208.68 151.968 208.406ZM100.471 206.803C100.137 206.666 99.9741 206.28 100.12 205.946C100.257 205.62 100.634 205.457 100.968 205.594C101.303 205.74 101.466 206.117 101.328 206.451C101.226 206.7 100.977 206.854 100.72 206.854C100.634 206.854 100.548 206.829 100.471 206.803ZM157.506 206.417C157.36 206.083 157.523 205.706 157.857 205.56C158.191 205.423 158.568 205.586 158.706 205.92C158.843 206.254 158.688 206.631 158.354 206.769C158.277 206.811 158.191 206.82 158.106 206.82C157.857 206.82 157.608 206.666 157.506 206.417ZM95.0712 204.309C94.7541 204.146 94.6255 203.751 94.7884 203.434C94.9512 203.109 95.3455 202.989 95.6712 203.151C95.9884 203.314 96.1169 203.709 95.9541 204.026C95.8427 204.257 95.6198 204.386 95.3712 204.386C95.2684 204.386 95.1655 204.36 95.0712 204.309ZM162.871 203.991C162.708 203.674 162.837 203.28 163.154 203.117C163.471 202.954 163.866 203.074 164.028 203.4C164.191 203.726 164.071 204.12 163.745 204.283C163.651 204.326 163.54 204.351 163.446 204.351C163.214 204.351 162.983 204.223 162.871 203.991ZM89.8855 201.411C89.5769 201.223 89.4827 200.829 89.6712 200.511C89.8598 200.203 90.2541 200.117 90.5627 200.297C90.8712 200.486 90.9655 200.889 90.7769 201.197C90.6569 201.403 90.4427 201.506 90.2198 201.506C90.1084 201.506 89.9884 201.471 89.8855 201.411ZM168.023 201.163C167.834 200.854 167.928 200.451 168.237 200.263C168.546 200.074 168.94 200.169 169.128 200.477C169.317 200.786 169.223 201.189 168.923 201.369C168.811 201.437 168.691 201.463 168.58 201.463C168.366 201.463 168.151 201.351 168.023 201.163ZM84.9484 198.103C84.6655 197.889 84.5969 197.486 84.8027 197.194C85.0169 196.911 85.4198 196.843 85.7112 197.049C86.0027 197.263 86.0627 197.666 85.8569 197.957C85.7284 198.137 85.5312 198.223 85.3341 198.223C85.1969 198.231 85.0598 198.189 84.9484 198.103ZM172.943 197.923C172.737 197.64 172.797 197.229 173.088 197.014C173.38 196.8 173.783 196.869 173.997 197.16C174.203 197.443 174.151 197.854 173.851 198.069C173.731 198.154 173.603 198.189 173.466 198.189C173.268 198.189 173.071 198.103 172.943 197.923ZM80.2855 194.426C80.0112 194.194 79.9769 193.783 80.2169 193.509C80.4484 193.234 80.8598 193.2 81.1341 193.44C81.4084 193.671 81.4427 194.083 81.2027 194.357C81.0741 194.503 80.8855 194.589 80.7055 194.589C80.5598 194.58 80.4055 194.529 80.2855 194.426ZM177.597 194.314C177.366 194.04 177.391 193.629 177.666 193.397C177.94 193.166 178.351 193.191 178.583 193.466C178.814 193.74 178.788 194.151 178.514 194.383C178.394 194.486 178.24 194.537 178.094 194.537C177.906 194.546 177.717 194.469 177.597 194.314ZM75.9227 190.397C75.6655 190.14 75.6655 189.737 75.9141 189.48C76.1712 189.223 76.5827 189.223 76.8398 189.48C77.0969 189.737 77.0969 190.14 76.8398 190.397C76.7198 190.526 76.5484 190.594 76.3769 190.594C76.2141 190.594 76.0427 190.526 75.9227 190.397ZM181.951 190.354C181.694 190.097 181.694 189.686 181.951 189.429C182.208 189.171 182.62 189.171 182.868 189.429C183.126 189.686 183.126 190.097 182.868 190.354C182.748 190.474 182.577 190.543 182.414 190.543C182.243 190.543 182.08 190.483 181.951 190.354ZM71.8855 186.043C71.6541 185.769 71.6798 185.357 71.9541 185.126C72.2284 184.894 72.6398 184.92 72.8712 185.194C73.1027 185.469 73.0769 185.88 72.8027 186.111C72.6827 186.214 72.5284 186.266 72.3827 186.266C72.1941 186.266 72.0141 186.189 71.8855 186.043ZM185.98 186.069C185.706 185.837 185.68 185.426 185.911 185.151C186.143 184.877 186.546 184.843 186.82 185.083C187.094 185.314 187.128 185.726 186.897 186C186.897 186 186.897 186 186.888 186C186.768 186.146 186.58 186.231 186.391 186.231C186.254 186.223 186.108 186.171 185.98 186.069ZM68.1998 181.389C67.9855 181.097 68.0455 180.694 68.3369 180.48C68.6284 180.266 69.0312 180.334 69.2455 180.626C69.4512 180.917 69.3998 181.32 69.0998 181.534C68.9798 181.62 68.8512 181.654 68.7141 181.654C68.5255 181.654 68.3284 181.56 68.1998 181.389ZM189.674 181.474C189.383 181.26 189.314 180.857 189.528 180.566C189.734 180.283 190.146 180.214 190.437 180.42C190.72 180.634 190.788 181.037 190.583 181.329C190.454 181.509 190.257 181.594 190.051 181.594C189.923 181.603 189.794 181.56 189.674 181.474ZM64.8998 176.451C64.7112 176.143 64.8055 175.74 65.1055 175.551C65.4141 175.363 65.8169 175.457 66.0055 175.766C66.1941 176.074 66.0998 176.477 65.7912 176.666C65.6884 176.734 65.5684 176.76 65.4484 176.76C65.2255 176.76 65.0112 176.649 64.8998 176.451ZM193 176.614C192.691 176.426 192.597 176.023 192.786 175.714C192.974 175.406 193.368 175.311 193.677 175.5C193.994 175.689 194.08 176.091 193.891 176.4C193.771 176.597 193.557 176.709 193.334 176.709C193.214 176.7 193.103 176.674 193 176.614ZM61.9855 171.283C61.8227 170.966 61.9427 170.571 62.2684 170.4C62.5855 170.237 62.9884 170.366 63.1512 170.683C63.3141 171 63.1941 171.394 62.8684 171.557C62.7741 171.609 62.6712 171.626 62.5769 171.626C62.3284 171.634 62.0969 171.497 61.9855 171.283ZM195.923 171.497C195.606 171.326 195.477 170.94 195.64 170.614C195.803 170.297 196.197 170.169 196.514 170.331C196.831 170.494 196.96 170.889 196.797 171.214C196.677 171.446 196.454 171.566 196.214 171.566C196.111 171.566 196.017 171.549 195.923 171.497ZM59.4912 165.891C59.3541 165.557 59.5084 165.171 59.8427 165.034C60.1769 164.897 60.5541 165.051 60.6912 165.386H60.6998C60.8369 165.72 60.6827 166.106 60.3484 166.243C60.2627 166.277 60.1769 166.294 60.0912 166.294C59.8341 166.294 59.5941 166.14 59.4912 165.891ZM198.434 166.166C198.108 166.029 197.954 165.643 198.091 165.317C198.228 164.983 198.606 164.82 198.94 164.957C199.274 165.103 199.428 165.48 199.291 165.806C199.188 166.063 198.948 166.209 198.691 166.209C198.606 166.217 198.52 166.209 198.434 166.166ZM57.4255 160.329C57.3141 159.986 57.5027 159.626 57.8455 159.506C58.1884 159.394 58.5484 159.583 58.6684 159.926C58.7798 160.269 58.5912 160.637 58.2484 160.749C58.1798 160.774 58.1112 160.783 58.0427 160.783C57.7769 160.774 57.5198 160.603 57.4255 160.329ZM200.526 160.654C200.183 160.543 199.994 160.183 200.106 159.831C200.217 159.489 200.577 159.3 200.928 159.411C201.271 159.523 201.46 159.883 201.348 160.234C201.263 160.509 201.014 160.68 200.731 160.68C200.663 160.689 200.594 160.68 200.526 160.654ZM55.8141 154.62C55.7284 154.269 55.9512 153.917 56.2941 153.831C56.6455 153.746 56.9969 153.96 57.0827 154.311C57.1684 154.654 56.9541 155.014 56.6027 155.1C56.5512 155.109 56.4998 155.117 56.4569 155.117C56.1569 155.109 55.8827 154.911 55.8141 154.62ZM202.171 155.006C201.82 154.92 201.606 154.569 201.691 154.217C201.768 153.866 202.128 153.651 202.471 153.737C202.823 153.823 203.037 154.174 202.951 154.526C202.883 154.826 202.617 155.023 202.317 155.023C202.266 155.023 202.223 155.023 202.171 155.006ZM54.6569 148.791C54.6055 148.44 54.8455 148.097 55.2055 148.046C55.5569 147.986 55.8912 148.234 55.9512 148.586C56.0027 148.937 55.7627 149.28 55.4112 149.331C55.3769 149.34 55.3427 149.34 55.3084 149.34C54.9827 149.331 54.7084 149.117 54.6569 148.791ZM203.363 149.237C203.003 149.186 202.763 148.843 202.823 148.491C202.874 148.131 203.208 147.891 203.568 147.951C203.92 148.003 204.168 148.346 204.108 148.697C204.066 149.014 203.783 149.254 203.474 149.254C203.431 149.254 203.397 149.246 203.363 149.237ZM53.9541 142.894C53.9284 142.534 54.1941 142.217 54.5541 142.191C54.9141 142.166 55.2227 142.431 55.2569 142.791C55.2827 143.151 55.0169 143.46 54.6569 143.494C54.6398 143.494 54.6141 143.494 54.6055 143.494C54.2712 143.494 53.9798 143.237 53.9541 142.894ZM204.1 143.4C203.74 143.374 203.474 143.057 203.5 142.706C203.526 142.346 203.843 142.08 204.194 142.106C204.554 142.131 204.82 142.449 204.794 142.8C204.768 143.143 204.486 143.409 204.143 143.409C204.134 143.4 204.108 143.4 204.1 143.4ZM53.7227 136.963C53.7227 136.594 54.0141 136.311 54.3741 136.311C54.7341 136.303 55.0255 136.594 55.0255 136.954C55.0255 137.323 54.7341 137.606 54.3741 137.614C54.0141 137.614 53.7227 137.323 53.7227 136.963ZM203.731 136.869C203.731 136.843 203.731 136.809 203.74 136.783C203.731 136.749 203.731 136.714 203.731 136.689C203.731 136.329 204.023 136.037 204.383 136.037C204.743 136.037 205.034 136.32 205.034 136.689C205.034 136.723 205.034 136.749 205.026 136.783C205.034 136.817 205.034 136.843 205.034 136.877C205.034 136.877 205.034 136.877 205.043 136.877C205.043 137.237 204.751 137.529 204.383 137.529C204.014 137.52 203.731 137.22 203.731 136.869ZM54.5455 131.726C54.1855 131.7 53.9198 131.383 53.9455 131.023C53.9712 130.663 54.2884 130.397 54.6398 130.423C54.9998 130.457 55.2741 130.766 55.2484 131.126C55.2227 131.469 54.9398 131.726 54.5969 131.726C54.5798 131.726 54.5627 131.726 54.5455 131.726ZM203.483 130.851C203.448 130.491 203.714 130.183 204.074 130.157C204.434 130.123 204.743 130.389 204.777 130.749C204.803 131.109 204.537 131.426 204.177 131.451C204.16 131.451 204.143 131.451 204.126 131.451C203.8 131.451 203.508 131.194 203.483 130.851ZM55.1712 125.871C54.8198 125.811 54.5798 125.477 54.6312 125.126C54.6827 124.766 55.0255 124.526 55.3769 124.577C55.7369 124.637 55.9769 124.971 55.9255 125.323C55.8741 125.649 55.5998 125.88 55.2827 125.88C55.2398 125.88 55.2055 125.871 55.1712 125.871ZM202.788 125.057C202.737 124.697 202.977 124.363 203.328 124.311C203.688 124.251 204.023 124.5 204.074 124.851C204.126 125.203 203.886 125.546 203.534 125.597C203.491 125.606 203.466 125.614 203.431 125.614C203.123 125.606 202.84 125.383 202.788 125.057ZM56.2512 120.086C55.8998 120 55.6855 119.649 55.7712 119.306C55.8484 118.954 56.1998 118.74 56.5512 118.826C56.9027 118.903 57.1169 119.254 57.0398 119.606H57.0312C56.9627 119.906 56.6969 120.103 56.3969 120.103C56.3541 120.103 56.3112 120.094 56.2512 120.086ZM201.64 119.34C201.554 118.989 201.768 118.637 202.12 118.551C202.471 118.466 202.823 118.68 202.908 119.031C202.994 119.383 202.78 119.734 202.428 119.82C202.377 119.837 202.334 119.837 202.283 119.837C201.983 119.829 201.717 119.64 201.64 119.34ZM57.7941 114.403C57.4598 114.291 57.2627 113.931 57.3741 113.58C57.4855 113.237 57.8455 113.049 58.1969 113.16C58.5312 113.271 58.7198 113.631 58.6169 113.983C58.5227 114.257 58.2741 114.429 57.9998 114.429C57.9227 114.437 57.8541 114.429 57.7941 114.403ZM200.046 113.726C199.934 113.383 200.123 113.006 200.466 112.903C200.808 112.791 201.177 112.98 201.288 113.323C201.4 113.666 201.22 114.034 200.877 114.146C200.808 114.163 200.74 114.18 200.671 114.18C200.397 114.171 200.14 114 200.046 113.726ZM59.7741 108.857C59.4398 108.72 59.2769 108.334 59.4227 108C59.5512 107.666 59.9369 107.511 60.2712 107.649C60.6055 107.786 60.7598 108.171 60.6312 108.497H60.6227C60.5198 108.746 60.2798 108.9 60.0227 108.9C59.9369 108.909 59.8598 108.883 59.7741 108.857ZM198.023 108.257C197.877 107.923 198.031 107.546 198.366 107.409C198.7 107.263 199.086 107.426 199.223 107.751C199.36 108.086 199.206 108.471 198.871 108.609C198.794 108.643 198.708 108.66 198.623 108.66C198.366 108.66 198.117 108.506 198.023 108.257ZM62.1912 103.483C61.8741 103.32 61.7455 102.926 61.9084 102.6C62.0712 102.283 62.4655 102.154 62.7827 102.317C63.1084 102.471 63.2284 102.874 63.0655 103.191C62.9541 103.423 62.7227 103.551 62.4827 103.551C62.3884 103.551 62.2855 103.526 62.1912 103.483ZM195.563 102.969C195.4 102.651 195.52 102.257 195.846 102.086C196.163 101.923 196.557 102.043 196.72 102.369C196.883 102.686 196.763 103.08 196.437 103.243C196.343 103.294 196.24 103.311 196.137 103.311C195.906 103.32 195.683 103.191 195.563 102.969ZM65.0284 98.3143C64.7198 98.1343 64.6255 97.7315 64.8141 97.4229C65.0027 97.1143 65.3969 97.02 65.7055 97.2086C66.0141 97.3972 66.1084 97.7914 65.9198 98.1C65.7998 98.3057 65.5769 98.4086 65.3627 98.4086C65.2512 98.4086 65.1312 98.3743 65.0284 98.3143ZM192.7 97.8857C192.511 97.5857 192.606 97.1829 192.914 96.9943C193.223 96.8057 193.617 96.9 193.806 97.2086C193.994 97.5172 193.9 97.9114 193.6 98.1C193.488 98.1686 193.368 98.1943 193.257 98.1943C193.034 98.1943 192.82 98.0829 192.7 97.8857ZM68.2512 93.3857C67.9684 93.1714 67.8998 92.7686 68.1055 92.4772C68.3112 92.1857 68.7227 92.1172 69.0141 92.3315C69.2969 92.5372 69.3741 92.9486 69.1598 93.24C69.0398 93.4114 68.8341 93.5057 68.6369 93.5057C68.4998 93.5143 68.3627 93.4629 68.2512 93.3857ZM189.443 93.0429C189.237 92.7515 189.297 92.3486 189.588 92.1343C189.871 91.9286 190.283 91.9886 190.497 92.28C190.703 92.5629 190.643 92.9743 190.351 93.1886C190.231 93.2743 190.094 93.3086 189.966 93.3086C189.768 93.3086 189.571 93.2229 189.443 93.0429ZM71.8598 88.7229C71.5855 88.4915 71.5512 88.08 71.7912 87.8057C72.0227 87.5315 72.4255 87.4972 72.6998 87.7372C72.9741 87.9686 73.0084 88.38 72.7769 88.6543C72.6484 88.8 72.4684 88.8857 72.2798 88.8857C72.1341 88.8857 71.9798 88.8343 71.8598 88.7229ZM185.817 88.4657C185.585 88.2 185.611 87.78 185.886 87.5486C186.16 87.3172 186.571 87.3429 186.803 87.6172C187.034 87.8915 187.008 88.3029 186.734 88.5343C186.614 88.6457 186.46 88.6886 186.314 88.6886C186.126 88.6972 185.945 88.62 185.817 88.4657ZM75.8112 84.36C75.5541 84.1029 75.5541 83.7 75.8112 83.4429C76.0684 83.1857 76.4798 83.1857 76.7369 83.4429C76.9941 83.7 76.9941 84.1029 76.7369 84.36C76.6084 84.4886 76.4369 84.5486 76.2741 84.5486C76.1027 84.5486 75.9398 84.4972 75.8112 84.36ZM181.848 84.1972C181.591 83.94 181.591 83.5286 181.84 83.2715C182.097 83.0143 182.508 83.0143 182.766 83.2715C183.023 83.5286 183.023 83.9315 182.766 84.1886C182.637 84.3172 182.474 84.3857 182.303 84.3857C182.14 84.3857 181.968 84.3172 181.848 84.1972ZM80.0969 80.3229C79.8655 80.0486 79.8912 79.6372 80.1655 79.4057C80.4398 79.1743 80.8512 79.2 81.0827 79.4743C81.3141 79.7486 81.2884 80.16 81.0141 80.3915C80.8941 80.4943 80.7398 80.5457 80.5941 80.5457C80.4055 80.5543 80.2255 80.4772 80.0969 80.3229ZM177.554 80.2372C177.28 80.0057 177.246 79.5943 177.486 79.32C177.717 79.0457 178.128 79.0114 178.403 79.2514C178.677 79.4829 178.711 79.8943 178.471 80.1686C178.343 80.3229 178.154 80.4 177.974 80.4C177.828 80.3915 177.674 80.34 177.554 80.2372ZM84.6741 76.6286C84.4598 76.3457 84.5198 75.9343 84.8198 75.72C85.1027 75.5057 85.5141 75.5743 85.7284 75.8572C85.9341 76.1486 85.8741 76.5514 85.5827 76.7657C85.4627 76.8514 85.3255 76.8857 85.1969 76.8857C84.9998 76.8943 84.8112 76.8 84.6741 76.6286ZM172.96 76.6286C172.677 76.4229 172.6 76.0114 172.814 75.72C173.02 75.4372 173.431 75.3686 173.723 75.5743C174.006 75.78 174.074 76.1915 173.868 76.4829C173.74 76.6629 173.543 76.7486 173.337 76.7486C173.217 76.7486 173.08 76.7143 172.96 76.6286ZM89.5341 73.3029C89.3455 72.9943 89.4398 72.5915 89.7484 72.4029C90.0569 72.2143 90.4512 72.3086 90.6398 72.6172C90.8284 72.9257 90.7341 73.3286 90.4341 73.5172C90.3227 73.5857 90.2027 73.6114 90.0912 73.6114C89.8769 73.6114 89.6627 73.5086 89.5341 73.3029ZM168.1 73.3886C167.791 73.2086 167.697 72.8057 167.886 72.4972C168.074 72.1886 168.468 72.0943 168.777 72.2829C169.086 72.4715 169.18 72.8657 168.991 73.1743C168.871 73.38 168.657 73.4829 168.434 73.4829C168.323 73.4829 168.211 73.4486 168.1 73.3886ZM94.6341 70.38C94.4712 70.0543 94.5998 69.66 94.9169 69.4972C95.2341 69.3343 95.6369 69.4543 95.7998 69.78C95.9627 70.1057 95.8341 70.5 95.5169 70.6629C95.4227 70.7057 95.3198 70.7314 95.2255 70.7314C94.9769 70.7314 94.7541 70.5943 94.6341 70.38ZM163.008 70.5429C162.691 70.38 162.563 69.9857 162.726 69.6686C162.888 69.3514 163.283 69.2229 163.608 69.3857C163.926 69.5486 164.054 69.9429 163.891 70.26C163.771 70.4915 163.548 70.62 163.308 70.62C163.197 70.6115 163.103 70.5943 163.008 70.5429ZM99.9569 67.8515C99.8198 67.5172 99.9741 67.14 100.308 66.9943C100.643 66.8572 101.028 67.0115 101.157 67.3543C101.294 67.6886 101.14 68.0657 100.806 68.2029C100.72 68.2372 100.634 68.2543 100.548 68.2543C100.3 68.2543 100.06 68.1086 99.9569 67.8515ZM157.694 68.1086C157.36 67.9714 157.206 67.5857 157.343 67.2514C157.48 66.9172 157.857 66.7629 158.191 66.9C158.526 67.0372 158.688 67.4143 158.551 67.7486C158.448 68.0057 158.208 68.1515 157.943 68.1515C157.866 68.1515 157.78 68.1343 157.694 68.1086ZM105.451 65.76C105.34 65.4172 105.528 65.0486 105.871 64.9372C106.214 64.8257 106.583 65.0057 106.694 65.3572C106.814 65.7 106.626 66.0686 106.274 66.18C106.206 66.1972 106.137 66.2143 106.068 66.2143C105.794 66.2057 105.537 66.0343 105.451 65.76ZM152.217 66.0943C151.874 65.9829 151.686 65.6143 151.797 65.2715C151.908 64.9286 152.268 64.74 152.62 64.8515C152.963 64.9629 153.143 65.3315 153.04 65.6743C152.946 65.9572 152.697 66.1286 152.423 66.1286C152.346 66.1286 152.277 66.1115 152.217 66.0943ZM111.1 64.1057C111.014 63.7543 111.228 63.4029 111.58 63.3172C111.923 63.2315 112.274 63.4457 112.368 63.7972C112.446 64.1486 112.231 64.5 111.888 64.5772C111.837 64.5943 111.786 64.5943 111.734 64.5943C111.443 64.6029 111.177 64.4057 111.1 64.1057ZM146.594 64.5257C146.243 64.44 146.028 64.0886 146.106 63.7372C146.191 63.3943 146.543 63.1715 146.894 63.2572C147.246 63.3429 147.46 63.6943 147.374 64.0372C147.306 64.3372 147.031 64.5343 146.74 64.5343C146.697 64.5343 146.637 64.5257 146.594 64.5257ZM116.86 62.9057C116.8 62.5543 117.04 62.2114 117.4 62.16C117.76 62.1 118.094 62.34 118.146 62.7C118.206 63.0515 117.966 63.3857 117.606 63.4457C117.571 63.4543 117.537 63.4543 117.511 63.4543C117.186 63.4457 116.92 63.2229 116.86 62.9057ZM140.868 63.4029C140.517 63.3429 140.268 63.0086 140.328 62.6572C140.38 62.3057 140.714 62.0572 141.074 62.1172C141.426 62.1686 141.674 62.5029 141.614 62.8629C141.571 63.1886 141.288 63.42 140.971 63.42C140.928 63.4114 140.894 63.4029 140.868 63.4029ZM122.706 62.1515C122.671 61.7915 122.946 61.4829 123.306 61.4572C123.657 61.4314 123.974 61.6886 124 62.0572C124.034 62.4172 123.76 62.7257 123.4 62.7514C123.391 62.76 123.366 62.76 123.357 62.76C123.014 62.76 122.731 62.4943 122.706 62.1515ZM135.074 62.7343C134.714 62.7086 134.44 62.3914 134.474 62.04C134.5 61.68 134.817 61.4057 135.168 61.4314C135.528 61.4657 135.794 61.7743 135.768 62.1343C135.743 62.4772 135.46 62.7343 135.126 62.7343C135.1 62.7343 135.083 62.7343 135.074 62.7343ZM128.586 61.8686C128.586 61.5086 128.868 61.2172 129.237 61.2172C129.597 61.2172 129.888 61.5 129.888 61.8686C129.888 62.2286 129.597 62.52 129.237 62.52C128.877 62.52 128.586 62.2286 128.586 61.8686Z" fill="#3C3E87"/>
<path d="M40.1787 140.349C38.7901 139.603 37.8644 138.18 37.753 136.611C37.6673 135.48 37.4101 134.34 36.9558 133.234C35.8416 130.491 33.7758 128.417 31.2816 127.26C29.9444 126.634 28.9244 125.46 28.5987 124.02C28.4701 123.454 28.273 122.897 27.9901 122.357C26.4216 119.289 22.7958 117.797 19.5216 118.869C15.5958 120.154 13.6416 124.466 15.1587 128.229C15.3044 128.589 15.4758 128.923 15.673 129.249C16.4358 130.509 16.5301 132.06 15.9987 133.44C15.0216 136.003 14.9701 138.934 16.0758 141.677C16.513 142.757 17.0958 143.726 17.7901 144.583C18.8187 145.843 19.1701 147.549 18.6816 149.1C17.6273 152.46 17.7387 156.197 19.2901 159.694C22.5216 166.98 31.0073 170.494 38.4473 167.623C46.2987 164.589 50.1216 155.726 46.9758 147.951C45.6301 144.566 43.1616 141.951 40.1787 140.349Z" fill="#FFD365"/>
<path d="M46.1295 185.023L36.298 160.74L40.9952 149.794L40.3952 149.537L35.9552 159.891L31.2152 148.183L34.3352 140.906L33.7352 140.649L30.8723 147.326L26.6466 136.894L28.9438 131.529L28.3438 131.271L26.2952 136.046L21.6495 124.551L21.0409 124.791L25.618 136.106L21.1009 134.16L20.8438 134.76L25.9695 136.963L30.238 147.497L23.6552 144.677L23.398 145.269L30.5809 148.354L35.3723 160.183L24.9495 155.709L24.6923 156.309L35.7152 161.04L45.5209 185.271L46.1295 185.023Z" fill="#3C3E87"/>
<path d="M197.469 224.803C220.958 224.803 240 205.761 240 182.272C240 158.782 220.958 139.74 197.469 139.74C173.979 139.74 154.938 158.782 154.938 182.272C154.938 205.761 173.979 224.803 197.469 224.803Z" fill="#FFD365"/>
<path d="M227.567 214.714L222.707 193.303C221.429 196.329 218.301 198.806 212.849 199.046C199.272 199.654 201.304 184.792 201.321 184.697H201.312H188.935C186.167 184.697 183.698 186.429 182.755 189.026L180.227 195.977H185.438L191.755 220.757H207.321V224.794L215.352 222.249L221.841 221.983C226.624 221.752 228.261 218.126 227.567 214.714Z" fill="#F3F3F3"/>
<path d="M217.512 181.509C210.492 179.383 208.546 170.349 204.226 164.451C203.66 163.483 202.914 162.66 202.057 162C202.049 161.991 202.049 161.991 202.04 161.983C200.394 160.723 198.32 160.046 196.272 160.046C191.763 160.046 185.412 161.974 187.194 169.611C187.194 169.611 190.7 165.06 196.726 165.06C196.726 165.06 197.3 167.426 199.16 168.754C199.572 168.489 200.06 168.334 200.592 168.334C200.849 168.334 201.089 168.377 201.32 168.446C201.432 168.48 201.534 168.506 201.637 168.549C202.589 168.96 203.257 169.903 203.257 171C203.257 172.217 202.443 173.229 201.329 173.554C201.32 173.554 201.32 173.554 201.312 173.563V173.803V177.249V184.689C201.312 184.689 201.312 184.689 201.312 184.697C201.303 184.791 199.272 199.654 212.84 199.046C218.292 198.797 221.42 196.329 222.697 193.303C224.609 188.769 222.363 182.974 217.512 181.509Z" fill="#3C3E87"/>
<path d="M201.638 168.557C201.535 168.514 201.424 168.489 201.321 168.454C201.09 168.386 200.85 168.343 200.592 168.343C200.07 168.343 199.581 168.497 199.161 168.763C197.301 167.426 196.727 165.069 196.727 165.069C190.701 165.069 187.195 169.62 187.195 169.62V175.954C187.195 177.669 188.79 178.946 190.47 178.56L193.632 177.729V184.706V190.843L201.321 184.706L201.33 184.697V177.257V173.811V173.571C201.338 173.571 201.338 173.571 201.347 173.563C202.452 173.237 203.275 172.226 203.275 171.009C203.258 169.911 202.59 168.969 201.638 168.557Z" fill="#FF83AB"/>
<path d="M191.751 220.766L185.434 195.977H146.031L153.377 224.803H183.034H192.788H207.326V220.766H191.751Z" fill="#8678E4"/>
<path d="M201.472 212.246L198.317 214.234C197.786 214.569 197.469 215.151 197.469 215.777V218.949C197.469 219.951 198.283 220.766 199.286 220.766H207.317L209.657 213.84L202.903 212.031C202.423 211.894 201.9 211.971 201.472 212.246Z" fill="#FF83AB"/>
<path d="M172.126 210.394C172.126 211.894 170.909 213.112 169.409 213.112C167.909 213.112 166.691 211.894 166.691 210.394C166.691 208.894 167.909 207.677 169.409 207.677C170.909 207.677 172.126 208.894 172.126 210.394Z" fill="#83D2C1"/>
<path d="M188.226 173.854C188.115 174.463 188.475 176.074 189.572 176.066C190.669 176.057 192.084 174.437 192.195 173.829C192.306 173.22 191.072 173.863 189.975 173.863C188.878 173.88 188.338 173.254 188.226 173.854Z" fill="white"/>
<path d="M193.017 171.086C193.344 171.086 193.609 170.641 193.609 170.091C193.609 169.542 193.344 169.097 193.017 169.097C192.691 169.097 192.426 169.542 192.426 170.091C192.426 170.641 192.691 171.086 193.017 171.086Z" fill="#3C3E87"/>
<path d="M188.744 171.309C189.07 171.309 189.335 170.863 189.335 170.314C189.335 169.765 189.07 169.32 188.744 169.32C188.417 169.32 188.152 169.765 188.152 170.314C188.152 170.863 188.417 171.309 188.744 171.309Z" fill="#3C3E87"/>
<path opacity="0.15" d="M213.823 199.611L217.474 211.671L210 213.626L210.223 213.3C215.263 210.566 213.823 199.611 213.823 199.611Z" fill="#3C3E87"/>
<path d="M171.903 67.08C171.903 43.5857 152.857 24.5486 129.371 24.5486C105.877 24.5486 86.8398 43.5943 86.8398 67.08C86.8398 84.7886 97.6656 99.9686 113.06 106.371L112.794 101.829H111.466C110.72 101.829 109.983 101.709 109.271 101.486C107.008 100.783 104.986 99 103.674 96.36C103.237 95.4857 102.92 94.5343 102.697 93.5572C102.277 91.7229 102.226 89.7514 102.508 87.8486L105.517 67.9457C106.048 64.4229 108.5 61.8686 111.346 61.8686H123.483H134.703H146.308C149.403 61.8686 151.974 64.86 152.223 68.7343L153.843 93.7114C153.903 94.62 153.817 95.4857 153.628 96.2914C153.037 98.7514 151.383 100.594 149.394 101.066C148.606 101.254 147.766 101.237 146.917 100.946L145.623 100.5L145.177 106.569C160.846 100.294 171.903 84.9772 171.903 67.08Z" fill="#8678E4"/>
<path d="M146.933 100.954C147.782 101.246 148.622 101.263 149.41 101.074C151.39 100.594 153.053 98.7515 153.644 96.3001C153.842 95.4943 153.919 94.6286 153.859 93.72L152.239 68.7429C151.99 64.86 149.41 61.8772 146.324 61.8772H134.719H123.499H111.362C108.507 61.8772 106.064 64.4315 105.533 67.9543L102.524 87.8572C102.233 89.7601 102.293 91.7229 102.713 93.5658C102.936 94.5429 103.253 95.4943 103.69 96.3686C105.002 99.0086 107.024 100.791 109.287 101.494C109.999 101.717 110.736 101.837 111.482 101.837H112.81L113.076 106.38C118.099 108.471 123.61 109.62 129.387 109.62C134.976 109.62 140.316 108.54 145.21 106.577L145.656 100.509L146.933 100.954Z" fill="#73A7F6"/>
<path d="M126.235 91.7143H116.678C115.778 91.7143 114.99 91.0886 114.801 90.2058L111.261 73.9972C110.995 72.7972 111.912 71.6658 113.138 71.6658H122.695C123.595 71.6658 124.384 72.2915 124.572 73.1743L128.112 89.3829C128.378 90.5743 127.461 91.7143 126.235 91.7143Z" fill="#FFD365"/>
<path d="M133.137 93.4372L137.303 85.0972L134.457 82.2772C133.694 81.5229 132.649 81.1458 131.586 81.2401L128.972 81.4715C127.454 81.6001 126.177 82.6715 125.774 84.1372L124.472 88.9544C124.069 90.4372 125.02 91.9544 126.537 92.2286L133.137 93.4372Z" fill="#FF83AB"/>
<path d="M109.84 88.8515L111.34 84.9258C111.768 83.7944 112.891 83.0744 114.1 83.1601L115.454 83.2544C116.577 83.3315 117.571 83.9915 118.086 84.9944L120.083 88.8858C120.683 90.0515 120.246 91.4744 119.097 92.1087L114.837 94.4401L109.84 88.8515Z" fill="#FF83AB"/>
<path d="M128.385 34.1571C126.954 31.7228 119.711 30.2828 116.908 34.1571C113.625 38.7086 117.525 42.6171 117.525 42.6171V39.12H125.394L128.806 42.06V46.2H130.066C130.066 44.4771 131.463 43.08 133.186 43.08C133.451 43.08 133.708 43.1228 133.957 43.1914C134.248 43.2686 134.514 43.38 134.771 43.5257C135.294 41.2714 135.611 38.1171 134.034 36.1628C132.114 33.7714 128.385 34.1571 128.385 34.1571Z" fill="#3C3E87"/>
<path d="M134.781 43.5343C134.532 43.3885 134.258 43.2685 133.967 43.2C133.718 43.14 133.461 43.0885 133.195 43.0885C131.472 43.0885 130.075 44.4857 130.075 46.2085H128.815V42.0685L125.404 39.1285H117.535V51.8485C117.535 53.8543 119.404 55.3457 121.358 54.8914L125.052 53.9228V61.8685L129.509 66.2828L133.967 61.8685V49.2171C135.312 48.8743 136.315 47.6571 136.315 46.2085C136.315 45.06 135.698 44.0743 134.781 43.5343Z" fill="#FF83AB"/>
<path d="M125.052 61.8685H121.246L125.052 70.8L129.509 66.2828L125.052 61.8685Z" fill="#F3F3F3"/>
<path d="M133.969 61.8687H137.775L133.969 70.8001L129.512 66.2829L133.969 61.8687Z" fill="#F3F3F3"/>
<path d="M118.69 49.0886C118.562 49.8 118.982 51.6857 120.259 51.6772C121.536 51.6686 123.199 49.7743 123.327 49.0629C123.456 48.3514 122.007 49.0972 120.73 49.1057C119.453 49.1143 118.819 48.3772 118.69 49.0886Z" fill="white"/>
<path d="M124.288 45.84C124.671 45.84 124.982 45.322 124.982 44.6829C124.982 44.0438 124.671 43.5258 124.288 43.5258C123.905 43.5258 123.594 44.0438 123.594 44.6829C123.594 45.322 123.905 45.84 124.288 45.84Z" fill="#3C3E87"/>
<path d="M119.292 46.0972C119.675 46.0972 119.986 45.5792 119.986 44.9401C119.986 44.301 119.675 43.783 119.292 43.783C118.908 43.783 118.598 44.301 118.598 44.9401C118.598 45.5792 118.908 46.0972 119.292 46.0972Z" fill="#3C3E87"/>
<path d="M76.0156 222.18C80.3785 220.569 84.4071 218.263 87.9556 215.4H76.5813L76.0156 222.18Z" fill="#73A7F6"/>
<path d="M60.8179 179.983C60.8865 179.983 60.9551 179.983 61.0236 179.974C60.4236 179.966 59.8494 179.923 59.3008 179.863C59.7808 179.94 60.2865 179.983 60.8179 179.983Z" fill="#73A7F6"/>
<path d="M103.813 182.271C103.813 158.777 84.7671 139.74 61.2814 139.74C37.7871 139.74 18.75 158.786 18.75 182.271C18.75 200.22 29.8671 215.563 45.5786 221.811L44.3186 212.177L41.9614 213.814C41.2071 214.337 40.4357 214.594 39.6814 214.637C36.5614 214.809 33.75 211.243 34.2043 206.811C34.2214 206.64 34.2471 206.469 34.2729 206.297L37.4871 186.094C38.3271 180.831 41.8843 177.051 46.0071 177.051H54.2357H55.4186H57.45V165.729C56.3357 165.411 55.5129 164.391 55.5129 163.174C55.5129 162.36 55.89 161.64 56.4643 161.151C55.9071 160.337 55.35 159.086 55.5129 157.431C55.83 154.329 58.1357 154.646 58.1357 154.646C59.4814 152.194 65.6186 149.863 70.0329 153.66C74.4471 157.466 71.5757 161.983 71.5757 161.983V168.309C71.5757 170.023 69.9814 171.3 68.3014 170.914L65.1386 170.083V177.051H66.2186H68.3271H74.8157C77.9443 177.051 80.8329 179.246 82.3757 182.794H92.9529C94.7786 182.794 96.1586 184.449 95.8329 186.24L94.83 191.777C95.3871 191.974 95.8757 192.351 96.1929 192.9L97.1357 194.529C97.6757 195.454 97.8129 196.56 97.5214 197.597L97.2471 198.557C96.6643 200.631 94.9243 202.089 92.91 202.414L91.0671 212.614C98.9357 204.9 103.813 194.151 103.813 182.271Z" fill="#73A7F6"/>
<path d="M60.7317 193.92C73.2385 193.92 83.3774 183.835 83.3774 171.394C83.3774 158.954 73.2385 148.869 60.7317 148.869C48.2248 148.869 38.0859 158.954 38.0859 171.394C38.0859 183.835 48.2248 193.92 60.7317 193.92Z" fill="#73A7F6"/>
<path d="M71.259 215.391C69.4333 215.391 68.0533 213.737 68.379 211.946L73.2133 185.194C73.4618 183.797 74.679 182.786 76.0933 182.786H82.3847C80.8418 179.237 77.9533 177.043 74.8247 177.043H68.3361C68.3361 178.663 65.1818 179.974 61.2904 179.974C61.2047 179.974 61.119 179.974 61.0247 179.966C60.9561 179.966 60.8875 179.974 60.819 179.974C60.2875 179.974 59.7818 179.931 59.2933 179.854C56.3704 179.494 54.2361 178.371 54.2361 177.043H46.0075C41.8847 177.043 38.3275 180.814 37.4876 186.086L34.2733 206.289C34.2475 206.46 34.2218 206.631 34.2047 206.803C33.7504 211.226 36.5618 214.8 39.6818 214.629C40.4361 214.586 41.2075 214.329 41.9618 213.806L44.319 212.169L59.1218 202.414L56.2161 203.391L53.4561 195.437L58.6504 190.543L56.7818 188.674L57.9561 187.5L60.8533 190.397L64.3161 193.86L67.4361 196.98L68.3447 199.054L66.2704 198.146L64.7704 196.646L64.2133 198.6C63.999 199.346 63.6047 200.006 63.0818 200.546C62.3104 201.951 61.2561 203.186 59.9961 204.171L45.0733 217.286L44.3447 212.16L45.6047 221.794C50.4647 223.723 55.7618 224.786 61.3075 224.786C66.4847 224.786 71.4475 223.86 76.0418 222.163L76.6075 215.383H71.259V215.391Z" fill="#83D2C1"/>
<path d="M57.4236 158.152C58.5464 158.152 59.5236 158.769 60.055 159.677L64.7007 154.637C64.7007 154.637 66.8264 157.294 64.7007 159.849H72.7664C72.7664 159.849 76.0578 154.68 71.0007 150.326C65.9436 145.972 58.9236 148.637 57.3807 151.449C57.3807 151.449 54.7407 151.089 54.3721 154.637C54.175 156.523 54.8178 157.954 55.4607 158.889C55.7864 158.614 56.1721 158.4 56.5921 158.28C56.8578 158.203 57.1321 158.152 57.4236 158.152Z" fill="#3C3E87"/>
<path d="M58.7025 180.309C59.3282 180.386 59.9968 180.429 60.6739 180.437C63.9825 180.369 66.631 178.903 66.631 177.086H65.3968V169.114L69.0139 170.066C70.9339 170.511 72.7596 169.054 72.7596 167.091V159.849H64.6939C66.8196 157.294 64.6939 154.637 64.6939 154.637L60.0482 159.677C59.5168 158.769 58.5482 158.151 57.4168 158.151C57.1253 158.151 56.851 158.203 56.5853 158.28C56.1568 158.4 55.7796 158.606 55.4539 158.889C54.7939 159.446 54.3653 160.277 54.3653 161.203C54.3653 162.6 55.3082 163.766 56.5853 164.126V177.094H54.2539C54.2625 178.62 56.1396 179.906 58.7025 180.309ZM71.3968 160.44C71.7739 160.44 72.0739 160.946 72.0739 161.571C72.0739 162.197 71.7653 162.703 71.3968 162.703C71.0282 162.703 70.7196 162.197 70.7196 161.571C70.7196 160.946 71.0196 160.44 71.3968 160.44ZM69.9911 165.643C71.2425 165.651 71.8596 164.931 71.9882 165.626C72.1168 166.32 71.7053 168.163 70.4453 168.154C69.1939 168.146 67.5653 166.286 67.4453 165.591C67.3168 164.906 68.7311 165.634 69.9911 165.643ZM66.5025 160.183C66.8796 160.183 67.1796 160.689 67.1796 161.314C67.1796 161.94 66.871 162.446 66.5025 162.446C66.1253 162.446 65.8253 161.94 65.8253 161.314C65.8253 160.689 66.1339 160.183 66.5025 160.183Z" fill="#FF83AB"/>
<path d="M58.7005 180.309C56.1377 179.897 54.2605 178.611 54.2605 177.094H52.9062C52.9062 178.62 55.3577 179.906 58.7005 180.309Z" fill="#FF83AB"/>
<path d="M60.6836 180.446C60.7865 180.446 60.8807 180.454 60.9836 180.454C65.4407 180.454 69.0579 178.954 69.0579 177.103H66.6407C66.6407 178.903 63.9922 180.377 60.6836 180.446Z" fill="#FF83AB"/>
<path d="M88.1246 215.391C89.5388 215.391 90.756 214.38 91.0046 212.983L91.0731 212.614C90.0788 213.591 89.0417 214.517 87.9531 215.391H88.1246Z" fill="#F3F3F3"/>
<path d="M90.961 202.371L90.9267 202.363C89.6153 202.089 88.7324 200.854 88.9038 199.526L89.521 194.786C89.6324 193.929 90.1638 193.183 90.9438 192.814L92.8638 191.889C93.5067 191.58 94.2096 191.563 94.8353 191.786L95.8381 186.249C96.1638 184.449 94.7838 182.803 92.9581 182.803H82.381C82.381 182.803 82.381 182.811 82.3896 182.811L84.4381 187.517H78.901L76.5781 215.409H87.9524C89.041 214.534 90.0781 213.609 91.0724 212.631L92.9153 202.431C92.281 202.517 91.621 202.509 90.961 202.371ZM82.1067 201.429C80.8124 201.429 79.7667 200.383 79.7667 199.089C79.7667 197.794 80.8124 196.749 82.1067 196.749C83.401 196.749 84.4467 197.794 84.4467 199.089C84.4467 200.383 83.401 201.429 82.1067 201.429Z" fill="#F3F3F3"/>
<path d="M73.2102 185.203L68.3759 211.954C68.0502 213.754 69.4302 215.4 71.2559 215.4H76.5702L78.8931 187.509H84.4302L82.3816 182.803C82.3816 182.803 82.3816 182.794 82.3731 182.794H76.0816C74.6759 182.794 73.4588 183.806 73.2102 185.203Z" fill="#F3F3F3"/>
<path d="M60.8449 190.406L57.9477 187.509L56.7734 188.683L58.642 190.551L58.822 190.38C59.3963 189.84 60.2877 189.849 60.8449 190.406Z" fill="#F3F3F3"/>
<path d="M64.8969 196.166L64.7512 196.663L66.2512 198.163L68.3255 199.071L67.4169 196.997L64.2969 193.877C64.9054 194.469 65.1283 195.343 64.8969 196.166Z" fill="#F3F3F3"/>
<path d="M97.2551 198.557L97.5294 197.597C97.8208 196.569 97.6837 195.463 97.1437 194.529L96.2008 192.9C95.8837 192.351 95.3951 191.974 94.838 191.777L92.918 202.414C94.9408 202.089 96.6723 200.631 97.2551 198.557Z" fill="#FF83AB"/>
<path d="M92.8642 191.88L90.9442 192.806C90.1642 193.183 89.6328 193.929 89.5214 194.777L88.9042 199.517C88.7328 200.846 89.6071 202.089 90.9271 202.354L90.9614 202.363C91.6214 202.5 92.2814 202.509 92.9157 202.406L94.8357 191.769C94.2099 191.554 93.5071 191.571 92.8642 191.88Z" fill="#FF83AB"/>
<path d="M82.1095 196.757C80.8152 196.757 79.7695 197.803 79.7695 199.097C79.7695 200.391 80.8152 201.437 82.1095 201.437C83.4038 201.437 84.4495 200.391 84.4495 199.097C84.4495 197.803 83.4038 196.757 82.1095 196.757Z" fill="#8678E4"/>
<path d="M70.4456 168.163C71.697 168.171 72.1085 166.329 71.9885 165.634C71.8599 164.94 71.2428 165.66 69.9913 165.651C68.7399 165.643 67.317 164.914 67.4456 165.609C67.5742 166.294 69.1942 168.154 70.4456 168.163Z" fill="white"/>
<path d="M66.5014 162.446C66.8785 162.446 67.1785 161.94 67.1785 161.314C67.1785 160.689 66.8699 160.183 66.5014 160.183C66.1242 160.183 65.8242 160.689 65.8242 161.314C65.8242 161.94 66.1328 162.446 66.5014 162.446Z" fill="#3C3E87"/>
<path d="M71.3959 162.711C71.773 162.711 72.073 162.206 72.073 161.58C72.073 160.954 71.7645 160.449 71.3959 160.449C71.0273 160.449 70.7188 160.954 70.7188 161.58C70.7188 162.197 71.0188 162.711 71.3959 162.711Z" fill="#3C3E87"/>
<path d="M59.9764 204.18C61.2364 203.194 62.2907 201.96 63.0621 200.554C62.565 201.06 61.9478 201.454 61.2621 201.686L59.1193 202.406L44.3164 212.16L45.045 217.286L59.9764 204.18Z" fill="#83D2C1"/>
<path opacity="0.15" d="M59.9764 204.18C61.2364 203.194 62.2907 201.96 63.0621 200.554C62.565 201.06 61.9478 201.454 61.2621 201.686L59.1193 202.406L44.3164 212.16L45.0021 217.32L59.9764 204.18Z" fill="#3C3E87"/>
<path d="M63.0967 200.503C63.0882 200.52 63.071 200.537 63.0625 200.554C63.5853 200.014 63.9796 199.354 64.1939 198.609L64.751 196.654L58.6396 190.543L53.4453 195.437L56.2053 203.392L59.111 202.414L63.6967 199.397L63.0967 200.503Z" fill="#FF83AB"/>
<path d="M64.3066 193.869L60.8438 190.406L64.3066 193.869Z" fill="#FF83AB"/>
<path d="M64.897 196.166C65.1284 195.352 64.9056 194.469 64.3056 193.869L60.8427 190.406C60.2856 189.849 59.3942 189.84 58.8284 190.38L58.6484 190.552L64.7599 196.663L64.897 196.166Z" fill="#FF83AB"/>
<path d="M63.0647 200.563C63.0733 200.546 63.0904 200.529 63.099 200.511L63.699 199.406L59.1133 202.423L61.2561 201.703C61.959 201.463 62.5676 201.069 63.0647 200.563Z" fill="#FF83AB"/>
<path d="M175.215 51.2915H153.135C151.172 51.2915 149.578 49.6972 149.578 47.7343V25.6543C149.578 23.6915 151.172 22.0972 153.135 22.0972H175.215C177.178 22.0972 178.772 23.6915 178.772 25.6543V47.7343C178.772 49.6972 177.178 51.2915 175.215 51.2915Z" fill="#83D2C1"/>
<path d="M156.255 40.6629C155.244 39.3 155.261 37.5429 155.278 36.5915C155.312 34.14 156.786 30.24 160.498 28.5686C163.284 27.3172 165.872 27.9772 166.566 28.1829C170.955 29.4772 172.446 33.6515 172.549 33.96C172.815 34.74 173.698 37.6972 172.121 40.7486C170.758 43.4058 168.401 44.4429 167.706 44.7429C166.524 45.2486 164.269 46.2 162.401 45.2915C161.612 44.9058 160.661 44.7 159.426 44.2715C159.144 44.1772 158.466 44.4172 157.986 44.5286C156.161 44.9315 155.955 45.3 155.732 45.0772C155.346 44.6829 156.538 42.8658 156.666 41.2972C156.701 40.9972 156.444 40.92 156.255 40.6629Z" fill="#FFD365"/>
<path d="M164.18 45.8656C162.56 45.8656 160.923 45.4285 159.449 44.5456L155.438 45.4199L156.312 41.4085C154.135 37.7913 154.692 33.2142 157.683 30.2228C159.415 28.4913 161.712 27.5399 164.163 27.5399C166.606 27.5399 168.912 28.4913 170.643 30.2228C174.218 33.7971 174.218 39.6085 170.643 43.1742C168.869 44.9485 166.538 45.8656 164.18 45.8656ZM159.578 43.8513L159.689 43.9199C163.066 46.0199 167.378 45.5228 170.189 42.7113C173.506 39.3942 173.506 33.9942 170.189 30.6771C168.578 29.0656 166.443 28.1828 164.172 28.1828C161.9 28.1828 159.766 29.0656 158.155 30.6771C155.343 33.4885 154.846 37.7999 156.946 41.1771L157.015 41.2885L156.303 44.5628L159.578 43.8513Z" fill="#3C3E87"/>
<path d="M220.158 170.031C215.718 170.031 212.109 166.423 212.109 161.983C212.109 157.543 215.718 153.934 220.158 153.934C224.598 153.934 228.215 157.543 228.215 161.983C228.215 166.423 224.598 170.031 220.158 170.031ZM220.158 154.577C216.078 154.577 212.761 157.894 212.761 161.974C212.761 166.054 216.078 169.371 220.158 169.371C224.238 169.371 227.564 166.054 227.564 161.974C227.564 157.903 224.238 154.577 220.158 154.577Z" fill="#3C3E87"/>
<path d="M219.012 164.623L216.715 162.334L217.178 161.871L219.012 163.706L223.143 159.566L223.606 160.029L219.012 164.623Z" fill="#3C3E87"/>
<path d="M121.327 146.28H83.9297V165.454H121.327V146.28Z" fill="#FF83AB"/>
<path d="M91.4696 149.254H89.0781V151.646H91.4696V149.254Z" fill="#F3F3F3"/>
<path d="M116.2 150.129H95.0117V150.78H116.2V150.129Z" fill="#FFD365"/>
<path d="M91.4696 154.672H89.0781V157.063H91.4696V154.672Z" fill="#F3F3F3"/>
<path d="M116.2 155.537H95.0117V156.189H116.2V155.537Z" fill="#FFD365"/>
<path d="M91.4696 160.08H89.0781V162.472H91.4696V160.08Z" fill="#F3F3F3"/>
<path d="M116.2 160.954H95.0117V161.606H116.2V160.954Z" fill="#FFD365"/>
<path d="M184.464 73.9457H187.233V73.2943H183.281V77.2457H183.933V74.34C200.75 89.0229 211.061 110.134 212.244 132.369L212.896 132.334C211.696 109.971 201.35 88.74 184.464 73.9457Z" fill="#3C3E87"/>
<path d="M75.3581 73.8686L74.9381 73.3715C57.7696 88.1057 47.201 109.423 45.8896 131.923L43.8496 129.883L43.3867 130.346L46.181 133.14L48.9753 130.346L48.5124 129.883L46.5324 131.863C47.8696 109.577 58.3524 88.4572 75.3581 73.8686Z" fill="#3C3E87"/>
<path d="M143.131 216.343L142.78 216.892L145.094 218.357C139.934 219.343 134.654 219.857 129.365 219.857C120.682 219.857 112.12 218.52 103.908 215.872L103.711 216.489C111.982 219.154 120.622 220.5 129.365 220.5C134.748 220.5 140.122 219.977 145.368 218.966L143.8 221.452L144.348 221.803L146.457 218.46L143.131 216.343Z" fill="#3C3E87"/>
<path opacity="0.8" d="M167.27 30.9838L160.664 24.3774L154.058 30.9838L160.664 37.5901L167.27 30.9838Z" fill="#18EADF"/>
<path opacity="0.8" d="M188.009 24.8747L178.336 15.2015L168.663 24.8747L178.336 34.5478L188.009 24.8747Z" fill="#2096FF"/>
<path opacity="0.8" d="M163.895 38.1166L160.84 35.0619L157.785 38.1166L160.84 41.1712L163.895 38.1166Z" fill="#33CCFF"/>
</svg>
