<svg width="51" height="51" viewBox="0 0 51 51" fill="none" xmlns="http://www.w3.org/2000/svg">
<path d="M44.4043 32.4843C44.6344 32.3495 44.7296 31.9845 44.8248 31.6195C44.92 31.2546 45.0152 30.8896 44.8804 30.6594L30.9912 6.94433C30.8563 6.71409 30.3566 6.38832 29.9916 6.29282C29.6267 6.19732 29.3967 6.33208 29.1666 6.46682L6.85051 19.5367C6.62045 19.6715 6.39037 19.8062 6.29516 20.1712C6.19994 20.5362 6.10474 20.9012 6.37443 21.3617L20.2637 45.0767C20.3985 45.3069 20.7634 45.4024 21.1283 45.4979C21.4932 45.5934 21.8581 45.6889 22.0882 45.5542L44.4043 32.4843Z" fill="#BCC1CF"/>
<path d="M5.94014 17.8586C5.69454 18.0024 5.52086 18.269 5.4191 18.6585C5.31734 19.0479 5.33839 19.3654 5.48223 19.611L19.7222 43.9249C19.9379 44.2933 20.2045 44.4669 20.5221 44.4459C20.9115 44.5477 21.229 44.5266 21.4746 44.3828L43.8237 31.2936C44.1921 31.0778 44.3658 30.8111 44.3447 30.4936C44.4465 30.1042 44.4254 29.7867 44.2816 29.5411L30.0417 5.22726C29.8978 4.98166 29.6312 4.80798 29.2418 4.70622C28.8523 4.60446 28.5348 4.62552 28.2892 4.76936L5.94014 17.8586V17.8586Z" fill="#CBD0DD"/>
<path d="M29.1816 4.91173C28.8167 4.81623 28.2217 4.85547 27.7616 5.12496L6.59579 17.5212C6.13567 17.7906 5.81038 18.2904 5.71517 18.6554C5.52473 19.3853 5.65957 19.6155 6.06411 20.3063L10.5141 27.9043L35.1308 13.487L30.6809 5.88894C30.0462 5.33295 29.6814 5.23747 29.1816 4.91173Z" fill="white"/>
<path d="M22.371 31.2671C22.8311 30.9976 22.9263 30.6326 22.6566 30.1721L20.2294 26.0278C19.9597 25.5673 19.5948 25.4718 19.1346 25.7413L14.7634 28.3013C14.3033 28.5708 14.2081 28.9358 14.4778 29.3963L16.905 33.5407C17.1747 34.0012 17.5396 34.0967 17.9998 33.8272L22.371 31.2671Z" fill="#E53D5C"/>
<path d="M26.2821 37.9443C26.7422 37.6748 26.8374 37.3098 26.5677 36.8494L24.1405 32.705C23.8708 32.2445 23.5059 32.149 23.0458 32.4185L18.6746 34.9786C18.2144 35.2481 18.1192 35.613 18.3889 36.0735L20.8161 40.2179C21.0858 40.6784 21.4508 40.7739 21.9109 40.5044L26.2821 37.9443Z" fill="#E53D5C"/>
<path d="M21.9314 24.325C21.563 24.5407 21.4612 24.9302 21.677 25.2986L24.1222 29.4737C24.338 29.842 24.7274 29.9438 25.0958 29.728L29.2709 27.2828C29.6393 27.067 29.741 26.6776 29.5253 26.3092L27.0801 22.1341C26.8643 21.7657 26.4749 21.664 26.1065 21.8797L21.9314 24.325Z" fill="#E53D5C"/>
<path d="M33.1838 33.9018C33.644 33.6323 33.7392 33.2673 33.4695 32.8069L31.0422 28.6625C30.7726 28.202 30.4077 28.1065 29.9475 28.376L25.8064 30.8013C25.3463 31.0708 25.251 31.4358 25.5207 31.8963L27.948 36.0406C28.2177 36.5011 28.5826 36.5966 29.0427 36.3272L33.1838 33.9018Z" fill="#E53D5C"/>
<path d="M40.4509 29.9553C40.911 29.6859 41.0062 29.3208 40.8713 29.0906L34.2639 17.8087C33.9942 17.3482 33.7641 17.483 33.304 17.7525L28.9328 20.3125C28.4727 20.582 28.6075 20.8123 28.7423 21.0425L35.3498 32.3244C35.6195 32.7849 35.8496 32.6502 36.0797 32.5154L40.4509 29.9553Z" fill="#3AADB8"/>
<path d="M18.3226 28.5822C18.2507 28.4594 18.1788 28.3366 18.056 28.4085C17.984 28.2857 17.8613 28.3577 17.7385 28.4296C17.6157 28.5015 17.4929 28.5734 17.5648 28.6962C17.5648 28.6962 17.5139 28.8909 17.5858 29.0137L18.0173 29.7505L17.4034 30.1101C17.1578 30.254 17.1069 30.4487 17.2507 30.6942C17.3226 30.817 17.3946 30.9399 17.5174 30.8679C17.5174 30.8679 17.7121 30.9188 17.8349 30.8469L18.6945 30.3435L19.1259 31.0802C19.2698 31.3258 19.4645 31.3767 19.5873 31.3048C19.8329 31.161 19.8838 30.9662 19.7399 30.7206L19.3084 29.9839L20.0452 29.5524C20.168 29.4804 20.168 29.4804 20.2189 29.2857C20.3417 29.2138 20.2698 29.091 20.1978 28.9682C20.1259 28.8454 20.054 28.7226 19.9312 28.7945C19.8593 28.6717 19.7365 28.7437 19.6137 28.8156L18.7541 29.319L18.3226 28.5822Z" fill="white"/>
<path d="M23.9078 35.8659C23.8359 35.7431 23.7639 35.6203 23.6411 35.6922C23.6411 35.6922 23.4464 35.6414 23.3236 35.7133L21.4817 36.7921C21.2361 36.9359 21.1852 37.1306 21.329 37.3762C21.4009 37.499 21.4729 37.6218 21.5957 37.5499C21.7185 37.478 21.7185 37.478 21.8413 37.406L23.806 36.2553C23.9288 36.1834 23.9288 36.1834 24.0516 36.1115C24.0516 36.1115 23.9797 35.9887 23.9078 35.8659Z" fill="white"/>
<path d="M29.3708 31.6773C29.4216 31.4825 29.3497 31.3598 29.2778 31.237C29.2059 31.1142 29.134 30.9914 28.9393 30.9405C28.7446 30.8896 28.6218 30.9615 28.499 31.0335C28.3762 31.1054 28.2534 31.1773 28.3253 31.3001C28.2744 31.4948 28.3463 31.6176 28.4182 31.7404C28.4902 31.8632 28.5621 31.986 28.7568 32.0369C28.9515 32.0877 28.9515 32.0877 29.0743 32.0158C29.1971 31.9439 29.248 31.7492 29.3708 31.6773ZM30.6653 33.8876C30.7162 33.6929 30.6443 33.5701 30.5723 33.4473C30.5004 33.3245 30.4285 33.2017 30.2338 33.1508C30.0391 33.1 29.9163 33.1719 29.7935 33.2438C29.6707 33.3157 29.5479 33.3876 29.6198 33.5104C29.5689 33.7052 29.5689 33.7051 29.7128 33.9507C29.8566 34.1963 29.8566 34.1963 30.0513 34.2472C30.2461 34.2981 30.2461 34.2981 30.3689 34.2262C30.4916 34.1543 30.6144 34.0823 30.6653 33.8876ZM30.7548 32.351C30.8776 32.279 31.0004 32.2071 31.0004 32.2071C31.0513 32.0124 31.0513 32.0124 30.9794 31.8896C30.9075 31.7668 30.8355 31.644 30.7127 31.7159C30.7127 31.7159 30.518 31.665 30.3952 31.737L28.1849 33.0315C27.9393 33.1753 27.8884 33.37 28.0323 33.6156C28.1042 33.7384 28.1761 33.8612 28.2989 33.7893C28.4217 33.7174 28.4217 33.7174 28.5445 33.6455L30.7548 32.351Z" fill="white"/>
<path d="M26.203 24.2972L25.9363 24.1235L25.8135 24.1955L25.6907 24.2674C25.5679 24.3393 25.5679 24.3393 25.5171 24.534L25.2627 25.5076L24.34 25.0585C24.2172 25.1304 24.1452 25.0076 24.0224 25.0795L23.8996 25.1514L23.7768 25.2233L23.726 25.4181L23.7979 25.5409C23.8698 25.6637 23.8698 25.6637 24.0645 25.7145L24.8434 25.9181L24.589 26.8917L24.5381 27.0863L24.61 27.2091L24.682 27.332L24.8767 27.3828L24.9995 27.3109L25.1942 27.3618C25.317 27.2899 25.317 27.2899 25.3679 27.0952L25.4995 26.1935L26.473 26.4479L26.7906 26.4269C26.9134 26.3549 26.9134 26.3549 26.9642 26.1602C27.0151 25.9655 27.0151 25.9655 26.9432 25.8427C26.8713 25.7199 26.8713 25.7199 26.6766 25.669L25.703 25.4146L25.9065 24.6357C26.1521 24.4919 26.2749 24.42 26.203 24.2972Z" fill="white"/>
<path d="M36.2227 25.355C36.3455 25.2831 36.4683 25.2112 36.3964 25.0884C36.3964 25.0884 36.4473 24.8937 36.3754 24.7709C36.3035 24.6481 36.3034 24.6481 36.1087 24.5972C35.914 24.5463 35.914 24.5463 35.7912 24.6182L33.9493 25.697C33.7037 25.8409 33.6528 26.0356 33.7966 26.2812C33.8685 26.404 33.9405 26.5268 34.0633 26.4549C34.1352 26.5776 34.258 26.5057 34.3808 26.4338L36.2227 25.355ZM35.5755 24.2499C35.6983 24.1779 35.8211 24.106 35.7491 23.9832C35.7491 23.9832 35.8 23.7885 35.7281 23.6657C35.6562 23.5429 35.5843 23.4201 35.4615 23.492C35.2667 23.4412 35.2667 23.4412 35.1439 23.5131L33.302 24.5919C33.1792 24.6638 33.0564 24.7357 33.1283 24.8585C33.0055 24.9304 33.0774 25.0532 33.1494 25.176C33.2213 25.2988 33.2932 25.4216 33.416 25.3497C33.4879 25.4725 33.6107 25.4006 33.7335 25.3287L35.5755 24.2499Z" fill="white"/>
<path d="M31.1091 12.6828L30.5249 12.5301L28.4374 13.7528L28.2847 14.3369L28.3566 14.4597C28.5514 14.5106 28.5514 14.5106 28.6742 14.4387L31.1301 13.0003C31.181 12.8056 31.181 12.8056 31.3038 12.7336L31.2319 12.6108L31.1091 12.6828ZM26.3498 14.9754L24.2623 16.198L24.1096 16.7821L24.2535 17.0277C24.4482 17.0786 24.4482 17.0786 24.571 17.0067L27.0269 15.5683C27.0778 15.3736 27.0778 15.3736 27.2006 15.3017L27.0568 15.0561L26.3498 14.9754ZM25.7113 13.0405L25.1272 12.8878L23.0396 14.1104L22.887 14.6946C23.0817 14.7455 23.2764 14.7963 23.4711 14.8472L25.5587 13.6246L25.7113 13.0405ZM24.5606 11.0757L24.408 11.6598L24.9834 12.6422C25.1781 12.6931 25.3728 12.744 25.5675 12.7949L25.8131 12.651C25.864 12.4563 25.864 12.4563 25.9868 12.3844L25.1957 11.0336C25.0009 10.9827 25.0009 10.9828 24.8062 10.9319L24.5606 11.0757ZM22.9589 14.8174L22.8361 14.8893C22.7133 14.9612 22.7852 15.084 22.6624 15.1559L23.4536 16.5067C23.6483 16.5576 23.6483 16.5576 23.7711 16.4857L23.8939 16.4138C23.9447 16.219 23.9956 16.0243 24.0465 15.8296L23.4711 14.8472L22.9589 14.8174ZM21.752 15.8541L21.1678 15.7015L20.9223 15.8453C20.8714 16.04 20.8714 16.04 20.8714 16.04L22.0221 18.0048C22.2168 18.0556 22.2168 18.0556 22.3396 17.9837L22.4624 17.9118C22.5133 17.7171 22.5641 17.5224 22.615 17.3277L21.752 15.8541ZM19.8523 13.1736L19.6067 13.3174L19.454 13.9016L20.4609 15.6207C20.6556 15.6716 20.8503 15.7225 21.0451 15.7734L21.2906 15.6296C21.3415 15.4348 21.3415 15.4348 21.3924 15.2401L20.2417 13.2753C20.047 13.2245 19.8523 13.1736 19.8523 13.1736ZM21.6942 12.0948C21.5714 12.1667 21.6433 12.2895 21.5205 12.3614L21.5925 12.4842C21.7872 12.5351 21.9819 12.586 22.1766 12.6369L24.2642 11.4143C24.315 11.2196 24.3659 11.0248 24.4168 10.8301L24.3449 10.7073L24.1502 10.6564L21.6942 12.0948ZM29.9584 10.718L29.8057 11.3022L30.3811 12.2845C30.5758 12.3354 30.7705 12.3863 30.9652 12.4372L31.088 12.3653C31.1389 12.1706 31.1389 12.1705 31.2617 12.0986L30.4706 10.7479C30.2759 10.697 30.2759 10.697 30.2759 10.697L30.0303 10.8408L29.9584 10.718ZM29.248 8.66029C29.0532 8.60941 29.0533 8.60943 28.9813 8.48663L28.7357 8.63047L28.5831 9.2146L29.1585 10.197C29.3532 10.2479 29.5479 10.2987 29.7426 10.3496L29.9882 10.2058C30.0391 10.0111 30.0391 10.0111 30.0391 10.0111L29.248 8.66029ZM25.8693 9.64958C25.7465 9.7215 25.8184 9.84427 25.6956 9.91619L25.7676 10.039C25.9623 10.0899 26.157 10.1408 26.3517 10.1917L28.4393 8.96903C28.4902 8.77431 28.541 8.57958 28.5919 8.38486L28.52 8.26206L28.3253 8.21121L25.8693 9.64958ZM27.0621 12.2494C27.2568 12.3002 27.4515 12.3511 27.6463 12.402L29.7338 11.1794L29.8864 10.5952L29.3023 10.4426L27.2147 11.6652L27.0621 12.2494Z" fill="#3AADB8"/>
</svg>
