<svg width="90" height="90" viewBox="0 0 90 90" fill="none" xmlns="http://www.w3.org/2000/svg">
<path d="M13.3682 59.9561L11.3545 67.471" stroke="#404041" stroke-width="3.3918" stroke-miterlimit="10" stroke-linecap="round" stroke-linejoin="round"/>
<path d="M31.4453 16.4731C32.1419 18.0308 32.3316 19.881 31.8603 21.6398C31.3676 23.4786 30.2996 24.9061 28.9176 25.9068L65.453 35.6964L67.9807 26.2628L31.4453 16.4731Z" fill="#4FC0FD"/>
<path d="M26.2418 11.9084C27.0412 12.1226 27.7978 12.4967 28.4531 12.9293L30.381 5.73415L25.7441 4.4917L23.8162 11.6869C24.6 11.6398 25.3623 11.6727 26.2418 11.9084Z" fill="#9EA5A8"/>
<path d="M22.1283 27.2578C21.3289 27.0436 20.5722 26.6694 19.917 26.2368L11.1127 59.0947L15.7496 60.3372L24.5539 27.4793C23.7701 27.5263 22.9278 27.472 22.1283 27.2578Z" fill="#9EA5A8"/>
<path d="M22.1293 27.2582C26.368 28.394 30.7248 25.8785 31.8606 21.6398C32.9963 17.4011 30.4809 13.0443 26.2422 11.9085C22.0035 10.7728 17.6467 13.2882 16.5109 17.5269C15.3752 21.7656 17.8906 26.1224 22.1293 27.2582Z" fill="#FDB54F"/>
<path d="M14.0266 70.9293C14.9274 71.085 15.9082 71.2621 16.809 71.4178" stroke="#BCC1CF" stroke-width="3.3918" stroke-linecap="round" stroke-linejoin="round"/>
<path d="M22.001 71.8666C42.7446 72.7978 62.2129 61.2198 71.3414 42.5013" stroke="#BCC1CF" stroke-width="3.3918" stroke-linecap="round" stroke-linejoin="round" stroke-dasharray="6.38 6.38"/>
<path d="M72.4055 40.1303C72.801 39.2937 73.1166 38.4357 73.4536 37.4978" stroke="#BCC1CF" stroke-width="3.3918" stroke-linecap="round" stroke-linejoin="round"/>
<path d="M67.9805 26.2627L65.4313 35.7763L74.9511 33.1859L67.9805 26.2627Z" fill="#FEE5BF"/>
<path d="M71.6338 29.8979L70.4342 34.3749L74.9514 33.1861L71.6338 29.8979Z" fill="#404041"/>
</svg>
