<svg width="89" height="89" viewBox="0 0 89 89" fill="none" xmlns="http://www.w3.org/2000/svg">
<path d="M32.923 71.4656C37.3673 71.4656 40.9885 69.9842 43.9514 67.0214L67.8189 43.1539C70.9463 40.0264 72.4277 36.4052 72.4277 32.1255C72.4277 27.6812 70.9463 24.0599 67.8189 21.0971L63.5392 16.8174C60.5763 13.6899 56.955 12.2085 52.5108 12.2085C48.2311 12.2085 44.6098 13.6899 41.6469 16.8174L17.7795 40.6848C14.652 43.6477 13.1706 47.269 13.1706 51.7133C13.1706 55.9929 14.652 59.6142 17.7795 62.5771L22.0592 67.0214C25.022 69.8196 28.6433 71.4656 32.923 71.4656Z" fill="#E85F61"/>
<path d="M32.9227 75.7455C34.2395 75.7455 35.5563 75.2517 36.544 74.264L75.0611 35.7469C76.0487 34.7593 76.3779 33.6071 76.3779 32.1256C76.3779 30.6442 75.8841 29.3274 75.0611 28.3398L56.1317 9.41038C55.1441 8.42276 53.8273 7.92895 52.3459 7.92895C50.8644 7.92895 49.7122 8.42276 48.7246 9.41038L10.2074 47.7629C9.21982 48.7505 8.726 50.0674 8.726 51.5488C8.726 53.0302 9.21982 54.1825 10.2074 55.1701L29.1368 74.0994C30.289 75.2517 31.4412 75.7455 32.9227 75.7455Z" fill="#E85F61"/>
<path d="M42.3057 68.5028L15.9691 42.1663L11.1956 47.1044C9.87882 48.4212 9.22041 49.9026 9.22041 51.7132C9.22041 53.5239 9.87882 55.0053 11.1956 56.3221L28.3144 73.2763C29.4666 74.5931 31.1126 75.2515 32.9233 75.2515C34.7339 75.2515 36.2153 74.5931 37.5322 73.2763L42.3057 68.5028Z" fill="#B54A4B"/>
<path d="M52.3465 8.42261C50.5359 8.42261 49.0544 9.08102 47.7376 10.2332L31.7711 26.3644L57.943 52.5363L74.0741 36.5698C75.2263 35.4175 75.8848 33.7715 75.8848 31.9609C75.8848 30.1502 75.2263 28.6688 74.0741 27.352L56.9554 10.2332C55.6386 9.08102 54.1571 8.42261 52.3465 8.42261Z" fill="#43C5D4"/>
<path d="M10.3718 47.7628L36.5438 73.9347L38.6836 71.9595L12.3471 45.7876L11.0303 46.9398L10.3718 47.7628Z" fill="#E5BAB8"/>
</svg>
