<svg width="61" height="65" viewBox="0 0 61 65" fill="none" xmlns="http://www.w3.org/2000/svg">
<path d="M30.4418 62.162L4.46102 47.162C2.07631 45.7852 1.26891 42.8358 2.55924 40.6009L22.1291 6.70488C23.4911 4.34582 26.4491 3.57036 28.8338 4.94717L54.9401 20.0196C57.3248 21.3964 58.1322 24.3458 56.7701 26.7049L37.2003 60.6009C35.7844 62.7634 32.8265 63.5388 30.4418 62.162Z" fill="#98D2E9"/>
<path d="M31.6064 59.8545L5.87666 44.9995C4.62155 44.2748 4.19094 42.7018 4.90778 41.4602L24.0476 8.30912C24.7644 7.06751 26.342 6.65393 27.5971 7.37857L53.3268 22.2336C54.5819 22.9583 55.0125 24.5313 54.2957 25.7729L35.1559 58.924C34.3136 60.0931 32.8615 60.5792 31.6064 59.8545Z" fill="#E7F5FA"/>
<path d="M47.773 37.0715L17.6504 19.6802L16.9335 20.9218L47.0562 38.3131L47.773 37.0715Z" fill="#3FAED8"/>
<path d="M51.1422 31.236L21.0195 13.8447L20.3027 15.0863L50.4253 32.4776L51.1422 31.236Z" fill="#3FAED8"/>
<path d="M44.4039 42.9074L14.2812 25.5161L13.5644 26.7577L43.687 44.149L44.4039 42.9074Z" fill="#3FAED8"/>
<path d="M41.0347 48.7429L10.9121 31.3516L10.1953 32.5932L40.3179 49.9845L41.0347 48.7429Z" fill="#3FAED8"/>
<path d="M37.5933 54.7028L7.4707 37.3115L6.75386 38.5531L36.8765 55.9444L37.5933 54.7028Z" fill="#3FAED8"/>
<path d="M27.4904 10.4625C26.9884 10.1727 26.8986 9.45862 27.1853 8.96197L30.1961 3.7472C30.5545 3.12639 31.1461 2.9713 31.6481 3.26115C32.1502 3.55101 32.4371 4.21335 32.0787 4.83415L29.068 10.0489C28.7812 10.5456 28.118 10.8248 27.4904 10.4625Z" fill="#3B3B3B"/>
<path d="M33.2634 13.7957C32.7613 13.5059 32.546 12.7194 32.8328 12.2227L35.8435 7.00794C36.2019 6.38713 36.919 6.3045 37.4211 6.59436C37.9231 6.88421 38.2101 7.54655 37.8517 8.16736L34.8409 13.3821C34.5542 13.8788 33.7654 14.0856 33.2634 13.7957Z" fill="#3B3B3B"/>
<path d="M38.9118 17.0565C38.4098 16.7666 38.1228 16.1043 38.4812 15.4835L41.492 10.2687C41.7787 9.77204 42.442 9.49278 43.0695 9.8551C43.6971 10.2174 43.8586 10.8073 43.5001 11.4281L40.4894 16.6429C40.2026 17.1395 39.5394 17.4188 38.9118 17.0565Z" fill="#3B3B3B"/>
<path d="M44.6852 20.39C44.1832 20.1001 43.8962 19.4378 44.2546 18.817L47.2654 13.6022C47.5521 13.1055 48.2154 12.8263 48.843 13.1886C49.4705 13.5509 49.632 14.1408 49.2736 14.7616L46.2628 19.9764C45.9761 20.473 45.1873 20.6798 44.6852 20.39Z" fill="#3B3B3B"/>
<path d="M50.3332 23.651C49.8311 23.3611 49.7413 22.6471 50.0281 22.1505L53.0388 16.9357C53.3973 16.3149 53.9888 16.1598 54.4909 16.4496C54.9929 16.7395 55.2799 17.4018 54.9215 18.0226L51.9107 23.2374C51.624 23.7341 50.9607 24.0133 50.3332 23.651Z" fill="#3B3B3B"/>
</svg>
