<svg width="89" height="89" viewBox="0 0 89 89" fill="none" xmlns="http://www.w3.org/2000/svg">
<path d="M32.5847 25.2886C33.2833 24.5903 33.6325 23.892 33.6325 23.0191C33.6325 22.1462 33.2833 21.2733 32.5847 20.5749L23.1546 11.1476C22.4561 10.4493 21.7576 10.1001 20.7098 10.1001C19.8367 10.1001 19.1381 10.4493 18.265 11.1476L8.8349 20.4004C8.13637 21.0987 7.78711 21.9716 7.78711 22.8445C7.78711 23.7174 8.13637 24.5903 8.8349 25.2886L18.4396 34.716C19.1381 35.4143 19.8367 35.7635 20.8844 35.7635C21.7576 35.7635 22.4561 35.4143 23.1546 34.716L32.5847 25.2886Z" fill="#E8798A"/>
<path d="M15.8184 32.0974L59.4761 75.568L73.6213 61.4269L30.1381 17.7817L15.8184 32.0974Z" fill="#6ECCFE"/>
<path d="M15.8184 31.9227L59.4761 75.5679L66.4614 68.5846L22.8036 25.114L15.8184 31.9227Z" fill="#4FC0FD"/>
<path d="M59.3027 75.568L75.7181 77.8376L73.4479 61.427L59.3027 75.568Z" fill="#FEE5BF"/>
<path d="M68.209 76.79L75.7181 77.8375L74.6703 70.3306L68.209 76.79Z" fill="#333333"/>
<path d="M15.8184 32.0974L20.708 36.9856L35.0278 22.8446L30.1381 17.7817L15.8184 32.0974Z" fill="#E0E0E0"/>
<path d="M18.6133 34.8906L20.7089 37.1601L35.0286 23.0191L32.7584 20.7495L18.6133 34.8906Z" fill="#CCCCCC"/>
</svg>
