<svg width="107" height="107" viewBox="0 0 107 107" fill="none" xmlns="http://www.w3.org/2000/svg">
<path d="M10.9847 64.7918L44.7773 12.978L96.5911 46.7707L10.9847 64.7918Z" fill="#A1E2DE"/>
<g opacity="0.5">
<path opacity="0.5" d="M48.9629 33.1582L49.7455 36.577" stroke="#6FADA7" stroke-width="3.3918" stroke-miterlimit="10"/>
<path opacity="0.5" d="M66.1875 27.7725L61.8497 37.9274" stroke="#6FADA7" stroke-width="3.3918" stroke-miterlimit="10"/>
<path opacity="0.5" d="M83.1447 39.0396L70.8603 46.0893" stroke="#6FADA7" stroke-width="3.3918" stroke-miterlimit="10"/>
<path opacity="0.5" d="M19.5207 52.1815L34.1369 53.8198" stroke="#6FADA7" stroke-width="3.3918" stroke-miterlimit="10"/>
<path opacity="0.5" d="M30.4473 34.793L39.1415 42.6446" stroke="#6FADA7" stroke-width="3.3918" stroke-miterlimit="10"/>
<path opacity="0.5" d="M44.9297 13.7007L49.7455 36.5772" stroke="#6FADA7" stroke-width="3.3918" stroke-miterlimit="10"/>
<path opacity="0.5" d="M42.209 35.7124L43.9294 38.808" stroke="#6FADA7" stroke-width="3.3918" stroke-miterlimit="10"/>
<path opacity="0.5" d="M57.4609 21.562L55.848 36.2986" stroke="#6FADA7" stroke-width="3.3918" stroke-miterlimit="10"/>
<path opacity="0.5" d="M74.5421 33.1177L67.0232 41.3018" stroke="#6FADA7" stroke-width="3.3918" stroke-miterlimit="10"/>
<path opacity="0.5" d="M25.1959 43.0024L35.7659 47.8187" stroke="#6FADA7" stroke-width="3.3918" stroke-miterlimit="10"/>
<path opacity="0.5" d="M36.707 26.3081L43.9278 38.8079" stroke="#6FADA7" stroke-width="3.3918" stroke-miterlimit="10"/>
</g>
<path d="M72.7905 50.7756C70.56 40.1801 60.0915 33.4564 49.496 35.6869C38.9006 37.9174 32.104 48.3384 34.2616 58.8863" stroke="#6FADA7" stroke-width="3.3918" stroke-miterlimit="10"/>
<path d="M10.9847 64.7918L44.7773 12.978L96.5911 46.7707L10.9847 64.7918Z" stroke="#A1E2DE" stroke-width="3.3918" stroke-miterlimit="10" stroke-linecap="round" stroke-linejoin="round"/>
</svg>
