<svg width="90" height="90" viewBox="0 0 90 90" fill="none" xmlns="http://www.w3.org/2000/svg">
<path d="M25.1086 12.9053C24.325 12.1274 23.5969 12.1306 22.8203 12.9153L9.3061 26.5693C8.5812 27.3017 8.5844 28.0309 9.36793 28.8088L60.5061 79.5779C61.2896 80.3557 62.0177 80.3526 62.7426 79.6202L76.2568 65.9662C77.0335 65.1815 77.0303 64.4523 76.2467 63.6744L25.1086 12.9053ZM61.754 67.6445C61.7508 66.9153 62.0601 66.2889 62.5779 65.7657C63.0956 65.2426 63.7184 64.9273 64.3947 64.9764C65.1228 64.9733 65.7482 65.283 66.2706 65.8016C66.7929 66.3202 67.0555 66.892 67.0587 67.6212C67.0614 68.2462 66.8043 68.9245 66.2866 69.4476C65.7688 69.9708 65.1461 70.286 64.418 70.2892C63.7417 70.2401 63.1167 70.0345 62.5943 69.5159C62.072 68.9973 61.7572 68.3737 61.754 67.6445Z" fill="#FDB54F"/>
<path d="M57.1309 52.2754L60.9597 48.4069L59.9657 47.4201L56.1368 51.2885L57.1309 52.2754Z" fill="#987340"/>
<path d="M47.6875 42.9004L51.5164 39.0319L50.5223 38.0451L46.6934 41.9135L47.6875 42.9004Z" fill="#987340"/>
<path d="M37.8789 32.9609L41.7078 29.0925L40.7137 28.1056L36.8849 31.9741L37.8789 32.9609Z" fill="#987340"/>
<path d="M49.1035 51.8247L56.7613 44.0878L55.7672 43.1009L48.1095 50.8379L49.1035 51.8247Z" fill="#987340"/>
<path d="M39.1191 41.8623L46.7769 34.1254L45.7828 33.1385L38.1251 40.8755L39.1191 41.8623Z" fill="#987340"/>
<path d="M28.4307 23.7998L32.2595 19.9314L31.2655 18.9445L27.4366 22.813L28.4307 23.7998Z" fill="#987340"/>
<path d="M29.8457 32.7241L37.5035 24.9872L36.5094 24.0004L28.8517 31.7373L29.8457 32.7241Z" fill="#987340"/>
<path d="M20.0117 22.9604L27.6695 15.2235L26.6754 14.2367L19.0177 21.9736L20.0117 22.9604Z" fill="#987340"/>
<path d="M58.3574 61.0034L66.0152 53.2665L65.0211 52.2797L57.3634 60.0166L58.3574 61.0034Z" fill="#987340"/>
</svg>
