<svg xmlns="http://www.w3.org/2000/svg" viewBox="0 0 240 240"><defs><style>.cls-1{fill:#3cf;}.cls-2{fill:#fff;}</style></defs><title>adaptive</title><g id="Layer_2" data-name="Layer 2"><g id="Layer_2-2" data-name="Layer 2"><path class="cls-1" d="M163.24,232a34.23,34.23,0,0,0-29.82-17.47H104a34.23,34.23,0,0,0-29.33,16.62,120.34,120.34,0,0,0,88.59.85Z"/><path class="cls-1" d="M240,120A120,120,0,1,0,70.06,229.14,39.7,39.7,0,0,1,76.3,221,38.91,38.91,0,0,1,104,209.52h29.44A38.91,38.91,0,0,1,161.1,221a39.73,39.73,0,0,1,6.77,9A120,120,0,0,0,240,120Z"/><path class="cls-2" d="M133.42,209.52H104A38.91,38.91,0,0,0,76.3,221a39.7,39.7,0,0,0-6.24,8.11q2.26,1,4.59,2A34.23,34.23,0,0,1,104,214.5h29.44A34.23,34.23,0,0,1,163.24,232c1.56-.61,3.1-1.24,4.63-1.91a39.73,39.73,0,0,0-6.77-9A38.91,38.91,0,0,0,133.42,209.52Z"/><rect class="cls-1" x="55.82" y="78.12" width="29.29" height="27.36" rx="1.56" ry="1.56" transform="translate(-44.28 76.71) rotate(-45)"/><path class="cls-2" d="M68.68,113.67,48.59,93.59a1.56,1.56,0,0,1,0-2.21L70,69.94a1.56,1.56,0,0,1,2.21,0L92.33,90a1.56,1.56,0,0,1,0,2.21L70.89,113.67A1.56,1.56,0,0,1,68.68,113.67ZM54.48,93.59l14.2,14.19a1.56,1.56,0,0,0,2.21,0L86.44,92.23a1.56,1.56,0,0,0,0-2.21L72.25,75.83a1.56,1.56,0,0,0-2.21,0L54.48,91.38A1.56,1.56,0,0,0,54.48,93.59Z"/><rect class="cls-1" x="79.87" y="57.01" width="29.29" height="27.36" rx="1.56" ry="1.56" transform="translate(-13.96 24.18) rotate(-13.59)"/><path class="cls-2" d="M81.59,88.42,74.92,60.81a1.55,1.55,0,0,1,1.15-1.88l29.47-7.13A1.57,1.57,0,0,1,107.43,53l6.67,27.6A1.56,1.56,0,0,1,113,82.45L83.48,89.57A1.57,1.57,0,0,1,81.59,88.42ZM79.94,63.88l4.72,19.51a1.57,1.57,0,0,0,1.89,1.16l21.37-5.17a1.57,1.57,0,0,0,1.16-1.89L104.36,58a1.57,1.57,0,0,0-1.89-1.15L81.1,62A1.56,1.56,0,0,0,79.94,63.88Z"/><rect class="cls-1" x="103.72" y="62.48" width="29.29" height="27.36" rx="1.56" ry="1.56" transform="translate(-14.58 29.94) rotate(-13.59)"/><path class="cls-2" d="M105.44,93.89l-6.67-27.6a1.57,1.57,0,0,1,1.16-1.89l29.47-7.12a1.56,1.56,0,0,1,1.89,1.15L138,86a1.57,1.57,0,0,1-1.15,1.89l-29.48,7.13A1.58,1.58,0,0,1,105.44,93.89ZM103.8,69.36l4.71,19.51A1.57,1.57,0,0,0,110.4,90l21.38-5.17A1.55,1.55,0,0,0,132.93,83l-4.71-19.51a1.58,1.58,0,0,0-1.89-1.16L105,67.47A1.57,1.57,0,0,0,103.8,69.36Z"/><rect class="cls-1" x="129.81" y="54.28" width="27.36" height="29.29" rx="1.56" ry="1.56" transform="translate(23.12 173.1) rotate(-66.53)"/><path class="cls-2" d="M122.49,75.29,133.8,49.24a1.57,1.57,0,0,1,2.06-.81l27.81,12.08a1.56,1.56,0,0,1,.82,2.05L153.18,88.61a1.57,1.57,0,0,1-2.06.82L123.3,77.35A1.57,1.57,0,0,1,122.49,75.29ZM136,54.72l-8,18.41a1.57,1.57,0,0,0,.81,2.06L149,84a1.56,1.56,0,0,0,2-.82l8-18.4a1.57,1.57,0,0,0-.81-2.06L138,53.91A1.57,1.57,0,0,0,136,54.72Z"/><rect class="cls-1" x="155.86" y="71.86" width="27.36" height="29.29" transform="translate(-11.51 145.22) rotate(-45)"/><path class="cls-2" d="M169.11,108.37,147.67,86.93a1.58,1.58,0,0,1,0-2.22l20.08-20.08a1.56,1.56,0,0,1,2.21,0l21.45,21.44a1.58,1.58,0,0,1,0,2.22l-20.09,20.08A1.56,1.56,0,0,1,169.11,108.37ZM153.56,86.93l15.55,15.55a1.56,1.56,0,0,0,2.21,0l14.2-14.19a1.58,1.58,0,0,0,0-2.22L170,70.52a1.56,1.56,0,0,0-2.21,0L153.56,84.71A1.58,1.58,0,0,0,153.56,86.93Z"/><path class="cls-2" d="M105.29,129.43a2.08,2.08,0,1,0-2.94,2.95l14.88,14.87.15.14.08.06.08.06.1.06.08.05.1,0a.2.2,0,0,0,.08,0l.1,0,.1,0,.09,0,.1,0,.11,0h.6l.11,0,.1,0,.1,0,.1,0,.09,0,.09,0,.09,0,.09-.05.09-.06.09-.06.07-.06a1,1,0,0,0,.15-.14l14.88-14.87a2.08,2.08,0,1,0-2.94-2.95l-11.33,11.32V99.51c-.69,0-1.38,0-2.08,0s-1.39,0-2.08,0v41.24Z"/><rect class="cls-1" x="104.06" y="72.15" width="29.29" height="27.36"/><path class="cls-2" d="M133.86,101.59H103.54A1.56,1.56,0,0,1,102,100V71.63a1.56,1.56,0,0,1,1.56-1.56h30.32a1.56,1.56,0,0,1,1.57,1.56V100A1.56,1.56,0,0,1,133.86,101.59ZM107.7,97.43h22a1.56,1.56,0,0,0,1.56-1.57V75.79a1.56,1.56,0,0,0-1.56-1.56h-22a1.56,1.56,0,0,0-1.56,1.56V95.86A1.56,1.56,0,0,0,107.7,97.43Z"/><path class="cls-2" d="M118.7,205.75a26.54,26.54,0,1,1,26.54-26.54A26.57,26.57,0,0,1,118.7,205.75Zm0-48.1a21.56,21.56,0,1,0,21.56,21.56A21.59,21.59,0,0,0,118.7,157.65Z"/></g></g></svg>