<svg xmlns="http://www.w3.org/2000/svg" viewBox="0 0 240 240"><defs><style>.cls-1{fill:#3cf;}.cls-2{fill:#fff;}</style></defs><title>Curriculum alignment</title><g id="Layer_2" data-name="Layer 2"><g id="Layer_2-2" data-name="Layer 2"><circle class="cls-1" cx="120" cy="120" r="120"/><rect class="cls-2" x="89.08" y="42.81" width="7.7" height="43.93" rx="3.85" ry="3.85" transform="translate(157.7 -28.16) rotate(90)"/><rect class="cls-2" x="145.8" y="45.91" width="7.7" height="37.73" rx="3.85" ry="3.85" transform="translate(214.42 -84.88) rotate(90)"/><rect class="cls-2" x="79.31" y="52.37" width="7.7" height="63.47" rx="3.85" ry="3.85" transform="translate(167.27 0.95) rotate(90)"/><rect class="cls-2" x="142.04" y="69.01" width="7.7" height="30.2" rx="3.85" ry="3.85" transform="translate(230 -61.78) rotate(90)"/><rect class="cls-2" x="96.73" y="89.14" width="7.7" height="28.62" rx="3.85" ry="3.85" transform="translate(204.03 2.86) rotate(90)"/><rect class="cls-2" x="92.18" y="103.92" width="7.7" height="37.73" rx="3.85" ry="3.85" transform="translate(218.81 26.76) rotate(90)"/><rect class="cls-2" x="83.63" y="114.71" width="7.7" height="54.82" rx="3.85" ry="3.85" transform="translate(229.6 54.64) rotate(90)"/><rect class="cls-2" x="75.31" y="125.73" width="7.7" height="71.46" rx="3.85" ry="3.85" transform="translate(240.62 82.3) rotate(90)"/><rect class="cls-2" x="159.83" y="70.56" width="7.7" height="65.78" rx="3.85" ry="3.85" transform="translate(267.12 -60.23) rotate(90)"/><rect class="cls-2" x="149.09" y="100.63" width="7.7" height="44.3" rx="3.85" ry="3.85" transform="translate(275.72 -30.15) rotate(90)"/><rect class="cls-2" x="139.01" y="130.05" width="7.7" height="24.15" rx="3.85" ry="3.85" transform="translate(284.99 -0.74) rotate(90)"/><rect class="cls-2" x="159.83" y="128.57" width="7.7" height="65.78" rx="3.85" ry="3.85" transform="translate(325.14 -2.22) rotate(90)"/><rect class="cls-2" x="114.2" y="63.98" width="23.72" height="1.55"/><rect class="cls-2" x="112.75" y="83.24" width="23.72" height="1.55"/><rect class="cls-2" x="112.26" y="102.5" width="23.72" height="1.55"/><rect class="cls-2" x="112.51" y="121.77" width="23.72" height="1.55"/><rect class="cls-2" x="112.75" y="141.03" width="23.72" height="1.55"/><rect class="cls-2" x="112.99" y="160.3" width="23.72" height="1.55"/></g></g></svg>