<svg xmlns="http://www.w3.org/2000/svg" viewBox="0 0 240 240"><defs><style>.cls-1{fill:#3cf;}.cls-2{fill:#fff;}</style></defs><title>Dashboard</title><g id="Layer_2" data-name="Layer 2"><g id="Layer_2-2" data-name="Layer 2"><circle class="cls-1" cx="120" cy="120" r="120"/><path class="cls-2" d="M177.49,176.42h-113a5.34,5.34,0,0,1-5.14-5.52V71a3.13,3.13,0,1,1,6.26,0v99.21H177.49a3.13,3.13,0,0,1,0,6.26Z"/><path class="cls-2" d="M165.47,83.87a3.13,3.13,0,0,0-2.24-1.25l-21.7-1.86A3.13,3.13,0,0,0,141,87l14.7,1.27-30.35,25.53-11.94-14.2a.08.08,0,0,1,0,0,3.61,3.61,0,0,0-.45-.72,3.14,3.14,0,0,0-4.41-.38L73.28,128.1a3.13,3.13,0,0,0,2,5.52,3.16,3.16,0,0,0,2-.73l32.74-27.56,12,14.23a3.31,3.31,0,0,0,.46.73,3.13,3.13,0,0,0,2.39,1.11H125a3.09,3.09,0,0,0,2-.74,2.65,2.65,0,0,0,.51-.55l31.87-26.82-1.22,14.16a3.13,3.13,0,0,0,2.85,3.38l.27,0a3.13,3.13,0,0,0,3.12-2.86l1.86-21.7A3.13,3.13,0,0,0,165.47,83.87Z"/><rect class="cls-2" x="93.98" y="126.06" width="6.51" height="34.03" rx="3.26" ry="3.26"/><rect class="cls-2" x="112.22" y="139.74" width="6.51" height="20.34" rx="3.26" ry="3.26"/><rect class="cls-2" x="130.46" y="130.95" width="6.51" height="29.14" rx="3.26" ry="3.26"/><rect class="cls-2" x="148.69" y="114.36" width="6.51" height="45.73" rx="3.26" ry="3.26"/></g></g></svg>