<svg xmlns="http://www.w3.org/2000/svg" viewBox="0 0 240 240"><defs><style>.cls-1{fill:#3cf;}.cls-2{fill:#fff;}</style></defs><title>multilingual</title><g id="Layer_2" data-name="Layer 2"><g id="Layer_2-2" data-name="Layer 2"><circle class="cls-1" cx="120" cy="120" r="120"/><path class="cls-2" d="M120,159.73a50.79,50.79,0,0,1-35.84-14.59,49.27,49.27,0,0,1,0-70.53,51.32,51.32,0,0,1,71.68,0,49.27,49.27,0,0,1,0,70.53A50.79,50.79,0,0,1,120,159.73Zm0-95.48c-25.62,0-46.47,20.47-46.47,45.62S94.38,155.5,120,155.5s46.47-20.47,46.47-45.63S145.62,64.25,120,64.25Z"/><path class="cls-2" d="M120,159.73c-9,0-17.43-5.31-23.68-14.95-6.07-9.35-9.42-21.75-9.42-34.91S90.25,84.32,96.32,75C102.57,65.32,111,60,120,60s17.43,5.3,23.68,14.94c6.07,9.36,9.42,21.76,9.42,34.91s-3.35,25.56-9.42,34.91C137.43,154.42,129,159.73,120,159.73Zm0-95.48c-7.53,0-14.68,4.62-20.13,13-5.63,8.68-8.74,20.26-8.74,32.6s3.11,23.93,8.74,32.61c5.45,8.4,12.6,13,20.13,13s14.68-4.62,20.13-13c5.63-8.68,8.74-20.26,8.74-32.61s-3.11-23.92-8.74-32.6C134.68,68.87,127.53,64.25,120,64.25Z"/><rect class="cls-2" x="117.55" y="62.13" width="4.23" height="94.13"/><rect class="cls-2" x="77.17" y="84.39" width="85.74" height="4.23"/><rect class="cls-2" x="71.41" y="109.62" width="97.18" height="4.23"/><rect class="cls-2" x="78.52" y="134.84" width="81.26" height="4.23"/><path class="cls-2" d="M191.05,85.88a65.27,65.27,0,0,0-16.64-20.55,79.43,79.43,0,0,0-24.52-13.75,91.5,91.5,0,0,0-59.78,0A79.43,79.43,0,0,0,65.59,65.33,65.27,65.27,0,0,0,49,85.88a55.32,55.32,0,0,0,0,50.7,65.38,65.38,0,0,0,16.64,20.55c1.66,1.37,3.38,2.68,5.16,3.91.42,5.3.19,11.14-1.67,14.45a45.52,45.52,0,0,1-4.51,6.24,38.59,38.59,0,0,0-2.88,3.83c-.43.72-1.76,2.91-.65,5.11.94,1.85,3,2.77,6.34,2.77a27.37,27.37,0,0,0,4.67-.46,53.53,53.53,0,0,0,12.84-4c4.29-2,11.93-7.38,18-14.66A91.75,91.75,0,0,0,120,175.9a89.87,89.87,0,0,0,29.89-5,79.43,79.43,0,0,0,24.52-13.75,65.38,65.38,0,0,0,16.64-20.55,55.32,55.32,0,0,0,0-50.7ZM120,170.48a87,87,0,0,1-13.53-1c-.9-.15-1.79-.3-2.68-.47a5.25,5.25,0,0,0-5,1.82c-.62.74-1.26,1.46-1.91,2.17a53.19,53.19,0,0,1-14.28,11.13,48.41,48.41,0,0,1-10.26,3.34,21.77,21.77,0,0,1-5.75.58c.57-.83,1.48-1.95,2.21-2.85a50.65,50.65,0,0,0,5-7c2.09-3.72,2.63-8.84,2.55-13.56,0-1.23-.08-2.43-.17-3.58a6.3,6.3,0,0,0-2.66-4.66q-2-1.41-3.88-2.94c-13.22-10.75-21.42-25.69-21.42-42.18C48.22,78.56,80.42,52,120,52s71.78,26.58,71.78,59.25S159.58,170.48,120,170.48Z"/></g></g></svg>