<svg xmlns="http://www.w3.org/2000/svg" viewBox="0 0 69.67 69.66"><defs><style>.cls-1,.cls-3{fill:#fff;}.cls-1,.cls-2{opacity:0.5;}.cls-4{fill:#69a1dd;}.cls-5{fill:#fe6473;}.cls-6{fill:#9da2cb;}.cls-7{fill:#8db8e0;}.cls-8{fill:#fd6573;}.cls-9{fill:#fcdfac;}.cls-10{fill:#f7cc8f;}.cls-11{fill:#fcc78e;}.cls-12{fill:#664336;}.cls-13{fill:#e2927d;}</style></defs><title>Asset 13</title><g id="Layer_2" data-name="Layer 2"><g id="Layer_1-2" data-name="Layer 1"><circle class="cls-1" cx="34.46" cy="35.21" r="29.21"/><g class="cls-2"><path class="cls-3" d="M34.83,69.66A34.83,34.83,0,1,1,69.67,34.83,34.87,34.87,0,0,1,34.83,69.66Zm0-67.42A32.58,32.58,0,1,0,67.42,34.83,32.62,32.62,0,0,0,34.83,2.25Z"/></g><path class="cls-4" d="M43.31,55.62H25.54l.06-5.14,17.51,0h.18Z"/><path class="cls-5" d="M25.6,50.48l-.06,5.14H22.1A3.14,3.14,0,0,1,20.89,52c.37-1.9.54-3.83.79-5.75A2,2,0,0,1,22.24,45l3.3,5.27Z"/><path class="cls-5" d="M46.77,45.1c.41.2.34.68.57,1,.28,2.13.53,4.25.84,6.38.25,1.71-.09,2.43-1.62,3.17H43.5l-.09-5.17Z"/><path class="cls-6" d="M43.41,50.45l.09,5.17h-.19q0-2.58,0-5.16Z"/><path class="cls-7" d="M43.41,50.45l-.13,0H43.1c-.32-.31-.72-.17-1.09-.17H25.54L22.24,45c0-.21,0-.54.12-.62,1.08-.75,2-1.8,3.5-1.74.92,1.48,1.82,3,2.75,4.44a2.26,2.26,0,0,0,2.08,1.1q3.76,0,7.52,0a2.44,2.44,0,0,0,2.28-1.26c.87-1.44,1.77-2.85,2.66-4.28,1.33-.1,3.54,1.4,3.61,2.45Z"/><path class="cls-8" d="M43.16,42.65c-.89,1.43-1.79,2.84-2.66,4.28a2.44,2.44,0,0,1-2.28,1.26q-3.76,0-7.52,0a2.26,2.26,0,0,1-2.08-1.1c-.93-1.47-1.84-3-2.75-4.44l.32-.21c.66-.11,1.26-.9,2-.19,1.63,3.75,5.15,5.4,8.73,4a5.54,5.54,0,0,0,3.76-4.17C41.63,41.72,42.37,42.28,43.16,42.65Z"/><path class="cls-9" d="M38.72,38.23h.17c0,.54,0,1.07,0,1.61,0,1.45.3,1.83,1.76,2.23a5.53,5.53,0,0,1-3.76,4.17c-3.58,1.4-7.1-.25-8.73-4l1.35-.58a8.5,8.5,0,0,0,6.59-1.14,4.37,4.37,0,0,0,2.21-2.1h0A.39.39,0,0,0,38.72,38.23Z"/><path class="cls-6" d="M25.54,50.27H42c.36,0,.77-.14,1.09.17l-17.51,0Z"/><path class="cls-10" d="M38.34,38.42a4.37,4.37,0,0,1-2.21,2.1,8.5,8.5,0,0,1-6.59,1.14c.86-1,.47-2.27.57-3.43.51-.09.87.36,1.35.37a7,7,0,0,0,6.17.06Z"/><path class="cls-11" d="M38.72,38.23a.39.39,0,0,1-.38.19A.4.4,0,0,1,38.72,38.23Z"/><path class="cls-9" d="M46.35,26c0,7.89-5.24,14.28-11.71,14.28S22.92,33.84,22.92,26s5-9,11.48-9S46.35,18.07,46.35,26Z"/><path class="cls-12" d="M27.57,14.5a13.12,13.12,0,0,1,4.55-1.68l.63-.12c1.41-.05,1.9-.05,2.88-.07a4.26,4.26,0,0,1,1.2.16c.77.21,1.54.41,2.29.68a13.76,13.76,0,0,1,9,12.38,55.59,55.59,0,0,0,3.17,17.38.75.75,0,0,1-.3.9,25.78,25.78,0,0,1-3.7,2c-.23-.31-.16-.78-.57-1-.07-1-2.28-2.54-3.61-2.45-.79-.37-1.53-.92-2.48-.58-1.47-.41-1.76-.78-1.76-2.23,0-.54,0-1.07,0-1.61,1-.72.51-3,1.6-3.58,1.33-.68,2.78-.45,3.15-1.53a2.48,2.48,0,0,1,1.71-1.32,2.07,2.07,0,0,0,1.74-1.87,2.42,2.42,0,0,0-1.49-2.31c-.72-.25-.81-.7-.76-1.38a3.45,3.45,0,0,0-1.67-3.38A4.48,4.48,0,0,0,41,22.21c-1.88-.11-3.84.34-5.63-.65l-1-1.49a6.49,6.49,0,0,0-2.93-4.79A7,7,0,0,0,27.57,14.5Z"/><path class="cls-12" d="M27.57,14.5a7,7,0,0,1,4,.78,6.64,6.64,0,0,1,3,5.55A5.61,5.61,0,0,1,30.2,22.2c-.69-.06-1.4,0-2.1,0a4,4,0,0,0-3.3,1.6A4.48,4.48,0,0,0,24,26.67c0,.42,0,.74-.56.9a2,2,0,0,0-1.56,1.93,2.08,2.08,0,0,0,1.4,2.24c.5.2,3.09-.46,3.15.12.21,2.07,1.22,2.82,3.21,3.58.93.36-.38,2.18.45,2.79-.1,1.16.29,2.39-.57,3.43l-1.35.58c-.74-.7-1.34.08-2,.19C22.12,37.11,20.69,31,21,24.41,21.16,19.89,23.66,16.67,27.57,14.5Z"/><ellipse class="cls-9" cx="23.18" cy="30.59" rx="2.79" ry="3.12"/><ellipse class="cls-9" cx="45.13" cy="30.59" rx="2.79" ry="3.12"/><path class="cls-9" d="M34.64,40.24c5.37,0,9.89-4.41,11.27-10.42H23.37C24.75,35.82,29.26,40.24,34.64,40.24Z"/><path class="cls-13" d="M39.47,34.69c0,1.36-2.09,4.29-4.76,4.29s-4.91-2.93-4.91-4.29,2.16,0,4.83,0S39.47,33.32,39.47,34.69Z"/><ellipse class="cls-12" cx="29.67" cy="30.21" rx="1.01" ry="1.23" transform="translate(-12.67 29.83) rotate(-45)"/><ellipse class="cls-12" cx="39.47" cy="30.21" rx="1.23" ry="1.01" transform="translate(-9.8 36.76) rotate(-45)"/><path class="cls-12" d="M44.31,23.43c0,3.94-4.44,4-9.91,4s-9.91-.1-9.91-4,4.44-7.14,9.91-7.14S44.31,19.49,44.31,23.43Z"/></g></g></svg>