<svg xmlns="http://www.w3.org/2000/svg" viewBox="0 0 69.66 69.66"><defs><style>.cls-1,.cls-3{fill:#fff;}.cls-1,.cls-2{opacity:0.5;}.cls-4{fill:#95b894;}.cls-5{fill:#80a68b;}.cls-6{fill:#fed6a2;}.cls-7{fill:#fcc78e;}.cls-8{fill:#fdc23e;}.cls-9{fill:#fee0b1;}.cls-10{fill:#e4b17c;}.cls-11{fill:#664336;}.cls-12{fill:#fe9656;}</style></defs><title>Asset 15</title><g id="Layer_2" data-name="Layer 2"><g id="Layer_1-2" data-name="Layer 1"><circle class="cls-1" cx="34.46" cy="35.21" r="29.21"/><g class="cls-2"><path class="cls-3" d="M34.83,69.66A34.83,34.83,0,1,1,69.66,34.83,34.87,34.87,0,0,1,34.83,69.66Zm0-67.42A32.59,32.59,0,1,0,67.42,34.83,32.62,32.62,0,0,0,34.83,2.25Z"/></g><path class="cls-4" d="M21.69,43.64a2,2,0,0,1,1.34-1c1.31-.45,2.64-.85,3.94-1.33a1,1,0,0,1,1.26.31,6.11,6.11,0,0,0,1,2.26l.2.2h0a1,1,0,0,0,0,.37,23.91,23.91,0,0,0,5.12,6.13.66.66,0,0,0,1,0,22.26,22.26,0,0,0,4-4.35,4.61,4.61,0,0,0,1.2-2.13h0l.2-.2a6.13,6.13,0,0,0,1-2.26A1,1,0,0,1,43,41.28c1.46.5,2.93,1,4.39,1.49a1.62,1.62,0,0,1,1.07.87A44.28,44.28,0,0,1,45,47.81a4.51,4.51,0,0,0-1.38,3.42c.1,1.46,0,2.94,0,4.41H26.51c0-1.47-.07-2.94,0-4.41a4.58,4.58,0,0,0-1.38-3.42A38.45,38.45,0,0,1,21.69,43.64Z"/><path class="cls-5" d="M21.69,43.64a38.45,38.45,0,0,0,3.47,4.16,4.58,4.58,0,0,1,1.38,3.42c-.1,1.46,0,2.94,0,4.41h-5C20,54.83,19.8,53.54,20.06,52c.36-2.24.59-4.49.87-6.74A2.21,2.21,0,0,1,21.69,43.64Z"/><path class="cls-5" d="M43.62,55.63c0-1.47.07-2.94,0-4.41A4.51,4.51,0,0,1,45,47.81a44.28,44.28,0,0,0,3.47-4.17,3.4,3.4,0,0,1,.88,2.45c.3,2.12.52,4.24.82,6.36a2.83,2.83,0,0,1-1.54,3.18Z"/><path class="cls-6" d="M39.39,37.56l.33.19c0,.41,0,.82,0,1.23,0,1.95.21,2.21,2.15,2.67a6.13,6.13,0,0,1-1,2.26l-.2.2h0a12.32,12.32,0,0,1-5.54,1.52,11.81,11.81,0,0,1-5.82-1.52h0l-.2-.2a6.11,6.11,0,0,1-1-2.26l1.53-.44c.67,0,1.33.15,2,.13a9.6,9.6,0,0,0,5.11-1.55c.82-.56,1.79-1,2.15-2h0A.39.39,0,0,0,39.39,37.56Z"/><path class="cls-7" d="M30.39,37.37l1.51.57a7.29,7.29,0,0,0,6.4.07l.71-.26c-.37,1-1.33,1.48-2.15,2a9.6,9.6,0,0,1-5.11,1.55c-.65,0-1.31-.14-2-.13A2.52,2.52,0,0,0,30.38,39C30.37,38.43,30.39,37.9,30.39,37.37Z"/><path class="cls-8" d="M29.39,44.1a11.81,11.81,0,0,0,5.82,1.52,12.32,12.32,0,0,0,5.54-1.52,4.61,4.61,0,0,1-1.2,2.13,22.26,22.26,0,0,1-4,4.35.66.66,0,0,1-1,0,23.91,23.91,0,0,1-5.12-6.13A1,1,0,0,1,29.39,44.1Z"/><path class="cls-8" d="M29.2,43.91l.2.2Z"/><path class="cls-8" d="M40.73,44.1l.2-.2Z"/><path class="cls-7" d="M39.39,37.56a.39.39,0,0,1-.39.19A.4.4,0,0,1,39.39,37.56Z"/><path class="cls-9" d="M47.46,25.07c0,7.89-5.24,14.28-11.71,14.28S24,33,24,25.07s5-9,11.48-9S47.46,17.18,47.46,25.07Z"/><path class="cls-10" d="M40.58,33.8c0,1.36-2.09,4.29-4.76,4.29s-4.91-2.93-4.91-4.29,2.16,0,4.83,0S40.58,32.44,40.58,33.8Z"/><ellipse class="cls-11" cx="30.78" cy="29.33" rx="1.01" ry="1.23"/><ellipse class="cls-11" cx="40.58" cy="29.33" rx="1.01" ry="1.23"/><path class="cls-12" d="M43.49,14c-.86-.49-1.84-.63-2.71-1.06h-12a4.53,4.53,0,0,0-2.41,1.94,2,2,0,0,1-1,1,5,5,0,0,0-2.81,4.84c.23,2.47.55,4.94.83,7.41C25,27.52,25,27.52,25,26A3.81,3.81,0,0,1,26.29,23a1.35,1.35,0,0,0,.5-1.77c-.1-.22-.19-.59.06-.74s.44.19.59.38a8.61,8.61,0,0,0,5.18,3.29c.27.06.55.22.77-.11a1,1,0,0,1-.37-.31,1,1,0,0,0,.37.31c0-.27,0-.53,0-.8s.15-.47.41-.23a15.53,15.53,0,0,0,4.89,2.62c1.68.2,1.68.2,1.68-1.65a1.56,1.56,0,0,1,.17-.82c.35.73.72,1.45,1,2.2.19.44.41.5.8.28.92-.52,1.87-1,2.77-1.51.63-.38.9-.18,1,.5a4.94,4.94,0,0,1,.26,1.68c-.12.87.12,1.42,1,1.53a1.87,1.87,0,0,1,.51.24c.11-1.07.19-2.15.34-3.21C49,20.1,47.18,16.06,43.49,14Z"/><rect class="cls-12" x="23.56" y="20.84" width="2.77" height="10.56"/><rect class="cls-12" x="44.69" y="23.12" width="2.77" height="8.28"/><ellipse class="cls-9" cx="24.25" cy="30.08" rx="2.79" ry="3.12"/><ellipse class="cls-9" cx="46.61" cy="30.08" rx="2.79" ry="3.12"/></g></g></svg>