<svg xmlns="http://www.w3.org/2000/svg" viewBox="0 0 69.67 69.66"><defs><style>.cls-1,.cls-3{fill:#fff;}.cls-1,.cls-2{opacity:0.5;}.cls-4{fill:#4f6e7f;}.cls-5{fill:#33546a;}.cls-6{fill:#b26e60;}.cls-7{fill:#7f473c;}.cls-8{fill:#fc8b52;}.cls-9{fill:#e09489;}.cls-10{fill:#664437;}.cls-11{fill:#554f6e;}</style></defs><title>Asset 14</title><g id="Layer_2" data-name="Layer 2"><g id="Layer_1-2" data-name="Layer 1"><circle class="cls-1" cx="34.46" cy="35.21" r="29.21"/><g class="cls-2"><path class="cls-3" d="M34.83,69.66A34.83,34.83,0,1,1,69.67,34.83,34.87,34.87,0,0,1,34.83,69.66Zm0-67.42A32.58,32.58,0,1,0,67.42,34.83,32.62,32.62,0,0,0,34.83,2.25Z"/></g><path class="cls-4" d="M21,44.94a2.36,2.36,0,0,1,1.4-1.06c1.43-.51,2.88-1,4.32-1.46.54-.18,1.05-.2,1.4.37a6.65,6.65,0,0,0,.7,1.75,8.34,8.34,0,0,0,1.54,2.67,6.36,6.36,0,0,0,6.71,2.21,6.66,6.66,0,0,0,5-4.91h0c.17,0,.19-.11.22-.23a3.82,3.82,0,0,0,.6-1.5,1,1,0,0,1,1.2-.42c1.58.51,3.15,1,4.71,1.58a2.44,2.44,0,0,1,1.41,1.21c-.37,0-.58.25-.79.48-1.07,1.22-2.1,2.49-3.22,3.68a5.79,5.79,0,0,0-1.58,4.76c.11,1.24,0,2.49,0,3.73H26.35c0-1.77,0-3.55,0-5.32a3.39,3.39,0,0,0-.88-2.32C24,48.44,22.48,46.69,21,44.94Z"/><path class="cls-5" d="M44.58,57.81c0-1.24.09-2.5,0-3.73a5.79,5.79,0,0,1,1.58-4.76c1.12-1.18,2.15-2.45,3.22-3.68.21-.24.42-.5.79-.48.77,1,.63,2.16.8,3.27.32,2.18.56,4.38.81,6.58a2.67,2.67,0,0,1-1.81,2.81Z"/><path class="cls-5" d="M21,44.94c1.49,1.74,3,3.5,4.49,5.22a3.39,3.39,0,0,1,.88,2.32c0,1.77,0,3.55,0,5.32H21a2.86,2.86,0,0,1-1.74-3.35c.37-2.56.64-5.14,1-7.71A2.69,2.69,0,0,1,21,44.94Z"/><path class="cls-6" d="M40.29,38.51l.19.21c0,.32,0,.64,0,1,0,2.34.06,2.41,2.33,3.11a3.82,3.82,0,0,1-.6,1.5l-.22.23h0c-.39,0-.67.22-1,.36a12.7,12.7,0,0,1-8.94.83,23.93,23.93,0,0,0-3.29-1.16,6.65,6.65,0,0,1-.7-1.75l1.61-.44A13.06,13.06,0,0,0,37,41,21.47,21.47,0,0,0,40.29,38.51Z"/><path class="cls-7" d="M30.46,38.3c.62-.09,1.06.52,1.68.42,2.26,1.28,4.52,1,6.8,0,.42-.17.82-.59,1.34-.26A21.47,21.47,0,0,1,37,41a13.06,13.06,0,0,1-7.3,1.34c.83-.73.74-1.71.72-2.67C30.43,39.23,30.45,38.77,30.46,38.3Z"/><path class="cls-8" d="M28.8,44.55a23.93,23.93,0,0,1,3.29,1.16A12.7,12.7,0,0,0,41,44.89c.32-.14.6-.4,1-.36a6.66,6.66,0,0,1-5,4.91,6.36,6.36,0,0,1-6.71-2.21A8.34,8.34,0,0,1,28.8,44.55Z"/><path class="cls-8" d="M42,44.53l.22-.23C42.2,44.42,42.18,44.54,42,44.53Z"/><ellipse class="cls-6" cx="36.07" cy="26.57" rx="9.69" ry="14.47"/><path class="cls-9" d="M39.23,34.66c0,1.34-1.37,4.21-3.11,4.21S32.91,36,32.91,34.66s1.42,0,3.16,0S39.23,33.32,39.23,34.66Z"/><ellipse class="cls-10" cx="31.97" cy="30.27" rx="0.84" ry="1.21"/><ellipse class="cls-10" cx="40.07" cy="30.27" rx="0.84" ry="1.21"/><path class="cls-11" d="M48.56,20.39a3.73,3.73,0,0,0-.82-2.24,5,5,0,0,0,.12-1.06c0-3.3-3.26-6-7.28-6a8.57,8.57,0,0,0-3.09.57,10,10,0,0,0-10.93,0,4.18,4.18,0,0,0-1.94-.47c-2,0-3.63,1.33-3.63,3a2.53,2.53,0,0,0,.35,1.26A4.79,4.79,0,0,0,20,18.73C20,21,21.76,23,24.27,23.78v6.73h4V24.84a18.94,18.94,0,0,0,8.32,1.75,20,20,0,0,0,7.27-1.28v5.2h4V22.46A3.66,3.66,0,0,0,48.56,20.39Z"/><ellipse class="cls-6" cx="26.91" cy="31.01" rx="2.74" ry="3.05"/><ellipse class="cls-6" cx="45.12" cy="31.01" rx="2.74" ry="3.05"/></g></g></svg>