<svg xmlns="http://www.w3.org/2000/svg" viewBox="0 0 940 830"><defs><style>.cls-1{fill:none;}.cls-2,.cls-4{opacity:0.5;}.cls-3{fill:#23d160;}.cls-4,.cls-5{fill:#fff;}.cls-6{fill:#95b894;}.cls-7{fill:#80a68b;}.cls-8{fill:#fed6a2;}.cls-9{fill:#fcc78e;}.cls-10{fill:#fdc23e;}.cls-11{fill:#fee0b1;}.cls-12{fill:#e4b17c;}.cls-13{fill:#664336;}.cls-14{fill:#fe9656;}</style></defs><title>GrnChArw</title><g id="Layer_2" data-name="Layer 2"><g id="Layer_8" data-name="Layer 8"><g id="GrnChArw"><rect class="cls-1" width="940" height="830"/><g id="GrnChArw-2" data-name="GrnChArw"><g id="GrnArw" class="cls-2"><g class="cls-2"><rect class="cls-3" x="149.05" y="413.53" width="14.7" height="44.39" rx="7.35" ry="7.35" transform="translate(-262.29 238.21) rotate(-45)"/></g><g class="cls-2"><rect class="cls-3" x="134.21" y="407.73" width="44.39" height="14.7" rx="7.35" ry="7.35" transform="translate(-247.7 232.17) rotate(-45)"/></g></g><g id="ChGrn"><circle class="cls-4" cx="96.65" cy="425.06" r="29.35"/><g class="cls-2"><path class="cls-5" d="M97,459.68a35,35,0,1,1,35-35A35,35,0,0,1,97,459.68Zm0-67.74a32.74,32.74,0,1,0,32.74,32.74A32.78,32.78,0,0,0,97,391.94Z"/></g><path class="cls-6" d="M83.82,433.53a2,2,0,0,1,1.34-1c1.32-.45,2.66-.85,4-1.33a1,1,0,0,1,1.26.31,6.29,6.29,0,0,0,1,2.27l.2.2h0a1,1,0,0,0,0,.38,24.09,24.09,0,0,0,5.14,6.15.67.67,0,0,0,1,0,22.48,22.48,0,0,0,4-4.37A4.6,4.6,0,0,0,103,434h0l.2-.2a6.13,6.13,0,0,0,1-2.27.94.94,0,0,1,1.09-.37c1.46.5,2.94,1,4.41,1.5a1.6,1.6,0,0,1,1.07.87,45.05,45.05,0,0,1-3.49,4.19,4.49,4.49,0,0,0-1.38,3.43c.09,1.47,0,3,0,4.43H88.67c0-1.48-.07-3,0-4.43a4.58,4.58,0,0,0-1.38-3.44A38.65,38.65,0,0,1,83.82,433.53Z"/><path class="cls-7" d="M83.82,433.53a38.65,38.65,0,0,0,3.49,4.18,4.58,4.58,0,0,1,1.38,3.44c-.09,1.47,0,3,0,4.43h-5c-1.54-.81-1.72-2.1-1.46-3.67.36-2.25.59-4.52.87-6.78A2.22,2.22,0,0,1,83.82,433.53Z"/><path class="cls-7" d="M105.86,445.58c0-1.48.07-3,0-4.43a4.49,4.49,0,0,1,1.38-3.43,45.05,45.05,0,0,0,3.49-4.19,3.4,3.4,0,0,1,.89,2.46c.3,2.13.52,4.27.82,6.39a2.84,2.84,0,0,1-1.54,3.2Z"/><path class="cls-8" d="M101.61,427.42l.34.19c0,.41,0,.83,0,1.24,0,1.95.21,2.22,2.16,2.68a6.13,6.13,0,0,1-1,2.27l-.2.2h0a12.36,12.36,0,0,1-5.56,1.53A11.91,11.91,0,0,1,91.56,434h0l-.2-.2a6.29,6.29,0,0,1-1-2.27l1.54-.44c.67,0,1.34.15,2,.12a9.71,9.71,0,0,0,5.14-1.55c.83-.56,1.79-1,2.16-2.05h0A.39.39,0,0,0,101.61,427.42Z"/><path class="cls-9" d="M92.57,427.23l1.51.57a7.3,7.3,0,0,0,6.43.07l.71-.26c-.37,1.06-1.33,1.49-2.16,2.05a9.71,9.71,0,0,1-5.14,1.55c-.65,0-1.32-.14-2-.12a2.53,2.53,0,0,0,.63-2.26C92.55,428.3,92.56,427.76,92.57,427.23Z"/><path class="cls-10" d="M91.56,434a11.91,11.91,0,0,0,5.85,1.53A12.36,12.36,0,0,0,103,434a4.6,4.6,0,0,1-1.2,2.14,22.48,22.48,0,0,1-4,4.37.67.67,0,0,1-1,0,24.09,24.09,0,0,1-5.14-6.15A1,1,0,0,1,91.56,434Z"/><path class="cls-10" d="M91.37,433.8l.2.2Z"/><path class="cls-10" d="M103,434l.2-.2Z"/><path class="cls-9" d="M101.61,427.42a.39.39,0,0,1-.39.2A.41.41,0,0,1,101.61,427.42Z"/><path class="cls-11" d="M109.72,414.87c0,7.93-5.27,14.35-11.77,14.35s-11.77-6.42-11.77-14.35,5-9,11.53-9S109.72,407,109.72,414.87Z"/><path class="cls-12" d="M102.81,423.65A5.38,5.38,0,0,1,98,428c-2.68,0-4.93-2.94-4.93-4.31s2.18,0,4.86,0S102.81,422.28,102.81,423.65Z"/><ellipse class="cls-13" cx="92.96" cy="419.15" rx="1.02" ry="1.24"/><ellipse class="cls-13" cx="102.81" cy="419.15" rx="1.02" ry="1.24"/><path class="cls-14" d="M105.73,403.7c-.87-.49-1.84-.63-2.73-1.06H91a4.52,4.52,0,0,0-2.43,1.94,2,2,0,0,1-1,1,5.07,5.07,0,0,0-2.82,4.87c.23,2.48.55,5,.84,7.44,1.59-.53,1.59-.53,1.61-2.1a3.79,3.79,0,0,1,1.27-3A1.37,1.37,0,0,0,89,411c-.1-.22-.2-.59.06-.74s.44.19.59.38a8.6,8.6,0,0,0,5.2,3.3c.27.07.55.22.77-.11a1,1,0,0,1-.37-.31,1,1,0,0,0,.37.31c0-.27,0-.54,0-.8s.15-.48.41-.24a15.59,15.59,0,0,0,4.91,2.64c1.68.21,1.68.21,1.69-1.65a1.55,1.55,0,0,1,.17-.83c.35.74.72,1.46,1,2.21.19.45.41.51.8.28.92-.52,1.88-1,2.79-1.52.63-.38.9-.18,1,.5a4.89,4.89,0,0,1,.26,1.69c-.12.88.12,1.43,1,1.54a1.87,1.87,0,0,1,.52.24c.11-1.07.19-2.15.34-3.22C111.24,409.88,109.44,405.82,105.73,403.7Z"/><rect class="cls-14" x="85.71" y="410.62" width="2.79" height="10.61"/><rect class="cls-14" x="106.93" y="412.91" width="2.79" height="8.32"/><ellipse class="cls-11" cx="86.4" cy="419.91" rx="2.81" ry="3.13"/><ellipse class="cls-11" cx="108.87" cy="419.91" rx="2.81" ry="3.13"/></g></g></g></g></g></svg>