<svg width="558" height="78" viewBox="0 0 558 78" fill="none" xmlns="http://www.w3.org/2000/svg">
<path d="M71.1334 73.0148C71.1334 74.0264 70.7587 74.6334 69.8219 74.6334H53.3348C52.398 74.6334 52.0233 74.0265 52.0233 72.8125C52.0233 69.3731 52.2107 64.315 52.398 57.6384C52.5854 50.7594 52.7727 45.7014 52.7727 42.4643C52.7727 41.4526 52.5854 41.048 52.398 40.8457C52.0233 41.048 49.9624 46.3084 46.2154 56.4245C43.9671 62.4941 41.7189 68.3614 39.4707 74.2288C39.096 75.0381 38.7212 75.4427 38.3465 75.645C38.1592 75.645 37.5971 75.645 36.473 75.645C34.7868 75.645 33.8501 75.2404 33.6627 74.6334C31.9765 70.9916 29.7283 65.5289 27.1053 58.4477C24.1077 50.9618 22.0468 45.4991 20.548 42.2619C20.548 42.0596 20.3606 41.8573 20.1733 41.655C19.9859 41.8573 19.7986 42.4643 19.7986 43.0712C19.7986 46.3084 19.7986 51.3664 19.9859 57.8407C20.1733 64.5173 20.1733 69.373 20.1733 72.6102C20.1733 73.8241 19.7986 74.4311 18.8618 74.4311H3.31147C2.74941 74.4311 2.37471 74.2288 2.18736 74.0264C2 73.8241 2 73.4195 2 72.8125C2 69.1707 2.18736 63.708 2.56207 56.2221C2.93677 48.9386 3.12412 43.4759 3.12412 39.6317C3.12412 35.7876 2.93677 28.5041 2.74942 17.781C2.74942 14.9485 2.56206 10.9021 2.37471 5.23706V4.42778C2.37471 3.82082 2.93677 3.41618 4.24824 3.41618C5.93442 3.41618 8.55737 3.41616 11.9297 3.21384C15.3021 3.01152 17.925 3.01152 19.6112 3.01152C19.9859 3.01152 20.3606 3.61849 21.11 5.03474L34.7868 37.4062C35.7236 39.6317 36.473 40.6434 37.2224 40.6434C37.5971 40.6434 38.3465 39.4294 39.4707 36.7993C42.6557 29.718 47.3395 19.1973 53.3348 4.83242C53.8969 3.61849 54.4589 2.8092 55.021 2.8092C55.9578 2.8092 57.2692 2.8092 59.1428 3.01152C61.0163 3.21384 62.3278 3.21384 63.2645 3.21384C64.014 3.21384 65.1381 3.21384 66.8242 3.01152C68.5104 2.8092 69.6345 2.8092 70.384 2.8092C71.3207 2.8092 71.6954 3.21384 71.6954 4.02313C71.6954 8.06957 71.5081 13.9369 71.3207 21.8274C71.1334 29.718 70.946 35.5853 70.946 39.6317C70.946 43.2735 71.1334 48.7362 71.3207 56.0198C70.946 63.9104 71.1334 69.373 71.1334 73.0148Z" fill="white"/>
<path d="M71.1334 73.0148C71.1334 74.0264 70.7587 74.6334 69.8219 74.6334H53.3348C52.398 74.6334 52.0233 74.0265 52.0233 72.8125C52.0233 69.3731 52.2107 64.315 52.398 57.6384C52.5854 50.7594 52.7727 45.7014 52.7727 42.4643C52.7727 41.4526 52.5854 41.048 52.398 40.8457C52.0233 41.048 49.9624 46.3084 46.2154 56.4245C43.9671 62.4941 41.7189 68.3614 39.4707 74.2288C39.096 75.0381 38.7212 75.4427 38.3465 75.645C38.1592 75.645 37.5971 75.645 36.473 75.645C34.7868 75.645 33.8501 75.2404 33.6627 74.6334C31.9765 70.9916 29.7283 65.5289 27.1053 58.4477C24.1077 50.9618 22.0468 45.4991 20.548 42.2619C20.548 42.0596 20.3606 41.8573 20.1733 41.655C19.9859 41.8573 19.7986 42.4643 19.7986 43.0712C19.7986 46.3084 19.7986 51.3664 19.9859 57.8407C20.1733 64.5173 20.1733 69.373 20.1733 72.6102C20.1733 73.8241 19.7986 74.4311 18.8618 74.4311H3.31147C2.74941 74.4311 2.37471 74.2288 2.18736 74.0264C2 73.8241 2 73.4195 2 72.8125C2 69.1707 2.18736 63.708 2.56207 56.2221C2.93677 48.9386 3.12412 43.4759 3.12412 39.6317C3.12412 35.7876 2.93677 28.5041 2.74942 17.781C2.74942 14.9485 2.56206 10.9021 2.37471 5.23706V4.42778C2.37471 3.82082 2.93677 3.41618 4.24824 3.41618C5.93442 3.41618 8.55737 3.41616 11.9297 3.21384C15.3021 3.01152 17.925 3.01152 19.6112 3.01152C19.9859 3.01152 20.3606 3.61849 21.11 5.03474L34.7868 37.4062C35.7236 39.6317 36.473 40.6434 37.2224 40.6434C37.5971 40.6434 38.3465 39.4294 39.4707 36.7993C42.6557 29.718 47.3395 19.1973 53.3348 4.83242C53.8969 3.61849 54.4589 2.8092 55.021 2.8092C55.9578 2.8092 57.2692 2.8092 59.1428 3.01152C61.0163 3.21384 62.3278 3.21384 63.2645 3.21384C64.014 3.21384 65.1381 3.21384 66.8242 3.01152C68.5104 2.8092 69.6345 2.8092 70.384 2.8092C71.3207 2.8092 71.6954 3.21384 71.6954 4.02313C71.6954 8.06957 71.5081 13.9369 71.3207 21.8274C71.1334 29.718 70.946 35.5853 70.946 39.6317C70.946 43.2735 71.1334 48.7362 71.3207 56.0198C70.946 63.9104 71.1334 69.373 71.1334 73.0148Z" stroke="white" stroke-width="3" stroke-miterlimit="10"/>
<path d="M127.339 49.3432C127.339 51.9734 127.526 55.8175 127.713 60.8756C127.901 65.9336 128.088 69.7777 128.088 72.4079C128.088 73.8241 127.526 74.4311 126.402 74.6334C122.467 74.8358 118.158 75.0381 113.1 75.0381C112.538 75.0381 112.163 74.0265 111.976 72.2056C111.788 70.1824 111.601 69.3731 111.226 69.1708C111.039 69.3731 110.664 69.5754 110.29 69.98C106.73 73.8242 102.983 75.6451 99.0483 75.6451C93.053 75.6451 87.9945 73.0149 84.0601 67.9568C80.313 63.1011 78.4395 57.4361 78.4395 50.5572C78.4395 42.8689 80.313 36.597 84.2474 31.7412C88.3692 26.8855 93.8024 24.4576 100.922 24.4576C105.793 24.4576 109.727 26.2785 112.538 29.9203C112.725 30.1227 112.725 30.1227 112.912 30.1227C113.1 30.1227 113.475 29.3134 113.849 27.6948C114.224 26.0762 114.599 25.2669 115.161 25.2669C116.285 25.2669 118.533 25.6716 121.718 26.2785C124.716 26.8855 126.964 27.4925 128.275 27.8971C128.65 28.0994 129.025 28.3018 129.025 28.7064C129.025 28.9087 129.025 29.1111 128.837 29.718C127.901 36.1923 127.339 42.6666 127.339 49.3432ZM112.35 49.7479C112.35 46.9154 111.601 44.4875 109.915 42.6666C108.229 40.8457 106.168 39.8341 103.357 39.8341C100.734 39.8341 98.4862 40.8457 96.8001 42.6666C95.1139 44.4875 94.3645 46.9154 94.3645 49.7479C94.3645 52.378 95.3013 54.8059 96.9874 56.8291C98.6736 58.8523 100.922 59.6616 103.357 59.6616C105.98 59.6616 108.229 58.65 109.915 56.8291C111.601 55.0082 112.35 52.5804 112.35 49.7479Z" fill="white"/>
<path d="M127.339 49.3432C127.339 51.9734 127.526 55.8175 127.713 60.8756C127.901 65.9336 128.088 69.7777 128.088 72.4079C128.088 73.8241 127.526 74.4311 126.402 74.6334C122.467 74.8358 118.158 75.0381 113.1 75.0381C112.538 75.0381 112.163 74.0265 111.976 72.2056C111.788 70.1824 111.601 69.3731 111.226 69.1708C111.039 69.3731 110.664 69.5754 110.29 69.98C106.73 73.8242 102.983 75.6451 99.0483 75.6451C93.053 75.6451 87.9945 73.0149 84.0601 67.9568C80.313 63.1011 78.4395 57.4361 78.4395 50.5572C78.4395 42.8689 80.313 36.597 84.2474 31.7412C88.3692 26.8855 93.8024 24.4576 100.922 24.4576C105.793 24.4576 109.727 26.2785 112.538 29.9203C112.725 30.1227 112.725 30.1227 112.912 30.1227C113.1 30.1227 113.475 29.3134 113.849 27.6948C114.224 26.0762 114.599 25.2669 115.161 25.2669C116.285 25.2669 118.533 25.6716 121.718 26.2785C124.716 26.8855 126.964 27.4925 128.275 27.8971C128.65 28.0994 129.025 28.3018 129.025 28.7064C129.025 28.9087 129.025 29.1111 128.837 29.718C127.901 36.1923 127.339 42.6666 127.339 49.3432ZM112.35 49.7479C112.35 46.9154 111.601 44.4875 109.915 42.6666C108.229 40.8457 106.168 39.8341 103.357 39.8341C100.734 39.8341 98.4862 40.8457 96.8001 42.6666C95.1139 44.4875 94.3645 46.9154 94.3645 49.7479C94.3645 52.378 95.3013 54.8059 96.9874 56.8291C98.6736 58.8523 100.922 59.6616 103.357 59.6616C105.98 59.6616 108.229 58.65 109.915 56.8291C111.601 55.0082 112.35 52.5804 112.35 49.7479Z" stroke="white" stroke-width="3" stroke-miterlimit="10"/>
<path d="M168.932 59.8644C168.932 60.876 168.745 62.4946 168.558 64.5178C168.37 66.5411 168.183 68.1596 168.183 68.9689C168.183 69.9805 167.996 70.5875 167.996 70.7898C167.808 70.9921 167.246 71.3968 166.497 72.0037C162.562 74.4316 158.066 75.6455 153.195 75.6455C144.202 75.6455 139.705 72.0037 139.705 64.5178C139.705 62.2923 139.705 59.0551 139.893 54.6041C140.08 50.153 140.08 46.9158 140.08 44.6903C140.08 43.274 139.33 42.4648 137.644 42.4648H137.082C136.708 42.4648 136.52 42.4648 136.52 42.4648C135.396 42.4648 134.834 42.0601 134.834 41.0485C134.834 40.4416 134.834 39.6323 135.021 38.6206C135.021 37.609 135.209 36.5974 135.209 36.1928C135.209 35.5858 135.209 34.3719 135.021 32.9556C135.021 31.5394 134.834 30.5278 134.834 29.7185C134.834 29.1115 135.771 28.7069 137.832 28.7069C138.956 28.7069 139.518 28.3022 139.705 27.6953C139.893 26.4814 139.893 24.4581 139.893 21.6256C139.705 17.3769 139.705 15.1513 139.705 15.3536C139.705 11.5095 140.08 9.48633 140.642 9.48633C141.391 9.48633 142.703 9.68864 144.202 10.0933C145.888 10.4979 147.199 10.7003 147.949 10.9026C149.448 11.1049 151.883 11.5095 155.068 11.9142C155.818 11.9142 156.192 12.3188 156.192 12.7235C156.192 14.1397 156.005 16.1629 155.818 18.7931C155.63 21.4233 155.443 23.6488 155.443 24.8628C155.443 26.4814 155.818 27.2906 156.754 27.2906C157.878 27.2906 159.565 27.2906 161.626 27.0883C163.874 26.886 165.56 26.886 166.684 26.886C167.433 26.886 167.621 27.0883 167.621 27.6953C167.621 28.5046 167.621 29.7185 167.433 31.1347C167.246 32.7533 167.246 33.7649 167.246 34.5742C167.246 35.3835 167.246 36.5974 167.246 38.0137C167.246 39.6323 167.246 40.6439 167.246 41.4532C167.246 42.0601 166.871 42.4648 165.935 42.4648C165.373 42.4648 164.248 42.4648 162.75 42.4648C161.251 42.4648 160.314 42.4648 159.565 42.4648H156.38C156.005 42.4648 155.63 43.274 155.63 44.6903V48.3321C155.63 49.9507 155.63 51.1646 155.63 51.9739C155.63 54.8064 156.005 56.8296 156.567 57.8412C157.316 59.2575 159.003 60.0668 161.438 60.0668C162.188 60.0668 163.312 59.8644 164.811 59.4598C166.309 59.0551 167.246 58.8528 167.808 58.8528C168.558 58.6505 168.932 59.0551 168.932 59.8644Z" fill="white"/>
<path d="M168.932 59.8644C168.932 60.876 168.745 62.4946 168.558 64.5178C168.37 66.5411 168.183 68.1596 168.183 68.9689C168.183 69.9805 167.996 70.5875 167.996 70.7898C167.808 70.9921 167.246 71.3968 166.497 72.0037C162.562 74.4316 158.066 75.6455 153.195 75.6455C144.202 75.6455 139.705 72.0037 139.705 64.5178C139.705 62.2923 139.705 59.0551 139.893 54.6041C140.08 50.153 140.08 46.9158 140.08 44.6903C140.08 43.274 139.33 42.4648 137.644 42.4648H137.082C136.708 42.4648 136.52 42.4648 136.52 42.4648C135.396 42.4648 134.834 42.0601 134.834 41.0485C134.834 40.4416 134.834 39.6323 135.021 38.6206C135.021 37.609 135.209 36.5974 135.209 36.1928C135.209 35.5858 135.209 34.3719 135.021 32.9556C135.021 31.5394 134.834 30.5278 134.834 29.7185C134.834 29.1115 135.771 28.7069 137.832 28.7069C138.956 28.7069 139.518 28.3023 139.705 27.6953C139.893 26.4814 139.893 24.4581 139.893 21.6256C139.705 17.3769 139.705 15.1513 139.705 15.3536C139.705 11.5095 140.08 9.48633 140.642 9.48633C141.391 9.48633 142.703 9.68864 144.202 10.0933C145.888 10.4979 147.199 10.7003 147.949 10.9026C149.448 11.1049 151.883 11.5095 155.068 11.9142C155.818 11.9142 156.192 12.3188 156.192 12.7235C156.192 14.1397 156.005 16.1629 155.818 18.7931C155.63 21.4233 155.443 23.6488 155.443 24.8628C155.443 26.4814 155.818 27.2906 156.754 27.2906C157.878 27.2906 159.565 27.2906 161.626 27.0883C163.874 26.886 165.56 26.886 166.684 26.886C167.433 26.886 167.621 27.0883 167.621 27.6953C167.621 28.5046 167.621 29.7185 167.433 31.1347C167.246 32.7533 167.246 33.7649 167.246 34.5742C167.246 35.3835 167.246 36.5974 167.246 38.0137C167.246 39.6323 167.246 40.6439 167.246 41.4532C167.246 42.0601 166.871 42.4648 165.935 42.4648C165.373 42.4648 164.248 42.4648 162.75 42.4648C161.251 42.4648 160.314 42.4648 159.565 42.4648H156.38C156.005 42.4648 155.63 43.274 155.63 44.6903V48.3321C155.63 49.9507 155.63 51.1646 155.63 51.9739C155.63 54.8064 156.005 56.8296 156.567 57.8412C157.316 59.2575 159.003 60.0668 161.438 60.0668C162.188 60.0668 163.312 59.8644 164.811 59.4598C166.309 59.0551 167.246 58.8528 167.808 58.8528C168.558 58.6505 168.932 59.0551 168.932 59.8644Z" stroke="white" stroke-width="3" stroke-miterlimit="10"/>
<path d="M221.203 38.0129V72.8122C221.203 74.0262 220.829 74.6331 219.892 74.8355C218.955 75.0378 216.707 75.0378 213.147 75.0378C209.775 75.0378 207.339 74.8354 206.028 74.6331C205.091 74.4308 204.529 73.6215 204.529 72.4076C204.529 69.5751 204.529 65.124 204.716 59.2567C204.904 53.3894 204.904 49.1406 204.904 46.1058C204.904 42.2617 203.03 40.2385 199.283 40.2385C197.971 40.2385 196.66 40.8454 194.974 41.8571C193.1 43.071 192.164 44.2849 192.164 45.4988V58.0428C192.164 59.6613 192.164 62.0892 192.164 65.3263C192.164 68.5635 192.164 70.9913 192.164 72.6099C192.164 73.8238 191.601 74.6331 190.665 74.6331C189.728 74.8354 186.918 74.8355 182.609 74.8355C179.986 74.8355 178.299 74.6331 177.175 74.4308C176.051 74.2285 175.489 73.6215 175.489 72.6099C175.489 69.9797 175.489 65.9333 175.489 60.6729C175.489 55.4126 175.489 51.3661 175.489 48.736C175.489 37.8106 175.302 28.7061 175.114 21.4226C174.927 18.9947 174.927 16.3645 174.927 13.9367C174.74 11.1042 174.552 8.47401 174.178 6.4508C174.178 6.04616 173.99 5.64151 173.99 5.43919C173.99 5.03455 174.178 4.62991 174.74 4.42759C175.676 4.22526 177.175 4.02294 179.049 3.82062C181.484 3.82062 182.983 3.6183 183.358 3.6183L191.789 2.60669C192.351 2.60669 192.538 3.01133 192.538 3.6183C192.538 4.6299 192.538 6.24847 192.351 8.06936C192.164 10.2949 192.164 11.7112 192.164 12.5204C191.976 20.2087 191.976 26.076 191.976 30.527C191.976 31.134 192.164 31.5386 192.351 31.5386C192.351 31.5386 193.288 30.9317 194.786 29.7178C196.66 28.3015 198.346 27.2899 200.032 26.4806C202.468 25.2667 204.904 24.6597 207.152 24.6597C211.086 24.6597 214.459 25.8737 217.082 28.0992C219.892 30.527 221.203 33.7642 221.203 38.0129Z" fill="white"/>
<path d="M221.203 38.0129V72.8122C221.203 74.0262 220.829 74.6331 219.892 74.8355C218.955 75.0378 216.707 75.0378 213.147 75.0378C209.775 75.0378 207.339 74.8354 206.028 74.6331C205.091 74.4308 204.529 73.6215 204.529 72.4076C204.529 69.5751 204.529 65.124 204.716 59.2567C204.904 53.3894 204.904 49.1406 204.904 46.1058C204.904 42.2617 203.03 40.2385 199.283 40.2385C197.971 40.2385 196.66 40.8454 194.974 41.8571C193.1 43.071 192.164 44.2849 192.164 45.4988V58.0428C192.164 59.6613 192.164 62.0892 192.164 65.3263C192.164 68.5635 192.164 70.9913 192.164 72.6099C192.164 73.8238 191.601 74.6331 190.665 74.6331C189.728 74.8354 186.918 74.8355 182.609 74.8355C179.986 74.8355 178.299 74.6331 177.175 74.4308C176.051 74.2285 175.489 73.6215 175.489 72.6099C175.489 69.9797 175.489 65.9333 175.489 60.6729C175.489 55.4126 175.489 51.3662 175.489 48.736C175.489 37.8106 175.302 28.7061 175.114 21.4226C174.927 18.9947 174.927 16.3645 174.927 13.9367C174.74 11.1042 174.552 8.47401 174.178 6.4508C174.178 6.04616 173.99 5.64151 173.99 5.43919C173.99 5.03455 174.178 4.62991 174.74 4.42759C175.676 4.22526 177.175 4.02294 179.049 3.82062C181.484 3.82062 182.983 3.6183 183.358 3.6183L191.789 2.60669C192.351 2.60669 192.538 3.01133 192.538 3.6183C192.538 4.6299 192.538 6.24847 192.351 8.06936C192.164 10.2949 192.164 11.7112 192.164 12.5204C191.976 20.2087 191.976 26.076 191.976 30.527C191.976 31.134 192.164 31.5386 192.351 31.5386C192.351 31.5386 193.288 30.9317 194.786 29.7178C196.66 28.3015 198.346 27.2899 200.032 26.4806C202.468 25.2667 204.904 24.6597 207.152 24.6597C211.086 24.6597 214.459 25.8737 217.082 28.0992C219.892 30.527 221.203 33.7642 221.203 38.0129Z" stroke="white" stroke-width="3" stroke-miterlimit="10"/>
<path d="M272.54 47.1176C272.54 50.5571 271.603 52.378 269.542 52.985C269.167 52.985 265.982 53.3896 259.8 53.9966C256.053 54.4012 250.619 55.0082 243.312 55.6151C243.687 57.8407 244.999 59.4592 247.247 60.6732C249.12 61.6848 251.181 62.0894 253.43 62.0894C256.24 62.0894 259.05 61.2801 261.86 59.6616C262.985 58.8523 264.296 58.043 265.42 57.2337C265.982 57.6383 267.106 59.2569 268.793 62.2917C270.291 65.3266 271.041 67.3498 271.041 68.1591C271.041 68.3614 270.853 68.766 270.291 69.373C266.544 73.8241 260.549 76.0496 252.68 76.0496C245.186 76.0496 239.378 73.6217 234.694 68.9684C230.01 64.315 227.762 57.8407 227.762 49.9501C227.762 42.2619 229.823 35.7876 233.945 30.9319C238.254 25.8738 243.875 23.2437 250.994 23.2437C256.989 23.2437 262.048 25.6715 266.17 30.3249C270.479 35.1806 272.54 40.6433 272.54 47.1176ZM256.24 44.0828C256.24 42.0596 255.49 40.2387 254.179 38.6201C252.868 37.0015 251.181 36.1922 249.308 36.1922C247.434 36.1922 245.748 37.0015 244.437 38.8224C243.313 40.441 242.75 42.4642 242.75 44.6897C242.75 45.499 243.125 46.106 244.062 46.106C246.31 46.106 249.87 45.7014 254.741 44.8921C255.678 44.6898 256.24 44.4874 256.24 44.0828Z" fill="white"/>
<path d="M272.54 47.1176C272.54 50.5571 271.603 52.378 269.542 52.985C269.167 52.985 265.982 53.3896 259.8 53.9966C256.053 54.4012 250.619 55.0082 243.313 55.6151C243.687 57.8407 244.999 59.4592 247.247 60.6732C249.12 61.6848 251.181 62.0894 253.43 62.0894C256.24 62.0894 259.05 61.2801 261.86 59.6616C262.985 58.8523 264.296 58.043 265.42 57.2337C265.982 57.6383 267.106 59.2569 268.793 62.2917C270.291 65.3266 271.041 67.3498 271.041 68.1591C271.041 68.3614 270.853 68.766 270.291 69.373C266.544 73.8241 260.549 76.0496 252.68 76.0496C245.186 76.0496 239.378 73.6218 234.694 68.9684C230.01 64.315 227.762 57.8407 227.762 49.9501C227.762 42.2619 229.823 35.7876 233.945 30.9319C238.254 25.8738 243.875 23.2437 250.994 23.2437C256.989 23.2437 262.048 25.6715 266.17 30.3249C270.479 35.1806 272.54 40.6433 272.54 47.1176ZM256.24 44.0828C256.24 42.0596 255.49 40.2387 254.179 38.6201C252.868 37.0015 251.181 36.1922 249.308 36.1922C247.434 36.1922 245.748 37.0015 244.437 38.8224C243.313 40.441 242.75 42.4642 242.75 44.6897C242.75 45.499 243.125 46.106 244.062 46.106C246.31 46.106 249.87 45.7014 254.741 44.8921C255.678 44.6898 256.24 44.4874 256.24 44.0828Z" stroke="white" stroke-width="3" stroke-miterlimit="10"/>
<path d="M353.285 72.8127C353.285 74.0267 352.91 74.6336 351.973 74.8359C351.036 75.0383 348.788 75.0383 345.041 75.0383C341.294 75.0383 338.858 74.8359 337.922 74.8359C336.985 74.6336 336.61 73.8243 336.61 72.4081C336.61 70.7895 336.61 68.564 336.798 65.5292C336.798 62.4943 336.985 60.0665 336.985 58.6502C336.985 52.7829 336.985 48.5342 336.798 46.1063C336.61 42.0599 334.924 40.0367 331.552 40.0367C330.053 40.0367 328.554 40.6436 327.242 42.0599C325.744 43.4761 324.994 44.8924 324.807 46.511C324.62 47.9272 324.62 51.9736 324.62 58.8525C324.62 60.4711 324.62 62.899 324.807 66.1361C324.807 69.3733 324.994 71.8011 324.994 73.4197C324.994 74.4313 324.62 75.0383 323.683 75.0383H309.631C308.695 75.0383 308.32 74.4313 308.32 73.015C308.32 71.3965 308.32 68.9686 308.507 65.9338C308.694 62.6967 308.695 60.4711 308.695 58.8525C308.695 57.6386 308.695 55.8177 308.695 53.1876C308.695 50.7597 308.695 48.7365 308.695 47.5226C308.695 42.6668 307.008 40.239 303.636 40.239C302.324 40.239 300.826 40.846 299.139 41.8576C297.453 43.0715 296.517 44.4877 296.517 45.7017C296.517 48.7365 296.517 53.3899 296.517 59.4595C296.517 65.5292 296.517 70.1826 296.517 73.2174C296.517 74.0267 296.329 74.6336 296.329 74.8359C296.142 75.0383 295.58 75.2406 294.83 75.2406C293.519 75.4429 291.271 75.4429 288.273 75.4429C286.399 75.4429 284.151 75.2406 281.528 75.2406C280.779 75.2406 280.404 75.0383 280.217 74.8359C280.029 74.6336 280.029 74.229 280.029 73.4197C280.029 70.7895 280.029 66.7431 280.029 61.2804C280.029 56.0201 280.029 51.9736 280.029 49.1411C280.029 43.6785 279.655 37.4065 278.905 30.5276C278.905 30.1229 278.905 29.9206 278.905 29.7183C278.905 29.1113 279.093 28.7067 279.467 28.5043C280.217 28.302 281.528 27.8974 283.402 27.6951C285.65 27.4928 287.149 27.2904 287.524 27.2904C287.898 27.2904 289.022 26.8858 291.271 26.2788C292.769 25.8742 294.081 25.6719 295.018 25.6719C295.58 25.6719 295.954 26.8858 295.954 29.1113C295.954 31.5392 296.142 32.5508 296.329 32.5508C296.704 32.3485 297.079 32.1461 297.453 31.9438C300.264 29.516 302.512 27.8974 304.011 27.0881C306.446 25.8742 309.069 25.2672 311.88 25.2672C314.69 25.2672 317.313 25.8742 319.561 27.2904C321.997 28.909 323.683 30.9322 324.432 33.7647C326.118 31.3369 328.367 29.3136 331.177 27.6951C333.987 26.0765 336.798 25.2672 339.608 25.2672C343.73 25.2672 347.102 26.2788 349.725 28.302C352.723 30.5276 354.034 33.967 354.034 38.2158C354.034 40.0367 354.034 42.6668 353.847 46.3086C353.847 49.9504 353.659 52.5806 353.659 54.4015C353.659 56.4247 353.659 59.6618 353.847 63.9106C353.285 67.35 353.285 70.5872 353.285 72.8127Z" fill="white"/>
<path d="M353.285 72.8127C353.285 74.0267 352.91 74.6336 351.973 74.8359C351.036 75.0383 348.788 75.0383 345.041 75.0383C341.294 75.0383 338.858 74.8359 337.922 74.8359C336.985 74.6336 336.61 73.8243 336.61 72.4081C336.61 70.7895 336.61 68.564 336.798 65.5292C336.798 62.4943 336.985 60.0665 336.985 58.6502C336.985 52.7829 336.985 48.5342 336.798 46.1063C336.61 42.0599 334.924 40.0367 331.552 40.0367C330.053 40.0367 328.554 40.6436 327.242 42.0599C325.744 43.4761 324.994 44.8924 324.807 46.5109C324.62 47.9272 324.62 51.9736 324.62 58.8525C324.62 60.4711 324.62 62.899 324.807 66.1361C324.807 69.3733 324.994 71.8011 324.994 73.4197C324.994 74.4313 324.62 75.0383 323.683 75.0383H309.631C308.695 75.0383 308.32 74.4313 308.32 73.015C308.32 71.3965 308.32 68.9686 308.507 65.9338C308.694 62.6967 308.695 60.4711 308.695 58.8525C308.695 57.6386 308.695 55.8177 308.695 53.1876C308.695 50.7597 308.695 48.7365 308.695 47.5226C308.695 42.6668 307.008 40.239 303.636 40.239C302.324 40.239 300.826 40.846 299.139 41.8576C297.453 43.0715 296.517 44.4877 296.517 45.7017C296.517 48.7365 296.517 53.3899 296.517 59.4595C296.517 65.5292 296.517 70.1826 296.517 73.2174C296.517 74.0267 296.329 74.6336 296.329 74.8359C296.142 75.0383 295.58 75.2406 294.83 75.2406C293.519 75.4429 291.271 75.4429 288.273 75.4429C286.399 75.4429 284.151 75.2406 281.528 75.2406C280.779 75.2406 280.404 75.0383 280.217 74.8359C280.029 74.6336 280.029 74.229 280.029 73.4197C280.029 70.7895 280.029 66.7431 280.029 61.2804C280.029 56.0201 280.029 51.9736 280.029 49.1411C280.029 43.6785 279.655 37.4065 278.905 30.5276C278.905 30.1229 278.905 29.9206 278.905 29.7183C278.905 29.1113 279.093 28.7067 279.467 28.5043C280.217 28.302 281.528 27.8974 283.402 27.6951C285.65 27.4928 287.149 27.2904 287.524 27.2904C287.898 27.2904 289.022 26.8858 291.271 26.2788C292.769 25.8742 294.081 25.6719 295.018 25.6719C295.58 25.6719 295.954 26.8858 295.954 29.1113C295.954 31.5392 296.142 32.5508 296.329 32.5508C296.704 32.3485 297.079 32.1461 297.453 31.9438C300.264 29.516 302.512 27.8974 304.011 27.0881C306.446 25.8742 309.069 25.2672 311.88 25.2672C314.69 25.2672 317.313 25.8742 319.561 27.2904C321.997 28.909 323.683 30.9322 324.432 33.7647C326.118 31.3369 328.367 29.3136 331.177 27.6951C333.987 26.0765 336.798 25.2672 339.608 25.2672C343.73 25.2672 347.102 26.2788 349.725 28.302C352.723 30.5276 354.034 33.967 354.034 38.2158C354.034 40.0367 354.034 42.6668 353.847 46.3086C353.847 49.9504 353.659 52.5806 353.659 54.4015C353.659 56.4247 353.659 59.6618 353.847 63.9106C353.285 67.35 353.285 70.5872 353.285 72.8127Z" stroke="white" stroke-width="3" stroke-miterlimit="10"/>
<path d="M410.053 49.3432C410.053 51.9734 410.241 55.8175 410.428 60.8756C410.615 65.9336 410.803 69.7777 410.803 72.4079C410.803 73.8241 410.241 74.4311 409.117 74.6334C405.182 74.8358 400.873 75.0381 395.815 75.0381C395.252 75.0381 394.878 74.0265 394.69 72.2056C394.503 70.1824 394.316 69.3731 393.941 69.1708C393.754 69.3731 393.379 69.5754 393.004 69.98C389.445 73.8242 385.698 75.6451 381.763 75.6451C375.768 75.6451 370.709 73.0149 366.775 67.9568C363.028 63.1011 361.154 57.4361 361.154 50.5572C361.154 42.8689 363.028 36.597 366.962 31.7412C371.084 26.8855 376.517 24.4576 383.637 24.4576C388.508 24.4576 392.442 26.2785 395.252 29.9203C395.44 30.1227 395.44 30.1227 395.627 30.1227C395.815 30.1227 396.189 29.3134 396.564 27.6948C396.939 26.0762 397.313 25.2669 397.875 25.2669C399 25.2669 401.248 25.6716 404.433 26.2785C407.43 26.8855 409.679 27.4925 410.99 27.8971C411.552 28.0994 411.74 28.3018 411.74 28.7064C411.74 28.9087 411.74 29.1111 411.552 29.718C410.428 36.1923 410.053 42.6666 410.053 49.3432ZM395.065 49.7479C395.065 46.9154 394.316 44.4875 392.63 42.6666C390.943 40.8457 388.883 39.8341 386.072 39.8341C383.449 39.8341 381.201 40.8457 379.515 42.6666C377.829 44.4875 377.079 46.9154 377.079 49.7479C377.079 52.378 378.016 54.8059 379.702 56.8291C381.388 58.8523 383.637 59.6616 386.072 59.6616C388.695 59.6616 390.943 58.65 392.63 56.8291C394.128 55.0082 395.065 52.5804 395.065 49.7479Z" fill="white"/>
<path d="M410.053 49.3432C410.053 51.9734 410.241 55.8175 410.428 60.8756C410.615 65.9336 410.803 69.7777 410.803 72.4079C410.803 73.8241 410.241 74.4311 409.117 74.6334C405.182 74.8358 400.873 75.0381 395.815 75.0381C395.252 75.0381 394.878 74.0265 394.69 72.2056C394.503 70.1824 394.316 69.3731 393.941 69.1708C393.754 69.3731 393.379 69.5754 393.004 69.98C389.445 73.8242 385.698 75.6451 381.763 75.6451C375.768 75.6451 370.709 73.0149 366.775 67.9568C363.028 63.1011 361.154 57.4361 361.154 50.5572C361.154 42.8689 363.028 36.597 366.962 31.7412C371.084 26.8855 376.517 24.4576 383.637 24.4576C388.508 24.4576 392.442 26.2785 395.252 29.9203C395.44 30.1227 395.44 30.1227 395.627 30.1227C395.815 30.1227 396.189 29.3134 396.564 27.6948C396.939 26.0762 397.313 25.2669 397.875 25.2669C399 25.2669 401.248 25.6716 404.433 26.2785C407.43 26.8855 409.679 27.4925 410.99 27.8971C411.552 28.0994 411.74 28.3018 411.74 28.7064C411.74 28.9087 411.74 29.1111 411.552 29.718C410.428 36.1923 410.053 42.6666 410.053 49.3432ZM395.065 49.7479C395.065 46.9154 394.316 44.4875 392.63 42.6666C390.943 40.8457 388.883 39.8341 386.072 39.8341C383.449 39.8341 381.201 40.8457 379.515 42.6666C377.829 44.4875 377.079 46.9154 377.079 49.7479C377.079 52.378 378.016 54.8059 379.702 56.8291C381.388 58.8523 383.637 59.6616 386.072 59.6616C388.695 59.6616 390.943 58.65 392.63 56.8291C394.128 55.0082 395.065 52.5804 395.065 49.7479Z" stroke="white" stroke-width="3" stroke-miterlimit="10"/>
<path d="M466.073 19.1974C466.073 19.8044 465.698 20.209 465.136 20.209C464.012 20.209 459.328 20.0067 451.084 19.3997C450.897 27.8972 450.897 33.7646 450.897 37.204C450.897 41.2505 451.084 47.1178 451.272 55.0083C451.646 62.8989 451.646 68.9685 451.646 72.8126C451.646 73.4196 451.459 73.8242 451.272 74.0265C451.272 74.0265 450.71 74.2289 449.96 74.2289C448.087 74.4312 445.276 74.6335 441.717 74.6335C437.782 74.6335 434.972 74.4312 433.286 74.2289C432.349 74.0265 431.974 73.6219 431.974 72.6103C431.974 68.5639 432.162 62.6965 432.349 54.806C432.724 46.9155 432.724 40.8458 432.724 37.0017C432.724 34.3715 432.536 28.5042 432.349 19.3997C426.166 20.0067 421.108 20.4114 417.548 20.4114C416.986 20.4114 416.799 20.209 416.799 20.0067C416.799 19.6021 416.986 18.1858 417.361 16.1626C417.923 13.7348 418.11 12.3185 418.11 11.9139C418.298 10.2953 418.298 8.67671 418.485 7.26047C418.672 4.83261 419.047 3.41637 419.609 3.41637C419.609 3.41637 419.796 3.41637 420.171 3.41637C425.23 4.02334 432.724 4.42798 442.466 4.42798C445.277 4.42798 450.522 4.02334 458.016 3.41637C462.138 3.01173 464.012 3.01172 464.199 3.01172C464.761 3.01172 465.136 3.01172 465.323 3.21404C465.323 3.21404 465.511 3.61868 465.511 4.22564C465.511 5.03493 465.511 6.45118 465.511 8.06975C465.511 9.89065 465.511 11.1046 465.511 11.9139C465.511 12.7231 465.698 13.9371 465.885 15.5557C465.885 17.1742 466.073 18.5905 466.073 19.1974Z" fill="white"/>
<path d="M466.073 19.1974C466.073 19.8044 465.698 20.209 465.136 20.209C464.012 20.209 459.328 20.0067 451.084 19.3997C450.897 27.8972 450.897 33.7646 450.897 37.204C450.897 41.2505 451.084 47.1178 451.272 55.0083C451.646 62.8989 451.646 68.9685 451.646 72.8126C451.646 73.4196 451.459 73.8242 451.272 74.0265C451.272 74.0265 450.71 74.2289 449.96 74.2289C448.087 74.4312 445.276 74.6335 441.717 74.6335C437.782 74.6335 434.972 74.4312 433.286 74.2289C432.349 74.0265 431.974 73.6219 431.974 72.6103C431.974 68.5639 432.162 62.6965 432.349 54.806C432.724 46.9155 432.724 40.8458 432.724 37.0017C432.724 34.3715 432.536 28.5042 432.349 19.3997C426.166 20.0067 421.108 20.4114 417.548 20.4114C416.986 20.4114 416.799 20.209 416.799 20.0067C416.799 19.6021 416.986 18.1858 417.361 16.1626C417.923 13.7348 418.11 12.3185 418.11 11.9139C418.298 10.2953 418.298 8.67672 418.485 7.26047C418.672 4.83261 419.047 3.41637 419.609 3.41637C419.609 3.41637 419.796 3.41637 420.171 3.41637C425.23 4.02334 432.724 4.42798 442.466 4.42798C445.277 4.42798 450.522 4.02334 458.016 3.41637C462.138 3.01173 464.012 3.01172 464.199 3.01172C464.761 3.01172 465.136 3.01172 465.323 3.21404C465.323 3.21404 465.511 3.61868 465.511 4.22564C465.511 5.03493 465.511 6.45118 465.511 8.06975C465.511 9.89065 465.511 11.1046 465.511 11.9139C465.511 12.7231 465.698 13.9371 465.885 15.5557C465.885 17.1742 466.073 18.5905 466.073 19.1974Z" stroke="white" stroke-width="3" stroke-miterlimit="10"/>
<path d="M490.994 37.4061C490.994 41.4525 490.994 47.3199 491.181 55.2104C491.369 63.101 491.369 69.1706 491.369 73.0147C491.369 73.6217 491.181 74.0263 490.994 74.2287C490.994 74.2287 490.619 74.2286 489.87 74.431C487.809 74.6333 485.186 74.8356 481.814 74.8356C477.317 74.8356 474.319 74.6333 473.195 74.431C472.259 74.2286 471.884 73.6217 471.884 72.8124C471.884 73.4194 472.071 70.3845 472.259 63.9103C472.821 50.3547 473.008 41.4526 473.008 37.0015C473.008 33.3597 472.821 28.0993 472.633 20.8157C472.446 13.5322 472.259 8.27181 472.259 4.63002C472.259 3.82073 472.633 3.61841 473.383 3.61841C474.319 3.61841 475.818 3.61841 477.692 3.82073C479.565 3.82073 481.064 4.02305 482.001 4.02305C482.938 4.02305 484.437 4.02305 486.31 3.82073C488.184 3.82073 489.682 3.61841 490.619 3.61841C491.556 3.61841 491.931 4.02305 491.931 4.63002C491.931 8.27181 491.743 13.5322 491.369 20.8157C491.181 28.3016 490.994 33.7643 490.994 37.4061Z" fill="white"/>
<path d="M490.994 37.4061C490.994 41.4526 490.994 47.3199 491.181 55.2104C491.369 63.101 491.369 69.1706 491.369 73.0147C491.369 73.6217 491.181 74.0263 490.994 74.2287C490.994 74.2287 490.619 74.2286 489.87 74.431C487.809 74.6333 485.186 74.8356 481.814 74.8356C477.317 74.8356 474.319 74.6333 473.195 74.431C472.259 74.2286 471.884 73.6217 471.884 72.8124C471.884 73.4194 472.071 70.3845 472.259 63.9103C472.821 50.3547 473.008 41.4526 473.008 37.0015C473.008 33.3597 472.821 28.0993 472.633 20.8157C472.446 13.5322 472.259 8.27181 472.259 4.63002C472.259 3.82073 472.633 3.61841 473.383 3.61841C474.319 3.61841 475.818 3.61841 477.692 3.82073C479.565 3.82073 481.064 4.02305 482.001 4.02305C482.938 4.02305 484.437 4.02305 486.31 3.82073C488.184 3.82073 489.682 3.61841 490.619 3.61841C491.556 3.61841 491.931 4.02305 491.931 4.63002C491.931 8.27181 491.743 13.5322 491.369 20.8157C491.181 28.3016 490.994 33.7643 490.994 37.4061Z" stroke="white" stroke-width="3" stroke-miterlimit="10"/>
<path d="M556 63.1011C556 63.7081 555.626 64.315 555.064 65.1243C549.256 72.4079 541.762 76.252 532.207 76.252C522.464 76.252 514.595 72.6102 508.6 65.5289C502.792 58.65 499.794 49.9502 499.794 39.2271C499.794 29.1111 502.605 20.4113 508.413 13.1277C514.408 5.64179 522.089 2 531.27 2C541.387 2 549.256 5.43946 555.064 12.1161C555.626 12.9254 556 13.5323 556 14.1393C556 14.7463 554.876 17.1741 552.815 21.2205C550.567 25.267 549.256 27.6948 548.694 28.0995C548.506 28.3018 548.132 28.5041 547.757 28.5041C547.569 28.5041 546.82 27.8971 545.509 26.4809C543.822 24.8623 542.136 23.6484 540.637 22.6368C538.202 21.2205 535.579 20.6136 532.956 20.6136C528.459 20.6136 524.712 22.4345 521.902 26.0763C519.467 29.5157 518.155 33.7645 518.155 38.8225C518.155 43.8806 519.467 48.1293 521.902 51.7711C524.712 55.6152 528.272 57.4361 532.956 57.4361C535.579 57.4361 538.202 56.8291 540.637 55.6152C542.136 54.8059 543.822 53.592 545.509 52.1757C546.82 50.9618 547.569 50.3548 547.757 50.3548C548.132 50.3548 548.319 50.5572 548.694 50.9618C549.256 51.5688 550.567 53.592 552.815 57.2338C554.689 60.8755 556 62.8988 556 63.1011Z" fill="white"/>
<path d="M556 63.1011C556 63.7081 555.626 64.315 555.064 65.1243C549.256 72.4079 541.762 76.252 532.207 76.252C522.464 76.252 514.595 72.6102 508.6 65.5289C502.792 58.65 499.794 49.9502 499.794 39.2272C499.794 29.1111 502.605 20.4113 508.413 13.1277C514.408 5.64179 522.089 2 531.27 2C541.387 2 549.256 5.43946 555.064 12.1161C555.626 12.9254 556 13.5323 556 14.1393C556 14.7463 554.876 17.1741 552.815 21.2205C550.567 25.267 549.256 27.6948 548.694 28.0995C548.506 28.3018 548.132 28.5041 547.757 28.5041C547.569 28.5041 546.82 27.8971 545.509 26.4809C543.822 24.8623 542.136 23.6484 540.637 22.6368C538.202 21.2205 535.579 20.6136 532.956 20.6136C528.459 20.6136 524.712 22.4345 521.902 26.0763C519.467 29.5157 518.155 33.7645 518.155 38.8225C518.155 43.8806 519.467 48.1293 521.902 51.7711C524.712 55.6152 528.272 57.4361 532.956 57.4361C535.579 57.4361 538.202 56.8291 540.637 55.6152C542.136 54.8059 543.822 53.592 545.509 52.1757C546.82 50.9618 547.569 50.3548 547.757 50.3548C548.132 50.3548 548.319 50.5572 548.694 50.9618C549.256 51.5688 550.567 53.592 552.815 57.2338C554.689 60.8756 556 62.8988 556 63.1011Z" stroke="white" stroke-width="3" stroke-miterlimit="10"/>
</svg>
