<svg xmlns="http://www.w3.org/2000/svg" xmlns:xlink="http://www.w3.org/1999/xlink" viewBox="0 0 407.27 171.99"><defs><style>.cls-1{fill:none;}.cls-2{clip-path:url(#clip-path);}.cls-3{fill:#fff;}.cls-4{clip-path:url(#clip-path-2);}.cls-5{opacity:0.8;}.cls-6{clip-path:url(#clip-path-3);}.cls-7{clip-path:url(#clip-path-4);}.cls-8{clip-path:url(#clip-path-5);}.cls-9{clip-path:url(#clip-path-6);}.cls-10{clip-path:url(#clip-path-7);}.cls-11{clip-path:url(#clip-path-8);}.cls-12{clip-path:url(#clip-path-9);}.cls-13{clip-path:url(#clip-path-10);}.cls-14{clip-path:url(#clip-path-11);}.cls-15{clip-path:url(#clip-path-12);}.cls-16{clip-path:url(#clip-path-13);}.cls-17{clip-path:url(#clip-path-14);}.cls-18{opacity:0.5;}.cls-19{clip-path:url(#clip-path-15);}.cls-20{clip-path:url(#clip-path-16);}.cls-21{clip-path:url(#clip-path-17);}.cls-22{clip-path:url(#clip-path-18);}.cls-23{fill:#fe6462;}.cls-24{fill:#2096ff;}.cls-25{fill:#18eadf;}.cls-26{clip-path:url(#clip-path-29);}.cls-27{fill:#3cf;}.cls-28{opacity:0.4;}.cls-29{clip-path:url(#clip-path-32);}.cls-30{fill:#29b473;}.cls-31{fill:#2aac81;}.cls-32{fill:#e7dc48;}</style><clipPath id="clip-path"><rect class="cls-1" x="114.19" y="52.41" width="50.88" height="50.88"/></clipPath><clipPath id="clip-path-2"><rect class="cls-1" x="219.09" y="45.02" width="71.6" height="71.6"/></clipPath><clipPath id="clip-path-3"><rect class="cls-1" x="132.89" y="65.88" width="27.6" height="27.6"/></clipPath><clipPath id="clip-path-4"><rect class="cls-1" x="163.89" y="55.34" width="57.2" height="57.2"/></clipPath><clipPath id="clip-path-5"><rect class="cls-1" x="98.38" y="69.84" width="26.29" height="26.29"/></clipPath><clipPath id="clip-path-6"><rect class="cls-1" x="276.59" y="70.75" width="27.6" height="27.6"/></clipPath><clipPath id="clip-path-7"><rect class="cls-1" x="201.28" y="30.74" width="50.76" height="50.76"/></clipPath><clipPath id="clip-path-8"><rect class="cls-1" x="114.79" y="16.7" width="6.68" height="6.68"/></clipPath><clipPath id="clip-path-9"><rect class="cls-1" x="272.86" y="33.62" width="7.47" height="7.47"/></clipPath><clipPath id="clip-path-10"><rect class="cls-1" x="188.75" width="7.47" height="7.47"/></clipPath><clipPath id="clip-path-11"><rect class="cls-1" x="295.62" y="79.15" width="19.71" height="19.71"/></clipPath><clipPath id="clip-path-12"><rect class="cls-1" x="94.96" y="74.73" width="9.9" height="9.9"/></clipPath><clipPath id="clip-path-13"><rect class="cls-1" x="172.93" y="57.93" width="20.39" height="20.39"/></clipPath><clipPath id="clip-path-14"><rect class="cls-1" x="91.94" y="60.97" width="5.23" height="5.23"/></clipPath><clipPath id="clip-path-15"><rect class="cls-1" x="173.8" y="67.2" width="27.25" height="27.25"/></clipPath><clipPath id="clip-path-16"><rect class="cls-1" x="243.94" y="16.77" width="6.55" height="6.55"/></clipPath><clipPath id="clip-path-17"><rect class="cls-1" x="195.84" y="41.31" width="24.42" height="24.42"/></clipPath><clipPath id="clip-path-18"><rect class="cls-1" x="177.64" y="20.88" width="11.93" height="11.93"/></clipPath><clipPath id="clip-path-29"><rect class="cls-1" x="134.08" y="68.12" width="44.3" height="44.3"/></clipPath><clipPath id="clip-path-32"><rect class="cls-1" x="178.49" y="42.49" width="59.13" height="59.13"/></clipPath></defs><title>MticNwLgo</title><g id="Layer_2" data-name="Layer 2"><g id="Layer_6" data-name="Layer 6"><g class="cls-2"><rect class="cls-3" x="119.86" y="58.08" width="39.54" height="39.54" transform="translate(-18.41 53.78) rotate(-20.48)"/></g><g class="cls-4"><rect class="cls-3" x="224.32" y="50.25" width="61.16" height="61.16" transform="translate(127.4 315.87) rotate(-79.12)"/></g><g class="cls-5"><g class="cls-6"><rect class="cls-3" x="136.26" y="69.24" width="20.87" height="20.87" transform="translate(-19.79 67.41) rotate(-24.29)"/></g></g><g class="cls-7"><rect class="cls-3" x="170.26" y="61.71" width="44.45" height="44.45" transform="translate(-17.2 72.66) rotate(-20.48)"/></g><g class="cls-8"><rect class="cls-3" x="101.1" y="72.55" width="20.87" height="20.87" transform="translate(-1.82 163.46) rotate(-72.03)"/></g><g class="cls-9"><rect class="cls-3" x="279.96" y="74.12" width="20.87" height="20.87" transform="translate(-9.07 126.96) rotate(-24.29)"/></g><g class="cls-10"><rect class="cls-3" x="206.51" y="35.98" width="40.29" height="40.29" transform="translate(103.33 254.4) rotate(-72.03)"/></g><g class="cls-11"><rect class="cls-3" x="115.15" y="17.07" width="5.95" height="5.95" transform="translate(-1.61 15.73) rotate(-7.57)"/></g><g class="cls-12"><rect class="cls-3" x="273.61" y="34.38" width="5.95" height="5.95" transform="translate(157.77 289.9) rotate(-72.49)"/></g><g class="cls-13"><rect class="cls-3" x="189.51" y="0.76" width="5.95" height="5.95" transform="translate(131.02 186.18) rotate(-72.49)"/></g><g class="cls-14"><rect class="cls-3" x="298.06" y="81.58" width="14.84" height="14.84" transform="translate(96.02 328.51) rotate(-65.07)"/></g><g class="cls-15"><rect class="cls-3" x="95.59" y="75.36" width="8.65" height="8.65" transform="translate(-11.27 16.67) rotate(-9.03)"/></g><g class="cls-16"><rect class="cls-3" x="174.66" y="59.67" width="16.91" height="16.91" transform="translate(74.19 230.31) rotate(-76.52)"/></g><g class="cls-17"><rect class="cls-3" x="92.59" y="61.62" width="3.94" height="3.94" transform="translate(-17.98 45.68) rotate(-24.88)"/></g><g class="cls-18"><g class="cls-19"><rect class="cls-3" x="174.85" y="68.26" width="25.13" height="25.13" transform="matrix(0.09, -1, 1, 0.09, 90.41, 260.4)"/></g></g><g class="cls-20"><rect class="cls-3" x="244.7" y="17.53" width="5.03" height="5.03" transform="translate(10.53 94.2) rotate(-22.03)"/></g><g class="cls-21"><rect class="cls-3" x="197.62" y="43.08" width="20.87" height="20.87" transform="translate(116.36 247.79) rotate(-79.16)"/></g><g class="cls-22"><rect class="cls-3" x="179.03" y="22.26" width="9.16" height="9.16" transform="translate(3.34 70.84) rotate(-22.03)"/></g><g class="cls-5"><g class="cls-2"><rect class="cls-23" x="119.86" y="58.08" width="39.54" height="39.54" transform="translate(-18.41 53.78) rotate(-20.48)"/></g></g><g class="cls-5"><g class="cls-4"><rect class="cls-23" x="224.32" y="50.25" width="61.16" height="61.16" transform="translate(127.4 315.87) rotate(-79.12)"/></g></g><g class="cls-5"><g class="cls-6"><rect class="cls-24" x="136.26" y="69.24" width="20.87" height="20.87" transform="translate(-19.79 67.41) rotate(-24.29)"/></g></g><g class="cls-5"><g class="cls-7"><rect class="cls-24" x="170.26" y="61.71" width="44.45" height="44.45" transform="translate(-17.2 72.66) rotate(-20.48)"/></g></g><g class="cls-5"><g class="cls-8"><rect class="cls-24" x="101.1" y="72.55" width="20.87" height="20.87" transform="translate(-1.82 163.46) rotate(-72.03)"/></g></g><g class="cls-5"><g class="cls-9"><rect class="cls-24" x="279.96" y="74.12" width="20.87" height="20.87" transform="translate(-9.07 126.96) rotate(-24.29)"/></g></g><g class="cls-5"><g class="cls-10"><rect class="cls-24" x="206.51" y="35.98" width="40.29" height="40.29" transform="translate(103.33 254.4) rotate(-72.03)"/></g></g><g class="cls-18"><g class="cls-11"><rect class="cls-25" x="115.15" y="17.07" width="5.95" height="5.95" transform="translate(-1.61 15.73) rotate(-7.57)"/></g></g><g class="cls-18"><g class="cls-12"><rect class="cls-24" x="273.61" y="34.38" width="5.95" height="5.95" transform="translate(157.77 289.9) rotate(-72.49)"/></g></g><g class="cls-18"><g class="cls-13"><rect class="cls-24" x="189.51" y="0.76" width="5.95" height="5.95" transform="translate(131.02 186.18) rotate(-72.49)"/></g></g><g class="cls-5"><g class="cls-26"><rect class="cls-3" x="136.87" y="70.92" width="38.7" height="38.7" transform="translate(-12.23 25.64) rotate(-9.03)"/></g></g><g class="cls-5"><g class="cls-14"><rect class="cls-27" x="298.06" y="81.58" width="14.84" height="14.84" transform="translate(96.02 328.51) rotate(-65.07)"/></g></g><g class="cls-28"><g class="cls-15"><rect class="cls-27" x="95.59" y="75.36" width="8.65" height="8.65" transform="translate(-11.27 16.67) rotate(-9.03)"/></g></g><g class="cls-5"><g class="cls-29"><rect class="cls-3" x="179.32" y="43.33" width="57.46" height="57.46" transform="translate(129.91 277.9) rotate(-88.32)"/></g></g><g class="cls-18"><g class="cls-16"><rect class="cls-25" x="174.66" y="59.67" width="16.91" height="16.91" transform="translate(74.19 230.31) rotate(-76.52)"/></g></g><g class="cls-18"><g class="cls-17"><rect class="cls-23" x="92.59" y="61.62" width="3.94" height="3.94" transform="translate(-17.98 45.68) rotate(-24.88)"/></g></g><g class="cls-18"><g class="cls-19"><rect class="cls-23" x="174.85" y="68.26" width="25.13" height="25.13" transform="matrix(0.09, -1, 1, 0.09, 90.41, 260.4)"/></g></g><g class="cls-18"><g class="cls-20"><rect class="cls-25" x="244.7" y="17.53" width="5.03" height="5.03" transform="translate(10.53 94.2) rotate(-22.03)"/></g></g><g class="cls-5"><g class="cls-21"><rect class="cls-27" x="197.62" y="43.08" width="20.87" height="20.87" transform="translate(116.36 247.79) rotate(-79.16)"/></g></g><g class="cls-18"><g class="cls-22"><rect class="cls-23" x="179.03" y="22.26" width="9.16" height="9.16" transform="translate(3.34 70.84) rotate(-22.03)"/></g></g><path class="cls-30" d="M407.06,92.55a2,2,0,0,0-1.75-2.84H2A2,2,0,0,0,.21,92.55l14,27.65a2,2,0,0,1,0,1.77l-14,27.65A2,2,0,0,0,2,152.45H405.31a2,2,0,0,0,1.75-2.84l-14-27.65a2,2,0,0,1,0-1.77Z"/><path class="cls-31" d="M393.19,122.2a2,2,0,0,0-1.82-1.12H15.9a2,2,0,0,0-1.82,1.12L.27,149.5a2,2,0,0,0,1.82,3H405.18a2,2,0,0,0,1.82-3Z"/><path class="cls-3" d="M85.08,138.25q0,.83-.77.83H74.87q-.77,0-.77-.93,0-2.69.2-8.08t.2-8.08q0-.77-.24-.83-.29.16-3.57,8.24-1.92,4.74-3.84,9.46a1.12,1.12,0,0,1-.67.72,10.63,10.63,0,0,1-1.07,0q-1.39,0-1.65-.53-1.44-2.93-3.78-8.53-2.51-5.92-3.76-8.56a.84.84,0,0,0-.24-.29,1.26,1.26,0,0,0-.19.77q0,2.61.13,7.84t.13,7.84q0,.93-.75.93h-8.9q-.53,0-.65-.17a1.1,1.1,0,0,1-.12-.6q0-2.91.28-8.73t.28-8.73q0-3.09-.27-11.59,0-2.21-.24-6.58l0-.45q0-.53,1.12-.53,1.47,0,4.4-.09t4.4-.09q.29,0,.83,1.12l7.78,17.08q.83,1.73,1.39,1.73.29,0,1.25-2,2.69-5.6,8-16.87c.3-.69.63-1,1-1q.77,0,2.33.08t2.36.08c.44,0,1.12,0,2-.13s1.6-.13,2-.13.8.21.8.64q0,3.14-.23,9.4t-.23,9.39q0,2.91.24,8.72t.24,8.69"/><path class="cls-3" d="M117.19,125.75q0,2.05.24,6.1t.24,6.08q0,1.07-.93,1.15-3.3.24-7.57.24-.51,0-.68-1.53c-.12-1-.25-1.54-.41-1.56a2.48,2.48,0,0,0-.56.45,8.93,8.93,0,0,1-6.4,3,10.73,10.73,0,0,1-8.61-4.1,13.79,13.79,0,0,1-3.23-9.17q0-6.16,3.33-9.92a12.05,12.05,0,0,1,9.49-3.89,8.13,8.13,0,0,1,6.61,2.93c.07.09.13.13.19.13s.34-.43.55-1.29.45-1.29.73-1.29a23.36,23.36,0,0,1,3.76.56,37.88,37.88,0,0,1,3.78.91c.27.11.4.25.4.43a5,5,0,0,1-.08.56,58.5,58.5,0,0,0-.85,10.21m-8.58.16a5.19,5.19,0,0,0-1.43-3.75,5.41,5.41,0,0,0-7.42,0,5.19,5.19,0,0,0-1.41,3.76,5.14,5.14,0,0,0,1.49,3.7,4.85,4.85,0,0,0,3.63,1.55,5,5,0,0,0,3.71-1.48,5.18,5.18,0,0,0,1.44-3.77"/><path class="cls-3" d="M140.87,131.26a21.86,21.86,0,0,1-.2,2.43,21.78,21.78,0,0,0-.2,2.39,1.88,1.88,0,0,1-.16,1,3.23,3.23,0,0,1-.88.61,15.53,15.53,0,0,1-7.62,1.89q-7.7,0-7.7-5.89,0-1.76.13-5.29t.13-5.29q0-1.17-1.36-1.17h-.35l-.35,0q-1,0-1-.72,0-.43.07-1.31t.07-1.31q0-.56-.07-1.71t-.07-1.71q0-.53,1.71-.59,1,0,1-.53a19.51,19.51,0,0,0,.11-3.2q-.11-3.44-.11-3.28,0-3.09.59-3.09a9.53,9.53,0,0,1,2.05.32,18.91,18.91,0,0,0,2.11.4q1.36.19,4.1.51c.45,0,.67.19.67.45q0,1.07-.17,3.22t-.17,3.25q0,1.31.77,1.31.93,0,2.82-.08t2.85-.08c.39,0,.59.13.59.4a18.4,18.4,0,0,1-.13,1.84q-.13,1.23-.13,1.84c0,.43,0,1,0,1.87s0,1.44,0,1.87-.26.56-.77.56l-1.79,0-1.79,0h-2q-.4,0-.4,1.17v1.89q0,1.28,0,1.89a6.59,6.59,0,0,0,.51,3.09,3.08,3.08,0,0,0,2.83,1.15,8.61,8.61,0,0,0,1.91-.31,8.61,8.61,0,0,1,1.75-.31q.56,0,.56.59"/><path class="cls-3" d="M170.82,119.75l-.05,18.39q0,.93-.75,1t-3.89.11a26.25,26.25,0,0,1-4.08-.21,1,1,0,0,1-.88-1.15q0-2.3.08-6.9t.08-6.9q0-3.12-3.17-3.12a5.11,5.11,0,0,0-2.51.85q-1.57.93-1.57,1.95v6.58q0,1.28.05,3.85t.05,3.85q0,1-.83,1.09t-4.64.11a16.38,16.38,0,0,1-3.15-.21c-.64-.14-1-.45-1-.93q0-2.1,0-6.33t0-6.33q0-8.72-.19-14.42-.08-2-.13-4a27.29,27.29,0,0,0-.48-4,2.53,2.53,0,0,1-.08-.51.52.52,0,0,1,.4-.53,10.58,10.58,0,0,1,2.43-.29q2.13-.08,2.48-.13l4.82-.56c.28,0,.43.19.43.56q0,.85-.11,2.32-.11,1.71-.11,2.32-.16,6-.16,9.52,0,.53.27.53s.49-.31,1.36-.93a18.13,18.13,0,0,1,3-1.73,10,10,0,0,1,4.08-.93,9,9,0,0,1,5.7,1.79,6.28,6.28,0,0,1,2.48,5.25"/><path class="cls-3" d="M200.12,124.6q0,2.69-1.73,3.06-.29.05-5.52.59-3.15.35-9.38.83a3.77,3.77,0,0,0,2.26,2.64,8,8,0,0,0,3.52.75,10.08,10.08,0,0,0,4.77-1.28l2-1.28a8,8,0,0,1,1.88,2.72,10,10,0,0,1,1.32,3.12q0,.19-.4.61-3.25,3.49-10.1,3.49a14.23,14.23,0,0,1-10.24-3.7,13.14,13.14,0,0,1-4-10,14.34,14.34,0,0,1,3.57-10,12.54,12.54,0,0,1,9.76-4.05,11.58,11.58,0,0,1,8.69,3.73,12.4,12.4,0,0,1,3.57,8.88M190.79,123a4.13,4.13,0,0,0-1.17-2.9,3.7,3.7,0,0,0-2.8-1.25,3.36,3.36,0,0,0-2.77,1.41,4.86,4.86,0,0,0-1,3.06q0,.72.75.72a46.67,46.67,0,0,0,6.13-.61c.59-.09.88-.23.88-.43"/><path class="cls-3" d="M246.19,138.09c0,.62-.27,1-.8,1s-1.85.11-3.94.11a29.24,29.24,0,0,1-4.05-.16c-.53-.11-.8-.54-.8-1.31s0-2,.08-3.67.08-2.85.08-3.66q0-4.66-.11-6.64-.16-3.17-3-3.17a3.85,3.85,0,0,0-2.49,1.05,3.55,3.55,0,0,0-1.37,2.33q-.11,1.12-.11,6.56,0,1.25.08,3.8t.08,3.82q0,.88-.77.88H221q-.75,0-.75-1.09,0-1.25.08-3.76t.08-3.78q0-1-.05-3t-.05-3q0-3.81-2.91-3.81a4.64,4.64,0,0,0-2.53.91q-1.49,1-1.49,2.08,0,2.43,0,7.25t0,7.22a1.33,1.33,0,0,1-.16.83,1.51,1.51,0,0,1-.83.21q-1.2.11-3.79.11-1.68,0-3.81-.16a1.4,1.4,0,0,1-.76-.19,1.52,1.52,0,0,1-.12-.8q0-2.13,0-6.38t0-6.38a85.28,85.28,0,0,0-.64-9.83,3.24,3.24,0,0,1-.05-.48.6.6,0,0,1,.37-.61,9.11,9.11,0,0,1,2.21-.4q2-.19,2.37-.24t2.11-.56a8.1,8.1,0,0,1,2.11-.37q.51,0,.53,1.85t.21,1.85a2.67,2.67,0,0,0,.61-.37,25.16,25.16,0,0,1,3.79-2.56,10.15,10.15,0,0,1,4.45-1,8.67,8.67,0,0,1,4.37,1.09,5.67,5.67,0,0,1,2.8,3.44,11.22,11.22,0,0,1,3.89-3.23A10.32,10.32,0,0,1,238,112.6a9.43,9.43,0,0,1,5.73,1.63,6.12,6.12,0,0,1,2.51,5.25q0,1.41-.08,4.25T246,128q0,1.68.08,5.05t.08,5.05"/><path class="cls-3" d="M278.59,125.75q0,2.05.24,6.1t.24,6.08q0,1.07-.93,1.15-3.3.24-7.57.24c-.34,0-.56-.51-.68-1.53s-.25-1.54-.41-1.56a2.49,2.49,0,0,0-.56.45,8.93,8.93,0,0,1-6.4,3,10.72,10.72,0,0,1-8.61-4.1,13.79,13.79,0,0,1-3.23-9.17q0-6.16,3.33-9.92a12.05,12.05,0,0,1,9.49-3.89,8.12,8.12,0,0,1,6.61,2.93c.07.09.13.13.19.13s.34-.43.55-1.29.45-1.29.73-1.29a23.35,23.35,0,0,1,3.76.56,37.84,37.84,0,0,1,3.78.91c.27.11.4.25.4.43a4.41,4.41,0,0,1-.08.56,58.64,58.64,0,0,0-.85,10.21m-8.58.16a5.19,5.19,0,0,0-1.43-3.75,5.41,5.41,0,0,0-7.42,0,5.2,5.2,0,0,0-1.41,3.76,5.14,5.14,0,0,0,1.49,3.7,4.85,4.85,0,0,0,3.63,1.55,4.94,4.94,0,0,0,3.7-1.48,5.18,5.18,0,0,0,1.44-3.77"/><path class="cls-3" d="M310.59,109.83q0,.53-.59.53-1,0-8-.4-.16,6.74-.16,9.41,0,3.15.25,9.46t.25,9.46q0,.51-.24.64a3.2,3.2,0,0,1-.75.13,38.54,38.54,0,0,1-4.69.21,37,37,0,0,1-4.82-.21.78.78,0,0,1-.75-.83q0-3.14.27-9.44t.27-9.44q0-2.08-.21-9.28-5.33.53-8.5.53-.43,0-.43-.27a15.47,15.47,0,0,1,.37-2.05q.43-1.86.48-2.27.08-1.25.19-2.5.19-2,.64-2l.37,0a107.4,107.4,0,0,0,12.77.56q2.4,0,8.85-.51l3.49-.27a1.49,1.49,0,0,1,.61.07q.08.07.11.52,0,.72-.05,2t-.05,2a16,16,0,0,0,.17,2,16.07,16.07,0,0,1,.17,1.93"/><path class="cls-3" d="M324.81,119.37q0,3.15.16,9.46t.16,9.46q0,.53-.24.67a5.74,5.74,0,0,1-.69.11,40,40,0,0,1-4.64.21,34.1,34.1,0,0,1-5-.21c-.52-.11-.77-.38-.77-.83q0,.43.24-4.69.48-10.8.48-14.18,0-2.85-.19-8.56t-.19-8.56c0-.39.2-.59.61-.59s1.38,0,2.49.08,1.94.08,2.49.08,1.36,0,2.44-.08,1.89-.08,2.44-.08.77.2.77.59q0,2.85-.31,8.56t-.31,8.56"/><path class="cls-3" d="M361.93,133a2,2,0,0,1-.56,1.12,16.17,16.17,0,0,1-13,5.84,17.39,17.39,0,0,1-13.49-5.68,19.72,19.72,0,0,1-5-13.86,20.2,20.2,0,0,1,4.93-13.75,16.58,16.58,0,0,1,13.09-5.92q8.64,0,13.54,5.3a1.66,1.66,0,0,1,.53,1A16.73,16.73,0,0,1,360,110.9a21.64,21.64,0,0,1-2.33,3.65.72.72,0,0,1-.53.21,7.11,7.11,0,0,1-1.33-1.07,14,14,0,0,0-2.83-2,9.56,9.56,0,0,0-4.37-1.07,7.61,7.61,0,0,0-6.26,2.93,10.47,10.47,0,0,0-2.16,6.72,10.66,10.66,0,0,0,2.16,6.8,7.56,7.56,0,0,0,6.26,3,9.92,9.92,0,0,0,4.4-1,13.58,13.58,0,0,0,2.77-1.87,6.77,6.77,0,0,1,1.31-1,.74.74,0,0,1,.53.29q.43.48,2.32,3.33a19.57,19.57,0,0,1,1.95,3.25"/><polyline class="cls-32" points="95.71 152.46 202.57 171.99 309.43 152.46"/></g></g></svg>