<svg xmlns="http://www.w3.org/2000/svg" xmlns:xlink="http://www.w3.org/1999/xlink" viewBox="0 0 176.77 74.65"><defs><style>.cls-1,.cls-33{fill:none;}.cls-2{opacity:0.8;}.cls-3{clip-path:url(#clip-path);}.cls-4{fill:#fe6462;}.cls-5{clip-path:url(#clip-path-2);}.cls-6{clip-path:url(#clip-path-3);}.cls-7{fill:#2096ff;}.cls-8{clip-path:url(#clip-path-4);}.cls-9{clip-path:url(#clip-path-5);}.cls-10{clip-path:url(#clip-path-6);}.cls-11{clip-path:url(#clip-path-7);}.cls-12{opacity:0.5;}.cls-13{clip-path:url(#clip-path-8);}.cls-14{fill:#18eadf;}.cls-15{clip-path:url(#clip-path-9);}.cls-16{clip-path:url(#clip-path-10);}.cls-17{clip-path:url(#clip-path-11);}.cls-18{fill:#fff;}.cls-19{clip-path:url(#clip-path-12);}.cls-20{fill:#3cf;}.cls-21{opacity:0.4;}.cls-22{clip-path:url(#clip-path-13);}.cls-23{clip-path:url(#clip-path-14);}.cls-24{clip-path:url(#clip-path-15);}.cls-25{clip-path:url(#clip-path-16);}.cls-26{clip-path:url(#clip-path-17);}.cls-27{clip-path:url(#clip-path-18);}.cls-28{clip-path:url(#clip-path-19);}.cls-29{clip-path:url(#clip-path-20);}.cls-30{fill:#29b473;}.cls-31{fill:#2aac81;}.cls-32{fill:#5ebe89;}.cls-33{stroke:#fff;stroke-miterlimit:10;stroke-width:0.41px;}.cls-34{fill:#e7dc48;}</style><clipPath id="clip-path"><rect class="cls-1" x="49.56" y="22.75" width="22.08" height="22.08"/></clipPath><clipPath id="clip-path-2"><rect class="cls-1" x="95.09" y="19.54" width="31.08" height="31.08"/></clipPath><clipPath id="clip-path-3"><rect class="cls-1" x="57.68" y="28.59" width="11.98" height="11.98"/></clipPath><clipPath id="clip-path-4"><rect class="cls-1" x="71.13" y="24.02" width="24.83" height="24.83"/></clipPath><clipPath id="clip-path-5"><rect class="cls-1" x="42.7" y="30.32" width="11.41" height="11.41"/></clipPath><clipPath id="clip-path-6"><rect class="cls-1" x="120.05" y="30.71" width="11.98" height="11.98"/></clipPath><clipPath id="clip-path-7"><rect class="cls-1" x="87.36" y="13.34" width="22.03" height="22.03"/></clipPath><clipPath id="clip-path-8"><rect class="cls-1" x="49.82" y="7.25" width="2.9" height="2.9"/></clipPath><clipPath id="clip-path-9"><rect class="cls-1" x="118.43" y="14.59" width="3.24" height="3.24"/></clipPath><clipPath id="clip-path-10"><rect class="cls-1" x="81.93" width="3.24" height="3.24"/></clipPath><clipPath id="clip-path-11"><rect class="cls-1" x="58.19" y="29.57" width="19.23" height="19.23"/></clipPath><clipPath id="clip-path-12"><rect class="cls-1" x="128.31" y="34.35" width="8.55" height="8.55"/></clipPath><clipPath id="clip-path-13"><rect class="cls-1" x="41.22" y="32.44" width="4.3" height="4.3"/></clipPath><clipPath id="clip-path-14"><rect class="cls-1" x="77.47" y="18.44" width="25.66" height="25.66"/></clipPath><clipPath id="clip-path-15"><rect class="cls-1" x="75.06" y="25.14" width="8.85" height="8.85"/></clipPath><clipPath id="clip-path-16"><rect class="cls-1" x="39.91" y="26.46" width="2.27" height="2.27"/></clipPath><clipPath id="clip-path-17"><rect class="cls-1" x="75.43" y="29.17" width="11.83" height="11.83"/></clipPath><clipPath id="clip-path-18"><rect class="cls-1" x="105.88" y="7.28" width="2.84" height="2.84"/></clipPath><clipPath id="clip-path-19"><rect class="cls-1" x="85" y="17.93" width="10.6" height="10.6"/></clipPath><clipPath id="clip-path-20"><rect class="cls-1" x="77.1" y="9.06" width="5.18" height="5.18"/></clipPath></defs><title>MTIC_Logo</title><g id="Layer_2" data-name="Layer 2"><g id="Layer_1-2" data-name="Layer 1"><g class="cls-2"><g class="cls-3"><rect class="cls-4" x="52.02" y="25.21" width="17.16" height="17.16" transform="translate(-7.99 23.34) rotate(-20.48)"/></g></g><g class="cls-2"><g class="cls-5"><rect class="cls-4" x="97.36" y="21.81" width="26.54" height="26.54" transform="matrix(0.19, -0.98, 0.98, 0.19, 55.3, 137.1)"/></g></g><g class="cls-2"><g class="cls-6"><rect class="cls-7" x="59.14" y="30.05" width="9.06" height="9.06" transform="translate(-8.59 29.26) rotate(-24.29)"/></g></g><g class="cls-2"><g class="cls-8"><rect class="cls-7" x="73.9" y="26.79" width="19.29" height="19.29" transform="translate(-7.47 31.54) rotate(-20.48)"/></g></g><g class="cls-2"><g class="cls-9"><rect class="cls-7" x="43.88" y="31.49" width="9.06" height="9.06" transform="translate(-0.79 70.95) rotate(-72.03)"/></g></g><g class="cls-2"><g class="cls-10"><rect class="cls-7" x="121.51" y="32.17" width="9.06" height="9.06" transform="translate(-3.94 55.1) rotate(-24.29)"/></g></g><g class="cls-2"><g class="cls-11"><rect class="cls-7" x="89.63" y="15.61" width="17.49" height="17.49" transform="translate(44.85 110.42) rotate(-72.03)"/></g></g><g class="cls-12"><g class="cls-13"><rect class="cls-14" x="49.98" y="7.41" width="2.58" height="2.58" transform="translate(-0.7 6.83) rotate(-7.57)"/></g></g><g class="cls-12"><g class="cls-15"><rect class="cls-7" x="118.76" y="14.92" width="2.58" height="2.58" transform="translate(68.48 125.83) rotate(-72.49)"/></g></g><g class="cls-12"><g class="cls-16"><rect class="cls-7" x="82.25" y="0.33" width="2.58" height="2.58" transform="translate(56.87 80.81) rotate(-72.49)"/></g></g><g class="cls-2"><g class="cls-17"><rect class="cls-18" x="59.41" y="30.78" width="16.8" height="16.8" transform="translate(-5.31 11.13) rotate(-9.03)"/></g></g><g class="cls-2"><g class="cls-19"><rect class="cls-20" x="129.37" y="35.41" width="6.44" height="6.44" transform="translate(41.68 142.59) rotate(-65.07)"/></g></g><g class="cls-21"><g class="cls-22"><rect class="cls-20" x="41.49" y="32.71" width="3.75" height="3.75" transform="matrix(0.99, -0.16, 0.16, 0.99, -4.89, 7.24)"/></g></g><g class="cls-2"><g class="cls-23"><rect class="cls-18" x="77.83" y="18.8" width="24.94" height="24.94" transform="translate(56.39 120.62) rotate(-88.32)"/></g></g><g class="cls-12"><g class="cls-24"><rect class="cls-14" x="75.81" y="25.9" width="7.34" height="7.34" transform="translate(32.2 99.97) rotate(-76.52)"/></g></g><g class="cls-12"><g class="cls-25"><rect class="cls-4" x="40.19" y="26.74" width="1.71" height="1.71" transform="translate(-7.8 19.83) rotate(-24.88)"/></g></g><g class="cls-12"><g class="cls-26"><rect class="cls-4" x="75.89" y="29.63" width="10.91" height="10.91" transform="translate(39.24 113.02) rotate(-84.95)"/></g></g><g class="cls-12"><g class="cls-27"><rect class="cls-14" x="106.21" y="7.61" width="2.18" height="2.18" transform="translate(4.57 40.88) rotate(-22.03)"/></g></g><g class="cls-2"><g class="cls-28"><rect class="cls-20" x="85.77" y="18.7" width="9.06" height="9.06" transform="translate(50.51 107.55) rotate(-79.16)"/></g></g><g class="cls-12"><g class="cls-29"><rect class="cls-4" x="77.7" y="9.66" width="3.98" height="3.98" transform="translate(1.45 30.75) rotate(-22.03)"/></g></g><path class="cls-30" d="M176.68,40.17a.85.85,0,0,0-.76-1.23H.85a.85.85,0,0,0-.76,1.23l6.07,12a.81.81,0,0,1,0,.77l-6.07,12a.85.85,0,0,0,.76,1.23H175.92a.85.85,0,0,0,.76-1.23l-6.07-12a.81.81,0,0,1,0-.77Z"/><path class="cls-31" d="M170.66,53a.88.88,0,0,0-.79-.48H6.9a.88.88,0,0,0-.79.48l-6,11.85a.88.88,0,0,0,.79,1.28h175a.88.88,0,0,0,.79-1.28Z"/><path class="cls-32" d="M36.93,60c0,.24-.11.36-.34.36H32.5c-.23,0-.34-.13-.34-.4q0-1.17.09-3.51c.06-1.56.09-2.72.09-3.5,0-.23,0-.35-.11-.36a34.48,34.48,0,0,0-1.55,3.57c-.55,1.38-1.11,2.75-1.66,4.11a.5.5,0,0,1-.29.31h-.47c-.4,0-.64-.07-.71-.23-.42-.85-1-2.08-1.65-3.7S24.63,53.71,24.27,53a.35.35,0,0,0-.1-.13.52.52,0,0,0-.08.34c0,.75,0,1.89.06,3.4s.05,2.64.05,3.4c0,.27-.11.4-.32.4H20c-.15,0-.24,0-.28-.07a.54.54,0,0,1-.05-.26c0-.84,0-2.11.12-3.79s.12-3,.12-3.79,0-2.57-.11-5c0-.64,0-1.6-.11-2.86v-.2c0-.15.16-.23.49-.23s1.06,0,1.91,0,1.48,0,1.9,0c.09,0,.21.16.36.49L27.73,52q.36.75.6.75c.09,0,.27-.29.55-.86q1.17-2.43,3.46-7.33.19-.45.42-.45c.23,0,.57,0,1,0l1,0c.19,0,.49,0,.89-.06s.69,0,.88,0,.35.09.35.27c0,.91,0,2.27-.1,4.08s-.1,3.17-.1,4.08,0,2.1.11,3.78.1,2.94.1,3.77"/><path class="cls-33" d="M36.93,60c0,.24-.11.36-.34.36H32.5c-.23,0-.34-.13-.34-.4q0-1.17.09-3.51c.06-1.56.09-2.72.09-3.5,0-.23,0-.35-.11-.36a34.48,34.48,0,0,0-1.55,3.57c-.55,1.38-1.11,2.75-1.66,4.11a.5.5,0,0,1-.29.31h-.47c-.4,0-.64-.07-.71-.23-.42-.85-1-2.08-1.65-3.7S24.63,53.71,24.27,53a.35.35,0,0,0-.1-.13.52.52,0,0,0-.08.34c0,.75,0,1.89.06,3.4s.05,2.64.05,3.4c0,.27-.11.4-.32.4H20c-.15,0-.24,0-.28-.07a.54.54,0,0,1-.05-.26c0-.84,0-2.11.12-3.79s.12-3,.12-3.79,0-2.57-.11-5c0-.64,0-1.6-.11-2.86v-.2c0-.15.16-.23.49-.23s1.06,0,1.91,0,1.48,0,1.9,0c.09,0,.21.16.36.49L27.73,52q.36.75.6.75c.09,0,.27-.29.55-.86q1.17-2.43,3.46-7.33.19-.45.42-.45c.23,0,.57,0,1,0l1,0c.19,0,.49,0,.89-.06s.69,0,.88,0,.35.09.35.27c0,.91,0,2.27-.1,4.08s-.1,3.17-.1,4.08,0,2.1.11,3.78S36.93,59.17,36.93,60Z"/><path class="cls-32" d="M50.86,54.58c0,.59,0,1.48.11,2.65s.1,2.05.1,2.64c0,.3-.13.47-.4.49-1,.07-2.05.11-3.29.11-.14,0-.24-.22-.29-.67s-.11-.67-.18-.67a1,1,0,0,0-.25.19,3.88,3.88,0,0,1-2.77,1.31,4.65,4.65,0,0,1-3.74-1.78,6,6,0,0,1-1.4-4,6.25,6.25,0,0,1,1.45-4.31,5.24,5.24,0,0,1,4.12-1.69,3.54,3.54,0,0,1,2.87,1.28s.05.06.08.06.14-.19.23-.57.2-.56.32-.56a9.43,9.43,0,0,1,1.63.25,15.41,15.41,0,0,1,1.65.39c.11.05.17.11.17.18a1.28,1.28,0,0,1,0,.25,26,26,0,0,0-.37,4.43m-3.72.07A2.27,2.27,0,0,0,46.52,53a2.35,2.35,0,0,0-3.22,0,2.23,2.23,0,0,0-.62,1.63,2.26,2.26,0,0,0,.65,1.61,2.25,2.25,0,0,0,3.18,0,2.22,2.22,0,0,0,.63-1.63"/><path class="cls-33" d="M50.86,54.58c0,.59,0,1.48.11,2.65s.1,2.05.1,2.64c0,.3-.13.47-.4.49-1,.07-2.05.11-3.29.11-.14,0-.24-.22-.29-.67s-.11-.67-.18-.67a1,1,0,0,0-.25.19,3.88,3.88,0,0,1-2.77,1.31,4.65,4.65,0,0,1-3.74-1.78,6,6,0,0,1-1.4-4,6.25,6.25,0,0,1,1.45-4.31,5.24,5.24,0,0,1,4.12-1.69,3.54,3.54,0,0,1,2.87,1.28s.05.06.08.06.14-.19.23-.57.2-.56.32-.56a9.43,9.43,0,0,1,1.63.25,15.41,15.41,0,0,1,1.65.39c.11.05.17.11.17.18a1.28,1.28,0,0,1,0,.25A26,26,0,0,0,50.86,54.58Zm-3.72.07A2.27,2.27,0,0,0,46.52,53a2.35,2.35,0,0,0-3.22,0,2.23,2.23,0,0,0-.62,1.63,2.26,2.26,0,0,0,.65,1.61,2.25,2.25,0,0,0,3.18,0A2.22,2.22,0,0,0,47.14,54.65Z"/><path class="cls-32" d="M61.14,57c0,.23,0,.59-.08,1.06a9.06,9.06,0,0,0-.09,1,.76.76,0,0,1-.07.42,1.31,1.31,0,0,1-.38.27,6.74,6.74,0,0,1-3.31.82c-2.23,0-3.34-.85-3.34-2.56,0-.5,0-1.27.05-2.29s.06-1.79.06-2.3c0-.34-.19-.51-.59-.51h-.3c-.29,0-.44-.1-.44-.31s0-.31,0-.57,0-.44,0-.56,0-.41,0-.74,0-.58,0-.74.25-.24.74-.26c.28,0,.43-.08.45-.23a8.59,8.59,0,0,0,0-1.39c0-1,0-1.47,0-1.42,0-.9.09-1.34.26-1.34a3.74,3.74,0,0,1,.89.14c.44.1.74.15.91.17l1.78.22c.2,0,.29.08.29.2,0,.31,0,.77-.07,1.4s-.08,1.09-.08,1.41.11.57.34.57l1.22,0,1.24,0c.17,0,.26.05.26.17a7.89,7.89,0,0,1-.06.8,7.69,7.69,0,0,0-.06.8c0,.18,0,.45,0,.81s0,.62,0,.81-.11.24-.33.24l-.78,0-.77,0H58c-.11,0-.17.17-.17.51v.82c0,.37,0,.65,0,.83a2.84,2.84,0,0,0,.22,1.34,1.35,1.35,0,0,0,1.23.49,3.6,3.6,0,0,0,.82-.13,3.55,3.55,0,0,1,.76-.13c.16,0,.24.08.24.25"/><path class="cls-33" d="M61.14,57c0,.23,0,.59-.08,1.06a9.06,9.06,0,0,0-.09,1,.76.76,0,0,1-.07.42,1.31,1.31,0,0,1-.38.27,6.74,6.74,0,0,1-3.31.82c-2.23,0-3.34-.85-3.34-2.56,0-.5,0-1.27.05-2.29s.06-1.79.06-2.3c0-.34-.19-.51-.59-.51h-.3c-.29,0-.44-.1-.44-.31s0-.31,0-.57,0-.44,0-.56,0-.41,0-.74,0-.58,0-.74.25-.24.74-.26c.28,0,.43-.08.45-.23a8.59,8.59,0,0,0,0-1.39c0-1,0-1.47,0-1.42,0-.9.09-1.34.26-1.34a3.74,3.74,0,0,1,.89.14c.44.1.74.15.91.17l1.78.22c.2,0,.29.08.29.2,0,.31,0,.77-.07,1.4s-.08,1.09-.08,1.41.11.57.34.57l1.22,0,1.24,0c.17,0,.26.05.26.17a7.89,7.89,0,0,1-.06.8,7.69,7.69,0,0,0-.06.8c0,.18,0,.45,0,.81s0,.62,0,.81-.11.24-.33.24l-.78,0-.77,0H58c-.11,0-.17.17-.17.51v.82c0,.37,0,.65,0,.83a2.84,2.84,0,0,0,.22,1.34,1.35,1.35,0,0,0,1.23.49,3.6,3.6,0,0,0,.82-.13,3.55,3.55,0,0,1,.76-.13C61.06,56.72,61.14,56.8,61.14,57Z"/><path class="cls-32" d="M74.14,52l0,8q0,.4-.33.45c-.24,0-.81.05-1.69.05a11.39,11.39,0,0,1-1.77-.1.44.44,0,0,1-.38-.49c0-.67,0-1.67,0-3s0-2.33,0-3a1.2,1.2,0,0,0-1.37-1.35,2.17,2.17,0,0,0-1.09.37c-.46.27-.68.55-.68.84v2.86c0,.37,0,.93,0,1.67s0,1.3,0,1.67-.12.45-.36.48-.91.05-2,.05a7.13,7.13,0,0,1-1.37-.1c-.27-.06-.41-.19-.41-.4,0-.61,0-1.53,0-2.75s0-2.14,0-2.75q0-3.78-.08-6.26l-.06-1.73a12.22,12.22,0,0,0-.21-1.73,1.22,1.22,0,0,1,0-.22.23.23,0,0,1,.17-.23,4.35,4.35,0,0,1,1.06-.12l1.07-.06,2.1-.24q.18,0,.18.24c0,.25,0,.58,0,1s0,.83,0,1c-.05,1.74-.07,3.12-.07,4.13,0,.16,0,.23.11.23a4.92,4.92,0,0,0,.59-.4,7.35,7.35,0,0,1,1.29-.75,4.37,4.37,0,0,1,1.77-.41,3.86,3.86,0,0,1,2.47.78A2.71,2.71,0,0,1,74.14,52"/><path class="cls-33" d="M74.14,52l0,8q0,.4-.33.45c-.24,0-.81.05-1.69.05a11.39,11.39,0,0,1-1.77-.1.44.44,0,0,1-.38-.49c0-.67,0-1.67,0-3s0-2.33,0-3a1.2,1.2,0,0,0-1.37-1.35,2.17,2.17,0,0,0-1.09.37c-.46.27-.68.55-.68.84v2.86c0,.37,0,.93,0,1.67s0,1.3,0,1.67-.12.45-.36.48-.91.05-2,.05a7.13,7.13,0,0,1-1.37-.1c-.27-.06-.41-.19-.41-.4,0-.61,0-1.53,0-2.75s0-2.14,0-2.75q0-3.78-.08-6.26l-.06-1.73a12.22,12.22,0,0,0-.21-1.73,1.22,1.22,0,0,1,0-.22.23.23,0,0,1,.17-.23,4.35,4.35,0,0,1,1.06-.12l1.07-.06,2.1-.24q.18,0,.18.24c0,.25,0,.58,0,1s0,.83,0,1c-.05,1.74-.07,3.12-.07,4.13,0,.16,0,.23.11.23a4.92,4.92,0,0,0,.59-.4,7.35,7.35,0,0,1,1.29-.75,4.37,4.37,0,0,1,1.77-.41,3.86,3.86,0,0,1,2.47.78A2.71,2.71,0,0,1,74.14,52Z"/><path class="cls-32" d="M86.86,54.08c0,.78-.25,1.22-.75,1.33-.09,0-.88.1-2.4.26-.91.1-2.26.22-4.07.35a1.64,1.64,0,0,0,1,1.15,3.36,3.36,0,0,0,1.52.32,4.34,4.34,0,0,0,2.07-.55l.88-.56a3.46,3.46,0,0,1,.82,1.18,4.3,4.3,0,0,1,.57,1.36s-.06.14-.17.26a5.74,5.74,0,0,1-4.39,1.52,6.2,6.2,0,0,1-4.44-1.61,5.69,5.69,0,0,1-1.74-4.36,6.18,6.18,0,0,1,1.56-4.36,5.4,5.4,0,0,1,4.23-1.76,5,5,0,0,1,3.77,1.62,5.39,5.39,0,0,1,1.55,3.85m-4-.7a1.82,1.82,0,0,0-.51-1.27,1.6,1.6,0,0,0-1.21-.54,1.47,1.47,0,0,0-1.21.61,2.13,2.13,0,0,0-.44,1.33.29.29,0,0,0,.33.32,20,20,0,0,0,2.66-.27c.25,0,.38-.1.38-.18"/><path class="cls-33" d="M86.86,54.08c0,.78-.25,1.22-.75,1.33-.09,0-.88.1-2.4.26-.91.1-2.26.22-4.07.35a1.64,1.64,0,0,0,1,1.15,3.36,3.36,0,0,0,1.52.32,4.34,4.34,0,0,0,2.07-.55l.88-.56a3.46,3.46,0,0,1,.82,1.18,4.3,4.3,0,0,1,.57,1.36s-.06.14-.17.26a5.74,5.74,0,0,1-4.39,1.52,6.2,6.2,0,0,1-4.44-1.61,5.69,5.69,0,0,1-1.74-4.36,6.18,6.18,0,0,1,1.56-4.36,5.4,5.4,0,0,1,4.23-1.76,5,5,0,0,1,3.77,1.62A5.39,5.39,0,0,1,86.86,54.08Zm-4-.7a1.82,1.82,0,0,0-.51-1.27,1.6,1.6,0,0,0-1.21-.54,1.47,1.47,0,0,0-1.21.61,2.13,2.13,0,0,0-.44,1.33.29.29,0,0,0,.33.32,20,20,0,0,0,2.66-.27C82.68,53.52,82.81,53.46,82.81,53.38Z"/><path class="cls-32" d="M106.86,59.93c0,.27-.12.43-.35.46s-.8,0-1.71,0a12,12,0,0,1-1.76-.07c-.23,0-.35-.23-.35-.56s0-.89,0-1.59,0-1.24,0-1.6c0-1.34,0-2.31,0-2.88,0-.91-.49-1.37-1.31-1.37a1.69,1.69,0,0,0-1.08.45,1.57,1.57,0,0,0-.6,1c0,.32,0,1.27,0,2.84q0,.54,0,1.65c0,.74,0,1.29,0,1.66s-.11.38-.33.38H95.91c-.21,0-.32-.16-.32-.47s0-.91,0-1.63,0-1.28,0-1.65,0-.71,0-1.29,0-1,0-1.31q0-1.65-1.26-1.65a2,2,0,0,0-1.1.39c-.43.29-.65.59-.65.9,0,.71,0,1.75,0,3.15s0,2.44,0,3.13a.6.6,0,0,1-.07.36.67.67,0,0,1-.36.1c-.35,0-.89,0-1.64,0-.49,0-1,0-1.66-.07a.58.58,0,0,1-.33-.08.72.72,0,0,1,0-.35c0-.61,0-1.54,0-2.77s0-2.15,0-2.77a38.31,38.31,0,0,0-.27-4.27,1.06,1.06,0,0,1,0-.2.27.27,0,0,1,.17-.27,3.52,3.52,0,0,1,1-.17l1-.11c.07,0,.38-.09.91-.24a3.41,3.41,0,0,1,.91-.16c.15,0,.23.27.23.8s0,.81.1.81a1.86,1.86,0,0,0,.26-.17,10.7,10.7,0,0,1,1.65-1.11,4.44,4.44,0,0,1,1.93-.43,3.75,3.75,0,0,1,1.9.48,2.47,2.47,0,0,1,1.21,1.49,4.94,4.94,0,0,1,1.69-1.4,4.45,4.45,0,0,1,2.09-.57,4.1,4.1,0,0,1,2.49.71,2.64,2.64,0,0,1,1.09,2.28c0,.41,0,1,0,1.85s0,1.43,0,1.84,0,1.22,0,2.19,0,1.71,0,2.19"/><path class="cls-33" d="M106.86,59.93c0,.27-.12.43-.35.46s-.8,0-1.71,0a12,12,0,0,1-1.76-.07c-.23,0-.35-.23-.35-.56s0-.89,0-1.59,0-1.24,0-1.6c0-1.34,0-2.31,0-2.88,0-.91-.49-1.37-1.31-1.37a1.69,1.69,0,0,0-1.08.45,1.57,1.57,0,0,0-.6,1c0,.32,0,1.27,0,2.84q0,.54,0,1.65c0,.74,0,1.29,0,1.66s-.11.38-.33.38H95.91c-.21,0-.32-.16-.32-.47s0-.91,0-1.63,0-1.28,0-1.65,0-.71,0-1.29,0-1,0-1.31q0-1.65-1.26-1.65a2,2,0,0,0-1.1.39c-.43.29-.65.59-.65.9,0,.71,0,1.75,0,3.15s0,2.44,0,3.13a.6.6,0,0,1-.07.36.67.67,0,0,1-.36.1c-.35,0-.89,0-1.64,0-.49,0-1,0-1.66-.07a.58.58,0,0,1-.33-.08.72.72,0,0,1,0-.35c0-.61,0-1.54,0-2.77s0-2.15,0-2.77a38.31,38.31,0,0,0-.27-4.27,1.06,1.06,0,0,1,0-.2.27.27,0,0,1,.17-.27,3.52,3.52,0,0,1,1-.17l1-.11c.07,0,.38-.09.91-.24a3.41,3.41,0,0,1,.91-.16c.15,0,.23.27.23.8s0,.81.1.81a1.86,1.86,0,0,0,.26-.17,10.7,10.7,0,0,1,1.65-1.11,4.44,4.44,0,0,1,1.93-.43,3.75,3.75,0,0,1,1.9.48,2.47,2.47,0,0,1,1.21,1.49,4.94,4.94,0,0,1,1.69-1.4,4.45,4.45,0,0,1,2.09-.57,4.1,4.1,0,0,1,2.49.71,2.64,2.64,0,0,1,1.09,2.28c0,.41,0,1,0,1.85s0,1.43,0,1.84,0,1.22,0,2.19S106.86,59.45,106.86,59.93Z"/><path class="cls-32" d="M120.92,54.58c0,.59,0,1.48.1,2.65s.11,2.05.11,2.64c0,.3-.14.47-.41.49-1,.07-2,.11-3.28.11-.15,0-.25-.22-.3-.67s-.11-.67-.18-.67a1,1,0,0,0-.24.19,3.88,3.88,0,0,1-2.78,1.31,4.63,4.63,0,0,1-3.73-1.78,6,6,0,0,1-1.4-4,6.29,6.29,0,0,1,1.44-4.31,5.27,5.27,0,0,1,4.12-1.69,3.53,3.53,0,0,1,2.87,1.28s.06.06.08.06.15-.19.24-.57.19-.56.32-.56a9.57,9.57,0,0,1,1.63.25,15.09,15.09,0,0,1,1.64.39c.12.05.17.11.17.18a2.14,2.14,0,0,1,0,.25,25.05,25.05,0,0,0-.37,4.43m-3.72.07a2.27,2.27,0,0,0-.62-1.63,2.16,2.16,0,0,0-1.62-.64,2.12,2.12,0,0,0-1.61.64,2.4,2.4,0,0,0,0,3.24,2.12,2.12,0,0,0,1.57.67,2.15,2.15,0,0,0,1.61-.65,2.22,2.22,0,0,0,.63-1.63"/><path class="cls-33" d="M120.92,54.58c0,.59,0,1.48.1,2.65s.11,2.05.11,2.64c0,.3-.14.47-.41.49-1,.07-2,.11-3.28.11-.15,0-.25-.22-.3-.67s-.11-.67-.18-.67a1,1,0,0,0-.24.19,3.88,3.88,0,0,1-2.78,1.31,4.63,4.63,0,0,1-3.73-1.78,6,6,0,0,1-1.4-4,6.29,6.29,0,0,1,1.44-4.31,5.27,5.27,0,0,1,4.12-1.69,3.53,3.53,0,0,1,2.87,1.28s.06.06.08.06.15-.19.24-.57.19-.56.32-.56a9.57,9.57,0,0,1,1.63.25,15.09,15.09,0,0,1,1.64.39c.12.05.17.11.17.18a2.14,2.14,0,0,1,0,.25A25.05,25.05,0,0,0,120.92,54.58Zm-3.72.07a2.27,2.27,0,0,0-.62-1.63,2.16,2.16,0,0,0-1.62-.64,2.12,2.12,0,0,0-1.61.64,2.4,2.4,0,0,0,0,3.24,2.12,2.12,0,0,0,1.57.67,2.15,2.15,0,0,0,1.61-.65A2.22,2.22,0,0,0,117.2,54.65Z"/><path class="cls-32" d="M134.81,47.67c0,.16-.09.23-.26.23s-1.45,0-3.48-.17c0,2-.07,3.31-.07,4.08s0,2.28.11,4.11.11,3.2.11,4.11c0,.14,0,.24-.1.28a1.83,1.83,0,0,1-.33,0,16.58,16.58,0,0,1-2,.1,16,16,0,0,1-2.1-.1.34.34,0,0,1-.32-.36c0-.91,0-2.27.12-4.09s.11-3.19.11-4.1q0-.9-.09-4c-1.54.15-2.77.23-3.69.23-.12,0-.19,0-.19-.12a7.33,7.33,0,0,1,.17-.89c.12-.54.19-.87.2-1,0-.36,0-.73.08-1.09.06-.58.15-.87.28-.87l.16,0a47.38,47.38,0,0,0,5.55.24c.69,0,2-.08,3.84-.22l1.51-.12a.64.64,0,0,1,.27,0,.43.43,0,0,1,0,.23c0,.21,0,.49,0,.86s0,.7,0,.87a6.61,6.61,0,0,0,.07.85,7.46,7.46,0,0,1,.08.84"/><path class="cls-33" d="M134.81,47.67c0,.16-.09.23-.26.23s-1.45,0-3.48-.17c0,2-.07,3.31-.07,4.08s0,2.28.11,4.11.11,3.2.11,4.11c0,.14,0,.24-.1.28a1.83,1.83,0,0,1-.33,0,16.58,16.58,0,0,1-2,.1,16,16,0,0,1-2.1-.1.34.34,0,0,1-.32-.36c0-.91,0-2.27.12-4.09s.11-3.19.11-4.1q0-.9-.09-4c-1.54.15-2.77.23-3.69.23-.12,0-.19,0-.19-.12a7.33,7.33,0,0,1,.17-.89c.12-.54.19-.87.2-1,0-.36,0-.73.08-1.09.06-.58.15-.87.28-.87l.16,0a47.38,47.38,0,0,0,5.55.24c.69,0,2-.08,3.84-.22l1.51-.12a.64.64,0,0,1,.27,0,.43.43,0,0,1,0,.23c0,.21,0,.49,0,.86s0,.7,0,.87a6.61,6.61,0,0,0,.07.85A7.46,7.46,0,0,1,134.81,47.67Z"/><path class="cls-32" d="M141,51.81c0,.91,0,2.28.07,4.11s.07,3.2.07,4.11c0,.15,0,.25-.1.29l-.31,0a17.31,17.31,0,0,1-2,.1,14.6,14.6,0,0,1-2.15-.1c-.22,0-.34-.16-.34-.36,0,.13,0-.55.11-2q.21-4.69.21-6.16c0-.82,0-2.06-.08-3.71s-.09-2.89-.09-3.71a.24.24,0,0,1,.27-.26c.24,0,.6,0,1.08,0l1.08,0,1.06,0c.47,0,.82,0,1.06,0s.34.09.34.26c0,.82-.05,2.06-.14,3.71S141,51,141,51.81"/><path class="cls-33" d="M141,51.81c0,.91,0,2.28.07,4.11s.07,3.2.07,4.11c0,.15,0,.25-.1.29l-.31,0a17.31,17.31,0,0,1-2,.1,14.6,14.6,0,0,1-2.15-.1c-.22,0-.34-.16-.34-.36,0,.13,0-.55.11-2q.21-4.69.21-6.16c0-.82,0-2.06-.08-3.71s-.09-2.89-.09-3.71a.24.24,0,0,1,.27-.26c.24,0,.6,0,1.08,0l1.08,0,1.06,0c.47,0,.82,0,1.06,0s.34.09.34.26c0,.82-.05,2.06-.14,3.71S141,51,141,51.81Z"/><path class="cls-32" d="M157.09,57.75a.88.88,0,0,1-.24.48,7,7,0,0,1-5.66,2.54,7.51,7.51,0,0,1-5.85-2.47,8.52,8.52,0,0,1-2.19-6,8.73,8.73,0,0,1,2.14-6A7.2,7.2,0,0,1,151,43.75a7.63,7.63,0,0,1,5.88,2.3.74.74,0,0,1,.23.45,7.12,7.12,0,0,1-.81,1.63,8.9,8.9,0,0,1-1,1.59.32.32,0,0,1-.23.09,2.94,2.94,0,0,1-.58-.46,6,6,0,0,0-1.22-.87,4.16,4.16,0,0,0-1.9-.46,3.31,3.31,0,0,0-2.72,1.27,4.58,4.58,0,0,0-.94,2.92,4.67,4.67,0,0,0,.94,2.95,3.3,3.3,0,0,0,2.72,1.29,4.21,4.21,0,0,0,1.91-.44,5.76,5.76,0,0,0,1.2-.81,3.05,3.05,0,0,1,.57-.44.37.37,0,0,1,.23.13c.12.14.46.62,1,1.45a8,8,0,0,1,.84,1.41"/><path class="cls-33" d="M157.09,57.75a.88.88,0,0,1-.24.48,7,7,0,0,1-5.66,2.54,7.51,7.51,0,0,1-5.85-2.47,8.52,8.52,0,0,1-2.19-6,8.73,8.73,0,0,1,2.14-6A7.2,7.2,0,0,1,151,43.75a7.63,7.63,0,0,1,5.88,2.3.74.74,0,0,1,.23.45,7.12,7.12,0,0,1-.81,1.63,8.9,8.9,0,0,1-1,1.59.32.32,0,0,1-.23.09,2.94,2.94,0,0,1-.58-.46,6,6,0,0,0-1.22-.87,4.16,4.16,0,0,0-1.9-.46,3.31,3.31,0,0,0-2.72,1.27,4.58,4.58,0,0,0-.94,2.92,4.67,4.67,0,0,0,.94,2.95,3.3,3.3,0,0,0,2.72,1.29,4.21,4.21,0,0,0,1.91-.44,5.76,5.76,0,0,0,1.2-.81,3.05,3.05,0,0,1,.57-.44.37.37,0,0,1,.23.13c.12.14.46.62,1,1.45A8,8,0,0,1,157.09,57.75Z"/><polyline class="cls-34" points="41.54 66.17 87.92 74.65 134.3 66.17"/></g></g></svg>