<svg xmlns="http://www.w3.org/2000/svg" viewBox="0 0 940 830"><defs><style>.cls-1{fill:none;}.cls-2{fill:#fe6462;}.cls-2,.cls-3,.cls-4{opacity:0.5;}.cls-3,.cls-5{fill:#fff;}.cls-6{fill:#69a1dd;}.cls-7{fill:#fe6473;}.cls-8{fill:#9da2cb;}.cls-9{fill:#8db8e0;}.cls-10{fill:#fd6573;}.cls-11{fill:#fcdfac;}.cls-12{fill:#f7cc8f;}.cls-13{fill:#fcc78e;}.cls-14{fill:#664336;}.cls-15{fill:#e2927d;}</style></defs><title>RedChArw_box</title><g id="Layer_2" data-name="Layer 2"><g id="Layer_8" data-name="Layer 8"><g id="RedChArw_box"><rect class="cls-1" width="940" height="830"/><g id="RedChArw"><g id="RedArw"><rect class="cls-2" x="460.23" y="246.21" width="14.7" height="44.39" rx="7.35" ry="7.35" transform="translate(608.43 788.82) rotate(-135)"/><rect class="cls-2" x="480.87" y="246.21" width="14.7" height="44.39" rx="7.35" ry="7.35" transform="translate(-46.79 423.84) rotate(-45)"/></g><g id="ChRed"><circle class="cls-3" cx="476.76" cy="206.57" r="29.35"/><g class="cls-4"><path class="cls-5" d="M477.13,241.19a35,35,0,1,1,35-35A35,35,0,0,1,477.13,241.19Zm0-67.74a32.74,32.74,0,1,0,32.74,32.74A32.78,32.78,0,0,0,477.13,173.45Z"/></g><path class="cls-6" d="M485.65,227.08H467.79c0-1.72,0-3.44.07-5.16l17.59,0h.17Z"/><path class="cls-7" d="M467.86,221.92l-.07,5.16h-3.45a3.15,3.15,0,0,1-1.22-3.6c.38-1.9.54-3.85.8-5.78a2.08,2.08,0,0,1,.56-1.29l3.32,5.3Z"/><path class="cls-7" d="M489.13,216.5c.41.21.34.69.57,1,.28,2.13.53,4.27.84,6.4.25,1.72-.08,2.44-1.62,3.18h-3.08l-.09-5.2Z"/><path class="cls-8" d="M485.75,221.88l.09,5.2h-.19l0-5.18Z"/><path class="cls-9" d="M485.75,221.88l-.13,0h-.17c-.33-.32-.73-.17-1.1-.17H467.8l-3.32-5.3c0-.21,0-.53.13-.62,1.08-.75,2-1.81,3.52-1.75.92,1.49,1.83,3,2.76,4.47a2.31,2.31,0,0,0,2.09,1.11q3.78,0,7.56,0a2.48,2.48,0,0,0,2.29-1.27c.87-1.45,1.78-2.87,2.67-4.3,1.34-.1,3.56,1.41,3.63,2.45Z"/><path class="cls-10" d="M485.5,214.05c-.89,1.43-1.8,2.85-2.67,4.3a2.48,2.48,0,0,1-2.29,1.27q-3.78,0-7.56,0a2.31,2.31,0,0,1-2.09-1.11c-.93-1.48-1.84-3-2.76-4.47l.32-.21c.67-.11,1.27-.9,2-.19,1.64,3.76,5.18,5.42,8.77,4a5.54,5.54,0,0,0,3.78-4.18C484,213.12,484.71,213.68,485.5,214.05Z"/><path class="cls-11" d="M481,209.61h.17c0,.54,0,1.08,0,1.62,0,1.46.3,1.84,1.77,2.25a5.54,5.54,0,0,1-3.78,4.18c-3.59,1.41-7.13-.25-8.77-4l1.36-.59a8.53,8.53,0,0,0,6.62-1.15,4.41,4.41,0,0,0,2.22-2.1h0A.38.38,0,0,0,481,209.61Z"/><path class="cls-8" d="M467.8,221.71h16.55c.37,0,.77-.15,1.1.17l-17.59,0Z"/><path class="cls-12" d="M480.66,209.8a4.41,4.41,0,0,1-2.22,2.1,8.53,8.53,0,0,1-6.62,1.15c.86-1,.48-2.28.57-3.44.51-.09.88.36,1.36.38a7,7,0,0,0,6.2.06Z"/><path class="cls-13" d="M481,209.61a.38.38,0,0,1-.39.19A.41.41,0,0,1,481,209.61Z"/><path class="cls-11" d="M488.71,197.27c0,7.93-5.27,14.35-11.77,14.35s-11.78-6.42-11.78-14.35,5-9,11.54-9S488.71,189.35,488.71,197.27Z"/><path class="cls-14" d="M469.83,185.76a13.19,13.19,0,0,1,4.58-1.69L475,184c1.42-.06,1.91-.06,2.9-.08a4.15,4.15,0,0,1,1.21.16c.77.21,1.55.41,2.3.69a13.82,13.82,0,0,1,9.09,12.43,55.71,55.71,0,0,0,3.19,17.46.76.76,0,0,1-.31.91,26.85,26.85,0,0,1-3.71,2c-.23-.31-.16-.79-.57-1-.07-1-2.29-2.55-3.63-2.45-.79-.37-1.53-.93-2.49-.58-1.47-.41-1.77-.79-1.77-2.25,0-.54,0-1.08,0-1.62,1-.72.52-3,1.62-3.59,1.34-.69,2.79-.46,3.17-1.54a2.46,2.46,0,0,1,1.72-1.32,2.1,2.1,0,0,0,1.74-1.89,2.44,2.44,0,0,0-1.5-2.32c-.73-.24-.82-.7-.77-1.39a3.47,3.47,0,0,0-1.67-3.4,4.61,4.61,0,0,0-2.14-.65c-1.9-.11-3.87.35-5.66-.65l-1-1.5a6.51,6.51,0,0,0-2.94-4.81A7.05,7.05,0,0,0,469.83,185.76Z"/><path class="cls-14" d="M469.83,185.76a7.05,7.05,0,0,1,4,.78,6.65,6.65,0,0,1,3,5.57,5.61,5.61,0,0,1-4.33,1.39c-.7-.06-1.41,0-2.11,0a4,4,0,0,0-3.31,1.61,4.49,4.49,0,0,0-.78,2.89c0,.43,0,.75-.56.91a2,2,0,0,0-1.57,1.93,2.09,2.09,0,0,0,1.4,2.26c.51.2,3.11-.46,3.17.11.21,2.09,1.22,2.84,3.22,3.6.94.37-.38,2.19.45,2.81-.09,1.16.29,2.41-.57,3.44l-1.36.59c-.74-.71-1.34.08-2,.19-4.09-5.35-5.53-11.53-5.25-18.11C463.39,191.18,465.91,187.94,469.83,185.76Z"/><ellipse class="cls-11" cx="465.43" cy="201.93" rx="2.81" ry="3.13"/><ellipse class="cls-11" cx="487.48" cy="201.93" rx="2.81" ry="3.13"/><path class="cls-11" d="M476.94,211.62c5.39,0,9.93-4.43,11.32-10.47H465.61C467,207.19,471.54,211.62,476.94,211.62Z"/><path class="cls-15" d="M481.79,206.05c0,1.37-2.1,4.31-4.78,4.31s-4.93-2.94-4.93-4.31,2.17,0,4.86,0S481.79,204.67,481.79,206.05Z"/><ellipse class="cls-14" cx="471.94" cy="201.55" rx="1.02" ry="1.24" transform="translate(-4.29 392.73) rotate(-45)"/><ellipse class="cls-14" cx="481.79" cy="201.55" rx="1.24" ry="1.02" transform="translate(-1.4 399.73) rotate(-45)"/><path class="cls-14" d="M486.66,194.74c0,4-4.46,4.06-10,4.06s-9.95-.1-9.95-4.06,4.46-7.17,9.95-7.17S486.66,190.78,486.66,194.74Z"/></g></g></g></g></g></svg>