<svg xmlns="http://www.w3.org/2000/svg" viewBox="0 0 27.19 24.36"><defs><style>.cls-1{opacity:0.12;}.cls-2{fill:#fefefd;}</style></defs><title>Asset 11</title><g id="Layer_2" data-name="Layer 2"><g id="Layer_1-2" data-name="Layer 1"><g class="cls-1"><path class="cls-2" d="M3.12,21.92,7,3.62Q4,3.09,3.47,6c-.08.42-.23.53-.63.52-.67,0-1.35,0-2,0a.79.79,0,0,1-.78-1A8.11,8.11,0,0,1,1.71,1.79a5.29,5.29,0,0,1,4-1.67C8.48,0,11.3,0,14.11,0c4.2,0,8.41,0,12.61,0h0a.46.46,0,0,1,.45.56L26.6,3.18a.46.46,0,0,1-.45.36H22.43c-.26,1.21-.53,2.38-.77,3.56-.69,3.28-2.27,11.4-2.21,12.17.08,1.25.68,1.78,1.94,1.81a18.56,18.56,0,0,0,2-.13h0a.43.43,0,0,1,.46.51l-.08.4c-.14.62-.26,1.25-.42,1.86a.54.54,0,0,1-.33.33,8.61,8.61,0,0,1-5.07-.19,3.64,3.64,0,0,1-2.48-3.23A17.7,17.7,0,0,1,16,15.06c.75-3.68,1.55-7.36,2.34-11,0-.13,0-.25.08-.44l-.54,0c-2.06,0-4.12,0-6.18,0-.48,0-.63.14-.73.59Q9,13.27,7.07,22.41c-.09.43-.17.87-.29,1.29,0,.13-.18.31-.27.31H4.83A1.75,1.75,0,0,1,3.12,21.92Z"/></g></g></g></svg>