<svg xmlns="http://www.w3.org/2000/svg" viewBox="0 0 940 830"><defs><style>.cls-1{fill:none;}.cls-2{fill:#ebeded;}.cls-3{fill:#e3e8e8;}.cls-4{fill:#f5f7f7;}.cls-5{fill:#cbced1;}.cls-6{fill:#fff;}.cls-7{fill:#2096ff;opacity:0.25;}</style></defs><title>Tablet_box</title><g id="Layer_2" data-name="Layer 2"><g id="Layer_8" data-name="Layer 8"><g id="Tablet_box"><rect class="cls-1" width="940" height="830"/><g id="Tablet"><rect class="cls-2" x="91" y="695.11" width="758" height="36" rx="18" ry="18"/><rect class="cls-3" x="173" y="662.11" width="594" height="24" rx="9.77" ry="9.77"/><polygon class="cls-4" points="835.5 696.11 104.5 696.11 183.5 665.11 761.5 665.11 835.5 696.11"/><polygon class="cls-4" points="822.5 696.11 117.5 696.11 193.69 665.11 751.13 665.11 822.5 696.11"/><ellipse class="cls-5" cx="470" cy="692.11" rx="27.5" ry="2"/><rect class="cls-5" x="423.29" y="704.61" width="101" height="17" rx="8.5" ry="8.5"/><circle class="cls-5" cx="119.79" cy="713.11" r="8.5"/><polygon class="cls-6" points="803.79 688.11 138.79 688.11 186.79 667.11 754.79 667.11 803.79 688.11"/><ellipse class="cls-7" cx="470.16" cy="671.23" rx="59.5" ry="2.5"/></g></g></g></g></svg>