<svg xmlns="http://www.w3.org/2000/svg" viewBox="0 0 940 830"><defs><style>.cls-1{fill:none;}.cls-2,.cls-4{fill:#fff;}.cls-2,.cls-3{opacity:0.5;}.cls-5{fill:#4f6e7f;}.cls-6{fill:#33546a;}.cls-7{fill:#b26e60;}.cls-8{fill:#7f473c;}.cls-9{fill:#fc8b52;}.cls-10{fill:#e09489;}.cls-11{fill:#664437;}.cls-12{fill:#554f6e;}.cls-13{fill:#18eadf;}</style></defs><title>TealChArw_box</title><g id="Layer_2" data-name="Layer 2"><g id="Layer_8" data-name="Layer 8"><g id="TealChArw_box"><rect class="cls-1" width="940" height="830"/><g id="TealChArw"><g id="ChTeal"><circle class="cls-2" cx="894.8" cy="367.17" r="29.35"/><g class="cls-3"><path class="cls-4" d="M895.17,401.79a35,35,0,1,1,35-35A35,35,0,0,1,895.17,401.79Zm0-67.74a32.74,32.74,0,1,0,32.74,32.74A32.78,32.78,0,0,0,895.17,334.05Z"/></g><path class="cls-5" d="M881.26,377a2.36,2.36,0,0,1,1.4-1.06c1.44-.52,2.89-1,4.34-1.47.54-.17,1.06-.2,1.41.37a6.76,6.76,0,0,0,.71,1.77,8.17,8.17,0,0,0,1.55,2.68,6.38,6.38,0,0,0,6.74,2.22,6.67,6.67,0,0,0,5-4.93h0c.17,0,.19-.11.21-.23a3.82,3.82,0,0,0,.61-1.51,1,1,0,0,1,1.2-.42c1.58.51,3.17,1,4.73,1.59a2.42,2.42,0,0,1,1.42,1.21c-.37,0-.58.25-.79.48-1.08,1.23-2.11,2.51-3.24,3.7a5.85,5.85,0,0,0-1.59,4.78c.11,1.24,0,2.5,0,3.75H886.65c0-1.78,0-3.57,0-5.35a3.39,3.39,0,0,0-.88-2.33C884.24,380.46,882.76,378.7,881.26,377Z"/><path class="cls-6" d="M905,389.88c0-1.25.09-2.51,0-3.75a5.85,5.85,0,0,1,1.59-4.78c1.13-1.19,2.16-2.47,3.24-3.7.21-.23.42-.5.79-.48.77,1,.63,2.17.8,3.28.32,2.2.56,4.41.82,6.61a2.68,2.68,0,0,1-1.83,2.82Z"/><path class="cls-6" d="M881.26,377c1.5,1.75,3,3.51,4.5,5.25a3.39,3.39,0,0,1,.88,2.33c0,1.78,0,3.57,0,5.35h-5.39a2.87,2.87,0,0,1-1.75-3.37c.37-2.57.64-5.16,1-7.74A2.67,2.67,0,0,1,881.26,377Z"/><path class="cls-7" d="M900.65,370.48c.07.07.13.15.19.22,0,.32,0,.64,0,1,0,2.35.06,2.42,2.35,3.12a3.82,3.82,0,0,1-.61,1.51l-.21.23h0a2.09,2.09,0,0,0-1,.36,12.73,12.73,0,0,1-9,.83,23.08,23.08,0,0,0-3.3-1.16,6.76,6.76,0,0,1-.71-1.77l1.62-.44a13.15,13.15,0,0,0,7.34-1.35A21.16,21.16,0,0,0,900.65,370.48Z"/><path class="cls-8" d="M890.78,370.28c.62-.09,1.06.52,1.69.42,2.27,1.29,4.54,1,6.83,0,.42-.17.82-.59,1.35-.26a21.16,21.16,0,0,1-3.28,2.52,13.15,13.15,0,0,1-7.34,1.35c.84-.73.74-1.72.73-2.68C890.75,371.21,890.77,370.74,890.78,370.28Z"/><path class="cls-9" d="M889.12,376.56a23.08,23.08,0,0,1,3.3,1.16,12.73,12.73,0,0,0,9-.83,2.09,2.09,0,0,1,1-.36,6.67,6.67,0,0,1-5,4.93,6.38,6.38,0,0,1-6.74-2.22A8.17,8.17,0,0,1,889.12,376.56Z"/><path class="cls-9" d="M902.39,376.53l.21-.23C902.58,376.42,902.56,376.55,902.39,376.53Z"/><ellipse class="cls-7" cx="896.42" cy="358.49" rx="9.73" ry="14.54"/><path class="cls-10" d="M899.6,366.62c0,1.34-1.38,4.22-3.13,4.22s-3.23-2.88-3.23-4.22,1.43,0,3.18,0S899.6,365.27,899.6,366.62Z"/><ellipse class="cls-11" cx="892.29" cy="362.21" rx="0.84" ry="1.21"/><ellipse class="cls-11" cx="900.44" cy="362.21" rx="0.84" ry="1.21"/><path class="cls-12" d="M909,352.27a3.72,3.72,0,0,0-.83-2.25,4.75,4.75,0,0,0,.13-1.07c0-3.31-3.28-6-7.32-6a8.67,8.67,0,0,0-3.1.57,10.06,10.06,0,0,0-11,0,4.17,4.17,0,0,0-2-.48c-2,0-3.65,1.34-3.65,3a2.51,2.51,0,0,0,.35,1.26,4.83,4.83,0,0,0-1.38,3.31c0,2.33,1.8,4.31,4.32,5.07v6.77h4v-5.7a19,19,0,0,0,8.36,1.76,20,20,0,0,0,7.31-1.29v5.23h4v-8.09A3.74,3.74,0,0,0,909,352.27Z"/><ellipse class="cls-7" cx="887.21" cy="362.95" rx="2.75" ry="3.07"/><ellipse class="cls-7" cx="905.51" cy="362.95" rx="2.75" ry="3.07"/></g><g id="TealArw"><g class="cls-3"><rect class="cls-13" x="829.55" y="334.64" width="14.7" height="44.39" rx="7.35" ry="7.35" transform="translate(-7.2 696.29) rotate(-45)"/></g><g class="cls-3"><rect class="cls-13" x="814.71" y="370.12" width="44.39" height="14.7" rx="7.35" ry="7.35" transform="translate(-21.79 702.34) rotate(-45)"/></g></g></g></g></g></g></svg>