<svg xmlns="http://www.w3.org/2000/svg" viewBox="0 0 940 830"><defs><style>.cls-1{fill:none;}.cls-2,.cls-4{opacity:0.5;}.cls-3{fill:#e7dc48;}.cls-4,.cls-5{fill:#fff;}.cls-4{isolation:isolate;}.cls-6{fill:#4e8cc9;}.cls-7{fill:#3a77aa;}.cls-8{fill:#ef89a6;}.cls-9{fill:#f5a0b4;}.cls-10{fill:#fdc23e;}.cls-11{fill:#fcc78e;}.cls-12{fill:#d16983;}.cls-13{fill:#d0aa30;}</style></defs><title>YllwChArw_box</title><g id="Layer_2" data-name="Layer 2"><g id="Layer_8" data-name="Layer 8"><rect class="cls-1" width="940" height="830"/><g id="YllwChArw"><g id="YllwArw"><g class="cls-2"><rect class="cls-3" x="10.89" y="90.55" width="44.39" height="14.7" rx="7.35" ry="7.35" transform="translate(-59.54 52.07) rotate(-45)"/></g><g class="cls-2"><rect class="cls-3" x="46.37" y="75.71" width="14.7" height="44.39" rx="7.35" ry="7.35" transform="translate(-53.49 66.66) rotate(-45)"/></g></g><g id="ChYllw"><circle class="cls-4" cx="44.29" cy="36.69" r="29.21"/><g class="cls-2"><path class="cls-5" d="M44.66,71.14A34.83,34.83,0,1,1,79.49,36.31h0A34.88,34.88,0,0,1,44.66,71.14Zm0-67.42a32.59,32.59,0,1,0,32.58,32.6h0A32.63,32.63,0,0,0,44.66,3.73Z"/></g><path class="cls-6" d="M32.7,48.53a1.79,1.79,0,0,1,1.18-1c1.16-.45,2.34-.85,3.49-1.33a.84.84,0,0,1,1.12.31,6.34,6.34,0,0,0,.86,2.26l.17.2h0a1.15,1.15,0,0,0,0,.37,23.24,23.24,0,0,0,4.6,6.14c.3.3.55.29.88,0a21.77,21.77,0,0,0,3.53-4.35A4.87,4.87,0,0,0,49.59,49h0l.17-.2a6.74,6.74,0,0,0,.86-2.26.84.84,0,0,1,1-.37l3.88,1.49a1.49,1.49,0,0,1,1,.87,44.73,44.73,0,0,1-3.07,4.17,4.8,4.8,0,0,0-1.26,3.42c.08,1.46,0,2.94,0,4.41H37c0-1.47-.06-2.94,0-4.41a4.93,4.93,0,0,0-1.22-3.42A37.74,37.74,0,0,1,32.7,48.53Z"/><path class="cls-7" d="M32.7,48.53a35.69,35.69,0,0,0,3.07,4.16A4.93,4.93,0,0,1,37,56.11c-.08,1.46,0,2.94,0,4.41H32.57c-1.35-.8-1.52-2.09-1.29-3.65.32-2.24.52-4.49.77-6.74A2.28,2.28,0,0,1,32.7,48.53Z"/><path class="cls-7" d="M52.12,60.48c0-1.47.06-2.94,0-4.41a4.78,4.78,0,0,1,1.22-3.42,44.73,44.73,0,0,0,3.07-4.17,3.74,3.74,0,0,1,.78,2.45c.26,2.12.46,4.24.73,6.36a3,3,0,0,1-1.41,3.19Z"/><path class="cls-8" d="M40.4,42.26l1.34.57a5.76,5.76,0,0,0,5.66.07l.63-.26a4.25,4.25,0,0,1-1.9,2,7.78,7.78,0,0,1-4.52,1.55c-.57,0-1.16-.14-1.75-.13a2.8,2.8,0,0,0,.55-2.25C40.38,43.33,40.39,42.8,40.4,42.26Z"/><path class="cls-9" d="M50.58,46.54c-1.71-.46-1.9-.72-1.9-2.67V42.64l-.29-.19a.33.33,0,0,1-.34.19,4.25,4.25,0,0,1-1.9,2,7.78,7.78,0,0,1-4.52,1.55c-.57,0-1.16-.14-1.75-.13l-1.35.44a6.34,6.34,0,0,0,.86,2.26l.17.19h0a1.15,1.15,0,0,0,0,.37,23.36,23.36,0,0,0,4.56,6.16c.3.3.55.29.88,0a21.77,21.77,0,0,0,3.53-4.35A4.87,4.87,0,0,0,49.59,49h0l.17-.19A6.59,6.59,0,0,0,50.58,46.54Z"/><path class="cls-10" d="M38.66,48.8l.2.2Z"/><path class="cls-10" d="M50.2,49l.2-.2Z"/><path class="cls-11" d="M48.86,42.48a.39.39,0,0,1-.39.19A.4.4,0,0,1,48.86,42.48Z"/><path class="cls-9" d="M55.76,35.66c0,5.47-4.85,8.64-10.82,8.64s-10.82-3.17-10.82-8.64S38,25.58,44.94,25.76C50.92,25.9,55.76,30.19,55.76,35.66Z"/><path class="cls-12" d="M50.48,40.38c0,.94-2.29,3-5.12,3s-5.12-2.05-5.12-3S42.53,40,45.36,40,50.48,39.48,50.48,40.38Z"/><ellipse class="cls-6" cx="41.3" cy="36.67" rx="1.08" ry="1.48"/><ellipse class="cls-6" cx="49.41" cy="36.72" rx="1.08" ry="1.48"/><ellipse class="cls-13" cx="45.36" cy="25.75" rx="10.74" ry="7.46"/><ellipse class="cls-13" cx="46.3" cy="16.99" rx="6.22" ry="6.1"/><ellipse class="cls-13" cx="38.47" cy="25.47" rx="8.37" ry="11.55" transform="translate(6.82 59.04) rotate(-80.19)"/><path class="cls-13" d="M35.53,36.13c1.66-.08,1.41-3.76,4.74-6.32,2.29-1.76,6-2.76,8.84-1.58,4.67,1.92,5,8.75,6.66,8.53,1.22-.16,2.42-3.87,1.39-7-1.83-5.51-9.94-6.5-11.21-6.63-5.16-.54-12.83,1-14.05,5.53C31,32,33.72,36.22,35.53,36.13Z"/><circle class="cls-9" cx="55.76" cy="36.77" r="3.9"/><circle class="cls-9" cx="33.98" cy="36.7" r="3.9"/></g></g></g></g></svg>