<svg xmlns="http://www.w3.org/2000/svg" viewBox="0 0 238.46 73.85"><defs><style>.cls-1{fill:#2096ff;}.cls-2{fill:#fff;}</style></defs><title>English bubble</title><g id="Layer_2" data-name="Layer 2"><g id="Layer_1-2" data-name="Layer 1"><rect class="cls-1" width="212.94" height="73.85" rx="7.39" ry="7.39"/><path class="cls-1" d="M237.43,35.14l-27-15.58a2.06,2.06,0,0,0-3.1,1.79V52.5a2.06,2.06,0,0,0,3.1,1.79l27-15.58A2.06,2.06,0,0,0,237.43,35.14Z"/><path class="cls-2" d="M81.9,53.27h-6.5V38.1H59.12V53.27h-6.5V18.57h6.5V33.49H75.39V18.57h6.5Z"/><path class="cls-2" d="M98.74,28.26A12,12,0,0,1,103,29a9.39,9.39,0,0,1,3.37,2.17,9.92,9.92,0,0,1,2.21,3.5,13.2,13.2,0,0,1,.79,4.74,8.73,8.73,0,0,1-.06,1.12,1.77,1.77,0,0,1-.22.7.88.88,0,0,1-.42.36,1.79,1.79,0,0,1-.67.11H92.82q.26,3.79,2,5.57A6.36,6.36,0,0,0,99.56,49a8.13,8.13,0,0,0,2.48-.34,11.5,11.5,0,0,0,1.82-.74q.78-.41,1.37-.74a2.29,2.29,0,0,1,1.14-.34A1.29,1.29,0,0,1,107,47a1.37,1.37,0,0,1,.46.41l1.73,2.16A9.9,9.9,0,0,1,107,51.53a12.36,12.36,0,0,1-2.56,1.25,14,14,0,0,1-2.71.66,19.41,19.41,0,0,1-2.68.19,13.16,13.16,0,0,1-4.78-.85,10.67,10.67,0,0,1-3.84-2.52,11.83,11.83,0,0,1-2.57-4.13,16,16,0,0,1-.94-5.7,13.61,13.61,0,0,1,.82-4.74,11.36,11.36,0,0,1,2.34-3.86,11,11,0,0,1,3.72-2.6A12.26,12.26,0,0,1,98.74,28.26Zm.12,4.25A5.48,5.48,0,0,0,94.81,34a7.22,7.22,0,0,0-1.87,4.15h11.14a7.42,7.42,0,0,0-.31-2.17,5,5,0,0,0-1-1.79A4.57,4.57,0,0,0,101.17,33,5.56,5.56,0,0,0,98.86,32.51Z"/><path class="cls-2" d="M120.54,17.61V53.27h-5.93V17.61Z"/><path class="cls-2" d="M133.54,17.61V53.27h-5.93V17.61Z"/><path class="cls-2" d="M150.75,28.26a13.5,13.5,0,0,1,5,.89,10.78,10.78,0,0,1,3.83,2.52,11.16,11.16,0,0,1,2.45,4,15.15,15.15,0,0,1,.86,5.26,15.22,15.22,0,0,1-.86,5.28,11.4,11.4,0,0,1-2.45,4,10.62,10.62,0,0,1-3.83,2.54,14.58,14.58,0,0,1-10,0,10.73,10.73,0,0,1-3.85-2.54,11.44,11.44,0,0,1-2.47-4,15,15,0,0,1-.87-5.28,15,15,0,0,1,.88-5.26,11.2,11.2,0,0,1,2.47-4,10.9,10.9,0,0,1,3.85-2.52A13.59,13.59,0,0,1,150.75,28.26Zm0,20.81A5.21,5.21,0,0,0,155.3,47a10.34,10.34,0,0,0,1.48-6,10.46,10.46,0,0,0-1.48-6.07,5.19,5.19,0,0,0-4.55-2.09,5.26,5.26,0,0,0-4.61,2.1A10.41,10.41,0,0,0,144.65,41a10.29,10.29,0,0,0,1.49,6A5.29,5.29,0,0,0,150.75,49.07Z"/></g></g></svg>