<svg xmlns="http://www.w3.org/2000/svg" viewBox="0 0 239.19 73.85"><defs><style>.cls-1{fill:#2096ff;}.cls-2{fill:#fff;}</style></defs><title>portugese bubble</title><g id="Layer_2" data-name="Layer 2"><g id="Layer_1-2" data-name="Layer 1"><rect class="cls-1" x="26.24" width="212.94" height="73.85" rx="7.39" ry="7.39"/><path class="cls-1" d="M1,38.71,28,54.29a2.06,2.06,0,0,0,3.1-1.79V21.35A2.06,2.06,0,0,0,28,19.56L1,35.14A2.06,2.06,0,0,0,1,38.71Z"/><path class="cls-2" d="M131.25,35.92A19.22,19.22,0,0,1,130,43a16.74,16.74,0,0,1-3.58,5.63,16.2,16.2,0,0,1-5.54,3.71,20,20,0,0,1-14.36,0,16.29,16.29,0,0,1-5.57-3.71A16.65,16.65,0,0,1,97.34,43a19.24,19.24,0,0,1-1.27-7.07,19.24,19.24,0,0,1,1.27-7.07,16.65,16.65,0,0,1,3.59-5.63,16.29,16.29,0,0,1,5.57-3.71,18.79,18.79,0,0,1,7.19-1.33,18.57,18.57,0,0,1,7.18,1.34A16.2,16.2,0,0,1,130,28.85,19.22,19.22,0,0,1,131.25,35.92Zm-6.62,0a16.16,16.16,0,0,0-.76-5.12,10.85,10.85,0,0,0-2.17-3.85,9.36,9.36,0,0,0-3.44-2.42,12.9,12.9,0,0,0-9.16,0,9.45,9.45,0,0,0-3.47,2.42,10.89,10.89,0,0,0-2.2,3.85,15.94,15.94,0,0,0-.77,5.12,15.94,15.94,0,0,0,.77,5.12,10.76,10.76,0,0,0,2.2,3.84,9.5,9.5,0,0,0,3.47,2.41,12.9,12.9,0,0,0,9.16,0,9.42,9.42,0,0,0,3.44-2.41A10.72,10.72,0,0,0,123.87,41,16.16,16.16,0,0,0,124.63,35.92Z"/><path class="cls-2" d="M142.32,17.61V53.27h-5.93V17.61Z"/><path class="cls-2" d="M168.31,53.27h-2.66a2.87,2.87,0,0,1-1.32-.25,1.62,1.62,0,0,1-.72-1l-.53-1.75a20.35,20.35,0,0,1-1.84,1.48,11.21,11.21,0,0,1-1.86,1.07,9.5,9.5,0,0,1-2,.65,12.27,12.27,0,0,1-2.4.22,9.44,9.44,0,0,1-2.88-.42A6.2,6.2,0,0,1,149.79,52a5.74,5.74,0,0,1-1.48-2.1,7.46,7.46,0,0,1-.53-2.91,5.76,5.76,0,0,1,.73-2.76A6.9,6.9,0,0,1,151,41.75a15.53,15.53,0,0,1,4.54-1.82,29,29,0,0,1,7-.72V37.76a5.5,5.5,0,0,0-1-3.69,3.81,3.81,0,0,0-3-1.2,7.34,7.34,0,0,0-2.4.34,9.28,9.28,0,0,0-1.67.76l-1.31.76a2.65,2.65,0,0,1-1.32.34,1.72,1.72,0,0,1-1-.31A2.45,2.45,0,0,1,150,34l-1.08-1.9a14.64,14.64,0,0,1,10.25-3.89,9.91,9.91,0,0,1,3.85.71,8.19,8.19,0,0,1,2.87,2,8.42,8.42,0,0,1,1.79,3,11.57,11.57,0,0,1,.61,3.84Zm-11.52-3.7a8,8,0,0,0,1.68-.17,6.46,6.46,0,0,0,1.45-.5,7.79,7.79,0,0,0,1.32-.81A12,12,0,0,0,162.52,47V42.83a24.1,24.1,0,0,0-4.33.33,11.44,11.44,0,0,0-2.8.83,3.6,3.6,0,0,0-1.5,1.18,2.63,2.63,0,0,0-.44,1.47,2.6,2.6,0,0,0,.92,2.25A4,4,0,0,0,156.79,49.57Zm10.46-31.39-5.93,6.26a2.77,2.77,0,0,1-.88.66,2.8,2.8,0,0,1-1.09.18H155.8l3.41-5.83a2.81,2.81,0,0,1,.84-.95,2.59,2.59,0,0,1,1.44-.32Z"/></g></g></svg>