<svg xmlns="http://www.w3.org/2000/svg" viewBox="0 0 212.94 101.13"><defs><style>.cls-1{fill:#2096ff;}.cls-2{fill:#fff;}</style></defs><title>french bubble</title><g id="Layer_2" data-name="Layer 2"><g id="Layer_1-2" data-name="Layer 1"><rect class="cls-1" width="212.94" height="73.85" rx="7.39" ry="7.39"/><path class="cls-1" d="M108.26,100.09l15.58-27A2.06,2.06,0,0,0,122,70H90.9a2.06,2.06,0,0,0-1.79,3.1l15.58,27A2.06,2.06,0,0,0,108.26,100.09Z"/><path class="cls-2" d="M37.33,49.1V20.18h10a18.89,18.89,0,0,1,4.85.54,9.24,9.24,0,0,1,3.3,1.54,6,6,0,0,1,1.89,2.42,8.16,8.16,0,0,1,.6,3.2,6.31,6.31,0,0,1-.3,2,5.63,5.63,0,0,1-.93,1.74A7,7,0,0,1,55.12,33a9.68,9.68,0,0,1-2.31,1.12q6,1.34,6,6.44a8.21,8.21,0,0,1-.7,3.4,7.51,7.51,0,0,1-2,2.69,9.74,9.74,0,0,1-3.3,1.77,14.41,14.41,0,0,1-4.48.64Zm5.38-16.4H47a7.2,7.2,0,0,0,4.16-1,3.62,3.62,0,0,0,1.42-3.18,3.77,3.77,0,0,0-1.28-3.22,6.69,6.69,0,0,0-4-1h-4.6Zm0,3.72V44.9h5.46a7.54,7.54,0,0,0,2.51-.36,4.35,4.35,0,0,0,1.62-1,3.51,3.51,0,0,0,.88-1.4,5.26,5.26,0,0,0,.27-1.7,4.51,4.51,0,0,0-.3-1.69,3.17,3.17,0,0,0-.94-1.28,4.4,4.4,0,0,0-1.64-.81,9.08,9.08,0,0,0-2.42-.28Z"/><path class="cls-2" d="M71.87,28.26A11.25,11.25,0,0,1,76,29a9,9,0,0,1,3.19,2.1,9.3,9.3,0,0,1,2,3.32,13.75,13.75,0,0,1,0,8.78,9.49,9.49,0,0,1-2,3.34A8.86,8.86,0,0,1,76,48.66a12.15,12.15,0,0,1-8.35,0,8.94,8.94,0,0,1-3.21-2.12,9.53,9.53,0,0,1-2.06-3.34,13.56,13.56,0,0,1,0-8.78,9.33,9.33,0,0,1,2.06-3.32A9.08,9.08,0,0,1,67.69,29,11.33,11.33,0,0,1,71.87,28.26Zm0,17.34a4.35,4.35,0,0,0,3.79-1.72,8.63,8.63,0,0,0,1.23-5,8.73,8.73,0,0,0-1.23-5.06A4.33,4.33,0,0,0,71.87,32,4.39,4.39,0,0,0,68,33.79a8.68,8.68,0,0,0-1.24,5.05,8.58,8.58,0,0,0,1.24,5A4.41,4.41,0,0,0,71.87,45.6Z"/><path class="cls-2" d="M85.85,49.1V28.58h3a1.21,1.21,0,0,1,1.26.9l.34,1.62a11.28,11.28,0,0,1,1.31-1.16,9.17,9.17,0,0,1,1.46-.9,7.46,7.46,0,0,1,1.65-.58,8.69,8.69,0,0,1,1.92-.2,7.36,7.36,0,0,1,3,.57,5.89,5.89,0,0,1,2.17,1.6,7.05,7.05,0,0,1,1.32,2.46,10.46,10.46,0,0,1,.45,3.15V49.1H98.79V36a4.38,4.38,0,0,0-.87-2.91,3.23,3.23,0,0,0-2.61-1,5.14,5.14,0,0,0-2.4.58,8.59,8.59,0,0,0-2.12,1.58V49.1Z"/><path class="cls-2" d="M113.85,28.58V49.8a8.82,8.82,0,0,1-.35,2.52,5.52,5.52,0,0,1-1.12,2.07,5.22,5.22,0,0,1-2,1.4,8.09,8.09,0,0,1-3,.51,8.79,8.79,0,0,1-1.3-.09,7.73,7.73,0,0,1-1.22-.29l.16-2.66a.59.59,0,0,1,.32-.51,3,3,0,0,1,1-.11,4.48,4.48,0,0,0,1.25-.15,1.79,1.79,0,0,0,.82-.48,1.89,1.89,0,0,0,.44-.87,5.82,5.82,0,0,0,.13-1.34V28.58Zm.74-6a2.82,2.82,0,0,1-.26,1.2,3.26,3.26,0,0,1-1.7,1.65,3.09,3.09,0,0,1-1.24.25,3,3,0,0,1-1.21-.25,3.19,3.19,0,0,1-1-.67,3.23,3.23,0,0,1-.67-1,2.91,2.91,0,0,1-.25-1.2,3.1,3.1,0,0,1,.25-1.24,3.13,3.13,0,0,1,1.66-1.67,3,3,0,0,1,1.21-.25,3.1,3.1,0,0,1,1.24.25,3.32,3.32,0,0,1,1,.67,3.23,3.23,0,0,1,.69,1A3,3,0,0,1,114.59,22.6Z"/><path class="cls-2" d="M128.11,28.26a11.25,11.25,0,0,1,4.17.74,9,9,0,0,1,3.19,2.1,9.3,9.3,0,0,1,2,3.32,13.75,13.75,0,0,1,0,8.78,9.49,9.49,0,0,1-2,3.34,8.86,8.86,0,0,1-3.19,2.12,12.15,12.15,0,0,1-8.35,0,8.94,8.94,0,0,1-3.21-2.12,9.53,9.53,0,0,1-2.06-3.34,13.56,13.56,0,0,1,0-8.78,9.33,9.33,0,0,1,2.06-3.32,9.08,9.08,0,0,1,3.21-2.1A11.33,11.33,0,0,1,128.11,28.26Zm0,17.34a4.35,4.35,0,0,0,3.79-1.72,8.63,8.63,0,0,0,1.23-5,8.73,8.73,0,0,0-1.23-5.06A4.33,4.33,0,0,0,128.11,32a4.39,4.39,0,0,0-3.84,1.75A8.68,8.68,0,0,0,123,38.84a8.58,8.58,0,0,0,1.24,5A4.41,4.41,0,0,0,128.11,45.6Z"/><path class="cls-2" d="M146.61,28.58v13a4.38,4.38,0,0,0,.87,2.91,3.23,3.23,0,0,0,2.61,1,5.22,5.22,0,0,0,2.4-.57,8.41,8.41,0,0,0,2.12-1.57V28.58h4.94V49.1h-3a1.21,1.21,0,0,1-1.26-.9l-.34-1.64a14.41,14.41,0,0,1-1.32,1.17,8,8,0,0,1-1.45.9,8.09,8.09,0,0,1-1.66.58,8.29,8.29,0,0,1-1.91.21,7.29,7.29,0,0,1-3-.57,6,6,0,0,1-2.17-1.61,7,7,0,0,1-1.33-2.47,10.46,10.46,0,0,1-.45-3.15v-13Z"/><path class="cls-2" d="M164.83,49.1V28.58h2.9a1.55,1.55,0,0,1,1.06.28,1.61,1.61,0,0,1,.4,1l.3,2.48a9.76,9.76,0,0,1,2.58-3,5.43,5.43,0,0,1,3.32-1.1,4.29,4.29,0,0,1,2.52.7l-.64,3.7a.76.76,0,0,1-.26.51.88.88,0,0,1-.54.15,3.37,3.37,0,0,1-.82-.14,5.49,5.49,0,0,0-1.38-.14,4.19,4.19,0,0,0-2.64.85,6.55,6.55,0,0,0-1.86,2.49V49.1Z"/></g></g></svg>