<svg xmlns="http://www.w3.org/2000/svg" viewBox="0 0 238.46 73.85"><defs><style>.cls-1{fill:#2096ff;}.cls-2{fill:#fff;}</style></defs><title>German bubble</title><g id="Layer_2" data-name="Layer 2"><g id="Layer_1-2" data-name="Layer 1"><rect class="cls-1" width="212.94" height="73.85" rx="7.39" ry="7.39"/><path class="cls-1" d="M237.43,35.14l-27-15.58a2.06,2.06,0,0,0-3.1,1.79V52.5a2.06,2.06,0,0,0,3.1,1.79l27-15.58A2.06,2.06,0,0,0,237.43,35.14Z"/><path class="cls-2" d="M81.9,53.27h-6.5V38.1H59.12V53.27h-6.5V18.57h6.5V33.49H75.39V18.57h6.5Z"/><path class="cls-2" d="M107.86,53.27H105.2a2.86,2.86,0,0,1-1.32-.25,1.62,1.62,0,0,1-.72-1l-.53-1.75a20.49,20.49,0,0,1-1.84,1.48,11.21,11.21,0,0,1-1.86,1.07,9.51,9.51,0,0,1-2,.65,12.29,12.29,0,0,1-2.4.22,9.45,9.45,0,0,1-2.88-.42A6.21,6.21,0,0,1,89.35,52a5.75,5.75,0,0,1-1.48-2.1A7.46,7.46,0,0,1,87.34,47a5.76,5.76,0,0,1,.73-2.76,6.9,6.9,0,0,1,2.44-2.46A15.55,15.55,0,0,1,95,39.93a29,29,0,0,1,7-.72V37.76a5.5,5.5,0,0,0-1-3.69,3.81,3.81,0,0,0-3-1.2,7.35,7.35,0,0,0-2.4.34,9.31,9.31,0,0,0-1.67.76l-1.31.76a2.65,2.65,0,0,1-1.32.34,1.72,1.72,0,0,1-1-.31,2.46,2.46,0,0,1-.7-.77l-1.08-1.9a14.64,14.64,0,0,1,10.25-3.89,9.9,9.9,0,0,1,3.85.71,8.19,8.19,0,0,1,2.87,2,8.44,8.44,0,0,1,1.79,3,11.57,11.57,0,0,1,.61,3.84Zm-11.52-3.7A8,8,0,0,0,98,49.41a6.48,6.48,0,0,0,1.45-.5,7.87,7.87,0,0,0,1.32-.81A12.09,12.09,0,0,0,102.08,47V42.83a24.09,24.09,0,0,0-4.33.33A11.46,11.46,0,0,0,95,44a3.61,3.61,0,0,0-1.5,1.18A2.64,2.64,0,0,0,93,46.65a2.6,2.6,0,0,0,.92,2.25A4,4,0,0,0,96.34,49.57Z"/><path class="cls-2" d="M120,17.61V53.27h-5.93V17.61Z"/><path class="cls-2" d="M133,17.61V53.27h-5.93V17.61Z"/><path class="cls-2" d="M150.22,28.26a13.5,13.5,0,0,1,5,.89,10.78,10.78,0,0,1,3.83,2.52,11.16,11.16,0,0,1,2.45,4,15.15,15.15,0,0,1,.86,5.26,15.22,15.22,0,0,1-.86,5.28,11.4,11.4,0,0,1-2.45,4,10.62,10.62,0,0,1-3.83,2.54,14.58,14.58,0,0,1-10,0,10.73,10.73,0,0,1-3.85-2.54,11.44,11.44,0,0,1-2.47-4,15,15,0,0,1-.87-5.28,15,15,0,0,1,.88-5.26,11.2,11.2,0,0,1,2.47-4,10.9,10.9,0,0,1,3.85-2.52A13.59,13.59,0,0,1,150.22,28.26Zm0,20.81A5.21,5.21,0,0,0,154.77,47a10.34,10.34,0,0,0,1.48-6,10.46,10.46,0,0,0-1.48-6.07,5.19,5.19,0,0,0-4.55-2.09,5.26,5.26,0,0,0-4.61,2.1A10.41,10.41,0,0,0,144.13,41a10.29,10.29,0,0,0,1.49,6A5.29,5.29,0,0,0,150.22,49.07Z"/></g></g></svg>