<svg xmlns="http://www.w3.org/2000/svg" viewBox="0 0 115.95 136.87"><defs><style>.cls-1{fill:#e7dc48;}.cls-2{fill:#29b473;}.cls-3{fill:#844f4f;}.cls-4{fill:#4c3030;}.cls-5{fill:#2f2d3d;}</style></defs><title>English</title><g id="Layer_2" data-name="Layer 2"><g id="Layer_1-2" data-name="Layer 1"><polyline class="cls-1" points="12.98 81.08 58.31 136.87 103.65 81.08"/><circle class="cls-2" cx="57.97" cy="57.97" r="50.9"/><path class="cls-2" d="M58,115.95a58,58,0,1,1,58-58A58,58,0,0,1,58,115.95ZM58,1.74A56.23,56.23,0,1,0,114.21,58,56.29,56.29,0,0,0,58,1.74Z"/><path class="cls-3" d="M80.66,63.71V75.63c0,9.81-10.42,26.76-23.17,26.76h0c-12.75,0-23.2-16.95-23.2-26.76V63.71"/><path class="cls-4" d="M48.83,89c0,2.51,4.46,10.63,9.35,10.48s9-8.51,8.83-11c-.09-1.86-2.47.07-9.09.27S48.84,87.12,48.83,89Z"/><path class="cls-5" d="M65.76,79.73c-.23,2.2.72,4.12,2.12,4.27s2.72-1.5,2.94-3.7S70.1,76.19,68.7,76,66,77.52,65.76,79.73Z"/><path class="cls-5" d="M45.34,80.26c.22,2.2,1.54,3.84,2.93,3.66s2.35-2.12,2.12-4.32-1.54-3.84-2.93-3.66S45.11,78.06,45.34,80.26Z"/><rect class="cls-5" x="29.46" y="49.22" width="9.67" height="25.61"/><rect class="cls-5" x="76.82" y="51.16" width="10.63" height="25.61"/><ellipse class="cls-3" cx="33.53" cy="76.77" rx="8.88" ry="9.67"/><ellipse class="cls-3" cx="82.42" cy="76.77" rx="8.88" ry="9.67"/><circle class="cls-5" cx="58.46" cy="26.99" r="13.53"/><ellipse class="cls-5" cx="45.47" cy="53.15" rx="14.5" ry="17.51" transform="translate(-24.27 47.72) rotate(-45)"/><ellipse class="cls-5" cx="71.57" cy="53.15" rx="17.51" ry="14.5" transform="translate(-16.62 66.17) rotate(-45)"/><ellipse class="cls-5" cx="58.46" cy="47.77" rx="29" ry="15.95"/></g></g></svg>