<svg xmlns="http://www.w3.org/2000/svg" viewBox="0 0 75.52 89.15"><defs><style>.cls-1{fill:#e7dc48;}.cls-2{fill:#29b473;}.cls-3{fill:#f7a1b5;}.cls-4{fill:#d16984;}.cls-5{fill:#427c6a;}.cls-6{fill:#554f6e;}</style></defs><title>French</title><g id="Layer_2" data-name="Layer 2"><g id="Layer_1-2" data-name="Layer 1"><polyline class="cls-1" points="8.45 52.81 37.98 89.15 67.51 52.81"/><circle class="cls-2" cx="37.76" cy="37.76" r="33.16"/><path class="cls-2" d="M37.76,75.52A37.76,37.76,0,1,1,75.52,37.76,37.8,37.8,0,0,1,37.76,75.52Zm0-74.39A36.63,36.63,0,1,0,74.39,37.76,36.67,36.67,0,0,0,37.76,1.14Z"/><rect class="cls-3" x="20.84" y="18.17" width="32.94" height="44.86" rx="16.47" ry="16.47"/><path class="cls-4" d="M33.31,51.34c0,2.09,2.19,8.9,4.45,8.84s4-7,4-9.07c-.07-1.55-1.14,0-4.2.12S33.29,49.79,33.31,51.34Z"/><ellipse class="cls-5" cx="45.4" cy="42.3" rx="1.63" ry="3.34" transform="translate(-0.82 0.9) rotate(-1.12)"/><ellipse class="cls-5" cx="29.29" cy="42.87" rx="3.34" ry="1.63" transform="translate(-15.08 69.84) rotate(-86.95)"/><rect class="cls-6" x="18.57" y="24.99" width="5.74" height="17.6"/><rect class="cls-6" x="51.44" y="24.99" width="5.74" height="17.6"/><circle class="cls-3" cx="18.85" cy="44.01" r="6.53"/><circle class="cls-3" cx="55.76" cy="46.28" r="6.53"/><path class="cls-6" d="M21.27,29.53C25.54,32,28.47,29,33.72,31.8c4.81,2.52,6.92,7.4,7.78,6.81s-1.65-6.45-1-6.81c1.09-.65,10.09,17,12.45,15.9,1.25-.58-1.07-5.6.52-12.49,1.71-7.44,4-8.26,3.63-11.36C56,14.79,31.64,2.27,20.75,17,18.51,20.07,17,27.09,21.27,29.53Z"/></g></g></svg>