<svg xmlns="http://www.w3.org/2000/svg" viewBox="0 0 90.37 106.68"><defs><style>.cls-1{fill:#e7dc48;}.cls-2{fill:#29b473;}.cls-3{fill:#d1ab33;}.cls-4{fill:#ffbeb3;}.cls-5{fill:#d16984;}.cls-6{fill:#7170c4;}</style></defs><title>german</title><g id="Layer_2" data-name="Layer 2"><g id="Layer_1-2" data-name="Layer 1"><polyline class="cls-1" points="10.12 63.19 45.45 106.68 80.78 63.19"/><circle class="cls-2" cx="45.19" cy="45.19" r="39.67"/><path class="cls-2" d="M45.19,90.37A45.19,45.19,0,1,1,90.37,45.19,45.24,45.24,0,0,1,45.19,90.37Zm0-89A43.83,43.83,0,1,0,89,45.19,43.88,43.88,0,0,0,45.19,1.36Z"/><rect class="cls-3" x="19.12" y="36.01" width="54" height="33.29"/><rect class="cls-4" x="20.92" y="20.38" width="50.4" height="53.68" rx="25.2" ry="25.2"/><path class="cls-5" d="M35.24,62.86c0,2.21,5.43,9.31,11.42,9.15s11-7.56,10.9-9.77c-.11-1.64-3.29,1.4-11.41,1.63S35.26,61.23,35.24,62.86Z"/><path class="cls-6" d="M53.19,52.45c-.07,2,.74,3.6,1.82,3.64s2-1.51,2.08-3.48S56.34,49,55.27,49,53.26,50.48,53.19,52.45Z"/><path class="cls-6" d="M36,52.68c.13,2,1.1,3.49,2.18,3.41s1.84-1.74,1.71-3.71-1.1-3.49-2.18-3.41S35.82,50.72,36,52.68Z"/><rect class="cls-3" x="19.12" y="33.3" width="6.06" height="18.01"/><rect class="cls-3" x="67.05" y="33.3" width="6.06" height="18.01"/><circle class="cls-4" cx="20.65" cy="53" r="7.81"/><circle class="cls-4" cx="71.61" cy="53" r="7.81"/><path class="cls-3" d="M73.31,33.86c0,8.8-12.13,9.56-27.09,9.56-4.25,0-7.09.24-9.74-.21-1.58-.27-15.71-2.76-17.35-9.35-1.88-7.51,12-22.31,27.09-22.31C61.18,11.55,73.31,25.06,73.31,33.86Z"/></g></g></svg>