<svg xmlns="http://www.w3.org/2000/svg" viewBox="0 0 133 157"><defs><style>.cls-1{fill:#e7dc48;}.cls-2{fill:#29b473;}.cls-3{fill:#ea9e7d;}.cls-4{fill:#c17256;}.cls-5{fill:#554f6e;}</style></defs><title>portugese</title><g id="Layer_2" data-name="Layer 2"><g id="Layer_1-2" data-name="Layer 1"><polyline class="cls-1" points="14.89 93 66.89 157 118.89 93"/><circle class="cls-2" cx="66.5" cy="66.5" r="58.39"/><path class="cls-2" d="M66.5,133A66.5,66.5,0,1,1,133,66.5,66.58,66.58,0,0,1,66.5,133Zm0-131A64.5,64.5,0,1,0,131,66.5,64.57,64.57,0,0,0,66.5,2Z"/><rect class="cls-3" x="35.89" y="38" width="58" height="77.17" rx="29" ry="29"/><path class="cls-4" d="M53.63,98.69c0,3.18,5.79,13.47,12.07,13.29S77.18,101.21,77,98c-.13-2.36-3.18.09-11.69.32S53.63,96.33,53.63,98.69Z"/><ellipse class="cls-5" cx="79.14" cy="81" rx="5.88" ry="2.87" transform="translate(-34.1 81.91) rotate(-46.12)"/><ellipse class="cls-5" cx="50.77" cy="81" rx="2.87" ry="5.88" transform="translate(-41.13 54.7) rotate(-41.95)"/><rect class="cls-5" x="28.89" y="50" width="11" height="31"/><rect class="cls-5" x="91.89" y="50" width="11" height="31"/><circle class="cls-3" cx="32.39" cy="83.5" r="11.5"/><circle class="cls-3" cx="97.39" cy="87.5" r="11.5"/><path class="cls-5" d="M36.89,63c7.92,3.57,17-1.29,22-4,9.49-5.1,11.34-10.79,16-10,5.54.94,4.93,9.31,12,14,8.85,5.87,25.43,3.08,29-5,4.56-10.31-13.85-25.09-15-26-14.09-11.11-36.44-15.49-45-7-3.11,3.08-4.76,8.21-8,8s-3.55-5.16-7-6c-4.68-1.14-12.18,6-14,14C24.94,49.59,29.39,59.62,36.89,63Z"/></g></g></svg>