<svg xmlns="http://www.w3.org/2000/svg" xmlns:xlink="http://www.w3.org/1999/xlink" viewBox="0 0 1017.79 601.5"><defs><style>.cls-1,.cls-2,.cls-3,.cls-35,.cls-6,.cls-7,.cls-8{opacity:0.5;}.cls-1{fill:url(#linear-gradient);}.cls-2{fill:#18eadf;}.cls-3{fill:url(#linear-gradient-2);}.cls-4{fill:#e7dc48;}.cls-4,.cls-5{opacity:0.25;}.cls-5{fill:#fe6462;}.cls-6{fill:#23d160;}.cls-7,.cls-9{fill:#fff;}.cls-10{fill:#4f6e7f;}.cls-11{fill:#33546a;}.cls-12{fill:#b26e60;}.cls-13{fill:#7f473c;}.cls-14{fill:#fc8b52;}.cls-15{fill:#e09489;}.cls-16{fill:#664437;}.cls-17{fill:#554f6e;}.cls-18{fill:#95b894;}.cls-19{fill:#80a68b;}.cls-20{fill:#fed6a2;}.cls-21{fill:#fcc78e;}.cls-22{fill:#fdc23e;}.cls-23{fill:#fee0b1;}.cls-24{fill:#e4b17c;}.cls-25{fill:#664336;}.cls-26{fill:#fe9656;}.cls-27{fill:#69a1dd;}.cls-28{fill:#fe6473;}.cls-29{fill:#9da2cb;}.cls-30{fill:#8db8e0;}.cls-31{fill:#fd6573;}.cls-32{fill:#fcdfac;}.cls-33{fill:#f7cc8f;}.cls-34{fill:#e2927d;}.cls-35{fill:url(#linear-gradient-3);}</style><linearGradient id="linear-gradient" x1="636.59" y1="599.5" x2="636.59" y2="285.5" gradientUnits="userSpaceOnUse"><stop offset="0" stop-color="#18eadf" stop-opacity="0.25"/><stop offset="1" stop-color="#18eadf" stop-opacity="0.5"/></linearGradient><linearGradient id="linear-gradient-2" x1="619.59" y1="598.5" x2="619.59" y2="167.5" gradientUnits="userSpaceOnUse"><stop offset="0" stop-color="#fe6462" stop-opacity="0.25"/><stop offset="1" stop-color="#fe6462" stop-opacity="0.5"/></linearGradient><linearGradient id="linear-gradient-3" x1="598.38" y1="601.5" x2="598.38" y2="321.5" gradientTransform="translate(1196.77 923) rotate(-180)" gradientUnits="userSpaceOnUse"><stop offset="0" stop-color="#23d160" stop-opacity="0.25"/><stop offset="1" stop-color="#23d160" stop-opacity="0.5"/></linearGradient></defs><title>paths</title><g id="Layer_2" data-name="Layer 2"><g id="Layer_1-2" data-name="Layer 1"><rect class="cls-1" x="628.04" y="285.5" width="17.1" height="314" rx="8.55" ry="8.55"/><rect class="cls-2" x="774.94" y="137.05" width="17.1" height="314" rx="8.55" ry="8.55" transform="translate(489.44 1077.54) rotate(-90)"/><rect class="cls-3" x="611.04" y="167.5" width="17.1" height="431" rx="8.55" ry="8.55"/><rect class="cls-4" x="574.04" y="238.5" width="17.1" height="360" rx="8.55" ry="8.55"/><rect class="cls-4" x="375.99" y="40.45" width="17.1" height="414.1" rx="8.55" ry="8.55" transform="translate(632.04 -137.04) rotate(90)"/><rect class="cls-4" x="176.99" width="17.1" height="255.55" rx="8.55" ry="8.55" transform="translate(371.08 255.55) rotate(-180)"/><rect class="cls-2" x="911.41" y="256.72" width="17.1" height="51.62" rx="8.55" ry="8.55" transform="translate(69.68 733.26) rotate(-45)"/><rect class="cls-2" x="911.41" y="280.72" width="17.1" height="51.62" rx="8.55" ry="8.55" transform="translate(486.2 -560.73) rotate(45)"/><rect class="cls-5" x="599.41" y="163.72" width="17.1" height="51.62" rx="8.55" ry="8.55" transform="translate(903.84 753.43) rotate(-135)"/><rect class="cls-5" x="623.41" y="163.72" width="17.1" height="51.62" rx="8.55" ry="8.55" transform="translate(51.08 502.38) rotate(-45)"/><rect class="cls-6" x="90.41" y="292.72" width="17.1" height="51.62" rx="8.55" ry="8.55" transform="translate(-56.29 613.73) rotate(-135)"/><circle class="cls-7" cx="982.58" cy="288.73" r="29.21"/><g class="cls-8"><path class="cls-9" d="M983,323.18a34.83,34.83,0,1,1,34.83-34.83A34.87,34.87,0,0,1,983,323.18Zm0-67.41a32.59,32.59,0,1,0,32.58,32.58A32.62,32.62,0,0,0,983,255.77Z"/></g><path class="cls-10" d="M969.1,298.46a2.38,2.38,0,0,1,1.41-1.06c1.43-.51,2.87-1,4.31-1.45a1.06,1.06,0,0,1,1.41.37,6.17,6.17,0,0,0,.7,1.75,8.18,8.18,0,0,0,1.54,2.67,6.35,6.35,0,0,0,6.71,2.21,6.64,6.64,0,0,0,5-4.9h0c.18,0,.19-.11.22-.23a3.8,3.8,0,0,0,.6-1.51,1,1,0,0,1,1.2-.42c1.57.51,3.15,1,4.71,1.58a2.46,2.46,0,0,1,1.41,1.21c-.37,0-.58.25-.79.48-1.08,1.23-2.1,2.5-3.22,3.68a5.78,5.78,0,0,0-1.58,4.76c.11,1.24,0,2.49,0,3.73H974.47V306a3.4,3.4,0,0,0-.88-2.32C972.08,302,970.6,300.21,969.1,298.46Z"/><path class="cls-11" d="M992.7,311.33c0-1.24.09-2.49,0-3.73a5.78,5.78,0,0,1,1.58-4.76c1.12-1.18,2.14-2.45,3.22-3.68.21-.23.42-.49.79-.48.77,1,.63,2.16.79,3.27.33,2.19.56,4.38.82,6.58a2.67,2.67,0,0,1-1.82,2.8Z"/><path class="cls-11" d="M969.1,298.46c1.5,1.75,3,3.5,4.49,5.23a3.4,3.4,0,0,1,.88,2.32v5.32h-5.36a2.84,2.84,0,0,1-1.74-3.35c.36-2.56.63-5.14,1-7.71A2.75,2.75,0,0,1,969.1,298.46Z"/><path class="cls-12" d="M988.41,292l.19.21c0,.32,0,.64,0,1,0,2.33.06,2.41,2.33,3.1a3.8,3.8,0,0,1-.6,1.51l-.22.23h0c-.38,0-.67.21-1,.36a12.65,12.65,0,0,1-8.93.82,26.24,26.24,0,0,0-3.29-1.16,6.17,6.17,0,0,1-.7-1.75l1.61-.45a12.92,12.92,0,0,0,7.3-1.34A21.44,21.44,0,0,0,988.41,292Z"/><path class="cls-13" d="M978.59,291.82c.61-.09,1,.52,1.67.42,2.26,1.28,4.52,1,6.8,0,.42-.17.82-.59,1.35-.25a21.44,21.44,0,0,1-3.27,2.5,12.92,12.92,0,0,1-7.3,1.34c.83-.72.73-1.7.72-2.66C978.55,292.75,978.58,292.29,978.59,291.82Z"/><path class="cls-14" d="M976.93,298.07a26.24,26.24,0,0,1,3.29,1.16,12.65,12.65,0,0,0,8.93-.82c.32-.15.61-.4,1-.36a6.64,6.64,0,0,1-5,4.9,6.35,6.35,0,0,1-6.71-2.21A8.18,8.18,0,0,1,976.93,298.07Z"/><path class="cls-14" d="M990.13,298.05l.22-.23C990.32,297.94,990.31,298.06,990.13,298.05Z"/><ellipse class="cls-12" cx="984.2" cy="280.09" rx="9.69" ry="14.47"/><path class="cls-15" d="M987.36,288.18c0,1.34-1.37,4.21-3.12,4.21s-3.21-2.87-3.21-4.21,1.42,0,3.17,0S987.36,286.84,987.36,288.18Z"/><ellipse class="cls-16" cx="980.09" cy="283.79" rx="0.84" ry="1.21"/><ellipse class="cls-16" cx="988.19" cy="283.79" rx="0.84" ry="1.21"/><path class="cls-17" d="M996.68,273.91a3.69,3.69,0,0,0-.82-2.25,4.59,4.59,0,0,0,.13-1.06c0-3.3-3.26-6-7.28-6a8.62,8.62,0,0,0-3.09.57,10,10,0,0,0-10.93,0,4.28,4.28,0,0,0-1.94-.47c-2,0-3.63,1.33-3.63,3a2.54,2.54,0,0,0,.35,1.26,4.77,4.77,0,0,0-1.37,3.29c0,2.32,1.79,4.29,4.29,5.05V284h4v-5.67a19,19,0,0,0,8.33,1.75,20,20,0,0,0,7.26-1.28V284h4v-8A3.69,3.69,0,0,0,996.68,273.91Z"/><ellipse class="cls-12" cx="975.03" cy="284.53" rx="2.74" ry="3.05"/><ellipse class="cls-12" cx="993.25" cy="284.53" rx="2.74" ry="3.05"/><circle class="cls-7" cx="34.46" cy="327.05" r="29.21"/><g class="cls-8"><path class="cls-9" d="M34.83,361.51a34.84,34.84,0,1,1,34.83-34.83A34.88,34.88,0,0,1,34.83,361.51Zm0-67.42a32.59,32.59,0,1,0,32.59,32.59A32.62,32.62,0,0,0,34.83,294.09Z"/></g><path class="cls-18" d="M21.69,335.48a2,2,0,0,1,1.33-1c1.31-.45,2.64-.85,3.94-1.33a1,1,0,0,1,1.27.31,6.06,6.06,0,0,0,1,2.26l.2.2h0a.88.88,0,0,0,.05.37,23.56,23.56,0,0,0,5.12,6.13.65.65,0,0,0,1,0,22.31,22.31,0,0,0,4-4.35,4.69,4.69,0,0,0,1.19-2.13h0l.2-.2a5.9,5.9,0,0,0,1-2.26,1,1,0,0,1,1.09-.37c1.46.5,2.93,1,4.39,1.49a1.66,1.66,0,0,1,1.07.87A46.2,46.2,0,0,1,45,339.65a4.47,4.47,0,0,0-1.38,3.42c.09,1.46,0,2.93,0,4.4H26.51c0-1.47-.07-2.94,0-4.4a4.59,4.59,0,0,0-1.38-3.42A38.36,38.36,0,0,1,21.69,335.48Z"/><path class="cls-19" d="M21.69,335.48a38.36,38.36,0,0,0,3.47,4.17,4.59,4.59,0,0,1,1.38,3.42c-.1,1.46,0,2.93,0,4.4h-5c-1.53-.8-1.72-2.08-1.46-3.65.36-2.24.59-4.49.87-6.74A2.2,2.2,0,0,1,21.69,335.48Z"/><path class="cls-19" d="M43.62,347.47c0-1.47.07-2.94,0-4.4A4.47,4.47,0,0,1,45,339.65a46.2,46.2,0,0,0,3.47-4.17,3.42,3.42,0,0,1,.88,2.45c.3,2.12.52,4.25.82,6.36a2.83,2.83,0,0,1-1.54,3.18Z"/><path class="cls-20" d="M39.39,329.41l.33.19c0,.4,0,.81,0,1.22,0,1.95.21,2.21,2.14,2.67a5.9,5.9,0,0,1-1,2.26l-.2.2h0a12.19,12.19,0,0,1-5.53,1.52,11.79,11.79,0,0,1-5.82-1.52h0l-.2-.2a6.06,6.06,0,0,1-1-2.26l1.53-.44c.66,0,1.33.15,2,.13a9.6,9.6,0,0,0,5.11-1.55c.82-.56,1.79-1,2.15-2h0A.4.4,0,0,0,39.39,329.41Z"/><path class="cls-21" d="M30.39,329.21l1.51.57a7.27,7.27,0,0,0,6.4.07l.7-.25c-.36,1-1.33,1.47-2.15,2a9.6,9.6,0,0,1-5.11,1.55c-.65,0-1.32-.14-2-.13a2.52,2.52,0,0,0,.62-2.24C30.37,330.28,30.39,329.74,30.39,329.21Z"/><path class="cls-22" d="M29.39,335.94a11.79,11.79,0,0,0,5.82,1.52,12.19,12.19,0,0,0,5.53-1.52,4.69,4.69,0,0,1-1.19,2.13,22.31,22.31,0,0,1-4,4.35.65.65,0,0,1-1,0,23.56,23.56,0,0,1-5.12-6.13A.88.88,0,0,1,29.39,335.94Z"/><path class="cls-22" d="M29.2,335.75l.2.2Z"/><path class="cls-22" d="M40.73,336l.2-.2Z"/><path class="cls-21" d="M39.39,329.41a.4.4,0,0,1-.39.19A.39.39,0,0,1,39.39,329.41Z"/><path class="cls-23" d="M47.46,316.91c0,7.89-5.24,14.29-11.71,14.29S24,324.8,24,316.91s5-9,11.48-9S47.46,309,47.46,316.91Z"/><path class="cls-24" d="M40.58,325.65c0,1.36-2.09,4.29-4.76,4.29s-4.91-2.93-4.91-4.29,2.17,0,4.84,0S40.58,324.28,40.58,325.65Z"/><ellipse class="cls-25" cx="30.78" cy="321.17" rx="1.01" ry="1.23"/><ellipse class="cls-25" cx="40.58" cy="321.17" rx="1.01" ry="1.23"/><path class="cls-26" d="M43.49,305.8c-.86-.49-1.83-.63-2.71-1.06h-12a4.52,4.52,0,0,0-2.42,1.93,1.93,1.93,0,0,1-1,1,5,5,0,0,0-2.81,4.84c.23,2.47.55,4.94.83,7.41,1.58-.53,1.59-.53,1.61-2.1a3.78,3.78,0,0,1,1.26-2.94,1.36,1.36,0,0,0,.5-1.77c-.1-.22-.2-.59.06-.74s.44.19.58.38A8.62,8.62,0,0,0,32.61,316c.27.06.55.22.77-.11a1,1,0,0,1-.37-.31,1,1,0,0,0,.37.31c0-.27,0-.54,0-.8s.15-.47.4-.23a15.55,15.55,0,0,0,4.89,2.62c1.68.2,1.68.2,1.68-1.65a1.63,1.63,0,0,1,.17-.82c.35.74.72,1.46,1,2.2.19.45.4.51.8.28.91-.52,1.87-1,2.77-1.51.63-.38.9-.18,1.05.5a5,5,0,0,1,.26,1.68c-.12.87.11,1.42,1,1.53a1.87,1.87,0,0,1,.52.24c.11-1.07.19-2.15.34-3.21C49,311.94,47.18,307.9,43.49,305.8Z"/><rect class="cls-26" x="23.56" y="312.68" width="2.77" height="10.56"/><rect class="cls-26" x="44.69" y="314.97" width="2.77" height="8.28"/><ellipse class="cls-23" cx="24.25" cy="321.92" rx="2.79" ry="3.12"/><ellipse class="cls-23" cx="46.61" cy="321.92" rx="2.79" ry="3.12"/><circle class="cls-7" cx="619.06" cy="128.73" r="29.21"/><g class="cls-8"><path class="cls-9" d="M619.44,163.19a34.84,34.84,0,1,1,34.83-34.84A34.88,34.88,0,0,1,619.44,163.19Zm0-67.42A32.59,32.59,0,1,0,652,128.35,32.63,32.63,0,0,0,619.44,95.77Z"/></g><path class="cls-27" d="M627.91,149.14H610.14l.06-5.13,17.51,0,.17,0Z"/><path class="cls-28" d="M610.2,144l-.06,5.13H606.7a3.13,3.13,0,0,1-1.21-3.58c.37-1.9.54-3.83.79-5.75a2,2,0,0,1,.57-1.28l3.29,5.26Z"/><path class="cls-28" d="M631.37,138.62c.41.2.34.68.57,1,.28,2.13.53,4.26.84,6.38.25,1.71-.09,2.43-1.62,3.16H628.1L628,144Z"/><path class="cls-29" d="M628,144l.09,5.17h-.19l0-5.15Z"/><path class="cls-30" d="M628,144l-.13,0-.17,0c-.32-.31-.73-.16-1.09-.17H610.14l-3.29-5.26c0-.22,0-.54.12-.63,1.08-.74,2-1.79,3.5-1.73.92,1.48,1.83,3,2.76,4.44a2.25,2.25,0,0,0,2.07,1.1c2.51,0,5,0,7.52,0a2.43,2.43,0,0,0,2.28-1.26c.87-1.44,1.77-2.85,2.66-4.28,1.33-.1,3.54,1.4,3.61,2.45Z"/><path class="cls-31" d="M627.76,136.17c-.89,1.43-1.79,2.84-2.66,4.28a2.43,2.43,0,0,1-2.28,1.26c-2.51,0-5,0-7.52,0a2.25,2.25,0,0,1-2.07-1.1c-.93-1.47-1.84-3-2.76-4.44l.33-.21c.66-.11,1.25-.9,2-.2,1.62,3.75,5.15,5.4,8.72,4a5.52,5.52,0,0,0,3.76-4.17C626.24,135.24,627,135.8,627.76,136.17Z"/><path class="cls-32" d="M623.32,131.75h.18c0,.54,0,1.07,0,1.61,0,1.45.3,1.83,1.76,2.23a5.52,5.52,0,0,1-3.76,4.17c-3.57,1.4-7.1-.25-8.72-4l1.35-.58a8.47,8.47,0,0,0,6.58-1.14,4.35,4.35,0,0,0,2.21-2.1h0A.37.37,0,0,0,623.32,131.75Z"/><path class="cls-29" d="M610.14,143.79h16.48c.36,0,.77-.14,1.09.17l-17.51,0Z"/><path class="cls-33" d="M622.94,131.94a4.35,4.35,0,0,1-2.21,2.1,8.47,8.47,0,0,1-6.58,1.14c.86-1,.47-2.27.57-3.42.51-.09.87.36,1.35.37a7,7,0,0,0,6.17.07C622.47,132.1,622.71,132,622.94,131.94Z"/><path class="cls-21" d="M623.32,131.75a.37.37,0,0,1-.38.19A.41.41,0,0,1,623.32,131.75Z"/><path class="cls-32" d="M631,119.48c0,7.88-5.24,14.28-11.71,14.28s-11.72-6.4-11.72-14.28,5-9,11.48-9S631,111.59,631,119.48Z"/><path class="cls-25" d="M612.17,108a13,13,0,0,1,4.55-1.68l.63-.12c1.4,0,1.9,0,2.88-.07a4.08,4.08,0,0,1,1.2.16c.77.21,1.54.41,2.29.68a13.78,13.78,0,0,1,9,12.38,55.42,55.42,0,0,0,3.17,17.37.77.77,0,0,1-.3.91,26.12,26.12,0,0,1-3.7,1.95c-.23-.3-.16-.78-.57-1-.07-1.05-2.28-2.55-3.61-2.45-.78-.37-1.52-.93-2.48-.58-1.46-.4-1.75-.78-1.76-2.23,0-.54,0-1.07,0-1.61,1-.72.51-3,1.6-3.58,1.34-.68,2.78-.45,3.16-1.53a2.47,2.47,0,0,1,1.71-1.32,2.07,2.07,0,0,0,1.73-1.87,2.42,2.42,0,0,0-1.49-2.31c-.73-.25-.81-.7-.76-1.38a3.48,3.48,0,0,0-1.67-3.39,4.42,4.42,0,0,0-2.13-.64c-1.89-.11-3.85.34-5.63-.65l-1-1.49a6.53,6.53,0,0,0-2.92-4.8A7.08,7.08,0,0,0,612.17,108Z"/><path class="cls-25" d="M612.17,108a7.08,7.08,0,0,1,4,.77,6.67,6.67,0,0,1,3,5.55,5.63,5.63,0,0,1-4.32,1.39,20.82,20.82,0,0,0-2.09,0,4,4,0,0,0-3.3,1.6,4.47,4.47,0,0,0-.77,2.88c0,.43,0,.75-.57.9a2,2,0,0,0-1.56,1.93,2.08,2.08,0,0,0,1.4,2.24c.5.2,3.09-.46,3.15.12.21,2.07,1.22,2.82,3.21,3.58.94.36-.38,2.18.45,2.8-.1,1.15.29,2.39-.57,3.42l-1.35.58c-.75-.7-1.34.09-2,.2-4.08-5.33-5.51-11.48-5.23-18C605.76,113.41,608.27,110.19,612.17,108Z"/><ellipse class="cls-32" cx="607.79" cy="124.11" rx="2.79" ry="3.12"/><ellipse class="cls-32" cx="629.73" cy="124.11" rx="2.79" ry="3.12"/><path class="cls-32" d="M619.24,133.76c5.37,0,9.88-4.41,11.27-10.42H608C609.35,129.35,613.87,133.76,619.24,133.76Z"/><path class="cls-34" d="M624.07,128.21c0,1.36-2.09,4.29-4.76,4.29s-4.91-2.93-4.91-4.29,2.17,0,4.84,0S624.07,126.84,624.07,128.21Z"/><ellipse class="cls-25" cx="614.27" cy="123.73" rx="1.01" ry="1.23" transform="translate(92.42 470.6) rotate(-45)"/><ellipse class="cls-25" cx="624.07" cy="123.73" rx="1.23" ry="1.01" transform="translate(95.29 477.53) rotate(-45)"/><path class="cls-25" d="M628.91,117c0,3.94-4.43,4-9.9,4s-9.91-.1-9.91-4,4.44-7.14,9.91-7.14S628.91,113,628.91,117Z"/><rect class="cls-6" x="333.94" y="65.05" width="17.1" height="530" rx="8.09" ry="8.09" transform="translate(12.44 672.54) rotate(-90)"/><rect class="cls-6" x="90.41" y="316.72" width="17.1" height="51.62" rx="8.55" ry="8.55" transform="translate(411.14 514.75) rotate(135)"/><rect class="cls-35" x="589.83" y="321.5" width="17.1" height="280" rx="8.55" ry="8.55" transform="translate(1196.77 923) rotate(180)"/></g></g></svg>