<svg xmlns="http://www.w3.org/2000/svg" viewBox="0 0 183.42 60"><defs><style>.cls-1{fill:#1c1c26;}.cls-2{fill:#fff;}</style></defs><title>Asset 1</title><g id="Layer_2" data-name="Layer 2"><g id="Layer_1-2" data-name="Layer 1"><rect class="cls-1" width="183.42" height="60" rx="8.11" ry="8.11"/><path class="cls-2" d="M47.83,39.66a29.56,29.56,0,0,1-2.68,5c-1.75,2.66-4.21,6-7.25,6-2.71,0-3.41-1.77-7.08-1.75s-4.44,1.78-7.15,1.75c-3,0-5.37-3-7.12-5.67-4.88-7.42-5.39-16.14-2.38-20.77A10.8,10.8,0,0,1,22.85,19c3.23,0,5.26,1.77,7.93,1.77S35,19,38.68,19a10.56,10.56,0,0,1,8,4.19C39.64,27,40.78,37,47.83,39.66Z"/><path class="cls-2" d="M35.85,16a9,9,0,0,0,2-6.71,9.79,9.79,0,0,0-6.32,3.4,8.42,8.42,0,0,0-2.06,6.54A8.22,8.22,0,0,0,35.85,16Z"/><path class="cls-2" d="M62.69,24.12l-7,20.57h3.2L61,38.37h6.77l2.14,6.32h3.29l-7-20.57Zm1.66,3.38c.24.92.49,1.87.82,2.9l1.88,5.45H61.69l1.86-5.49C63.83,29.47,64.1,28.51,64.35,27.5Z"/><path class="cls-2" d="M82.23,29.45a5.82,5.82,0,0,0-4.94,2.37l-.13-2H74.31l0,.26c.09,1.27.12,2.68.12,4.69V50.58h3.11v-7.4A5.47,5.47,0,0,0,81.82,45a6.4,6.4,0,0,0,4.71-2,8.47,8.47,0,0,0,2.08-6,8.29,8.29,0,0,0-1.8-5.46A5.94,5.94,0,0,0,82.23,29.45ZM81.46,32c2.77,0,4,2.57,4,5.11,0,3.29-1.58,5.33-4.13,5.33a3.78,3.78,0,0,1-3.67-2.89,4,4,0,0,1-.11-1v-2.5a4.52,4.52,0,0,1,.1-.77c0-.08,0-.17,0-.25A3.93,3.93,0,0,1,81.46,32Z"/><path class="cls-2" d="M98.26,29.45a5.84,5.84,0,0,0-5,2.37l-.12-2H90.34l0,.26c.08,1.27.12,2.68.12,4.69V50.58h3.11v-7.4A5.43,5.43,0,0,0,97.84,45a6.43,6.43,0,0,0,4.72-2,8.52,8.52,0,0,0,2.08-6,8.3,8.3,0,0,0-1.81-5.46A5.92,5.92,0,0,0,98.26,29.45ZM97.48,32c2.78,0,4,2.57,4,5.11,0,3.29-1.59,5.33-4.14,5.33a3.77,3.77,0,0,1-3.66-2.89,4,4,0,0,1-.11-1v-2.5a4.4,4.4,0,0,1,.1-.77c0-.09,0-.17,0-.25A4,4,0,0,1,97.48,32Z"/><path class="cls-2" d="M118.33,32.83c-2.9-1.12-3.83-2-3.83-3.64,0-1.38,1.09-2.77,3.54-2.77a7.14,7.14,0,0,1,3.65.92l.26.16.88-2.59-.17-.1a9,9,0,0,0-4.53-1c-4,0-6.74,2.34-6.74,5.7,0,2.7,1.73,4.59,5.46,5.95,2.64,1,3.62,2,3.62,3.73,0,2-1.51,3.18-4,3.18A8.6,8.6,0,0,1,112,41.08l-.27-.18-.83,2.66.15.1A10.6,10.6,0,0,0,116.34,45c5.35,0,7.24-3.26,7.24-6S122.06,34.3,118.33,32.83Z"/><path class="cls-2" d="M129.19,26.23l-3.06,1v2.59H123.9v2.48h2.23v7.62a5.87,5.87,0,0,0,1.08,3.95,4,4,0,0,0,3,1.18,7.36,7.36,0,0,0,2.41-.37l.17-.06-.15-2.49-.3.09a4.64,4.64,0,0,1-1.44.17c-1.21,0-1.72-.77-1.72-2.56V32.26h3.75V29.78h-3.75Z"/><path class="cls-2" d="M140.65,29.45c-4.35,0-7.39,3.25-7.39,7.9S136.2,45,140.41,45h0c3.56,0,7.4-2.48,7.4-7.93a7.85,7.85,0,0,0-2-5.5A6.92,6.92,0,0,0,140.65,29.45Zm-.09,2.46c2.8,0,4.08,2.72,4.08,5.26,0,3.12-1.74,5.39-4.14,5.39h0c-2.36,0-4.07-2.23-4.07-5.3C136.4,34.6,137.69,31.91,140.56,31.91Z"/><path class="cls-2" d="M157.37,29.59l-.19,0a2.91,2.91,0,0,0-.77-.1,4.44,4.44,0,0,0-3.9,2.5l-.09-2.17h-2.8l0,.26c.08,1.23.12,2.61.12,4.48l0,10.17h3.11V36.75a7.42,7.42,0,0,1,.09-1.2,3.43,3.43,0,0,1,3.27-3.14c.32,0,.57,0,.84.05l.33,0Z"/><path class="cls-2" d="M164.37,29.42c-4.15,0-7,3.31-7,8,0,4.56,2.88,7.51,7.33,7.51a11.94,11.94,0,0,0,4.93-.94l.19-.09-.6-2.32-.26.11a9.75,9.75,0,0,1-3.9.7,4.33,4.33,0,0,1-4.66-4.52l10,0,0-.19a7.36,7.36,0,0,0,.09-1.3C170.54,33.21,168.92,29.42,164.37,29.42Zm-.21,2.37a3,3,0,0,1,2.28.87,4.4,4.4,0,0,1,1.07,2.9h-7.09C160.71,33.76,161.83,31.79,164.16,31.79Z"/><path class="cls-2" d="M55.7,10.07a21.89,21.89,0,0,1,3-.21,6.68,6.68,0,0,1,4.38,1.2,4.27,4.27,0,0,1,1.54,3.51,5,5,0,0,1-1.55,3.79,7.23,7.23,0,0,1-4.8,1.4,21.13,21.13,0,0,1-2.56-.12Zm1.42,8.62a9.61,9.61,0,0,0,1.41.06c3,0,4.61-1.51,4.61-4.13,0-2.33-1.43-3.76-4.39-3.76a8.92,8.92,0,0,0-1.63.13Z"/><path class="cls-2" d="M69.62,19.83a3.52,3.52,0,0,1-3.73-3.6,3.61,3.61,0,0,1,3.86-3.71,3.48,3.48,0,0,1,3.74,3.58,3.63,3.63,0,0,1-3.86,3.73Zm0-.95A2.49,2.49,0,0,0,72,16.15a2.38,2.38,0,1,0-4.71,0,2.46,2.46,0,0,0,2.33,2.69Z"/><path class="cls-2" d="M75.72,12.68l1,3.54c.21.78.42,1.52.56,2.24h.05c.18-.71.44-1.46.69-2.23l1.27-3.55h1.19l1.2,3.5a22.76,22.76,0,0,1,.69,2.28h0a20.7,20.7,0,0,1,.59-2.27l1.11-3.51h1.4l-2.51,7H81.77l-1.19-3.34A22,22,0,0,1,79.89,14h0a17.62,17.62,0,0,1-.71,2.33L77.9,19.67H76.62l-2.35-7Z"/><path class="cls-2" d="M87,14.57c0-.73,0-1.31-.06-1.89h1.25l.08,1.14h0a3,3,0,0,1,2.57-1.3,2.66,2.66,0,0,1,2.74,3v4.17H92.17v-4c0-1.13-.46-2.08-1.8-2.08a2,2,0,0,0-1.89,1.3,1.82,1.82,0,0,0-.1.59v4.22H87Z"/><path class="cls-2" d="M95.88,9.42h1.41V19.67H95.88Z"/><path class="cls-2" d="M102.8,19.83a3.52,3.52,0,0,1-3.73-3.6,3.61,3.61,0,0,1,3.85-3.71,3.48,3.48,0,0,1,3.74,3.58,3.62,3.62,0,0,1-3.85,3.73Zm0-.95a2.49,2.49,0,0,0,2.36-2.73,2.37,2.37,0,1,0-4.7,0,2.45,2.45,0,0,0,2.33,2.69Z"/><path class="cls-2" d="M113.92,18a10.63,10.63,0,0,0,.11,1.67h-1.27l-.13-.88h0a3,3,0,0,1-2.38,1,2.12,2.12,0,0,1-2.37-2c0-1.69,1.66-2.61,4.67-2.6v-.14c0-.58-.18-1.63-1.77-1.62a4.09,4.09,0,0,0-2,.52l-.32-.85a5.48,5.48,0,0,1,2.57-.61c2.39,0,3,1.46,3,2.86Zm-1.38-1.9c-1.54,0-3.29.22-3.29,1.58a1.18,1.18,0,0,0,1.31,1.21,2,2,0,0,0,1.91-1.17,1.12,1.12,0,0,0,.07-.4Z"/><path class="cls-2" d="M122.89,9.42v8.45c0,.62,0,1.32.06,1.8h-1.26l-.07-1.21h0A2.89,2.89,0,0,1,119,19.83a3.33,3.33,0,0,1-3.34-3.55,3.48,3.48,0,0,1,3.48-3.76,2.68,2.68,0,0,1,2.35,1.06h0V9.42Zm-1.41,6.11a2,2,0,0,0-2.1-2,2.38,2.38,0,0,0-2.33,2.68,2.31,2.31,0,0,0,2.29,2.6,2.09,2.09,0,0,0,2.07-1.51,2,2,0,0,0,.07-.55Z"/><path class="cls-2" d="M131.8,19.83a3.52,3.52,0,0,1-3.73-3.6,3.61,3.61,0,0,1,3.86-3.71,3.48,3.48,0,0,1,3.74,3.58,3.63,3.63,0,0,1-3.86,3.73Zm0-.95a2.48,2.48,0,0,0,2.35-2.73,2.37,2.37,0,1,0-4.7,0,2.46,2.46,0,0,0,2.33,2.69Z"/><path class="cls-2" d="M137.45,14.57c0-.73,0-1.31-.07-1.89h1.26l.08,1.14h0a2.93,2.93,0,0,1,2.57-1.3,2.66,2.66,0,0,1,2.74,3v4.17h-1.41v-4c0-1.13-.47-2.08-1.8-2.08a2,2,0,0,0-1.89,1.3,1.59,1.59,0,0,0-.1.59v4.22h-1.41Z"/><path class="cls-2" d="M151.46,11v1.67h2v1h-2v3.77c0,.86.27,1.36,1.06,1.36a2.85,2.85,0,0,0,.82-.09l.06,1a4.5,4.5,0,0,1-1.25.17,2.16,2.16,0,0,1-1.53-.53,2.58,2.58,0,0,1-.54-1.84V13.65h-1.21v-1h1.21V11.39Z"/><path class="cls-2" d="M155.07,9.42h1.41v4.36h0a2.43,2.43,0,0,1,1-.9,3,3,0,0,1,1.44-.36,2.66,2.66,0,0,1,2.71,3v4.16h-1.41v-4c0-1.15-.47-2.08-1.8-2.08a2,2,0,0,0-1.89,1.27,1.37,1.37,0,0,0-.1.6v4.22h-1.41Z"/><path class="cls-2" d="M164.78,16.39a2.37,2.37,0,0,0,2.65,2.43,5.81,5.81,0,0,0,2.15-.35l.26.9a7,7,0,0,1-2.6.45c-2.38,0-3.82-1.44-3.82-3.53a3.55,3.55,0,0,1,3.65-3.78,3.06,3.06,0,0,1,3.2,3.29,3.16,3.16,0,0,1-.05.61Zm4.13-.91A1.88,1.88,0,0,0,167,13.42a2.19,2.19,0,0,0-2.16,2.06Z"/></g></g></svg>