<svg xmlns="http://www.w3.org/2000/svg" xmlns:xlink="http://www.w3.org/1999/xlink" viewBox="0 0 183.42 60"><defs><style>.cls-1{fill:none;}.cls-2{fill:#1c1c26;}.cls-3{clip-path:url(#clip-path);}.cls-4{fill:url(#linear-gradient);}.cls-5{fill:url(#linear-gradient-2);}.cls-6{fill:url(#linear-gradient-3);}.cls-7{fill:url(#linear-gradient-4);}.cls-8{fill:#f9f9f9;}.cls-9{fill:#f9f9fa;}</style><clipPath id="clip-path"><path class="cls-1" d="M39.75,26.41l-8.27-4.77s-15.07-8.7-15.95-9.22-1.77-.2-1.77.87V50.82c0,.8.63,1.15,1.4.7L31.48,42.1l8.27-4.78,8-4.59c.93-.53.84-1.27.06-1.7S39.75,26.41,39.75,26.41Z"/></clipPath><linearGradient id="linear-gradient" x1="24" y1="11.55" x2="24" y2="52.18" gradientUnits="userSpaceOnUse"><stop offset="0" stop-color="#257cb0"/><stop offset="0.21" stop-color="#3c8fb3"/><stop offset="0.74" stop-color="#73bdba"/><stop offset="1" stop-color="#89cfbd"/></linearGradient><linearGradient id="linear-gradient-2" x1="13.76" y1="21.64" x2="39.75" y2="21.64" gradientUnits="userSpaceOnUse"><stop offset="0" stop-color="#52c1ad"/><stop offset="1" stop-color="#dee89a"/></linearGradient><linearGradient id="linear-gradient-3" x1="26.75" y1="31.87" x2="26.75" y2="52.33" gradientUnits="userSpaceOnUse"><stop offset="0" stop-color="#ec413d"/><stop offset="0.19" stop-color="#d74352"/><stop offset="0.74" stop-color="#a04888"/><stop offset="1" stop-color="#8a4a9d"/></linearGradient><linearGradient id="linear-gradient-4" x1="41.72" y1="26.41" x2="41.72" y2="37.32" gradientUnits="userSpaceOnUse"><stop offset="0" stop-color="#f58879"/><stop offset="0.62" stop-color="#fbb276"/><stop offset="1" stop-color="#fec874"/></linearGradient></defs><title>Asset 2</title><g id="Layer_2" data-name="Layer 2"><g id="Layer_1-2" data-name="Layer 1"><rect class="cls-2" width="183.42" height="60" rx="8.11" ry="8.11"/><g id="PLAY"><g class="cls-3"><polygon class="cls-4" points="13.76 11.55 13.76 31.87 13.76 52.18 34.25 31.87 13.76 11.55"/><polygon class="cls-5" points="39.75 26.41 31.48 21.64 13.76 11.4 13.76 11.55 34.25 31.87 39.75 26.41"/><polygon class="cls-6" points="13.76 52.18 13.76 52.33 31.48 42.1 39.75 37.32 34.25 31.87 13.76 52.18"/><polygon class="cls-7" points="39.75 26.41 34.25 31.87 39.75 37.32 49.2 31.87 39.75 26.41"/></g></g><path class="cls-8" d="M142.75,39.81a5,5,0,0,1-2.11-.43,4,4,0,0,1-1.6-1.31h-.13a15.25,15.25,0,0,1,.13,2V44.9h-1.79V27.78h1.46L139,29.4H139A4.19,4.19,0,0,1,140.65,28a5,5,0,0,1,2.1-.43,4.37,4.37,0,0,1,3.63,1.61,7.08,7.08,0,0,1,1.27,4.51,7.07,7.07,0,0,1-1.29,4.52A4.4,4.4,0,0,1,142.75,39.81Zm-.26-10.73a3.19,3.19,0,0,0-2.62,1,5.15,5.15,0,0,0-.83,3.2v.4a5.94,5.94,0,0,0,.83,3.56,3.16,3.16,0,0,0,2.66,1.07,2.77,2.77,0,0,0,2.4-1.24,5.84,5.84,0,0,0,.87-3.42,5.66,5.66,0,0,0-.87-3.39A2.87,2.87,0,0,0,142.49,29.08Z"/><path class="cls-8" d="M151.8,39.59H150V22.82h1.79Z"/><path class="cls-8" d="M162.09,39.59l-.36-1.68h-.08a5.07,5.07,0,0,1-1.77,1.51,5.37,5.37,0,0,1-2.19.39,3.94,3.94,0,0,1-2.76-.91,3.3,3.3,0,0,1-1-2.57q0-3.59,5.72-3.75l2-.07v-.73a3,3,0,0,0-.6-2.06,2.47,2.47,0,0,0-1.91-.66,7.76,7.76,0,0,0-3.35.91l-.55-1.37a8.34,8.34,0,0,1,1.92-.75,8.25,8.25,0,0,1,2.08-.27,4.55,4.55,0,0,1,3.14.94,4,4,0,0,1,1,3v8.06ZM158,38.33a3.64,3.64,0,0,0,2.63-.91,3.38,3.38,0,0,0,1-2.57V33.78l-1.79.08a6.51,6.51,0,0,0-3.07.66,2,2,0,0,0-.95,1.83,1.86,1.86,0,0,0,.59,1.48A2.47,2.47,0,0,0,158,38.33Z"/><path class="cls-8" d="M164.45,27.78h1.92L169,34.52A25.74,25.74,0,0,1,170,37.85h.08c.1-.37.29-1,.59-1.88s1.27-3.62,2.93-8.19h1.92l-5.08,13.45a6.66,6.66,0,0,1-1.77,2.83,3.72,3.72,0,0,1-2.47.84,7.38,7.38,0,0,1-1.62-.18V43.28a6.06,6.06,0,0,0,1.33.13,2.74,2.74,0,0,0,2.63-2.07l.66-1.68Z"/><path class="cls-8" d="M109.6,28.88a4,4,0,0,1-.33,6.84,1.74,1.74,0,0,0-.69,1.21,1.38,1.38,0,0,0,.64,1.07l.89.69c1.09.91,2.08,1.75,2.08,3.46,0,2.32-2.25,4.67-6.5,4.67-3.58,0-5.31-1.71-5.31-3.54a3.55,3.55,0,0,1,1.9-3A10.7,10.7,0,0,1,107,39.13a2.55,2.55,0,0,1-.74-1.68,2.12,2.12,0,0,1,.25-1c-.28,0-.55,0-.8,0a3.91,3.91,0,0,1-4.1-3.88,4.44,4.44,0,0,1,1.58-3.31A6.7,6.7,0,0,1,107.62,28h5.09l-1.58.89Zm-1.76,11a3.33,3.33,0,0,0-.57,0,9.73,9.73,0,0,0-2.59.4,2.78,2.78,0,0,0-2.13,2.55c0,1.75,1.71,3,4.35,3,2.37,0,3.63-1.14,3.63-2.67C110.53,41.85,109.72,41.19,107.84,39.85Zm.72-4.7a2.52,2.52,0,0,0,.61-1.8c0-1.78-1.06-4.55-3.11-4.55a2.31,2.31,0,0,0-1.73.82,2.84,2.84,0,0,0-.54,1.83c0,1.65,1,4.4,3.09,4.4A2.54,2.54,0,0,0,108.56,35.15Z"/><path class="cls-8" d="M94,39.45a5.82,5.82,0,0,1-6-5.82,6.11,6.11,0,0,1,6.39-6,5.77,5.77,0,0,1,5.89,5.83A6,6,0,0,1,94,39.45Zm3.08-2a4.49,4.49,0,0,0,.74-2.74c0-2.18-1-6.32-4.1-6.32a3.45,3.45,0,0,0-2.22.84,3.73,3.73,0,0,0-1.13,3c0,2.44,1.21,6.46,4.19,6.46A3.17,3.17,0,0,0,97.12,37.46Z"/><path class="cls-8" d="M80.66,39.45a5.82,5.82,0,0,1-6-5.82,6.12,6.12,0,0,1,6.39-6,5.77,5.77,0,0,1,5.9,5.83A6,6,0,0,1,80.66,39.45Zm3.09-2a4.49,4.49,0,0,0,.74-2.74c0-2.18-1-6.32-4.1-6.32a3.43,3.43,0,0,0-2.22.84,3.74,3.74,0,0,0-1.14,3c0,2.44,1.21,6.46,4.2,6.46A3.19,3.19,0,0,0,83.75,37.46Z"/><path class="cls-8" d="M72.75,39.07l-3.54.82a26.78,26.78,0,0,1-4.1.42c-6.84,0-9.45-5-9.45-9,0-4.82,3.7-9.28,10-9.28a14.41,14.41,0,0,1,3.8.52,9.6,9.6,0,0,1,3.27,1.54l-2,2-.87.2.62-1a7.15,7.15,0,0,0-5.31-2.33c-3.92,0-6.87,3-6.87,7.32a8.78,8.78,0,0,0,8.78,9.06,7.35,7.35,0,0,0,3.15-.63v-4l-3.75.2,2-1.07H73.7l-.65.62a.6.6,0,0,0-.25.4c0,.22,0,.94,0,1.19Z"/><path class="cls-8" d="M117.44,38.35c-.82-.07-1-.22-1-1.19v-14a.86.86,0,0,1,0-.16c.1-.87.35-1,1.12-1.46H114l-1.86.89h1.89V37.71c0,.49-.1.57-.67,1.31h4.39l.92-.54Z"/><path class="cls-8" d="M127.53,38.58c-.27.15-.54.32-.81.45a5.86,5.86,0,0,1-2.39.46,5.27,5.27,0,0,1-3.28-1,6.36,6.36,0,0,1-2.51-5.2,5.58,5.58,0,0,1,5.64-5.69,4.78,4.78,0,0,1,2.54.69,4.06,4.06,0,0,1,1.72,2.44l-5.79,2.34-1.89.15c.61,3.13,2.73,5,5.07,5a6.36,6.36,0,0,0,3-.86Zm-2.31-7.34c.46-.17.71-.32.71-.67a2.44,2.44,0,0,0-2.44-2.11c-1,0-2.83.76-2.83,3.42,0,.42,0,.86.07,1.31Z"/><path class="cls-8" d="M129.91,27.81v1.63h-.2V27.81h-.54v-.17h1.28v.17Z"/><path class="cls-8" d="M132.13,29.44V27.8h0l-.5,1.64h-.16L131,27.8h0v1.64h-.18v-1.8h.31l.45,1.45h0l.45-1.45h.31v1.8Z"/><path class="cls-9" d="M60.59,17.22H59.36A8.47,8.47,0,0,0,59,15.78H57.23a7.12,7.12,0,0,0-.37,1.44H55.7c0-.1.3-.92.9-2.47a19,19,0,0,0,.9-2.55H59a21,21,0,0,0,.81,2.52A21.17,21.17,0,0,1,60.59,17.22ZM58.81,15a21,21,0,0,1-.66-2.15h-.06c0,.1-.23.82-.68,2.15Z"/><path class="cls-9" d="M65.56,17.22h-1a9.33,9.33,0,0,0-1-1.67,9.18,9.18,0,0,1-1.27-2.18h-.06a15,15,0,0,1,.1,1.53c0,.63,0,1.41,0,2.32h-.95c0-.8.06-1.67.06-2.62s0-1.74-.06-2.4h1.15a6.87,6.87,0,0,0,1,1.63,9.77,9.77,0,0,1,1.16,2.06h.06a15.13,15.13,0,0,1-.09-1.55c0-.69,0-1.41-.06-2.14h1q-.06,1-.06,2.4C65.5,15.56,65.52,16.44,65.56,17.22Z"/><path class="cls-9" d="M71.14,14.54a2.84,2.84,0,0,1-.7,1.91,2.46,2.46,0,0,1-2,.81c-.38,0-.9,0-1.57,0,0-.78,0-1.65,0-2.62s0-1.74,0-2.4h1.6a2.59,2.59,0,0,1,2,.69A2.41,2.41,0,0,1,71.14,14.54Zm-1,.16a1.87,1.87,0,0,0-.43-1.24A1.64,1.64,0,0,0,68.34,13a3.15,3.15,0,0,0-.46,0c0,.51,0,1,0,1.61s0,1.22,0,1.82a2.92,2.92,0,0,0,.5,0A1.48,1.48,0,0,0,69.69,16,2,2,0,0,0,70.09,14.7Z"/><path class="cls-9" d="M76.29,17.22H75.15a7.41,7.41,0,0,0-.69-1.68.87.87,0,0,0-.77-.32h-.43c0,.66,0,1.33,0,2H72.23c0-.78,0-1.65,0-2.62s0-1.74,0-2.4h1.83c1.18,0,1.77.4,1.77,1.21a1.37,1.37,0,0,1-1,1.34v0a1.26,1.26,0,0,1,.68.61A13.54,13.54,0,0,1,76.29,17.22Zm-1.45-3.55c0-.51-.33-.76-1-.76a4,4,0,0,0-.64.05c0,.4,0,.92,0,1.56h.36C74.44,14.53,74.84,14.24,74.84,13.67Z"/><path class="cls-9" d="M81.81,14.62a2.77,2.77,0,0,1-.72,2,2.36,2.36,0,0,1-1.8.78,2.27,2.27,0,0,1-1.7-.72,2.48,2.48,0,0,1-.68-1.81,2.76,2.76,0,0,1,.72-2,2.34,2.34,0,0,1,1.79-.78,2.23,2.23,0,0,1,1.7.71A2.51,2.51,0,0,1,81.81,14.62Zm-1.06.11a2,2,0,0,0-.42-1.31,1.26,1.26,0,0,0-1-.5,1.17,1.17,0,0,0-1,.51A2,2,0,0,0,78,14.7,2,2,0,0,0,78.38,16a1.3,1.3,0,0,0,1,.5,1.17,1.17,0,0,0,.95-.51A2,2,0,0,0,80.75,14.73Z"/><path class="cls-9" d="M84,17.22H82.9c0-.8,0-1.67,0-2.62s0-1.74,0-2.4H84c0,.65,0,1.45,0,2.4S84,16.44,84,17.22Z"/><path class="cls-9" d="M89.57,14.54a2.84,2.84,0,0,1-.7,1.91,2.46,2.46,0,0,1-2,.81c-.38,0-.91,0-1.58,0,0-.78,0-1.65,0-2.62s0-1.74,0-2.4h1.6a2.61,2.61,0,0,1,2,.69A2.45,2.45,0,0,1,89.57,14.54Zm-1,.16a1.82,1.82,0,0,0-.43-1.24A1.64,1.64,0,0,0,86.77,13a2.93,2.93,0,0,0-.45,0c0,.51,0,1,0,1.61s0,1.22,0,1.82a2.92,2.92,0,0,0,.5,0A1.45,1.45,0,0,0,88.12,16,2,2,0,0,0,88.52,14.7Z"/><path class="cls-9" d="M97,17.22H95.75a8.47,8.47,0,0,0-.35-1.44H93.62a7.12,7.12,0,0,0-.37,1.44H92.09c0-.1.3-.92.9-2.47a19,19,0,0,0,.9-2.55h1.46a21,21,0,0,0,.81,2.52A21.17,21.17,0,0,1,97,17.22ZM95.2,15a21,21,0,0,1-.66-2.15h-.06c0,.1-.23.82-.68,2.15Z"/><path class="cls-9" d="M101.47,13.52a1.5,1.5,0,0,1-.68,1.36,3.09,3.09,0,0,1-1.68.44h-.26c0,.48,0,1.12.05,1.91H97.81c0-.74,0-1.62,0-2.62s0-1.73,0-2.4h1.92a2.23,2.23,0,0,1,1.24.33A1.12,1.12,0,0,1,101.47,13.52Zm-1,.21c0-.55-.37-.83-1.09-.83a2.93,2.93,0,0,0-.58.06c0,.49,0,1,0,1.65h.22C100,14.62,100.48,14.32,100.48,13.73Z"/><path class="cls-9" d="M106.09,13.52a1.5,1.5,0,0,1-.68,1.36,3.09,3.09,0,0,1-1.68.44h-.26c0,.48,0,1.12,0,1.91h-1.09c0-.74,0-1.62,0-2.62s0-1.73,0-2.4h1.92a2.23,2.23,0,0,1,1.24.33A1.12,1.12,0,0,1,106.09,13.52Zm-1,.21c0-.55-.36-.83-1.09-.83a2.93,2.93,0,0,0-.58.06c0,.49,0,1,0,1.65h.22C104.63,14.62,105.1,14.32,105.1,13.73Z"/><path class="cls-9" d="M113.65,14.62a2.74,2.74,0,0,1-.73,2,2.34,2.34,0,0,1-1.79.78,2.25,2.25,0,0,1-1.7-.72,2.49,2.49,0,0,1-.69-1.81,2.72,2.72,0,0,1,.73-2,2.34,2.34,0,0,1,1.79-.78,2.24,2.24,0,0,1,1.7.71A2.51,2.51,0,0,1,113.65,14.62Zm-1.07.11a2,2,0,0,0-.41-1.31,1.27,1.27,0,0,0-1-.5,1.17,1.17,0,0,0-1,.51,2,2,0,0,0-.39,1.27,2,2,0,0,0,.41,1.31,1.3,1.3,0,0,0,1,.5,1.17,1.17,0,0,0,1-.51A2,2,0,0,0,112.58,14.73Z"/><path class="cls-9" d="M118.87,17.22h-1a9.81,9.81,0,0,0-1.06-1.67,9.56,9.56,0,0,1-1.27-2.18h-.06a12.6,12.6,0,0,1,.1,1.53c0,.63,0,1.41.05,2.32h-.94c0-.8.05-1.67.05-2.62s0-1.74-.05-2.4h1.14a7.31,7.31,0,0,0,1,1.63A9.3,9.3,0,0,1,118,15.89h.06a15.13,15.13,0,0,1-.09-1.55c0-.69,0-1.41,0-2.14h1c0,.64-.05,1.44-.05,2.4S118.83,16.44,118.87,17.22Z"/></g></g></svg>