<svg width="2050" height="261" viewBox="0 0 2050 261" fill="none" xmlns="http://www.w3.org/2000/svg">
<g opacity="0.25">
<rect x="77.5" y="26.4619" width="155" height="155" transform="rotate(30 77.5 26.4619)" fill="#E7DC48" fill-opacity="0.5"/>
<rect x="175.09" y="96.4619" width="66.1814" height="66.1814" transform="rotate(30 175.09 96.4619)" fill="white" fill-opacity="0.5"/>
<rect x="260" y="161.86" width="92.4874" height="92.4874" transform="rotate(-45 260 161.86)" fill="white" fill-opacity="0.5"/>
<rect x="332.195" y="132.86" width="126.152" height="126.152" transform="rotate(-45 332.195 132.86)" fill="#29B473" fill-opacity="0.5"/>
<rect x="1364" y="154.665" width="126.152" height="126.152" transform="rotate(-45 1364 154.665)" fill="#E7DC48" fill-opacity="0.5"/>
<rect x="655" y="100.762" width="155.709" height="155.709" transform="rotate(-15 655 100.762)" fill="#33CCFF" fill-opacity="0.5"/>
<rect x="1235.34" y="79.9874" width="170.948" height="170.948" transform="rotate(-15 1235.34 79.9874)" fill="#FE6462" fill-opacity="0.5"/>
<rect x="1789.54" y="55.006" width="212.527" height="212.527" transform="rotate(-15 1789.54 55.006)" fill="white" fill-opacity="0.5"/>
<rect x="1735.19" y="51.4723" width="136.359" height="136.359" transform="rotate(30 1735.19 51.4723)" fill="#18EADF" fill-opacity="0.5"/>
<rect x="1644.43" y="82.6264" width="84.0751" height="84.0751" transform="rotate(15 1644.43 82.6264)" fill="white" fill-opacity="0.5"/>
<rect x="1074.99" y="98.0664" width="109.321" height="109.321" transform="rotate(34.7977 1074.99 98.0664)" fill="#18EADF"/>
<rect x="1020.58" y="93.9792" width="43.9156" height="43.9156" transform="rotate(34.7977 1020.58 93.9792)" fill="white" fill-opacity="0.5"/>
<rect x="1134.67" y="77.354" width="22.3228" height="22.3228" transform="rotate(15 1134.67 77.354)" fill="white" fill-opacity="0.5"/>
<rect x="451" y="106.656" width="97.3428" height="97.3428" transform="rotate(-15 451 106.656)" fill="#18EADF"/>
<rect x="476.973" y="35.5795" width="35.3339" height="35.3339" transform="rotate(-15 476.973 35.5795)" fill="white" fill-opacity="0.5"/>
<rect width="14.7056" height="14.7056" transform="matrix(-0.707107 -0.707107 -0.707107 0.707107 286.035 50.0993)" fill="#FE6462"/>
<rect width="18.0089" height="18.0089" transform="matrix(-0.5 -0.866025 -0.866025 0.5 299.914 85.6277)" fill="white" fill-opacity="0.5"/>
<rect x="45.1719" y="36.9659" width="35.3339" height="35.3339" transform="rotate(30 45.1719 36.9659)" fill="white" fill-opacity="0.5"/>
</g>
</svg>
