<svg width="197" height="213" viewBox="0 0 197 213" fill="none" xmlns="http://www.w3.org/2000/svg">
<path d="M8.23284 69.1506C6.11749 117.172 18.425 133.691 44.7707 118.324" stroke="#2096FF" stroke-width="16" stroke-linecap="round" stroke-linejoin="round"/>
<path d="M152.229 118.324C178.575 133.691 190.883 117.172 188.767 69.1506" stroke="#2096FF" stroke-width="16" stroke-linecap="round" stroke-linejoin="round"/>
<path d="M135.114 191.051L137.999 202" stroke="#444B56" stroke-width="20" stroke-linecap="round" stroke-linejoin="round"/>
<path d="M131.461 167.114C143.768 174.221 145.115 181.136 135.115 187.859" stroke="#2096FF" stroke-width="16" stroke-linecap="round" stroke-linejoin="round"/>
<path d="M67.4219 201.616L71.268 191.051" stroke="#444B56" stroke-width="20" stroke-linecap="round" stroke-linejoin="round"/>
<path d="M70.8836 187.859C60.8837 181.136 62.0376 174.221 74.5374 167.114" stroke="#2096FF" stroke-width="16" stroke-linecap="round" stroke-linejoin="round"/>
<path d="M165.113 47.2529C165.113 28.2365 154.152 18.6323 132.422 18.6323H69.5376C47.6148 18.6323 36.8457 28.2365 36.8457 47.2529V151.555C36.8457 170.571 47.8071 179.984 69.5376 179.984H132.422C154.152 179.984 165.113 170.379 165.113 151.555V47.2529Z" fill="#33CCFF"/>
<path d="M37.0374 42.0666L83.383 27.084C76.2677 15.1747 65.8832 6.14672 52.4218 0C41.4604 7.10714 36.2682 21.1293 37.0374 42.0666ZM118.959 27.084L165.113 42.0666C165.69 21.1293 160.69 7.10714 149.921 0C136.267 6.14672 126.075 15.1747 118.959 27.084Z" fill="#33CCFF"/>
<path d="M161.268 50.1342C161.268 32.2703 151.076 23.4344 130.499 23.4344H71.4613C50.8846 23.4344 40.6924 32.2703 40.6924 50.1342V148.29C40.6924 166.153 50.8846 175.181 71.4613 175.181H130.499C151.076 175.181 161.268 166.153 161.268 148.29V50.1342Z" fill="#8DDFF2"/>
<path d="M54.9225 5.95465C44.7303 13.446 39.9227 28.2365 40.6919 50.5184L84.153 34.5753C77.4223 21.8977 67.6147 12.4855 54.9225 5.95465ZM161.267 50.5184C161.844 28.2365 157.037 13.446 146.845 5.95465C134.152 12.4855 124.537 21.8977 117.806 34.5753L161.267 50.5184Z" fill="#8DDFF2"/>
<path d="M161.268 70.3031C161.268 52.4392 151.076 43.4112 130.499 43.6033H71.4613C50.8846 43.6033 40.6924 52.4392 40.6924 70.3031V148.29C40.6924 166.153 50.8846 175.181 71.4613 175.181H130.499C151.076 175.181 161.268 166.153 161.268 148.29V70.3031Z" fill="#33CCFF"/>
<path d="M147.769 112.849C153.792 108.009 156.726 101.958 156.726 94.9664V72.5118C156.726 65.5199 153.792 59.6037 147.769 54.7632C141.746 49.9227 134.488 47.5024 125.994 47.5024H75.3405C66.8467 47.5024 59.5884 49.9227 53.5656 54.7632C47.5427 59.6037 44.4541 65.5199 44.4541 72.5118V95.1009C44.4541 102.093 47.5427 108.009 53.5656 112.984C59.5884 117.824 66.8467 120.245 75.3405 120.245H125.994C134.642 120.11 141.901 117.69 147.769 112.849Z" fill="#29B473"/>
<path d="M54.9225 13.638C44.7303 19.7847 39.9227 31.8861 40.6919 50.3262C46.4611 39.9536 60.884 35.5357 84.153 37.0724C77.4223 26.6998 67.6147 18.8243 54.9225 13.638ZM161.267 50.1342C161.844 31.8861 157.037 19.5926 146.845 13.4459C134.152 18.8243 124.537 26.5077 117.806 36.8803C139.152 35.3436 153.768 39.7616 161.267 50.1342Z" fill="#33CCFF"/>
<path d="M145.121 114.099C150.842 109.688 153.776 104.175 153.776 97.8035V77.2194C153.776 70.8482 150.989 65.4571 145.121 61.0463C139.399 56.6354 132.504 54.43 124.435 54.43H76.3157C68.2469 54.43 61.3518 56.6354 55.6302 61.0463C49.9087 65.4571 46.9746 70.8482 46.9746 77.2194V97.8035C46.9746 104.175 49.9087 109.566 55.6302 114.099C61.3518 118.51 68.2469 120.715 76.3157 120.715H124.435C132.504 120.715 139.399 118.51 145.121 114.099Z" fill="#88C951"/>
<path d="M107.614 99.3079C107.614 97.5791 106.268 96.2346 104.537 96.2346H97.2292C95.4985 96.2346 94.1523 97.5791 94.1523 99.3079V100.268C94.1523 103.342 95.1139 109.681 96.2677 111.601C97.6138 113.522 99.1523 114.483 100.883 114.483C102.806 114.483 104.537 113.522 105.691 111.601C107.037 109.681 107.614 103.342 107.614 100.268V99.3079Z" fill="#273A12"/>
<path d="M71.2685 94.3137C72.0377 92.9691 72.4223 91.4324 72.4223 89.7037C72.4223 87.9749 72.0377 86.2461 71.2685 85.0936C70.4992 83.749 69.3454 83.1728 68.1916 83.1728C67.0378 83.1728 66.0762 83.749 65.1147 85.0936C64.3455 86.4382 63.7686 87.9749 63.7686 89.7037C63.7686 91.4324 64.1532 93.1612 65.1147 94.3137C66.0762 95.6583 67.0378 96.2346 68.1916 96.2346C69.5377 96.2346 70.4992 95.4662 71.2685 94.3137ZM136.652 94.3137C137.422 92.9691 137.998 91.4324 137.998 89.7037C137.998 87.9749 137.614 86.2461 136.652 85.0936C135.883 83.749 134.729 83.1728 133.575 83.1728C132.422 83.1728 131.46 83.749 130.499 85.0936C129.729 86.4382 129.152 87.9749 129.152 89.7037C129.152 91.4324 129.537 93.1612 130.499 94.3137C131.46 95.6583 132.422 96.2346 133.575 96.2346C134.729 96.2346 135.691 95.4662 136.652 94.3137Z" fill="#273A12"/>
</svg>
