<svg xmlns="http://www.w3.org/2000/svg" xmlns:xlink="http://www.w3.org/1999/xlink" viewBox="0 0 1920 1080"><defs><style>.cls-1,.cls-45{fill:none;}.cls-2{fill:#fff;}.cls-3{opacity:0.02;}.cls-4{opacity:0.03;}.cls-5{opacity:0.04;}.cls-6,.cls-7{fill:#e9f0f3;}.cls-12,.cls-15,.cls-7{opacity:0.75;}.cls-8{fill:#668bbe;}.cls-15,.cls-9{fill:#e7dc48;}.cls-10{fill:#6e7382;}.cls-11{opacity:0.25;}.cls-13{opacity:0.5;}.cls-14{fill:#df6864;}.cls-16{opacity:0.8;}.cls-17{clip-path:url(#clip-path);}.cls-18{fill:#fe6462;}.cls-19{clip-path:url(#clip-path-2);}.cls-20{clip-path:url(#clip-path-3);}.cls-21{fill:#2096ff;}.cls-22{clip-path:url(#clip-path-4);}.cls-23{clip-path:url(#clip-path-5);}.cls-24{clip-path:url(#clip-path-6);}.cls-25{clip-path:url(#clip-path-7);}.cls-26{clip-path:url(#clip-path-8);}.cls-27{fill:#18eadf;}.cls-28{clip-path:url(#clip-path-9);}.cls-29{clip-path:url(#clip-path-10);}.cls-30{clip-path:url(#clip-path-11);}.cls-31{clip-path:url(#clip-path-12);}.cls-32{fill:#3cf;}.cls-33{opacity:0.4;}.cls-34{clip-path:url(#clip-path-13);}.cls-35{clip-path:url(#clip-path-14);}.cls-36{clip-path:url(#clip-path-15);}.cls-37{clip-path:url(#clip-path-16);}.cls-38{clip-path:url(#clip-path-17);}.cls-39{clip-path:url(#clip-path-18);}.cls-40{clip-path:url(#clip-path-19);}.cls-41{clip-path:url(#clip-path-20);}.cls-42{fill:#29b473;}.cls-43{fill:#2aac81;}.cls-44{fill:#5ebe89;}.cls-45{stroke:#fff;stroke-miterlimit:10;stroke-width:1.96px;}</style><clipPath id="clip-path"><rect class="cls-1" x="775.08" y="661.45" width="104.48" height="104.48"/></clipPath><clipPath id="clip-path-2"><rect class="cls-1" x="990.5" y="646.27" width="147.04" height="147.04"/></clipPath><clipPath id="clip-path-3"><rect class="cls-1" x="813.48" y="689.1" width="56.68" height="56.68"/></clipPath><clipPath id="clip-path-4"><rect class="cls-1" x="877.14" y="667.46" width="117.46" height="117.46"/></clipPath><clipPath id="clip-path-5"><rect class="cls-1" x="742.62" y="697.25" width="53.98" height="53.98"/></clipPath><clipPath id="clip-path-6"><rect class="cls-1" x="1108.58" y="699.12" width="56.69" height="56.68"/></clipPath><clipPath id="clip-path-7"><rect class="cls-1" x="953.92" y="616.95" width="104.23" height="104.23"/></clipPath><clipPath id="clip-path-8"><rect class="cls-1" x="776.3" y="588.12" width="13.73" height="13.73"/></clipPath><clipPath id="clip-path-9"><rect class="cls-1" x="1100.91" y="622.86" width="15.34" height="15.33"/></clipPath><clipPath id="clip-path-10"><rect class="cls-1" x="928.2" y="553.82" width="15.34" height="15.33"/></clipPath><clipPath id="clip-path-11"><rect class="cls-1" x="815.92" y="693.71" width="90.97" height="90.97"/></clipPath><clipPath id="clip-path-12"><rect class="cls-1" x="1147.65" y="716.35" width="40.47" height="40.47"/></clipPath><clipPath id="clip-path-13"><rect class="cls-1" x="735.59" y="707.29" width="20.33" height="20.33"/></clipPath><clipPath id="clip-path-14"><rect class="cls-1" x="907.12" y="641.08" width="121.42" height="121.42"/></clipPath><clipPath id="clip-path-15"><rect class="cls-1" x="895.69" y="672.78" width="41.87" height="41.87"/></clipPath><clipPath id="clip-path-16"><rect class="cls-1" x="729.39" y="679.02" width="10.75" height="10.75"/></clipPath><clipPath id="clip-path-17"><rect class="cls-1" x="897.48" y="691.82" width="55.95" height="55.95"/></clipPath><clipPath id="clip-path-18"><rect class="cls-1" x="1041.52" y="588.26" width="13.45" height="13.45"/></clipPath><clipPath id="clip-path-19"><rect class="cls-1" x="942.76" y="638.65" width="50.14" height="50.14"/></clipPath><clipPath id="clip-path-20"><rect class="cls-1" x="905.38" y="596.69" width="24.5" height="24.5"/></clipPath></defs><title>Asset 3</title><g id="Layer_2" data-name="Layer 2"><g id="Layer_1_copy" data-name="Layer 1 copy"><rect class="cls-2" width="1920" height="1080"/><g class="cls-3"><path d="M1545.16,642l.72-.69L1459,496.19a20.59,20.59,0,0,1-2,1.26Z"/></g><g class="cls-3"><path d="M1435.91,475.83c.36-.51.74-1,1.15-1.48l-84.31-73.8a30.83,30.83,0,0,1-2.54,3.36Z"/></g><g class="cls-4"><path d="M1353,371.91a29.64,29.64,0,0,1,3.72,10L1456,354.68a80.42,80.42,0,0,1-3.72-12.75Z"/></g><g class="cls-4"><path d="M809,10.21c0,.26,0,.52,0,.79a40.91,40.91,0,0,1-1,9.06L978.31,39.9A86,86,0,0,1,981.62,27Z"/></g><g class="cls-3"><path d="M200.16,591.33l.58.82,131.57-6.59a11.3,11.3,0,0,1-.27-1.85Z"/></g><g class="cls-3"><path d="M527.09,488.4a21,21,0,0,1,4.27,1.34l33.46-136.87a44,44,0,0,1-7-1.1Z"/></g><g class="cls-3"><path d="M352.74,577.9a9.42,9.42,0,0,1,.45,1l150.53-61.56a19.84,19.84,0,0,1-.83-2.27Z"/></g><g class="cls-4"><path d="M527.61,295.21a42.48,42.48,0,0,1,5-9.58l-221-100.44a86.82,86.82,0,0,1-5.17,13.53Z"/></g><g class="cls-5"><path d="M200.8,102.28,122.82,0H81.28L185.46,114.5A87.06,87.06,0,0,1,200.8,102.28Z"/></g><g class="cls-3"><path d="M558.93,346.64l-1.15,5.13a44,44,0,0,0,7,1.1l1.26-5.18A38.29,38.29,0,0,1,558.93,346.64Z"/></g><g class="cls-4"><path d="M532.45,297.33a37.29,37.29,0,0,1,5-9.47l-4.87-2.23a42.48,42.48,0,0,0-5,9.58Z"/></g><path class="cls-6" d="M1131.41,0h-14.47a76.35,76.35,0,1,1-129.3,55,77.16,77.16,0,0,1,1.28-13.86A75.92,75.92,0,0,1,1011.07,0H996.59a87,87,0,1,0,134.82,0Z"/><path class="cls-2" d="M768,52a41,41,0,0,0,40-31.94l-5-.58A36,36,0,1,1,733.74,0H728.5A41,41,0,0,0,768,52Z"/><path class="cls-2" d="M804,9.72l5,.49A41.4,41.4,0,0,0,807.5,0h-5.24A35.88,35.88,0,0,1,804,9.72Z"/><g class="cls-4"><path d="M809,10.21l-5-.49c0,.42,0,.85,0,1.28a35.93,35.93,0,0,1-1,8.48l5,.58A40.91,40.91,0,0,0,809,11C809,10.73,809,10.47,809,10.21Z"/></g><path class="cls-7" d="M809,10.21A41.4,41.4,0,0,0,807.5,0h-5.24A35.88,35.88,0,0,1,804,9.72c0,.42,0,.85,0,1.28A36,36,0,1,1,733.74,0H728.5A41,41,0,1,0,809,11C809,10.73,809,10.47,809,10.21Z"/><path class="cls-6" d="M1536,239a87,87,0,1,0,87,87A87,87,0,0,0,1536,239Zm0,163.36A76.36,76.36,0,1,1,1612.36,326,76.38,76.38,0,0,1,1536,402.36Z"/><path class="cls-8" d="M1536,249.64A76.36,76.36,0,1,0,1612.36,326,76.36,76.36,0,0,0,1536,249.64Z"/><path class="cls-9" d="M1584.65,315.91a5,5,0,0,0-2.77-8.53l-25.27-3.67a5,5,0,0,1-3.76-2.73l-11.3-22.9a5,5,0,0,0-9,0l-11.3,22.9a5,5,0,0,1-3.76,2.73l-25.26,3.67a5,5,0,0,0-2.77,8.53l10,9.74,8.29,8.08a5,5,0,0,1,1.46,4.2,1.81,1.81,0,0,1,0,.23l-4.31,25.16a5,5,0,0,0,7.25,5.27l22.6-11.88a5,5,0,0,1,4.65,0l22.6,11.88a5,5,0,0,0,7.26-5.27l-4.32-25.16a5,5,0,0,1,1.44-4.43Z"/><circle class="cls-6" cx="239.5" cy="165.5" r="86.5"/><circle class="cls-10" cx="239.5" cy="165.5" r="74.77"/><path class="cls-9" d="M263.6,122.93a2.47,2.47,0,0,0-1.37-4.22l-12.5-1.82a2.48,2.48,0,0,1-1.87-1.35l-5.59-11.33a2.47,2.47,0,0,0-4.43,0l-5.59,11.33a2.5,2.5,0,0,1-1.87,1.35l-12.5,1.82a2.41,2.41,0,0,0-1.65,1,2.46,2.46,0,0,0,0,2.88,2.6,2.6,0,0,0,.25.33l9.05,8.81a2.48,2.48,0,0,1,.71,2.19l-2.14,12.45a2.47,2.47,0,0,0,3.59,2.61l11.18-5.88a2.54,2.54,0,0,1,2.31,0L252.39,149a2.47,2.47,0,0,0,3.59-2.61l-2.14-12.45a2.48,2.48,0,0,1,.71-2.19Z"/><path class="cls-9" d="M227.34,180.2A2.47,2.47,0,0,0,226,176l-12.5-1.82a2.48,2.48,0,0,1-1.86-1.35L206,161.48a2.48,2.48,0,0,0-4.44,0L196,172.81a2.48,2.48,0,0,1-1.86,1.35L181.63,176a2.38,2.38,0,0,0-1.65,1,2.43,2.43,0,0,0,0,2.88,1.91,1.91,0,0,0,.25.33l9,8.81a2.48,2.48,0,0,1,.71,2.19l-2.13,12.45a2.47,2.47,0,0,0,3.59,2.61l11.18-5.88a2.46,2.46,0,0,1,2.3,0l11.18,5.88a2.47,2.47,0,0,0,3.59-2.61l-2.13-12.45a2.45,2.45,0,0,1,.71-2.19Z"/><g class="cls-11"><path d="M299.85,180.2a2.47,2.47,0,0,0-1.37-4.22L286,174.16a2.46,2.46,0,0,1-1.86-1.35l-5.59-11.33a2.48,2.48,0,0,0-4.44,0l-5.59,11.33a2.48,2.48,0,0,1-1.86,1.35L254.14,176a2.36,2.36,0,0,0-1.65,1,2.43,2.43,0,0,0,0,2.88,2.52,2.52,0,0,0,.24.33l9.05,8.81a2.48,2.48,0,0,1,.71,2.19l-2.13,12.45a2.47,2.47,0,0,0,3.59,2.61l11.18-5.88a2.46,2.46,0,0,1,2.3,0l11.18,5.88a2.47,2.47,0,0,0,3.59-2.61l-2.14-12.45a2.49,2.49,0,0,1,.72-2.19Z"/></g><g class="cls-12"><circle class="cls-6" cx="561.5" cy="310.5" r="43.5"/><circle class="cls-10" cx="561.5" cy="310.5" r="37.6"/><path class="cls-9" d="M573.62,289.09a1.24,1.24,0,0,0-.69-2.12l-6.29-.92a1.21,1.21,0,0,1-.93-.68l-2.82-5.69a1.24,1.24,0,0,0-2.23,0l-2.81,5.69a1.21,1.21,0,0,1-.94.68l-6.28.92a1.19,1.19,0,0,0-.83.51,1.23,1.23,0,0,0,0,1.45,1.83,1.83,0,0,0,.13.16l4.55,4.43a1.3,1.3,0,0,1,.36,1.11l-1.08,6.26a1.25,1.25,0,0,0,1.81,1.31l5.62-3a1.25,1.25,0,0,1,1.16,0l5.62,3a1.25,1.25,0,0,0,1.81-1.31l-1.08-6.26a1.27,1.27,0,0,1,.36-1.11Z"/><path class="cls-9" d="M555.39,317.89a1.24,1.24,0,0,0-.69-2.12l-6.29-.92a1.24,1.24,0,0,1-.94-.68l-2.81-5.69a1.24,1.24,0,0,0-2.23,0l-2.81,5.69a1.21,1.21,0,0,1-.94.68l-6.28.92a1.19,1.19,0,0,0-.83.51,1.23,1.23,0,0,0,0,1.45,1.83,1.83,0,0,0,.13.16l4.55,4.43a1.26,1.26,0,0,1,.35,1.11l-1.07,6.26a1.24,1.24,0,0,0,1.8,1.31l5.63-3a1.25,1.25,0,0,1,1.16,0l5.62,3a1.24,1.24,0,0,0,1.8-1.31l-1.07-6.26a1.24,1.24,0,0,1,.36-1.11Z"/><path class="cls-9" d="M591.85,317.89a1.24,1.24,0,0,0-.69-2.12l-6.29-.92a1.21,1.21,0,0,1-.93-.68l-2.81-5.69a1.25,1.25,0,0,0-2.24,0l-2.81,5.69a1.21,1.21,0,0,1-.93.68l-6.29.92a1.23,1.23,0,0,0-.81,2,1.67,1.67,0,0,0,.12.16l4.55,4.43a1.27,1.27,0,0,1,.36,1.11L572,329.69a1.25,1.25,0,0,0,1.81,1.31l5.62-3a1.25,1.25,0,0,1,1.16,0l5.62,3a1.25,1.25,0,0,0,1.81-1.31l-1.08-6.26a1.27,1.27,0,0,1,.36-1.11Z"/></g><g class="cls-13"><circle class="cls-6" cx="519.5" cy="506.5" r="20.5"/><circle class="cls-10" cx="519.5" cy="506.5" r="17.72"/><g class="cls-11"><path d="M525.21,496.41a.58.58,0,0,0-.32-1l-3-.43a.61.61,0,0,1-.44-.32L520.16,492a.59.59,0,0,0-1,0l-1.33,2.69a.59.59,0,0,1-.44.32l-3,.43a.59.59,0,0,0-.39.92l.06.08,2.15,2.09a.58.58,0,0,1,.16.52l-.5,3a.59.59,0,0,0,.85.62l2.65-1.4a.57.57,0,0,1,.54,0l2.65,1.4a.59.59,0,0,0,.85-.62l-.5-3a.59.59,0,0,1,.17-.52Z"/></g><path class="cls-9" d="M516.62,510a.59.59,0,0,0-.33-1l-3-.43a.61.61,0,0,1-.44-.32l-1.32-2.68a.59.59,0,0,0-1.06,0l-1.32,2.68a.61.61,0,0,1-.44.32l-3,.43a.61.61,0,0,0-.39.24.59.59,0,0,0,0,.69l.06.07,2.14,2.09a.6.6,0,0,1,.17.52l-.5,2.95a.58.58,0,0,0,.85.62l2.65-1.39a.57.57,0,0,1,.54,0l2.65,1.39a.59.59,0,0,0,.85-.62l-.5-2.95a.57.57,0,0,1,.17-.52Z"/><g class="cls-11"><path d="M533.8,510a.58.58,0,0,0-.32-1l-3-.43a.6.6,0,0,1-.45-.32l-1.32-2.68a.58.58,0,0,0-1,0l-1.33,2.68a.59.59,0,0,1-.44.32l-3,.43a.59.59,0,0,0-.39.24.6.6,0,0,0,0,.69l.06.07,2.15,2.09a.6.6,0,0,1,.17.52l-.51,2.95a.59.59,0,0,0,.85.62l2.65-1.39a.59.59,0,0,1,.55,0l2.65,1.39a.59.59,0,0,0,.85-.62l-.51-2.95a.6.6,0,0,1,.17-.52Z"/></g></g><g class="cls-11"><circle class="cls-6" cx="343.49" cy="581.79" r="14.2"/><circle class="cls-10" cx="343.49" cy="581.79" r="12.28"/><g class="cls-11"><path d="M340.12,589.09a.41.41,0,0,0,.28.67l2.07.13a.4.4,0,0,1,.33.19l1.07,1.78a.4.4,0,0,0,.72-.06l.76-1.93a.43.43,0,0,1,.29-.25l2-.46a.38.38,0,0,0,.25-.19.39.39,0,0,0,0-.47l0,0-1.6-1.32a.41.41,0,0,1-.15-.35l.18-2.07a.41.41,0,0,0-.62-.38l-1.75,1.12a.43.43,0,0,1-.38,0l-1.91-.81a.41.41,0,0,0-.55.48l.52,2a.41.41,0,0,1-.09.37Z"/></g><path class="cls-9" d="M345.27,579.22a.41.41,0,0,0,.29.68l2.07.12a.43.43,0,0,1,.32.2L349,582a.4.4,0,0,0,.72-.06l.76-1.93a.41.41,0,0,1,.29-.25l2-.47a.41.41,0,0,0,.26-.18.43.43,0,0,0-.05-.48l0,0-1.6-1.32a.38.38,0,0,1-.15-.34l.18-2.07a.4.4,0,0,0-.62-.38L349,575.59a.42.42,0,0,1-.38,0l-1.91-.81a.4.4,0,0,0-.55.47l.52,2a.41.41,0,0,1-.09.37Z"/><g class="cls-11"><path d="M333.41,580.21a.41.41,0,0,0,.28.67l2.07.13a.41.41,0,0,1,.33.2l1.06,1.77a.41.41,0,0,0,.73-.06l.76-1.93a.42.42,0,0,1,.29-.24l2-.47a.41.41,0,0,0,.25-.19.39.39,0,0,0,0-.47l-.05,0-1.6-1.32a.4.4,0,0,1-.14-.35l.18-2.06a.4.4,0,0,0-.62-.38l-1.75,1.11a.4.4,0,0,1-.38,0l-1.91-.8a.4.4,0,0,0-.55.47l.52,2a.41.41,0,0,1-.09.37Z"/></g></g><path class="cls-14" d="M1116.94,0H1011.06a76.36,76.36,0,1,0,105.88,0Z"/><path class="cls-9" d="M1088.16,10a2.53,2.53,0,0,0-1.41-4.32L1074,3.86a2.53,2.53,0,0,1-1.9-1.39L1070.84,0H1057.3l-1.22,2.47a2.53,2.53,0,0,1-1.91,1.39l-12.79,1.86A2.53,2.53,0,0,0,1040,10l9.25,9a2.52,2.52,0,0,1,.73,2.24l-2.07,12.1-.11.64a2.53,2.53,0,0,0,3.67,2.66l4.74-2.49,6.7-3.52a2.51,2.51,0,0,1,2.35,0l11.44,6a2.53,2.53,0,0,0,3.68-2.66l-2.19-12.74a2.52,2.52,0,0,1,.73-2.24Z"/><g class="cls-11"><path d="M1052.75,65.72,1040,63.86a2.53,2.53,0,0,1-1.9-1.39l-5.72-11.58a2.53,2.53,0,0,0-4.54,0l-5.72,11.58a2.53,2.53,0,0,1-1.91,1.39l-12.79,1.86A2.53,2.53,0,0,0,1006,70l9.25,9a2.52,2.52,0,0,1,.73,2.24L1013.78,94a2.53,2.53,0,0,0,3.67,2.66l11.44-6a2.51,2.51,0,0,1,2.35,0l11.44,6a2.53,2.53,0,0,0,3.68-2.66l-2.19-12.74a2.52,2.52,0,0,1,.73-2.24l9.26-9A2.53,2.53,0,0,0,1052.75,65.72Z"/></g><g class="cls-11"><path d="M1075.38,65.72A2.53,2.53,0,0,0,1074,70l9.25,9a2.52,2.52,0,0,1,.73,2.24L1081.78,94a2.53,2.53,0,0,0,3.67,2.66l11.44-6a2.51,2.51,0,0,1,2.35,0l11.44,6a2.53,2.53,0,0,0,3.68-2.66l-2.19-12.74a2.52,2.52,0,0,1,.73-2.24l9.26-9a2.53,2.53,0,0,0-1.41-4.32L1108,63.86a2.53,2.53,0,0,1-1.9-1.39l-5.72-11.58a2.53,2.53,0,0,0-4.54,0l-5.72,11.58a2.53,2.53,0,0,1-1.91,1.39Z"/></g><g class="cls-12"><path class="cls-14" d="M804,9.72A35.88,35.88,0,0,0,802.26,0H733.74A36,36,0,1,0,804,11C804,10.57,804,10.14,804,9.72Z"/><path class="cls-15" d="M760.35,1.12a1.2,1.2,0,0,0,1.74,1.26L766.61,0h-6.06Z"/><path class="cls-15" d="M774,2.38a1.2,1.2,0,0,0,1.73-1.26L775.52,0h-6.06Z"/><g class="cls-11"><path d="M762.7,16.05l-6-.87a1.23,1.23,0,0,1-.9-.66l-2.69-5.46a1.19,1.19,0,0,0-2.14,0l-2.7,5.46a1.21,1.21,0,0,1-.89.66l-6,.87a1.2,1.2,0,0,0-.66,2L745,22.34a1.18,1.18,0,0,1,.34,1.05l-1,6a1.19,1.19,0,0,0,1.73,1.25l5.39-2.83a1.21,1.21,0,0,1,1.11,0L758,30.65a1.2,1.2,0,0,0,1.74-1.25l-1-6a1.18,1.18,0,0,1,.34-1.05l4.36-4.25A1.2,1.2,0,0,0,762.7,16.05Z"/></g><g class="cls-11"><path d="M794.75,16.05l-6-.87a1.21,1.21,0,0,1-.9-.66l-2.7-5.46a1.19,1.19,0,0,0-2.14,0l-2.69,5.46a1.21,1.21,0,0,1-.9.66l-6,.86h-.07a1.2,1.2,0,0,0-.66,2l4.36,4.25a1.18,1.18,0,0,1,.35,1.05l-1,6a1.19,1.19,0,0,0,1.73,1.25l5.39-2.83a1.21,1.21,0,0,1,1.11,0L790,30.65a1.19,1.19,0,0,0,1.73-1.25l-1-6a1.2,1.2,0,0,1,.34-1.05l3.9-3.8.47-.45A1.2,1.2,0,0,0,794.75,16.05Z"/></g></g><g class="cls-13"><path class="cls-6" d="M1448.5,464a20.5,20.5,0,0,0-20.5,20.5,21,21,0,0,0,.34,3.75,20.19,20.19,0,0,0,.8,3A20.5,20.5,0,1,0,1448.5,464Zm0,38.49a18,18,0,0,1-17-12,18.57,18.57,0,0,1-.8-3.08,18,18,0,1,1,17.75,15Z"/><path class="cls-8" d="M1448.5,466.51a18,18,0,0,0-17.75,20.94,18.57,18.57,0,0,0,.8,3.08,18,18,0,1,0,17-24Z"/><path class="cls-9" d="M1460,482.12a1.18,1.18,0,0,0-.65-2l-6-.86a1.18,1.18,0,0,1-.89-.65l-2.66-5.39a1.18,1.18,0,0,0-2.12,0L1445,478.6a1.18,1.18,0,0,1-.88.65l-6,.86a1.18,1.18,0,0,0-.65,2l2.35,2.3,2,1.9a1.18,1.18,0,0,1,.34,1v.05l-1,5.93a1.18,1.18,0,0,0,1.71,1.25l5.32-2.8a1.19,1.19,0,0,1,1.1,0l5.32,2.8a1.18,1.18,0,0,0,1.71-1.25l-1-5.93a1.16,1.16,0,0,1,.34-1Z"/></g><g class="cls-12"><path class="cls-6" d="M1332,355a31,31,0,0,0-30.48,36.68,30,30,0,0,0,1.21,4.54A31,31,0,1,0,1332,355Zm0,58.21a27.22,27.22,0,0,1-25.64-18.09,27.83,27.83,0,0,1-1.2-4.65,27.51,27.51,0,0,1-.37-4.47A27.21,27.21,0,1,1,1332,413.21Z"/><path class="cls-8" d="M1332,358.79A27.21,27.21,0,0,0,1304.79,386a27.51,27.51,0,0,0,.37,4.47,27.83,27.83,0,0,0,1.2,4.65A27.21,27.21,0,1,0,1332,358.79Z"/><path class="cls-9" d="M1349.33,382.41a1.78,1.78,0,0,0-1-3l-9-1.31a1.79,1.79,0,0,1-1.35-1l-4-8.15a1.78,1.78,0,0,0-3.2,0l-4,8.15a1.79,1.79,0,0,1-1.34,1l-9,1.31a1.78,1.78,0,0,0-1,3l3.56,3.47,3,2.88a1.77,1.77,0,0,1,.52,1.49.19.19,0,0,1,0,.08l-1.54,9a1.79,1.79,0,0,0,2.59,1.88l8-4.24a1.8,1.8,0,0,1,1.66,0l8,4.24a1.79,1.79,0,0,0,2.59-1.88l-1.54-9a1.75,1.75,0,0,1,.51-1.57Z"/></g><g class="cls-16"><g class="cls-17"><rect class="cls-18" x="786.72" y="673.09" width="81.2" height="81.2" transform="translate(-197.43 334.61) rotate(-20.48)"/></g></g><g class="cls-16"><g class="cls-19"><rect class="cls-18" x="1001.23" y="657" width="125.59" height="125.59" transform="translate(156.29 1628.78) rotate(-79.12)"/></g></g><g class="cls-16"><g class="cls-20"><rect class="cls-21" x="820.4" y="696.01" width="42.85" height="42.85" transform="translate(-220.63 409.89) rotate(-24.29)"/></g></g><g class="cls-16"><g class="cls-22"><rect class="cls-21" x="890.22" y="680.55" width="91.29" height="91.29" transform="translate(-194.94 373.39) rotate(-20.48)"/></g></g><g class="cls-16"><g class="cls-23"><rect class="cls-21" x="748.19" y="702.81" width="42.85" height="42.85" transform="translate(-156.77 1232.8) rotate(-72.03)"/></g></g><g class="cls-16"><g class="cls-24"><rect class="cls-21" x="1115.49" y="706.03" width="42.85" height="42.85" transform="translate(-198.61 532.16) rotate(-24.29)"/></g></g><g class="cls-16"><g class="cls-25"><rect class="cls-21" x="964.67" y="627.7" width="82.74" height="82.74" transform="translate(59.17 1419.53) rotate(-72.03)"/></g></g><g class="cls-13"><g class="cls-26"><rect class="cls-27" x="777.05" y="588.87" width="12.22" height="12.22" transform="translate(-71.52 108.29) rotate(-7.57)"/></g></g><g class="cls-13"><g class="cls-28"><rect class="cls-21" x="1102.46" y="624.42" width="12.22" height="12.22" transform="translate(173.79 1498.1) rotate(-72.49)"/></g></g><g class="cls-13"><g class="cls-29"><rect class="cls-21" x="929.75" y="555.37" width="12.22" height="12.22" transform="translate(118.86 1285.1) rotate(-72.49)"/></g></g><g class="cls-16"><g class="cls-30"><rect class="cls-2" x="821.66" y="699.45" width="79.48" height="79.48" transform="translate(-105.33 144.34) rotate(-9.03)"/></g></g><g class="cls-16"><g class="cls-31"><rect class="cls-32" x="1152.66" y="721.36" width="30.47" height="30.47" transform="translate(7.71 1485.26) rotate(-65.07)"/></g></g><g class="cls-33"><g class="cls-34"><rect class="cls-32" x="736.87" y="708.57" width="17.76" height="17.76" transform="translate(-103.36 125.94) rotate(-9.03)"/></g></g><g class="cls-16"><g class="cls-35"><rect class="cls-2" x="908.83" y="642.79" width="118" height="118" transform="translate(237.89 1648.57) rotate(-88.32)"/></g></g><g class="cls-13"><g class="cls-36"><rect class="cls-27" x="899.27" y="676.34" width="34.73" height="34.73" transform="translate(28.35 1423.36) rotate(-76.52)"/></g></g><g class="cls-13"><g class="cls-37"><rect class="cls-18" x="730.72" y="680.35" width="8.1" height="8.1" transform="translate(-219.74 372.61) rotate(-24.88)"/></g></g><g class="cls-13"><g class="cls-38"><rect class="cls-18" x="899.65" y="693.99" width="51.61" height="51.61" transform="translate(126.97 1578.28) rotate(-84.95)"/></g></g><g class="cls-13"><g class="cls-39"><rect class="cls-27" x="1043.08" y="589.81" width="10.33" height="10.33" transform="translate(-146.64 436.65) rotate(-22.03)"/></g></g><g class="cls-16"><g class="cls-40"><rect class="cls-32" x="946.4" y="642.29" width="42.85" height="42.85" transform="translate(133.93 1489.45) rotate(-79.16)"/></g></g><g class="cls-13"><g class="cls-41"><rect class="cls-18" x="908.22" y="599.53" width="18.82" height="18.82" transform="translate(-161.42 388.69) rotate(-22.03)"/></g></g><path class="cls-42" d="M1376.49,743.88a4,4,0,0,0-3.58-5.83H544.61a4,4,0,0,0-3.59,5.83l28.73,56.78a4,4,0,0,1,0,3.63L541,861.06a4,4,0,0,0,3.59,5.83h828.3a4,4,0,0,0,3.58-5.83l-28.72-56.78a4,4,0,0,1,0-3.62Z"/><path class="cls-43" d="M1348,804.77a4.19,4.19,0,0,0-3.74-2.3h-771a4.2,4.2,0,0,0-3.74,2.3l-28.36,56.05a4.18,4.18,0,0,0,3.74,6.07h827.75a4.18,4.18,0,0,0,3.74-6.07Z"/><path class="cls-44" d="M715.3,837.72c0,1.13-.53,1.69-1.58,1.69H694.34c-1.06,0-1.59-.63-1.59-1.91q0-5.54.41-16.59t.41-16.58c0-1.06-.16-1.63-.49-1.7q-.6.33-7.33,16.91-3.94,9.75-7.89,19.43a2.27,2.27,0,0,1-1.36,1.48,19.88,19.88,0,0,1-2.19.06c-1.9,0-3-.37-3.4-1.1q-3-6-7.77-17.51-5.14-12.15-7.72-17.57a1.65,1.65,0,0,0-.49-.6,2.53,2.53,0,0,0-.38,1.58q0,5.37.27,16.1t.27,16.09c0,1.28-.51,1.91-1.53,1.91H635.28c-.73,0-1.18-.11-1.34-.35a2.23,2.23,0,0,1-.25-1.24q0-6,.58-17.92t.57-17.93q0-6.35-.55-23.81,0-4.54-.49-13.52l0-.93c0-.73.73-1.09,2.29-1.09q3,0,9-.2c4-.12,7-.19,9-.19.4,0,1,.77,1.7,2.3l16,35.09q1.69,3.55,2.84,3.56c.41,0,1.26-1.37,2.58-4.11q5.52-11.49,16.36-34.65c.62-1.42,1.3-2.13,2-2.13,1.06,0,2.65.05,4.79.16s3.75.17,4.84.17c.91,0,2.31-.09,4.19-.28s3.28-.27,4.19-.27c1.09,0,1.64.44,1.64,1.31q0,6.47-.47,19.3T714.32,802q0,6,.49,17.9t.49,17.85"/><path class="cls-45" d="M715.3,837.72c0,1.13-.53,1.69-1.58,1.69H694.34c-1.06,0-1.59-.63-1.59-1.91q0-5.54.41-16.59t.41-16.58c0-1.06-.16-1.63-.49-1.7q-.6.33-7.33,16.91-3.94,9.75-7.89,19.43a2.27,2.27,0,0,1-1.36,1.48,19.88,19.88,0,0,1-2.19.06c-1.9,0-3-.37-3.4-1.1q-3-6-7.77-17.51-5.14-12.15-7.72-17.57a1.65,1.65,0,0,0-.49-.6,2.53,2.53,0,0,0-.38,1.58q0,5.37.27,16.1t.27,16.09c0,1.28-.51,1.91-1.53,1.91H635.28c-.73,0-1.18-.11-1.34-.35a2.23,2.23,0,0,1-.25-1.24q0-6,.58-17.92t.57-17.93q0-6.35-.55-23.81,0-4.54-.49-13.52l0-.93c0-.73.73-1.09,2.29-1.09q3,0,9-.2c4-.12,7-.19,9-.19.4,0,1,.77,1.7,2.3l16,35.09q1.69,3.55,2.84,3.56c.41,0,1.26-1.37,2.58-4.11q5.52-11.49,16.36-34.65c.62-1.42,1.3-2.13,2-2.13,1.06,0,2.65.05,4.79.16s3.75.17,4.84.17c.91,0,2.31-.09,4.19-.28s3.28-.27,4.19-.27c1.09,0,1.64.44,1.64,1.31q0,6.47-.47,19.3T714.32,802q0,6,.49,17.9T715.3,837.72Z"/><path class="cls-44" d="M781.23,812.05q0,4.2.5,12.53t.49,12.48c0,1.46-.64,2.24-1.92,2.35q-6.78.5-15.54.5c-.7,0-1.16-1-1.4-3.15s-.52-3.17-.85-3.2a4.69,4.69,0,0,0-1.14.93q-6.14,6.18-13.14,6.18a22,22,0,0,1-17.68-8.43,28.29,28.29,0,0,1-6.63-18.83q0-12.64,6.85-20.36,7.11-8,19.48-8,8.6,0,13.58,6c.14.18.27.28.38.28.33,0,.7-.89,1.12-2.66s.93-2.66,1.51-2.66a49,49,0,0,1,7.72,1.15,75.16,75.16,0,0,1,7.77,1.87c.55.21.82.51.82.87,0,.15-.06.53-.16,1.15a120.14,120.14,0,0,0-1.76,21m-17.62.32a10.65,10.65,0,0,0-2.93-7.69,11.1,11.1,0,0,0-15.24,0A11.33,11.33,0,0,0,745.6,820a9.93,9.93,0,0,0,7.44,3.17,10.15,10.15,0,0,0,7.61-3,10.67,10.67,0,0,0,3-7.75"/><path class="cls-45" d="M781.23,812.05q0,4.2.5,12.53t.49,12.48c0,1.46-.64,2.24-1.92,2.35q-6.78.5-15.54.5c-.7,0-1.16-1-1.4-3.15s-.52-3.17-.85-3.2a4.69,4.69,0,0,0-1.14.93q-6.14,6.18-13.14,6.18a22,22,0,0,1-17.68-8.43,28.29,28.29,0,0,1-6.63-18.83q0-12.64,6.85-20.36,7.11-8,19.48-8,8.6,0,13.58,6c.14.18.27.28.38.28.33,0,.7-.89,1.12-2.66s.93-2.66,1.51-2.66a49,49,0,0,1,7.72,1.15,75.16,75.16,0,0,1,7.77,1.87c.55.21.82.51.82.87,0,.15-.06.53-.16,1.15A120.14,120.14,0,0,0,781.23,812.05Zm-17.62.32a10.65,10.65,0,0,0-2.93-7.69,11.1,11.1,0,0,0-15.24,0A11.33,11.33,0,0,0,745.6,820a9.93,9.93,0,0,0,7.44,3.17,10.15,10.15,0,0,0,7.61-3A10.67,10.67,0,0,0,763.61,812.37Z"/><path class="cls-44" d="M829.87,823.37a46,46,0,0,1-.41,5,43,43,0,0,0-.41,4.9,3.82,3.82,0,0,1-.33,2,6.48,6.48,0,0,1-1.81,1.26,31.92,31.92,0,0,1-15.65,3.89q-15.82,0-15.82-12.1,0-3.62.27-10.86t.27-10.87c0-1.6-.92-2.41-2.79-2.41h-.71a6.6,6.6,0,0,1-.71.06c-1.39,0-2.08-.49-2.08-1.48,0-.59,0-1.48.14-2.68s.13-2.1.13-2.68c0-.77,0-1.94-.13-3.51s-.14-2.74-.14-3.5,1.17-1.13,3.5-1.21c1.32,0,2-.4,2.14-1.09a40.64,40.64,0,0,0,.22-6.57q-.22-7.07-.22-6.73c0-4.24.4-6.35,1.2-6.35a19.51,19.51,0,0,1,4.22.66,42.35,42.35,0,0,0,4.32.82q2.79.38,8.43,1c.91.07,1.37.38,1.37.93q0,2.19-.36,6.62c-.24,3-.35,5.18-.35,6.68,0,1.79.52,2.68,1.59,2.68,1.27,0,3.2-.06,5.8-.16s4.54-.17,5.85-.17c.8,0,1.21.27,1.21.82a36.54,36.54,0,0,1-.28,3.78q-.27,2.52-.27,3.78c0,.87,0,2.15.05,3.83s.06,2.95.06,3.83-.53,1.15-1.59,1.15c-.73,0-2,0-3.66-.08s-2.94-.08-3.67-.08h-4.11c-.54,0-.82.8-.82,2.4v3.89c0,1.75.06,3,.06,3.89,0,3.06.34,5.18,1,6.35,1,1.57,2.92,2.35,5.8,2.35a17.68,17.68,0,0,0,3.91-.63,17.68,17.68,0,0,1,3.59-.63c.76,0,1.15.4,1.15,1.2"/><path class="cls-45" d="M829.87,823.37a46,46,0,0,1-.41,5,43,43,0,0,0-.41,4.9,3.82,3.82,0,0,1-.33,2,6.48,6.48,0,0,1-1.81,1.26,31.92,31.92,0,0,1-15.65,3.89q-15.82,0-15.82-12.1,0-3.62.27-10.86t.27-10.87c0-1.6-.92-2.41-2.79-2.41h-.71a6.6,6.6,0,0,1-.71.06c-1.39,0-2.08-.49-2.08-1.48,0-.59,0-1.48.14-2.68s.13-2.1.13-2.68c0-.77,0-1.94-.13-3.51s-.14-2.74-.14-3.5,1.17-1.13,3.5-1.21c1.32,0,2-.4,2.14-1.09a40.64,40.64,0,0,0,.22-6.57q-.22-7.07-.22-6.73c0-4.24.4-6.35,1.2-6.35a19.51,19.51,0,0,1,4.22.66,42.35,42.35,0,0,0,4.32.82q2.79.38,8.43,1c.91.07,1.37.38,1.37.93q0,2.19-.36,6.62c-.24,3-.35,5.18-.35,6.68,0,1.79.52,2.68,1.59,2.68,1.27,0,3.2-.06,5.8-.16s4.54-.17,5.85-.17c.8,0,1.21.27,1.21.82a36.54,36.54,0,0,1-.28,3.78q-.27,2.52-.27,3.78c0,.87,0,2.15.05,3.83s.06,2.95.06,3.83-.53,1.15-1.59,1.15c-.73,0-2,0-3.66-.08s-2.94-.08-3.67-.08h-4.11c-.54,0-.82.8-.82,2.4v3.89c0,1.75.06,3,.06,3.89,0,3.06.34,5.18,1,6.35,1,1.57,2.92,2.35,5.8,2.35a17.68,17.68,0,0,0,3.91-.63,17.68,17.68,0,0,1,3.59-.63C829.48,822.17,829.87,822.57,829.87,823.37Z"/><path class="cls-44" d="M891.36,799.73l-.11,37.77q0,1.92-1.53,2.13-1.76.23-8,.22a53.58,53.58,0,0,1-8.38-.44,2.09,2.09,0,0,1-1.8-2.35q0-4.71.16-14.18t.17-14.17q0-6.4-6.52-6.41a10.45,10.45,0,0,0-5.14,1.75c-2.16,1.28-3.23,2.61-3.23,4v13.52c0,1.75,0,4.39.11,7.91s.11,6.16.11,7.91c0,1.35-.57,2.1-1.7,2.24s-4.31.22-9.52.22a33.37,33.37,0,0,1-6.46-.44c-1.32-.29-2-.93-2-1.91q0-4.32.05-13t0-13q0-17.91-.38-29.62-.16-4.1-.27-8.21a54.86,54.86,0,0,0-1-8.15,5.15,5.15,0,0,1-.16-1,1.08,1.08,0,0,1,.82-1.1,21.92,21.92,0,0,1,5-.6c2.92-.11,4.62-.2,5.09-.27l9.91-1.15c.58,0,.88.38.88,1.15,0,1.17-.08,2.75-.22,4.76-.15,2.34-.22,3.92-.22,4.76q-.33,12.38-.33,19.54c0,.73.18,1.1.55,1.1q.1,0,2.79-1.92a37.92,37.92,0,0,1,6.07-3.56,20.61,20.61,0,0,1,8.38-1.91,18.5,18.5,0,0,1,11.71,3.66,12.9,12.9,0,0,1,5.09,10.79"/><path class="cls-45" d="M891.36,799.73l-.11,37.77q0,1.92-1.53,2.13-1.76.23-8,.22a53.58,53.58,0,0,1-8.38-.44,2.09,2.09,0,0,1-1.8-2.35q0-4.71.16-14.18t.17-14.17q0-6.4-6.52-6.41a10.45,10.45,0,0,0-5.14,1.75c-2.16,1.28-3.23,2.61-3.23,4v13.52c0,1.75,0,4.39.11,7.91s.11,6.16.11,7.91c0,1.35-.57,2.1-1.7,2.24s-4.31.22-9.52.22a33.37,33.37,0,0,1-6.46-.44c-1.32-.29-2-.93-2-1.91q0-4.32.05-13t0-13q0-17.91-.38-29.62-.16-4.1-.27-8.21a54.86,54.86,0,0,0-1-8.15,5.15,5.15,0,0,1-.16-1,1.08,1.08,0,0,1,.82-1.1,21.92,21.92,0,0,1,5-.6c2.92-.11,4.62-.2,5.09-.27l9.91-1.15c.58,0,.88.38.88,1.15,0,1.17-.08,2.75-.22,4.76-.15,2.34-.22,3.92-.22,4.76q-.33,12.38-.33,19.54c0,.73.18,1.1.55,1.1q.1,0,2.79-1.92a37.92,37.92,0,0,1,6.07-3.56,20.61,20.61,0,0,1,8.38-1.91,18.5,18.5,0,0,1,11.71,3.66A12.9,12.9,0,0,1,891.36,799.73Z"/><path class="cls-44" d="M951.55,809.69q0,5.53-3.56,6.29-.6.12-11.33,1.21-6.46.72-19.27,1.7A7.73,7.73,0,0,0,922,824.3a16.34,16.34,0,0,0,7.23,1.54,20.68,20.68,0,0,0,9.79-2.63l4.17-2.63c.76.37,2,2.23,3.85,5.59s2.71,5.49,2.71,6.4c0,.26-.27.68-.82,1.26Q942.3,841,928.23,841q-13,0-21-7.61Q899,825.68,899,812.76q0-12.6,7.33-20.64,7.56-8.32,20-8.32a23.77,23.77,0,0,1,17.84,7.66,25.47,25.47,0,0,1,7.34,18.23m-19.16-3.34a8.47,8.47,0,0,0-2.41-6,7.6,7.6,0,0,0-5.75-2.58,6.92,6.92,0,0,0-5.69,2.9,10,10,0,0,0-2.08,6.3,1.33,1.33,0,0,0,1.53,1.48,96,96,0,0,0,12.59-1.26c1.2-.19,1.81-.48,1.81-.88"/><path class="cls-45" d="M951.55,809.69q0,5.53-3.56,6.29-.6.12-11.33,1.21-6.46.72-19.27,1.7A7.73,7.73,0,0,0,922,824.3a16.34,16.34,0,0,0,7.23,1.54,20.68,20.68,0,0,0,9.79-2.63l4.17-2.63c.76.37,2,2.23,3.85,5.59s2.71,5.49,2.71,6.4c0,.26-.27.68-.82,1.26Q942.3,841,928.23,841q-13,0-21-7.61Q899,825.68,899,812.76q0-12.6,7.33-20.64,7.56-8.32,20-8.32a23.77,23.77,0,0,1,17.84,7.66A25.47,25.47,0,0,1,951.55,809.69Zm-19.16-3.34a8.47,8.47,0,0,0-2.41-6,7.6,7.6,0,0,0-5.75-2.58,6.92,6.92,0,0,0-5.69,2.9,10,10,0,0,0-2.08,6.3,1.33,1.33,0,0,0,1.53,1.48,96,96,0,0,0,12.59-1.26C931.78,807,932.39,806.75,932.39,806.35Z"/><path class="cls-44" d="M1046.16,837.39q0,1.92-1.65,2.13t-8.09.22a59.49,59.49,0,0,1-8.32-.33c-1.1-.22-1.65-1.11-1.65-2.68s.06-4.19.17-7.53.16-5.84.16-7.52q0-9.58-.22-13.63-.33-6.51-6.18-6.51a7.9,7.9,0,0,0-5.12,2.16,7.26,7.26,0,0,0-2.82,4.79q-.23,2.29-.22,13.46c0,1.72.06,4.32.16,7.8s.17,6.11.17,7.86q0,1.8-1.59,1.8H994.38c-1,0-1.54-.74-1.54-2.24q0-2.58.17-7.72t.16-7.77c0-1.35,0-3.4-.11-6.13s-.11-4.8-.11-6.19q0-7.82-6-7.82a9.44,9.44,0,0,0-5.2,1.86q-3.07,2-3.07,4.27,0,5,.06,14.89t.05,14.83a2.73,2.73,0,0,1-.33,1.7,3.13,3.13,0,0,1-1.69.43q-2.47.22-7.78.22-3.45,0-7.83-.33a2.84,2.84,0,0,1-1.55-.38,3,3,0,0,1-.25-1.64q0-4.38.05-13.11t.06-13.11a174.48,174.48,0,0,0-1.32-20.2,7,7,0,0,1-.11-1,1.23,1.23,0,0,1,.77-1.26,18.27,18.27,0,0,1,4.54-.82c2.74-.26,4.37-.42,4.88-.5s1.8-.45,4.32-1.15a16.6,16.6,0,0,1,4.33-.76c.69,0,1.05,1.26,1.09,3.8s.18,3.8.44,3.8a5.66,5.66,0,0,0,1.26-.76,51.15,51.15,0,0,1,7.77-5.26,21,21,0,0,1,9.14-2,17.79,17.79,0,0,1,9,2.25,11.62,11.62,0,0,1,5.74,7.06,23.05,23.05,0,0,1,8-6.63,21.13,21.13,0,0,1,9.9-2.68q7.23,0,11.77,3.34,5.15,3.78,5.15,10.78,0,2.91-.17,8.73t-.16,8.73q0,3.45.16,10.38t.17,10.37"/><path class="cls-45" d="M1046.16,837.39q0,1.92-1.65,2.13t-8.09.22a59.49,59.49,0,0,1-8.32-.33c-1.1-.22-1.65-1.11-1.65-2.68s.06-4.19.17-7.53.16-5.84.16-7.52q0-9.58-.22-13.63-.33-6.51-6.18-6.51a7.9,7.9,0,0,0-5.12,2.16,7.26,7.26,0,0,0-2.82,4.79q-.23,2.29-.22,13.46c0,1.72.06,4.32.16,7.8s.17,6.11.17,7.86q0,1.8-1.59,1.8H994.38c-1,0-1.54-.74-1.54-2.24q0-2.58.17-7.72t.16-7.77c0-1.35,0-3.4-.11-6.13s-.11-4.8-.11-6.19q0-7.82-6-7.82a9.44,9.44,0,0,0-5.2,1.86q-3.07,2-3.07,4.27,0,5,.06,14.89t.05,14.83a2.73,2.73,0,0,1-.33,1.7,3.13,3.13,0,0,1-1.69.43q-2.47.22-7.78.22-3.45,0-7.83-.33a2.84,2.84,0,0,1-1.55-.38,3,3,0,0,1-.25-1.64q0-4.38.05-13.11t.06-13.11a174.48,174.48,0,0,0-1.32-20.2,7,7,0,0,1-.11-1,1.23,1.23,0,0,1,.77-1.26,18.27,18.27,0,0,1,4.54-.82c2.74-.26,4.37-.42,4.88-.5s1.8-.45,4.32-1.15a16.6,16.6,0,0,1,4.33-.76c.69,0,1.05,1.26,1.09,3.8s.18,3.8.44,3.8a5.66,5.66,0,0,0,1.26-.76,51.15,51.15,0,0,1,7.77-5.26,21,21,0,0,1,9.14-2,17.79,17.79,0,0,1,9,2.25,11.62,11.62,0,0,1,5.74,7.06,23.05,23.05,0,0,1,8-6.63,21.13,21.13,0,0,1,9.9-2.68q7.23,0,11.77,3.34,5.15,3.78,5.15,10.78,0,2.91-.17,8.73t-.16,8.73q0,3.45.16,10.38T1046.16,837.39Z"/><path class="cls-44" d="M1112.69,812.05q0,4.2.49,12.53t.49,12.48c0,1.46-.64,2.24-1.91,2.35q-6.79.5-15.55.5c-.69,0-1.16-1-1.39-3.15s-.52-3.17-.85-3.2a4.7,4.7,0,0,0-1.15.93q-6.13,6.18-13.14,6.18a22,22,0,0,1-17.68-8.43,28.34,28.34,0,0,1-6.62-18.83q0-12.64,6.84-20.36,7.13-8,19.49-8,8.6,0,13.57,6c.15.18.28.28.39.28.32,0,.7-.89,1.12-2.66s.92-2.66,1.5-2.66a49,49,0,0,1,7.72,1.15,74.49,74.49,0,0,1,7.77,1.87c.55.21.82.51.82.87a9.2,9.2,0,0,1-.16,1.15,120.17,120.17,0,0,0-1.75,21m-17.63.32a10.64,10.64,0,0,0-2.92-7.69,11.11,11.11,0,0,0-15.25,0,10.66,10.66,0,0,0-2.9,7.71,10.53,10.53,0,0,0,3.07,7.61,9.93,9.93,0,0,0,7.44,3.17,10.17,10.17,0,0,0,7.61-3,10.66,10.66,0,0,0,3-7.75"/><path class="cls-45" d="M1112.69,812.05q0,4.2.49,12.53t.49,12.48c0,1.46-.64,2.24-1.91,2.35q-6.79.5-15.55.5c-.69,0-1.16-1-1.39-3.15s-.52-3.17-.85-3.2a4.7,4.7,0,0,0-1.15.93q-6.13,6.18-13.14,6.18a22,22,0,0,1-17.68-8.43,28.34,28.34,0,0,1-6.62-18.83q0-12.64,6.84-20.36,7.13-8,19.49-8,8.6,0,13.57,6c.15.18.28.28.39.28.32,0,.7-.89,1.12-2.66s.92-2.66,1.5-2.66a49,49,0,0,1,7.72,1.15,74.49,74.49,0,0,1,7.77,1.87c.55.21.82.51.82.87a9.2,9.2,0,0,1-.16,1.15A120.17,120.17,0,0,0,1112.69,812.05Zm-17.63.32a10.64,10.64,0,0,0-2.92-7.69,11.11,11.11,0,0,0-15.25,0,10.66,10.66,0,0,0-2.9,7.71,10.53,10.53,0,0,0,3.07,7.61,9.93,9.93,0,0,0,7.44,3.17,10.17,10.17,0,0,0,7.61-3A10.66,10.66,0,0,0,1095.06,812.37Z"/><path class="cls-44" d="M1178.4,779.37c0,.73-.4,1.09-1.2,1.09q-2.09,0-16.48-.82-.33,13.85-.33,19.32,0,6.46.52,19.43t.52,19.43c0,.7-.16,1.14-.49,1.32a6.93,6.93,0,0,1-1.54.27,78.87,78.87,0,0,1-9.63.44,75.82,75.82,0,0,1-9.91-.44,1.6,1.6,0,0,1-1.53-1.69q0-6.47.55-19.38t.55-19.38q0-4.26-.44-19.05-11,1.1-17.46,1.1c-.59,0-.88-.18-.88-.55a32.45,32.45,0,0,1,.77-4.21c.58-2.56.91-4.11,1-4.66.11-1.71.24-3.43.39-5.14.25-2.74.69-4.11,1.31-4.11l.77.06q8.87,1.15,26.21,1.15,4.93,0,18.18-1l7.17-.55a3,3,0,0,1,1.26.14c.11.09.18.44.21,1.07,0,1,0,2.35-.1,4.1-.08,1.94-.11,3.3-.11,4.1a34.18,34.18,0,0,0,.35,4,32.45,32.45,0,0,1,.36,4"/><path class="cls-45" d="M1178.4,779.37c0,.73-.4,1.09-1.2,1.09q-2.09,0-16.48-.82-.33,13.85-.33,19.32,0,6.46.52,19.43t.52,19.43c0,.7-.16,1.14-.49,1.32a6.93,6.93,0,0,1-1.54.27,78.87,78.87,0,0,1-9.63.44,75.82,75.82,0,0,1-9.91-.44,1.6,1.6,0,0,1-1.53-1.69q0-6.47.55-19.38t.55-19.38q0-4.26-.44-19.05-11,1.1-17.46,1.1c-.59,0-.88-.18-.88-.55a32.45,32.45,0,0,1,.77-4.21c.58-2.56.91-4.11,1-4.66.11-1.71.24-3.43.39-5.14.25-2.74.69-4.11,1.31-4.11l.77.06q8.87,1.15,26.21,1.15,4.93,0,18.18-1l7.17-.55a3,3,0,0,1,1.26.14c.11.09.18.44.21,1.07,0,1,0,2.35-.1,4.1-.08,1.94-.11,3.3-.11,4.1a34.18,34.18,0,0,0,.35,4A32.45,32.45,0,0,1,1178.4,779.37Z"/><path class="cls-44" d="M1207.6,799q0,6.46.33,19.44t.33,19.42c0,.74-.17,1.19-.49,1.37a11,11,0,0,1-1.43.22,82.12,82.12,0,0,1-9.53.44,69.86,69.86,0,0,1-10.18-.44c-1.05-.22-1.58-.78-1.58-1.69q0,.87.49-9.64,1-22.17,1-29.12,0-5.85-.39-17.57t-.38-17.57q0-1.2,1.26-1.2c1.13,0,2.84,0,5.12.16s4,.17,5.12.17,2.8-.06,5-.17,3.88-.16,5-.16,1.59.4,1.59,1.2q0,5.86-.63,17.57T1207.6,799"/><path class="cls-45" d="M1207.6,799q0,6.46.33,19.44t.33,19.42c0,.74-.17,1.19-.49,1.37a11,11,0,0,1-1.43.22,82.12,82.12,0,0,1-9.53.44,69.86,69.86,0,0,1-10.18-.44c-1.05-.22-1.58-.78-1.58-1.69q0,.87.49-9.64,1-22.17,1-29.12,0-5.85-.39-17.57t-.38-17.57q0-1.2,1.26-1.2c1.13,0,2.84,0,5.12.16s4,.17,5.12.17,2.8-.06,5-.17,3.88-.16,5-.16,1.59.4,1.59,1.2q0,5.86-.63,17.57T1207.6,799Z"/><path class="cls-44" d="M1283.82,827a4.13,4.13,0,0,1-1.15,2.3q-10.07,12-26.77,12-17.07,0-27.69-11.66-10.35-11.28-10.35-28.46,0-16.65,10.13-28.25a34,34,0,0,1,26.87-12.15q17.75,0,27.81,10.89a3.46,3.46,0,0,1,1.1,2.14c0,.69-1.27,3.27-3.81,7.72s-4.13,7-4.79,7.5a1.47,1.47,0,0,1-1.09.43,14.53,14.53,0,0,1-2.74-2.19,28.61,28.61,0,0,0-5.8-4.1,19.64,19.64,0,0,0-9-2.19,15.64,15.64,0,0,0-12.86,6,21.45,21.45,0,0,0-4.43,13.79,21.86,21.86,0,0,0,4.43,14,15.52,15.52,0,0,0,12.86,6.13,20.27,20.27,0,0,0,9-2.08,27.77,27.77,0,0,0,5.7-3.83,13.72,13.72,0,0,1,2.68-2.08,1.52,1.52,0,0,1,1.09.6c.59.66,2.17,2.94,4.77,6.84,2.66,4.06,4,6.28,4,6.68"/><path class="cls-45" d="M1283.82,827a4.13,4.13,0,0,1-1.15,2.3q-10.07,12-26.77,12-17.07,0-27.69-11.66-10.35-11.28-10.35-28.46,0-16.65,10.13-28.25a34,34,0,0,1,26.87-12.15q17.75,0,27.81,10.89a3.46,3.46,0,0,1,1.1,2.14c0,.69-1.27,3.27-3.81,7.72s-4.13,7-4.79,7.5a1.47,1.47,0,0,1-1.09.43,14.53,14.53,0,0,1-2.74-2.19,28.61,28.61,0,0,0-5.8-4.1,19.64,19.64,0,0,0-9-2.19,15.64,15.64,0,0,0-12.86,6,21.45,21.45,0,0,0-4.43,13.79,21.86,21.86,0,0,0,4.43,14,15.52,15.52,0,0,0,12.86,6.13,20.27,20.27,0,0,0,9-2.08,27.77,27.77,0,0,0,5.7-3.83,13.72,13.72,0,0,1,2.68-2.08,1.52,1.52,0,0,1,1.09.6c.59.66,2.17,2.94,4.77,6.84C1282.49,824.42,1283.82,826.64,1283.82,827Z"/><polyline class="cls-9" points="737.14 866.89 956.58 907 1176.01 866.89"/></g></g></svg>