<svg width="34" height="34" viewBox="0 0 34 34" fill="none" xmlns="http://www.w3.org/2000/svg">
<circle cx="17" cy="17" r="16" stroke="white" stroke-width="2"/>
<path d="M24.8003 19.6C25.8003 19.8 26.1003 21.1 26.2003 21.5C26.5003 22.9 25.9003 24.4 25.5003 24.4C25.3003 24.4 25.4003 23.8 24.8003 23.2C24.3003 22.7 23.9003 22.9 23.4003 22.4C23.1003 22.1 22.6003 21.4 22.8003 20.7C23.2003 19.9 24.1003 19.4 24.8003 19.6Z" fill="white"/>
<path d="M23.1948 16.8406L21.0298 18.0906L22.2798 20.2556L24.4448 19.0056L23.1948 16.8406Z" fill="white"/>
<path d="M23.1001 16.6L21.0001 17.9L15.6001 8.60002C15.4001 8.30002 15.5001 7.90002 15.8001 7.80002L17.0001 7.10002C17.3001 6.90002 17.6001 7.00002 17.8001 7.30002L23.1001 16.6Z" fill="white"/>
<path d="M13.7059 11.8414L9.00586 19.9818L11.1709 21.2318L15.8709 13.0914L13.7059 11.8414Z" fill="white"/>
<path d="M16.0999 12.9L13.8999 11.6L14.5999 10.4C14.8999 10 15.4999 9.80001 15.8999 10.1L16.3999 10.4C16.8999 10.7 16.9999 11.3 16.7999 11.7L16.0999 12.9Z" fill="white"/>
<path d="M8.29961 23.9L10.7996 21.6C10.8996 21.5 10.8996 21.4 10.7996 21.4L8.99961 20.4C8.89961 20.4 8.79961 20.4 8.79961 20.5L8.09961 23.8C8.09961 23.9 8.19961 24 8.29961 23.9Z" fill="white"/>
<path d="M26.9 15.6H7V17.9H26.9V15.6Z" fill="white"/>
</svg>
