<svg width="34" height="34" viewBox="0 0 34 34" fill="none" xmlns="http://www.w3.org/2000/svg">
<circle cx="17" cy="17" r="16" stroke="white" stroke-width="2"/>
<path d="M24.8988 14.4619L13.2389 7.34552C12.5911 6.86188 11.749 6.86188 11.1012 7.34552C10.3887 7.76006 10 8.52006 10 9.34915V23.651C10 24.4801 10.3887 25.2401 11.1012 25.6546C11.4251 25.8619 11.8138 26.0001 12.2024 26.0001C12.5911 26.0001 12.915 25.8619 13.2389 25.6546L24.8988 18.4692C25.6113 18.0546 26 17.2946 26 16.4655C26 15.6364 25.6113 14.8764 24.8988 14.4619ZM24.7045 16.4655C24.7045 16.811 24.5101 17.0873 24.251 17.2946L22.0486 18.6073L20.3644 16.4655L22.0486 14.3237L24.251 15.7055C24.5101 15.8437 24.7045 16.1201 24.7045 16.4655ZM20.9474 19.3673L15.7004 22.6146L19.587 17.571L20.9474 19.3673ZM15.7652 10.4546L20.9474 13.6328L19.587 15.3601L15.7652 10.4546ZM18.6802 16.4655L12.4615 24.5492C12.2024 24.6873 11.9433 24.6182 11.6842 24.4801C11.4899 24.2728 11.2955 23.9964 11.2955 23.651V9.34915C11.2955 9.0037 11.4899 8.72733 11.749 8.52006C12.0081 8.38188 12.2672 8.31279 12.5263 8.45097L18.6802 16.4655Z" fill="white"/>
</svg>
