<svg xmlns="http://www.w3.org/2000/svg" viewBox="0 0 616 502"><defs><style>.cls-1{fill:none;}.cls-2{fill:#fff;}.cls-3{fill:#e9f0f3;}.cls-4{fill:#29b473;}</style></defs><title>CurriculumMiddleRight</title><g id="Layer_2" data-name="Layer 2"><g id="Layer_1-2" data-name="Layer 1"><rect class="cls-1" width="616" height="502"/><path class="cls-2" d="M562.58,99.44h-433a10,10,0,0,0-10,10V138c-29.69.26-53.67,23.85-53.67,52.93s24,52.66,53.67,52.93v28.58a10,10,0,0,0,10,10H410.88c0,.1,0,.19,0,.29,0,29.24,24.25,52.95,54.17,52.95s54.17-23.71,54.17-52.95c0-.1,0-.19,0-.29h43.38a10,10,0,0,0,10-10v-163A10,10,0,0,0,562.58,99.44Z"/><rect class="cls-3" x="235.1" y="143.63" width="56" height="88" rx="12" ry="12"/><rect class="cls-3" x="303.1" y="143.63" width="56" height="88" rx="12" ry="12"/><rect class="cls-3" x="375.1" y="143.63" width="56" height="88" rx="12" ry="12"/><path class="cls-4" d="M266.22,170.94a13.39,13.39,0,0,1,4.61.74,10,10,0,0,1,3.41,2,8.26,8.26,0,0,1,2.11,2.89,8.53,8.53,0,0,1,.72,3.47,11.54,11.54,0,0,1-.33,2.91,6.89,6.89,0,0,1-1,2.19,6.25,6.25,0,0,1-1.63,1.57,10,10,0,0,1-2.22,1.08q5.81,2,5.81,7.89a10.94,10.94,0,0,1-1,4.85,9.86,9.86,0,0,1-2.7,3.43,11.53,11.53,0,0,1-3.93,2.06,16,16,0,0,1-4.65.68,16.56,16.56,0,0,1-4.44-.54,10.22,10.22,0,0,1-3.46-1.68,11,11,0,0,1-2.65-2.92,19.48,19.48,0,0,1-2-4.22l3.31-1.34a3.63,3.63,0,0,1,.85-.27,4.73,4.73,0,0,1,.83-.07,3.11,3.11,0,0,1,1.38.3,2,2,0,0,1,.93.88,8.76,8.76,0,0,0,2.29,2.89,4.63,4.63,0,0,0,2.84.9,5.19,5.19,0,0,0,2.17-.42,4.73,4.73,0,0,0,1.54-1.08,4.31,4.31,0,0,0,.92-1.5,4.84,4.84,0,0,0,.32-1.71,12.26,12.26,0,0,0-.16-2,2.63,2.63,0,0,0-.88-1.55,4.93,4.93,0,0,0-2.17-1,18.31,18.31,0,0,0-4-.35v-5.13a14.75,14.75,0,0,0,3.53-.34,5.39,5.39,0,0,0,2.07-.92,2.77,2.77,0,0,0,1-1.43,6.74,6.74,0,0,0,.24-1.85,4.66,4.66,0,0,0-1-3.18,3.89,3.89,0,0,0-3-1.11,4.67,4.67,0,0,0-2.78.88,4.55,4.55,0,0,0-.95,1,5.32,5.32,0,0,0-.64,1.2,3.43,3.43,0,0,1-1,1.56,2.43,2.43,0,0,1-1.59.48,4.7,4.7,0,0,1-.52,0l-.56-.07-3.94-.7a13.23,13.23,0,0,1,1.48-4.56,10.72,10.72,0,0,1,6.42-5.17A15.4,15.4,0,0,1,266.22,170.94Z"/><path class="cls-4" d="M334,178v9.5h8.88v5.33H334v9.55H328v-9.55h-8.83V187.5H328V178Z"/><path class="cls-4" d="M397.94,193.43l-8-12h7.15a2.64,2.64,0,0,1,1.17.2,2,2,0,0,1,.66.69l4.44,7.36a5.06,5.06,0,0,1,.36-.84c.14-.27.3-.56.48-.86l3.16-5.54a2,2,0,0,1,.7-.78,1.73,1.73,0,0,1,.94-.23h6.81l-8,11.69,8.35,13.2H409a2,2,0,0,1-1.28-.39,3.28,3.28,0,0,1-.79-.91l-4.44-7.63a5.84,5.84,0,0,1-.29.77,6.06,6.06,0,0,1-.36.67L398.18,205a3.29,3.29,0,0,1-.77.9,1.85,1.85,0,0,1-1.2.4h-6.63Z"/></g></g></svg>