<svg xmlns="http://www.w3.org/2000/svg" viewBox="0 0 616 502"><defs><style>.cls-1{fill:none;}.cls-2{fill:#fff;}.cls-3{font-size:48px;fill:#29b473;font-family:Lato-Black, Lato;}</style></defs><title>CurriculumMiddleLeft</title><g id="Layer_2" data-name="Layer 2"><g id="Layer_1-2" data-name="Layer 1"><rect class="cls-1" width="616" height="502"/><path class="cls-2" d="M523.05,139.83h.54V111.26a10,10,0,0,0-10-10H379.16C378,73,354.22,50.48,325.05,50.48S272.1,73,270.94,101.26H80.54a10,10,0,0,0-10,10v28.58h-.49c-29.92,0-54.17,23.7-54.17,52.94s24.25,52.94,54.17,52.94h.49v28.58a10,10,0,0,0,10,10H513.59a10,10,0,0,0,10-10V245.7h-.54c-29.92,0-54.17-23.7-54.17-52.94S493.13,139.83,523.05,139.83Z"/><text class="cls-3" transform="translate(229.36 208.1)">3 + x</text></g></g></svg>