<svg xmlns="http://www.w3.org/2000/svg" viewBox="0 0 616 502"><defs><style>.cls-1,.cls-4{fill:none;}.cls-2{fill:#fff;}.cls-3{font-size:48px;fill:#3cf;font-family:Lato-Black, Lato;}.cls-4{stroke:#3cf;stroke-miterlimit:10;stroke-width:3px;}</style></defs><title>CurriculumTopLeft</title><g id="Layer_2" data-name="Layer 2"><g id="Layer_1-2" data-name="Layer 1"><rect class="cls-1" width="616" height="502"/><path class="cls-2" d="M605,155.44a54,54,0,0,0-52-53.95V73.93a10,10,0,0,0-10-10H380.48a54,54,0,0,0-107.92,0H110a10,10,0,0,0-10,10V237a10,10,0,0,0,10,10H543a10,10,0,0,0,10-10V209.39A54,54,0,0,0,605,155.44Z"/><text class="cls-3" transform="translate(310.46 142.99)">1<tspan x="0" y="68">4</tspan></text><line class="cls-4" x1="275.51" y1="160.7" x2="370.01" y2="160.7"/></g></g></svg>