<svg xmlns="http://www.w3.org/2000/svg" viewBox="0 0 616 502"><defs><style>.cls-1{fill:none;}.cls-2{fill:#fff;}.cls-3,.cls-4{fill:#3cf;}.cls-4{opacity:0.25;}</style></defs><title>CurriculumTopRight</title><g id="Layer_2" data-name="Layer 2"><g id="Layer_1-2" data-name="Layer 1"><rect class="cls-1" width="616" height="502"/><path class="cls-2" d="M90.6,68.6a10,10,0,0,0-10,10v27.52H81a54,54,0,1,1,0,108H80.6v27.52a10,10,0,0,0,10,10H253.15a54,54,0,0,0,107.94,0H523.64a10,10,0,0,0,10-10V78.6a10,10,0,0,0-10-10Z"/><path class="cls-3" d="M308.59,152.41H359A50.42,50.42,0,1,1,308.59,102Z"/><path class="cls-4" d="M314.58,146.42V96A50.43,50.43,0,0,1,365,146.42Z"/></g></g></svg>