<svg xmlns="http://www.w3.org/2000/svg" viewBox="0 0 616 502"><defs><style>.cls-1{fill:none;}.cls-2{fill:#fff;}.cls-3{fill:#e5c1c1;}.cls-4{fill:#d89898;}</style></defs><title>CurriculumBottomLeft</title><g id="Layer_2" data-name="Layer 2"><g id="Layer_1-2" data-name="Layer 1"><rect class="cls-1" width="616" height="502"/><path class="cls-2" d="M516.49,221.35A53.74,53.74,0,0,0,464,167.63V139.84a10,10,0,0,0-10-10H306.49a53.74,53.74,0,0,0-107.47,0H21a10,10,0,0,0-10,10v163a10,10,0,0,0,10,10H44.52c0,.16,0,.32,0,.49a53.75,53.75,0,0,0,107.5,0c0-.17,0-.33,0-.49H454a10,10,0,0,0,10-10V275.07A53.75,53.75,0,0,0,516.49,221.35Z"/><path class="cls-3" d="M240.63,180.3c-34.6,0-62.65,30.2-62.81,67.53H303.45C303.29,210.5,275.23,180.3,240.63,180.3Zm-35.16,47c6.82-13.39,20-22.47,35.16-22.47s28.34,9.08,35.16,22.47Z"/><circle class="cls-3" cx="240.63" cy="231.71" r="11.48"/><polygon class="cls-4" points="274.39 203.46 269.55 199.66 275.14 191.35 279.99 195.15 274.39 203.46"/><polygon class="cls-4" points="292.27 233.42 290.41 227.27 299.46 224.1 301.31 230.25 292.27 233.42"/><polygon class="cls-4" points="189 233.42 179.95 230.25 181.81 224.1 190.85 227.27 189 233.42"/><polygon class="cls-4" points="206.87 203.46 201.28 195.15 206.13 191.35 211.72 199.66 206.87 203.46"/><rect class="cls-4" x="237.64" y="180.3" width="5.99" height="10.27"/><polygon class="cls-4" points="259.96 194.38 254.26 192.38 257.2 182.62 262.9 184.62 259.96 194.38"/><polygon class="cls-4" points="285.53 216.91 282.01 211.68 289.7 205.65 293.22 210.88 285.53 216.91"/><polygon class="cls-4" points="195.74 216.91 188.04 210.88 191.56 205.65 199.26 211.68 195.74 216.91"/><polygon class="cls-4" points="221.31 194.38 218.37 184.62 224.07 182.62 227 192.38 221.31 194.38"/><rect class="cls-4" x="177.8" y="241.19" width="125.79" height="5.99"/></g></g></svg>