<svg xmlns="http://www.w3.org/2000/svg" viewBox="0 0 616 502"><defs><style>.cls-1{fill:none;}.cls-2{fill:#fff;}.cls-3{fill:#d7f7ff;opacity:0.35;}.cls-4{fill:#e5c1c1;}.cls-5{fill:#d89898;}</style></defs><title>CurriculumBottomRight</title><g id="Layer_2" data-name="Layer 2"><g id="Layer_1-2" data-name="Layer 1"><rect class="cls-1" width="616" height="502"/><path class="cls-2" d="M597.38,130.89H434.6v0a53.75,53.75,0,0,0-107.5,0v0H164.33a10,10,0,0,0-10,10v27.78l.75,0a53.75,53.75,0,1,1,0,107.5l-.75,0v27.78a10,10,0,0,0,10,10H597.38a10,10,0,0,0,10-10v-163A10,10,0,0,0,597.38,130.89Z"/><rect class="cls-3" x="320.19" y="168.18" width="122.17" height="104.05" rx="10.88" ry="10.88"/><path class="cls-4" d="M338.27,249.27l35-32.77a48,48,0,0,1,12.95,32.77Z"/><path class="cls-5" d="M427.21,250.25H337.78a1.47,1.47,0,0,1-1-2.54l65.28-61.14a1.46,1.46,0,1,1,2,2.14l-62.56,58.6h85.72a1.47,1.47,0,1,1,0,2.94Z"/><path class="cls-5" d="M386.69,250.27H337.8a1.47,1.47,0,0,1-1-2.54l35.69-33.43a1.47,1.47,0,0,1,2.07.07,50.41,50.41,0,0,1,13.61,34.43A1.47,1.47,0,0,1,386.69,250.27Zm-45.18-2.94H385.2a47.47,47.47,0,0,0-11.81-29.87Z"/><circle class="cls-4" cx="394.19" cy="195.3" r="5.38"/><path class="cls-5" d="M394.19,202.15A6.85,6.85,0,1,1,401,195.3,6.85,6.85,0,0,1,394.19,202.15Zm0-10.76a3.92,3.92,0,1,0,3.91,3.91A3.92,3.92,0,0,0,394.19,191.39Z"/><circle class="cls-5" cx="337.29" cy="248.78" r="3.42"/><circle class="cls-4" cx="415.22" cy="248.62" r="5.38"/><path class="cls-5" d="M415.22,255.46a6.85,6.85,0,1,1,6.85-6.84A6.86,6.86,0,0,1,415.22,255.46Zm0-10.76a3.92,3.92,0,1,0,3.91,3.92A3.92,3.92,0,0,0,415.22,244.7Z"/></g></g></svg>