<svg xmlns="http://www.w3.org/2000/svg" viewBox="0 0 1347.38 478.55"><defs><style>.cls-1,.cls-2,.cls-4{fill:#fff;}.cls-1,.cls-3,.cls-8{opacity:0.25;}.cls-2{opacity:0.5;}.cls-3{fill:#ccc;}.cls-5{font-size:48px;font-family:Lato-Black, Lato;}.cls-5,.cls-7,.cls-8{fill:#3cf;}.cls-6{fill:none;stroke:#3cf;stroke-miterlimit:10;stroke-width:3px;}</style></defs><title>Curriculum</title><g id="Layer_2" data-name="Layer 2"><g id="Layer_3" data-name="Layer 3"><path class="cls-1" d="M1337.38,119.45H1174.61v0a53.75,53.75,0,0,0-107.5,0v0H904.34a10,10,0,0,0-10,10v27.77h.74a53.75,53.75,0,1,1,0,107.5l-.74,0v27.78a10,10,0,0,0,10,10h433a10,10,0,0,0,10-10v-163A10,10,0,0,0,1337.38,119.45Z"/><path class="cls-2" d="M1302.59,88h-433a10,10,0,0,0-10,10v28.58c-29.68.26-53.66,23.85-53.66,52.93s24,52.66,53.66,52.93V261a10,10,0,0,0,10,10h281.34v.3c0,29.24,24.25,52.94,54.16,52.94s54.17-23.7,54.17-52.94c0-.1,0-.2,0-.3h43.39a10,10,0,0,0,10-10V98A10,10,0,0,0,1302.59,88Z"/><path class="cls-1" d="M505.5,209.9a53.73,53.73,0,0,0-52.45-53.71v-27.8a10,10,0,0,0-10-10H295.49a53.74,53.74,0,0,0-107.47,0H10a10,10,0,0,0-10,10v163a10,10,0,0,0,10,10H33.53c0,.16,0,.33,0,.49a53.75,53.75,0,0,0,107.5,0c0-.16,0-.33,0-.49H443.05a10,10,0,0,0,10-10V263.62A53.74,53.74,0,0,0,505.5,209.9Z"/><path class="cls-2" d="M520.05,128.38l.54,0V99.82a10,10,0,0,0-10-10H376.16C375,61.58,351.22,39,322.05,39S269.1,61.58,267.94,89.82H77.55a10,10,0,0,0-10,10v28.57h-.5c-29.92,0-54.17,23.71-54.17,52.94s24.25,53,54.17,53h.5v28.57a10,10,0,0,0,10,10h433a10,10,0,0,0,10-10V234.25l-.54,0c-29.92,0-54.17-23.71-54.17-53S490.13,128.38,520.05,128.38Z"/><ellipse class="cls-3" cx="293.36" cy="455.55" rx="121.36" ry="15"/><ellipse class="cls-3" cx="1066.64" cy="463.55" rx="121.36" ry="15"/><path class="cls-4" d="M585,144a54,54,0,0,0-52-53.94V62.48a10,10,0,0,0-10-10H360.48a54,54,0,0,0-107.92,0H90a10,10,0,0,0-10,10v163a10,10,0,0,0,10,10H523.05a10,10,0,0,0,10-10V197.94A54,54,0,0,0,585,144Z"/><text class="cls-5" transform="translate(290.46 131.54)">1<tspan x="0" y="68">4</tspan></text><line class="cls-6" x1="255.52" y1="149.25" x2="350.01" y2="149.25"/><path class="cls-4" d="M830.6,57.16a10,10,0,0,0-10,10V94.68h.4a54,54,0,1,1,0,108h-.4v27.52a10,10,0,0,0,10,10H993.16a54,54,0,0,0,107.93,0h162.56a10,10,0,0,0,10-10v-163a10,10,0,0,0-10-10Z"/><path class="cls-7" d="M1048.59,141H1099a50.42,50.42,0,1,1-50.42-50.42Z"/><path class="cls-8" d="M1054.58,135V84.55A50.41,50.41,0,0,1,1105,135Z"/></g></g></svg>