<svg xmlns="http://www.w3.org/2000/svg" viewBox="0 0 316.9 259.89"><defs><style>.cls-1{fill:#fff;}.cls-2{fill:#f7e0da;}.cls-3{fill:#505091;opacity:0.25;}.cls-4{fill:#1ec672;}</style></defs><title>Dashboard5NoShadow</title><g id="Layer_2" data-name="Layer 2"><g id="Layer_1-2" data-name="Layer 1"><rect class="cls-1" width="316.9" height="259.89"/><rect class="cls-2" x="19.99" y="9.31" width="108.98" height="62.56"/><rect class="cls-3" x="146.97" y="11.56" width="43.91" height="12.7"/><rect class="cls-3" x="146.97" y="34.22" width="43.79" height="12.35"/><rect class="cls-3" x="146.97" y="56.22" width="31.66" height="12.67"/><rect class="cls-3" x="146.97" y="87.2" width="109.75" height="12.36"/><rect class="cls-3" x="146.97" y="105.53" width="72.42" height="12.69"/><rect class="cls-3" x="146.97" y="146.86" width="66.75" height="12.36"/><rect class="cls-3" x="146.97" y="167.2" width="101.08" height="14.36"/><rect class="cls-3" x="146.97" y="213.53" width="98.08" height="12.36"/><circle class="cls-4" cx="73.41" cy="104.82" r="20.67"/><path class="cls-1" d="M83.55,97.42a2.06,2.06,0,0,0-2.91,0L70.23,107.83l-4.05-4.05a2.06,2.06,0,0,0-2.91,2.91l5.36,5.36a2,2,0,0,0,.13.16h0a2.06,2.06,0,0,0,2.91,0l11.88-11.88A2.06,2.06,0,0,0,83.55,97.42Z"/><circle class="cls-4" cx="73.41" cy="164.32" r="20.67"/><path class="cls-1" d="M83.55,156.92a2.06,2.06,0,0,0-2.91,0L70.23,167.33l-4.05-4.05a2.06,2.06,0,0,0-2.91,2.91l5.36,5.36a2,2,0,0,0,.13.16h0a2.06,2.06,0,0,0,2.91,0l11.88-11.88A2.06,2.06,0,0,0,83.55,156.92Z"/><circle class="cls-4" cx="73.41" cy="223.82" r="20.67"/><path class="cls-1" d="M83.55,216.42a2.06,2.06,0,0,0-2.91,0L70.23,226.83l-4.05-4.05a2.06,2.06,0,0,0-2.91,2.91l5.36,5.36a2,2,0,0,0,.13.16h0a2.06,2.06,0,0,0,2.91,0l11.88-11.88A2.06,2.06,0,0,0,83.55,216.42Z"/></g></g></svg>