<svg xmlns="http://www.w3.org/2000/svg" viewBox="0 0 864.9 92.47"><defs><style>.cls-1,.cls-12{fill:#fff;}.cls-2{fill:#505091;}.cls-3{fill:#e9f0f3;}.cls-4{fill:#fcc78e;}.cls-5{fill:#fcdfac;}.cls-6{fill:#664336;}.cls-7{fill:#e2927d;}.cls-8{fill:#29b473;}.cls-9{fill:#23d160;}.cls-10{fill:#e7dc48;}.cls-11{fill:none;stroke:#dba52c;}.cls-11,.cls-12{stroke-miterlimit:10;stroke-width:2.25px;}.cls-12{stroke:#47413d;}</style></defs><title>Dashboard2NoShadow</title><g id="Layer_2" data-name="Layer 2"><g id="Layer_1-2" data-name="Layer 1"><rect class="cls-1" width="864.9" height="92.47"/><rect class="cls-2" x="108.04" y="32.87" width="73.83" height="23.83"/><rect class="cls-2" x="193.95" y="32.87" width="39.16" height="23.83"/><path class="cls-3" d="M43.21,15.57A32.16,32.16,0,1,0,75.38,47.75,32.17,32.17,0,0,0,43.21,15.57Z"/><path class="cls-4" d="M48.24,60.89a.56.56,0,0,1-.55.27A.57.57,0,0,1,48.24,60.89Z"/><path class="cls-5" d="M59.26,43.15c0,11.39-7.58,20.63-16.92,20.63S25.42,54.55,25.42,43.15s7.24-13,16.58-13S59.26,31.76,59.26,43.15Z"/><path class="cls-6" d="M32.13,26.6a19,19,0,0,1,6.57-2.42l.9-.17c2-.08,2.74-.08,4.16-.11a6,6,0,0,1,1.69.22c1.13.31,2.26.6,3.36,1A19.88,19.88,0,0,1,61.88,43c.32,8.55-.17,9,2.83,17.11a1.09,1.09,0,0,1-.43,1.3c-1.71,1.07-4.93,4-6.74,3.13-6.38-3.19-9,.77-9-1.33,0-.78,0-1.55,0-2.33,1.48-1,.73-4.36,2.32-5.17,1.93-1,4-.65,4.56-2.21a3.58,3.58,0,0,1,2.47-1.91,3,3,0,0,0,2.51-2.71,3.49,3.49,0,0,0-2.16-3.34c-1-.35-1.17-1-1.1-2a5,5,0,0,0-2.41-4.89,6.47,6.47,0,0,0-3.08-.93c-2.72-.16-5.55.5-8.13-.94l-1.4-2.16a9.37,9.37,0,0,0-4.23-6.92C36.09,26.56,34.09,26.65,32.13,26.6Z"/><path class="cls-6" d="M32,26.64a.32.32,0,0,1,.16,0c1.94,0,3.91,0,5.63,1.12a9.56,9.56,0,0,1,4.31,7.85.34.34,0,0,1-.12.27,8.09,8.09,0,0,1-6.11,1.89,24.43,24.43,0,0,0-2.63,0,7.08,7.08,0,0,0-4,1.21c-2,1.41-2.28,3.31-2.28,5.27,0,.61,0,1.07-.81,1.3A2.87,2.87,0,0,0,24,48.27a3,3,0,0,0,2,3.24c.73.29,4.46-.66,4.55.17.3,3,1.76,4.07,4.64,5.18,1.3.5-.41,2.95.52,3.92a.3.3,0,0,1,.1.26c-.35,1.64-4.12,5.2-5.4,5.83a.31.31,0,0,1-.39-.09c-5.78-7.66-7.81-16.47-7.41-25.85C22.87,34.42,26.45,29.78,32,26.64Z"/><ellipse class="cls-5" cx="25.8" cy="49.85" rx="4.04" ry="4.5"/><ellipse class="cls-5" cx="57.49" cy="49.85" rx="4.04" ry="4.5"/><path class="cls-5" d="M42.34,63.78c7.76,0,14.28-6.37,16.28-15H26.06C28.06,57.41,34.58,63.78,42.34,63.78Z"/><path class="cls-7" d="M49.32,55.77c0,2-3,6.2-6.87,6.2s-7.09-4.23-7.09-6.2,3.13,0,7,0S49.32,53.8,49.32,55.77Z"/><ellipse class="cls-6" cx="35.16" cy="49.3" rx="1.46" ry="1.78" transform="translate(-24.57 39.3) rotate(-45)"/><ellipse class="cls-6" cx="49.32" cy="49.3" rx="1.78" ry="1.46" transform="translate(-20.42 49.32) rotate(-45)"/><path class="cls-6" d="M56.31,39.51c0,5.7-6.41,5.83-14.31,5.83s-14.31-.14-14.31-5.83S34.1,29.2,42,29.2,56.31,33.82,56.31,39.51Z"/><circle class="cls-8" cx="384.36" cy="49.01" r="21.1"/><circle class="cls-1" cx="384.36" cy="49.01" r="17.83"/><path class="cls-9" d="M384.36,49h17.83a17.83,17.83,0,1,1-3.7-10.87Z"/><circle class="cls-8" cx="528.15" cy="49.57" r="21.1"/><circle class="cls-1" cx="528.15" cy="49.57" r="17.83"/><path class="cls-9" d="M528.15,49.57H546a17.83,17.83,0,1,1-11.39-16.62Z"/><circle class="cls-10" cx="456.26" cy="49.1" r="27.51"/><circle class="cls-11" cx="456.26" cy="49.1" r="27.51"/><circle class="cls-12" cx="456.26" cy="49.1" r="19.05"/><circle class="cls-8" cx="663.15" cy="48.17" r="21.1"/><circle class="cls-1" cx="663.15" cy="48.17" r="17.83"/><path class="cls-9" d="M663.15,48.17H681a17.83,17.83,0,1,1-3.7-10.87Z"/><circle class="cls-8" cx="806.94" cy="48.73" r="21.1"/><circle class="cls-1" cx="806.94" cy="48.73" r="17.83"/><path class="cls-9" d="M806.94,48.73h17.83A17.83,17.83,0,1,1,813.38,32.1Z"/><circle class="cls-10" cx="735.05" cy="48.26" r="27.51"/><circle class="cls-11" cx="735.05" cy="48.26" r="27.51"/><circle class="cls-12" cx="735.05" cy="48.26" r="19.05"/></g></g></svg>