<svg xmlns="http://www.w3.org/2000/svg" viewBox="0 0 829.78 622.08"><defs><style>.cls-1{fill:#e9f0f3;}.cls-2{opacity:0.5;}.cls-27,.cls-3{fill:#fff;}.cls-4{fill:#a76857;}.cls-5{fill:#554f6e;}.cls-6{fill:#664343;}.cls-7{fill:#f5a0b4;}.cls-8{fill:#d16983;}.cls-9{fill:#4e8cc9;}.cls-10{fill:#d0aa30;}.cls-11{fill:#ecad9e;}.cls-12{fill:#c07e72;}.cls-13{fill:#b26e60;}.cls-14{fill:#e09489;}.cls-15{fill:#664437;}.cls-16{fill:#fcc78e;}.cls-17{fill:#fcdfac;}.cls-18{fill:#664336;}.cls-19{fill:#e2927d;}.cls-20,.cls-21{fill:#505091;}.cls-20{opacity:0.25;}.cls-21{opacity:0.05;}.cls-22{opacity:0.75;}.cls-23{fill:#29b473;}.cls-24{fill:#23d160;}.cls-25{fill:#e7dc48;}.cls-26,.cls-29{fill:none;}.cls-26{stroke:#dba52c;}.cls-26,.cls-27,.cls-29{stroke-miterlimit:10;stroke-width:2.25px;}.cls-27{stroke:#47413d;}.cls-28{fill:#dba52c;}.cls-29{stroke:#29b473;}.cls-30{fill:#c1d4db;}</style></defs><title>dashboard -1</title><g id="Layer_2" data-name="Layer 2"><g id="Layer_1-2" data-name="Layer 1"><rect class="cls-1" x="0.49" y="88.03" width="825.08" height="534.05"/><g class="cls-2"><rect class="cls-3" y="195.01" width="825.08" height="92.47"/></g><g class="cls-2"><rect class="cls-3" x="0.5" y="403.5" width="825.08" height="92.47"/></g><path class="cls-3" d="M56.52,108.91a32.16,32.16,0,1,0,32.17,32.17A32.17,32.17,0,0,0,56.52,108.91Z"/><path class="cls-4" d="M71.23,145.87c0,8.44-6.54,15.29-14.6,15.29S42,154.31,42,145.87s5.2-15.55,14.6-15.29A15.11,15.11,0,0,1,71.23,145.87Z"/><path class="cls-5" d="M49.82,131.89c-.39-.73-1.47-6-4-6-10.32-.24-6.1,10.71-6.18,11.11a18.58,18.58,0,0,0,.48,8.48c.09.34,3.15,4,3.51,3.36,4.43-8.31-.65-3.52.28-9.75.42-2.8,2.07-4.37,5.46-1.2"/><path class="cls-5" d="M63.65,132.45a16.65,16.65,0,0,1,4.8-3.58c6.12-3.27,5,8.89,5,9.3a18.58,18.58,0,0,1-1,8.43c-.11.34-3.4,3.82-3.71,3.13-3.9-8.57,2.28-4.06-2.29-8.93-1.94-2.06,1.6-4.87-1.78-5.49"/><circle class="cls-4" cx="69.99" cy="149.91" r="6.01"/><circle class="cls-4" cx="42.03" cy="148.82" r="6.01"/><path class="cls-6" d="M65.18,154c0,1.46-3.54,4.62-7.91,4.62s-7.91-3.16-7.91-4.62,3.54-.54,7.91-.54S65.18,152.56,65.18,154Z"/><ellipse class="cls-5" cx="50.65" cy="146.57" rx="1.67" ry="2.77"/><ellipse class="cls-5" cx="63.16" cy="146.66" rx="1.67" ry="2.77"/><path class="cls-5" d="M43.73,132.37c1.67,4.07,5.57,5.58,8.46,6.7.83.32,12.51,4.64,21.15-2.11,5.25-4.11,7.59-10.91,6.34-12s-4.43,3.77-9.16,3.17c-4.57-.58-4.78-5.45-10.57-8.11-3.64-1.67-10.17-2.78-14.1,1.06A10.63,10.63,0,0,0,43.73,132.37Z"/><path class="cls-3" d="M56.52,212.09a32.16,32.16,0,1,0,32.17,32.17A32.17,32.17,0,0,0,56.52,212.09Z"/><path class="cls-7" d="M70.58,253.43c0,7.44-6.6,11.76-14.73,11.76s-14.73-4.32-14.73-11.76S46.36,239.72,55.85,240C64,240.16,70.58,246,70.58,253.43Z"/><path class="cls-8" d="M63.39,259.86c0,1.29-3.12,4.08-7,4.08s-7-2.79-7-4.08,3.12-.47,7-.47S63.39,258.58,63.39,259.86Z"/><ellipse class="cls-9" cx="50.9" cy="254.81" rx="1.47" ry="2.01"/><ellipse class="cls-9" cx="61.93" cy="254.88" rx="1.47" ry="2.01"/><ellipse class="cls-10" cx="56.41" cy="239.95" rx="14.61" ry="10.16"/><ellipse class="cls-10" cx="57.69" cy="228.02" rx="8.46" ry="8.3"/><ellipse class="cls-10" cx="47.07" cy="239.57" rx="11.4" ry="15.73" transform="translate(-197.02 245.11) rotate(-80.19)"/><path class="cls-10" d="M43,254.08c2.27-.11,1.92-5.12,6.45-8.6,3.12-2.4,8.14-3.75,12-2.15,6.36,2.62,6.76,11.91,9.07,11.61,1.66-.22,3.29-5.27,1.89-9.46-2.5-7.5-13.53-8.85-15.26-9-7-.73-17.46,1.41-19.13,7.52C36.87,248.44,40.57,254.2,43,254.08Z"/><circle class="cls-7" cx="70.58" cy="254.94" r="5.3"/><circle class="cls-7" cx="40.93" cy="254.85" r="5.3"/><path class="cls-3" d="M56.52,418.44a32.16,32.16,0,1,0,32.17,32.17A32.17,32.17,0,0,0,56.52,418.44Z"/><ellipse class="cls-11" cx="56.74" cy="455.52" rx="14.15" ry="15.29"/><path class="cls-5" d="M47.92,429.94c-9.37,2.69-7.93,15.2-.09,17.56,2.61.78,5.19-2.13,7.06.9,3.54,5.72,11.64-.77,11-.2-1.08,1,2.36,4.22,3,7s1.22,2,2.27,2.4c1.69.68,5-2.34,5.79-7.38.95-6.05,1.58-10-6.55-13.46-3.76-1.59-2-2.35-9.24-.66C58.52,436.73,54.2,428.14,47.92,429.94Z"/><path class="cls-5" d="M52.91,441.49c-.48-.71-2.67-3.81-5.63-3.76-4.78.09-6.83,8.3-6.93,8.69a14.34,14.34,0,0,0,.59,8.22c.12.33,3.55.4,3.76-.41,1-4.09-.09-3,2.31-7,1.61-2.72,2.47-2.28,4.38-3"/><circle class="cls-11" cx="69.69" cy="458.95" r="5.83"/><circle class="cls-11" cx="42.59" cy="457.9" r="5.83"/><ellipse class="cls-5" cx="50.18" cy="457.71" rx="1.29" ry="2.65" transform="translate(-222.13 86.41) rotate(-30)"/><ellipse class="cls-5" cx="63.06" cy="457.71" rx="2.65" ry="1.29" transform="translate(-364.85 283.47) rotate(-60)"/><path class="cls-12" d="M64,465c0,1.28-3.1,4-6.92,4s-6.92-2.77-6.92-4,3.1-.47,6.92-.47S64,463.68,64,465Z"/><path class="cls-3" d="M56.52,521.61a32.16,32.16,0,1,0,32.17,32.17A32.17,32.17,0,0,0,56.52,521.61Z"/><ellipse class="cls-13" cx="56.35" cy="555.09" rx="13.57" ry="20.27"/><path class="cls-14" d="M60.78,566.42c0,1.87-1.91,5.9-4.36,5.9s-4.5-4-4.5-5.9,2,0,4.43,0S60.78,564.55,60.78,566.42Z"/><ellipse class="cls-15" cx="50.6" cy="560.28" rx="1.17" ry="1.69"/><ellipse class="cls-15" cx="61.95" cy="560.28" rx="1.17" ry="1.69"/><path class="cls-5" d="M73.85,546.42a5.23,5.23,0,0,0-1.15-3.14,7,7,0,0,0,.17-1.49c0-4.63-4.56-8.38-10.2-8.38a12,12,0,0,0-4.33.8,14,14,0,0,0-15.32,0,5.86,5.86,0,0,0-2.72-.66c-2.81,0-5.08,1.87-5.08,4.17a3.54,3.54,0,0,0,.49,1.76,6.7,6.7,0,0,0-1.92,4.61c0,3.25,2.51,6,6,7.08v9.43h5.61v-7.95a26.54,26.54,0,0,0,11.66,2.46,28,28,0,0,0,10.18-1.8v7.29h5.61V549.33A5.12,5.12,0,0,0,73.85,546.42Z"/><ellipse class="cls-13" cx="43.52" cy="561.31" rx="3.84" ry="4.28"/><ellipse class="cls-13" cx="69.03" cy="561.31" rx="3.84" ry="4.28"/><path class="cls-3" d="M56.52,315.26a32.16,32.16,0,1,0,32.17,32.17A32.17,32.17,0,0,0,56.52,315.26Z"/><path class="cls-16" d="M61.55,360.58a.56.56,0,0,1-.55.27A.57.57,0,0,1,61.55,360.58Z"/><path class="cls-17" d="M72.57,342.84c0,11.39-7.58,20.63-16.92,20.63s-16.92-9.24-16.92-20.63,7.24-13,16.58-13S72.57,331.45,72.57,342.84Z"/><path class="cls-18" d="M45.43,326.29A19,19,0,0,1,52,323.87l.9-.17c2-.08,2.74-.08,4.16-.11a6,6,0,0,1,1.69.22c1.13.31,2.26.6,3.36,1a19.88,19.88,0,0,1,13.07,17.88c.32,8.55-.17,9,2.83,17.11a1.09,1.09,0,0,1-.43,1.3c-1.71,1.07-4.93,4-6.74,3.13-6.38-3.19-9,.77-9-1.33,0-.78,0-1.55,0-2.33,1.48-1,.73-4.36,2.32-5.17,1.93-1,4-.65,4.56-2.21a3.58,3.58,0,0,1,2.47-1.91,3,3,0,0,0,2.51-2.71,3.49,3.49,0,0,0-2.16-3.34c-1-.35-1.17-1-1.1-2A5,5,0,0,0,68,338.36a6.47,6.47,0,0,0-3.08-.93c-2.72-.16-5.55.5-8.13-.94l-1.4-2.16a9.37,9.37,0,0,0-4.23-6.92C49.4,326.25,47.4,326.34,45.43,326.29Z"/><path class="cls-18" d="M45.36,326.33a.32.32,0,0,1,.16,0c1.94,0,3.91,0,5.63,1.12a9.56,9.56,0,0,1,4.31,7.85.34.34,0,0,1-.12.27,8.09,8.09,0,0,1-6.11,1.89,24.43,24.43,0,0,0-2.63,0,7.08,7.08,0,0,0-4,1.21c-2,1.41-2.28,3.31-2.28,5.27,0,.61,0,1.07-.81,1.3A2.87,2.87,0,0,0,37.26,348a3,3,0,0,0,2,3.24c.73.29,4.46-.66,4.55.17.3,3,1.76,4.07,4.64,5.18,1.3.5-.41,2.95.52,3.92a.3.3,0,0,1,.1.26c-.35,1.64-4.12,5.2-5.4,5.83a.31.31,0,0,1-.39-.09c-5.78-7.66-7.81-16.47-7.41-25.85C36.17,334.11,39.76,329.47,45.36,326.33Z"/><ellipse class="cls-17" cx="39.11" cy="349.54" rx="4.04" ry="4.5"/><ellipse class="cls-17" cx="70.8" cy="349.54" rx="4.04" ry="4.5"/><path class="cls-17" d="M55.65,363.47c7.76,0,14.28-6.37,16.28-15H39.37C41.37,357.1,47.89,363.47,55.65,363.47Z"/><path class="cls-19" d="M62.63,355.46c0,2-3,6.2-6.87,6.2s-7.09-4.23-7.09-6.2,3.13,0,7,0S62.63,353.49,62.63,355.46Z"/><ellipse class="cls-18" cx="48.47" cy="349" rx="1.46" ry="1.78" transform="translate(-232.58 136.49) rotate(-45)"/><ellipse class="cls-18" cx="62.63" cy="349" rx="1.78" ry="1.46" transform="translate(-228.43 146.5) rotate(-45)"/><path class="cls-18" d="M69.62,339.2c0,5.7-6.41,5.83-14.31,5.83S41,344.9,41,339.2s6.41-10.31,14.31-10.31S69.62,333.51,69.62,339.2Z"/><rect class="cls-20" x="117.52" y="128.57" width="89.9" height="23.83"/><rect class="cls-20" x="221.67" y="128.57" width="43.51" height="23.83"/><rect class="cls-20" x="125.08" y="534.69" width="80.48" height="23.83"/><rect class="cls-20" x="219.1" y="534.69" width="42.69" height="23.83"/><rect class="cls-20" x="124.63" y="437.04" width="73.83" height="23.83"/><rect class="cls-20" x="210.89" y="437.04" width="78.76" height="23.83"/><rect class="cls-20" x="119.7" y="223.02" width="55.36" height="23.83"/><rect class="cls-20" x="185.45" y="223.02" width="70.41" height="23.83"/><rect class="cls-21" x="334.92" y="110.48" width="4.5" height="491.98"/><rect class="cls-21" x="610.92" y="106.48" width="4.5" height="491.98"/><g class="cls-22"><circle class="cls-23" cx="394.62" cy="145" r="21.1"/><circle class="cls-3" cx="394.62" cy="145" r="17.83"/><path class="cls-24" d="M394.62,145h17.83a17.83,17.83,0,1,1-3.7-10.87Z"/><circle class="cls-23" cx="538.4" cy="145.56" r="21.1"/><circle class="cls-3" cx="538.4" cy="145.56" r="17.83"/><path class="cls-24" d="M538.4,145.56h17.83a17.83,17.83,0,1,1-11.39-16.62Z"/><circle class="cls-25" cx="466.51" cy="145.1" r="27.51"/><circle class="cls-26" cx="466.51" cy="145.1" r="27.51"/><circle class="cls-27" cx="466.51" cy="145.1" r="19.05"/><circle class="cls-28" cx="394.62" cy="248.25" r="21.1"/><circle class="cls-3" cx="394.62" cy="248.25" r="17.83"/><path class="cls-25" d="M394.62,248.25h17.83a17.83,17.83,0,1,1-34.83-5.38Z"/><circle class="cls-23" cx="538.4" cy="248.81" r="21.1"/><circle class="cls-3" cx="538.4" cy="248.81" r="17.83"/><path class="cls-24" d="M538.4,248.81h17.83a17.83,17.83,0,1,1-25.56-16.07Z"/><circle class="cls-24" cx="466.51" cy="248.34" r="27.51"/><circle class="cls-29" cx="466.51" cy="248.34" r="27.51"/><circle class="cls-27" cx="466.51" cy="248.34" r="19.05"/><circle class="cls-23" cx="397.61" cy="447.45" r="21.1"/><circle class="cls-3" cx="397.61" cy="447.45" r="17.83"/><path class="cls-24" d="M397.61,447.45h17.83a17.83,17.83,0,1,1-3.7-10.87Z"/><circle class="cls-23" cx="541.4" cy="448.02" r="21.1"/><circle class="cls-3" cx="541.4" cy="448.02" r="17.83"/><path class="cls-24" d="M541.4,448h17.83a17.83,17.83,0,1,1-11.39-16.62Z"/><circle class="cls-25" cx="469.51" cy="447.55" r="27.51"/><circle class="cls-26" cx="469.51" cy="447.55" r="27.51"/><circle class="cls-27" cx="469.51" cy="447.55" r="19.05"/><circle class="cls-23" cx="397.45" cy="553.53" r="21.1"/><circle class="cls-3" cx="397.45" cy="553.53" r="17.83"/><path class="cls-24" d="M397.45,553.53h17.83a17.83,17.83,0,1,1-3.7-10.87Z"/><circle class="cls-23" cx="541.23" cy="554.09" r="21.1"/><circle class="cls-3" cx="541.23" cy="554.09" r="17.83"/><path class="cls-24" d="M541.23,554.09h17.83a17.83,17.83,0,1,1-2.16-8.51Z"/><circle class="cls-24" cx="469.34" cy="553.63" r="27.51"/><circle class="cls-29" cx="469.34" cy="553.63" r="27.51"/><circle class="cls-27" cx="469.34" cy="553.63" r="19.05"/><circle class="cls-23" cx="396.92" cy="348.77" r="21.1"/><circle class="cls-3" cx="396.92" cy="348.77" r="17.83"/><path class="cls-24" d="M396.92,348.77h17.83A17.83,17.83,0,1,1,411,337.9Z"/><circle class="cls-23" cx="540.7" cy="349.33" r="21.1"/><circle class="cls-3" cx="540.7" cy="349.33" r="17.83"/><path class="cls-24" d="M540.7,349.33h17.83a17.83,17.83,0,1,1-11.39-16.62Z"/><circle class="cls-25" cx="468.81" cy="348.87" r="27.51"/><circle class="cls-26" cx="468.81" cy="348.87" r="27.51"/><circle class="cls-27" cx="468.81" cy="348.87" r="19.05"/></g><rect class="cls-30" x="0.49" width="825.08" height="88"/><rect class="cls-20" x="33.52" y="46" width="246.93" height="20.4"/><rect class="cls-20" x="411.19" y="37.33" width="114.93" height="28.4"/><rect class="cls-20" x="691.02" y="36" width="114.93" height="28.4"/><g class="cls-22"><path class="cls-23" d="M673.4,169.76a21.1,21.1,0,1,0-21.1-21.1A21.1,21.1,0,0,0,673.4,169.76Zm-14.55-31.38c.17-.24.35-.48.53-.71s.24-.32.37-.47q.45-.54,1-1l.35-.34q.38-.37.79-.72l.42-.35c.3-.24.61-.47.93-.69l.31-.22c.4-.27.82-.52,1.24-.76l.52-.27.48-.25v0a17.82,17.82,0,1,1-10.18,16.09c0-.54,0-1.07.08-1.6,0-.17,0-.34.05-.51q.07-.56.17-1.11c0-.17.06-.34.09-.51.1-.46.22-.91.35-1.35.07-.23.15-.45.23-.68s.17-.5.27-.74.19-.47.29-.71.24-.52.37-.78.35-.66.54-1,.28-.48.43-.71Z"/><path class="cls-3" d="M657.48,140.66q.25-.5.54-1Q657.74,140.16,657.48,140.66Z"/><path class="cls-3" d="M655.58,148.65a17.83,17.83,0,0,0,17.83,17.83A17.91,17.91,0,0,1,655.58,148.65Z"/><path class="cls-3" d="M664.75,133.07l.52-.27Z"/><path class="cls-3" d="M655.66,147.05c0-.17,0-.34.05-.51C655.69,146.71,655.67,146.88,655.66,147.05Z"/><path class="cls-3" d="M655.88,145.43c0-.17.06-.34.09-.51C655.94,145.09,655.91,145.26,655.88,145.43Z"/><path class="cls-3" d="M656.32,143.57c.07-.23.15-.45.23-.68C656.47,143.11,656.39,143.34,656.32,143.57Z"/><path class="cls-3" d="M656.82,142.15c.09-.24.19-.47.29-.71C657,141.67,656.91,141.91,656.82,142.15Z"/><path class="cls-3" d="M673.4,166.48a17.83,17.83,0,0,0,17.83-17.83A17.91,17.91,0,0,1,673.4,166.48Z"/><path class="cls-3" d="M659.38,137.67l.37-.47C659.63,137.35,659.51,137.51,659.38,137.67Z"/><path class="cls-3" d="M660.71,136.15l.35-.34Z"/><path class="cls-3" d="M658.45,139l.4-.59Z"/><path class="cls-3" d="M691.23,148.65a17.8,17.8,0,0,0-25.47-16.09l7.65,16.09Z"/><path class="cls-3" d="M661.85,135.09l.42-.35Z"/><path class="cls-3" d="M663.19,134.05l.31-.22Z"/><path class="cls-24" d="M658.45,139c-.15.23-.29.47-.43.71C658.16,139.44,658.3,139.2,658.45,139Z"/><path class="cls-24" d="M656.55,142.89q.13-.37.27-.74C656.72,142.39,656.63,142.64,656.55,142.89Z"/><path class="cls-24" d="M657.11,141.44c.12-.26.24-.52.37-.78C657.35,140.92,657.23,141.18,657.11,141.44Z"/><path class="cls-24" d="M655.71,146.54c0-.37.1-.74.17-1.11Q655.78,146,655.71,146.54Z"/><path class="cls-24" d="M656,144.92c.1-.46.22-.91.35-1.35C656.19,144,656.07,144.46,656,144.92Z"/><path class="cls-24" d="M659.76,137.19q.46-.54,1-1Q660.21,136.65,659.76,137.19Z"/><path class="cls-24" d="M658.85,138.38c.17-.24.35-.48.53-.71C659.2,137.9,659,138.13,658.85,138.38Z"/><path class="cls-24" d="M661.06,135.81q.38-.37.79-.72Q661.44,135.44,661.06,135.81Z"/><path class="cls-24" d="M662.27,134.75c.3-.24.61-.47.93-.69C662.87,134.27,662.57,134.5,662.27,134.75Z"/><path class="cls-24" d="M663.5,133.83c.4-.27.82-.52,1.24-.76C664.32,133.31,663.9,133.56,663.5,133.83Z"/><path class="cls-24" d="M665.75,132.55l-.48.25.49-.24Z"/><path class="cls-24" d="M655.58,148.65c0-.54,0-1.07.08-1.6C655.61,147.58,655.58,148.11,655.58,148.65Z"/><path class="cls-24" d="M657.48,140.66c-.13.26-.26.51-.37.78s-.2.47-.29.71-.19.49-.27.74-.16.45-.23.68c-.13.45-.25.9-.35,1.35,0,.17-.06.34-.09.51-.07.37-.13.74-.17,1.11,0,.17,0,.34-.05.51,0,.53-.08,1.06-.08,1.6a17.83,17.83,0,1,0,35.66,0H673.4l-7.65-16.09-.49.24-.52.27c-.42.24-.84.49-1.24.76l-.31.22c-.32.22-.63.45-.93.69l-.42.35q-.41.35-.79.72l-.35.34q-.5.5-1,1l-.37.47c-.18.23-.36.47-.53.71l-.4.59c-.15.23-.29.47-.43.71S657.65,140.33,657.48,140.66Z"/><path class="cls-23" d="M817.19,167a17.83,17.83,0,1,1,0-35.66c.58,0,1.15,0,1.72.09.26,0,.51.07.77.11s.61.08.91.14.61.14.92.22l.72.18c.32.09.63.2.94.31l.47.16h0l.82.34v-3.52a21.1,21.1,0,1,0,0,39.59v-3.52A17.74,17.74,0,0,1,817.19,167Z"/><path class="cls-3" d="M820.59,131.72c.31.06.61.14.92.22C821.2,131.86,820.9,131.78,820.59,131.72Z"/><path class="cls-3" d="M818.92,131.47c.26,0,.51.07.77.11C819.43,131.54,819.17,131.5,818.92,131.47Z"/><path class="cls-3" d="M817.19,131.39a17.83,17.83,0,0,0-17.83,17.83A17.91,17.91,0,0,1,817.19,131.39Z"/><path class="cls-3" d="M822.23,132.12c.32.09.63.2.94.31C822.85,132.32,822.54,132.21,822.23,132.12Z"/><path class="cls-3" d="M817.19,167a17.74,17.74,0,0,0,7.26-1.56v0A17.58,17.58,0,0,1,817.19,167Z"/><path class="cls-3" d="M817.19,149.21h7.26V132.94l-.82-.34Z"/><path class="cls-3" d="M799.36,149.21A17.83,17.83,0,0,0,817.19,167,17.91,17.91,0,0,1,799.36,149.21Z"/><path class="cls-24" d="M819.68,131.58c.3,0,.61.08.91.14C820.29,131.66,820,131.62,819.68,131.58Z"/><path class="cls-24" d="M817.19,131.39c.58,0,1.16,0,1.72.09C818.34,131.42,817.77,131.39,817.19,131.39Z"/><path class="cls-24" d="M823.63,132.59l-.47-.16.46.17Z"/><path class="cls-24" d="M821.51,131.93l.72.18Z"/><path class="cls-24" d="M824.45,149.21h-7.26l6.44-16.61-.46-.17c-.31-.11-.62-.22-.94-.31l-.72-.18c-.3-.08-.61-.16-.92-.22s-.6-.1-.91-.14-.51-.08-.77-.11c-.57-.05-1.14-.09-1.72-.09a17.83,17.83,0,1,0,0,35.66,17.58,17.58,0,0,0,7.26-1.58Z"/><path class="cls-25" d="M745.3,176.26a27.51,27.51,0,1,0-27.51-27.51A27.51,27.51,0,0,0,745.3,176.26Zm0-46.55a19,19,0,1,1-19,19A19,19,0,0,1,745.3,129.7Z"/><circle class="cls-27" cx="745.3" cy="148.75" r="19.05"/><path class="cls-23" d="M676.4,228a21.1,21.1,0,1,0,21.1,21.1A21.1,21.1,0,0,0,676.4,228Zm0,38.93a17.83,17.83,0,1,1,0-35.66c.54,0,1.07,0,1.6.08l.51.06q.56.07,1.12.17l.5.09q.71.15,1.4.36l.58.19.88.32.61.25c.32.14.63.29.94.45l.43.22q.57.31,1.12.67h0a17.82,17.82,0,0,1-9.69,32.78Z"/><path class="cls-3" d="M679.63,231.58l.5.09Z"/><path class="cls-3" d="M681.54,232l.58.19Z"/><path class="cls-3" d="M686.09,234.15l-9.69,15h17.83A17.8,17.8,0,0,0,686.09,234.15Z"/><path class="cls-3" d="M683,232.55l.61.25Z"/><path class="cls-3" d="M678,231.35l.51.06Z"/><path class="cls-3" d="M684.55,233.26l.43.22Z"/><path class="cls-3" d="M676.4,266.93a17.83,17.83,0,0,0,17.83-17.83A17.91,17.91,0,0,1,676.4,266.93Z"/><path class="cls-3" d="M658.57,249.1a17.83,17.83,0,0,0,17.83,17.83A17.91,17.91,0,0,1,658.57,249.1Z"/><path class="cls-3" d="M676.4,231.27a17.83,17.83,0,0,0-17.83,17.83A17.91,17.91,0,0,1,676.4,231.27Z"/><path class="cls-24" d="M683.61,232.8c.32.14.63.29.94.45C684.24,233.1,683.92,232.94,683.61,232.8Z"/><path class="cls-24" d="M676.4,231.27c.54,0,1.07,0,1.6.08C677.47,231.31,676.94,231.27,676.4,231.27Z"/><path class="cls-24" d="M678.51,231.41c.38,0,.75.1,1.12.17Q679.08,231.48,678.51,231.41Z"/><path class="cls-24" d="M680.13,231.67c.48.1.94.22,1.4.36Q680.84,231.82,680.13,231.67Z"/><path class="cls-24" d="M686.1,234.14q-.55-.36-1.12-.67c.38.21.75.44,1.12.68Z"/><path class="cls-24" d="M682.12,232.23l.88.32Z"/><path class="cls-24" d="M686.09,234.15c-.36-.24-.73-.47-1.12-.68l-.43-.22c-.31-.16-.62-.31-.94-.45l-.61-.25-.88-.32-.58-.19c-.46-.14-.93-.26-1.4-.36l-.5-.09c-.37-.07-.74-.13-1.12-.17l-.51-.06c-.53,0-1.06-.08-1.6-.08a17.83,17.83,0,1,0,17.83,17.83H676.4Z"/><path class="cls-23" d="M820.19,267.49a17.83,17.83,0,0,1,0-35.66c.58,0,1.15,0,1.72.09.26,0,.51.07.77.11s.61.08.91.14.58.13.86.2V229a21.1,21.1,0,1,0,0,41.35V267A17.8,17.8,0,0,1,820.19,267.49Z"/><path class="cls-3" d="M820.19,231.83a17.83,17.83,0,0,0-17.83,17.83A17.91,17.91,0,0,1,820.19,231.83Z"/><path class="cls-3" d="M802.36,249.66a17.83,17.83,0,0,0,17.83,17.83A17.91,17.91,0,0,1,802.36,249.66Z"/><polygon class="cls-3" points="824.45 249.66 824.45 238.66 820.19 249.66 824.45 249.66"/><path class="cls-3" d="M820.19,267.49a17.8,17.8,0,0,0,4.27-.54h0A17.57,17.57,0,0,1,820.19,267.49Z"/><path class="cls-3" d="M821.91,231.92c.26,0,.51.07.77.11C822.42,232,822.17,231.95,821.91,231.92Z"/><path class="cls-3" d="M824.45,232.37h0c-.29-.07-.57-.15-.86-.2C823.88,232.22,824.16,232.3,824.45,232.37Z"/><path class="cls-24" d="M822.68,232c.3,0,.61.08.91.14C823.29,232.11,823,232.07,822.68,232Z"/><path class="cls-24" d="M820.19,231.83c.58,0,1.16,0,1.72.09C821.34,231.87,820.76,231.83,820.19,231.83Z"/><path class="cls-24" d="M824.45,249.66h-4.27l4.27-11v-6.29c-.29-.07-.57-.15-.86-.2s-.6-.1-.91-.14-.51-.08-.77-.11c-.57-.05-1.14-.09-1.72-.09a17.83,17.83,0,0,0,0,35.66,17.57,17.57,0,0,0,4.27-.54Z"/><path class="cls-24" d="M748.29,221.69A27.51,27.51,0,1,0,775.8,249.2,27.51,27.51,0,0,0,748.29,221.69Zm0,46.55a19,19,0,1,1,19-19A19,19,0,0,1,748.29,268.24Z"/><circle class="cls-27" cx="748.29" cy="249.2" r="19.05"/><path class="cls-23" d="M679.56,433.55a21.1,21.1,0,1,0,21.1,21.1A21.1,21.1,0,0,0,679.56,433.55Zm0,38.93a17.83,17.83,0,1,1,0-35.66c.55,0,1.1,0,1.64.08l.29,0c.49.05,1,.13,1.45.22l.44.09c.45.1.89.21,1.32.34l.47.15q.54.18,1.06.39l.52.22c.36.16.71.33,1.06.51l.42.22q.59.33,1.16.71l.33.23c.4.27.78.56,1.16.87l.13.11c.36.3.71.62,1,1l.18.18q.52.52,1,1.09l.21.25.27.32h0a17.81,17.81,0,0,1-14.12,28.69Z"/><path class="cls-3" d="M686.23,438.13l.52.22Z"/><path class="cls-3" d="M684.69,437.59l.47.15Z"/><path class="cls-3" d="M687.8,438.85l.42.22Z"/><path class="cls-3" d="M689.38,439.78l.33.23Z"/><path class="cls-3" d="M681.2,436.91l.29,0Z"/><path class="cls-3" d="M682.93,437.16l.44.09Z"/><path class="cls-3" d="M690.87,440.88l.13.11Z"/><path class="cls-3" d="M679.56,436.83a17.83,17.83,0,0,0-17.83,17.83A17.91,17.91,0,0,1,679.56,436.83Z"/><path class="cls-3" d="M661.73,454.66a17.83,17.83,0,0,0,17.83,17.83A17.91,17.91,0,0,1,661.73,454.66Z"/><path class="cls-3" d="M679.56,454.66h17.83a17.73,17.73,0,0,0-3.71-10.86Z"/><path class="cls-3" d="M693.22,443.21l.21.25Z"/><path class="cls-3" d="M679.56,472.49a17.83,17.83,0,0,0,17.83-17.83A17.91,17.91,0,0,1,679.56,472.49Z"/><path class="cls-3" d="M692,441.94l.18.18Z"/><path class="cls-24" d="M679.56,436.83c.55,0,1.1,0,1.64.08C680.66,436.86,680.11,436.83,679.56,436.83Z"/><path class="cls-24" d="M686.74,438.35q.54.24,1.06.51C687.45,438.67,687.1,438.5,686.74,438.35Z"/><path class="cls-24" d="M691,441c.36.3.71.62,1,1C691.7,441.61,691.36,441.29,691,441Z"/><path class="cls-24" d="M681.49,436.94c.49.05,1,.13,1.45.22C682.46,437.07,682,437,681.49,436.94Z"/><path class="cls-24" d="M689.71,440c.4.28.79.56,1.16.87C690.49,440.57,690.1,440.28,689.71,440Z"/><path class="cls-24" d="M688.21,439.07q.6.33,1.16.71Q688.81,439.41,688.21,439.07Z"/><path class="cls-24" d="M693.69,443.79l-.27-.32.25.34Z"/><path class="cls-24" d="M692.23,442.12c.35.35.68.71,1,1.09Q692.74,442.64,692.23,442.12Z"/><path class="cls-24" d="M685.16,437.74q.54.18,1.06.39Q685.7,437.92,685.16,437.74Z"/><path class="cls-24" d="M683.37,437.25c.45.1.89.21,1.32.34C684.26,437.46,683.82,437.35,683.37,437.25Z"/><path class="cls-24" d="M693.68,443.8l-.25-.34-.21-.25c-.32-.38-.65-.74-1-1.09l-.18-.18c-.34-.33-.69-.65-1-1l-.13-.11c-.37-.31-.76-.59-1.16-.87l-.33-.23q-.57-.37-1.16-.71l-.42-.22q-.52-.27-1.06-.51l-.52-.22q-.52-.21-1.06-.39l-.47-.15c-.43-.13-.87-.24-1.32-.34l-.44-.09c-.48-.09-1-.17-1.45-.22l-.29,0c-.54,0-1.09-.08-1.64-.08a17.83,17.83,0,1,0,17.83,17.83H679.56Z"/><path class="cls-23" d="M823.35,473a17.83,17.83,0,1,1,0-35.66c.37,0,.74,0,1.1.05v-3.27c-.37,0-.73-.06-1.1-.06a21.1,21.1,0,1,0,0,42.21c.37,0,.74,0,1.1-.06V473C824.08,473,823.72,473,823.35,473Z"/><path class="cls-3" d="M823.35,437.39a17.83,17.83,0,0,0-17.83,17.83A17.91,17.91,0,0,1,823.35,437.39Z"/><path class="cls-3" d="M823.35,473c.37,0,.74,0,1.1-.06h0C824.08,473,823.72,473,823.35,473Z"/><path class="cls-3" d="M805.52,455.22A17.83,17.83,0,0,0,823.35,473,17.91,17.91,0,0,1,805.52,455.22Z"/><polygon class="cls-3" points="824.45 455.22 824.45 452.37 823.35 455.22 824.45 455.22"/><path class="cls-24" d="M824.45,437.45h0c-.37,0-.74-.05-1.1-.05C823.72,437.39,824.08,437.42,824.45,437.45Z"/><path class="cls-24" d="M824.45,455.22h-1.1l1.1-2.85V437.45c-.37,0-.73-.06-1.1-.06a17.83,17.83,0,1,0,0,35.66c.37,0,.74,0,1.1-.06Z"/><path class="cls-25" d="M751.45,427.24A27.51,27.51,0,1,0,779,454.75,27.51,27.51,0,0,0,751.45,427.24Zm0,46.55a19,19,0,1,1,19-19A19,19,0,0,1,751.45,473.8Z"/><circle class="cls-27" cx="751.45" cy="454.75" r="19.05"/><path class="cls-23" d="M679.56,536.8a21.1,21.1,0,1,0,21.1,21.1A21.1,21.1,0,0,0,679.56,536.8Zm0,38.93a17.83,17.83,0,1,1,0-35.66c.55,0,1.1,0,1.64.08l.29,0c.49.05,1,.13,1.45.22l.44.09c.45.1.89.21,1.32.34l.47.15q.54.18,1.06.39l.52.22c.36.16.71.33,1.05.51l.42.22q.59.33,1.16.71l.33.23c.4.27.78.56,1.16.87l.13.11c.36.3.71.62,1,1l.19.18q.52.52,1,1.09l.21.26.26.32h0a17.81,17.81,0,0,1-14.12,28.69Z"/><path class="cls-3" d="M684.69,540.84l.47.15Z"/><path class="cls-3" d="M686.22,541.38l.52.22Z"/><path class="cls-3" d="M682.93,540.41l.44.09Z"/><path class="cls-3" d="M681.2,540.16l.29,0Z"/><path class="cls-3" d="M687.8,542.1l.42.22Z"/><path class="cls-3" d="M693.22,546.46l.21.26Z"/><path class="cls-3" d="M690.87,544.12l.13.11Z"/><path class="cls-3" d="M689.37,543l.33.23Z"/><path class="cls-3" d="M692,545.19l.19.18Z"/><path class="cls-3" d="M679.56,540.08a17.83,17.83,0,0,0-17.83,17.83A17.91,17.91,0,0,1,679.56,540.08Z"/><path class="cls-3" d="M679.56,557.91h17.83A17.73,17.73,0,0,0,693.68,547Z"/><path class="cls-3" d="M661.73,557.91a17.83,17.83,0,0,0,17.83,17.83A17.91,17.91,0,0,1,661.73,557.91Z"/><path class="cls-3" d="M679.56,575.73a17.83,17.83,0,0,0,17.83-17.83A17.91,17.91,0,0,1,679.56,575.73Z"/><path class="cls-24" d="M685.16,541q.54.18,1.06.39Q685.7,541.17,685.16,541Z"/><path class="cls-24" d="M692.23,545.37c.35.35.68.71,1,1.09Q692.74,545.89,692.23,545.37Z"/><path class="cls-24" d="M693.69,547l-.26-.32.25.33Z"/><path class="cls-24" d="M688.21,542.32q.6.33,1.16.71Q688.81,542.65,688.21,542.32Z"/><path class="cls-24" d="M683.37,540.5q.67.15,1.32.34C684.26,540.7,683.82,540.59,683.37,540.5Z"/><path class="cls-24" d="M681.49,540.19c.49.05,1,.13,1.45.22C682.46,540.31,682,540.24,681.49,540.19Z"/><path class="cls-24" d="M686.74,541.59q.54.24,1.05.51C687.45,541.92,687.1,541.75,686.74,541.59Z"/><path class="cls-24" d="M691,544.23q.54.45,1,1C691.7,544.85,691.36,544.54,691,544.23Z"/><path class="cls-24" d="M679.56,540.08c.55,0,1.1,0,1.64.08C680.66,540.11,680.11,540.08,679.56,540.08Z"/><path class="cls-24" d="M689.71,543.26c.4.28.79.56,1.16.87C690.49,543.82,690.11,543.53,689.71,543.26Z"/><path class="cls-24" d="M693.68,547l-.25-.33-.21-.26c-.32-.38-.65-.74-1-1.09l-.19-.18q-.51-.5-1-1l-.13-.11c-.37-.31-.76-.59-1.16-.87l-.33-.23q-.57-.37-1.16-.71l-.42-.22q-.52-.27-1.05-.51l-.52-.22q-.52-.21-1.06-.39l-.47-.15q-.65-.19-1.32-.34l-.44-.09c-.48-.09-1-.17-1.45-.22l-.29,0c-.54,0-1.09-.08-1.64-.08a17.83,17.83,0,1,0,17.83,17.83H679.56Z"/><path class="cls-23" d="M823.35,576.3a17.83,17.83,0,1,1,0-35.66c.37,0,.74,0,1.1.05v-3.27c-.37,0-.73-.06-1.1-.06a21.1,21.1,0,1,0,0,42.21c.37,0,.74,0,1.1-.06v-3.28C824.08,576.26,823.72,576.3,823.35,576.3Z"/><path class="cls-3" d="M823.35,540.64a17.83,17.83,0,0,0-17.83,17.83A17.91,17.91,0,0,1,823.35,540.64Z"/><polygon class="cls-3" points="824.45 558.47 824.45 555.62 823.35 558.47 824.45 558.47"/><path class="cls-3" d="M805.52,558.47a17.83,17.83,0,0,0,17.83,17.83A17.91,17.91,0,0,1,805.52,558.47Z"/><path class="cls-3" d="M823.35,576.3c.37,0,.74,0,1.1-.06h0C824.08,576.26,823.72,576.3,823.35,576.3Z"/><path class="cls-24" d="M824.45,540.69h0c-.37,0-.74-.05-1.1-.05C823.72,540.64,824.08,540.67,824.45,540.69Z"/><path class="cls-24" d="M824.45,558.47h-1.1l1.1-2.85V540.69c-.37,0-.73-.06-1.1-.06a17.83,17.83,0,1,0,0,35.66c.37,0,.74,0,1.1-.06Z"/><path class="cls-25" d="M751.45,530.49A27.51,27.51,0,1,0,779,558,27.51,27.51,0,0,0,751.45,530.49Zm0,46.55a19,19,0,1,1,19-19A19,19,0,0,1,751.45,577Z"/><circle class="cls-27" cx="751.45" cy="558" r="19.05"/><path class="cls-3" d="M825.22,232.57c.32.09.63.2.94.31C825.85,232.77,825.54,232.66,825.22,232.57Z"/><path class="cls-3" d="M824.5,232.38h0Z"/><path class="cls-3" d="M826.63,233l-.47-.16.46.17Z"/><path class="cls-3" d="M824.5,232.38l.72.18Z"/><path class="cls-3" d="M824.45,238.66l2.17-5.6-.46-.17c-.31-.11-.62-.22-.94-.31l-.72-.18h-.05Z"/><path class="cls-3" d="M828.38,438.12c.32.09.63.2.94.31C829,438.33,828.7,438.22,828.38,438.12Z"/><path class="cls-3" d="M826.75,437.72c.31.06.61.14.92.22C827.36,437.86,827.06,437.78,826.75,437.72Z"/><path class="cls-3" d="M825.07,437.48c.26,0,.51.07.77.11C825.58,437.55,825.33,437.5,825.07,437.48Z"/><path class="cls-3" d="M827.66,437.94l.72.18Z"/><path class="cls-3" d="M825.84,437.59c.3,0,.61.08.91.14C826.45,437.67,826.14,437.63,825.84,437.59Z"/><path class="cls-3" d="M825.07,437.48l-.62,0h0Z"/><path class="cls-3" d="M824.45,452.37l5.33-13.76-.46-.17c-.31-.11-.62-.22-.94-.31l-.72-.18c-.3-.08-.61-.16-.92-.22s-.6-.1-.91-.14-.51-.08-.77-.11l-.62,0Z"/><path class="cls-3" d="M828.38,541.37c.32.09.63.2.94.31C829,541.58,828.7,541.47,828.38,541.37Z"/><path class="cls-3" d="M826.75,541c.31.06.61.14.92.22C827.36,541.11,827.06,541,826.75,541Z"/><path class="cls-3" d="M825.07,540.73c.26,0,.51.07.77.11C825.58,540.8,825.33,540.75,825.07,540.73Z"/><path class="cls-3" d="M825.84,540.83c.3,0,.61.08.91.14C826.45,540.91,826.14,540.88,825.84,540.83Z"/><path class="cls-3" d="M827.66,541.19l.72.18Z"/><path class="cls-3" d="M825.07,540.73l-.62,0h0Z"/><path class="cls-3" d="M824.45,555.62l5.33-13.76-.46-.17c-.31-.11-.62-.22-.94-.31l-.72-.18c-.3-.08-.61-.16-.92-.22s-.6-.1-.91-.14-.51-.08-.77-.11l-.62,0Z"/><circle class="cls-23" cx="675.7" cy="347.93" r="21.1"/><circle class="cls-3" cx="675.7" cy="347.93" r="17.83"/><path class="cls-24" d="M675.7,347.93h17.83a17.83,17.83,0,1,1-3.7-10.87Z"/><circle class="cls-25" cx="747.6" cy="348.02" r="27.51"/><circle class="cls-26" cx="747.6" cy="348.02" r="27.51"/><circle class="cls-27" cx="747.6" cy="348.02" r="19.05"/><path class="cls-23" d="M819.49,366.32a17.83,17.83,0,0,1,0-35.66c.58,0,1.15,0,1.72.09.26,0,.51.07.77.11s.61.08.91.14.61.14.92.22l.72.18c.32.09.62.2.93.31v-3.45a21.1,21.1,0,1,0,0,40.47v-3.45A17.76,17.76,0,0,1,819.49,366.32Z"/><path class="cls-3" d="M801.66,348.49a17.83,17.83,0,0,0,17.83,17.83A17.91,17.91,0,0,1,801.66,348.49Z"/><path class="cls-3" d="M819.49,330.66a17.83,17.83,0,0,0-17.83,17.83A17.91,17.91,0,0,1,819.49,330.66Z"/><path class="cls-3" d="M819.49,366.32a17.76,17.76,0,0,0,6-1v0A17.55,17.55,0,0,1,819.49,366.32Z"/><path class="cls-3" d="M821.21,330.75c.26,0,.51.07.77.11C821.73,330.82,821.47,330.77,821.21,330.75Z"/><polygon class="cls-3" points="825.46 348.49 825.46 333.09 819.49 348.49 825.46 348.49"/><path class="cls-3" d="M822.89,331c.31.06.61.14.92.22C823.5,331.13,823.2,331.05,822.89,331Z"/><path class="cls-3" d="M825.46,331.71h0c-.31-.11-.62-.22-.93-.31C824.84,331.49,825.15,331.6,825.46,331.71Z"/><path class="cls-24" d="M822,330.86c.3,0,.61.08.91.14C822.59,330.94,822.29,330.9,822,330.86Z"/><path class="cls-24" d="M823.81,331.21l.72.18Z"/><path class="cls-24" d="M819.49,330.66c.58,0,1.16,0,1.72.09C820.64,330.69,820.07,330.66,819.49,330.66Z"/><path class="cls-24" d="M825.46,348.49h-6l6-15.4v-1.38c-.31-.11-.62-.22-.93-.31l-.72-.18c-.3-.08-.61-.16-.92-.22s-.6-.1-.91-.14-.51-.08-.77-.11c-.57-.05-1.14-.09-1.72-.09a17.83,17.83,0,0,0,0,35.66,17.55,17.55,0,0,0,6-1.06Z"/><polygon class="cls-3" points="825.47 331.71 825.46 331.71 825.46 331.71 825.47 331.71"/><path class="cls-3" d="M825.93,331.87l-.47-.16.46.17Z"/><path class="cls-3" d="M825.46,333.09l.47-1.21-.46-.17h0Z"/></g><rect class="cls-20" x="120.59" y="332.63" width="73.83" height="23.83"/><rect class="cls-20" x="206.5" y="332.63" width="39.16" height="23.83"/></g></g></svg>