<svg xmlns="http://www.w3.org/2000/svg" viewBox="0 0 316.9 445.15"><defs><style>.cls-1{fill:#fff;}.cls-2{fill:#e9f0f3;}.cls-3{fill:#fcc78e;}.cls-4{fill:#fcdfac;}.cls-5{fill:#664336;}.cls-6{fill:#e2927d;}.cls-7,.cls-8{fill:#505091;}.cls-7{opacity:0.25;}.cls-9{fill:#cfcff9;}.cls-10{fill:#1ec672;}.cls-11{fill:#f7e0da;}.cls-12{fill:#d9f4f4;}.cls-13{fill:#eedaef;}</style></defs><title>Dashboard3NoShadow</title><g id="Layer_2" data-name="Layer 2"><g id="Layer_1-2" data-name="Layer 1"><rect class="cls-1" width="316.9" height="445.15"/><rect class="cls-2" width="316.9" height="88.15"/><path class="cls-1" d="M44.14,15.44A32.16,32.16,0,1,0,76.31,47.61,32.17,32.17,0,0,0,44.14,15.44Z"/><path class="cls-3" d="M48.73,60.89a.56.56,0,0,1-.55.27A.57.57,0,0,1,48.73,60.89Z"/><path class="cls-4" d="M59.75,43.15c0,11.39-7.58,20.63-16.92,20.63S25.91,54.55,25.91,43.15s7.24-13,16.58-13S59.75,31.76,59.75,43.15Z"/><path class="cls-5" d="M32.62,26.6a19,19,0,0,1,6.57-2.42l.9-.17c2-.08,2.74-.08,4.16-.11a6,6,0,0,1,1.69.22c1.13.31,2.26.6,3.36,1A19.88,19.88,0,0,1,62.37,43c.32,8.55-.17,9,2.83,17.11a1.09,1.09,0,0,1-.43,1.3c-1.71,1.07-4.93,4-6.74,3.13-6.38-3.19-9,.77-9-1.33,0-.78,0-1.55,0-2.33,1.48-1,.73-4.36,2.32-5.17,1.93-1,4-.65,4.56-2.21a3.58,3.58,0,0,1,2.47-1.91,3,3,0,0,0,2.51-2.71,3.49,3.49,0,0,0-2.16-3.34c-1-.35-1.17-1-1.1-2a5,5,0,0,0-2.41-4.89,6.47,6.47,0,0,0-3.08-.93c-2.72-.16-5.55.5-8.13-.94l-1.4-2.16a9.37,9.37,0,0,0-4.23-6.92C36.58,26.56,34.59,26.65,32.62,26.6Z"/><path class="cls-5" d="M32.54,26.64a.32.32,0,0,1,.16,0c1.94,0,3.91,0,5.63,1.12a9.56,9.56,0,0,1,4.31,7.85.34.34,0,0,1-.12.27,8.09,8.09,0,0,1-6.11,1.89,24.43,24.43,0,0,0-2.63,0,7.08,7.08,0,0,0-4,1.21c-2,1.41-2.28,3.31-2.28,5.27,0,.61,0,1.07-.81,1.3a2.87,2.87,0,0,0-2.26,2.78,3,3,0,0,0,2,3.24c.73.29,4.46-.66,4.55.17.3,3,1.76,4.07,4.64,5.18,1.3.5-.41,2.95.52,3.92a.3.3,0,0,1,.1.26c-.35,1.64-4.12,5.2-5.4,5.83a.31.31,0,0,1-.39-.09c-5.78-7.66-7.81-16.47-7.41-25.85C23.36,34.42,26.95,29.78,32.54,26.64Z"/><ellipse class="cls-4" cx="26.29" cy="49.85" rx="4.04" ry="4.5"/><ellipse class="cls-4" cx="57.99" cy="49.85" rx="4.04" ry="4.5"/><path class="cls-4" d="M42.83,63.78c7.76,0,14.28-6.37,16.28-15H26.55C28.55,57.41,35.07,63.78,42.83,63.78Z"/><path class="cls-6" d="M49.81,55.77c0,2-3,6.2-6.87,6.2s-7.09-4.23-7.09-6.2,3.13,0,7,0S49.81,53.8,49.81,55.77Z"/><ellipse class="cls-5" cx="35.65" cy="49.3" rx="1.46" ry="1.78" transform="translate(-24.42 39.65) rotate(-45)"/><ellipse class="cls-5" cx="49.81" cy="49.3" rx="1.78" ry="1.46" transform="translate(-20.27 49.66) rotate(-45)"/><path class="cls-5" d="M56.8,39.51c0,5.7-6.41,5.83-14.31,5.83s-14.31-.14-14.31-5.83S34.59,29.2,42.5,29.2,56.8,33.82,56.8,39.51Z"/><rect class="cls-7" x="147.97" y="123.94" width="112.42" height="12.03"/><rect class="cls-7" x="147.97" y="145.94" width="78.54" height="12.35"/><rect class="cls-7" x="147.97" y="167.94" width="93.77" height="12.67"/><rect class="cls-7" x="147.97" y="299.27" width="89.42" height="12.03"/><rect class="cls-7" x="147.97" y="321.27" width="62.47" height="12.35"/><rect class="cls-7" x="147.97" y="342.48" width="82.08" height="13.46"/><rect class="cls-7" x="147.97" y="208.51" width="43.91" height="12.7"/><rect class="cls-7" x="147.97" y="231.18" width="43.79" height="12.35"/><rect class="cls-7" x="147.97" y="253.18" width="31.66" height="12.67"/><rect class="cls-7" x="147.97" y="389.84" width="87.46" height="12.7"/><rect class="cls-7" x="147.97" y="412.51" width="87.22" height="12.35"/><rect class="cls-7" x="147.97" y="434.51" width="63.07" height="10.64"/><rect class="cls-8" x="96.55" y="33.8" width="73.83" height="23.83"/><rect class="cls-8" x="182.46" y="33.8" width="39.16" height="23.83"/><rect class="cls-9" x="15.99" y="121.16" width="108.98" height="62.56"/><circle class="cls-10" cx="69.48" cy="152.44" r="20.67"/><path class="cls-1" d="M79.62,145a2.06,2.06,0,0,0-2.91,0L66.3,155.45l-4.05-4.05a2.06,2.06,0,1,0-2.91,2.91l5.36,5.36a2,2,0,0,0,.13.16h0a2.06,2.06,0,0,0,2.91,0L79.62,148A2.06,2.06,0,0,0,79.62,145Z"/><rect class="cls-11" x="15.99" y="209.93" width="108.98" height="62.56"/><circle class="cls-10" cx="69.48" cy="240.44" r="20.67"/><path class="cls-1" d="M79.62,233a2.06,2.06,0,0,0-2.91,0L66.3,243.45l-4.05-4.05a2.06,2.06,0,1,0-2.91,2.91l5.36,5.36a2,2,0,0,0,.13.16h0a2.06,2.06,0,0,0,2.91,0L79.62,236A2.06,2.06,0,0,0,79.62,233Z"/><rect class="cls-12" x="15.99" y="298.71" width="108.98" height="62.56"/><circle class="cls-10" cx="69.48" cy="327.77" r="20.67"/><path class="cls-1" d="M79.62,320.38a2.06,2.06,0,0,0-2.91,0L66.3,330.79l-4.05-4.05a2.06,2.06,0,0,0-2.91,2.91L64.7,335a2,2,0,0,0,.13.16h0a2.06,2.06,0,0,0,2.91,0l11.88-11.88A2.06,2.06,0,0,0,79.62,320.38Z"/><rect class="cls-13" x="15.99" y="387.49" width="108.98" height="57.66"/><circle class="cls-10" cx="69.48" cy="418.77" r="20.67"/><path class="cls-1" d="M79.62,411.38a2.06,2.06,0,0,0-2.91,0L66.3,421.79l-4.05-4.05a2.06,2.06,0,0,0-2.91,2.91L64.7,426a2,2,0,0,0,.13.16h0a2.06,2.06,0,0,0,2.91,0l11.88-11.88A2.06,2.06,0,0,0,79.62,411.38Z"/></g></g></svg>