<svg xmlns="http://www.w3.org/2000/svg" viewBox="0 0 848.16 744.93"><defs><style>.cls-1{fill:none;stroke:#2096ff;stroke-miterlimit:10;stroke-width:3px;}.cls-2{fill:#18eadf;}.cls-3{fill:#e7dc48;}.cls-4{fill:#29b473;}.cls-5{fill:#844f4f;}.cls-6{fill:#4c3030;}.cls-7{fill:#2f2d3d;}.cls-8{fill:#ea9e7d;}.cls-9{fill:#c17256;}.cls-10{fill:#554f6e;}.cls-11{fill:#d1ab33;}.cls-12{fill:#ffbeb3;}.cls-13{fill:#d16984;}.cls-14{fill:#7170c4;}.cls-15{fill:#f7a1b5;}.cls-16{fill:#427c6a;}.cls-17{fill:#3cf;opacity:0.25;}.cls-18{fill:#2096ff;}.cls-19{font-size:40px;}.cls-19,.cls-20{fill:#fff;font-family:Lato-Bold, Lato;font-weight:700;}.cls-20{font-size:48px;}</style></defs><title>Multilingual</title><g id="Layer_2" data-name="Layer 2"><g id="Layer_3" data-name="Layer 3"><ellipse class="cls-1" cx="434.64" cy="260.65" rx="231.9" ry="81.8" transform="translate(-69.97 307.79) rotate(-36.29)"/><ellipse class="cls-1" cx="488.39" cy="347.87" rx="281.36" ry="100.81" transform="translate(-111.2 353.46) rotate(-36)"/><path class="cls-1" d="M350.67,194.93a427.52,427.52,0,0,0-8,137c10,96.25,50.78,165.88,75,201"/><path class="cls-1" d="M361.67,186.93a435.15,435.15,0,0,1,94,23c91.9,33.74,151.88,91.29,184,128"/><path class="cls-1" d="M349.67,199.93c-7.63,8.68-104.76,123.15-64,274,40,148.1,177.18,198.86,189,203"/><path class="cls-1" d="M357.67,189.93c-11.68.43-27.16,3-38,14-45.83,46.34,41.26,191.85,45,198,20.95,34.39,62.66,91.37,141,141"/><path class="cls-1" d="M340.67,627.93c-11.56-9.3-104.28-86.55-103-217,1.33-135.59,103.05-212.06,114-220"/><path class="cls-1" d="M481.67,624.93c-164.38-58.56-252.88-196.46-229-306,15.19-69.66,72.62-113.19,102-132"/><path class="cls-1" d="M694.67,409.93c-8-23-78.53-218.95-191-265-21.31-8.73-58.55-24-96-8-27.21,11.61-42.17,34.44-49,47"/><path class="cls-1" d="M367.67,185.93a331.9,331.9,0,0,1,143-21c106.42,8.13,177.17,66.41,201,88"/><path class="cls-1" d="M358.67,183.93c20.23-20.08,66.07-59.63,135-72,141.36-25.37,245.54,87.63,253,96"/><path class="cls-1" d="M801.77,460.21C826,326,757.6,195.07,642.57,144.47c-93-40.92-204.47-24-287.9,42.46"/><circle class="cls-2" cx="506.17" cy="543.43" r="10.5"/><circle class="cls-2" cx="420.17" cy="535.43" r="10.5"/><circle class="cls-2" cx="309.17" cy="528.43" r="10.5"/><circle class="cls-2" cx="694.17" cy="413.43" r="10.5"/><circle class="cls-2" cx="802.17" cy="457.43" r="10.5"/><circle class="cls-2" cx="638.17" cy="337.43" r="10.5"/><circle class="cls-2" cx="482.17" cy="623.43" r="10.5"/><circle class="cls-2" cx="479.17" cy="678.43" r="10.5"/><circle class="cls-2" cx="341.17" cy="627.43" r="10.5"/><circle class="cls-2" cx="711.17" cy="251.43" r="10.5"/><circle class="cls-2" cx="747.17" cy="204.43" r="10.5"/><ellipse class="cls-2" cx="359.67" cy="190.43" rx="23" ry="6.5" transform="translate(-42.52 252.59) rotate(-36.68)"/><polyline class="cls-3" points="266.48 473.13 311.82 528.93 357.15 473.13"/><circle class="cls-4" cx="311.48" cy="450.03" r="50.9"/><path class="cls-4" d="M311.48,508a58,58,0,1,1,58-58A58,58,0,0,1,311.48,508Zm0-114.2A56.23,56.23,0,1,0,367.71,450,56.29,56.29,0,0,0,311.48,393.8Z"/><path class="cls-5" d="M334.16,455.76v11.92c0,9.81-10.41,26.76-23.16,26.76h0c-12.76,0-23.2-16.95-23.2-26.76V455.76"/><path class="cls-6" d="M302.33,481c0,2.52,4.47,10.63,9.35,10.49s9-8.51,8.83-11c-.09-1.86-2.47.07-9.09.27S302.34,479.17,302.33,481Z"/><ellipse class="cls-7" cx="321.79" cy="472.07" rx="4.01" ry="2.55" transform="translate(-178.91 747.2) rotate(-84.51)"/><ellipse class="cls-7" cx="301.37" cy="471.99" rx="2.55" ry="4.01" transform="translate(-37.54 26.19) rotate(-4.69)"/><rect class="cls-7" x="282.96" y="441.28" width="9.67" height="25.61"/><rect class="cls-7" x="330.33" y="443.21" width="10.63" height="25.61"/><ellipse class="cls-5" cx="287.03" cy="468.83" rx="8.88" ry="9.67"/><ellipse class="cls-5" cx="335.93" cy="468.83" rx="8.88" ry="9.67"/><circle class="cls-7" cx="311.96" cy="419.05" r="13.53"/><ellipse class="cls-7" cx="298.97" cy="445.21" rx="14.5" ry="17.51" transform="translate(-227.24 341.8) rotate(-45)"/><ellipse class="cls-7" cx="325.07" cy="445.21" rx="17.51" ry="14.5" transform="translate(-219.6 360.26) rotate(-45)"/><ellipse class="cls-7" cx="311.96" cy="439.83" rx="29" ry="15.95"/><polyline class="cls-3" points="457.67 480.93 509.67 544.93 561.67 480.93"/><circle class="cls-4" cx="509.28" cy="454.43" r="58.39"/><path class="cls-4" d="M509.28,520.93a66.5,66.5,0,1,1,66.5-66.5A66.59,66.59,0,0,1,509.28,520.93Zm0-131a64.5,64.5,0,1,0,64.5,64.5A64.57,64.57,0,0,0,509.28,389.93Z"/><rect class="cls-8" x="478.67" y="425.93" width="58" height="77.17" rx="29" ry="29"/><path class="cls-9" d="M496.42,486.61c0,3.18,5.79,13.47,12.07,13.29S520,489.14,519.79,486c-.13-2.35-3.17.09-11.68.33S496.42,484.25,496.42,486.61Z"/><ellipse class="cls-10" cx="521.93" cy="468.92" rx="5.88" ry="2.87" transform="translate(-177.84 520.13) rotate(-46.12)"/><ellipse class="cls-10" cx="493.56" cy="468.92" rx="2.87" ry="5.88" transform="translate(-186.98 450.09) rotate(-41.95)"/><rect class="cls-10" x="471.67" y="437.93" width="11" height="31"/><rect class="cls-10" x="534.67" y="437.93" width="11" height="31"/><circle class="cls-8" cx="475.17" cy="471.43" r="11.5"/><circle class="cls-8" cx="540.17" cy="475.43" r="11.5"/><path class="cls-10" d="M479.67,450.93c7.92,3.57,17-1.29,22-4,9.49-5.11,11.34-10.79,16-10,5.55.94,4.94,9.31,12,14,8.86,5.87,25.43,3.08,29-5,4.56-10.31-13.85-25.1-15-26-14.09-11.11-36.44-15.49-45-7-3.1,3.08-4.75,8.21-8,8s-3.55-5.16-7-6c-4.68-1.15-12.18,5.95-14,14C467.73,437.51,472.17,447.54,479.67,450.93Z"/><polyline class="cls-3" points="606.22 292.44 641.55 335.93 676.88 292.44"/><circle class="cls-4" cx="641.28" cy="274.43" r="39.67"/><path class="cls-4" d="M641.28,319.62a45.19,45.19,0,1,1,45.19-45.19A45.24,45.24,0,0,1,641.28,319.62Zm0-89a43.83,43.83,0,1,0,43.83,43.82A43.87,43.87,0,0,0,641.28,230.61Z"/><rect class="cls-11" x="615.22" y="265.26" width="54" height="33.29"/><rect class="cls-12" x="617.02" y="249.63" width="50.4" height="53.68" rx="25.2" ry="25.2"/><path class="cls-13" d="M631.34,292.11c0,2.21,5.43,9.31,11.42,9.15s11-7.56,10.9-9.77c-.11-1.63-3.29,1.4-11.41,1.63S631.36,290.47,631.34,292.11Z"/><ellipse class="cls-14" cx="651.23" cy="281.78" rx="3.57" ry="1.95" transform="matrix(0.04, -1, 1, 0.04, 346.62, 922.65)"/><ellipse class="cls-14" cx="634" cy="281.78" rx="1.95" ry="3.57" transform="translate(-15.81 38.66) rotate(-3.45)"/><rect class="cls-11" x="615.22" y="262.54" width="6.06" height="18.01"/><rect class="cls-11" x="663.15" y="262.54" width="6.06" height="18.01"/><circle class="cls-12" cx="616.75" cy="282.25" r="7.81"/><circle class="cls-12" cx="667.71" cy="282.25" r="7.81"/><path class="cls-11" d="M669.41,263.11c0,8.8-12.13,9.56-27.1,9.56-4.25,0-7.09.24-9.74-.21-1.58-.26-15.7-2.76-17.35-9.35-1.88-7.51,11.95-22.31,27.09-22.31C657.28,240.8,669.41,254.31,669.41,263.11Z"/><polyline class="cls-3" points="717.17 159.88 746.7 196.22 776.23 159.88"/><circle class="cls-4" cx="746.48" cy="144.83" r="33.16"/><path class="cls-4" d="M746.48,182.59a37.76,37.76,0,1,1,37.76-37.76A37.8,37.8,0,0,1,746.48,182.59Zm0-74.39a36.63,36.63,0,1,0,36.63,36.63A36.67,36.67,0,0,0,746.48,108.2Z"/><rect class="cls-15" x="729.55" y="125.24" width="32.94" height="44.86" rx="16.47" ry="16.47"/><path class="cls-13" d="M742,158.41c0,2.09,2.19,8.9,4.45,8.84s4-7,4-9.08c-.07-1.55-1.15,0-4.21.12S742,156.85,742,158.41Z"/><ellipse class="cls-16" cx="754.11" cy="149.37" rx="1.63" ry="3.34" transform="matrix(1, -0.02, 0.02, 1, -2.78, 14.81)"/><ellipse class="cls-16" cx="738.01" cy="149.94" rx="3.34" ry="1.63" transform="translate(549 878.92) rotate(-86.95)"/><rect class="cls-10" x="727.28" y="132.05" width="5.74" height="17.6"/><rect class="cls-10" x="760.16" y="132.05" width="5.74" height="17.6"/><circle class="cls-15" cx="727.57" cy="151.07" r="6.53"/><circle class="cls-15" cx="764.48" cy="153.35" r="6.53"/><path class="cls-10" d="M730,136.59c4.28,2.46,7.21-.47,12.45,2.28,4.82,2.52,6.93,7.39,7.79,6.81s-1.66-6.45-1-6.81c1.09-.65,10.09,17,12.45,15.9,1.25-.59-1.06-5.61.52-12.5,1.71-7.43,4-8.25,3.63-11.35-1-9.07-25.42-21.58-36.32-6.82C727.23,127.13,725.74,134.16,730,136.59Z"/><ellipse class="cls-17" cx="626.67" cy="728.93" rx="126" ry="16"/><rect class="cls-18" x="635.22" width="212.94" height="73.85" rx="7.39" ry="7.39"/><path class="cls-18" d="M743.47,100.09l15.58-27a2.07,2.07,0,0,0-1.79-3.1H726.11a2.07,2.07,0,0,0-1.79,3.1l15.58,27A2.06,2.06,0,0,0,743.47,100.09Z"/><text class="cls-19" transform="translate(669.63 49.1)">Bonjour</text><rect class="cls-18" x="608.45" y="402.31" width="212.94" height="73.85" rx="7.39" ry="7.39"/><path class="cls-18" d="M583.24,441l27,15.58a2.07,2.07,0,0,0,3.1-1.79V423.66a2.07,2.07,0,0,0-3.1-1.79l-27,15.58A2.06,2.06,0,0,0,583.24,441Z"/><text class="cls-20" transform="translate(676.66 455.58)">Olá</text><rect class="cls-18" x="344" y="240.09" width="212.94" height="73.85" rx="7.39" ry="7.39"/><path class="cls-18" d="M581.43,275.22l-27-15.57a2.07,2.07,0,0,0-3.1,1.79v31.15a2.07,2.07,0,0,0,3.1,1.79l27-15.58A2.07,2.07,0,0,0,581.43,275.22Z"/><text class="cls-20" transform="translate(393.11 293.36)">Hallo</text><rect class="cls-18" y="427.09" width="212.94" height="73.85" rx="7.39" ry="7.39"/><path class="cls-18" d="M237.43,462.22l-27-15.57a2.07,2.07,0,0,0-3.1,1.79v31.15a2.07,2.07,0,0,0,3.1,1.79l27-15.58A2.07,2.07,0,0,0,237.43,462.22Z"/><text class="cls-20" transform="translate(49.11 480.36)">Hello</text></g></g></svg>